<svg width="120" height="104" viewBox="0 0 120 104" fill="none" xmlns="http://www.w3.org/2000/svg">
<g filter="url(#filter0_d_576_4277)">
<rect x="20" y="12" width="80" height="80" rx="40" fill="#EDC06B"/>
<path d="M60.0001 46.166L57.0834 49.0827C55.4726 50.6935 55.4726 53.3052 57.0834 54.916C58.6942 56.5268 61.3059 56.5268 62.9167 54.916C64.5276 53.3052 64.5276 50.6935 62.9167 49.0827L60.0001 46.166Z" fill="#593623"/>
<path d="M61.2501 42.416C60.5597 41.7257 59.4404 41.7257 58.7501 42.416C58.0597 43.1064 58.0597 44.2257 58.7501 44.916L60.0001 46.166L61.2501 44.916C61.9404 44.2257 61.9404 43.1064 61.2501 42.416Z" fill="#593623"/>
<path d="M60.0001 46.166L58.7501 44.916C58.0597 44.2257 58.0597 43.1064 58.7501 42.416V42.416C59.4404 41.7257 60.5597 41.7257 61.2501 42.416V42.416C61.9404 43.1064 61.9404 44.2257 61.2501 44.916L60.0001 46.166ZM60.0001 46.166L57.0834 49.0827C55.4726 50.6935 55.4726 53.3052 57.0834 54.916V54.916C58.6942 56.5268 61.3059 56.5268 62.9167 54.916V54.916C64.5276 53.3052 64.5276 50.6935 62.9167 49.0827L60.0001 46.166Z" stroke="#4A2919"/>
<path d="M42.5049 67.8343H36.5049C34.2957 67.8343 32.5049 69.6252 32.5049 71.8343V78.8336C32.5049 81.0427 34.2957 82.8336 36.5049 82.8336H42.5016L42.5049 78.6667H37.6667C37.1144 78.6667 36.6667 78.2189 36.6667 77.6667V73C36.6667 72.4477 37.1144 72 37.6667 72H42.5L42.5049 67.8343Z" fill="#F9F5E0"/>
<path d="M42.5016 87C42.5 88.6667 52.5 91.1667 60 91.1667C67.5 91.1667 77.5 88.6667 77.5 87C77.5 85.3333 77.5 67 77.5 67C77.5 68.6667 67.5 70.3333 60 70.3333C52.5 70.3333 42.5039 68.6667 42.5 67L42.5049 67.8343L42.5 72L42.5049 78.6667L42.5016 82.8336C42.5016 82.8336 42.5032 85.3333 42.5016 87Z" fill="#F9F5E0"/>
<path d="M77.5 62.8346C77.5 63.5778 75.5084 64.3213 72.6362 64.9168C69.0725 65.6556 64.153 66.1667 60 66.1667C55.846 66.1667 50.9281 65.6558 47.366 64.9167C44.4967 64.3214 42.5071 63.5781 42.5049 62.8346L42.5 67C42.5039 68.6667 52.5 70.3333 60 70.3333C67.5 70.3333 77.5 68.6667 77.5 67V62.8346Z" fill="#FFAA01"/>
<path fill-rule="evenodd" clip-rule="evenodd" d="M77.5 17.8333C77.5 17.8333 69.1683 21.1667 60.0008 21.1667C50.8333 21.1667 42.5016 17.8333 42.5016 17.8333L47.5008 27.8333H72.5L77.5 17.8333Z" fill="#F9F5E0"/>
<path d="M52.5 37.8333H60H67.5L72.5 27.8333H47.5008L52.5 37.8333Z" fill="#593623"/>
<path fill-rule="evenodd" clip-rule="evenodd" d="M47.366 64.9167C50.9292 64.1777 55.8471 63.6667 60 63.6667C64.153 63.6667 69.0725 64.1777 72.6362 64.9168C75.5084 64.3213 77.5 63.5778 77.5 62.8346C77.5 61.1679 67.5049 59.5012 60.0024 59.5012C52.5 59.5012 42.5 61.1679 42.5049 62.8346C42.5071 63.5781 44.4967 64.3214 47.366 64.9167Z" fill="#F9F5E0"/>
<path d="M60 63.6667C55.8471 63.6667 50.9292 64.1777 47.366 64.9167C50.9281 65.6558 55.846 66.1667 60 66.1667C64.153 66.1667 69.0725 65.6556 72.6362 64.9168C69.0725 64.1777 64.153 63.6667 60 63.6667Z" fill="#593623"/>
<path d="M42.5016 17.8333L42.2535 17.3992L41.8429 17.6339L42.0544 18.0569L42.5016 17.8333ZM77.5 17.8333L77.9472 18.0569L78.1587 17.6339L77.7481 17.3992L77.5 17.8333ZM67.5 37.8333V38.3333H67.809L67.9472 38.0569L67.5 37.8333ZM52.5 37.8333L52.0528 38.0569L52.191 38.3333H52.5V37.8333ZM42.5049 67.8343L43.0049 67.8349L43.0049 67.8314L42.5049 67.8343ZM42.5049 78.6667L43.0049 78.6671V78.6663L42.5049 78.6667ZM42.5 67L42 66.9994L42 67.0012L42.5 67ZM77.5 67H77H77.5ZM39.1667 27.3333C38.8905 27.3333 38.6667 27.5572 38.6667 27.8333C38.6667 28.1095 38.8905 28.3333 39.1667 28.3333V27.3333ZM80.8333 28.3333C81.1095 28.3333 81.3333 28.1095 81.3333 27.8333C81.3333 27.5572 81.1095 27.3333 80.8333 27.3333V28.3333ZM74.6667 71.5833C74.6667 71.3072 74.4428 71.0833 74.1667 71.0833C73.8905 71.0833 73.6667 71.3072 73.6667 71.5833H74.6667ZM71.3333 83.6667C71.3333 83.3905 71.1095 83.1667 70.8333 83.1667C70.5572 83.1667 70.3333 83.3905 70.3333 83.6667H71.3333ZM43.0016 87.0005C43.0024 86.1668 43.0024 85.125 43.0022 84.2917C43.0021 83.875 43.002 83.5104 43.0018 83.25C43.0018 83.1198 43.0017 83.0156 43.0017 82.944C43.0017 82.9082 43.0016 82.8805 43.0016 82.8618C43.0016 82.8524 43.0016 82.8453 43.0016 82.8405C43.0016 82.8381 43.0016 82.8363 43.0016 82.8351C43.0016 82.8345 43.0016 82.834 43.0016 82.8337C43.0016 82.8336 43.0016 82.8335 43.0016 82.8334C43.0016 82.8333 43.0016 82.8333 43.0016 82.8333C43.0016 82.8333 43.0016 82.8333 42.5016 82.8336C42.0016 82.8339 42.0016 82.8339 42.0016 82.8339C42.0016 82.834 42.0016 82.834 42.0016 82.834C42.0016 82.8341 42.0016 82.8342 42.0016 82.8344C42.0016 82.8347 42.0016 82.8351 42.0016 82.8357C42.0016 82.8369 42.0016 82.8387 42.0016 82.8411C42.0016 82.8459 42.0016 82.853 42.0016 82.8624C42.0016 82.8811 42.0017 82.9087 42.0017 82.9445C42.0017 83.0161 42.0018 83.1203 42.0018 83.2505C42.002 83.5108 42.0021 83.8753 42.0022 84.2919C42.0024 85.1251 42.0024 86.1665 42.0016 86.9995L43.0016 87.0005ZM42.5049 67.3343H36.5049V68.3343H42.5049V67.3343ZM32.0049 71.8343V78.8336H33.0049V71.8343H32.0049ZM36.5049 83.3336H42.5016V82.3336H36.5049V83.3336ZM43 72.0006L43.0049 67.8349L42.0049 67.8338L42 71.9994L43 72.0006ZM43.0016 82.834L43.0049 78.6671L42.0049 78.6663L42.0016 82.8332L43.0016 82.834ZM42.5049 78.1667H37.6667V79.1667H42.5049V78.1667ZM37.1667 77.6667V73H36.1667V77.6667H37.1667ZM37.6667 72.5H42.5V71.5H37.6667V72.5ZM42 72.0004L42.0049 78.667L43.0049 78.6663L43 71.9996L42 72.0004ZM43.0049 67.8314L43 66.9971L42 67.0029L42.0049 67.8373L43.0049 67.8314ZM78 87C78 86.9967 78 86.9934 78 86.99C78 86.9867 78 86.9832 78 86.9797C78 86.9762 78 86.9726 78 86.969C78 86.9654 78 86.9617 78 86.9579C78 86.9541 78 86.9503 78 86.9464C78 86.9426 78 86.9386 78 86.9346C78 86.9306 78 86.9265 78 86.9224C78 86.9183 78 86.9141 78 86.9098C78 86.9055 78 86.9012 78 86.8969C78 86.8925 78 86.888 78 86.8835C78 86.879 78 86.8745 78 86.8698C78 86.8652 78 86.8605 78 86.8558C78 86.8511 78 86.8462 78 86.8414C78 86.8365 78 86.8316 78 86.8266C78 86.8216 78 86.8166 78 86.8115C78 86.8064 78 86.8012 78 86.796C78 86.7908 78 86.7855 78 86.7801C78 86.7748 78 86.7694 78 86.7639C78 86.7585 78 86.753 78 86.7474C78 86.7418 78 86.7362 78 86.7305C78 86.7248 78 86.719 78 86.7132C78 86.7074 78 86.7015 78 86.6956C78 86.6897 78 86.6837 78 86.6777C78 86.6716 78 86.6655 78 86.6594C78 86.6532 78 86.647 78 86.6407C78 86.6345 78 86.6281 78 86.6217C78 86.6154 78 86.6089 78 86.6024C78 86.5959 78 86.5894 78 86.5827C78 86.5761 78 86.5695 78 86.5627C78 86.556 78 86.5492 78 86.5424C78 86.5356 78 86.5287 78 86.5217C78 86.5148 78 86.5078 78 86.5007C78 86.4937 78 86.4866 78 86.4794C78 86.4722 78 86.465 78 86.4577C78 86.4504 78 86.4431 78 86.4357C78 86.4283 78 86.4209 78 86.4134C78 86.4059 78 86.3984 78 86.3908C78 86.3832 78 86.3755 78 86.3678C78 86.3601 78 86.3523 78 86.3445C78 86.3367 78 86.3288 78 86.3209C78 86.313 78 86.305 78 86.297C78 86.2889 78 86.2808 78 86.2727C78 86.2646 78 86.2564 78 86.2481C78 86.2399 78 86.2316 78 86.2233C78 86.2149 78 86.2065 78 86.1981C78 86.1896 78 86.1811 78 86.1726C78 86.164 78 86.1554 78 86.1468C78 86.1381 78 86.1294 78 86.1206C78 86.1119 78 86.1031 78 86.0942C78 86.0854 78 86.0764 78 86.0675C78 86.0585 78 86.0495 78 86.0404C78 86.0314 78 86.0223 78 86.0131C78 86.0039 78 85.9947 78 85.9855C78 85.9762 78 85.9669 78 85.9575C78 85.9482 78 85.9388 78 85.9293C78 85.9198 78 85.9103 78 85.9008C78 85.8912 78 85.8816 78 85.872C78 85.8623 78 85.8526 78 85.8428C78 85.8331 78 85.8233 78 85.8134C78 85.8036 78 85.7937 78 85.7837C78 85.7738 78 85.7638 78 85.7538C78 85.7437 78 85.7336 78 85.7235C78 85.7134 78 85.7032 78 85.6929C78 85.6827 78 85.6724 78 85.6621C78 85.6518 78 85.6414 78 85.631C78 85.6206 78 85.6101 78 85.5996C78 85.5891 78 85.5785 78 85.5679C78 85.5573 78 85.5467 78 85.536C78 85.5253 78 85.5145 78 85.5037C78 85.493 78 85.4821 78 85.4712C78 85.4604 78 85.4494 78 85.4385C78 85.4275 78 85.4165 78 85.4054C78 85.3944 78 85.3833 78 85.3721C78 85.361 78 85.3498 78 85.3385C78 85.3273 78 85.316 78 85.3047C78 85.2934 78 85.282 78 85.2706C78 85.2592 78 85.2477 78 85.2362C78 85.2247 78 85.2132 78 85.2016C78 85.19 78 85.1784 78 85.1667C78 85.155 78 85.1433 78 85.1316C78 85.1198 78 85.108 78 85.0962C78 85.0843 78 85.0724 78 85.0605C78 85.0486 78 85.0366 78 85.0246C78 85.0126 78 85.0005 78 84.9884C78 84.9763 78 84.9642 78 84.952C78 84.9398 78 84.9276 78 84.9153C78 84.9031 78 84.8908 78 84.8784C78 84.8661 78 84.8537 78 84.8413C78 84.8289 78 84.8164 78 84.8039C78 84.7914 78 84.7788 78 84.7662C78 84.7537 78 84.741 78 84.7284C78 84.7157 78 84.703 78 84.6902C78 84.6775 78 84.6647 78 84.6519C78 84.6391 78 84.6262 78 84.6133C78 84.6004 78 84.5874 78 84.5745C78 84.5615 78 84.5485 78 84.5354C78 84.5223 78 84.5092 78 84.4961C78 84.483 78 84.4698 78 84.4566C78 84.4434 78 84.4301 78 84.4168C78 84.4035 78 84.3902 78 84.3769C78 84.3635 78 84.3501 78 84.3367C78 84.3232 78 84.3097 78 84.2962C78 84.2827 78 84.2692 78 84.2556C78 84.242 78 84.2284 78 84.2147C78 84.2011 78 84.1874 78 84.1736C78 84.1599 78 84.1461 78 84.1323C78 84.1185 78 84.1047 78 84.0908C78 84.0769 78 84.063 78 84.0491C78 84.0351 78 84.0211 78 84.0071C78 83.9931 78 83.9791 78 83.965C78 83.9509 78 83.9368 78 83.9226C78 83.9084 78 83.8943 78 83.88C78 83.8658 78 83.8515 78 83.8373C78 83.823 78 83.8086 78 83.7943C78 83.7799 78 83.7655 78 83.7511C78 83.7367 78 83.7222 78 83.7077C78 83.6932 78 83.6787 78 83.6641C78 83.6495 78 83.6349 78 83.6203C78 83.6057 78 83.591 78 83.5763C78 83.5616 78 83.5469 78 83.5322C78 83.5174 78 83.5026 78 83.4878C78 83.473 78 83.4581 78 83.4432C78 83.4283 78 83.4134 78 83.3985C78 83.3835 78 83.3685 78 83.3535C78 83.3385 78 83.3235 78 83.3084C78 83.2933 78 83.2782 78 83.2631C78 83.2479 78 83.2328 78 83.2176C78 83.2024 78 83.1871 78 83.1719C78 83.1566 78 83.1413 78 83.126C78 83.1107 78 83.0953 78 83.08C78 83.0646 78 83.0492 78 83.0337C78 83.0183 78 83.0028 78 82.9873C78 82.9718 78 82.9563 78 82.9408C78 82.9252 78 82.9096 78 82.894C78 82.8784 78 82.8628 78 82.8471C78 82.8314 78 82.8157 78 82.8C78 82.7843 78 82.7685 78 82.7527C78 82.737 78 82.7211 78 82.7053C78 82.6895 78 82.6736 78 82.6577C78 82.6418 78 82.6259 78 82.61C78 82.594 78 82.578 78 82.562C78 82.546 78 82.53 78 82.514C78 82.4979 78 82.4818 78 82.4657C78 82.4496 78 82.4335 78 82.4173C78 82.4012 78 82.385 78 82.3688C78 82.3526 78 82.3363 78 82.3201C78 82.3038 78 82.2875 78 82.2712C78 82.2549 78 82.2386 78 82.2222C78 82.2058 78 82.1894 78 82.173C78 82.1566 78 82.1402 78 82.1237C78 82.1073 78 82.0908 78 82.0743C78 82.0578 78 82.0412 78 82.0247C78 82.0081 78 81.9915 78 81.9749C78 81.9583 78 81.9417 78 81.925C78 81.9084 78 81.8917 78 81.875C78 81.8583 78 81.8416 78 81.8248C78 81.8081 78 81.7913 78 81.7745C78 81.7577 78 81.7409 78 81.7241C78 81.7072 78 81.6904 78 81.6735C78 81.6566 78 81.6397 78 81.6228C78 81.6059 78 81.5889 78 81.572C78 81.555 78 81.538 78 81.521C78 81.504 78 81.487 78 81.4699C78 81.4528 78 81.4358 78 81.4187C78 81.4016 78 81.3845 78 81.3673C78 81.3502 78 81.333 78 81.3159C78 81.2987 78 81.2815 78 81.2643C78 81.247 78 81.2298 78 81.2125C78 81.1953 78 81.178 78 81.1607C78 81.1434 78 81.1261 78 81.1088C78 81.0914 78 81.0741 78 81.0567C78 81.0393 78 81.0219 78 81.0045C78 80.9871 78 80.9697 78 80.9522C78 80.9348 78 80.9173 78 80.8998C78 80.8823 78 80.8648 78 80.8473C78 80.8298 78 80.8123 78 80.7947C78 80.7772 78 80.7596 78 80.742C78 80.7244 78 80.7068 78 80.6892C78 80.6715 78 80.6539 78 80.6362C78 80.6186 78 80.6009 78 80.5832C78 80.5655 78 80.5478 78 80.5301C78 80.5123 78 80.4946 78 80.4768C78 80.4591 78 80.4413 78 80.4235C78 80.4057 78 80.3879 78 80.3701C78 80.3522 78 80.3344 78 80.3166C78 80.2987 78 80.2808 78 80.2629C78 80.2451 78 80.2272 78 80.2093C78 80.1913 78 80.1734 78 80.1555C78 80.1375 78 80.1196 78 80.1016C78 80.0836 78 80.0656 78 80.0476C78 80.0296 78 80.0116 78 79.9936C78 79.9755 78 79.9575 78 79.9395C78 79.9214 78 79.9033 78 79.8852C78 79.8672 78 79.8491 78 79.831C78 79.8128 78 79.7947 78 79.7766C78 79.7585 78 79.7403 78 79.7221C78 79.704 78 79.6858 78 79.6676C78 79.6494 78 79.6312 78 79.613C78 79.5948 78 79.5766 78 79.5584C78 79.5401 78 79.5219 78 79.5036C78 79.4854 78 79.4671 78 79.4488C78 79.4306 78 79.4123 78 79.394C78 79.3757 78 79.3574 78 79.339C78 79.3207 78 79.3024 78 79.284C78 79.2657 78 79.2473 78 79.229C78 79.2106 78 79.1922 78 79.1739C78 79.1555 78 79.1371 78 79.1187C78 79.1003 78 79.0819 78 79.0634C78 79.045 78 79.0266 78 79.0081C78 78.9897 78 78.9713 78 78.9528C78 78.9343 78 78.9159 78 78.8974C78 78.8789 78 78.8604 78 78.8419C78 78.8235 78 78.805 78 78.7865C78 78.7679 78 78.7494 78 78.7309C78 78.7124 78 78.6938 78 78.6753C78 78.6568 78 78.6382 78 78.6197C78 78.6011 78 78.5825 78 78.564C78 78.5454 78 78.5268 78 78.5082C78 78.4897 78 78.4711 78 78.4525C78 78.4339 78 78.4153 78 78.3967C78 78.3781 78 78.3595 78 78.3408C78 78.3222 78 78.3036 78 78.285C78 78.2663 78 78.2477 78 78.229C78 78.2104 78 78.1917 78 78.1731C78 78.1544 78 78.1358 78 78.1171C78 78.0985 78 78.0798 78 78.0611C78 78.0424 78 78.0238 78 78.0051C78 77.9864 78 77.9677 78 77.949C78 77.9303 78 77.9116 78 77.8929C78 77.8742 78 77.8555 78 77.8368C78 77.8181 78 77.7994 78 77.7807C78 77.762 78 77.7433 78 77.7245C78 77.7058 78 77.6871 78 77.6684C78 77.6497 78 77.6309 78 77.6122C78 77.5935 78 77.5747 78 77.556C78 77.5373 78 77.5185 78 77.4998C78 77.481 78 77.4623 78 77.4435C78 77.4248 78 77.4061 78 77.3873C78 77.3686 78 77.3498 78 77.3311C78 77.3123 78 77.2936 78 77.2748C78 77.2561 78 77.2373 78 77.2185C78 77.1998 78 77.181 78 77.1623C78 77.1435 78 77.1248 78 77.106C78 77.0873 78 77.0685 78 77.0497C78 77.031 78 77.0122 78 76.9935C78 76.9747 78 76.956 78 76.9372C78 76.9185 78 76.8997 78 76.881C78 76.8622 78 76.8434 78 76.8247C78 76.8059 78 76.7872 78 76.7684C78 76.7497 78 76.7309 78 76.7122C78 76.6935 78 76.6747 78 76.656C78 76.6372 78 76.6185 78 76.5997C78 76.581 78 76.5623 78 76.5435C78 76.5248 78 76.5061 78 76.4873C78 76.4686 78 76.4499 78 76.4312C78 76.4124 78 76.3937 78 76.375C78 76.3563 78 76.3376 78 76.3189C78 76.3001 78 76.2814 78 76.2627C78 76.244 78 76.2253 78 76.2066C78 76.1879 78 76.1692 78 76.1506C78 76.1319 78 76.1132 78 76.0945C78 76.0758 78 76.0572 78 76.0385C78 76.0198 78 76.0011 78 75.9825C78 75.9638 78 75.9452 78 75.9265C78 75.9079 78 75.8892 78 75.8706C78 75.852 78 75.8333 78 75.8147C78 75.7961 78 75.7774 78 75.7588C78 75.7402 78 75.7216 78 75.703C78 75.6844 78 75.6658 78 75.6472C78 75.6286 78 75.61 78 75.5914C78 75.5729 78 75.5543 78 75.5357C78 75.5172 78 75.4986 78 75.4801C78 75.4615 78 75.443 78 75.4244C78 75.4059 78 75.3874 78 75.3689C78 75.3503 78 75.3318 78 75.3133C78 75.2948 78 75.2763 78 75.2579C78 75.2394 78 75.2209 78 75.2024C78 75.184 78 75.1655 78 75.147C78 75.1286 78 75.1101 78 75.0917C78 75.0733 78 75.0549 78 75.0364C78 75.018 78 74.9996 78 74.9812C78 74.9628 78 74.9444 78 74.9261C78 74.9077 78 74.8893 78 74.871C78 74.8526 78 74.8343 78 74.8159C78 74.7976 78 74.7793 78 74.761C78 74.7426 78 74.7243 78 74.7061C78 74.6878 78 74.6695 78 74.6512C78 74.6329 78 74.6147 78 74.5964C78 74.5782 78 74.56 78 74.5417C78 74.5235 78 74.5053 78 74.4871C78 74.4689 78 74.4507 78 74.4325C78 74.4144 78 74.3962 78 74.378C78 74.3599 78 74.3418 78 74.3236C78 74.3055 78 74.2874 78 74.2693C78 74.2512 78 74.2331 78 74.215C78 74.197 78 74.1789 78 74.1609C78 74.1428 78 74.1248 78 74.1068C78 74.0887 78 74.0707 78 74.0527C78 74.0348 78 74.0168 78 73.9988C78 73.9809 78 73.9629 78 73.945C78 73.927 78 73.9091 78 73.8912C78 73.8733 78 73.8554 78 73.8376C78 73.8197 78 73.8018 78 73.784C78 73.7661 78 73.7483 78 73.7305C78 73.7127 78 73.6949 78 73.6771C78 73.6593 78 73.6416 78 73.6238C78 73.6061 78 73.5883 78 73.5706C78 73.5529 78 73.5352 78 73.5175C78 73.4998 78 73.4822 78 73.4645C78 73.4469 78 73.4293 78 73.4116C78 73.394 78 73.3764 78 73.3589C78 73.3413 78 73.3237 78 73.3062C78 73.2886 78 73.2711 78 73.2536C78 73.2361 78 73.2186 78 73.2011C78 73.1837 78 73.1662 78 73.1488C78 73.1313 78 73.1139 78 73.0965C78 73.0791 78 73.0617 78 73.0444C78 73.027 78 73.0097 78 72.9924C78 72.975 78 72.9577 78 72.9405C78 72.9232 78 72.9059 78 72.8887C78 72.8714 78 72.8542 78 72.837C78 72.8198 78 72.8026 78 72.7855C78 72.7683 78 72.7512 78 72.734C78 72.7169 78 72.6998 78 72.6827C78 72.6657 78 72.6486 78 72.6316C78 72.6145 78 72.5975 78 72.5805C78 72.5635 78 72.5465 78 72.5296C78 72.5126 78 72.4957 78 72.4788C78 72.4619 78 72.445 78 72.4281C78 72.4113 78 72.3944 78 72.3776C78 72.3608 78 72.344 78 72.3272C78 72.3105 78 72.2937 78 72.277C78 72.2603 78 72.2435 78 72.2269C78 72.2102 78 72.1935 78 72.1769C78 72.1603 78 72.1436 78 72.1271C78 72.1105 78 72.0939 78 72.0774C78 72.0608 78 72.0443 78 72.0278C78 72.0113 78 71.9949 78 71.9784C78 71.962 78 71.9456 78 71.9292C78 71.9128 78 71.8964 78 71.8801C78 71.8637 78 71.8474 78 71.8311C78 71.8148 78 71.7985 78 71.7823C78 71.7661 78 71.7498 78 71.7336C78 71.7175 78 71.7013 78 71.6852C78 71.669 78 71.6529 78 71.6368C78 71.6207 78 71.6047 78 71.5886C78 71.5726 78 71.5566 78 71.5406C78 71.5246 78 71.5087 78 71.4928C78 71.4768 78 71.4609 78 71.4451C78 71.4292 78 71.4134 78 71.3975C78 71.3817 78 71.3659 78 71.3502C78 71.3344 78 71.3187 78 71.303C78 71.2873 78 71.2716 78 71.256C78 71.2403 78 71.2247 78 71.2091C78 71.1935 78 71.1779 78 71.1624C78 71.1469 78 71.1314 78 71.1159C78 71.1004 78 71.085 78 71.0696C78 71.0542 78 71.0388 78 71.0234C78 71.0081 78 70.9927 78 70.9774C78 70.9621 78 70.9469 78 70.9316C78 70.9164 78 70.9012 78 70.886C78 70.8708 78 70.8557 78 70.8406C78 70.8255 78 70.8104 78 70.7953C78 70.7803 78 70.7653 78 70.7503C78 70.7353 78 70.7203 78 70.7054C78 70.6905 78 70.6756 78 70.6607C78 70.6459 78 70.631 78 70.6162C78 70.6014 78 70.5867 78 70.5719C78 70.5572 78 70.5425 78 70.5278C78 70.5132 78 70.4985 78 70.4839C78 70.4693 78 70.4547 78 70.4402C78 70.4257 78 70.4112 78 70.3967C78 70.3822 78 70.3678 78 70.3534C78 70.339 78 70.3246 78 70.3103C78 70.2959 78 70.2816 78 70.2674C78 70.2531 78 70.2389 78 70.2247C78 70.2105 78 70.1963 78 70.1822C78 70.168 78 70.1539 78 70.1399C78 70.1258 78 70.1118 78 70.0978C78 70.0838 78 70.0699 78 70.0559C78 70.042 78 70.0281 78 70.0143C78 70.0004 78 69.9866 78 69.9728C78 69.9591 78 69.9453 78 69.9316C78 69.9179 78 69.9043 78 69.8906C78 69.877 78 69.8634 78 69.8498C78 69.8363 78 69.8228 78 69.8093C78 69.7958 78 69.7823 78 69.7689C78 69.7555 78 69.7422 78 69.7288C78 69.7155 78 69.7022 78 69.6889C78 69.6757 78 69.6624 78 69.6493C78 69.6361 78 69.6229 78 69.6098C78 69.5967 78 69.5837 78 69.5706C78 69.5576 78 69.5446 78 69.5317C78 69.5187 78 69.5058 78 69.4929C78 69.48 78 69.4672 78 69.4544C78 69.4416 78 69.4289 78 69.4161C78 69.4034 78 69.3908 78 69.3781C78 69.3655 78 69.3529 78 69.3403C78 69.3278 78 69.3153 78 69.3028C78 69.2903 78 69.2779 78 69.2655C78 69.2531 78 69.2407 78 69.2284C78 69.2161 78 69.2038 78 69.1916C78 69.1794 78 69.1672 78 69.155C78 69.1429 78 69.1308 78 69.1187C78 69.1066 78 69.0946 78 69.0826C78 69.0707 78 69.0587 78 69.0468C78 69.0349 78 69.0231 78 69.0113C78 68.9995 78 68.9877 78 68.976C78 68.9642 78 68.9525 78 68.9409C78 68.9293 78 68.9177 78 68.9061C78 68.8946 78 68.883 78 68.8716C78 68.8601 78 68.8487 78 68.8373C78 68.8259 78 68.8146 78 68.8033C78 68.792 78 68.7808 78 68.7696C78 68.7584 78 68.7472 78 68.7361C78 68.725 78 68.7139 78 68.7029C78 68.6919 78 68.6809 78 68.6699C78 68.659 78 68.6481 78 68.6373C78 68.6264 78 68.6156 78 68.6049C78 68.5941 78 68.5834 78 68.5728C78 68.5621 78 68.5515 78 68.5409C78 68.5303 78 68.5198 78 68.5093C78 68.4989 78 68.4884 78 68.4781C78 68.4677 78 68.4573 78 68.447C78 68.4368 78 68.4265 78 68.4163C78 68.4061 78 68.396 78 68.3859C78 68.3758 78 68.3657 78 68.3557C78 68.3457 78 68.3358 78 68.3258C78 68.3159 78 68.3061 78 68.2963C78 68.2864 78 68.2767 78 68.267C78 68.2573 78 68.2476 78 68.238C78 68.2283 78 68.2188 78 68.2093C78 68.1997 78 68.1903 78 68.1808C78 68.1714 78 68.162 78 68.1527C78 68.1434 78 68.1341 78 68.1249C78 68.1157 78 68.1065 78 68.0974C78 68.0883 78 68.0792 78 68.0702C78 68.0611 78 68.0522 78 68.0432C78 68.0343 78 68.0254 78 68.0166C78 68.0078 78 67.999 78 67.9903C78 67.9816 78 67.9729 78 67.9643C78 67.9557 78 67.9471 78 67.9386C78 67.9301 78 67.9216 78 67.9132C78 67.9048 78 67.8965 78 67.8882C78 67.8799 78 67.8716 78 67.8634C78 67.8552 78 67.847 78 67.839C78 67.8309 78 67.8228 78 67.8148C78 67.8068 78 67.7989 78 67.791C78 67.7831 78 67.7753 78 67.7675C78 67.7597 78 67.752 78 67.7444C78 67.7367 78 67.7291 78 67.7215C78 67.7139 78 67.7064 78 67.699C78 67.6915 78 67.6841 78 67.6768C78 67.6694 78 67.6622 78 67.6549C78 67.6477 78 67.6405 78 67.6334C78 67.6262 78 67.6192 78 67.6122C78 67.6051 78 67.5982 78 67.5913C78 67.5844 78 67.5775 78 67.5707C78 67.5639 78 67.5572 78 67.5505C78 67.5438 78 67.5372 78 67.5307C78 67.5241 78 67.5176 78 67.5111C78 67.5047 78 67.4983 78 67.4919C78 67.4856 78 67.4793 78 67.4731C78 67.4668 78 67.4607 78 67.4546C78 67.4484 78 67.4424 78 67.4364C78 67.4304 78 67.4245 78 67.4186C78 67.4127 78 67.4069 78 67.4011C78 67.3953 78 67.3896 78 67.384C78 67.3783 78 67.3727 78 67.3672C78 67.3617 78 67.3562 78 67.3508C78 67.3454 78 67.34 78 67.3347C78 67.3294 78 67.3242 78 67.319C78 67.3138 78 67.3087 78 67.3036C78 67.2986 78 67.2936 78 67.2887C78 67.2837 78 67.2788 78 67.274C78 67.2692 78 67.2644 78 67.2597C78 67.255 78 67.2504 78 67.2458C78 67.2413 78 67.2367 78 67.2323C78 67.2278 78 67.2234 78 67.2191C78 67.2148 78 67.2105 78 67.2063C78 67.2021 78 67.1979 78 67.1939C78 67.1898 78 67.1857 78 67.1818C78 67.1778 78 67.1739 78 67.1701C78 67.1663 78 67.1625 78 67.1588C78 67.1551 78 67.1514 78 67.1478C78 67.1442 78 67.1407 78 67.1372C78 67.1338 78 67.1304 78 67.1271C78 67.1237 78 67.1204 78 67.1172C78 67.114 78 67.1109 78 67.1078C78 67.1047 78 67.1017 78 67.0988C78 67.0958 78 67.0929 78 67.0901C78 67.0873 78 67.0845 78 67.0818C78 67.0791 78 67.0765 78 67.074C78 67.0714 78 67.0689 78 67.0665C78 67.064 78 67.0617 78 67.0594C78 67.057 78 67.0548 78 67.0526C78 67.0505 78 67.0484 78 67.0463C78 67.0443 78 67.0423 78 67.0404C78 67.0385 78 67.0367 78 67.0349C78 67.0331 78 67.0314 78 67.0298C78 67.0281 78 67.0265 78 67.025C78 67.0235 78 67.0221 78 67.0207C78 67.0193 78 67.018 78 67.0168C78 67.0156 78 67.0144 78 67.0133C78 67.0122 78 67.0112 78 67.0102C78 67.0092 78 67.0083 78 67.0075C78 67.0067 78 67.0059 78 67.0052C78 67.0045 78 67.0039 78 67.0033C78 67.0028 78 67.0023 78 67.0019C78 67.0015 78 67.0011 78 67.0008C78 67.0006 78 67.0003 78 67.0002C78 67.0001 78 67 77.5 67C77 67 77 67.0001 77 67.0002C77 67.0003 77 67.0006 77 67.0008C77 67.0011 77 67.0015 77 67.0019C77 67.0023 77 67.0028 77 67.0033C77 67.0039 77 67.0045 77 67.0052C77 67.0059 77 67.0067 77 67.0075C77 67.0083 77 67.0092 77 67.0102C77 67.0112 77 67.0122 77 67.0133C77 67.0144 77 67.0156 77 67.0168C77 67.018 77 67.0193 77 67.0207C77 67.0221 77 67.0235 77 67.025C77 67.0265 77 67.0281 77 67.0298C77 67.0314 77 67.0331 77 67.0349C77 67.0367 77 67.0385 77 67.0404C77 67.0423 77 67.0443 77 67.0463C77 67.0484 77 67.0505 77 67.0526C77 67.0548 77 67.057 77 67.0594C77 67.0617 77 67.064 77 67.0665C77 67.0689 77 67.0714 77 67.074C77 67.0765 77 67.0791 77 67.0818C77 67.0845 77 67.0873 77 67.0901C77 67.0929 77 67.0958 77 67.0988C77 67.1017 77 67.1047 77 67.1078C77 67.1109 77 67.114 77 67.1172C77 67.1204 77 67.1237 77 67.1271C77 67.1304 77 67.1338 77 67.1372C77 67.1407 77 67.1442 77 67.1478C77 67.1514 77 67.1551 77 67.1588C77 67.1625 77 67.1663 77 67.1701C77 67.1739 77 67.1778 77 67.1818C77 67.1857 77 67.1898 77 67.1939C77 67.1979 77 67.2021 77 67.2063C77 67.2105 77 67.2148 77 67.2191C77 67.2234 77 67.2278 77 67.2323C77 67.2367 77 67.2413 77 67.2458C77 67.2504 77 67.255 77 67.2597C77 67.2644 77 67.2692 77 67.274C77 67.2788 77 67.2837 77 67.2887C77 67.2936 77 67.2986 77 67.3036C77 67.3087 77 67.3138 77 67.319C77 67.3242 77 67.3294 77 67.3347C77 67.34 77 67.3454 77 67.3508C77 67.3562 77 67.3617 77 67.3672C77 67.3727 77 67.3783 77 67.384C77 67.3896 77 67.3953 77 67.4011C77 67.4069 77 67.4127 77 67.4186C77 67.4245 77 67.4304 77 67.4364C77 67.4424 77 67.4484 77 67.4546C77 67.4607 77 67.4668 77 67.4731C77 67.4793 77 67.4856 77 67.4919C77 67.4983 77 67.5047 77 67.5111C77 67.5176 77 67.5241 77 67.5307C77 67.5372 77 67.5438 77 67.5505C77 67.5572 77 67.5639 77 67.5707C77 67.5775 77 67.5844 77 67.5913C77 67.5982 77 67.6051 77 67.6122C77 67.6192 77 67.6262 77 67.6334C77 67.6405 77 67.6477 77 67.6549C77 67.6622 77 67.6694 77 67.6768C77 67.6841 77 67.6915 77 67.699C77 67.7064 77 67.7139 77 67.7215C77 67.7291 77 67.7367 77 67.7444C77 67.752 77 67.7597 77 67.7675C77 67.7753 77 67.7831 77 67.791C77 67.7989 77 67.8068 77 67.8148C77 67.8228 77 67.8309 77 67.839C77 67.847 77 67.8552 77 67.8634C77 67.8716 77 67.8799 77 67.8882C77 67.8965 77 67.9048 77 67.9132C77 67.9216 77 67.9301 77 67.9386C77 67.9471 77 67.9557 77 67.9643C77 67.9729 77 67.9816 77 67.9903C77 67.999 77 68.0078 77 68.0166C77 68.0254 77 68.0343 77 68.0432C77 68.0522 77 68.0611 77 68.0702C77 68.0792 77 68.0883 77 68.0974C77 68.1065 77 68.1157 77 68.1249C77 68.1341 77 68.1434 77 68.1527C77 68.162 77 68.1714 77 68.1808C77 68.1903 77 68.1997 77 68.2093C77 68.2188 77 68.2283 77 68.238C77 68.2476 77 68.2573 77 68.267C77 68.2767 77 68.2864 77 68.2963C77 68.3061 77 68.3159 77 68.3258C77 68.3358 77 68.3457 77 68.3557C77 68.3657 77 68.3758 77 68.3859C77 68.396 77 68.4061 77 68.4163C77 68.4265 77 68.4368 77 68.447C77 68.4573 77 68.4677 77 68.4781C77 68.4884 77 68.4989 77 68.5093C77 68.5198 77 68.5303 77 68.5409C77 68.5515 77 68.5621 77 68.5728C77 68.5834 77 68.5941 77 68.6049C77 68.6156 77 68.6264 77 68.6373C77 68.6481 77 68.659 77 68.6699C77 68.6809 77 68.6919 77 68.7029C77 68.7139 77 68.725 77 68.7361C77 68.7472 77 68.7584 77 68.7696C77 68.7808 77 68.792 77 68.8033C77 68.8146 77 68.8259 77 68.8373C77 68.8487 77 68.8601 77 68.8716C77 68.883 77 68.8946 77 68.9061C77 68.9177 77 68.9293 77 68.9409C77 68.9525 77 68.9642 77 68.976C77 68.9877 77 68.9995 77 69.0113C77 69.0231 77 69.0349 77 69.0468C77 69.0587 77 69.0707 77 69.0826C77 69.0946 77 69.1066 77 69.1187C77 69.1308 77 69.1429 77 69.155C77 69.1672 77 69.1794 77 69.1916C77 69.2038 77 69.2161 77 69.2284C77 69.2407 77 69.2531 77 69.2655C77 69.2779 77 69.2903 77 69.3028C77 69.3153 77 69.3278 77 69.3403C77 69.3529 77 69.3655 77 69.3781C77 69.3908 77 69.4034 77 69.4161C77 69.4289 77 69.4416 77 69.4544C77 69.4672 77 69.48 77 69.4929C77 69.5058 77 69.5187 77 69.5317C77 69.5446 77 69.5576 77 69.5706C77 69.5837 77 69.5967 77 69.6098C77 69.6229 77 69.6361 77 69.6493C77 69.6624 77 69.6757 77 69.6889C77 69.7022 77 69.7155 77 69.7288C77 69.7422 77 69.7555 77 69.7689C77 69.7823 77 69.7958 77 69.8093C77 69.8228 77 69.8363 77 69.8498C77 69.8634 77 69.877 77 69.8906C77 69.9043 77 69.9179 77 69.9316C77 69.9453 77 69.9591 77 69.9728C77 69.9866 77 70.0004 77 70.0143C77 70.0281 77 70.042 77 70.0559C77 70.0699 77 70.0838 77 70.0978C77 70.1118 77 70.1258 77 70.1399C77 70.1539 77 70.168 77 70.1822C77 70.1963 77 70.2105 77 70.2247C77 70.2389 77 70.2531 77 70.2674C77 70.2816 77 70.2959 77 70.3103C77 70.3246 77 70.339 77 70.3534C77 70.3678 77 70.3822 77 70.3967C77 70.4112 77 70.4257 77 70.4402C77 70.4547 77 70.4693 77 70.4839C77 70.4985 77 70.5132 77 70.5278C77 70.5425 77 70.5572 77 70.5719C77 70.5867 77 70.6014 77 70.6162C77 70.631 77 70.6459 77 70.6607C77 70.6756 77 70.6905 77 70.7054C77 70.7203 77 70.7353 77 70.7503C77 70.7653 77 70.7803 77 70.7953C77 70.8104 77 70.8255 77 70.8406C77 70.8557 77 70.8708 77 70.886C77 70.9012 77 70.9164 77 70.9316C77 70.9469 77 70.9621 77 70.9774C77 70.9927 77 71.0081 77 71.0234C77 71.0388 77 71.0542 77 71.0696C77 71.085 77 71.1004 77 71.1159C77 71.1314 77 71.1469 77 71.1624C77 71.1779 77 71.1935 77 71.2091C77 71.2247 77 71.2403 77 71.256C77 71.2716 77 71.2873 77 71.303C77 71.3187 77 71.3344 77 71.3502C77 71.3659 77 71.3817 77 71.3975C77 71.4134 77 71.4292 77 71.4451C77 71.4609 77 71.4768 77 71.4928C77 71.5087 77 71.5246 77 71.5406C77 71.5566 77 71.5726 77 71.5886C77 71.6047 77 71.6207 77 71.6368C77 71.6529 77 71.669 77 71.6852C77 71.7013 77 71.7175 77 71.7336C77 71.7498 77 71.7661 77 71.7823C77 71.7985 77 71.8148 77 71.8311C77 71.8474 77 71.8637 77 71.8801C77 71.8964 77 71.9128 77 71.9292C77 71.9456 77 71.962 77 71.9784C77 71.9949 77 72.0113 77 72.0278C77 72.0443 77 72.0608 77 72.0774C77 72.0939 77 72.1105 77 72.1271C77 72.1436 77 72.1603 77 72.1769C77 72.1935 77 72.2102 77 72.2269C77 72.2435 77 72.2603 77 72.277C77 72.2937 77 72.3105 77 72.3272C77 72.344 77 72.3608 77 72.3776C77 72.3944 77 72.4113 77 72.4281C77 72.445 77 72.4619 77 72.4788C77 72.4957 77 72.5126 77 72.5296C77 72.5465 77 72.5635 77 72.5805C77 72.5975 77 72.6145 77 72.6316C77 72.6486 77 72.6657 77 72.6827C77 72.6998 77 72.7169 77 72.734C77 72.7512 77 72.7683 77 72.7855C77 72.8026 77 72.8198 77 72.837C77 72.8542 77 72.8714 77 72.8887C77 72.9059 77 72.9232 77 72.9405C77 72.9577 77 72.975 77 72.9924C77 73.0097 77 73.027 77 73.0444C77 73.0617 77 73.0791 77 73.0965C77 73.1139 77 73.1313 77 73.1488C77 73.1662 77 73.1837 77 73.2011C77 73.2186 77 73.2361 77 73.2536C77 73.2711 77 73.2886 77 73.3062C77 73.3237 77 73.3413 77 73.3589C77 73.3764 77 73.394 77 73.4116C77 73.4293 77 73.4469 77 73.4645C77 73.4822 77 73.4998 77 73.5175C77 73.5352 77 73.5529 77 73.5706C77 73.5883 77 73.6061 77 73.6238C77 73.6416 77 73.6593 77 73.6771C77 73.6949 77 73.7127 77 73.7305C77 73.7483 77 73.7661 77 73.784C77 73.8018 77 73.8197 77 73.8376C77 73.8554 77 73.8733 77 73.8912C77 73.9091 77 73.927 77 73.945C77 73.9629 77 73.9809 77 73.9988C77 74.0168 77 74.0348 77 74.0527C77 74.0707 77 74.0887 77 74.1068C77 74.1248 77 74.1428 77 74.1609C77 74.1789 77 74.197 77 74.215C77 74.2331 77 74.2512 77 74.2693C77 74.2874 77 74.3055 77 74.3236C77 74.3418 77 74.3599 77 74.378C77 74.3962 77 74.4144 77 74.4325C77 74.4507 77 74.4689 77 74.4871C77 74.5053 77 74.5235 77 74.5417C77 74.56 77 74.5782 77 74.5964C77 74.6147 77 74.6329 77 74.6512C77 74.6695 77 74.6878 77 74.7061C77 74.7243 77 74.7426 77 74.761C77 74.7793 77 74.7976 77 74.8159C77 74.8343 77 74.8526 77 74.871C77 74.8893 77 74.9077 77 74.9261C77 74.9444 77 74.9628 77 74.9812C77 74.9996 77 75.018 77 75.0364C77 75.0549 77 75.0733 77 75.0917C77 75.1101 77 75.1286 77 75.147C77 75.1655 77 75.184 77 75.2024C77 75.2209 77 75.2394 77 75.2579C77 75.2763 77 75.2948 77 75.3133C77 75.3318 77 75.3503 77 75.3689C77 75.3874 77 75.4059 77 75.4244C77 75.443 77 75.4615 77 75.4801C77 75.4986 77 75.5172 77 75.5357C77 75.5543 77 75.5729 77 75.5914C77 75.61 77 75.6286 77 75.6472C77 75.6658 77 75.6844 77 75.703C77 75.7216 77 75.7402 77 75.7588C77 75.7774 77 75.7961 77 75.8147C77 75.8333 77 75.852 77 75.8706C77 75.8892 77 75.9079 77 75.9265C77 75.9452 77 75.9638 77 75.9825C77 76.0011 77 76.0198 77 76.0385C77 76.0572 77 76.0758 77 76.0945C77 76.1132 77 76.1319 77 76.1506C77 76.1692 77 76.1879 77 76.2066C77 76.2253 77 76.244 77 76.2627C77 76.2814 77 76.3001 77 76.3189C77 76.3376 77 76.3563 77 76.375C77 76.3937 77 76.4124 77 76.4312C77 76.4499 77 76.4686 77 76.4873C77 76.5061 77 76.5248 77 76.5435C77 76.5623 77 76.581 77 76.5997C77 76.6185 77 76.6372 77 76.656C77 76.6747 77 76.6935 77 76.7122C77 76.7309 77 76.7497 77 76.7684C77 76.7872 77 76.8059 77 76.8247C77 76.8434 77 76.8622 77 76.881C77 76.8997 77 76.9185 77 76.9372C77 76.956 77 76.9747 77 76.9935C77 77.0122 77 77.031 77 77.0497C77 77.0685 77 77.0873 77 77.106C77 77.1248 77 77.1435 77 77.1623C77 77.181 77 77.1998 77 77.2185C77 77.2373 77 77.2561 77 77.2748C77 77.2936 77 77.3123 77 77.3311C77 77.3498 77 77.3686 77 77.3873C77 77.4061 77 77.4248 77 77.4435C77 77.4623 77 77.481 77 77.4998C77 77.5185 77 77.5373 77 77.556C77 77.5747 77 77.5935 77 77.6122C77 77.6309 77 77.6497 77 77.6684C77 77.6871 77 77.7058 77 77.7245C77 77.7433 77 77.762 77 77.7807C77 77.7994 77 77.8181 77 77.8368C77 77.8555 77 77.8742 77 77.8929C77 77.9116 77 77.9303 77 77.949C77 77.9677 77 77.9864 77 78.0051C77 78.0238 77 78.0424 77 78.0611C77 78.0798 77 78.0985 77 78.1171C77 78.1358 77 78.1544 77 78.1731C77 78.1917 77 78.2104 77 78.229C77 78.2477 77 78.2663 77 78.285C77 78.3036 77 78.3222 77 78.3408C77 78.3595 77 78.3781 77 78.3967C77 78.4153 77 78.4339 77 78.4525C77 78.4711 77 78.4897 77 78.5082C77 78.5268 77 78.5454 77 78.564C77 78.5825 77 78.6011 77 78.6197C77 78.6382 77 78.6568 77 78.6753C77 78.6938 77 78.7124 77 78.7309C77 78.7494 77 78.7679 77 78.7865C77 78.805 77 78.8235 77 78.8419C77 78.8604 77 78.8789 77 78.8974C77 78.9159 77 78.9343 77 78.9528C77 78.9713 77 78.9897 77 79.0081C77 79.0266 77 79.045 77 79.0634C77 79.0819 77 79.1003 77 79.1187C77 79.1371 77 79.1555 77 79.1739C77 79.1922 77 79.2106 77 79.229C77 79.2473 77 79.2657 77 79.284C77 79.3024 77 79.3207 77 79.339C77 79.3574 77 79.3757 77 79.394C77 79.4123 77 79.4306 77 79.4488C77 79.4671 77 79.4854 77 79.5036C77 79.5219 77 79.5401 77 79.5584C77 79.5766 77 79.5948 77 79.613C77 79.6312 77 79.6494 77 79.6676C77 79.6858 77 79.704 77 79.7221C77 79.7403 77 79.7585 77 79.7766C77 79.7947 77 79.8128 77 79.831C77 79.8491 77 79.8672 77 79.8852C77 79.9033 77 79.9214 77 79.9395C77 79.9575 77 79.9755 77 79.9936C77 80.0116 77 80.0296 77 80.0476C77 80.0656 77 80.0836 77 80.1016C77 80.1196 77 80.1375 77 80.1555C77 80.1734 77 80.1913 77 80.2093C77 80.2272 77 80.2451 77 80.2629C77 80.2808 77 80.2987 77 80.3166C77 80.3344 77 80.3522 77 80.3701C77 80.3879 77 80.4057 77 80.4235C77 80.4413 77 80.4591 77 80.4768C77 80.4946 77 80.5123 77 80.5301C77 80.5478 77 80.5655 77 80.5832C77 80.6009 77 80.6186 77 80.6362C77 80.6539 77 80.6715 77 80.6892C77 80.7068 77 80.7244 77 80.742C77 80.7596 77 80.7772 77 80.7947C77 80.8123 77 80.8298 77 80.8473C77 80.8648 77 80.8823 77 80.8998C77 80.9173 77 80.9348 77 80.9522C77 80.9697 77 80.9871 77 81.0045C77 81.0219 77 81.0393 77 81.0567C77 81.0741 77 81.0914 77 81.1088C77 81.1261 77 81.1434 77 81.1607C77 81.178 77 81.1953 77 81.2125C77 81.2298 77 81.247 77 81.2643C77 81.2815 77 81.2987 77 81.3159C77 81.333 77 81.3502 77 81.3673C77 81.3845 77 81.4016 77 81.4187C77 81.4358 77 81.4528 77 81.4699C77 81.487 77 81.504 77 81.521C77 81.538 77 81.555 77 81.572C77 81.5889 77 81.6059 77 81.6228C77 81.6397 77 81.6566 77 81.6735C77 81.6904 77 81.7072 77 81.7241C77 81.7409 77 81.7577 77 81.7745C77 81.7913 77 81.8081 77 81.8248C77 81.8416 77 81.8583 77 81.875C77 81.8917 77 81.9084 77 81.925C77 81.9417 77 81.9583 77 81.9749C77 81.9915 77 82.0081 77 82.0247C77 82.0412 77 82.0578 77 82.0743C77 82.0908 77 82.1073 77 82.1237C77 82.1402 77 82.1566 77 82.173C77 82.1894 77 82.2058 77 82.2222C77 82.2386 77 82.2549 77 82.2712C77 82.2875 77 82.3038 77 82.3201C77 82.3363 77 82.3526 77 82.3688C77 82.385 77 82.4012 77 82.4173C77 82.4335 77 82.4496 77 82.4657C77 82.4818 77 82.4979 77 82.514C77 82.53 77 82.546 77 82.562C77 82.578 77 82.594 77 82.61C77 82.6259 77 82.6418 77 82.6577C77 82.6736 77 82.6895 77 82.7053C77 82.7211 77 82.737 77 82.7527C77 82.7685 77 82.7843 77 82.8C77 82.8157 77 82.8314 77 82.8471C77 82.8628 77 82.8784 77 82.894C77 82.9096 77 82.9252 77 82.9408C77 82.9563 77 82.9718 77 82.9873C77 83.0028 77 83.0183 77 83.0337C77 83.0492 77 83.0646 77 83.08C77 83.0953 77 83.1107 77 83.126C77 83.1413 77 83.1566 77 83.1719C77 83.1871 77 83.2024 77 83.2176C77 83.2328 77 83.2479 77 83.2631C77 83.2782 77 83.2933 77 83.3084C77 83.3235 77 83.3385 77 83.3535C77 83.3685 77 83.3835 77 83.3985C77 83.4134 77 83.4283 77 83.4432C77 83.4581 77 83.473 77 83.4878C77 83.5026 77 83.5174 77 83.5322C77 83.5469 77 83.5616 77 83.5763C77 83.591 77 83.6057 77 83.6203C77 83.6349 77 83.6495 77 83.6641C77 83.6787 77 83.6932 77 83.7077C77 83.7222 77 83.7367 77 83.7511C77 83.7655 77 83.7799 77 83.7943C77 83.8086 77 83.823 77 83.8373C77 83.8515 77 83.8658 77 83.88C77 83.8943 77 83.9084 77 83.9226C77 83.9368 77 83.9509 77 83.965C77 83.9791 77 83.9931 77 84.0071C77 84.0211 77 84.0351 77 84.0491C77 84.063 77 84.0769 77 84.0908C77 84.1047 77 84.1185 77 84.1323C77 84.1461 77 84.1599 77 84.1736C77 84.1874 77 84.2011 77 84.2147C77 84.2284 77 84.242 77 84.2556C77 84.2692 77 84.2827 77 84.2962C77 84.3097 77 84.3232 77 84.3367C77 84.3501 77 84.3635 77 84.3769C77 84.3902 77 84.4035 77 84.4168C77 84.4301 77 84.4434 77 84.4566C77 84.4698 77 84.483 77 84.4961C77 84.5092 77 84.5223 77 84.5354C77 84.5485 77 84.5615 77 84.5745C77 84.5874 77 84.6004 77 84.6133C77 84.6262 77 84.6391 77 84.6519C77 84.6647 77 84.6775 77 84.6902C77 84.703 77 84.7157 77 84.7284C77 84.741 77 84.7537 77 84.7662C77 84.7788 77 84.7914 77 84.8039C77 84.8164 77 84.8289 77 84.8413C77 84.8537 77 84.8661 77 84.8784C77 84.8908 77 84.9031 77 84.9153C77 84.9276 77 84.9398 77 84.952C77 84.9642 77 84.9763 77 84.9884C77 85.0005 77 85.0126 77 85.0246C77 85.0366 77 85.0486 77 85.0605C77 85.0724 77 85.0843 77 85.0962C77 85.108 77 85.1198 77 85.1316C77 85.1433 77 85.155 77 85.1667C77 85.1784 77 85.19 77 85.2016C77 85.2132 77 85.2247 77 85.2362C77 85.2477 77 85.2592 77 85.2706C77 85.282 77 85.2934 77 85.3047C77 85.316 77 85.3273 77 85.3385C77 85.3498 77 85.361 77 85.3721C77 85.3833 77 85.3944 77 85.4054C77 85.4165 77 85.4275 77 85.4385C77 85.4494 77 85.4604 77 85.4712C77 85.4821 77 85.493 77 85.5037C77 85.5145 77 85.5253 77 85.536C77 85.5467 77 85.5573 77 85.5679C77 85.5785 77 85.5891 77 85.5996C77 85.6101 77 85.6206 77 85.631C77 85.6414 77 85.6518 77 85.6621C77 85.6724 77 85.6827 77 85.6929C77 85.7032 77 85.7134 77 85.7235C77 85.7336 77 85.7437 77 85.7538C77 85.7638 77 85.7738 77 85.7837C77 85.7937 77 85.8036 77 85.8134C77 85.8233 77 85.8331 77 85.8428C77 85.8526 77 85.8623 77 85.872C77 85.8816 77 85.8912 77 85.9008C77 85.9103 77 85.9198 77 85.9293C77 85.9388 77 85.9482 77 85.9575C77 85.9669 77 85.9762 77 85.9855C77 85.9947 77 86.0039 77 86.0131C77 86.0223 77 86.0314 77 86.0404C77 86.0495 77 86.0585 77 86.0675C77 86.0764 77 86.0854 77 86.0942C77 86.1031 77 86.1119 77 86.1206C77 86.1294 77 86.1381 77 86.1468C77 86.1554 77 86.164 77 86.1726C77 86.1811 77 86.1896 77 86.1981C77 86.2065 77 86.2149 77 86.2233C77 86.2316 77 86.2399 77 86.2481C77 86.2564 77 86.2646 77 86.2727C77 86.2808 77 86.2889 77 86.297C77 86.305 77 86.313 77 86.3209C77 86.3288 77 86.3367 77 86.3445C77 86.3523 77 86.3601 77 86.3678C77 86.3755 77 86.3832 77 86.3908C77 86.3984 77 86.4059 77 86.4134C77 86.4209 77 86.4283 77 86.4357C77 86.4431 77 86.4504 77 86.4577C77 86.465 77 86.4722 77 86.4794C77 86.4866 77 86.4937 77 86.5007C77 86.5078 77 86.5148 77 86.5217C77 86.5287 77 86.5356 77 86.5424C77 86.5492 77 86.556 77 86.5627C77 86.5695 77 86.5761 77 86.5827C77 86.5894 77 86.5959 77 86.6024C77 86.6089 77 86.6154 77 86.6217C77 86.6281 77 86.6345 77 86.6407C77 86.647 77 86.6532 77 86.6594C77 86.6655 77 86.6716 77 86.6777C77 86.6837 77 86.6897 77 86.6956C77 86.7015 77 86.7074 77 86.7132C77 86.719 77 86.7248 77 86.7305C77 86.7362 77 86.7418 77 86.7474C77 86.753 77 86.7585 77 86.7639C77 86.7694 77 86.7748 77 86.7801C77 86.7855 77 86.7908 77 86.796C77 86.8012 77 86.8064 77 86.8115C77 86.8166 77 86.8216 77 86.8266C77 86.8316 77 86.8365 77 86.8414C77 86.8462 77 86.8511 77 86.8558C77 86.8605 77 86.8652 77 86.8698C77 86.8745 77 86.879 77 86.8835C77 86.888 77 86.8925 77 86.8969C77 86.9012 77 86.9055 77 86.9098C77 86.9141 77 86.9183 77 86.9224C77 86.9265 77 86.9306 77 86.9346C77 86.9386 77 86.9426 77 86.9464C77 86.9503 77 86.9541 77 86.9579C77 86.9617 77 86.9654 77 86.969C77 86.9726 77 86.9762 77 86.9797C77 86.9832 77 86.9867 77 86.99C77 86.9934 77 86.9967 77 87H78ZM78 67V62.8346H77V67H78ZM43 67.0006L43.0049 62.8352L42.0049 62.834L42 66.9994L43 67.0006ZM52.9472 37.6098L47.948 27.6098L47.0536 28.0569L52.0528 38.0569L52.9472 37.6098ZM47.948 27.6098L42.9488 17.6098L42.0544 18.0569L47.0536 28.0569L47.948 27.6098ZM72.5 28.3333H80.8333V27.3333H72.5V28.3333ZM77.0528 17.6097L72.0528 27.6097L72.9472 28.0569L77.9472 18.0569L77.0528 17.6097ZM72.0528 27.6097L67.0528 37.6097L67.9472 38.0569L72.9472 28.0569L72.0528 27.6097ZM39.1667 28.3333H47.5008V27.3333H39.1667V28.3333ZM47.5008 28.3333H72.5V27.3333H47.5008V28.3333ZM77 67C77 66.9507 77.0268 67.0285 76.7657 67.2144C76.5299 67.3822 76.1573 67.566 75.6467 67.7551C74.6318 68.131 73.1801 68.4894 71.4731 68.7997C68.0642 69.4195 63.7191 69.8333 60 69.8333V70.8333C63.7809 70.8333 68.1858 70.4138 71.6519 69.7836C73.3824 69.469 74.8995 69.0982 75.994 68.6928C76.538 68.4913 77.0052 68.2714 77.3456 68.0291C77.6607 67.8048 78 67.466 78 67H77ZM60 69.8333C56.2809 69.8333 51.9368 69.4195 48.5284 68.7997C46.8216 68.4894 45.3701 68.131 44.355 67.7551C43.8443 67.566 43.4713 67.3822 43.2352 67.2143C42.9738 67.0283 42.9999 66.95 43 66.9988L42 67.0012C42.0011 67.4666 42.3404 67.805 42.6557 68.0292C42.9963 68.2714 43.4635 68.4913 44.0077 68.6928C45.1024 69.0982 46.6193 69.469 48.3495 69.7836C51.8152 70.4138 56.2191 70.8333 60 70.8333V69.8333ZM71.3333 89.9167V83.6667H70.3333V89.9167H71.3333ZM74.6667 89.0833V71.5833H73.6667V89.0833H74.6667ZM77 87C77 86.9626 77.013 87.0538 76.7455 87.2654C76.5047 87.4558 76.128 87.6703 75.6172 87.8973C74.6012 88.3488 73.1492 88.8092 71.4447 89.2224C68.0382 90.0482 63.7032 90.6667 60 90.6667V91.6667C63.7968 91.6667 68.2118 91.0351 71.6803 90.1943C73.4133 89.7741 74.93 89.297 76.0234 88.8111C76.5673 88.5693 77.0304 88.315 77.3658 88.0497C77.6745 87.8055 78 87.454 78 87H77ZM60 90.6667C56.2968 90.6667 51.9618 90.0482 48.5555 89.2224C46.8511 88.8092 45.3992 88.3488 44.3835 87.8973C43.8729 87.6703 43.4963 87.4559 43.2557 87.2655C42.9884 87.054 43.0017 86.9629 43.0016 87.0005L42.0016 86.9995C42.0012 87.4537 42.3265 87.8054 42.6351 88.0496C42.9704 88.315 43.4334 88.5693 43.9773 88.8111C45.0704 89.297 46.587 89.7741 48.3199 90.1943C51.7882 91.0351 56.2032 91.6667 60 91.6667V90.6667ZM43.0049 62.8331C43.005 62.883 42.9774 62.8057 43.2379 62.6199C43.4731 62.4522 43.8453 62.2686 44.3555 62.0795C45.3697 61.7036 46.821 61.3452 48.5279 61.0348C51.9364 60.415 56.2821 60.0012 60.0024 60.0012V59.0012C56.2204 59.0012 51.8148 59.4208 48.349 60.051C46.6187 60.3656 45.1019 60.7364 44.008 61.1418C43.4643 61.3433 42.9974 61.5633 42.6573 61.8057C42.3426 62.0301 42.0035 62.3695 42.0049 62.836L43.0049 62.8331ZM60.0024 60.0012C63.7228 60.0012 68.0672 60.415 71.4752 61.0348C73.1818 61.3452 74.6329 61.7036 75.6473 62.0795C76.1577 62.2686 76.5302 62.4523 76.7658 62.6201C77.0268 62.8059 77 62.8838 77 62.8346H78C78 62.3687 77.6609 62.0299 77.3459 61.8056C77.0056 61.5632 76.5386 61.3433 75.9948 61.1418C74.9007 60.7364 73.3841 60.3656 71.6541 60.051C68.1889 59.4208 63.7845 59.0012 60.0024 59.0012V60.0012ZM47.4675 65.4063C50.9959 64.6745 55.8797 64.1667 60 64.1667V63.1667C55.8145 63.1667 50.8625 63.6809 47.2644 64.4272L47.4675 65.4063ZM60 65.6667C55.8786 65.6667 50.9948 65.159 47.4675 64.4272L47.2644 65.4063C50.8614 66.1526 55.8134 66.6667 60 66.6667V65.6667ZM47.4675 64.4272C46.0446 64.1319 44.865 63.8048 44.0509 63.469C43.6412 63.3 43.3513 63.1398 43.1724 62.998C42.9787 62.8445 43.0047 62.7868 43.0049 62.8331L42.0049 62.836C42.0061 63.2541 42.2817 63.5682 42.5513 63.7818C42.8357 64.0071 43.223 64.2093 43.6696 64.3935C44.5682 64.7641 45.818 65.1062 47.2644 65.4063L47.4675 64.4272ZM60 64.1667C64.1204 64.1667 69.0058 64.6745 72.5347 65.4063L72.7378 64.4272C69.1391 63.6809 64.1855 63.1667 60 63.1667V64.1667ZM77 62.8346C77 62.7873 77.027 62.8444 76.8334 62.9979C76.6546 63.1396 76.3647 63.2998 75.9546 63.4688C75.14 63.8046 73.9591 64.1319 72.5347 64.4272L72.7377 65.4064C74.1856 65.1062 75.4365 64.764 76.3357 64.3933C76.7826 64.2091 77.1701 64.0069 77.4545 63.7816C77.724 63.568 78 63.2534 78 62.8346H77ZM72.5347 64.4272C69.0058 65.1588 64.1204 65.6667 60 65.6667V66.6667C64.1855 66.6667 69.1391 66.1525 72.7377 65.4064L72.5347 64.4272ZM67.5 37.3333H60V38.3333H67.5V37.3333ZM60 37.3333H52.5V38.3333H60V37.3333ZM42.5016 17.8333C42.3159 18.2976 42.316 18.2976 42.3162 18.2977C42.3163 18.2977 42.3164 18.2978 42.3166 18.2978C42.317 18.298 42.3175 18.2982 42.3181 18.2984C42.3194 18.2989 42.3211 18.2996 42.3234 18.3005C42.3279 18.3023 42.3344 18.3049 42.3429 18.3082C42.3599 18.3149 42.3848 18.3246 42.4174 18.3372C42.4826 18.3624 42.5787 18.399 42.7036 18.4454C42.9536 18.5381 43.3195 18.6699 43.7866 18.8278C44.7206 19.1436 46.0604 19.5639 47.6885 19.9841C50.9414 20.8237 55.3606 21.6667 60.0008 21.6667V20.6667C55.4736 20.6667 51.1431 19.843 47.9384 19.0159C46.3376 18.6027 45.0215 18.1897 44.1068 17.8805C43.6496 17.7259 43.2929 17.5974 43.0514 17.5078C42.9307 17.463 42.8387 17.428 42.7774 17.4043C42.7468 17.3925 42.7238 17.3835 42.7087 17.3776C42.7012 17.3746 42.6956 17.3724 42.692 17.371C42.6902 17.3703 42.689 17.3698 42.6882 17.3694C42.6878 17.3693 42.6875 17.3692 42.6874 17.3691C42.6873 17.3691 42.6873 17.3691 42.6873 17.3691C42.6873 17.3691 42.6873 17.3691 42.5016 17.8333ZM60.0008 21.6667C64.641 21.6667 69.0602 20.8237 72.3132 19.9841C73.9412 19.5639 75.281 19.1436 76.2151 18.8278C76.6822 18.6699 77.048 18.5381 77.298 18.4454C77.423 18.399 77.519 18.3624 77.5842 18.3372C77.6168 18.3246 77.6418 18.3149 77.6587 18.3082C77.6672 18.3049 77.6738 18.3023 77.6783 18.3005C77.6805 18.2996 77.6823 18.2989 77.6835 18.2984C77.6841 18.2982 77.6846 18.298 77.685 18.2978C77.6852 18.2978 77.6854 18.2977 77.6855 18.2977C77.6856 18.2976 77.6857 18.2976 77.5 17.8333C77.3143 17.3691 77.3143 17.3691 77.3144 17.3691C77.3143 17.3691 77.3143 17.3691 77.3142 17.3691C77.3141 17.3692 77.3138 17.3693 77.3134 17.3694C77.3127 17.3698 77.3114 17.3703 77.3096 17.371C77.306 17.3724 77.3004 17.3746 77.2929 17.3776C77.2778 17.3835 77.2548 17.3925 77.2242 17.4043C77.1629 17.428 77.0709 17.463 76.9502 17.5078C76.7087 17.5974 76.352 17.7259 75.8948 17.8805C74.9802 18.1897 73.664 18.6027 72.0633 19.0159C68.8585 19.843 64.5281 20.6667 60.0008 20.6667V21.6667ZM42.5016 17.8333C42.7497 18.2674 42.7496 18.2675 42.7494 18.2676C42.7494 18.2676 42.7493 18.2677 42.7493 18.2677C42.7492 18.2677 42.7492 18.2677 42.7493 18.2677C42.7496 18.2675 42.7501 18.2672 42.7511 18.2667C42.7529 18.2656 42.7562 18.2638 42.7609 18.2612C42.7703 18.256 42.7854 18.2477 42.8061 18.2366C42.8476 18.2144 42.9118 18.1807 42.9986 18.1373C43.1724 18.0504 43.4369 17.9243 43.7921 17.7721C44.5026 17.4675 45.5763 17.058 47.0133 16.6474C49.8868 15.8263 54.2154 15 60.0008 15V14C54.1188 14 49.6978 14.8403 46.7385 15.6859C45.2591 16.1086 44.1457 16.5325 43.3981 16.8529C43.0244 17.0132 42.7421 17.1475 42.5513 17.2429C42.456 17.2906 42.3834 17.3286 42.3338 17.3552C42.309 17.3685 42.2899 17.3789 42.2765 17.3864C42.2698 17.3901 42.2645 17.393 42.2607 17.3952C42.2588 17.3962 42.2572 17.3971 42.256 17.3978C42.2554 17.3981 42.2549 17.3984 42.2545 17.3987C42.2543 17.3988 42.254 17.3989 42.2539 17.399C42.2537 17.3991 42.2535 17.3992 42.5016 17.8333ZM60.0008 15C65.7863 15 70.1149 15.8263 72.9883 16.6474C74.4253 17.058 75.499 17.4675 76.2095 17.7721C76.5648 17.9243 76.8293 18.0504 77.003 18.1373C77.0898 18.1807 77.154 18.2144 77.1955 18.2366C77.2162 18.2477 77.2313 18.256 77.2407 18.2612C77.2454 18.2638 77.2487 18.2656 77.2505 18.2667C77.2515 18.2672 77.2521 18.2675 77.2523 18.2677C77.2524 18.2677 77.2524 18.2677 77.2523 18.2677C77.2523 18.2677 77.2522 18.2676 77.2522 18.2676C77.252 18.2675 77.2519 18.2674 77.5 17.8333C77.7481 17.3992 77.7479 17.3991 77.7477 17.399C77.7476 17.3989 77.7473 17.3988 77.7471 17.3987C77.7467 17.3984 77.7462 17.3981 77.7456 17.3978C77.7444 17.3971 77.7428 17.3962 77.7409 17.3952C77.7371 17.393 77.7318 17.3901 77.7251 17.3864C77.7117 17.3789 77.6926 17.3685 77.6678 17.3552C77.6182 17.3286 77.5457 17.2906 77.4503 17.2429C77.2595 17.1475 76.9772 17.0132 76.6035 16.8529C75.8559 16.5325 74.7425 16.1086 73.2631 15.6859C70.3038 14.8403 65.8828 14 60.0008 14V15ZM37.6667 78.1667C37.3905 78.1667 37.1667 77.9428 37.1667 77.6667H36.1667C36.1667 78.4951 36.8382 79.1667 37.6667 79.1667V78.1667ZM32.0049 78.8336C32.0049 81.3189 34.0196 83.3336 36.5049 83.3336V82.3336C34.5719 82.3336 33.0049 80.7666 33.0049 78.8336H32.0049ZM37.1667 73C37.1667 72.7239 37.3905 72.5 37.6667 72.5V71.5C36.8382 71.5 36.1667 72.1716 36.1667 73H37.1667ZM36.5049 67.3343C34.0196 67.3343 32.0049 69.3491 32.0049 71.8343H33.0049C33.0049 69.9013 34.5719 68.3343 36.5049 68.3343V67.3343Z" fill="black"/>
</g>
<defs>
<filter id="filter0_d_576_4277" x="16" y="8" width="96" height="96" filterUnits="userSpaceOnUse" color-interpolation-filters="sRGB">
<feFlood flood-opacity="0" result="BackgroundImageFix"/>
<feColorMatrix in="SourceAlpha" type="matrix" values="0 0 0 0 0 0 0 0 0 0 0 0 0 0 0 0 0 0 127 0" result="hardAlpha"/>
<feOffset dx="4" dy="4"/>
<feGaussianBlur stdDeviation="4"/>
<feComposite in2="hardAlpha" operator="out"/>
<feColorMatrix type="matrix" values="0 0 0 0 0 0 0 0 0 0 0 0 0 0 0 0 0 0 0.25 0"/>
<feBlend mode="normal" in2="BackgroundImageFix" result="effect1_dropShadow_576_4277"/>
<feBlend mode="normal" in="SourceGraphic" in2="effect1_dropShadow_576_4277" result="shape"/>
</filter>
</defs>
</svg>
