<svg width="1920" height="960" viewBox="0 0 1920 960" fill="none" xmlns="http://www.w3.org/2000/svg">
<g clip-path="url(#clip0_629_6869)">
<rect width="1920" height="960" fill="#474747"/>
<path d="M808.126 9.49972V6.08008C808.126 5.52779 808.574 5.08008 809.126 5.08008H818.912C819.464 5.08008 819.912 5.52779 819.912 6.08008V9.49972M808.126 9.49972H769.885C769.332 9.49972 768.885 9.94744 768.885 10.4997V20.8211C768.885 21.3734 769.332 21.8211 769.885 21.8211H774.845M808.126 9.49972V21.8211M784.487 21.8211H774.845M788.304 21.8211H790.447M794.264 21.8211H808.126M808.126 21.8211V27.7185C808.126 28.2708 808.574 28.7185 809.126 28.7185H818.912C819.464 28.7185 819.912 28.2708 819.912 27.7185V21.8211M819.912 21.8211V9.49972M819.912 21.8211H854.063M819.912 9.49972H858.487C859.04 9.49972 859.487 9.94744 859.487 10.4997V20.8211C859.487 21.3734 859.04 21.8211 858.487 21.8211H854.063M835.313 62.6694V56.5711C835.313 56.0189 834.866 55.5711 834.313 55.5711H795.264C794.712 55.5711 794.264 56.0189 794.264 56.5711V127.629C794.264 128.181 794.712 128.629 795.264 128.629H834.313C834.866 128.629 835.313 128.181 835.313 127.629V69.4328M774.845 21.8211C774.845 111.218 768.999 112.409 768.886 147.028C768.885 147.58 769.332 148.049 769.885 148.049H858.487C859.04 148.049 859.488 147.58 859.486 147.028C859.382 112.951 854.063 112.067 854.063 21.8211" stroke="#FF9900" stroke-width="4"/>
<path d="M183.126 904.5V901.08C183.126 900.528 183.574 900.08 184.126 900.08H193.912C194.464 900.08 194.912 900.528 194.912 901.08V904.5M183.126 904.5H144.885C144.332 904.5 143.885 904.947 143.885 905.5V915.821C143.885 916.373 144.332 916.821 144.885 916.821H149.845M183.126 904.5V916.821M159.487 916.821H149.845M163.304 916.821H165.447M169.264 916.821H183.126M183.126 916.821V922.718C183.126 923.271 183.574 923.718 184.126 923.718H193.912C194.464 923.718 194.912 923.271 194.912 922.718V916.821M194.912 916.821V904.5M194.912 916.821H229.063M194.912 904.5H233.487C234.04 904.5 234.487 904.947 234.487 905.5V915.821C234.487 916.373 234.04 916.821 233.487 916.821H229.063M210.313 957.669V951.571C210.313 951.019 209.866 950.571 209.313 950.571H170.264C169.712 950.571 169.264 951.019 169.264 951.571V1022.63C169.264 1023.18 169.712 1023.63 170.264 1023.63H209.313C209.866 1023.63 210.313 1023.18 210.313 1022.63V964.433M149.845 916.821C149.845 1006.22 143.999 1007.41 143.886 1042.03C143.885 1042.58 144.332 1043.05 144.885 1043.05H233.487C234.04 1043.05 234.488 1042.58 234.486 1042.03C234.382 1007.95 229.063 1007.07 229.063 916.821" stroke="#FF9900" stroke-width="4"/>
<path d="M1479.13 788.5V785.08C1479.13 784.528 1479.57 784.08 1480.13 784.08H1489.91C1490.46 784.08 1490.91 784.528 1490.91 785.08V788.5M1479.13 788.5H1440.88C1440.33 788.5 1439.88 788.947 1439.88 789.5V799.821C1439.88 800.373 1440.33 800.821 1440.88 800.821H1445.84M1479.13 788.5V800.821M1455.49 800.821H1445.84M1459.3 800.821H1461.45M1465.26 800.821H1479.13M1479.13 800.821V806.718C1479.13 807.271 1479.57 807.718 1480.13 807.718H1489.91C1490.46 807.718 1490.91 807.271 1490.91 806.718V800.821M1490.91 800.821V788.5M1490.91 800.821H1525.06M1490.91 788.5H1529.49C1530.04 788.5 1530.49 788.947 1530.49 789.5V799.821C1530.49 800.373 1530.04 800.821 1529.49 800.821H1525.06M1506.31 841.669V835.571C1506.31 835.019 1505.87 834.571 1505.31 834.571H1466.26C1465.71 834.571 1465.26 835.019 1465.26 835.571V906.629C1465.26 907.181 1465.71 907.629 1466.26 907.629H1505.31C1505.87 907.629 1506.31 907.181 1506.31 906.629V848.433M1445.84 800.821C1445.84 890.218 1440 891.409 1439.89 926.028C1439.88 926.58 1440.33 927.049 1440.88 927.049H1529.49C1530.04 927.049 1530.49 926.58 1530.49 926.028C1530.38 891.951 1525.06 891.067 1525.06 800.821" stroke="#FF9900" stroke-width="4"/>
<path d="M620.922 -44.6657V-61.6543H581.48M620.922 -44.6657L603.012 -22.2118V12.0946M620.922 -44.6657L636.594 -22.2118V80.2465M603.012 80.2465H636.594M603.012 80.2465L613.548 67.8014M603.012 80.2465H549.215V55.7513M603.012 80.2465V55.7513M636.594 80.2465L617.696 62.1385V19.272M592.806 -22.2118H559.619M565.611 -47.3654L549.215 -22.2118V12.0946M565.611 -47.3654V-61.6543H572.393M565.611 -47.3654H589.25M617.696 12.0946V15.1236M549.215 12.0946H603.012M549.215 12.0946V55.7513M603.012 12.0946V55.7513M603.012 55.7513H589.25M582.994 55.7513H549.215M593.728 -47.4971H595.44M599.588 -47.4971L602.09 -47.3654M572.393 -61.6543L572.591 -53.6209H581.678L581.48 -61.6543M572.393 -61.6543H581.48" stroke="#FF9900" stroke-width="4"/>
<path d="M1655.92 605.334V588.346H1616.48M1655.92 605.334L1638.01 627.788V662.095M1655.92 605.334L1671.59 627.788V730.246M1638.01 730.246H1671.59M1638.01 730.246L1648.55 717.801M1638.01 730.246H1584.21V705.751M1638.01 730.246V705.751M1671.59 730.246L1652.7 712.139V669.272M1627.81 627.788H1594.62M1600.61 602.635L1584.21 627.788V662.095M1600.61 602.635V588.346H1607.39M1600.61 602.635H1624.25M1652.7 662.095V665.124M1584.21 662.095H1638.01M1584.21 662.095V705.751M1638.01 662.095V705.751M1638.01 705.751H1624.25M1617.99 705.751H1584.21M1628.73 602.503H1630.44M1634.59 602.503L1637.09 602.635M1607.39 588.346L1607.59 596.379H1616.68L1616.48 588.346M1607.39 588.346H1616.48" stroke="#FF9900" stroke-width="4"/>
<path d="M1194.92 459.334V442.346H1155.48M1194.92 459.334L1177.01 481.788V516.095M1194.92 459.334L1210.59 481.788V584.246M1177.01 584.246H1210.59M1177.01 584.246L1187.55 571.801M1177.01 584.246H1123.21V559.751M1177.01 584.246V559.751M1210.59 584.246L1191.7 566.139V523.272M1166.81 481.788H1133.62M1139.61 456.635L1123.21 481.788V516.095M1139.61 456.635V442.346H1146.39M1139.61 456.635H1163.25M1191.7 516.095V519.124M1123.21 516.095H1177.01M1123.21 516.095V559.751M1177.01 516.095V559.751M1177.01 559.751H1163.25M1156.99 559.751H1123.21M1167.73 456.503H1169.44M1173.59 456.503L1176.09 456.635M1146.39 442.346L1146.59 450.379H1155.68L1155.48 442.346M1146.39 442.346H1155.48" stroke="#FF9900" stroke-width="4"/>
<path d="M294.922 257.334V240.346H255.48M294.922 257.334L277.012 279.788V314.095M294.922 257.334L310.594 279.788V382.246M277.012 382.246H310.594M277.012 382.246L287.548 369.801M277.012 382.246H223.215V357.751M277.012 382.246V357.751M310.594 382.246L291.696 364.139V321.272M266.806 279.788H233.619M239.611 254.635L223.215 279.788V314.095M239.611 254.635V240.346H246.393M239.611 254.635H263.25M291.696 314.095V317.124M223.215 314.095H277.012M223.215 314.095V357.751M277.012 314.095V357.751M277.012 357.751H263.25M256.994 357.751H223.215M267.728 254.503H269.44M273.588 254.503L276.09 254.635M246.393 240.346L246.591 248.379H255.678L255.48 240.346M246.393 240.346H255.48" stroke="#FF9900" stroke-width="4"/>
<path d="M405.579 559.788H392.847C392.295 559.788 391.847 559.341 391.847 558.788V544.802M391.847 544.802H429.743M391.847 544.802L401.09 534.833M429.743 544.802V558.788C429.743 559.341 429.295 559.788 428.743 559.788H421.424M429.743 544.802L420.236 534.833M418.255 559.788H416.539M411.455 559.788H409.342M401.09 534.833H420.236M401.09 534.833C404.205 531.717 405.534 523.946 400.624 518.728C400.46 518.553 400.354 518.327 400.337 518.087L398.053 486.307C398.053 477.724 422.679 478.12 422.679 486.307L419.642 518.459M420.236 534.833C417.595 532.192 415.614 522.487 419.642 518.459M419.642 518.459H407.758M393.167 580.519H395.214M399.703 580.519H432.648M432.648 580.519V571.946C432.648 571.394 432.2 570.946 431.648 570.946H389.018C388.465 570.946 388.018 571.394 388.018 571.946V597.42C388.018 599.186 389.536 600.986 391.121 600.986H402.014M432.648 580.519V578.917M432.648 578.917V597.42C432.648 599.384 431.195 600.986 429.413 600.986H419.576M432.648 578.917H449.285M405.579 600.986V611.351M405.579 611.351H415.812M405.579 611.351C401.812 611.351 399.555 615.642 399.219 619.53C399.171 620.08 398.727 620.528 398.175 620.528H389.018C388.465 620.528 388.015 620.082 388.053 619.531C388.601 611.559 395.49 600.986 402.014 600.986M415.812 611.351V600.986M415.812 611.351C419.278 611.351 421.12 615.607 421.39 619.529C421.427 620.08 421.872 620.528 422.424 620.528H431.648C432.2 620.528 432.65 620.082 432.617 619.53C432.139 611.613 426.161 600.986 419.576 600.986M415.812 600.986H402.014M415.812 600.986H419.576M472.987 584.348H476.09M479.523 584.348H505.139M415.812 506.84L416.935 490.202C417.265 486.505 414.36 485.779 409.871 485.779M432.648 586.51H449.285M522.767 572.993H464.752C464.487 572.993 464.233 573.1 464.04 573.281C460.347 576.731 455.224 577.182 451.153 574.517C450.408 574.029 449.285 574.516 449.285 575.407V589.791C449.285 590.681 450.437 591.2 451.22 590.774C455.096 588.661 460.833 589.043 464.037 591.92C464.235 592.097 464.487 592.205 464.752 592.205H522.767C530.029 592.205 530.491 572.993 522.767 572.993Z" stroke="#FF9900" stroke-width="4"/>
<path d="M1013.58 316.788H1000.85C1000.29 316.788 999.847 316.341 999.847 315.788V301.802M999.847 301.802H1037.74M999.847 301.802L1009.09 291.833M1037.74 301.802V315.788C1037.74 316.341 1037.3 316.788 1036.74 316.788H1029.42M1037.74 301.802L1028.24 291.833M1026.26 316.788H1024.54M1019.46 316.788H1017.34M1009.09 291.833H1028.24M1009.09 291.833C1012.2 288.717 1013.53 280.946 1008.62 275.728C1008.46 275.553 1008.35 275.327 1008.34 275.087L1006.05 243.307C1006.05 234.724 1030.68 235.12 1030.68 243.307L1027.64 275.459M1028.24 291.833C1025.6 289.192 1023.61 279.487 1027.64 275.459M1027.64 275.459H1015.76M1001.17 337.519H1003.21M1007.7 337.519H1040.65M1040.65 337.519V328.946C1040.65 328.394 1040.2 327.946 1039.65 327.946H997.018C996.465 327.946 996.018 328.394 996.018 328.946V354.42C996.018 356.186 997.536 357.986 999.121 357.986H1010.01M1040.65 337.519V335.917M1040.65 335.917V354.42C1040.65 356.384 1039.2 357.986 1037.41 357.986H1027.58M1040.65 335.917H1057.29M1013.58 357.986V368.351M1013.58 368.351H1023.81M1013.58 368.351C1009.81 368.351 1007.55 372.642 1007.22 376.53C1007.17 377.08 1006.73 377.528 1006.18 377.528H997.018C996.465 377.528 996.015 377.082 996.053 376.531C996.601 368.559 1003.49 357.986 1010.01 357.986M1023.81 368.351V357.986M1023.81 368.351C1027.28 368.351 1029.12 372.607 1029.39 376.529C1029.43 377.08 1029.87 377.528 1030.42 377.528H1039.65C1040.2 377.528 1040.65 377.082 1040.62 376.53C1040.14 368.613 1034.16 357.986 1027.58 357.986M1023.81 357.986H1010.01M1023.81 357.986H1027.58M1080.99 341.348H1084.09M1087.52 341.348H1113.14M1023.81 263.84L1024.93 247.202C1025.26 243.505 1022.36 242.779 1017.87 242.779M1040.65 343.51H1057.29M1130.77 329.993H1072.75C1072.49 329.993 1072.23 330.1 1072.04 330.281C1068.35 333.731 1063.22 334.182 1059.15 331.517C1058.41 331.029 1057.29 331.516 1057.29 332.407V346.791C1057.29 347.681 1058.44 348.2 1059.22 347.774C1063.1 345.661 1068.83 346.043 1072.04 348.92C1072.23 349.097 1072.49 349.205 1072.75 349.205H1130.77C1138.03 349.205 1138.49 329.993 1130.77 329.993Z" stroke="#FF9900" stroke-width="4"/>
<path d="M968.31 -33.4358V-24.8668C968.31 -24.3146 968.758 -23.8668 969.31 -23.8668H979.172M968.31 -33.4358H1016.93M968.31 -33.4358H944.345M1016.93 -33.4358V-24.8668C1016.93 -24.3146 1016.48 -23.8668 1015.93 -23.8668H1006.76M1016.93 -33.4358H1041.84M961.5 -64.1255V-49.5565M1006.76 -16.4921L998.177 -16.2877C997.983 -16.2831 997.791 -16.2227 997.636 -16.1058C994.848 -14.0019 996.326 -11.544 997.629 -10.3713C997.788 -10.2289 997.994 -10.1558 998.207 -10.1481L1006.76 -9.83727M1006.76 -16.4921V-23.8668M1006.76 -16.4921L1041.84 -17.3274M1006.76 -23.8668H979.172M1006.76 -9.83727V-6.33237C1006.76 -5.78008 1006.31 -5.33237 1005.76 -5.33237H980.172C979.62 -5.33237 979.172 -5.78008 979.172 -6.33237V-23.8668M1006.76 -9.83727L1041.84 -8.56221M1041.84 -17.3274L1066.31 -17.9099C1066.54 -17.9155 1066.77 -17.8398 1066.95 -17.6867C1069.47 -15.5288 1072.57 -10.913 1066.91 -7.78776C1066.76 -7.70392 1066.58 -7.66327 1066.41 -7.66957L1041.84 -8.56221M1041.84 -17.3274V-33.4358M1041.84 -33.4358H1055.84C1056.4 -33.4358 1056.84 -33.8835 1056.84 -34.4358V-71.8841C1056.64 -75.1025 1054.76 -81.3496 1048.83 -80.591H936.858C936.792 -80.591 936.728 -80.585 936.663 -80.5715C934.048 -80.022 929 -77.9004 929 -73.6082V-34.4358C929 -33.8835 929.448 -33.4358 930 -33.4358H944.345M1041.84 -8.56221V34.1504M944.345 34.1504V-33.4358M976.328 5.27108V4.20212C976.328 3.64983 976.775 3.20212 977.328 3.20212H1010.24C1010.79 3.20212 1011.24 3.64983 1011.24 4.20212V20.0987C1011.24 31.909 976.328 31.909 976.328 20.0987V18.0297M976.328 5.27108C967.362 5.27108 965.379 7.08143 965.379 12.0814C965.379 16.478 967.276 18.0297 976.328 18.0297M976.328 5.27108V18.0297M1056.84 49.9263V35.1504C1056.84 34.5981 1056.4 34.1504 1055.84 34.1504H930C929.448 34.1504 929 34.5981 929 35.1504V51.0469C929 55.4664 932.015 57.2538 936.759 57.2538H1048.83C1052.7 57.2538 1056.84 53.3974 1056.84 49.9263ZM948.569 -56.4531C948.569 -74.9875 974.776 -73.2634 974.776 -56.4531C974.776 -38.8669 948.569 -38.6082 948.569 -56.4531ZM1044.95 -60.9703V-51.591C1044.95 -51.0387 1044.5 -50.591 1043.95 -50.591H1031.38C1030.83 -50.591 1030.38 -51.0387 1030.38 -51.591V-60.9703C1030.38 -61.5226 1030.83 -61.9703 1031.38 -61.9703H1043.95C1044.5 -61.9703 1044.95 -61.5226 1044.95 -60.9703ZM1020.29 -60.9703V-51.591C1020.29 -51.0387 1019.85 -50.591 1019.29 -50.591H1006.72C1006.17 -50.591 1005.72 -51.0387 1005.72 -51.591V-60.9703C1005.72 -61.5226 1006.17 -61.9703 1006.72 -61.9703H1019.29C1019.85 -61.9703 1020.29 -61.5226 1020.29 -60.9703Z" stroke="#FF9900" stroke-width="4"/>
<path d="M1604.31 354.564V363.133C1604.31 363.685 1604.76 364.133 1605.31 364.133H1615.17M1604.31 354.564H1652.93M1604.31 354.564H1580.34M1652.93 354.564V363.133C1652.93 363.685 1652.48 364.133 1651.93 364.133H1642.76M1652.93 354.564H1677.84M1597.5 323.875V338.443M1642.76 371.508L1634.18 371.712C1633.98 371.717 1633.79 371.777 1633.64 371.894C1630.85 373.998 1632.33 376.456 1633.63 377.629C1633.79 377.771 1633.99 377.844 1634.21 377.852L1642.76 378.163M1642.76 371.508V364.133M1642.76 371.508L1677.84 370.673M1642.76 364.133H1615.17M1642.76 378.163V381.668C1642.76 382.22 1642.31 382.668 1641.76 382.668H1616.17C1615.62 382.668 1615.17 382.22 1615.17 381.668V364.133M1642.76 378.163L1677.84 379.438M1677.84 370.673L1702.31 370.09C1702.54 370.084 1702.77 370.16 1702.95 370.313C1705.47 372.471 1708.57 377.087 1702.91 380.212C1702.76 380.296 1702.58 380.337 1702.41 380.33L1677.84 379.438M1677.84 370.673V354.564M1677.84 354.564H1691.84C1692.4 354.564 1692.84 354.116 1692.84 353.564V316.116C1692.64 312.898 1690.76 306.65 1684.83 307.409H1572.86C1572.79 307.409 1572.73 307.415 1572.66 307.429C1570.05 307.978 1565 310.1 1565 314.392V353.564C1565 354.116 1565.45 354.564 1566 354.564H1580.34M1677.84 379.438V422.15M1580.34 422.15V354.564M1612.33 393.271V392.202C1612.33 391.65 1612.78 391.202 1613.33 391.202H1646.24C1646.79 391.202 1647.24 391.65 1647.24 392.202V408.099C1647.24 419.909 1612.33 419.909 1612.33 408.099V406.03M1612.33 393.271C1603.36 393.271 1601.38 395.081 1601.38 400.081C1601.38 404.478 1603.28 406.03 1612.33 406.03M1612.33 393.271V406.03M1692.84 437.926V423.15C1692.84 422.598 1692.4 422.15 1691.84 422.15H1566C1565.45 422.15 1565 422.598 1565 423.15V439.047C1565 443.466 1568.01 445.254 1572.76 445.254H1684.83C1688.7 445.254 1692.84 441.397 1692.84 437.926ZM1584.57 331.547C1584.57 313.012 1610.78 314.737 1610.78 331.547C1610.78 349.133 1584.57 349.392 1584.57 331.547ZM1680.95 327.03V336.409C1680.95 336.961 1680.5 337.409 1679.95 337.409H1667.38C1666.83 337.409 1666.38 336.961 1666.38 336.409V327.03C1666.38 326.477 1666.83 326.03 1667.38 326.03H1679.95C1680.5 326.03 1680.95 326.477 1680.95 327.03ZM1656.29 327.03V336.409C1656.29 336.961 1655.85 337.409 1655.29 337.409H1642.72C1642.17 337.409 1641.72 336.961 1641.72 336.409V327.03C1641.72 326.477 1642.17 326.03 1642.72 326.03H1655.29C1655.85 326.03 1656.29 326.477 1656.29 327.03Z" stroke="#FF9900" stroke-width="4"/>
<path d="M1843.31 -69.4358V-60.8668C1843.31 -60.3146 1843.76 -59.8668 1844.31 -59.8668H1854.17M1843.31 -69.4358H1891.93M1843.31 -69.4358H1819.34M1891.93 -69.4358V-60.8668C1891.93 -60.3146 1891.48 -59.8668 1890.93 -59.8668H1881.76M1891.93 -69.4358H1916.84M1836.5 -100.125V-85.5565M1881.76 -52.4921L1873.18 -52.2877C1872.98 -52.2831 1872.79 -52.2227 1872.64 -52.1058C1869.85 -50.0019 1871.33 -47.544 1872.63 -46.3713C1872.79 -46.2289 1872.99 -46.1558 1873.21 -46.1481L1881.76 -45.8373M1881.76 -52.4921V-59.8668M1881.76 -52.4921L1916.84 -53.3274M1881.76 -59.8668H1854.17M1881.76 -45.8373V-42.3324C1881.76 -41.7801 1881.31 -41.3324 1880.76 -41.3324H1855.17C1854.62 -41.3324 1854.17 -41.7801 1854.17 -42.3324V-59.8668M1881.76 -45.8373L1916.84 -44.5622M1916.84 -53.3274L1941.31 -53.9099C1941.54 -53.9155 1941.77 -53.8398 1941.95 -53.6867C1944.47 -51.5288 1947.57 -46.913 1941.91 -43.7878C1941.76 -43.7039 1941.58 -43.6633 1941.41 -43.6696L1916.84 -44.5622M1916.84 -53.3274V-69.4358M1916.84 -69.4358H1930.84C1931.4 -69.4358 1931.84 -69.8835 1931.84 -70.4358V-107.884C1931.64 -111.102 1929.76 -117.35 1923.83 -116.591H1811.86C1811.79 -116.591 1811.73 -116.585 1811.66 -116.571C1809.05 -116.022 1804 -113.9 1804 -109.608V-70.4358C1804 -69.8835 1804.45 -69.4358 1805 -69.4358H1819.34M1916.84 -44.5622V-1.84961M1819.34 -1.84961V-69.4358M1851.33 -30.7289V-31.7979C1851.33 -32.3502 1851.78 -32.7979 1852.33 -32.7979H1885.24C1885.79 -32.7979 1886.24 -32.3502 1886.24 -31.7979V-15.9013C1886.24 -4.09099 1851.33 -4.09099 1851.33 -15.9013V-17.9703M1851.33 -30.7289C1842.36 -30.7289 1840.38 -28.9186 1840.38 -23.9186C1840.38 -19.522 1842.28 -17.9703 1851.33 -17.9703M1851.33 -30.7289V-17.9703M1931.84 13.9263V-0.849607C1931.84 -1.40189 1931.4 -1.84961 1930.84 -1.84961H1805C1804.45 -1.84961 1804 -1.40189 1804 -0.849607V15.0469C1804 19.4664 1807.01 21.2538 1811.76 21.2538H1923.83C1927.7 21.2538 1931.84 17.3974 1931.84 13.9263ZM1823.57 -92.4531C1823.57 -110.988 1849.78 -109.263 1849.78 -92.4531C1849.78 -74.8669 1823.57 -74.6082 1823.57 -92.4531ZM1919.95 -96.9703V-87.591C1919.95 -87.0387 1919.5 -86.591 1918.95 -86.591H1906.38C1905.83 -86.591 1905.38 -87.0387 1905.38 -87.591V-96.9703C1905.38 -97.5226 1905.83 -97.9703 1906.38 -97.9703H1918.95C1919.5 -97.9703 1919.95 -97.5226 1919.95 -96.9703ZM1895.29 -96.9703V-87.591C1895.29 -87.0387 1894.85 -86.591 1894.29 -86.591H1881.72C1881.17 -86.591 1880.72 -87.0387 1880.72 -87.591V-96.9703C1880.72 -97.5226 1881.17 -97.9703 1881.72 -97.9703H1894.29C1894.85 -97.9703 1895.29 -97.5226 1895.29 -96.9703Z" stroke="#FF9900" stroke-width="4"/>
<path d="M372.236 103.947H379.671M465.921 103.947H459.013M447.499 66.4471H461.513V77.1707L447.499 76.3155M390.986 66.4471H376.052V77.1707L390.986 76.3155M435.789 68.2234V86.3813M435.789 90.9865V92.9602M379.671 103.947L386.381 159.934M379.671 103.947H390.986M386.381 159.934H451.578M386.381 159.934L390.986 168.355L391.973 183.684C391.973 187.631 394.144 190.723 396.118 190.723H441.973C443.749 190.723 445.723 188.421 445.723 183.684L447.499 168.355M451.578 159.934L459.013 103.947M451.578 159.934L447.499 168.355M459.013 103.947H447.499M390.986 59.2102H387.565V49.3418H450.46V59.2102H447.499M390.986 59.2102V103.947M390.986 59.2102H447.499M390.986 103.947H447.499M390.986 103.947C390.986 114.605 390.986 118.026 395.328 118.026H442.697C447.499 118.026 447.499 113.684 447.499 103.947M447.499 59.2102V103.947M405.197 168.355H422.434M427.236 168.355H429.407M433.355 168.355H447.499M419.407 126.447L412.105 137.368C407.565 147.631 430.46 148.158 426.249 137.368L419.407 126.447Z" stroke="#FF9900" stroke-width="4"/>
<path d="M1088.24 721.947H1095.67M1181.92 721.947H1175.01M1163.5 684.447H1177.51V695.171L1163.5 694.315M1106.99 684.447H1092.05V695.171L1106.99 694.315M1151.79 686.223V704.381M1151.79 708.987V710.96M1095.67 721.947L1102.38 777.934M1095.67 721.947H1106.99M1102.38 777.934H1167.58M1102.38 777.934L1106.99 786.355L1107.97 801.684C1107.97 805.631 1110.14 808.723 1112.12 808.723H1157.97C1159.75 808.723 1161.72 806.421 1161.72 801.684L1163.5 786.355M1167.58 777.934L1175.01 721.947M1167.58 777.934L1163.5 786.355M1175.01 721.947H1163.5M1106.99 677.21H1103.57V667.342H1166.46V677.21H1163.5M1106.99 677.21V721.947M1106.99 677.21H1163.5M1106.99 721.947H1163.5M1106.99 721.947C1106.99 732.605 1106.99 736.026 1111.33 736.026H1158.7C1163.5 736.026 1163.5 731.684 1163.5 721.947M1163.5 677.21V721.947M1121.2 786.355H1138.43M1143.24 786.355H1145.41M1149.35 786.355H1163.5M1135.41 744.447L1128.1 755.368C1123.57 765.631 1146.46 766.158 1142.25 755.368L1135.41 744.447Z" stroke="#FF9900" stroke-width="4"/>
<path d="M1628.24 989.947H1635.67M1721.92 989.947H1715.01M1703.5 952.447H1717.51V963.171L1703.5 962.315M1646.99 952.447H1632.05V963.171L1646.99 962.315M1691.79 954.223V972.381M1691.79 976.987V978.96M1635.67 989.947L1642.38 1045.93M1635.67 989.947H1646.99M1642.38 1045.93H1707.58M1642.38 1045.93L1646.99 1054.35L1647.97 1069.68C1647.97 1073.63 1650.14 1076.72 1652.12 1076.72H1697.97C1699.75 1076.72 1701.72 1074.42 1701.72 1069.68L1703.5 1054.35M1707.58 1045.93L1715.01 989.947M1707.58 1045.93L1703.5 1054.35M1715.01 989.947H1703.5M1646.99 945.21H1643.57V935.342H1706.46V945.21H1703.5M1646.99 945.21V989.947M1646.99 945.21H1703.5M1646.99 989.947H1703.5M1646.99 989.947C1646.99 1000.6 1646.99 1004.03 1651.33 1004.03H1698.7C1703.5 1004.03 1703.5 999.684 1703.5 989.947M1703.5 945.21V989.947M1661.2 1054.35H1678.43M1683.24 1054.35H1685.41M1689.35 1054.35H1703.5M1675.41 1012.45L1668.1 1023.37C1663.57 1033.63 1686.46 1034.16 1682.25 1023.37L1675.41 1012.45Z" stroke="#FF9900" stroke-width="4"/>
<path d="M276.236 721.947H283.671M369.921 721.947H363.013M351.499 684.447H365.513V695.171L351.499 694.315M294.986 684.447H280.052V695.171L294.986 694.315M339.789 686.223V704.381M339.789 708.987V710.96M283.671 721.947L290.381 777.934M283.671 721.947H294.986M290.381 777.934H355.578M290.381 777.934L294.986 786.355L295.973 801.684C295.973 805.631 298.144 808.723 300.118 808.723H345.973C347.749 808.723 349.723 806.421 349.723 801.684L351.499 786.355M355.578 777.934L363.013 721.947M355.578 777.934L351.499 786.355M363.013 721.947H351.499M294.986 677.21H291.565V667.342H354.46V677.21H351.499M294.986 677.21V721.947M294.986 677.21H351.499M294.986 721.947H351.499M294.986 721.947C294.986 732.605 294.986 736.026 299.328 736.026H346.697C351.499 736.026 351.499 731.684 351.499 721.947M351.499 677.21V721.947M309.197 786.355H326.434M331.236 786.355H333.407M337.355 786.355H351.499M323.407 744.447L316.105 755.368C311.565 765.631 334.46 766.158 330.249 755.368L323.407 744.447Z" stroke="#FF9900" stroke-width="4"/>
<path d="M167.664 487.617L179.499 505.207C180.807 507.822 179.499 511.026 177.015 511.026H170.41M167.664 487.617L175.348 467.822C175.369 467.767 175.396 467.713 175.426 467.662C176.983 465.017 175.363 462.901 173.68 462.901H166.16M167.664 487.617H134.12M102.276 487.617L90.8987 505.207C89.7216 507.495 90.8987 511.026 93.7103 511.026H99.0067M102.276 487.617L95.2143 467.739C94.6258 466.432 95.2143 462.901 97.4375 462.901H104.434M102.276 487.617H116.269M123.782 487.617H120.317M99.0067 511.026C85.0137 527.308 86.8195 540.647 88.4792 547.84M99.0067 511.026H170.41M88.4792 547.84C93.7103 570.509 112.15 577.395 114.438 577.395H153.998C161.845 577.395 179.499 560.525 183.553 547.84M88.4792 547.84H183.553M183.553 547.84C185.601 541.432 182.246 523.646 170.41 511.026M104.434 462.901L95.2143 437.203M104.434 462.901H166.16M95.2143 437.203C102.276 451.131 121.043 450.215 134.12 445.704M95.2143 437.203C107.18 435.438 129.805 440.363 134.12 445.704M166.16 462.901L174.809 438.795C175.066 438.079 174.46 437.334 173.701 437.381C167.322 437.777 157.359 435.791 154.129 438.184M146.609 440.407C142.781 441.994 139.09 443.989 134.12 445.704M130.583 487.617H127.117" stroke="#FF9900" stroke-width="4"/>
<path d="M943.664 624.617L955.499 642.207C956.807 644.822 955.499 648.026 953.015 648.026H946.41M943.664 624.617L951.348 604.822C951.369 604.767 951.396 604.713 951.426 604.662C952.983 602.017 951.363 599.901 949.68 599.901H942.16M943.664 624.617H910.12M878.276 624.617L866.899 642.207C865.722 644.495 866.899 648.026 869.71 648.026H875.007M878.276 624.617L871.214 604.739C870.626 603.432 871.214 599.901 873.437 599.901H880.434M878.276 624.617H892.269M899.782 624.617H896.317M875.007 648.026C861.014 664.308 862.82 677.647 864.479 684.84M875.007 648.026H946.41M864.479 684.84C869.71 707.509 888.15 714.395 890.438 714.395H929.998C937.845 714.395 955.499 697.525 959.553 684.84M864.479 684.84H959.553M959.553 684.84C961.601 678.432 958.246 660.646 946.41 648.026M880.434 599.901L871.214 574.203M880.434 599.901H942.16M871.214 574.203C878.276 588.131 897.043 587.215 910.12 582.704M871.214 574.203C883.18 572.438 905.805 577.363 910.12 582.704M942.16 599.901L950.809 575.795C951.066 575.079 950.46 574.334 949.701 574.381C943.322 574.777 933.359 572.791 930.129 575.184M922.609 577.407C918.781 578.994 915.09 580.989 910.12 582.704M906.583 624.617H903.117" stroke="#FF9900" stroke-width="4"/>
<path d="M287.073 2.79751V5.84521M287.073 9.75422V74.4848C287.073 80.3152 286.576 84.2904 280.315 84.2904H255.271M181.464 84.2904H199.154M287.073 -7.67069V-25.4269M287.073 -25.4269H293.626C294.178 -25.4269 294.626 -25.8746 294.626 -26.4269V-30.661M287.073 -25.4269H279.924C279.372 -25.4269 278.924 -25.8746 278.924 -26.4269V-30.661M286.775 -35.8951H293.626C294.178 -35.8951 294.626 -35.4474 294.626 -34.8951V-30.661M286.775 -35.8951H279.924C279.372 -35.8951 278.924 -35.4474 278.924 -34.8951V-30.661M286.775 -35.8951L287.073 -58.2891M294.626 -30.661H302.179M302.179 -30.661V-34.8951C302.179 -35.4474 302.627 -35.8951 303.179 -35.8951H308.401C308.953 -35.8951 309.401 -35.4474 309.401 -34.8951V-26.4269C309.401 -25.8746 308.953 -25.4269 308.401 -25.4269H303.179C302.627 -25.4269 302.179 -25.8746 302.179 -26.4269V-30.661ZM278.924 -30.661H230.558M223.27 -30.661H193.853M211.609 77.0025H214.723M217.97 77.0025H259.379M259.379 77.0025C259.379 80.5139 260.141 84.2904 255.271 84.2904M259.379 77.0025V25.3964C259.379 24.8442 258.931 24.3964 258.379 24.3964H196.311C195.759 24.3964 195.311 24.8442 195.311 25.3964V36.786M255.271 84.2904H199.154M199.154 84.2904C195.337 84.2904 195.311 81.309 195.311 77.0025V66.0705M195.311 36.786H176.826C167.351 36.786 167.484 66.0705 176.826 66.0705H195.311M195.311 36.786V66.0705M287.073 -2.76786V0.27984M220.951 7.30281L226.8 -0.592986C227.192 -1.12175 227.979 -1.1346 228.387 -0.61889L234.666 7.30281C237.382 10.8143 236.256 14.127 235.262 15.1208C231.883 18.4998 223.734 17.9698 220.554 15.1208C217.373 12.2719 220.222 8.23037 220.951 7.30281ZM213.801 -8.86327H241.621C242.024 -8.86327 242.387 -9.10437 242.543 -9.47515L259.921 -50.7393C260.198 -51.3984 259.714 -52.1274 258.999 -52.1274H196.676C195.963 -52.1274 195.479 -51.4026 195.752 -50.7441L212.877 -9.47996C213.032 -9.10662 213.397 -8.86327 213.801 -8.86327Z" stroke="#FF9900" stroke-width="4"/>
<path d="M1391.07 581.798V584.845M1391.07 588.754V653.485C1391.07 659.315 1390.58 663.29 1384.32 663.29H1359.27M1285.46 663.29H1303.15M1391.07 571.329V553.573M1391.07 553.573H1397.63C1398.18 553.573 1398.63 553.125 1398.63 552.573V548.339M1391.07 553.573H1383.92C1383.37 553.573 1382.92 553.125 1382.92 552.573V548.339M1390.78 543.105H1397.63C1398.18 543.105 1398.63 543.553 1398.63 544.105V548.339M1390.78 543.105H1383.92C1383.37 543.105 1382.92 543.553 1382.92 544.105V548.339M1390.78 543.105L1391.07 520.711M1398.63 548.339H1406.18M1406.18 548.339V544.105C1406.18 543.553 1406.63 543.105 1407.18 543.105H1412.4C1412.95 543.105 1413.4 543.553 1413.4 544.105V552.573C1413.4 553.125 1412.95 553.573 1412.4 553.573H1407.18C1406.63 553.573 1406.18 553.125 1406.18 552.573V548.339ZM1382.92 548.339H1334.56M1327.27 548.339H1297.85M1315.61 656.002H1318.72M1321.97 656.002H1363.38M1363.38 656.002C1363.38 659.514 1364.14 663.29 1359.27 663.29M1363.38 656.002V604.396C1363.38 603.844 1362.93 603.396 1362.38 603.396H1300.31C1299.76 603.396 1299.31 603.844 1299.31 604.396V615.786M1359.27 663.29H1303.15M1303.15 663.29C1299.34 663.29 1299.31 660.309 1299.31 656.002V645.07M1299.31 615.786H1280.83C1271.35 615.786 1271.48 645.07 1280.83 645.07H1299.31M1299.31 615.786V645.07M1391.07 576.232V579.28M1324.95 586.303L1330.8 578.407C1331.19 577.878 1331.98 577.865 1332.39 578.381L1338.67 586.303C1341.38 589.814 1340.26 593.127 1339.26 594.121C1335.88 597.5 1327.73 596.97 1324.55 594.121C1321.37 591.272 1324.22 587.23 1324.95 586.303ZM1317.8 570.137H1345.62C1346.02 570.137 1346.39 569.896 1346.54 569.525L1363.92 528.261C1364.2 527.602 1363.71 526.873 1363 526.873H1300.68C1299.96 526.873 1299.48 527.597 1299.75 528.256L1316.88 569.52C1317.03 569.893 1317.4 570.137 1317.8 570.137Z" stroke="#FF9900" stroke-width="4"/>
<path d="M1562.07 132.798V135.845M1562.07 139.754V204.485C1562.07 210.315 1561.58 214.29 1555.32 214.29H1530.27M1456.46 214.29H1474.15M1562.07 122.329V104.573M1562.07 104.573H1568.63C1569.18 104.573 1569.63 104.125 1569.63 103.573V99.339M1562.07 104.573H1554.92C1554.37 104.573 1553.92 104.125 1553.92 103.573V99.339M1561.78 94.1049H1568.63C1569.18 94.1049 1569.63 94.5526 1569.63 95.1049V99.339M1561.78 94.1049H1554.92C1554.37 94.1049 1553.92 94.5526 1553.92 95.1049V99.339M1561.78 94.1049L1562.07 71.7109M1569.63 99.339H1577.18M1577.18 99.339V95.1049C1577.18 94.5526 1577.63 94.1049 1578.18 94.1049H1583.4C1583.95 94.1049 1584.4 94.5526 1584.4 95.1049V103.573C1584.4 104.125 1583.95 104.573 1583.4 104.573H1578.18C1577.63 104.573 1577.18 104.125 1577.18 103.573V99.339ZM1553.92 99.339H1505.56M1498.27 99.339H1468.85M1486.61 207.002H1489.72M1492.97 207.002H1534.38M1534.38 207.002C1534.38 210.514 1535.14 214.29 1530.27 214.29M1534.38 207.002V155.396C1534.38 154.844 1533.93 154.396 1533.38 154.396H1471.31C1470.76 154.396 1470.31 154.844 1470.31 155.396V166.786M1530.27 214.29H1474.15M1474.15 214.29C1470.34 214.29 1470.31 211.309 1470.31 207.002V196.07M1470.31 166.786H1451.83C1442.35 166.786 1442.48 196.07 1451.83 196.07H1470.31M1470.31 166.786V196.07M1562.07 127.232V130.28M1495.95 137.303L1501.8 129.407C1502.19 128.878 1502.98 128.865 1503.39 129.381L1509.67 137.303C1512.38 140.814 1511.26 144.127 1510.26 145.121C1506.88 148.5 1498.73 147.97 1495.55 145.121C1492.37 142.272 1495.22 138.23 1495.95 137.303ZM1488.8 121.137H1516.62C1517.02 121.137 1517.39 120.896 1517.54 120.525L1534.92 79.2607C1535.2 78.6016 1534.71 77.8726 1534 77.8726H1471.68C1470.96 77.8726 1470.48 78.5974 1470.75 79.2559L1487.88 120.52C1488.03 120.893 1488.4 121.137 1488.8 121.137Z" stroke="#FF9900" stroke-width="4"/>
<path d="M1174.17 121.347L1173.23 110.96C1173.18 110.374 1173.64 109.869 1174.22 109.869H1183.72C1184.33 109.869 1184.8 110.404 1184.71 111.004L1183.3 121.347M1179.13 227.717H1206.06M1174.17 227.717H1172.28M1168.11 227.717H1165.96M1161.85 227.717H1153.56M1153.56 227.717H1150.37C1146.78 227.717 1144.3 226.608 1144.3 222.304L1145.16 208.021M1153.56 227.717V233.5C1153.56 234.052 1154.01 234.5 1154.56 234.5H1205.06C1205.62 234.5 1206.06 234.052 1206.06 233.5V227.717M1206.06 227.717H1209.13C1213.11 227.717 1215.19 225.956 1215.19 222.304L1214.4 209.065M1145.16 208.021L1150.31 122.287C1150.34 121.759 1150.78 121.347 1151.31 121.347H1208.19C1208.72 121.347 1209.15 121.759 1209.19 122.287L1209.85 133.347M1145.16 208.021H1130.67C1127.15 208.021 1120.37 202.739 1120.37 196.413V143.391C1120.37 138.956 1115.8 131.456 1104.91 131.456M1209.85 133.347H1233.72C1236.65 133.347 1238.02 136.608 1238.02 140.652M1209.85 133.347L1214.4 209.065M1238.93 146.521L1245.72 185.717C1246.37 190.608 1244.35 199.282 1239.26 201.434L1226.83 205.25L1214.4 209.065M1185.59 130.869H1198.63C1200.13 130.869 1201.04 132.239 1201.04 133.347L1202.8 168.434M1203.33 173.391V175.021" stroke="#FF9900" stroke-width="4"/>
<path d="M38.1729 701.347L37.2286 690.96C37.1753 690.374 37.6364 689.869 38.2245 689.869H47.7229C48.3289 689.869 48.7957 690.404 48.7138 691.004L47.3033 701.347M43.1294 807.717H70.0643M38.1729 807.717H36.2816M32.1077 807.717H29.9555M25.8468 807.717H17.5643M17.5643 807.717H14.3686C10.7817 807.717 8.30335 806.608 8.30335 802.304L9.16142 788.021M17.5643 807.717V813.5C17.5643 814.052 18.012 814.5 18.5643 814.5H69.0643C69.6165 814.5 70.0643 814.052 70.0643 813.5V807.717M70.0643 807.717H73.1294C77.1078 807.717 79.1947 805.956 79.1947 802.304L78.3993 789.065M9.16142 788.021L14.3121 702.287C14.3438 701.759 14.7813 701.347 15.3103 701.347H72.1877C72.7167 701.347 73.1542 701.759 73.1859 702.287L73.8504 713.347M9.16142 788.021H-5.32705C-8.84876 788.021 -15.6314 782.739 -15.6314 776.413V723.391C-15.6314 718.956 -20.1966 711.456 -31.0879 711.456M73.8504 713.347H97.7165C100.651 713.347 102.021 716.608 102.021 720.652M73.8504 713.347L78.3993 789.065M102.934 726.521L109.716 765.717C110.369 770.608 108.347 779.282 103.26 781.434L90.8296 785.25L78.3993 789.065M49.586 710.869H62.6295C64.1295 710.869 65.0425 712.239 65.0425 713.347L66.8034 748.434M67.3252 753.391V755.021" stroke="#FF9900" stroke-width="4"/>
<path d="M30.7874 164.081C34.3281 163.997 37.7962 161.699 37.7962 157.154C37.7962 147.506 23.3242 147.506 23.3242 157.154C23.3242 161.847 27.0952 164.168 30.7874 164.081ZM30.7874 164.081V169.988M60.2777 180.182C60.2777 176.45 54.9986 169.988 51.9949 169.988H7.3954C4.02768 169.988 -0.341247 175.813 -0.341247 180.182M9.12477 180.182H-11.5391C-12.3631 180.182 -12.8335 181.123 -12.3391 181.782L-2.61673 194.745M-2.61673 194.745V274.66M-2.61673 194.745H30.6964M63.0993 194.745H30.6964M63.0993 194.745V188.101M63.0993 194.745V249.63M13.6757 180.182H62.0993C62.6516 180.182 63.0993 180.63 63.0993 181.182V188.101M63.0993 274.66V249.63M37.5228 274.66H-6.98688C-7.53916 274.66 -7.98688 275.108 -7.98688 275.66V286.585C-7.98688 287.137 -7.53916 287.585 -6.98688 287.585H68.2886C68.8409 287.585 69.2886 287.137 69.2886 286.585V275.66C69.2886 275.108 68.8409 274.66 68.2886 274.66H56.4549M50.8117 274.66H44.3493M56.4549 262.373H30.6964M4.93788 262.373H30.6964M30.6964 262.373V194.745M63.0993 188.101H76.6612C81.5762 188.101 85.7631 192.652 85.7631 196.474V239.982C85.7631 245.352 80.393 249.63 76.6612 249.63H63.0993" stroke="#FF9900" stroke-width="4"/>
<path d="M1785.79 465.081C1789.33 464.997 1792.8 462.699 1792.8 458.154C1792.8 448.506 1778.32 448.506 1778.32 458.154C1778.32 462.847 1782.1 465.168 1785.79 465.081ZM1785.79 465.081V470.988M1815.28 481.182C1815.28 477.45 1810 470.988 1806.99 470.988H1762.4C1759.03 470.988 1754.66 476.813 1754.66 481.182M1764.12 481.182H1743.46C1742.64 481.182 1742.17 482.123 1742.66 482.782L1752.38 495.745M1752.38 495.745V575.66M1752.38 495.745H1785.7M1818.1 495.745H1785.7M1818.1 495.745V489.101M1818.1 495.745V550.63M1768.68 481.182H1817.1C1817.65 481.182 1818.1 481.63 1818.1 482.182V489.101M1818.1 575.66V550.63M1792.52 575.66H1748.01C1747.46 575.66 1747.01 576.108 1747.01 576.66V587.585C1747.01 588.137 1747.46 588.585 1748.01 588.585H1823.29C1823.84 588.585 1824.29 588.137 1824.29 587.585V576.66C1824.29 576.108 1823.84 575.66 1823.29 575.66H1811.45M1805.81 575.66H1799.35M1811.45 563.373H1785.7M1759.94 563.373H1785.7M1785.7 563.373V495.745M1818.1 489.101H1831.66C1836.58 489.101 1840.76 493.652 1840.76 497.474V540.982C1840.76 546.352 1835.39 550.63 1831.66 550.63H1818.1" stroke="#FF9900" stroke-width="4"/>
<path d="M1357.79 303.081C1361.33 302.997 1364.8 300.699 1364.8 296.154C1364.8 286.506 1350.32 286.506 1350.32 296.154C1350.32 300.847 1354.1 303.168 1357.79 303.081ZM1357.79 303.081V308.988M1387.28 319.182C1387.28 315.45 1382 308.988 1378.99 308.988H1334.4C1331.03 308.988 1326.66 314.813 1326.66 319.182M1336.12 319.182H1315.46C1314.64 319.182 1314.17 320.123 1314.66 320.782L1324.38 333.745M1324.38 333.745V413.66M1324.38 333.745H1357.7M1390.1 333.745H1357.7M1390.1 333.745V327.101M1390.1 333.745V388.63M1340.68 319.182H1389.1C1389.65 319.182 1390.1 319.63 1390.1 320.182V327.101M1390.1 413.66V388.63M1364.52 413.66H1320.01C1319.46 413.66 1319.01 414.108 1319.01 414.66V425.585C1319.01 426.137 1319.46 426.585 1320.01 426.585H1395.29C1395.84 426.585 1396.29 426.137 1396.29 425.585V414.66C1396.29 414.108 1395.84 413.66 1395.29 413.66H1383.45M1377.81 413.66H1371.35M1383.45 401.373H1357.7M1331.94 401.373H1357.7M1357.7 401.373V333.745M1390.1 327.101H1403.66C1408.58 327.101 1412.76 331.652 1412.76 335.474V378.982C1412.76 384.352 1407.39 388.63 1403.66 388.63H1390.1" stroke="#FF9900" stroke-width="4"/>
<path d="M654.787 623.081C658.328 622.997 661.796 620.699 661.796 616.154C661.796 606.506 647.324 606.506 647.324 616.154C647.324 620.847 651.095 623.168 654.787 623.081ZM654.787 623.081V628.988M684.278 639.182C684.278 635.45 678.999 628.988 675.995 628.988H631.395C628.028 628.988 623.659 634.813 623.659 639.182M633.125 639.182H612.461C611.637 639.182 611.167 640.123 611.661 640.782L621.383 653.745M621.383 653.745V733.66M621.383 653.745H654.696M687.099 653.745H654.696M687.099 653.745V647.101M687.099 653.745V708.63M637.676 639.182H686.099C686.652 639.182 687.099 639.63 687.099 640.182V647.101M687.099 733.66V708.63M661.523 733.66H617.013C616.461 733.66 616.013 734.108 616.013 734.66V745.585C616.013 746.137 616.461 746.585 617.013 746.585H692.289C692.841 746.585 693.289 746.137 693.289 745.585V734.66C693.289 734.108 692.841 733.66 692.289 733.66H680.455M674.812 733.66H668.349M680.455 721.373H654.696M628.938 721.373H654.696M654.696 721.373V653.745M687.099 647.101H700.661C705.576 647.101 709.763 651.652 709.763 655.474V698.982C709.763 704.352 704.393 708.63 700.661 708.63H687.099" stroke="#FF9900" stroke-width="4"/>
<path d="M1258.79 861.081C1262.33 860.997 1265.8 858.699 1265.8 854.154C1265.8 844.506 1251.32 844.506 1251.32 854.154C1251.32 858.847 1255.1 861.168 1258.79 861.081ZM1258.79 861.081V866.988M1288.28 877.182C1288.28 873.45 1283 866.988 1279.99 866.988H1235.4C1232.03 866.988 1227.66 872.813 1227.66 877.182M1237.12 877.182H1216.46C1215.64 877.182 1215.17 878.123 1215.66 878.782L1225.38 891.745M1225.38 891.745V971.66M1225.38 891.745H1258.7M1291.1 891.745H1258.7M1291.1 891.745V885.101M1291.1 891.745V946.63M1241.68 877.182H1290.1C1290.65 877.182 1291.1 877.63 1291.1 878.182V885.101M1291.1 971.66V946.63M1265.52 971.66H1221.01C1220.46 971.66 1220.01 972.108 1220.01 972.66V983.585C1220.01 984.137 1220.46 984.585 1221.01 984.585H1296.29C1296.84 984.585 1297.29 984.137 1297.29 983.585V972.66C1297.29 972.108 1296.84 971.66 1296.29 971.66H1284.45M1278.81 971.66H1272.35M1284.45 959.373H1258.7M1232.94 959.373H1258.7M1258.7 959.373V891.745M1291.1 885.101H1304.66C1309.58 885.101 1313.76 889.652 1313.76 893.474V936.982C1313.76 942.352 1308.39 946.63 1304.66 946.63H1291.1" stroke="#FF9900" stroke-width="4"/>
<path d="M440.74 832.694C425.573 817.528 460.067 773.601 479.95 793.484M440.74 832.694C463.951 855.906 496.504 810.037 479.95 793.484M440.74 832.694C441.664 815.308 479.95 812.719 479.95 793.484M464.136 870.24C464.136 824.278 570.878 823.174 571.596 870.24M464.136 870.24C464.136 924.155 572.429 924.802 571.596 870.24M464.136 870.24C499.093 840.462 536.177 908.341 571.596 870.24M512.503 829.55C497.06 813.858 495.556 778.189 518.699 771.061M556.522 838.613C574.926 819.654 552.176 769.809 527.577 769.809C524.287 769.809 521.333 770.25 518.699 771.061M518.699 771.061C540.524 793.484 523.415 818.217 534.513 828.717" stroke="#FF9900" stroke-width="4"/>
<path d="M793.268 906.441H772.291C771.786 906.441 771.36 906.064 771.298 905.563L762.416 833.024M793.268 906.441L788.124 837.466M793.268 906.441H815.538M788.124 837.466C781.819 828.192 767.85 814.319 762.416 833.024M788.124 837.466C801.498 813.805 815.908 827.607 821.442 837.466M762.416 833.024L756.813 787.266C756.74 786.67 757.205 786.145 757.806 786.145H852.451C853.055 786.145 853.522 786.676 853.443 787.275L847.978 828.932M815.538 906.441H836.931C837.434 906.441 837.858 906.069 837.923 905.571L847.978 828.932M815.538 906.441L821.442 837.466M821.442 837.466C826.352 827.413 837.809 817.709 847.978 828.932" stroke="#FF9900" stroke-width="4"/>
<path d="M540.268 521.441H519.291C518.786 521.441 518.36 521.064 518.298 520.563L509.416 448.024M540.268 521.441L535.124 452.466M540.268 521.441H562.538M535.124 452.466C528.819 443.192 514.85 429.319 509.416 448.024M535.124 452.466C548.498 428.805 562.908 442.607 568.442 452.466M509.416 448.024L503.813 402.266C503.74 401.67 504.205 401.145 504.806 401.145H599.451C600.055 401.145 600.522 401.676 600.443 402.275L594.978 443.932M562.538 521.441H583.931C584.434 521.441 584.858 521.069 584.923 520.571L594.978 443.932M562.538 521.441L568.442 452.466M568.442 452.466C573.352 442.413 584.809 432.709 594.978 443.932" stroke="#FF9900" stroke-width="4"/>
<path d="M1284.27 44.4413H1263.29C1262.79 44.4413 1262.36 44.0644 1262.3 43.5628L1253.42 -28.976M1284.27 44.4413L1279.12 -24.5335M1284.27 44.4413H1306.54M1279.12 -24.5335C1272.82 -33.8081 1258.85 -47.681 1253.42 -28.976M1279.12 -24.5335C1292.5 -48.1954 1306.91 -34.3926 1312.44 -24.5335M1253.42 -28.976L1247.81 -74.7339C1247.74 -75.33 1248.21 -75.8555 1248.81 -75.8555H1343.45C1344.06 -75.8555 1344.52 -75.3242 1344.44 -74.7254L1338.98 -33.0677M1306.54 44.4413H1327.93C1328.43 44.4413 1328.86 44.0691 1328.92 43.5714L1338.98 -33.0677M1306.54 44.4413L1312.44 -24.5335M1312.44 -24.5335C1317.35 -34.5875 1328.81 -44.2907 1338.98 -33.0677" stroke="#FF9900" stroke-width="4"/>
<path d="M1836.32 234V244.695C1836.32 245.247 1836.76 245.695 1837.32 245.695H1842.67M1875.89 234V244.695C1875.89 245.247 1875.44 245.695 1874.89 245.695H1869.62M1917.84 272.644V284.865C1917.84 285.417 1918.29 285.865 1918.84 285.865H1930.65C1931.21 285.865 1931.65 285.417 1931.65 284.865V272.644M1917.84 272.644V260.424C1917.84 259.872 1918.29 259.424 1918.84 259.424H1930.65C1931.21 259.424 1931.65 259.872 1931.65 260.424V272.644M1917.84 272.644H1931.65M1929.2 308.237L1920.89 316.543M1869.62 245.695V259.865C1869.62 260.417 1869.17 260.865 1868.62 260.865H1843.67C1843.12 260.865 1842.67 260.417 1842.67 259.865V257.644M1869.62 245.695H1842.67M1842.67 245.695V251.458M1842.67 251.458L1811.06 250.526C1807.17 250.526 1807.42 258.576 1811.06 258.576L1842.67 257.644M1842.67 251.458V257.644M1836.23 293.576C1836.23 299.509 1843.94 307.22 1847.76 307.22C1851.57 307.22 1862.33 307.22 1867.08 307.22C1871.82 307.22 1879.87 297.051 1879.87 293.576V277.034C1879.87 276.482 1879.43 276.034 1878.87 276.034H1837.23C1836.68 276.034 1836.23 276.482 1836.23 277.034V279.593M1836.23 293.576V279.593M1836.23 293.576C1827.76 293.576 1822.16 292.136 1822.16 286.627C1822.16 281.119 1827.59 279.593 1836.23 279.593M1913.09 312.22C1913.09 296.034 1936.74 296.966 1936.74 312.22C1936.74 327.475 1913.09 328.407 1913.09 312.22ZM1891.91 234H1828.35C1825.64 234 1825.13 233.661 1825.13 231.373V212.644C1825.13 209.932 1825.89 209.424 1828.35 209.424L1944.03 209.424C1946.91 209.424 1948.77 210.356 1948.77 212.644V333.407C1948.77 335.356 1947.25 336.712 1944.03 336.712H1828.35C1825.55 336.712 1825.13 336.119 1825.13 333.407V317.39C1825.13 315.187 1825.3 313.831 1828.35 313.831H1891.8C1891.87 313.831 1891.94 313.823 1892.01 313.807C1894.47 313.241 1899.16 311.379 1899.03 308.237V240.526C1899.03 236.627 1896.49 234 1891.91 234Z" stroke="#FF9900" stroke-width="5"/>
<path d="M669.315 226V236.695C669.315 237.247 669.763 237.695 670.315 237.695H675.671M708.891 226V236.695C708.891 237.247 708.444 237.695 707.891 237.695H702.62M750.841 264.644V276.865C750.841 277.417 751.288 277.865 751.841 277.865H763.654C764.206 277.865 764.654 277.417 764.654 276.865V264.644M750.841 264.644V252.424C750.841 251.872 751.288 251.424 751.841 251.424H763.654C764.206 251.424 764.654 251.872 764.654 252.424V264.644M750.841 264.644H764.654M762.196 300.237L753.891 308.543M702.62 237.695V251.865C702.62 252.417 702.172 252.865 701.62 252.865H676.671C676.119 252.865 675.671 252.417 675.671 251.865V249.644M702.62 237.695H675.671M675.671 237.695V243.458M675.671 243.458L644.061 242.526C640.169 242.526 640.423 250.576 644.061 250.576L675.671 249.644M675.671 243.458V249.644M669.23 285.576C669.23 291.509 676.942 299.22 680.756 299.22C684.569 299.22 695.332 299.22 700.078 299.22C704.824 299.22 712.874 289.051 712.874 285.576V269.034C712.874 268.482 712.427 268.034 711.874 268.034H670.23C669.678 268.034 669.23 268.482 669.23 269.034V271.593M669.23 285.576V271.593M669.23 285.576C660.756 285.576 655.163 284.136 655.163 278.627C655.163 273.119 660.586 271.593 669.23 271.593M746.095 304.22C746.095 288.034 769.739 288.966 769.739 304.22C769.739 319.475 746.095 320.407 746.095 304.22ZM724.908 226H661.349C658.637 226 658.129 225.661 658.129 223.373V204.644C658.129 201.932 658.891 201.424 661.349 201.424L777.027 201.424C779.908 201.424 781.773 202.356 781.773 204.644V325.407C781.773 327.356 780.247 328.712 777.027 328.712H661.349C658.552 328.712 658.129 328.119 658.129 325.407V309.39C658.129 307.187 658.298 305.831 661.349 305.831H724.799C724.872 305.831 724.942 305.823 725.013 305.807C727.473 305.241 732.161 303.379 732.027 300.237V232.526C732.027 228.627 729.491 226 724.908 226Z" stroke="#FF9900" stroke-width="5"/>
<path d="M604.315 956V966.695C604.315 967.247 604.763 967.695 605.315 967.695H610.671M643.891 956V966.695C643.891 967.247 643.444 967.695 642.891 967.695H637.62M685.841 994.644V1006.86C685.841 1007.42 686.288 1007.86 686.841 1007.86H698.654C699.206 1007.86 699.654 1007.42 699.654 1006.86V994.644M685.841 994.644V982.424C685.841 981.872 686.288 981.424 686.841 981.424H698.654C699.206 981.424 699.654 981.872 699.654 982.424V994.644M685.841 994.644H699.654M697.196 1030.24L688.891 1038.54M637.62 967.695V981.865C637.62 982.417 637.172 982.865 636.62 982.865H611.671C611.119 982.865 610.671 982.417 610.671 981.865V979.644M637.62 967.695H610.671M610.671 967.695V973.458M610.671 973.458L579.061 972.526C575.169 972.526 575.423 980.576 579.061 980.576L610.671 979.644M610.671 973.458V979.644M604.23 1015.58C604.23 1021.51 611.942 1029.22 615.756 1029.22C619.569 1029.22 630.332 1029.22 635.078 1029.22C639.824 1029.22 647.874 1019.05 647.874 1015.58V999.034C647.874 998.482 647.427 998.034 646.874 998.034H605.23C604.678 998.034 604.23 998.482 604.23 999.034V1001.59M604.23 1015.58V1001.59M604.23 1015.58C595.756 1015.58 590.163 1014.14 590.163 1008.63C590.163 1003.12 595.586 1001.59 604.23 1001.59M681.095 1034.22C681.095 1018.03 704.739 1018.97 704.739 1034.22C704.739 1049.47 681.095 1050.41 681.095 1034.22ZM659.908 956H596.349C593.637 956 593.129 955.661 593.129 953.373V934.644C593.129 931.932 593.891 931.424 596.349 931.424L712.027 931.424C714.908 931.424 716.773 932.356 716.773 934.644V1055.41C716.773 1057.36 715.247 1058.71 712.027 1058.71H596.349C593.552 1058.71 593.129 1058.12 593.129 1055.41V1039.39C593.129 1037.19 593.298 1035.83 596.349 1035.83H659.799C659.872 1035.83 659.942 1035.82 660.013 1035.81C662.473 1035.24 667.161 1033.38 667.027 1030.24V962.526C667.027 958.627 664.491 956 659.908 956Z" stroke="#FF9900" stroke-width="5"/>
<path d="M1016.21 975.896C1007.68 974.001 1000.04 968.419 997.881 963.396C997.712 963 997.335 962.724 996.904 962.724H992.877C987.017 962.724 986.411 933.426 992.877 933.426L997.028 933.426C997.396 933.426 997.732 933.224 997.915 932.905C1002.3 925.273 1011.79 919.304 1023.29 919.384C1035.08 919.465 1043.4 926.817 1046.74 932.885C1046.92 933.215 1047.26 933.426 1047.64 933.426H1053.39C1058.75 933.426 1058.54 962.724 1053.39 962.724H1047.62C1047.25 962.724 1046.92 962.923 1046.73 963.236C1042.74 969.986 1035.12 974.093 1028.44 975.737M1016.21 975.896C1018.24 976.345 1020.31 976.587 1022.38 976.565C1024.19 976.546 1026.27 976.272 1028.44 975.737M1016.21 975.896V989.8M1028.44 975.737V989.8M1036.22 1052.03L1033.63 990.758C1033.61 990.222 1033.17 989.8 1032.63 989.8H1012.63C1012.09 989.8 1011.65 990.226 1011.63 990.764L1009.45 1052.03C1009.45 1055.06 1010.77 1057.93 1013.28 1059.91C1017.68 1063.38 1026.77 1064.31 1032.08 1059C1034.1 1056.98 1036.22 1053.75 1036.22 1052.03ZM1003.18 948.176C1003.18 923.829 1041.47 921.606 1041.47 948.176C1041.47 972.12 1003.18 973.837 1003.18 948.176Z" stroke="#FF9900" stroke-width="5"/>
<path d="M504.214 250.896C495.679 249.001 488.037 243.419 485.881 238.396C485.712 238 485.335 237.724 484.904 237.724H480.877C475.017 237.724 474.411 208.426 480.877 208.426L485.028 208.426C485.396 208.426 485.732 208.224 485.915 207.905C490.297 200.273 499.788 194.304 511.286 194.384C523.079 194.465 531.4 201.817 534.741 207.885C534.922 208.215 535.265 208.426 535.641 208.426H541.392C546.747 208.426 546.545 237.724 541.392 237.724H535.616C535.253 237.724 534.92 237.923 534.734 238.236C530.735 244.986 523.116 249.093 516.438 250.737M504.214 250.896C506.238 251.345 508.313 251.587 510.377 251.565C512.193 251.546 514.266 251.272 516.438 250.737M504.214 250.896V264.8M516.438 250.737V264.8M524.217 327.033L521.631 265.758C521.609 265.222 521.168 264.8 520.632 264.8H500.633C500.094 264.8 499.653 265.226 499.633 265.764L497.445 327.033C497.445 330.064 498.769 332.928 501.284 334.913C505.683 338.384 514.774 339.305 520.075 334.004C522.096 331.983 524.217 328.75 524.217 327.033ZM491.182 223.176C491.182 198.829 529.471 196.606 529.471 223.176C529.471 247.12 491.182 248.837 491.182 223.176Z" stroke="#FF9900" stroke-width="5"/>
<path d="M1703.21 -2.10429C1694.68 -3.99915 1687.04 -9.58084 1684.88 -14.6042C1684.71 -14.9997 1684.33 -15.2756 1683.9 -15.2756H1679.88C1674.02 -15.2756 1673.41 -44.5735 1679.88 -44.5735L1684.03 -44.5736C1684.4 -44.5736 1684.73 -44.776 1684.92 -45.095C1689.3 -52.7273 1698.79 -58.6957 1710.29 -58.6164C1722.08 -58.535 1730.4 -51.1832 1733.74 -45.1151C1733.92 -44.7854 1734.26 -44.5735 1734.64 -44.5735H1740.39C1745.75 -44.5735 1745.54 -15.2756 1740.39 -15.2756H1734.62C1734.25 -15.2756 1733.92 -15.0771 1733.73 -14.7644C1729.74 -8.01373 1722.12 -3.90656 1715.44 -2.26296M1703.21 -2.10429C1705.24 -1.65489 1707.31 -1.41286 1709.38 -1.43485C1711.19 -1.4542 1713.27 -1.72817 1715.44 -2.26296M1703.21 -2.10429V11.7998M1715.44 -2.26296V11.7998M1723.22 74.0327L1720.63 12.7576C1720.61 12.2222 1720.17 11.7998 1719.63 11.7998H1699.63C1699.09 11.7998 1698.65 12.226 1698.63 12.7641L1696.45 74.0327C1696.45 77.0635 1697.77 79.9278 1700.28 81.9129C1704.68 85.384 1713.77 86.3051 1719.08 81.0036C1721.1 78.9831 1723.22 75.7502 1723.22 74.0327ZM1690.18 -29.8235C1690.18 -54.1712 1728.47 -56.3938 1728.47 -29.8235C1728.47 -5.88003 1690.18 -4.16256 1690.18 -29.8235Z" stroke="#FF9900" stroke-width="5"/>
<path d="M1858.05 878.539H1870.38M1850.45 878.539H1843.48M1833.56 878.539H1774.73M1870.38 878.539H1876.18C1876.73 878.539 1877.18 878.987 1877.18 879.539V895.949C1877.18 896.501 1876.73 896.949 1876.18 896.949H1767.64C1767.09 896.949 1766.64 896.501 1766.64 895.949V879.539C1766.64 878.987 1767.09 878.539 1767.64 878.539H1774.73M1870.38 878.539V839.638M1774.73 878.539V839.638M1861.25 772.563C1865.19 772.499 1869.1 768.881 1869.1 764.878C1869.1 753.833 1853.25 754.393 1853.25 764.878C1853.25 769.441 1857.26 772.627 1861.25 772.563ZM1861.25 772.563V777.406C1861.25 777.958 1860.81 778.406 1860.25 778.406H1823.11C1822.56 778.406 1822.11 778.853 1822.11 779.406V792.893M1817.47 803.859H1794.9M1832.36 803.859H1840.36M1844.44 803.859H1849.57M1794.9 803.859H1793.7C1787.45 803.859 1787.69 792.893 1793.7 792.893H1850.61C1857.17 792.893 1857.01 803.859 1850.61 803.859H1849.57M1794.9 803.859C1794.9 814.185 1798.26 821.389 1806.5 825.071M1806.5 825.071H1767.64C1767.09 825.071 1766.64 825.518 1766.64 826.071V838.638C1766.64 839.191 1767.09 839.638 1767.64 839.638H1876.18C1876.73 839.638 1877.18 839.191 1877.18 838.638V826.071C1877.18 825.518 1876.73 825.071 1876.18 825.071H1837.24M1806.5 825.071H1837.24M1849.57 803.859C1849.57 816.026 1844.44 821.228 1837.24 825.071M1817.87 858.608C1817.87 853.005 1826.75 853.085 1826.75 858.608C1826.75 864.452 1817.87 864.211 1817.87 858.608ZM1791.5 868.294H1853.21C1853.76 868.294 1854.21 867.846 1854.21 867.294V849.843C1854.21 849.291 1853.76 848.843 1853.21 848.843H1791.5C1790.94 848.843 1790.5 849.291 1790.5 849.843V867.294C1790.5 867.846 1790.94 868.294 1791.5 868.294Z" stroke="#FF9900" stroke-width="5"/>
<path d="M888.051 483.539H900.378M880.447 483.539H873.484M863.558 483.539H804.727M900.378 483.539H906.182C906.734 483.539 907.182 483.987 907.182 484.539V500.949C907.182 501.501 906.734 501.949 906.182 501.949H797.643C797.09 501.949 796.643 501.501 796.643 500.949V484.539C796.643 483.987 797.09 483.539 797.643 483.539H804.727M900.378 483.539V444.638M804.727 483.539V444.638M891.253 377.563C895.188 377.499 899.097 373.881 899.097 369.878C899.097 358.833 883.249 359.393 883.249 369.878C883.249 374.441 887.264 377.627 891.253 377.563ZM891.253 377.563V382.406C891.253 382.958 890.805 383.406 890.253 383.406H853.112C852.56 383.406 852.112 383.853 852.112 384.406V397.893M847.47 408.859H824.898M862.358 408.859H870.362M874.444 408.859H879.567M824.898 408.859H823.697C817.454 408.859 817.694 397.893 823.697 397.893H880.607C887.171 397.893 887.011 408.859 880.607 408.859H879.567M824.898 408.859C824.898 419.185 828.259 426.389 836.504 430.071M836.504 430.071H797.643C797.09 430.071 796.643 430.518 796.643 431.071V443.638C796.643 444.191 797.09 444.638 797.643 444.638H906.182C906.734 444.638 907.182 444.191 907.182 443.638V431.071C907.182 430.518 906.734 430.071 906.182 430.071H867.24M836.504 430.071H867.24M879.567 408.859C879.567 421.026 874.444 426.228 867.24 430.071M847.87 463.608C847.87 458.005 856.755 458.085 856.755 463.608C856.755 469.452 847.87 469.211 847.87 463.608ZM821.495 473.294H883.209C883.762 473.294 884.209 472.846 884.209 472.294V454.843C884.209 454.291 883.762 453.843 883.209 453.843H821.495C820.943 453.843 820.495 454.291 820.495 454.843V472.294C820.495 472.846 820.943 473.294 821.495 473.294Z" stroke="#FF9900" stroke-width="5"/>
</g>
<defs>
<clipPath id="clip0_629_6869">
<rect width="1920" height="960" fill="white"/>
</clipPath>
</defs>
</svg>
