<svg width="1920" height="960" viewBox="0 0 1920 960" fill="none" xmlns="http://www.w3.org/2000/svg">
<rect width="1920" height="960" fill="#474747"/>
<path d="M99.5006 57.8378C99.5006 53.6101 118.054 53.7224 118.054 57.8378M99.5006 57.8378C99.5006 62.628 118.054 62.538 118.054 57.8378M99.5006 57.8378L85.49 62.3807C83.6285 62.9962 81.3523 64.7346 81.4789 66.6985M118.054 57.8378L132.626 62.3807C134.112 62.7062 136.132 64.6299 136.349 66.6985M117.064 62.8979L123.766 69.8919M81.4789 66.6985C81.5419 67.6765 82.2008 68.7104 83.8034 69.6894C96.6891 77.5606 119.92 79.4496 134.381 70.2068C135.153 69.7133 135.668 69.1625 135.98 68.5876C136.314 67.9718 136.415 67.3284 136.349 66.6985M81.4789 66.6985L74.6277 112.306M127.589 77.1783L128.443 80.8664M129.298 85.2068L135.98 124.787M142.86 112.306C159.739 116.466 155.451 140.732 110.024 140.732C68.3977 140.732 55.8265 120.537 74.6277 112.306M74.6277 112.306L73.0984 123.168C73.0984 138.584 143.312 138.814 144.397 123.528C144.414 123.292 144.393 123.05 144.36 122.816L136.349 66.6985" stroke="#FF9900" stroke-width="4"/>
<path d="M206.607 277.083H209.89C211.121 277.083 211.962 275.842 211.507 274.699V274.699C211.42 274.479 211.321 274.297 211.126 274.163C204.532 269.647 133.047 269.8 127.257 274.237C127.137 274.329 127.071 274.432 126.996 274.564V274.564C126.358 275.688 127.17 277.083 128.463 277.083H131.738M206.607 277.083L200.412 333.69M206.607 277.083H131.738M200.412 333.69C200.412 337.485 138.232 336.384 138.232 333.69M200.412 333.69C183.923 350.179 154.054 349.511 138.232 333.69M138.232 333.69L131.738 277.083M193.872 284.752L194.24 281.758M193.319 288.874L187.447 330.489M182.541 339.056L176.945 342.418" stroke="#FF9900" stroke-width="4"/>
<path d="M327.529 186.444C349.085 201.437 382.731 170.807 373.128 154.778M327.529 186.444C311.362 165.695 358.02 135.203 373.128 154.778M327.529 186.444L305.582 164.604M373.128 154.778L362.353 129.031M305.582 164.604L299.549 158.6C299.288 158.341 299.048 158.043 298.857 157.728C280.682 127.819 340.067 90.82 358.738 120.551C358.871 120.762 358.99 120.995 359.086 121.225L362.353 129.031M305.582 164.604C275.505 153.995 294.274 119.036 312.03 109.318C330.147 99.4018 364.054 96.5825 362.353 129.031M346.713 116.02L356.431 137.299M358.274 141.26L359.725 144.53M361.037 152.153L360.001 163.622M344.732 182.115C339.735 174.515 357.529 163.015 362.695 169.517C368.568 176.91 350.032 190.175 344.732 182.115Z" stroke="#FF9900" stroke-width="4"/>
<path d="M1116.5 661.838C1116.5 657.61 1135.05 657.722 1135.05 661.838M1116.5 661.838C1116.5 666.628 1135.05 666.538 1135.05 661.838M1116.5 661.838L1102.49 666.381C1100.63 666.996 1098.35 668.735 1098.48 670.699M1135.05 661.838L1149.63 666.381C1151.11 666.706 1153.13 668.63 1153.35 670.699M1134.06 666.898L1140.77 673.892M1098.48 670.699C1098.54 671.677 1099.2 672.71 1100.8 673.689C1113.69 681.561 1136.92 683.45 1151.38 674.207C1152.15 673.713 1152.67 673.162 1152.98 672.588C1153.31 671.972 1153.42 671.328 1153.35 670.699M1098.48 670.699L1091.63 716.306M1144.59 681.178L1145.44 684.866M1146.3 689.207L1152.98 728.787M1159.86 716.306C1176.74 720.466 1172.45 744.732 1127.02 744.732C1085.4 744.732 1072.83 724.537 1091.63 716.306M1091.63 716.306L1090.1 727.168C1090.1 742.584 1160.31 742.814 1161.4 727.528C1161.41 727.292 1161.39 727.05 1161.36 726.816L1153.35 670.699" stroke="#FF9900" stroke-width="3"/>
<path d="M1348.15 515.983L1348.14 519.266C1348.14 520.497 1349.38 521.341 1350.52 520.888V520.888C1350.74 520.801 1350.93 520.703 1351.06 520.508C1355.59 513.923 1355.59 442.439 1351.16 436.639C1351.07 436.519 1350.97 436.453 1350.83 436.378V436.378C1349.71 435.737 1348.31 436.546 1348.31 437.839L1348.31 441.114M1348.15 515.983L1291.56 509.671M1348.15 515.983L1348.31 441.114M1291.56 509.671C1287.76 509.663 1288.99 447.486 1291.68 447.491M1291.56 509.671C1275.1 493.148 1275.83 463.28 1291.68 447.491M1291.68 447.491L1348.31 441.114M1340.51 503.232L1343.5 503.607M1336.39 502.671L1294.78 496.712M1286.23 491.789L1282.88 486.186" stroke="#FF9900" stroke-width="3"/>
<path d="M1352.53 711.444C1374.08 726.437 1407.73 695.807 1398.13 679.778M1352.53 711.444C1336.36 690.695 1383.02 660.203 1398.13 679.778M1352.53 711.444L1330.58 689.604M1398.13 679.778L1387.35 654.031M1330.58 689.604L1324.55 683.6C1324.29 683.341 1324.05 683.043 1323.86 682.728C1305.68 652.819 1365.07 615.82 1383.74 645.551C1383.87 645.762 1383.99 645.995 1384.09 646.225L1387.35 654.031M1330.58 689.604C1300.5 678.995 1319.27 644.036 1337.03 634.318C1355.15 624.402 1389.05 621.582 1387.35 654.031M1371.71 641.02L1381.43 662.299M1383.27 666.26L1384.72 669.53M1386.04 677.153L1385 688.622M1369.73 707.115C1364.73 699.515 1382.53 688.015 1387.7 694.517C1393.57 701.91 1375.03 715.175 1369.73 707.115Z" stroke="#FF9900" stroke-width="3"/>
<path d="M1829.5 334.838C1829.5 330.61 1848.05 330.722 1848.05 334.838M1829.5 334.838C1829.5 339.628 1848.05 339.538 1848.05 334.838M1829.5 334.838L1815.49 339.381C1813.63 339.996 1811.35 341.735 1811.48 343.699M1848.05 334.838L1862.63 339.381C1864.11 339.706 1866.13 341.63 1866.35 343.699M1847.06 339.898L1853.77 346.892M1811.48 343.699C1811.54 344.677 1812.2 345.71 1813.8 346.689C1826.69 354.561 1849.92 356.45 1864.38 347.207C1865.15 346.713 1865.67 346.162 1865.98 345.588C1866.31 344.972 1866.42 344.328 1866.35 343.699M1811.48 343.699L1804.63 389.306M1857.59 354.178L1858.44 357.866M1859.3 362.207L1865.98 401.787M1872.86 389.306C1889.74 393.466 1885.45 417.732 1840.02 417.732C1798.4 417.732 1785.83 397.537 1804.63 389.306M1804.63 389.306L1803.1 400.168C1803.1 415.584 1873.31 415.814 1874.4 400.528C1874.41 400.292 1874.39 400.05 1874.36 399.816L1866.35 343.699" stroke="#FF9900" stroke-width="4"/>
<path d="M1664.61 674.083H1667.89C1669.12 674.083 1669.96 672.842 1669.51 671.699V671.699C1669.42 671.479 1669.32 671.297 1669.13 671.163C1662.53 666.647 1591.05 666.8 1585.26 671.237C1585.14 671.329 1585.07 671.432 1585 671.564V671.564C1584.36 672.688 1585.17 674.083 1586.46 674.083H1589.74M1664.61 674.083L1658.41 730.69M1664.61 674.083H1589.74M1658.41 730.69C1658.41 734.485 1596.23 733.384 1596.23 730.69M1658.41 730.69C1641.92 747.179 1612.05 746.511 1596.23 730.69M1596.23 730.69L1589.74 674.083M1651.87 681.752L1652.24 678.758M1651.32 685.874L1645.45 727.489M1640.54 736.056L1634.95 739.418" stroke="#FF9900" stroke-width="4"/>
<path d="M1848.53 791.444C1870.08 806.437 1903.73 775.807 1894.13 759.778M1848.53 791.444C1832.36 770.695 1879.02 740.203 1894.13 759.778M1848.53 791.444L1826.58 769.604M1894.13 759.778L1883.35 734.031M1826.58 769.604L1820.55 763.6C1820.29 763.341 1820.05 763.043 1819.86 762.728C1801.68 732.819 1861.07 695.82 1879.74 725.551C1879.87 725.762 1879.99 725.995 1880.09 726.225L1883.35 734.031M1826.58 769.604C1796.5 758.995 1815.27 724.036 1833.03 714.318C1851.15 704.402 1885.05 701.582 1883.35 734.031M1867.71 721.02L1877.43 742.299M1879.27 746.26L1880.72 749.53M1882.04 757.153L1881 768.622M1865.73 787.115C1860.73 779.515 1878.53 768.015 1883.7 774.517C1889.57 781.91 1871.03 795.175 1865.73 787.115Z" stroke="#FF9900" stroke-width="4"/>
<path d="M1543.5 527.838C1543.5 523.61 1562.05 523.722 1562.05 527.838M1543.5 527.838C1543.5 532.628 1562.05 532.538 1562.05 527.838M1543.5 527.838L1529.49 532.381C1527.63 532.996 1525.35 534.735 1525.48 536.699M1562.05 527.838L1576.63 532.381C1578.11 532.706 1580.13 534.63 1580.35 536.699M1561.06 532.898L1567.77 539.892M1525.48 536.699C1525.54 537.677 1526.2 538.71 1527.8 539.689C1540.69 547.561 1563.92 549.45 1578.38 540.207C1579.15 539.713 1579.67 539.162 1579.98 538.588C1580.31 537.972 1580.42 537.328 1580.35 536.699M1525.48 536.699L1518.63 582.306M1571.59 547.178L1572.44 550.866M1573.3 555.207L1579.98 594.787M1586.86 582.306C1603.74 586.466 1599.45 610.732 1554.02 610.732C1512.4 610.732 1499.83 590.537 1518.63 582.306M1518.63 582.306L1517.1 593.168C1517.1 608.584 1587.31 608.814 1588.4 593.528C1588.41 593.292 1588.39 593.05 1588.36 592.816L1580.35 536.699" stroke="#FF9900" stroke-width="4"/>
<path d="M1520.34 838.178L1523.46 839.191C1524.63 839.571 1525.82 838.649 1525.74 837.422V837.422C1525.72 837.186 1525.69 836.982 1525.54 836.794C1520.66 830.464 1452.62 808.554 1445.74 810.988C1445.6 811.038 1445.5 811.116 1445.39 811.218V811.218C1444.44 812.091 1444.78 813.668 1446.01 814.067L1449.13 815.077M1520.34 838.178L1496.98 890.112M1520.34 838.178L1449.13 815.077M1496.98 890.112C1495.81 893.722 1437.01 873.489 1437.84 870.926M1496.98 890.112C1476.21 900.709 1448 890.857 1437.84 870.926M1437.84 870.926L1449.13 815.077M1505.86 841.543L1507.14 838.809M1504.06 845.294L1485.64 883.066M1478.33 889.702L1471.97 891.173" stroke="#FF9900" stroke-width="4"/>
<path d="M1685.41 539.603C1676.54 564.315 1714.86 588.844 1727.84 575.405M1685.41 539.603C1701.25 518.599 1742.82 555.729 1727.84 575.405M1685.41 539.603L1700.8 512.734M1727.84 575.405L1749.9 558.309M1700.8 512.734L1705.03 505.348C1705.21 505.029 1705.44 504.719 1705.69 504.453C1729.85 479.129 1781.01 526.857 1757.15 552.614C1756.98 552.798 1756.79 552.972 1756.59 553.126L1749.9 558.309M1700.8 512.734C1703.23 480.934 1741.86 489.972 1755.86 504.592C1770.14 519.508 1781.68 551.518 1749.9 558.309M1758.4 539.824L1740.38 554.739M1737.04 557.548L1734.25 559.799M1727.23 563.048L1715.89 565.028M1694.06 555.09C1700.1 548.289 1715.83 562.483 1710.9 569.162C1705.29 576.754 1687.66 562.303 1694.06 555.09Z" stroke="#FF9900" stroke-width="4"/>
<path d="M1657.5 239.838C1657.5 235.61 1676.05 235.722 1676.05 239.838M1657.5 239.838C1657.5 244.628 1676.05 244.538 1676.05 239.838M1657.5 239.838L1643.49 244.381C1641.63 244.996 1639.35 246.735 1639.48 248.699M1676.05 239.838L1690.63 244.381C1692.11 244.706 1694.13 246.63 1694.35 248.699M1675.06 244.898L1681.77 251.892M1639.48 248.699C1639.54 249.677 1640.2 250.71 1641.8 251.689C1654.69 259.561 1677.92 261.45 1692.38 252.207C1693.15 251.713 1693.67 251.162 1693.98 250.588C1694.31 249.972 1694.42 249.328 1694.35 248.699M1639.48 248.699L1632.63 294.306M1685.59 259.178L1686.44 262.866M1687.3 267.207L1693.98 306.787M1700.86 294.306C1717.74 298.466 1713.45 322.732 1668.02 322.732C1626.4 322.732 1613.83 302.537 1632.63 294.306M1632.63 294.306L1631.1 305.168C1631.1 320.584 1701.31 320.814 1702.4 305.528C1702.41 305.292 1702.39 305.05 1702.36 304.816L1694.35 248.699" stroke="#FF9900" stroke-width="4"/>
<path d="M1545.61 122.083H1548.89C1550.12 122.083 1550.96 120.842 1550.51 119.699V119.699C1550.42 119.479 1550.32 119.297 1550.13 119.163C1543.53 114.647 1472.05 114.8 1466.26 119.237C1466.14 119.329 1466.07 119.432 1466 119.564V119.564C1465.36 120.688 1466.17 122.083 1467.46 122.083H1470.74M1545.61 122.083L1539.41 178.69M1545.61 122.083H1470.74M1539.41 178.69C1539.41 182.485 1477.23 181.384 1477.23 178.69M1539.41 178.69C1522.92 195.179 1493.05 194.511 1477.23 178.69M1477.23 178.69L1470.74 122.083M1532.87 129.752L1533.24 126.758M1532.32 133.874L1526.45 175.489M1521.54 184.056L1515.95 187.418" stroke="#FF9900" stroke-width="4"/>
<path d="M1729.53 134.444C1751.08 149.437 1784.73 118.807 1775.13 102.778M1729.53 134.444C1713.36 113.695 1760.02 83.2033 1775.13 102.778M1729.53 134.444L1707.58 112.604M1775.13 102.778L1764.35 77.0313M1707.58 112.604L1701.55 106.6C1701.29 106.341 1701.05 106.043 1700.86 105.728C1682.68 75.8194 1742.07 38.82 1760.74 68.5506C1760.87 68.7623 1760.99 68.9946 1761.09 69.2253L1764.35 77.0313M1707.58 112.604C1677.5 101.995 1696.27 67.0364 1714.03 57.3179C1732.15 47.4018 1766.05 44.5825 1764.35 77.0313M1748.71 64.0195L1758.43 85.2989M1760.27 89.26L1761.72 92.5302M1763.04 100.153L1762 111.622M1746.73 130.115C1741.73 122.515 1759.53 111.015 1764.7 117.517C1770.57 124.91 1752.03 138.175 1746.73 130.115Z" stroke="#FF9900" stroke-width="4"/>
<path d="M453.501 562.838C453.501 558.61 472.054 558.722 472.054 562.838M453.501 562.838C453.501 567.628 472.054 567.538 472.054 562.838M453.501 562.838L439.49 567.381C437.628 567.996 435.352 569.735 435.479 571.699M472.054 562.838L486.626 567.381C488.112 567.706 490.132 569.63 490.349 571.699M471.064 567.898L477.766 574.892M435.479 571.699C435.542 572.677 436.201 573.71 437.803 574.689C450.689 582.561 473.92 584.45 488.381 575.207C489.153 574.713 489.668 574.162 489.98 573.588C490.314 572.972 490.415 572.328 490.349 571.699M435.479 571.699L428.628 617.306M481.589 582.178L482.443 585.866M483.298 590.207L489.98 629.787M496.86 617.306C513.739 621.466 509.451 645.732 464.024 645.732C422.398 645.732 409.827 625.537 428.628 617.306M428.628 617.306L427.098 628.168C427.098 643.584 497.312 643.814 498.397 628.528C498.414 628.292 498.393 628.05 498.36 627.816L490.349 571.699" stroke="#FF9900" stroke-width="4"/>
<path d="M631.7 443.349H634.983C636.213 443.349 637.055 442.107 636.599 440.964V440.964C636.512 440.745 636.413 440.562 636.218 440.429C629.624 435.912 558.14 436.065 552.349 440.502C552.229 440.595 552.163 440.698 552.089 440.83V440.83C551.45 441.954 552.262 443.349 553.555 443.349H556.83M631.7 443.349L625.505 499.956M631.7 443.349H556.83M625.505 499.956C625.505 503.751 563.325 502.65 563.325 499.956M625.505 499.956C609.015 516.445 579.146 515.777 563.325 499.956M563.325 499.956L556.83 443.349M618.964 451.018L619.333 448.024M618.412 455.14L612.539 496.755M607.634 505.322L602.037 508.684" stroke="#FF9900" stroke-width="4"/>
<path d="M800.272 431.839C825.427 439.367 847.852 399.778 833.732 387.54M800.272 431.839C778.444 417.16 813.277 373.647 833.732 387.54M800.272 431.839L772.612 417.925M833.732 387.54L815.47 366.432M772.612 417.925L765.008 414.101C764.679 413.936 764.358 413.727 764.079 413.488C737.488 390.732 782.386 337.069 809.393 359.5C809.585 359.66 809.77 359.844 809.934 360.033L815.47 366.432M772.612 417.925C740.727 417.218 747.667 378.151 761.51 363.383C775.634 348.315 806.975 335.069 815.47 366.432M796.554 358.943L812.42 376.134M815.405 379.323L817.803 381.979M821.426 388.813L824.015 400.033M815.27 422.364C808.153 416.7 821.477 400.227 828.412 404.796C836.296 409.99 822.818 428.371 815.27 422.364Z" stroke="#FF9900" stroke-width="4"/>
<path d="M1228.5 57.8378C1228.5 53.6101 1247.05 53.7224 1247.05 57.8378M1228.5 57.8378C1228.5 62.628 1247.05 62.538 1247.05 57.8378M1228.5 57.8378L1214.49 62.3807C1212.63 62.9962 1210.35 64.7346 1210.48 66.6985M1247.05 57.8378L1261.63 62.3807C1263.11 62.7062 1265.13 64.6299 1265.35 66.6985M1246.06 62.8979L1252.77 69.8919M1210.48 66.6985C1210.54 67.6765 1211.2 68.7104 1212.8 69.6894C1225.69 77.5606 1248.92 79.4496 1263.38 70.2068C1264.15 69.7133 1264.67 69.1625 1264.98 68.5876C1265.31 67.9718 1265.42 67.3284 1265.35 66.6985M1210.48 66.6985L1203.63 112.306M1256.59 77.1783L1257.44 80.8664M1258.3 85.2068L1264.98 124.787M1271.86 112.306C1288.74 116.466 1284.45 140.732 1239.02 140.732C1197.4 140.732 1184.83 120.537 1203.63 112.306M1203.63 112.306L1202.1 123.168C1202.1 138.584 1272.31 138.814 1273.4 123.528C1273.41 123.292 1273.39 123.05 1273.36 122.816L1265.35 66.6985" stroke="#FF9900" stroke-width="4"/>
<path d="M1365.61 252.083H1368.89C1370.12 252.083 1370.96 250.842 1370.51 249.699V249.699C1370.42 249.479 1370.32 249.297 1370.13 249.163C1363.53 244.647 1292.05 244.8 1286.26 249.237C1286.14 249.329 1286.07 249.432 1286 249.564V249.564C1285.36 250.688 1286.17 252.083 1287.46 252.083H1290.74M1365.61 252.083L1359.41 308.69M1365.61 252.083H1290.74M1359.41 308.69C1359.41 312.485 1297.23 311.384 1297.23 308.69M1359.41 308.69C1342.92 325.179 1313.05 324.511 1297.23 308.69M1297.23 308.69L1290.74 252.083M1352.87 259.752L1353.24 256.758M1352.32 263.874L1346.45 305.489M1341.54 314.056L1335.95 317.418" stroke="#FF9900" stroke-width="4"/>
<path d="M1480.53 454.444C1502.08 469.437 1535.73 438.807 1526.13 422.778M1480.53 454.444C1464.36 433.695 1511.02 403.203 1526.13 422.778M1480.53 454.444L1458.58 432.604M1526.13 422.778L1515.35 397.031M1458.58 432.604L1452.55 426.6C1452.29 426.341 1452.05 426.043 1451.86 425.728C1433.68 395.819 1493.07 358.82 1511.74 388.551C1511.87 388.762 1511.99 388.995 1512.09 389.225L1515.35 397.031M1458.58 432.604C1428.5 421.995 1447.27 387.036 1465.03 377.318C1483.15 367.402 1517.05 364.582 1515.35 397.031M1499.71 384.02L1509.43 405.299M1511.27 409.26L1512.72 412.53M1514.04 420.153L1513 431.622M1497.73 450.115C1492.73 442.515 1510.53 431.015 1515.7 437.517C1521.57 444.91 1503.03 458.175 1497.73 450.115Z" stroke="#FF9900" stroke-width="4"/>
<path d="M794.501 817.838C794.501 813.61 813.054 813.722 813.054 817.838M794.501 817.838C794.501 822.628 813.054 822.538 813.054 817.838M794.501 817.838L780.49 822.381C778.628 822.996 776.352 824.735 776.479 826.699M813.054 817.838L827.626 822.381C829.112 822.706 831.132 824.63 831.349 826.699M812.064 822.898L818.766 829.892M776.479 826.699C776.542 827.677 777.201 828.71 778.803 829.689C791.689 837.561 814.92 839.45 829.381 830.207C830.153 829.713 830.668 829.162 830.98 828.588C831.314 827.972 831.415 827.328 831.349 826.699M776.479 826.699L769.628 872.306M822.589 837.178L823.443 840.866M824.298 845.207L830.98 884.787M837.86 872.306C854.739 876.466 850.451 900.732 805.024 900.732C763.398 900.732 750.827 880.537 769.628 872.306M769.628 872.306L768.098 883.168C768.098 898.584 838.312 898.814 839.397 883.528C839.414 883.292 839.393 883.05 839.36 882.816L831.349 826.699" stroke="#FF9900" stroke-width="4"/>
<path d="M931.901 805.983L928.737 806.856C927.551 807.184 927.07 808.605 927.813 809.585V809.585C927.956 809.774 928.1 809.923 928.323 810C935.882 812.598 1004.75 793.424 1009.15 787.605C1009.24 787.485 1009.27 787.367 1009.31 787.221V787.221C1009.63 785.967 1008.47 784.839 1007.23 785.183L1004.07 786.054M931.901 805.983L922.806 749.769M931.901 805.983L1004.07 786.054M922.806 749.769C921.796 746.11 982.026 730.621 982.743 733.218M922.806 749.769C934.311 729.485 963.281 722.179 982.743 733.218M982.743 733.218L1004.07 786.054M942.136 795.2L942.578 798.184M941.572 791.08L936.156 749.403M938.604 739.84L943.103 735.109" stroke="#FF9900" stroke-width="4"/>
<path d="M1211.53 895.444C1233.08 910.437 1266.73 879.807 1257.13 863.778M1211.53 895.444C1195.36 874.695 1242.02 844.203 1257.13 863.778M1211.53 895.444L1189.58 873.604M1257.13 863.778L1246.35 838.031M1189.58 873.604L1183.55 867.6C1183.29 867.341 1183.05 867.043 1182.86 866.728C1164.68 836.819 1224.07 799.82 1242.74 829.551C1242.87 829.762 1242.99 829.995 1243.09 830.225L1246.35 838.031M1189.58 873.604C1159.5 862.995 1178.27 828.036 1196.03 818.318C1214.15 808.402 1248.05 805.582 1246.35 838.031M1230.71 825.02L1240.43 846.299M1242.27 850.26L1243.72 853.53M1245.04 861.153L1244 872.622M1228.73 891.115C1223.73 883.515 1241.53 872.015 1246.7 878.517C1252.57 885.91 1234.03 899.175 1228.73 891.115Z" stroke="#FF9900" stroke-width="4"/>
<path d="M116.501 473.838C116.501 469.61 135.054 469.722 135.054 473.838M116.501 473.838C116.501 478.628 135.054 478.538 135.054 473.838M116.501 473.838L102.49 478.381C100.628 478.996 98.3523 480.735 98.4789 482.699M135.054 473.838L149.626 478.381C151.112 478.706 153.132 480.63 153.349 482.699M134.064 478.898L140.766 485.892M98.4789 482.699C98.5419 483.677 99.2008 484.71 100.803 485.689C113.689 493.561 136.92 495.45 151.381 486.207C152.153 485.713 152.668 485.162 152.98 484.588C153.314 483.972 153.415 483.328 153.349 482.699M98.4789 482.699L91.6277 528.306M144.589 493.178L145.443 496.866M146.298 501.207L152.98 540.787M159.86 528.306C176.739 532.466 172.451 556.732 127.024 556.732C85.3977 556.732 72.8265 536.537 91.6277 528.306M91.6277 528.306L90.0984 539.168C90.0984 554.584 160.312 554.814 161.397 539.528C161.414 539.292 161.393 539.05 161.36 538.816L153.349 482.699" stroke="#FF9900" stroke-width="4"/>
<path d="M161.607 770.083H164.89C166.121 770.083 166.962 768.842 166.507 767.699V767.699C166.42 767.479 166.321 767.297 166.126 767.163C159.532 762.647 88.0474 762.8 82.2572 767.237C82.137 767.329 82.071 767.432 81.9962 767.564V767.564C81.3579 768.688 82.1699 770.083 83.4627 770.083H86.7379M161.607 770.083L155.412 826.69M161.607 770.083H86.7379M155.412 826.69C155.412 830.485 93.2322 829.384 93.2322 826.69M155.412 826.69C138.923 843.179 109.054 842.511 93.2322 826.69M93.2322 826.69L86.7379 770.083M148.872 777.752L149.24 774.758M148.319 781.874L142.447 823.489M137.541 832.056L131.945 835.418" stroke="#FF9900" stroke-width="4"/>
<path d="M261.529 701.444C283.085 716.437 316.731 685.807 307.128 669.778M261.529 701.444C245.362 680.695 292.02 650.203 307.128 669.778M261.529 701.444L239.582 679.604M307.128 669.778L296.353 644.031M239.582 679.604L233.549 673.6C233.288 673.341 233.048 673.043 232.857 672.728C214.682 642.819 274.067 605.82 292.738 635.551C292.871 635.762 292.99 635.995 293.086 636.225L296.353 644.031M239.582 679.604C209.505 668.995 228.274 634.036 246.03 624.318C264.147 614.402 298.054 611.582 296.353 644.031M280.713 631.02L290.431 652.299M292.274 656.26L293.725 659.53M295.037 667.153L294.001 678.622M278.732 697.115C273.735 689.515 291.529 678.015 296.695 684.517C302.568 691.91 284.032 705.175 278.732 697.115Z" stroke="#FF9900" stroke-width="4"/>
<path d="M508.501 192.838C508.501 188.61 527.054 188.722 527.054 192.838M508.501 192.838C508.501 197.628 527.054 197.538 527.054 192.838M508.501 192.838L494.49 197.381C492.628 197.996 490.352 199.735 490.479 201.699M527.054 192.838L541.626 197.381C543.112 197.706 545.132 199.63 545.349 201.699M526.064 197.898L532.766 204.892M490.479 201.699C490.542 202.677 491.201 203.71 492.803 204.689C505.689 212.561 528.92 214.45 543.381 205.207C544.153 204.713 544.668 204.162 544.98 203.588C545.314 202.972 545.415 202.328 545.349 201.699M490.479 201.699L483.628 247.306M536.589 212.178L537.443 215.866M538.298 220.207L544.98 259.787M551.86 247.306C568.739 251.466 564.451 275.732 519.024 275.732C477.398 275.732 464.827 255.537 483.628 247.306M483.628 247.306L482.098 258.168C482.098 273.584 552.312 273.814 553.397 258.528C553.414 258.292 553.393 258.05 553.36 257.816L545.349 201.699" stroke="#FF9900" stroke-width="4"/>
<path d="M997.607 106.083H1000.89C1002.12 106.083 1002.96 104.842 1002.51 103.699V103.699C1002.42 103.479 1002.32 103.297 1002.13 103.163C995.532 98.6466 924.047 98.7998 918.257 103.237C918.137 103.329 918.071 103.432 917.996 103.564V103.564C917.358 104.688 918.17 106.083 919.463 106.083H922.738M997.607 106.083L991.412 162.69M997.607 106.083H922.738M991.412 162.69C991.412 166.485 929.232 165.384 929.232 162.69M991.412 162.69C974.923 179.179 945.054 178.511 929.232 162.69M929.232 162.69L922.738 106.083M984.872 113.752L985.24 110.758M984.319 117.874L978.447 159.489M973.541 168.056L967.945 171.418" stroke="#FF9900" stroke-width="4"/>
<path d="M852.85 616.956C863.566 640.926 908.197 632.074 908.251 613.389M852.85 616.956C849.722 590.838 905.423 588.824 908.251 613.389M852.85 616.956L845.335 586.919M908.251 613.389L912.321 585.776M845.335 586.919L843.27 578.662C843.181 578.305 843.129 577.926 843.127 577.558C843.01 542.56 912.971 541.546 913.606 576.648C913.61 576.898 913.592 577.157 913.555 577.405L912.321 585.776M845.335 586.919C825.059 562.302 859.186 542.059 879.409 542.906C900.044 543.771 930.536 558.868 912.321 585.776M905.648 566.557L902.981 589.798M902.513 594.141L902.066 597.691M899.253 604.897L892.443 614.182M869.818 622.133C869.463 613.044 890.64 612.386 891.706 620.622C892.917 629.986 870.194 631.772 869.818 622.133Z" stroke="#FF9900" stroke-width="4"/>
<path d="M346.501 843.838C346.501 839.61 365.054 839.722 365.054 843.838M346.501 843.838C346.501 848.628 365.054 848.538 365.054 843.838M346.501 843.838L332.49 848.381C330.628 848.996 328.352 850.735 328.479 852.699M365.054 843.838L379.626 848.381C381.112 848.706 383.132 850.63 383.349 852.699M364.064 848.898L370.766 855.892M328.479 852.699C328.542 853.677 329.201 854.71 330.803 855.689C343.689 863.561 366.92 865.45 381.381 856.207C382.153 855.713 382.668 855.162 382.98 854.588C383.314 853.972 383.415 853.328 383.349 852.699M328.479 852.699L321.628 898.306M374.589 863.178L375.443 866.866M376.298 871.207L382.98 910.787M389.86 898.306C406.739 902.466 402.451 926.732 357.024 926.732C315.398 926.732 302.827 906.537 321.628 898.306M321.628 898.306L320.098 909.168C320.098 924.584 390.312 924.814 391.397 909.528C391.414 909.292 391.393 909.05 391.36 908.816L383.349 852.699" stroke="#FF9900" stroke-width="4"/>
<path d="M561.041 768.241H564.324C565.555 768.241 566.396 767 565.941 765.857V765.857C565.854 765.637 565.755 765.455 565.56 765.321C558.966 760.805 487.482 760.958 481.691 765.395C481.571 765.487 481.505 765.59 481.43 765.722V765.722C480.792 766.846 481.604 768.241 482.897 768.241H486.172M561.041 768.241L554.846 824.848M561.041 768.241H486.172M554.846 824.848C554.846 828.644 492.666 827.543 492.666 824.848M554.846 824.848C538.357 841.337 508.488 840.67 492.666 824.848M492.666 824.848L486.172 768.241M548.306 775.91L548.675 772.916M547.753 780.032L541.881 821.647M536.975 830.214L531.379 833.576" stroke="#FF9900" stroke-width="4"/>
<path d="M725.465 701.663C751.276 696.844 753.097 651.381 734.941 646.962M725.465 701.663C699.34 698.602 710.396 643.972 734.941 646.962M725.465 701.663L694.504 701.952M734.941 646.962L709.044 636.553M694.504 701.952L685.993 702.031C685.625 702.034 685.244 701.996 684.886 701.911C650.83 693.848 666.19 625.587 700.468 633.171C700.712 633.225 700.961 633.304 701.193 633.397L709.044 636.553M694.504 701.952C665.831 715.915 654.122 678.003 659.671 658.537C665.333 638.676 687.137 612.555 709.044 636.553M688.797 638.551L710.772 646.575M714.886 648.045L718.233 649.308M724.582 653.726L732.019 662.518M734.463 686.375C725.543 684.596 729.852 663.851 738.109 664.74C747.496 665.75 743.924 688.261 734.463 686.375Z" stroke="#FF9900" stroke-width="4"/>
<path d="M1040.5 282.838C1040.5 278.61 1059.05 278.722 1059.05 282.838M1040.5 282.838C1040.5 287.628 1059.05 287.538 1059.05 282.838M1040.5 282.838L1026.49 287.381C1024.63 287.996 1022.35 289.735 1022.48 291.699M1059.05 282.838L1073.63 287.381C1075.11 287.706 1077.13 289.63 1077.35 291.699M1058.06 287.898L1064.77 294.892M1022.48 291.699C1022.54 292.677 1023.2 293.71 1024.8 294.689C1037.69 302.561 1060.92 304.45 1075.38 295.207C1076.15 294.713 1076.67 294.162 1076.98 293.588C1077.31 292.972 1077.42 292.328 1077.35 291.699M1022.48 291.699L1015.63 337.306M1068.59 302.178L1069.44 305.866M1070.3 310.207L1076.98 349.787M1083.86 337.306C1100.74 341.466 1096.45 365.732 1051.02 365.732C1009.4 365.732 996.827 345.537 1015.63 337.306M1015.63 337.306L1014.1 348.168C1014.1 363.584 1084.31 363.814 1085.4 348.528C1085.41 348.292 1085.39 348.05 1085.36 347.816L1077.35 291.699" stroke="#FF9900" stroke-width="4"/>
<path d="M1161.61 486.083H1164.89C1166.12 486.083 1166.96 484.842 1166.51 483.699V483.699C1166.42 483.479 1166.32 483.297 1166.13 483.163C1159.53 478.647 1088.05 478.8 1082.26 483.237C1082.14 483.329 1082.07 483.432 1082 483.564V483.564C1081.36 484.688 1082.17 486.083 1083.46 486.083H1086.74M1161.61 486.083L1155.41 542.69M1161.61 486.083H1086.74M1155.41 542.69C1155.41 546.485 1093.23 545.384 1093.23 542.69M1155.41 542.69C1138.92 559.179 1109.05 558.511 1093.23 542.69M1093.23 542.69L1086.74 486.083M1148.87 493.752L1149.24 490.758M1148.32 497.874L1142.45 539.489M1137.54 548.056L1131.95 551.418" stroke="#FF9900" stroke-width="4"/>
<path d="M1736.19 913.864C1762.44 912.981 1771.07 868.308 1753.79 861.21M1736.19 913.864C1710.83 906.911 1729.97 854.563 1753.79 861.21M1736.19 913.864L1705.54 909.495M1753.79 861.21L1729.75 847.026M1705.54 909.495L1697.12 908.294C1696.75 908.242 1696.38 908.147 1696.04 908.009C1663.58 894.918 1689.03 829.742 1721.78 842.393C1722.01 842.483 1722.24 842.598 1722.46 842.725L1729.75 847.026M1705.54 909.495C1675.09 918.99 1669.22 879.748 1677.63 861.338C1686.21 842.553 1711.7 820.007 1729.75 847.026M1709.43 845.957L1729.95 857.193M1733.8 859.265L1736.91 861.017M1742.53 866.34L1748.56 876.149M1747.39 900.103C1738.84 897.003 1746.22 877.141 1754.25 879.261C1763.37 881.671 1756.46 903.39 1747.39 900.103Z" stroke="#FF9900" stroke-width="4"/>
<path d="M600.501 34.8378C600.501 30.6101 619.054 30.7224 619.054 34.8378M600.501 34.8378C600.501 39.628 619.054 39.538 619.054 34.8378M600.501 34.8378L586.49 39.3807C584.628 39.9962 582.352 41.7346 582.479 43.6985M619.054 34.8378L633.626 39.3807C635.112 39.7062 637.132 41.6299 637.349 43.6985M618.064 39.8979L624.766 46.8919M582.479 43.6985C582.542 44.6765 583.201 45.7104 584.803 46.6894C597.689 54.5606 620.92 56.4496 635.381 47.2068C636.153 46.7133 636.668 46.1625 636.98 45.5876C637.314 44.9718 637.415 44.3284 637.349 43.6985M582.479 43.6985L575.628 89.3057M628.589 54.1783L629.443 57.8664M630.298 62.2068L636.98 101.787M643.86 89.3057C660.739 93.4661 656.451 117.732 611.024 117.732C569.398 117.732 556.827 97.5366 575.628 89.3057M575.628 89.3057L574.098 100.168C574.098 115.584 644.312 115.814 645.397 100.528C645.414 100.292 645.393 100.05 645.36 99.8163L637.349 43.6985" stroke="#FF9900" stroke-width="4"/>
<path d="M445.607 376.083H448.89C450.121 376.083 450.962 374.842 450.507 373.699V373.699C450.42 373.479 450.321 373.297 450.126 373.163C443.532 368.647 372.047 368.8 366.257 373.237C366.137 373.329 366.071 373.432 365.996 373.564V373.564C365.358 374.688 366.17 376.083 367.463 376.083H370.738M445.607 376.083L439.412 432.69M445.607 376.083H370.738M439.412 432.69C439.412 436.485 377.232 435.384 377.232 432.69M439.412 432.69C422.923 449.179 393.054 448.511 377.232 432.69M377.232 432.69L370.738 376.083M432.872 383.752L433.24 380.758M432.319 387.874L426.447 429.489M421.541 438.056L415.945 441.418" stroke="#FF9900" stroke-width="4"/>
<path d="M742.529 221.444C764.085 236.437 797.731 205.807 788.128 189.778M742.529 221.444C726.362 200.695 773.02 170.203 788.128 189.778M742.529 221.444L720.582 199.604M788.128 189.778L777.353 164.031M720.582 199.604L714.549 193.6C714.288 193.341 714.048 193.043 713.857 192.728C695.682 162.819 755.067 125.82 773.738 155.551C773.871 155.762 773.99 155.995 774.086 156.225L777.353 164.031M720.582 199.604C690.505 188.995 709.274 154.036 727.03 144.318C745.147 134.402 779.054 131.582 777.353 164.031M761.713 151.02L771.431 172.299M773.274 176.26L774.725 179.53M776.037 187.153L775.001 198.622M759.732 217.115C754.735 209.515 772.529 198.015 777.695 204.517C783.568 211.91 765.032 225.175 759.732 217.115Z" stroke="#FF9900" stroke-width="4"/>
</svg>
