<svg width="1920" height="960" viewBox="0 0 1920 960" fill="none" xmlns="http://www.w3.org/2000/svg">
<rect width="1920" height="960" fill="#474747"/>
<path d="M302.645 368.574C304.892 352.826 346.307 353.738 343.361 374.384M302.645 368.574C299.206 392.677 340.908 391.573 343.361 374.384M302.645 368.574C313.371 361.384 331.949 382.946 343.361 374.384M290.784 399.167C318.052 378.709 366.219 441.545 338.616 462.92M290.784 399.167C258.798 423.165 306.616 487.7 338.616 462.92M290.784 399.167C324.01 406.652 300.246 458.866 338.616 462.92M336.453 409.75C338.889 393.603 359.381 376.835 373.91 387.392M350.67 439.899C370.109 442.379 389.555 406.696 378.605 392.101C377.141 390.15 375.564 388.594 373.91 387.392M373.91 387.392C370.322 410.32 348.034 411.18 346.744 422.437" stroke="#FF9900" stroke-width="5"/>
<path d="M1310.33 123.685C1325.4 128.802 1316.85 169.336 1297.1 162.627M1310.33 123.685C1287.28 115.853 1280.66 157.042 1297.1 162.627M1310.33 123.685C1315.42 135.555 1290.8 149.83 1297.1 162.627M1282.46 106.378C1297.53 136.955 1226.88 172.688 1210.97 141.612M1282.46 106.378C1264.78 70.5097 1192.52 105.586 1210.97 141.612M1282.46 106.378C1268.96 137.65 1222.04 104.651 1210.97 141.612M1263.62 149.307C1279.04 154.683 1291.74 177.919 1278.68 190.249M1231.36 157.71C1225.34 176.357 1256.82 202.059 1273.18 193.993C1275.37 192.915 1277.19 191.652 1278.68 190.249M1278.68 190.249C1256.81 182.488 1260.08 160.424 1249.25 157.077" stroke="#FF9900" stroke-width="5"/>
<path d="M1363.46 880.577C1347.04 843.278 1433.02 804.374 1450.41 842.314M1363.46 880.577C1382.71 924.331 1470.57 886.297 1450.41 842.314M1363.46 880.577C1381.11 843.964 1435.36 885.846 1450.41 842.314" stroke="#FF9900" stroke-width="5"/>
<path d="M1274.83 452.451C1275.46 446.142 1270.07 440.001 1267.29 437.719H1217.73C1212.46 439.244 1210.79 448.175 1210.62 452.451M1265.65 470.649H1279.95M1255.33 470.649H1205.42M1205.42 470.649H1203.43C1196.75 463.629 1199.87 455.657 1203.43 452.451H1282.03C1285.23 455.917 1287.14 465.189 1282.03 470.649H1279.95M1205.42 470.649L1208.28 487.547M1279.95 470.649L1276.48 487.547M1214.61 527.843H1210.62L1204.47 487.547H1280.9L1274.83 527.843H1271.28M1214.61 527.843L1217.73 552.28H1267.29L1271.28 527.843M1214.61 527.843H1271.28M1229.34 508.085C1229.34 490.926 1255.33 490.493 1255.33 508.085C1255.33 524.896 1229.34 525.936 1229.34 508.085Z" stroke="#FF9900" stroke-width="5"/>
<path d="M1282.84 660.328C1282.07 644.438 1322.92 637.526 1323.92 658.358M1282.84 660.328C1284 684.647 1324.75 675.7 1323.92 658.358M1282.84 660.328C1292.02 651.244 1314.32 668.918 1323.92 658.358M1276.96 692.608C1299.88 667.376 1359.03 720.005 1335.95 746.201M1276.96 692.608C1250.07 722.206 1309.19 776.569 1335.95 746.201M1276.96 692.608C1311 693.695 1297.5 749.453 1335.95 746.201M1323.8 694.392C1323.15 678.075 1340.11 657.744 1356.37 665.373M1343.45 721.32C1363 720.091 1375.37 681.381 1361.87 669.113C1360.06 667.473 1358.22 666.242 1356.37 665.373M1356.37 665.373C1357.17 688.567 1335.44 693.613 1336.3 704.911" stroke="#FF9900" stroke-width="5"/>
<path d="M1624.34 270.412C1660.63 288.954 1618.57 373.427 1581.12 355.003M1624.34 270.412C1581.78 248.66 1537.71 333.646 1581.12 355.003M1624.34 270.412C1633.79 309.943 1565.28 311.75 1581.12 355.003" stroke="#FF9900" stroke-width="5"/>
<path d="M807.965 591.357C799.084 578.159 830.443 551.092 842.086 568.394M807.965 591.357C821.558 611.555 851.78 582.799 842.086 568.394M807.965 591.357C811.112 578.833 839.349 582.396 842.086 568.394M819.654 622.016C826.194 588.56 904.049 602.944 897.874 637.306M819.654 622.016C811.982 661.261 890.717 677.141 897.874 637.306M819.654 622.016C849.336 605.314 866.671 660 897.874 637.306M860.65 599.279C851.641 585.659 855.622 559.482 873.482 557.587M891.402 612.139C907.496 600.958 898.029 561.438 880.123 557.938C877.728 557.47 875.515 557.371 873.482 557.587M873.482 557.587C886.178 577.013 870.205 592.583 876.789 601.805" stroke="#FF9900" stroke-width="5"/>
<path d="M455.237 267.339C442.15 258.294 461.465 221.647 478.621 233.505M455.237 267.339C475.265 281.181 492.904 243.377 478.621 233.505M455.237 267.339C453.595 254.53 481.184 247.54 478.621 233.505M477.31 291.615C471.186 258.081 548.92 243.052 555.715 277.297M477.31 291.615C484.494 330.952 563.592 316.995 555.715 277.297M477.31 291.615C498.848 265.231 534.949 309.815 555.715 277.297M507.177 255.482C493.819 246.091 487.969 220.266 503.905 211.983M540.503 256.229C551.404 239.945 528.164 206.608 510.216 209.886C507.816 210.324 505.719 211.04 503.905 211.983M503.905 211.983C522.816 225.434 513.629 245.76 523.125 251.942" stroke="#FF9900" stroke-width="5"/>
<path d="M186.595 714.375C170.691 714.742 164.796 673.739 185.645 673.258M186.595 714.375C210.935 713.814 203.003 672.857 185.645 673.258M186.595 714.375C177.742 704.974 195.964 683.111 185.645 673.258M218.719 721.056C194.064 697.514 248.146 639.691 273.76 663.413M218.719 721.056C247.639 748.672 303.455 690.914 273.76 663.413M218.719 721.056C220.65 687.052 276.056 701.928 273.76 663.413M221.665 674.27C205.338 674.516 185.434 657.053 193.465 640.988M249.074 655.299C248.331 635.717 209.94 622.389 197.34 635.584C195.656 637.349 194.379 639.159 193.465 640.988M193.465 640.988C216.671 640.766 221.176 662.612 232.492 662.037" stroke="#FF9900" stroke-width="5"/>
<path d="M83.5217 485.547C78.882 445.061 172.518 433.345 177.9 474.732M83.5217 485.547C88.9642 533.04 184.139 522.711 177.9 474.732M83.5217 485.547C111.217 455.798 150.639 511.859 177.9 474.732" stroke="#FF9900" stroke-width="5"/>
<path d="M755.345 202.071C744.097 190.822 769.681 158.242 784.427 172.989M755.345 202.071C772.561 219.287 796.705 185.266 784.427 172.989M755.345 202.071C756.031 189.176 784.427 187.256 784.427 172.989M772.698 229.918C772.698 195.829 851.867 195.01 852.4 229.918M772.698 229.918C772.698 269.906 853.017 270.386 852.4 229.918M772.698 229.918C798.625 207.832 826.13 258.177 852.4 229.918M808.571 199.739C797.117 188.1 796.002 161.645 813.166 156.359M841.22 206.46C854.869 192.4 837.996 155.43 819.751 155.43C817.311 155.43 815.12 155.757 813.166 156.359M813.166 156.359C829.354 172.989 816.664 191.333 824.895 199.121" stroke="#FF9900" stroke-width="5"/>
<path d="M561 103.932C561 63.1803 655.361 62.2012 655.996 103.932M561 103.932C561 151.735 656.732 152.309 655.996 103.932M561 103.932C591.902 77.5295 624.685 137.714 655.996 103.932" stroke="#FF9900" stroke-width="5"/>
<path d="M1521.35 737.071C1510.1 725.822 1535.68 693.242 1550.43 707.989M1521.35 737.071C1538.56 754.287 1562.7 720.266 1550.43 707.989M1521.35 737.071C1522.03 724.176 1550.43 722.256 1550.43 707.989M1538.7 764.918C1538.7 730.829 1617.87 730.01 1618.4 764.918M1538.7 764.918C1538.7 804.906 1619.02 805.386 1618.4 764.918M1538.7 764.918C1564.63 742.832 1592.13 793.177 1618.4 764.918M1574.57 734.739C1563.12 723.1 1562 696.645 1579.17 691.359M1607.22 741.46C1620.87 727.4 1604 690.43 1585.75 690.43C1583.31 690.43 1581.12 690.757 1579.17 691.359M1579.17 691.359C1595.35 707.989 1582.66 726.333 1590.89 734.121" stroke="#FF9900" stroke-width="5"/>
<path d="M599.345 505.071C588.097 493.822 613.681 461.242 628.427 475.989M599.345 505.071C616.561 522.287 640.705 488.266 628.427 475.989M599.345 505.071C600.031 492.176 628.427 490.256 628.427 475.989M616.698 532.918C616.698 498.829 695.867 498.01 696.4 532.918M616.698 532.918C616.698 572.906 697.017 573.386 696.4 532.918M616.698 532.918C642.625 510.832 670.13 561.177 696.4 532.918M652.571 502.739C641.117 491.1 640.002 464.645 657.166 459.359M685.22 509.46C698.869 495.4 681.996 458.43 663.751 458.43C661.311 458.43 659.12 458.757 657.166 459.359M657.166 459.359C673.354 475.989 660.664 494.333 668.895 502.121" stroke="#FF9900" stroke-width="5"/>
<path d="M1690 872.932C1690 832.18 1784.36 831.201 1785 872.932M1690 872.932C1690 920.735 1785.73 921.309 1785 872.932M1690 872.932C1720.9 846.53 1753.68 906.714 1785 872.932" stroke="#FF9900" stroke-width="5"/>
<path d="M1752.35 582.071C1741.1 570.822 1766.68 538.242 1781.43 552.989M1752.35 582.071C1769.56 599.287 1793.7 565.266 1781.43 552.989M1752.35 582.071C1753.03 569.176 1781.43 567.256 1781.43 552.989M1769.7 609.918C1769.7 575.829 1848.87 575.01 1849.4 609.918M1769.7 609.918C1769.7 649.906 1850.02 650.386 1849.4 609.918M1769.7 609.918C1795.63 587.832 1823.13 638.177 1849.4 609.918M1805.57 579.739C1794.12 568.1 1793 541.645 1810.17 536.359M1838.22 586.46C1851.87 572.4 1835 535.43 1816.75 535.43C1814.31 535.43 1812.12 535.757 1810.17 536.359M1810.17 536.359C1826.35 552.989 1813.66 571.333 1821.89 579.121" stroke="#FF9900" stroke-width="5"/>
<path d="M1451.57 605.609C1410.83 606.314 1408.21 511.984 1449.93 510.628M1451.57 605.609C1499.37 604.782 1498.28 509.055 1449.93 510.628M1451.57 605.609C1424.64 575.169 1484.25 541.35 1449.93 510.628" stroke="#FF9900" stroke-width="5"/>
<path d="M1734.35 248.071C1723.1 236.822 1748.68 204.242 1763.43 218.989M1734.35 248.071C1751.56 265.287 1775.7 231.266 1763.43 218.989M1734.35 248.071C1735.03 235.176 1763.43 233.256 1763.43 218.989M1751.7 275.918C1751.7 241.829 1830.87 241.01 1831.4 275.918M1751.7 275.918C1751.7 315.906 1832.02 316.386 1831.4 275.918M1751.7 275.918C1777.63 253.832 1805.13 304.177 1831.4 275.918M1787.57 245.739C1776.12 234.1 1775 207.645 1792.17 202.359M1820.22 252.46C1833.87 238.4 1817 201.43 1798.75 201.43C1796.31 201.43 1794.12 201.757 1792.17 202.359M1792.17 202.359C1808.35 218.989 1795.66 237.333 1803.89 245.121" stroke="#FF9900" stroke-width="5"/>
<path d="M1516.8 74.2253C1528.65 35.2358 1619.22 61.747 1607.69 101.858M1516.8 74.2253C1502.9 119.962 1594.32 148.357 1607.69 101.858M1516.8 74.2253C1554.05 57.9534 1567.91 125.071 1607.69 101.858" stroke="#FF9900" stroke-width="5"/>
<path d="M1378.37 380.172C1371.44 394.493 1332.27 381.038 1341.35 362.264M1378.37 380.172C1388.97 358.254 1348.91 346.633 1341.35 362.264M1378.37 380.172C1365.97 383.762 1354.82 357.575 1341.35 362.264M1398.97 354.63C1366.77 365.834 1339.98 291.333 1372.77 279.357M1398.97 354.63C1436.73 341.488 1410.79 265.473 1372.77 279.357M1398.97 354.63C1369.59 337.403 1408.1 294.879 1372.77 279.357M1358.67 330.67C1351.45 345.312 1326.83 355.061 1316.19 340.587M1354.29 297.626C1336.53 289.356 1307.16 317.442 1313.15 334.674C1313.95 336.978 1314.98 338.939 1316.19 340.587M1316.19 340.587C1326.58 319.833 1348.08 325.788 1352.73 315.455" stroke="#FF9900" stroke-width="5"/>
<path d="M1133.18 308.615C1095 322.855 1061.11 234.785 1099.98 219.608M1133.18 308.615C1177.97 291.911 1145.05 202.014 1099.98 219.608M1133.18 308.615C1097.64 288.887 1142.58 237.14 1099.98 219.608" stroke="#FF9900" stroke-width="5"/>
<path d="M995.345 422.071C984.096 410.822 1009.68 378.242 1024.43 392.989M995.345 422.071C1012.56 439.287 1036.7 405.266 1024.43 392.989M995.345 422.071C996.031 409.176 1024.43 407.256 1024.43 392.989M1012.7 449.918C1012.7 415.829 1091.87 415.01 1092.4 449.918M1012.7 449.918C1012.7 489.906 1093.02 490.386 1092.4 449.918M1012.7 449.918C1038.63 427.832 1066.13 478.177 1092.4 449.918M1048.57 419.739C1037.12 408.1 1036 381.645 1053.17 376.359M1081.22 426.46C1094.87 412.4 1078 375.43 1059.75 375.43C1057.31 375.43 1055.12 375.757 1053.17 376.359M1053.17 376.359C1069.35 392.989 1056.66 411.333 1064.89 419.121" stroke="#FF9900" stroke-width="5"/>
<path d="M372.778 821.641C361.529 810.393 387.113 777.812 401.86 792.559M372.778 821.641C389.993 838.857 414.137 804.837 401.86 792.559M372.778 821.641C373.464 808.746 401.86 806.826 401.86 792.559M390.131 849.488C390.131 815.399 469.3 814.58 469.832 849.488M390.131 849.488C390.131 889.476 470.45 889.956 469.832 849.488M390.131 849.488C416.058 827.403 443.562 877.747 469.832 849.488M426.003 819.309C414.55 807.67 413.434 781.215 430.599 775.929M458.652 826.031C472.302 811.97 455.428 775 437.184 775C434.744 775 432.553 775.327 430.599 775.929M430.599 775.929C446.786 792.559 434.097 810.904 442.328 818.692" stroke="#FF9900" stroke-width="5"/>
<path d="M724 365.932C724 325.18 818.361 324.201 818.996 365.932M724 365.932C724 413.735 819.732 414.309 818.996 365.932M724 365.932C754.902 339.53 787.685 399.714 818.996 365.932" stroke="#FF9900" stroke-width="5"/>
<path d="M682.107 789.739C641.957 796.719 624.829 703.921 665.834 696.147M682.107 789.739C729.203 781.55 713.37 687.135 665.834 696.147M682.107 789.739C650.801 763.816 704.48 721.208 665.834 696.147" stroke="#FF9900" stroke-width="5"/>
<path d="M1120.35 853.071C1109.1 841.822 1134.68 809.242 1149.43 823.989M1120.35 853.071C1137.56 870.287 1161.7 836.266 1149.43 823.989M1120.35 853.071C1121.03 840.176 1149.43 838.256 1149.43 823.989M1137.7 880.918C1137.7 846.829 1216.87 846.01 1217.4 880.918M1137.7 880.918C1137.7 920.906 1218.02 921.386 1217.4 880.918M1137.7 880.918C1163.63 858.832 1191.13 909.177 1217.4 880.918M1173.57 850.739C1162.12 839.1 1161 812.645 1178.17 807.359M1206.22 857.46C1219.87 843.4 1203 806.43 1184.75 806.43C1182.31 806.43 1180.12 806.757 1178.17 807.359M1178.17 807.359C1194.35 823.989 1181.66 842.333 1189.89 850.121" stroke="#FF9900" stroke-width="5"/>
<path d="M1019 666.932C1019 626.18 1113.36 625.201 1114 666.932M1019 666.932C1019 714.735 1114.73 715.309 1114 666.932M1019 666.932C1049.9 640.53 1082.68 700.714 1114 666.932" stroke="#FF9900" stroke-width="5"/>
<path d="M146.351 247.41C158.103 258.132 134.038 291.849 118.631 277.793M146.351 247.41C128.365 231 105.805 266.091 118.631 277.793M146.351 247.41C146.256 260.323 117.978 263.541 118.631 277.793M127.741 220.386C129.302 254.44 50.2538 258.883 48.1235 224.036M127.741 220.386C125.91 180.441 45.6539 183.638 48.1235 224.036M127.741 220.386C102.853 243.636 73.0719 194.604 48.1235 224.036M93.2882 252.177C105.263 263.279 107.588 289.655 90.6838 295.721M60.3659 246.957C47.3747 261.628 65.9229 297.787 84.1486 296.951C86.5856 296.839 88.7593 296.412 90.6838 295.721M90.6838 295.721C73.7521 279.85 85.5879 260.944 77.0092 253.541" stroke="#FF9900" stroke-width="5"/>
<path d="M124.317 842.594C130.324 802.288 223.799 815.229 218.275 856.598M124.317 842.594C117.27 889.875 211.871 904.555 218.275 856.598M124.317 842.594C158.773 821.035 182.326 885.395 218.275 856.598" stroke="#FF9900" stroke-width="5"/>
<path d="M443.329 554.808C438.871 550.3 430.703 550.527 427.177 551.205L395.529 589.355C393.339 594.384 399.151 601.367 402.331 604.23M451.47 573.496L460.599 562.492M444.886 581.433L413.017 619.85M413.017 619.85L411.745 621.384C402.082 622.038 397.938 614.547 397.739 609.766L447.921 549.272C452.636 549.017 460.989 553.47 461.927 560.891L460.599 562.492M413.017 619.85L427.849 628.438M460.599 562.492L471.392 575.948M462.902 649.297L460.357 652.365L425.415 631.373L474.213 572.547L501.354 602.943L499.086 605.677M462.902 649.297L483.702 662.498L515.349 624.348L499.086 605.677M462.902 649.297L499.086 605.677M457.101 625.344C443.895 614.389 460.159 594.103 473.699 605.335C486.638 616.068 470.84 636.741 457.101 625.344Z" stroke="#FF9900" stroke-width="5"/>
<path d="M1634.21 579.924C1636.12 585.968 1643.5 589.487 1646.94 590.49L1692.5 570.947C1696.74 567.468 1694.75 558.604 1693.22 554.607M1635.47 559.579L1622.33 565.216M1644.95 555.513L1690.82 535.833M1690.82 535.833L1692.65 535.047C1701.55 538.867 1701.83 547.423 1699.83 551.771L1627.6 582.76C1623.28 580.839 1617.88 573.069 1620.42 566.036L1622.33 565.216M1690.82 535.833L1681.53 521.431M1622.33 565.216L1618.86 548.32M1659.83 486.894L1663.49 485.322L1685.04 519.928L1614.8 550.063L1604.48 510.64L1607.75 509.239M1659.83 486.894L1647.33 465.666L1601.78 485.209L1607.75 509.239M1659.83 486.894L1607.75 509.239M1654.08 510.859C1660.85 526.628 1637.13 537.276 1630.19 521.11C1623.56 505.66 1647.04 494.454 1654.08 510.859Z" stroke="#FF9900" stroke-width="5"/>
<path d="M932.634 102.756C926.3 103.021 920.974 109.218 919.102 112.283L926.04 161.363C928.287 166.367 937.364 166.764 941.621 166.337M951.938 109.304L949.937 95.1467M953.382 119.515L960.368 168.939M960.368 168.939L960.646 170.912C954.63 178.502 946.3 176.528 942.628 173.459L931.627 95.6343C934.611 91.9744 943.525 88.789 949.646 93.0873L949.937 95.1467M960.368 168.939L976.699 163.742M949.937 95.1467L967.154 96.2139M1015.71 151.839L1016.27 155.786L977.233 167.518L966.536 91.8379L1007.28 92.2045L1007.78 95.7226M1015.71 151.839L1039.47 145.33L1032.54 96.2494L1007.78 95.7226M1015.71 151.839L1007.78 95.7226M994.088 140.017C977.098 142.419 973.031 116.738 990.449 114.276C1007.1 111.923 1011.76 137.519 994.088 140.017Z" stroke="#FF9900" stroke-width="5"/>
<path d="M946.684 820.586C949.094 814.723 945.695 807.292 943.694 804.31L896.215 790.071C890.731 790.019 886.571 798.096 885.177 802.141M932.658 835.379L946.354 839.486M922.781 832.417L874.969 818.078M874.969 818.078L873.06 817.506C868.685 808.866 873.963 802.125 878.288 800.075L953.574 822.652C955.649 826.894 954.812 836.323 948.346 840.084L946.354 839.486M874.969 818.078L872.855 835.086M946.354 839.486L938.18 854.676M867.339 875.501L863.521 874.356L869.202 833.991L942.413 855.946L925.028 892.801L921.624 891.78M867.339 875.501L863.307 899.804L910.786 914.043L921.624 891.78M867.339 875.501L921.624 891.78M887.125 860.807C892.054 844.372 917.08 851.425 912.027 868.275C907.198 884.378 881.997 877.906 887.125 860.807Z" stroke="#FF9900" stroke-width="5"/>
<path d="M310.833 98.4505C311.457 92.1419 306.067 86.0007 303.294 83.7188H253.725C248.457 85.2439 246.793 94.1754 246.619 98.4505M301.647 116.649H315.945M291.335 116.649H241.42M241.42 116.649H239.427C232.754 109.629 235.874 101.657 239.427 98.4505H318.025C321.232 101.917 323.138 111.189 318.025 116.649H315.945M241.42 116.649L244.28 133.547M315.945 116.649L312.479 133.547M250.606 173.843H246.619L240.467 133.547H316.899L310.833 173.843H307.28M250.606 173.843L253.725 198.28H303.294L307.28 173.843M250.606 173.843H307.28M265.337 154.085C265.337 136.926 291.335 136.493 291.335 154.085C291.335 170.896 265.337 171.936 265.337 154.085Z" stroke="#FF9900" stroke-width="5"/>
</svg>
