<?xml version="1.0" standalone="no"?><svg xmlns:xlink="http://www.w3.org/1999/xlink" xmlns="http://www.w3.org/2000/svg" viewBox="0 0 1000 666.6666666666666" preserveAspectRatio="xMaxYMax slice"><g transform="scale(0.970402717127608)"><rect x="0" y="0" width="1030.5" height="687" fill="#ffffff"/><rect x="0" y="0" width="68.7" height="68.7" fill="#e8f7d2"/><g transform="translate(0,0) scale(3.435) rotate(0)"><path d="M13 0H20V7L7 20H0V13L13 0Z" fill="#fffced"/></g><rect x="68.7" y="0" width="68.7" height="68.7" fill="#fbf9e0"/><g transform="translate(68.7,0) scale(3.435) rotate(0)"><path d="M10 0L20 10L10 20L0 10L10 0Z" fill="#f7fcf0"/></g><rect x="137.4" y="0" width="68.7" height="68.7" fill="#ffe9e9"/><path d="M 137.4 0 A 68.7 68.7 0 0 1  206.10000000000002 68.7 L 137.4 0 A 68.7 68.7 0 0 0 206.10000000000002 68.7" fill="#f9d62e"/><rect x="206.10000000000002" y="0" width="68.7" height="68.7" fill="#ffffff"/><rect x="206.1" y="0" width="34.35" height="34.35" fill="#eee67a"/><path d="M 206.1 34.35 A 34.35 34.35 0 0 1  240.45 0 L 206.1 34.35 A 34.35 34.35 0 0 0 240.45 0" fill="#fff2e8"/><rect x="240.45" y="0" width="34.35" height="34.35" fill="#f1ea91"/><g transform="translate(240.45,0) scale(1.7175) rotate(0)"><path d="M10 0L20 10L10 20L0 10L10 0Z" fill="#f9f6ce"/></g><rect x="206.1" y="34.35" width="34.35" height="34.35" fill="#ff9a9b"/><rect x="206.1" y="34.35" width="34.35" height="34.35" fill="#fbe168"/><rect x="240.45" y="34.35" width="34.35" height="34.35" fill="#fbe167"/><g transform="translate(240.45,34.35) scale(1.7175) rotate(0)"><path d="M10 0L20 10L10 20L0 10L10 0Z" fill="#fdeea9"/></g><rect x="274.8" y="0" width="68.7" height="68.7" fill="#ffc2c2"/><rect x="274.8" y="0" width="68.7" height="68.7" fill="#e3f6c7"/><rect x="343.5" y="0" width="68.7" height="68.7" fill="#fada43"/><polygon points="412.2,0 412.2,68.7 343.5,68.7" fill="#fdf0b4"/><rect x="412.20000000000005" y="0" width="68.7" height="68.7" fill="#ffffff"/><rect x="412.2" y="0" width="34.35" height="34.35" fill="#fff5f5"/><g transform="translate(412.2,0) scale(1.7175) rotate(0)"><path d="M10 0L20 10L10 20L0 10L10 0Z" fill="#f3eea2"/></g><rect x="446.55" y="0" width="34.35" height="34.35" fill="#f1ea91"/><polygon points="446.55,0 480.90000000000003,0 446.55,34.35" fill="#ff7476"/><rect x="412.2" y="34.35" width="34.35" height="34.35" fill="#fee1ca"/><g transform="translate(412.2,34.35) scale(1.7175) rotate(0)"><path d="M10 0L20 10L10 20L0 10L10 0Z" fill="#fceb9b"/></g><rect x="446.55" y="34.35" width="34.35" height="34.35" fill="#ff7c7e"/><polygon points="446.55,34.35 480.90000000000003,68.7 446.55,68.7" fill="#ff5557"/><rect x="480.9" y="0" width="68.7" height="68.7" fill="#f9d733"/><polygon points="480.9,0 549.6,68.7 480.9,68.7" fill="#ff9899"/><rect x="549.6" y="0" width="68.7" height="68.7" fill="#e8f7d3"/><path d="M 549.6 68.7 A 68.7 68.7 0 0 1  618.3000000000001 0 L 549.6 68.7 A 68.7 68.7 0 0 0 618.3000000000001 0" fill="#e7f7cf"/><rect x="618.3000000000001" y="0" width="68.7" height="68.7" fill="#ffffff"/><rect x="618.3" y="0" width="34.35" height="34.35" fill="#faf7d7"/><path d="M 618.3 0 A 34.35 34.35 0 0 1  652.65 34.35 L 618.3 0 A 34.35 34.35 0 0 0 652.65 34.35" fill="#fefdf7"/><rect x="652.65" y="0" width="34.35" height="34.35" fill="#fdf1b9"/><g transform="translate(652.65,0) scale(1.7175) rotate(0)"><path d="M10 0L20 10L10 20L0 10L10 0Z" fill="#f3eea6"/></g><rect x="618.3" y="34.35" width="34.35" height="34.35" fill="#fcfefa"/><polygon points="652.65,34.35 652.65,68.7 618.3,68.7" fill="#ffa4a5"/><rect x="652.65" y="34.35" width="34.35" height="34.35" fill="#fffdf5"/><g transform="translate(652.65,34.35) scale(1.7175) rotate(0)"><path d="M10 0L20 10L10 20L0 10L10 0Z" fill="#f1fae4"/></g><rect x="687" y="0" width="68.7" height="68.7" fill="#ffffff"/><rect x="687" y="0" width="34.35" height="34.35" fill="#f8fdf2"/><rect x="687" y="0" width="34.35" height="34.35" fill="#fffefc"/><rect x="721.35" y="0" width="34.35" height="34.35" fill="#ff7576"/><g transform="translate(721.35,0) scale(1.7175) rotate(0)"><path d="M10 0L20 10L10 20L0 10L10 0Z" fill="#fdfcf1"/></g><rect x="687" y="34.35" width="34.35" height="34.35" fill="#fef5cc"/><g transform="translate(687,34.35) scale(1.7175) rotate(0)"><path d="M10 0L20 10L10 20L0 10L10 0Z" fill="#fdfcf0"/></g><rect x="721.35" y="34.35" width="34.35" height="34.35" fill="#ffffff"/><rect x="721.35" y="34.35" width="34.35" height="34.35" fill="#fce888"/><rect x="755.7" y="0" width="68.7" height="68.7" fill="#ff8385"/><g transform="translate(755.7,0) scale(3.435) rotate(0)"><path d="M13 0H20V7L7 20H0V13L13 0Z" fill="#fff0e4"/></g><rect x="824.4000000000001" y="0" width="68.7" height="68.7" fill="#ffffff"/><rect x="824.4" y="0" width="34.35" height="34.35" fill="#fdbd89"/><path d="M 824.4 0 A 34.35 34.35 0 0 1  858.75 34.35 L 824.4 0 A 34.35 34.35 0 0 0 858.75 34.35" fill="#f1eb96"/><rect x="858.75" y="0" width="34.35" height="34.35" fill="#f9f7d2"/><g transform="translate(858.75,0) scale(1.7175) rotate(0)"><path d="M10 0L20 10L10 20L0 10L10 0Z" fill="#fef6d3"/></g><rect x="824.4" y="34.35" width="34.35" height="34.35" fill="#ffabac"/><path d="M 824.4 68.7 A 34.35 34.35 0 0 1  858.75 34.35 L 824.4 68.7 A 34.35 34.35 0 0 0 858.75 34.35" fill="#fbfef8"/><rect x="858.75" y="34.35" width="34.35" height="34.35" fill="#ff5254"/><rect x="858.75" y="34.35" width="34.35" height="34.35" fill="#ffb8b9"/><rect x="893.1" y="0" width="68.7" height="68.7" fill="#e9f8d4"/><path d="M 893.1 68.7 A 68.7 68.7 0 0 1  961.8000000000001 0 L 893.1 68.7 A 68.7 68.7 0 0 0 961.8000000000001 0" fill="#fcec9f"/><rect x="961.8000000000001" y="0" width="68.7" height="68.7" fill="#ffffff"/><rect x="961.8" y="0" width="34.35" height="34.35" fill="#fc9c4d"/><polygon points="961.8,0 996.15,0 961.8,34.35" fill="#faf8db"/><rect x="996.15" y="0" width="34.35" height="34.35" fill="#fc923b"/><path d="M 996.15 0 A 34.35 34.35 0 0 1  1030.5 34.35 L 996.15 0 A 34.35 34.35 0 0 0 1030.5 34.35" fill="#edf9db"/><rect x="961.8" y="34.35" width="34.35" height="34.35" fill="#e8f7d2"/><polygon points="996.15,34.35 996.15,68.7 961.8,68.7" fill="#fffefc"/><rect x="996.15" y="34.35" width="34.35" height="34.35" fill="#fdf2bc"/><g transform="translate(996.15,34.35) scale(1.7175) rotate(0)"><path d="M10 0L20 10L10 20L0 10L10 0Z" fill="#ffdfdf"/></g><rect x="0" y="68.7" width="68.7" height="68.7" fill="#ffffff"/><rect x="0" y="68.7" width="34.35" height="34.35" fill="#f4f0ac"/><g transform="translate(0,68.7) scale(1.7175) rotate(0)"><path d="M10 0L20 10L10 20L0 10L10 0Z" fill="#ff9798"/></g><rect x="34.35" y="68.7" width="34.35" height="34.35" fill="#fefffc"/><g transform="translate(34.35,68.7) scale(1.7175) rotate(0)"><path d="M13 0H20V7L7 20H0V13L13 0Z" fill="#fdab69"/></g><rect x="0" y="103.05" width="34.35" height="34.35" fill="#fca259"/><path d="M 0 137.4 A 34.35 34.35 0 0 1  34.35 103.05 L 0 137.4 A 34.35 34.35 0 0 0 34.35 103.05" fill="#efe987"/><rect x="34.35" y="103.05" width="34.35" height="34.35" fill="#fceda1"/><polygon points="68.7,103.05 68.7,137.4 34.35,137.4" fill="#fdf2bb"/><rect x="68.7" y="68.7" width="68.7" height="68.7" fill="#e9f8d4"/><g transform="translate(68.7,68.7) scale(3.435) rotate(0)"><path d="M13 0H20V7L7 20H0V13L13 0Z" fill="#ffdbdb"/></g><rect x="137.4" y="68.7" width="68.7" height="68.7" fill="#ffffff"/><rect x="137.4" y="68.7" width="34.35" height="34.35" fill="#fee7d4"/><rect x="137.4" y="68.7" width="34.35" height="34.35" fill="#fdfdf3"/><rect x="171.75" y="68.7" width="34.35" height="34.35" fill="#e4f6c9"/><g transform="translate(171.75,68.7) scale(1.7175) rotate(0)"><path d="M10 0L20 10L10 20L0 10L10 0Z" fill="#fdf2bd"/></g><rect x="137.4" y="103.05" width="34.35" height="34.35" fill="#fefbe9"/><path d="M 137.4 103.05 A 34.35 34.35 0 0 1  171.75 137.4 L 137.4 103.05 A 34.35 34.35 0 0 0 171.75 137.4" fill="#f9d425"/><rect x="171.75" y="103.05" width="34.35" height="34.35" fill="#e9f8d3"/><rect x="171.75" y="103.05" width="34.35" height="34.35" fill="#eee77d"/><rect x="206.1" y="68.7" width="68.7" height="68.7" fill="#fecba2"/><path d="M 206.1 68.7 A 68.7 68.7 0 0 1  274.8 137.4 L 206.1 68.7 A 68.7 68.7 0 0 0 274.8 137.4" fill="#fcfefa"/><rect x="274.8" y="68.7" width="68.7" height="68.7" fill="#ffe8e8"/><polygon points="343.5,68.7 343.5,137.4 274.8,137.4" fill="#f9fdf4"/><rect x="343.5" y="68.7" width="68.7" height="68.7" fill="#ffffff"/><rect x="343.5" y="68.7" width="34.35" height="34.35" fill="#effae0"/><path d="M 343.5 68.7 A 34.35 34.35 0 0 1  377.85 103.05000000000001 L 343.5 68.7 A 34.35 34.35 0 0 0 377.85 103.05000000000001" fill="#ffe7e7"/><rect x="377.85" y="68.7" width="34.35" height="34.35" fill="#ff9798"/><path d="M 377.85 103.05000000000001 A 34.35 34.35 0 0 1  412.20000000000005 68.7 L 412.20000000000005 103.05000000000001" fill="#f9f6d1"/><rect x="343.5" y="103.05" width="34.35" height="34.35" fill="#f4eea6"/><g transform="translate(343.5,103.05) scale(1.7175) rotate(0)"><path d="M13 0H20V7L7 20H0V13L13 0Z" fill="#fff3ea"/></g><rect x="377.85" y="103.05" width="34.35" height="34.35" fill="#fce98e"/><g transform="translate(377.85,103.05) scale(1.7175) rotate(0)"><path d="M10 0L20 10L10 20L0 10L10 0Z" fill="#ff6566"/></g><rect x="412.2" y="68.7" width="68.7" height="68.7" fill="#fffefe"/><path d="M 412.2 68.7 A 68.7 68.7 0 0 1  480.9 137.4 L 412.2 68.7 A 68.7 68.7 0 0 0 480.9 137.4" fill="#faf8d8"/><rect x="480.90000000000003" y="68.7" width="68.7" height="68.7" fill="#ffffff"/><rect x="480.9" y="68.7" width="34.35" height="34.35" fill="#fffcfc"/><g transform="translate(480.9,68.7) scale(1.7175) rotate(0)"><path d="M13 0H20V7L7 20H0V13L13 0Z" fill="#ffc3c3"/></g><rect x="515.25" y="68.7" width="34.35" height="34.35" fill="#fdefab"/><g transform="translate(515.25,68.7) scale(1.7175) rotate(0)"><path d="M10 0L20 10L10 20L0 10L10 0Z" fill="#fffafa"/></g><rect x="480.9" y="103.05" width="34.35" height="34.35" fill="#fef8dd"/><rect x="480.9" y="103.05" width="34.35" height="34.35" fill="#f3eea3"/><rect x="515.25" y="103.05" width="34.35" height="34.35" fill="#fadc4e"/><path d="M 515.25 103.05 A 34.35 34.35 0 0 1  549.6 137.4 L 515.25 103.05 A 34.35 34.35 0 0 0 549.6 137.4" fill="#fbfef7"/><rect x="549.6" y="68.7" width="68.7" height="68.7" fill="#e2f5c5"/><rect x="549.6" y="68.7" width="68.7" height="68.7" fill="#fada43"/><rect x="618.3000000000001" y="68.7" width="68.7" height="68.7" fill="#ffffff"/><rect x="618.3" y="68.7" width="34.35" height="34.35" fill="#fbf9dd"/><g transform="translate(618.3,68.7) scale(1.7175) rotate(0)"><path d="M10 0L20 10L10 20L0 10L10 0Z" fill="#f5fcec"/></g><rect x="652.65" y="68.7" width="34.35" height="34.35" fill="#ff7a7b"/><g transform="translate(652.65,68.7) scale(1.7175) rotate(0)"><path d="M10 0L20 10L10 20L0 10L10 0Z" fill="#f1eb94"/></g><rect x="618.3" y="103.05" width="34.35" height="34.35" fill="#fdb072"/><path d="M 618.3 103.05 A 34.35 34.35 0 0 1 652.65 137.4 L 618.3 137.4" fill="#fafdf4"/><rect x="652.65" y="103.05" width="34.35" height="34.35" fill="#fc9643"/><g transform="translate(652.65,103.05) scale(1.7175) rotate(0)"><path d="M10 0L20 10L10 20L0 10L10 0Z" fill="#e6f7ce"/></g><rect x="687" y="68.7" width="68.7" height="68.7" fill="#ffffff"/><rect x="687" y="68.7" width="34.35" height="34.35" fill="#fef5cd"/><rect x="687" y="68.7" width="34.35" height="34.35" fill="#ffd3d4"/><rect x="721.35" y="68.7" width="34.35" height="34.35" fill="#effae0"/><path d="M 721.35 68.7 A 34.35 34.35 0 0 1  755.7 103.05000000000001 L 721.35 68.7 A 34.35 34.35 0 0 0 755.7 103.05000000000001" fill="#fef6cf"/><rect x="687" y="103.05" width="34.35" height="34.35" fill="#ff7475"/><g transform="translate(687,103.05) scale(1.7175) rotate(0)"><path d="M10 0L20 10L10 20L0 10L10 0Z" fill="#ffd2d3"/></g><rect x="721.35" y="103.05" width="34.35" height="34.35" fill="#ff6b6d"/><polygon points="721.35,103.05 755.7,103.05 721.35,137.4" fill="#fca055"/><rect x="755.7" y="68.7" width="68.7" height="68.7" fill="#ffffff"/><rect x="755.7" y="68.7" width="34.35" height="34.35" fill="#f9d62b"/><g transform="translate(755.7,68.7) scale(1.7175) rotate(0)"><path d="M13 0H20V7L7 20H0V13L13 0Z" fill="#fbfae4"/></g><rect x="790.05" y="68.7" width="34.35" height="34.35" fill="#ff8586"/><g transform="translate(790.05,68.7) scale(1.7175) rotate(0)"><path d="M10 0L20 10L10 20L0 10L10 0Z" fill="#fce782"/></g><rect x="755.7" y="103.05" width="34.35" height="34.35" fill="#ff9899"/><rect x="755.7" y="103.05" width="34.35" height="34.35" fill="#ffe8e8"/><rect x="790.05" y="103.05" width="34.35" height="34.35" fill="#ff4e50"/><g transform="translate(790.05,103.05) scale(1.7175) rotate(0)"><path d="M13 0H20V7L7 20H0V13L13 0Z" fill="#ff7f80"/></g><rect x="824.4" y="68.7" width="68.7" height="68.7" fill="#ff7576"/><g transform="translate(824.4,68.7) scale(3.435) rotate(0)"><path d="M13 0H20V7L7 20H0V13L13 0Z" fill="#fee1c9"/></g><rect x="893.1" y="68.7" width="68.7" height="68.7" fill="#fc9642"/><g transform="translate(893.1,68.7) scale(3.435) rotate(0)"><path d="M13 0H20V7L7 20H0V13L13 0Z" fill="#eee77c"/></g><rect x="961.8000000000001" y="68.7" width="68.7" height="68.7" fill="#ffffff"/><rect x="961.8" y="68.7" width="34.35" height="34.35" fill="#f2ed9d"/><rect x="961.8" y="68.7" width="34.35" height="34.35" fill="#fbe269"/><rect x="996.15" y="68.7" width="34.35" height="34.35" fill="#fdb77d"/><rect x="996.15" y="68.7" width="34.35" height="34.35" fill="#ff6062"/><rect x="961.8" y="103.05" width="34.35" height="34.35" fill="#effadf"/><path d="M 961.8 103.05 A 34.35 34.35 0 0 1  996.15 137.4 L 961.8 103.05 A 34.35 34.35 0 0 0 996.15 137.4" fill="#ff6d6f"/><rect x="996.15" y="103.05" width="34.35" height="34.35" fill="#fdc08e"/><polygon points="996.15,103.05 1030.5,137.4 996.15,137.4" fill="#ff7d7f"/><rect x="0" y="137.4" width="68.7" height="68.7" fill="#ffffff"/><rect x="0" y="137.4" width="34.35" height="34.35" fill="#fc923d"/><rect x="0" y="137.4" width="34.35" height="34.35" fill="#fda35b"/><rect x="34.35" y="137.4" width="34.35" height="34.35" fill="#fef9df"/><g transform="translate(34.35,137.4) scale(1.7175) rotate(0)"><path d="M10 0L20 10L10 20L0 10L10 0Z" fill="#fbdf5d"/></g><rect x="0" y="171.75" width="34.35" height="34.35" fill="#ff5254"/><path d="M 0 171.75 A 34.35 34.35 0 0 1  34.35 206.1 L 0 171.75 A 34.35 34.35 0 0 0 34.35 206.1" fill="#f0fae1"/><rect x="34.35" y="171.75" width="34.35" height="34.35" fill="#f1ea90"/><rect x="34.35" y="171.75" width="34.35" height="34.35" fill="#eee67b"/><rect x="68.7" y="137.4" width="68.7" height="68.7" fill="#ffffff"/><rect x="68.7" y="137.4" width="34.35" height="34.35" fill="#fff5ed"/><polygon points="68.7,137.4 103.05000000000001,171.75 68.7,171.75" fill="#fce88a"/><rect x="103.05" y="137.4" width="34.35" height="34.35" fill="#ff9798"/><path d="M 103.05 137.4 A 34.35 34.35 0 0 1 137.4 171.75 L 103.05 171.75" fill="#f6f2b8"/><rect x="68.7" y="171.75" width="34.35" height="34.35" fill="#fffbfb"/><polygon points="103.05000000000001,171.75 103.05000000000001,206.1 68.7,206.1" fill="#f9d423"/><rect x="103.05" y="171.75" width="34.35" height="34.35" fill="#fefef9"/><path d="M 103.05 206.1 A 34.35 34.35 0 0 1  137.4 171.75 L 103.05 206.1 A 34.35 34.35 0 0 0 137.4 171.75" fill="#ffbbbb"/><rect x="137.4" y="137.4" width="68.7" height="68.7" fill="#ffffff"/><rect x="137.4" y="137.4" width="34.35" height="34.35" fill="#ff6c6e"/><rect x="137.4" y="137.4" width="34.35" height="34.35" fill="#fc933e"/><rect x="171.75" y="137.4" width="34.35" height="34.35" fill="#fc9948"/><path d="M 171.75 137.4 A 34.35 34.35 0 0 1  206.1 171.75 L 171.75 137.4 A 34.35 34.35 0 0 0 206.1 171.75" fill="#fdeea9"/><rect x="137.4" y="171.75" width="34.35" height="34.35" fill="#fdb174"/><rect x="137.4" y="171.75" width="34.35" height="34.35" fill="#ff8c8d"/><rect x="171.75" y="171.75" width="34.35" height="34.35" fill="#f4fbe9"/><polygon points="171.75,171.75 206.1,206.1 171.75,206.1" fill="#fca156"/><rect x="206.1" y="137.4" width="68.7" height="68.7" fill="#fc9440"/><path d="M 206.1 137.4 A 68.7 68.7 0 0 0 274.8 206.10000000000002 L 274.8 137.4" fill="#ff7274"/><rect x="274.8" y="137.4" width="68.7" height="68.7" fill="#fceb98"/><g transform="translate(274.8,137.4) scale(3.435) rotate(0)"><path d="M13 0H20V7L7 20H0V13L13 0Z" fill="#fedabd"/></g><rect x="343.5" y="137.4" width="68.7" height="68.7" fill="#fdba84"/><g transform="translate(343.5,137.4) scale(3.435) rotate(0)"><path d="M10 0L20 10L10 20L0 10L10 0Z" fill="#fef8dc"/></g><rect x="412.20000000000005" y="137.4" width="68.7" height="68.7" fill="#ffffff"/><rect x="412.2" y="137.4" width="34.35" height="34.35" fill="#fedabe"/><rect x="412.2" y="137.4" width="34.35" height="34.35" fill="#f7f4c4"/><rect x="446.55" y="137.4" width="34.35" height="34.35" fill="#e5f6cd"/><polygon points="446.55,137.4 480.90000000000003,137.4 480.90000000000003,171.75" fill="#fff2f2"/><rect x="412.2" y="171.75" width="34.35" height="34.35" fill="#fefffd"/><polygon points="412.2,171.75 446.55,206.1 412.2,206.1" fill="#f3fbe7"/><rect x="446.55" y="171.75" width="34.35" height="34.35" fill="#fffdfc"/><path d="M 446.55 171.75 A 34.35 34.35 0 0 1  480.90000000000003 206.1 L 446.55 171.75 A 34.35 34.35 0 0 0 480.90000000000003 206.1" fill="#fffefc"/><rect x="480.9" y="137.4" width="68.7" height="68.7" fill="#fcea95"/><g transform="translate(480.9,137.4) scale(3.435) rotate(0)"><path d="M10 0L20 10L10 20L0 10L10 0Z" fill="#eee77d"/></g><rect x="549.6" y="137.4" width="68.7" height="68.7" fill="#ffffff"/><rect x="549.6" y="137.4" width="34.35" height="34.35" fill="#fef6d0"/><g transform="translate(549.6,137.4) scale(1.7175) rotate(0)"><path d="M10 0L20 10L10 20L0 10L10 0Z" fill="#fed7b7"/></g><rect x="583.95" y="137.4" width="34.35" height="34.35" fill="#fda762"/><rect x="583.95" y="137.4" width="34.35" height="34.35" fill="#ff9c9d"/><rect x="549.6" y="171.75" width="34.35" height="34.35" fill="#f9d527"/><path d="M 549.6 171.75 A 34.35 34.35 0 0 1 583.95 206.1 L 549.6 206.1" fill="#fda45c"/><rect x="583.95" y="171.75" width="34.35" height="34.35" fill="#eef9dd"/><path d="M 583.95 171.75 A 34.35 34.35 0 0 1 618.3000000000001 206.1 L 583.95 206.1" fill="#fbe67d"/><rect x="618.3" y="137.4" width="68.7" height="68.7" fill="#ff8a8c"/><g transform="translate(618.3,137.4) scale(3.435) rotate(0)"><path d="M13 0H20V7L7 20H0V13L13 0Z" fill="#fdba83"/></g><rect x="687" y="137.4" width="68.7" height="68.7" fill="#ffffff"/><rect x="687" y="137.4" width="34.35" height="34.35" fill="#ffffff"/><polygon points="687,137.4 721.35,171.75 687,171.75" fill="#f5f0ae"/><rect x="721.35" y="137.4" width="34.35" height="34.35" fill="#fdb880"/><path d="M 721.35 171.75 A 34.35 34.35 0 0 1  755.7 137.4 L 755.7 171.75" fill="#ffabac"/><rect x="687" y="171.75" width="34.35" height="34.35" fill="#ff5052"/><g transform="translate(687,171.75) scale(1.7175) rotate(0)"><path d="M10 0L20 10L10 20L0 10L10 0Z" fill="#ff9697"/></g><rect x="721.35" y="171.75" width="34.35" height="34.35" fill="#fdbb85"/><rect x="721.35" y="171.75" width="34.35" height="34.35" fill="#f7f4c4"/><rect x="755.7" y="137.4" width="68.7" height="68.7" fill="#ffffff"/><rect x="755.7" y="137.4" width="34.35" height="34.35" fill="#f5f0b0"/><g transform="translate(755.7,137.4) scale(1.7175) rotate(0)"><path d="M13 0H20V7L7 20H0V13L13 0Z" fill="#ffc3c3"/></g><rect x="790.05" y="137.4" width="34.35" height="34.35" fill="#fffffe"/><g transform="translate(790.05,137.4) scale(1.7175) rotate(0)"><path d="M13 0H20V7L7 20H0V13L13 0Z" fill="#f2ec9b"/></g><rect x="755.7" y="171.75" width="34.35" height="34.35" fill="#fecda6"/><path d="M 755.7 206.1 A 34.35 34.35 0 0 0 790.0500000000001 171.75 L 755.7 171.75" fill="#f0e988"/><rect x="790.05" y="171.75" width="34.35" height="34.35" fill="#f5f1b4"/><rect x="790.05" y="171.75" width="34.35" height="34.35" fill="#efe885"/><rect x="824.4000000000001" y="137.4" width="68.7" height="68.7" fill="#ffffff"/><rect x="824.4" y="137.4" width="34.35" height="34.35" fill="#f7fcf0"/><path d="M 824.4 137.4 A 34.35 34.35 0 0 0 858.75 171.75 L 858.75 137.4" fill="#ffe2e3"/><rect x="858.75" y="137.4" width="34.35" height="34.35" fill="#fef8db"/><polygon points="893.1,137.4 893.1,171.75 858.75,171.75" fill="#fbe67e"/><rect x="824.4" y="171.75" width="34.35" height="34.35" fill="#fdfefc"/><path d="M 824.4 206.1 A 34.35 34.35 0 0 0 858.75 171.75 L 824.4 171.75" fill="#fefffc"/><rect x="858.75" y="171.75" width="34.35" height="34.35" fill="#f1eb94"/><rect x="858.75" y="171.75" width="34.35" height="34.35" fill="#fcfae5"/><rect x="893.1" y="137.4" width="68.7" height="68.7" fill="#fdfefc"/><g transform="translate(893.1,137.4) scale(3.435) rotate(0)"><path d="M13 0H20V7L7 20H0V13L13 0Z" fill="#ffd3d4"/></g><rect x="961.8" y="137.4" width="68.7" height="68.7" fill="#e3f6c8"/><g transform="translate(961.8,137.4) scale(3.435) rotate(0)"><path d="M13 0H20V7L7 20H0V13L13 0Z" fill="#ff5a5c"/></g><rect x="0" y="206.1" width="68.7" height="68.7" fill="#f5f0af"/><g transform="translate(0,206.1) scale(3.435) rotate(0)"><path d="M13 0H20V7L7 20H0V13L13 0Z" fill="#fc9846"/></g><rect x="68.7" y="206.10000000000002" width="68.7" height="68.7" fill="#ffffff"/><rect x="68.7" y="206.1" width="34.35" height="34.35" fill="#fdf0b2"/><rect x="68.7" y="206.1" width="34.35" height="34.35" fill="#ffb2b3"/><rect x="103.05" y="206.1" width="34.35" height="34.35" fill="#ff898a"/><path d="M 103.05 240.45 A 34.35 34.35 0 0 1  137.4 206.1 L 103.05 240.45 A 34.35 34.35 0 0 0 137.4 206.1" fill="#f7fcef"/><rect x="68.7" y="240.45" width="34.35" height="34.35" fill="#ffa5a6"/><rect x="68.7" y="240.45" width="34.35" height="34.35" fill="#ff5c5e"/><rect x="103.05" y="240.45" width="34.35" height="34.35" fill="#fadb49"/><polygon points="103.05,240.45 137.4,240.45 137.4,274.8" fill="#fdf0b4"/><rect x="137.4" y="206.1" width="68.7" height="68.7" fill="#fadc4d"/><g transform="translate(137.4,206.1) scale(3.435) rotate(0)"><path d="M10 0L20 10L10 20L0 10L10 0Z" fill="#efe780"/></g><rect x="206.10000000000002" y="206.10000000000002" width="68.7" height="68.7" fill="#ffffff"/><rect x="206.1" y="206.1" width="34.35" height="34.35" fill="#fff0f0"/><path d="M 206.1 240.45 A 34.35 34.35 0 0 1  240.45 206.1 L 206.1 240.45 A 34.35 34.35 0 0 0 240.45 206.1" fill="#fbe67e"/><rect x="240.45" y="206.1" width="34.35" height="34.35" fill="#ff6668"/><path d="M 240.45 206.1 A 34.35 34.35 0 0 1  274.8 240.45 L 240.45 206.1 A 34.35 34.35 0 0 0 274.8 240.45" fill="#f5f0ae"/><rect x="206.1" y="240.45" width="34.35" height="34.35" fill="#ff6466"/><g transform="translate(206.1,240.45) scale(1.7175) rotate(0)"><path d="M13 0H20V7L7 20H0V13L13 0Z" fill="#ffe1e1"/></g><rect x="240.45" y="240.45" width="34.35" height="34.35" fill="#e8f7d1"/><polygon points="240.45,240.45 274.8,240.45 240.45,274.8" fill="#f9f6ce"/><rect x="274.8" y="206.10000000000002" width="68.7" height="68.7" fill="#ffffff"/><rect x="274.8" y="206.1" width="34.35" height="34.35" fill="#fc9f53"/><path d="M 274.8 206.1 A 34.35 34.35 0 0 1  309.15000000000003 240.45 L 274.8 206.1 A 34.35 34.35 0 0 0 309.15000000000003 240.45" fill="#fed4b1"/><rect x="309.15" y="206.1" width="34.35" height="34.35" fill="#fdb377"/><polygon points="309.15,206.1 343.5,206.1 343.5,240.45" fill="#ffeee0"/><rect x="274.8" y="240.45" width="34.35" height="34.35" fill="#ffffff"/><g transform="translate(274.8,240.45) scale(1.7175) rotate(0)"><path d="M10 0L20 10L10 20L0 10L10 0Z" fill="#ede576"/></g><rect x="309.15" y="240.45" width="34.35" height="34.35" fill="#fbf9e0"/><g transform="translate(309.15,240.45) scale(1.7175) rotate(0)"><path d="M13 0H20V7L7 20H0V13L13 0Z" fill="#fbe477"/></g><rect x="343.5" y="206.10000000000002" width="68.7" height="68.7" fill="#ffffff"/><rect x="343.5" y="206.1" width="34.35" height="34.35" fill="#ffeaea"/><g transform="translate(343.5,206.1) scale(1.7175) rotate(0)"><path d="M10 0L20 10L10 20L0 10L10 0Z" fill="#f2ec9b"/></g><rect x="377.85" y="206.1" width="34.35" height="34.35" fill="#e5f6cb"/><g transform="translate(377.85,206.1) scale(1.7175) rotate(0)"><path d="M10 0L20 10L10 20L0 10L10 0Z" fill="#fdfefb"/></g><rect x="343.5" y="240.45" width="34.35" height="34.35" fill="#fefbed"/><g transform="translate(343.5,240.45) scale(1.7175) rotate(0)"><path d="M13 0H20V7L7 20H0V13L13 0Z" fill="#fdb274"/></g><rect x="377.85" y="240.45" width="34.35" height="34.35" fill="#fff3e9"/><g transform="translate(377.85,240.45) scale(1.7175) rotate(0)"><path d="M13 0H20V7L7 20H0V13L13 0Z" fill="#fff4eb"/></g><rect x="412.2" y="206.1" width="68.7" height="68.7" fill="#f9f7d3"/><rect x="412.2" y="206.1" width="68.7" height="68.7" fill="#fc9746"/><rect x="480.90000000000003" y="206.10000000000002" width="68.7" height="68.7" fill="#ffffff"/><rect x="480.9" y="206.1" width="34.35" height="34.35" fill="#fbe060"/><path d="M 480.9 240.45 A 34.35 34.35 0 0 1  515.25 206.1 L 480.9 240.45 A 34.35 34.35 0 0 0 515.25 206.1" fill="#fdf2be"/><rect x="515.25" y="206.1" width="34.35" height="34.35" fill="#fade57"/><path d="M 515.25 240.45 A 34.35 34.35 0 0 0 549.6 206.1 L 515.25 206.1" fill="#fffefa"/><rect x="480.9" y="240.45" width="34.35" height="34.35" fill="#fffbf8"/><g transform="translate(480.9,240.45) scale(1.7175) rotate(0)"><path d="M10 0L20 10L10 20L0 10L10 0Z" fill="#f2ec99"/></g><rect x="515.25" y="240.45" width="34.35" height="34.35" fill="#f5fcea"/><polygon points="515.25,240.45 549.6,240.45 549.6,274.8" fill="#ffb9ba"/><rect x="549.6" y="206.10000000000002" width="68.7" height="68.7" fill="#ffffff"/><rect x="549.6" y="206.1" width="34.35" height="34.35" fill="#fdfefb"/><rect x="549.6" y="206.1" width="34.35" height="34.35" fill="#fad93d"/><rect x="583.95" y="206.1" width="34.35" height="34.35" fill="#fc913a"/><g transform="translate(583.95,206.1) scale(1.7175) rotate(0)"><path d="M10 0L20 10L10 20L0 10L10 0Z" fill="#ff8081"/></g><rect x="549.6" y="240.45" width="34.35" height="34.35" fill="#fdfcef"/><g transform="translate(549.6,240.45) scale(1.7175) rotate(0)"><path d="M13 0H20V7L7 20H0V13L13 0Z" fill="#fbe05f"/></g><rect x="583.95" y="240.45" width="34.35" height="34.35" fill="#fbf9de"/><path d="M 583.95 240.45 A 34.35 34.35 0 0 1  618.3000000000001 274.8 L 583.95 240.45 A 34.35 34.35 0 0 0 618.3000000000001 274.8" fill="#ff999a"/><rect x="618.3000000000001" y="206.10000000000002" width="68.7" height="68.7" fill="#ffffff"/><rect x="618.3" y="206.1" width="34.35" height="34.35" fill="#ffffff"/><g transform="translate(618.3,206.1) scale(1.7175) rotate(0)"><path d="M10 0L20 10L10 20L0 10L10 0Z" fill="#fbe371"/></g><rect x="652.65" y="206.1" width="34.35" height="34.35" fill="#efe781"/><g transform="translate(652.65,206.1) scale(1.7175) rotate(0)"><path d="M10 0L20 10L10 20L0 10L10 0Z" fill="#fda65f"/></g><rect x="618.3" y="240.45" width="34.35" height="34.35" fill="#e4f6ca"/><rect x="618.3" y="240.45" width="34.35" height="34.35" fill="#ff8688"/><rect x="652.65" y="240.45" width="34.35" height="34.35" fill="#ff5254"/><g transform="translate(652.65,240.45) scale(1.7175) rotate(0)"><path d="M13 0H20V7L7 20H0V13L13 0Z" fill="#fee3ce"/></g><rect x="687" y="206.1" width="68.7" height="68.7" fill="#ffeddf"/><g transform="translate(687,206.1) scale(3.435) rotate(0)"><path d="M10 0L20 10L10 20L0 10L10 0Z" fill="#f0e98b"/></g><rect x="755.7" y="206.10000000000002" width="68.7" height="68.7" fill="#ffffff"/><rect x="755.7" y="206.1" width="34.35" height="34.35" fill="#fefffd"/><g transform="translate(755.7,206.1) scale(1.7175) rotate(0)"><path d="M13 0H20V7L7 20H0V13L13 0Z" fill="#e7f7cf"/></g><rect x="790.05" y="206.1" width="34.35" height="34.35" fill="#fdf2bc"/><g transform="translate(790.05,206.1) scale(1.7175) rotate(0)"><path d="M10 0L20 10L10 20L0 10L10 0Z" fill="#f5f1b5"/></g><rect x="755.7" y="240.45" width="34.35" height="34.35" fill="#e6f7cd"/><g transform="translate(755.7,240.45) scale(1.7175) rotate(0)"><path d="M13 0H20V7L7 20H0V13L13 0Z" fill="#f5fceb"/></g><rect x="790.05" y="240.45" width="34.35" height="34.35" fill="#fee0c8"/><rect x="790.05" y="240.45" width="34.35" height="34.35" fill="#ffe0e0"/><rect x="824.4" y="206.1" width="68.7" height="68.7" fill="#fdb071"/><polygon points="824.4,206.1 893.1,206.1 824.4,274.8" fill="#fdc291"/><rect x="893.1" y="206.1" width="68.7" height="68.7" fill="#fed8b9"/><path d="M 893.1 274.8 A 68.7 68.7 0 0 1  961.8000000000001 206.1 L 961.8000000000001 274.8" fill="#fed2ae"/><rect x="961.8000000000001" y="206.10000000000002" width="68.7" height="68.7" fill="#ffffff"/><rect x="961.8" y="206.1" width="34.35" height="34.35" fill="#fbf9e0"/><polygon points="961.8,206.1 996.15,206.1 996.15,240.45" fill="#fc9c4d"/><rect x="996.15" y="206.1" width="34.35" height="34.35" fill="#fce98e"/><g transform="translate(996.15,206.1) scale(1.7175) rotate(0)"><path d="M10 0L20 10L10 20L0 10L10 0Z" fill="#fafdf6"/></g><rect x="961.8" y="240.45" width="34.35" height="34.35" fill="#ff6668"/><rect x="961.8" y="240.45" width="34.35" height="34.35" fill="#feead9"/><rect x="996.15" y="240.45" width="34.35" height="34.35" fill="#f3eda0"/><g transform="translate(996.15,240.45) scale(1.7175) rotate(0)"><path d="M10 0L20 10L10 20L0 10L10 0Z" fill="#eaf8d6"/></g><rect x="0" y="274.8" width="68.7" height="68.7" fill="#fdfefc"/><path d="M 0 343.5 A 68.7 68.7 0 0 0 68.7 274.8 L 0 274.8" fill="#f4efa9"/><rect x="68.7" y="274.8" width="68.7" height="68.7" fill="#ffffff"/><rect x="68.7" y="274.8" width="34.35" height="34.35" fill="#f7f3bf"/><path d="M 68.7 274.8 A 34.35 34.35 0 0 1  103.05000000000001 309.15000000000003 L 68.7 274.8 A 34.35 34.35 0 0 0 103.05000000000001 309.15000000000003" fill="#f9d734"/><rect x="103.05" y="274.8" width="34.35" height="34.35" fill="#fadb46"/><path d="M 103.05 274.8 A 34.35 34.35 0 0 0 137.4 309.15000000000003 L 137.4 274.8" fill="#fbf9de"/><rect x="68.7" y="309.15" width="34.35" height="34.35" fill="#fffdfb"/><path d="M 68.7 309.15 A 34.35 34.35 0 0 1  103.05000000000001 343.5 L 68.7 309.15 A 34.35 34.35 0 0 0 103.05000000000001 343.5" fill="#fdb77f"/><rect x="103.05" y="309.15" width="34.35" height="34.35" fill="#fdfcf1"/><rect x="103.05" y="309.15" width="34.35" height="34.35" fill="#ff8384"/><rect x="137.4" y="274.8" width="68.7" height="68.7" fill="#e3f6c8"/><g transform="translate(137.4,274.8) scale(3.435) rotate(0)"><path d="M10 0L20 10L10 20L0 10L10 0Z" fill="#fed1ad"/></g><rect x="206.10000000000002" y="274.8" width="68.7" height="68.7" fill="#ffffff"/><rect x="206.1" y="274.8" width="34.35" height="34.35" fill="#fdf4c6"/><rect x="206.1" y="274.8" width="34.35" height="34.35" fill="#f0ea8d"/><rect x="240.45" y="274.8" width="34.35" height="34.35" fill="#eef9de"/><rect x="240.45" y="274.8" width="34.35" height="34.35" fill="#fff8f8"/><rect x="206.1" y="309.15" width="34.35" height="34.35" fill="#f0fae1"/><g transform="translate(206.1,309.15) scale(1.7175) rotate(0)"><path d="M13 0H20V7L7 20H0V13L13 0Z" fill="#ffcccd"/></g><rect x="240.45" y="309.15" width="34.35" height="34.35" fill="#ffd3d3"/><rect x="240.45" y="309.15" width="34.35" height="34.35" fill="#f2fbe5"/><rect x="274.8" y="274.8" width="68.7" height="68.7" fill="#fff3e9"/><polygon points="274.8,274.8 343.5,274.8 343.5,343.5" fill="#fca35b"/><rect x="343.5" y="274.8" width="68.7" height="68.7" fill="#fceda2"/><g transform="translate(343.5,274.8) scale(3.435) rotate(0)"><path d="M10 0L20 10L10 20L0 10L10 0Z" fill="#f9d425"/></g><rect x="412.20000000000005" y="274.8" width="68.7" height="68.7" fill="#ffffff"/><rect x="412.2" y="274.8" width="34.35" height="34.35" fill="#f3fbe7"/><polygon points="412.2,274.8 446.55,274.8 446.55,309.15000000000003" fill="#f9f7d4"/><rect x="446.55" y="274.8" width="34.35" height="34.35" fill="#f5f1b5"/><g transform="translate(446.55,274.8) scale(1.7175) rotate(0)"><path d="M10 0L20 10L10 20L0 10L10 0Z" fill="#ffc9c9"/></g><rect x="412.2" y="309.15" width="34.35" height="34.35" fill="#f4fbea"/><rect x="412.2" y="309.15" width="34.35" height="34.35" fill="#fade55"/><rect x="446.55" y="309.15" width="34.35" height="34.35" fill="#f7fcf0"/><g transform="translate(446.55,309.15) scale(1.7175) rotate(0)"><path d="M10 0L20 10L10 20L0 10L10 0Z" fill="#f6f2b8"/></g><rect x="480.9" y="274.8" width="68.7" height="68.7" fill="#fdf3c2"/><path d="M 480.9 343.5 A 68.7 68.7 0 0 0 549.6 274.8 L 480.9 274.8" fill="#fbdf5c"/><rect x="549.6" y="274.8" width="68.7" height="68.7" fill="#ff7b7c"/><g transform="translate(549.6,274.8) scale(3.435) rotate(0)"><path d="M10 0L20 10L10 20L0 10L10 0Z" fill="#fef6d0"/></g><rect x="618.3000000000001" y="274.8" width="68.7" height="68.7" fill="#ffffff"/><rect x="618.3" y="274.8" width="34.35" height="34.35" fill="#f8fdf1"/><path d="M 618.3 309.15000000000003 A 34.35 34.35 0 0 1  652.65 274.8 L 618.3 309.15000000000003 A 34.35 34.35 0 0 0 652.65 274.8" fill="#f6f2ba"/><rect x="652.65" y="274.8" width="34.35" height="34.35" fill="#fdfefa"/><rect x="652.65" y="274.8" width="34.35" height="34.35" fill="#ff9394"/><rect x="618.3" y="309.15" width="34.35" height="34.35" fill="#fef6cf"/><path d="M 618.3 343.5 A 34.35 34.35 0 0 1  652.65 309.15 L 618.3 343.5 A 34.35 34.35 0 0 0 652.65 309.15" fill="#ff5254"/><rect x="652.65" y="309.15" width="34.35" height="34.35" fill="#f5fceb"/><path d="M 652.65 309.15 A 34.35 34.35 0 0 1  687 343.5 L 652.65 309.15 A 34.35 34.35 0 0 0 687 343.5" fill="#fceda1"/><rect x="687" y="274.8" width="68.7" height="68.7" fill="#fff7f1"/><g transform="translate(687,274.8) scale(3.435) rotate(0)"><path d="M13 0H20V7L7 20H0V13L13 0Z" fill="#fcfbe8"/></g><rect x="755.7" y="274.8" width="68.7" height="68.7" fill="#ffffff"/><rect x="755.7" y="274.8" width="34.35" height="34.35" fill="#fefbea"/><g transform="translate(755.7,274.8) scale(1.7175) rotate(0)"><path d="M13 0H20V7L7 20H0V13L13 0Z" fill="#fefae4"/></g><rect x="790.05" y="274.8" width="34.35" height="34.35" fill="#f5f0b0"/><path d="M 790.05 309.15000000000003 A 34.35 34.35 0 0 1  824.4 274.8 L 824.4 309.15000000000003" fill="#ff696b"/><rect x="755.7" y="309.15" width="34.35" height="34.35" fill="#fff0e4"/><g transform="translate(755.7,309.15) scale(1.7175) rotate(0)"><path d="M10 0L20 10L10 20L0 10L10 0Z" fill="#fceb98"/></g><rect x="790.05" y="309.15" width="34.35" height="34.35" fill="#fda965"/><rect x="790.05" y="309.15" width="34.35" height="34.35" fill="#eee77d"/><rect x="824.4000000000001" y="274.8" width="68.7" height="68.7" fill="#ffffff"/><rect x="824.4" y="274.8" width="34.35" height="34.35" fill="#ffb4b5"/><g transform="translate(824.4,274.8) scale(1.7175) rotate(0)"><path d="M13 0H20V7L7 20H0V13L13 0Z" fill="#f2fbe5"/></g><rect x="858.75" y="274.8" width="34.35" height="34.35" fill="#ffa4a5"/><path d="M 858.75 309.15000000000003 A 34.35 34.35 0 0 1  893.1 274.8 L 858.75 309.15000000000003 A 34.35 34.35 0 0 0 893.1 274.8" fill="#ffc2c3"/><rect x="824.4" y="309.15" width="34.35" height="34.35" fill="#fbf9e0"/><path d="M 824.4 343.5 A 34.35 34.35 0 0 1  858.75 309.15 L 824.4 343.5 A 34.35 34.35 0 0 0 858.75 309.15" fill="#fce784"/><rect x="858.75" y="309.15" width="34.35" height="34.35" fill="#ebf8d8"/><path d="M 858.75 309.15 A 34.35 34.35 0 0 1  893.1 343.5 L 858.75 309.15 A 34.35 34.35 0 0 0 893.1 343.5" fill="#ff5557"/><rect x="893.1" y="274.8" width="68.7" height="68.7" fill="#ffffff"/><rect x="893.1" y="274.8" width="34.35" height="34.35" fill="#feca9f"/><g transform="translate(893.1,274.8) scale(1.7175) rotate(0)"><path d="M13 0H20V7L7 20H0V13L13 0Z" fill="#e9f8d4"/></g><rect x="927.45" y="274.8" width="34.35" height="34.35" fill="#ff5b5d"/><g transform="translate(927.45,274.8) scale(1.7175) rotate(0)"><path d="M10 0L20 10L10 20L0 10L10 0Z" fill="#ff9091"/></g><rect x="893.1" y="309.15" width="34.35" height="34.35" fill="#fff4eb"/><polygon points="893.1,309.15 927.45,309.15 927.45,343.5" fill="#f4efab"/><rect x="927.45" y="309.15" width="34.35" height="34.35" fill="#fcfbe9"/><polygon points="927.45,309.15 961.8000000000001,343.5 927.45,343.5" fill="#f5f1b3"/><rect x="961.8" y="274.8" width="68.7" height="68.7" fill="#fda863"/><g transform="translate(961.8,274.8) scale(3.435) rotate(0)"><path d="M10 0L20 10L10 20L0 10L10 0Z" fill="#f9d630"/></g><rect x="0" y="343.5" width="68.7" height="68.7" fill="#ffffff"/><rect x="0" y="343.5" width="34.35" height="34.35" fill="#f7f3c1"/><g transform="translate(0,343.5) scale(1.7175) rotate(0)"><path d="M13 0H20V7L7 20H0V13L13 0Z" fill="#fbe166"/></g><rect x="34.35" y="343.5" width="34.35" height="34.35" fill="#fc9e51"/><rect x="34.35" y="343.5" width="34.35" height="34.35" fill="#ff5f61"/><rect x="0" y="377.85" width="34.35" height="34.35" fill="#fdc291"/><g transform="translate(0,377.85) scale(1.7175) rotate(0)"><path d="M13 0H20V7L7 20H0V13L13 0Z" fill="#f6f3bd"/></g><rect x="34.35" y="377.85" width="34.35" height="34.35" fill="#f5fceb"/><path d="M 34.35 377.85 A 34.35 34.35 0 0 1  68.7 412.20000000000005 L 34.35 377.85 A 34.35 34.35 0 0 0 68.7 412.20000000000005" fill="#ffb6b7"/><rect x="68.7" y="343.5" width="68.7" height="68.7" fill="#ffd2d3"/><rect x="68.7" y="343.5" width="68.7" height="68.7" fill="#ecf9da"/><rect x="137.4" y="343.5" width="68.7" height="68.7" fill="#ffffff"/><rect x="137.4" y="343.5" width="34.35" height="34.35" fill="#fadc4b"/><path d="M 137.4 377.85 A 34.35 34.35 0 0 1  171.75 343.5 L 137.4 377.85 A 34.35 34.35 0 0 0 171.75 343.5" fill="#fed4b2"/><rect x="171.75" y="343.5" width="34.35" height="34.35" fill="#fff8f2"/><path d="M 171.75 343.5 A 34.35 34.35 0 0 1  206.1 377.85 L 171.75 343.5 A 34.35 34.35 0 0 0 206.1 377.85" fill="#fed3b0"/><rect x="137.4" y="377.85" width="34.35" height="34.35" fill="#ffffff"/><path d="M 137.4 412.20000000000005 A 34.35 34.35 0 0 1  171.75 377.85 L 137.4 412.20000000000005 A 34.35 34.35 0 0 0 171.75 377.85" fill="#fee5d0"/><rect x="171.75" y="377.85" width="34.35" height="34.35" fill="#ffcece"/><path d="M 171.75 377.85 A 34.35 34.35 0 0 1  206.1 412.20000000000005 L 171.75 377.85 A 34.35 34.35 0 0 0 206.1 412.20000000000005" fill="#fef8da"/><rect x="206.1" y="343.5" width="68.7" height="68.7" fill="#fc9f53"/><g transform="translate(206.1,343.5) scale(3.435) rotate(0)"><path d="M13 0H20V7L7 20H0V13L13 0Z" fill="#f9d62e"/></g><rect x="274.8" y="343.5" width="68.7" height="68.7" fill="#fecaa0"/><g transform="translate(274.8,343.5) scale(3.435) rotate(0)"><path d="M13 0H20V7L7 20H0V13L13 0Z" fill="#fefffc"/></g><rect x="343.5" y="343.5" width="68.7" height="68.7" fill="#ffffff"/><rect x="343.5" y="343.5" width="34.35" height="34.35" fill="#f1ea90"/><g transform="translate(343.5,343.5) scale(1.7175) rotate(0)"><path d="M10 0L20 10L10 20L0 10L10 0Z" fill="#fff6ef"/></g><rect x="377.85" y="343.5" width="34.35" height="34.35" fill="#fecda6"/><polygon points="377.85,343.5 412.20000000000005,343.5 412.20000000000005,377.85" fill="#ff8c8d"/><rect x="343.5" y="377.85" width="34.35" height="34.35" fill="#f1fae3"/><rect x="343.5" y="377.85" width="34.35" height="34.35" fill="#fdefae"/><rect x="377.85" y="377.85" width="34.35" height="34.35" fill="#fee2cb"/><polygon points="377.85,377.85 412.20000000000005,377.85 412.20000000000005,412.20000000000005" fill="#fffef7"/><rect x="412.20000000000005" y="343.5" width="68.7" height="68.7" fill="#ffffff"/><rect x="412.2" y="343.5" width="34.35" height="34.35" fill="#edf9db"/><rect x="412.2" y="343.5" width="34.35" height="34.35" fill="#f0ea8c"/><rect x="446.55" y="343.5" width="34.35" height="34.35" fill="#f0fae2"/><path d="M 446.55 343.5 A 34.35 34.35 0 0 1  480.90000000000003 377.85 L 446.55 343.5 A 34.35 34.35 0 0 0 480.90000000000003 377.85" fill="#fef9e0"/><rect x="412.2" y="377.85" width="34.35" height="34.35" fill="#fad839"/><polygon points="412.2,377.85 446.55,377.85 446.55,412.20000000000005" fill="#fee3cd"/><rect x="446.55" y="377.85" width="34.35" height="34.35" fill="#fed5b4"/><g transform="translate(446.55,377.85) scale(1.7175) rotate(0)"><path d="M10 0L20 10L10 20L0 10L10 0Z" fill="#fda863"/></g><rect x="480.90000000000003" y="343.5" width="68.7" height="68.7" fill="#ffffff"/><rect x="480.9" y="343.5" width="34.35" height="34.35" fill="#f1fae4"/><path d="M 480.9 377.85 A 34.35 34.35 0 0 1  515.25 343.5 L 515.25 377.85" fill="#ffb3b4"/><rect x="515.25" y="343.5" width="34.35" height="34.35" fill="#fefbec"/><polygon points="515.25,343.5 549.6,377.85 515.25,377.85" fill="#fbe67d"/><rect x="480.9" y="377.85" width="34.35" height="34.35" fill="#fefdf5"/><g transform="translate(480.9,377.85) scale(1.7175) rotate(0)"><path d="M10 0L20 10L10 20L0 10L10 0Z" fill="#fc9c4e"/></g><rect x="515.25" y="377.85" width="34.35" height="34.35" fill="#f4fbe9"/><path d="M 515.25 377.85 A 34.35 34.35 0 0 1  549.6 412.20000000000005 L 515.25 377.85 A 34.35 34.35 0 0 0 549.6 412.20000000000005" fill="#fca157"/><rect x="549.6" y="343.5" width="68.7" height="68.7" fill="#f7f4c2"/><g transform="translate(549.6,343.5) scale(3.435) rotate(0)"><path d="M13 0H20V7L7 20H0V13L13 0Z" fill="#fbf9e0"/></g><rect x="618.3" y="343.5" width="68.7" height="68.7" fill="#fceda1"/><rect x="618.3" y="343.5" width="68.7" height="68.7" fill="#f9f7d3"/><rect x="687" y="343.5" width="68.7" height="68.7" fill="#f2ec98"/><path d="M 687 343.5 A 68.7 68.7 0 0 1  755.7 412.2 L 687 343.5 A 68.7 68.7 0 0 0 755.7 412.2" fill="#edf9dc"/><rect x="755.7" y="343.5" width="68.7" height="68.7" fill="#ffffff"/><rect x="755.7" y="343.5" width="34.35" height="34.35" fill="#fce888"/><g transform="translate(755.7,343.5) scale(1.7175) rotate(0)"><path d="M10 0L20 10L10 20L0 10L10 0Z" fill="#fedabd"/></g><rect x="790.05" y="343.5" width="34.35" height="34.35" fill="#fffbf8"/><rect x="790.05" y="343.5" width="34.35" height="34.35" fill="#f0e989"/><rect x="755.7" y="377.85" width="34.35" height="34.35" fill="#fff4eb"/><g transform="translate(755.7,377.85) scale(1.7175) rotate(0)"><path d="M13 0H20V7L7 20H0V13L13 0Z" fill="#f7f4c2"/></g><rect x="790.05" y="377.85" width="34.35" height="34.35" fill="#efe885"/><rect x="790.05" y="377.85" width="34.35" height="34.35" fill="#fecca3"/><rect x="824.4000000000001" y="343.5" width="68.7" height="68.7" fill="#ffffff"/><rect x="824.4" y="343.5" width="34.35" height="34.35" fill="#fee2cb"/><path d="M 824.4 343.5 A 34.35 34.35 0 0 0 858.75 377.85 L 858.75 343.5" fill="#fdf0b1"/><rect x="858.75" y="343.5" width="34.35" height="34.35" fill="#fdf4c5"/><polygon points="858.75,343.5 893.1,343.5 893.1,377.85" fill="#ff9c9d"/><rect x="824.4" y="377.85" width="34.35" height="34.35" fill="#fffbfb"/><path d="M 824.4 377.85 A 34.35 34.35 0 0 1  858.75 412.20000000000005 L 824.4 377.85 A 34.35 34.35 0 0 0 858.75 412.20000000000005" fill="#ff6566"/><rect x="858.75" y="377.85" width="34.35" height="34.35" fill="#f0e98c"/><g transform="translate(858.75,377.85) scale(1.7175) rotate(0)"><path d="M13 0H20V7L7 20H0V13L13 0Z" fill="#ffffff"/></g><rect x="893.1" y="343.5" width="68.7" height="68.7" fill="#fadd51"/><g transform="translate(893.1,343.5) scale(3.435) rotate(0)"><path d="M13 0H20V7L7 20H0V13L13 0Z" fill="#f2ed9c"/></g><rect x="961.8" y="343.5" width="68.7" height="68.7" fill="#e3f6c7"/><polygon points="961.8,343.5 1030.5,343.5 961.8,412.2" fill="#f3fbe7"/><rect x="0" y="412.2" width="68.7" height="68.7" fill="#fef4c8"/><polygon points="0,412.2 68.7,480.9 0,480.9" fill="#ffacad"/><rect x="68.7" y="412.20000000000005" width="68.7" height="68.7" fill="#ffffff"/><rect x="68.7" y="412.2" width="34.35" height="34.35" fill="#f0fae1"/><polygon points="68.7,412.2 103.05000000000001,446.55 68.7,446.55" fill="#e8f7d2"/><rect x="103.05" y="412.2" width="34.35" height="34.35" fill="#ff8182"/><path d="M 103.05 446.55 A 34.35 34.35 0 0 1  137.4 412.2 L 103.05 446.55 A 34.35 34.35 0 0 0 137.4 412.2" fill="#f1ea91"/><rect x="68.7" y="446.55" width="34.35" height="34.35" fill="#e8f7d1"/><polygon points="68.7,446.55 103.05000000000001,480.90000000000003 68.7,480.90000000000003" fill="#ffacad"/><rect x="103.05" y="446.55" width="34.35" height="34.35" fill="#ffd1d1"/><polygon points="137.4,446.55 137.4,480.90000000000003 103.05,480.90000000000003" fill="#fefef9"/><rect x="137.4" y="412.2" width="68.7" height="68.7" fill="#fc9745"/><rect x="137.4" y="412.2" width="68.7" height="68.7" fill="#fffefe"/><rect x="206.10000000000002" y="412.20000000000005" width="68.7" height="68.7" fill="#ffffff"/><rect x="206.1" y="412.2" width="34.35" height="34.35" fill="#fce784"/><path d="M 206.1 446.55 A 34.35 34.35 0 0 1  240.45 412.2 L 206.1 446.55 A 34.35 34.35 0 0 0 240.45 412.2" fill="#f0e989"/><rect x="240.45" y="412.2" width="34.35" height="34.35" fill="#f9f6cf"/><g transform="translate(240.45,412.2) scale(1.7175) rotate(0)"><path d="M13 0H20V7L7 20H0V13L13 0Z" fill="#fdfefb"/></g><rect x="206.1" y="446.55" width="34.35" height="34.35" fill="#fda660"/><path d="M 206.1 446.55 A 34.35 34.35 0 0 1  240.45 480.90000000000003 L 206.1 446.55 A 34.35 34.35 0 0 0 240.45 480.90000000000003" fill="#ffeddf"/><rect x="240.45" y="446.55" width="34.35" height="34.35" fill="#fdc394"/><path d="M 240.45 446.55 A 34.35 34.35 0 0 0 274.8 480.90000000000003 L 274.8 446.55" fill="#e6f7cd"/><rect x="274.8" y="412.20000000000005" width="68.7" height="68.7" fill="#ffffff"/><rect x="274.8" y="412.2" width="34.35" height="34.35" fill="#fff4f4"/><g transform="translate(274.8,412.2) scale(1.7175) rotate(0)"><path d="M10 0L20 10L10 20L0 10L10 0Z" fill="#e4f6ca"/></g><rect x="309.15" y="412.2" width="34.35" height="34.35" fill="#f7fcf0"/><g transform="translate(309.15,412.2) scale(1.7175) rotate(0)"><path d="M10 0L20 10L10 20L0 10L10 0Z" fill="#f1eb94"/></g><rect x="274.8" y="446.55" width="34.35" height="34.35" fill="#f8f5c9"/><g transform="translate(274.8,446.55) scale(1.7175) rotate(0)"><path d="M13 0H20V7L7 20H0V13L13 0Z" fill="#fefef8"/></g><rect x="309.15" y="446.55" width="34.35" height="34.35" fill="#fefdf5"/><path d="M 309.15 446.55 A 34.35 34.35 0 0 1  343.5 480.90000000000003 L 309.15 446.55 A 34.35 34.35 0 0 0 343.5 480.90000000000003" fill="#fdfefb"/><rect x="343.5" y="412.2" width="68.7" height="68.7" fill="#fc9948"/><g transform="translate(343.5,412.2) scale(3.435) rotate(0)"><path d="M10 0L20 10L10 20L0 10L10 0Z" fill="#edf9db"/></g><rect x="412.20000000000005" y="412.20000000000005" width="68.7" height="68.7" fill="#ffffff"/><rect x="412.2" y="412.2" width="34.35" height="34.35" fill="#feddc2"/><polygon points="446.55,412.2 446.55,446.55 412.2,446.55" fill="#f7f3c0"/><rect x="446.55" y="412.2" width="34.35" height="34.35" fill="#f9d526"/><path d="M 446.55 412.2 A 34.35 34.35 0 0 1  480.90000000000003 446.55 L 446.55 412.2 A 34.35 34.35 0 0 0 480.90000000000003 446.55" fill="#fda65f"/><rect x="412.2" y="446.55" width="34.35" height="34.35" fill="#fcec9f"/><rect x="412.2" y="446.55" width="34.35" height="34.35" fill="#ff9e9f"/><rect x="446.55" y="446.55" width="34.35" height="34.35" fill="#f0e98c"/><g transform="translate(446.55,446.55) scale(1.7175) rotate(0)"><path d="M13 0H20V7L7 20H0V13L13 0Z" fill="#fdfcee"/></g><rect x="480.9" y="412.2" width="68.7" height="68.7" fill="#f0e98b"/><g transform="translate(480.9,412.2) scale(3.435) rotate(0)"><path d="M13 0H20V7L7 20H0V13L13 0Z" fill="#fafdf5"/></g><rect x="549.6" y="412.2" width="68.7" height="68.7" fill="#f0ea8d"/><g transform="translate(549.6,412.2) scale(3.435) rotate(0)"><path d="M13 0H20V7L7 20H0V13L13 0Z" fill="#efe882"/></g><rect x="618.3000000000001" y="412.20000000000005" width="68.7" height="68.7" fill="#ffffff"/><rect x="618.3" y="412.2" width="34.35" height="34.35" fill="#fdfefc"/><g transform="translate(618.3,412.2) scale(1.7175) rotate(0)"><path d="M13 0H20V7L7 20H0V13L13 0Z" fill="#fdab69"/></g><rect x="652.65" y="412.2" width="34.35" height="34.35" fill="#ffc0c1"/><polygon points="652.65,412.2 687,412.2 687,446.55" fill="#fefffd"/><rect x="618.3" y="446.55" width="34.35" height="34.35" fill="#f2fbe5"/><polygon points="618.3,446.55 652.65,446.55 652.65,480.90000000000003" fill="#fdefae"/><rect x="652.65" y="446.55" width="34.35" height="34.35" fill="#ffa9aa"/><g transform="translate(652.65,446.55) scale(1.7175) rotate(0)"><path d="M10 0L20 10L10 20L0 10L10 0Z" fill="#e8f7d2"/></g><rect x="687" y="412.2" width="68.7" height="68.7" fill="#fdf0b3"/><g transform="translate(687,412.2) scale(3.435) rotate(0)"><path d="M13 0H20V7L7 20H0V13L13 0Z" fill="#fffcf1"/></g><rect x="755.7" y="412.20000000000005" width="68.7" height="68.7" fill="#ffffff"/><rect x="755.7" y="412.2" width="34.35" height="34.35" fill="#fc9745"/><rect x="755.7" y="412.2" width="34.35" height="34.35" fill="#f0ea8c"/><rect x="790.05" y="412.2" width="34.35" height="34.35" fill="#fdab69"/><path d="M 790.05 446.55 A 34.35 34.35 0 0 0 824.4 412.2 L 790.05 412.2" fill="#fce783"/><rect x="755.7" y="446.55" width="34.35" height="34.35" fill="#fdbd89"/><rect x="755.7" y="446.55" width="34.35" height="34.35" fill="#fdeea8"/><rect x="790.05" y="446.55" width="34.35" height="34.35" fill="#fef4c8"/><g transform="translate(790.05,446.55) scale(1.7175) rotate(0)"><path d="M13 0H20V7L7 20H0V13L13 0Z" fill="#fdb67d"/></g><rect x="824.4" y="412.2" width="68.7" height="68.7" fill="#e5f6cb"/><path d="M 824.4 480.9 A 68.7 68.7 0 0 1  893.1 412.2 L 824.4 480.9 A 68.7 68.7 0 0 0 893.1 412.2" fill="#fadd54"/><rect x="893.1" y="412.2" width="68.7" height="68.7" fill="#ffc1c1"/><rect x="893.1" y="412.2" width="68.7" height="68.7" fill="#fefae3"/><rect x="961.8000000000001" y="412.20000000000005" width="68.7" height="68.7" fill="#ffffff"/><rect x="961.8" y="412.2" width="34.35" height="34.35" fill="#ff8d8e"/><polygon points="996.15,412.2 996.15,446.55 961.8,446.55" fill="#fee4ce"/><rect x="996.15" y="412.2" width="34.35" height="34.35" fill="#e6f7cd"/><g transform="translate(996.15,412.2) scale(1.7175) rotate(0)"><path d="M10 0L20 10L10 20L0 10L10 0Z" fill="#fed8ba"/></g><rect x="961.8" y="446.55" width="34.35" height="34.35" fill="#fffdfb"/><path d="M 961.8 446.55 A 34.35 34.35 0 0 0 996.15 480.90000000000003 L 996.15 446.55" fill="#e6f7ce"/><rect x="996.15" y="446.55" width="34.35" height="34.35" fill="#fff2f2"/><polygon points="1030.5,446.55 1030.5,480.90000000000003 996.15,480.90000000000003" fill="#f9d62f"/><rect x="0" y="480.9" width="68.7" height="68.7" fill="#ff8b8d"/><path d="M 0 480.9 A 68.7 68.7 0 0 1  68.7 549.6 L 0 480.9 A 68.7 68.7 0 0 0 68.7 549.6" fill="#fceda1"/><rect x="68.7" y="480.9" width="68.7" height="68.7" fill="#fdefac"/><path d="M 68.7 549.6 A 68.7 68.7 0 0 1  137.4 480.9 L 68.7 549.6 A 68.7 68.7 0 0 0 137.4 480.9" fill="#f8f5cc"/><rect x="137.4" y="480.9" width="68.7" height="68.7" fill="#ebf8d8"/><polygon points="137.4,480.9 206.10000000000002,549.6 137.4,549.6" fill="#f1eb95"/><rect x="206.1" y="480.9" width="68.7" height="68.7" fill="#fefffe"/><g transform="translate(206.1,480.9) scale(3.435) rotate(0)"><path d="M13 0H20V7L7 20H0V13L13 0Z" fill="#fff4eb"/></g><rect x="274.8" y="480.9" width="68.7" height="68.7" fill="#f4efa8"/><g transform="translate(274.8,480.9) scale(3.435) rotate(0)"><path d="M13 0H20V7L7 20H0V13L13 0Z" fill="#ffaeaf"/></g><rect x="343.5" y="480.9" width="68.7" height="68.7" fill="#fdf4c8"/><g transform="translate(343.5,480.9) scale(3.435) rotate(0)"><path d="M13 0H20V7L7 20H0V13L13 0Z" fill="#ffadad"/></g><rect x="412.20000000000005" y="480.90000000000003" width="68.7" height="68.7" fill="#ffffff"/><rect x="412.2" y="480.9" width="34.35" height="34.35" fill="#fdf4c5"/><g transform="translate(412.2,480.9) scale(1.7175) rotate(0)"><path d="M10 0L20 10L10 20L0 10L10 0Z" fill="#fda762"/></g><rect x="446.55" y="480.9" width="34.35" height="34.35" fill="#fdfcee"/><path d="M 446.55 480.9 A 34.35 34.35 0 0 1 480.90000000000003 515.25 L 446.55 515.25" fill="#fdbb84"/><rect x="412.2" y="515.25" width="34.35" height="34.35" fill="#f1eb92"/><g transform="translate(412.2,515.25) scale(1.7175) rotate(0)"><path d="M10 0L20 10L10 20L0 10L10 0Z" fill="#fc9541"/></g><rect x="446.55" y="515.25" width="34.35" height="34.35" fill="#faf8d8"/><g transform="translate(446.55,515.25) scale(1.7175) rotate(0)"><path d="M13 0H20V7L7 20H0V13L13 0Z" fill="#e6f7ce"/></g><rect x="480.90000000000003" y="480.90000000000003" width="68.7" height="68.7" fill="#ffffff"/><rect x="480.9" y="480.9" width="34.35" height="34.35" fill="#fdba83"/><path d="M 480.9 515.25 A 34.35 34.35 0 0 1  515.25 480.9 L 480.9 515.25 A 34.35 34.35 0 0 0 515.25 480.9" fill="#fff7f7"/><rect x="515.25" y="480.9" width="34.35" height="34.35" fill="#ffeeee"/><path d="M 515.25 515.25 A 34.35 34.35 0 0 1  549.6 480.9 L 515.25 515.25 A 34.35 34.35 0 0 0 549.6 480.9" fill="#f9fdf3"/><rect x="480.9" y="515.25" width="34.35" height="34.35" fill="#f5fceb"/><path d="M 480.9 515.25 A 34.35 34.35 0 0 1  515.25 549.6 L 480.9 515.25 A 34.35 34.35 0 0 0 515.25 549.6" fill="#fbe26b"/><rect x="515.25" y="515.25" width="34.35" height="34.35" fill="#ebf8d8"/><g transform="translate(515.25,515.25) scale(1.7175) rotate(0)"><path d="M10 0L20 10L10 20L0 10L10 0Z" fill="#ebf8d7"/></g><rect x="549.6" y="480.9" width="68.7" height="68.7" fill="#ffeee1"/><g transform="translate(549.6,480.9) scale(3.435) rotate(0)"><path d="M13 0H20V7L7 20H0V13L13 0Z" fill="#ff6062"/></g><rect x="618.3000000000001" y="480.90000000000003" width="68.7" height="68.7" fill="#ffffff"/><rect x="618.3" y="480.9" width="34.35" height="34.35" fill="#ffd4d4"/><g transform="translate(618.3,480.9) scale(1.7175) rotate(0)"><path d="M13 0H20V7L7 20H0V13L13 0Z" fill="#f0e987"/></g><rect x="652.65" y="480.9" width="34.35" height="34.35" fill="#efe987"/><g transform="translate(652.65,480.9) scale(1.7175) rotate(0)"><path d="M13 0H20V7L7 20H0V13L13 0Z" fill="#f5f1b4"/></g><rect x="618.3" y="515.25" width="34.35" height="34.35" fill="#f0fae2"/><path d="M 618.3 515.25 A 34.35 34.35 0 0 1  652.65 549.6 L 618.3 515.25 A 34.35 34.35 0 0 0 652.65 549.6" fill="#f8fdf2"/><rect x="652.65" y="515.25" width="34.35" height="34.35" fill="#f4efab"/><path d="M 652.65 515.25 A 34.35 34.35 0 0 1  687 549.6 L 652.65 515.25 A 34.35 34.35 0 0 0 687 549.6" fill="#fcec9e"/><rect x="687" y="480.9" width="68.7" height="68.7" fill="#faf8d8"/><rect x="687" y="480.9" width="68.7" height="68.7" fill="#ff8485"/><rect x="755.7" y="480.90000000000003" width="68.7" height="68.7" fill="#ffffff"/><rect x="755.7" y="480.9" width="34.35" height="34.35" fill="#e2f5c5"/><path d="M 755.7 480.9 A 34.35 34.35 0 0 1  790.0500000000001 515.25 L 755.7 480.9 A 34.35 34.35 0 0 0 790.0500000000001 515.25" fill="#efe885"/><rect x="790.05" y="480.9" width="34.35" height="34.35" fill="#fcec9f"/><path d="M 790.05 480.9 A 34.35 34.35 0 0 1 824.4 515.25 L 790.05 515.25" fill="#ffd8d9"/><rect x="755.7" y="515.25" width="34.35" height="34.35" fill="#f5f1b5"/><path d="M 755.7 549.6 A 34.35 34.35 0 0 1  790.0500000000001 515.25 L 790.0500000000001 549.6" fill="#fefef7"/><rect x="790.05" y="515.25" width="34.35" height="34.35" fill="#e5f6cc"/><g transform="translate(790.05,515.25) scale(1.7175) rotate(0)"><path d="M13 0H20V7L7 20H0V13L13 0Z" fill="#fefef7"/></g><rect x="824.4" y="480.9" width="68.7" height="68.7" fill="#faf8d7"/><g transform="translate(824.4,480.9) scale(3.435) rotate(0)"><path d="M13 0H20V7L7 20H0V13L13 0Z" fill="#fee0c7"/></g><rect x="893.1" y="480.90000000000003" width="68.7" height="68.7" fill="#ffffff"/><rect x="893.1" y="480.9" width="34.35" height="34.35" fill="#e7f7cf"/><path d="M 893.1 480.9 A 34.35 34.35 0 0 1  927.45 515.25 L 893.1 480.9 A 34.35 34.35 0 0 0 927.45 515.25" fill="#fdfdf2"/><rect x="927.45" y="480.9" width="34.35" height="34.35" fill="#fbf9de"/><rect x="927.45" y="480.9" width="34.35" height="34.35" fill="#f2fbe5"/><rect x="893.1" y="515.25" width="34.35" height="34.35" fill="#fffcfa"/><path d="M 893.1 515.25 A 34.35 34.35 0 0 1  927.45 549.6 L 893.1 515.25 A 34.35 34.35 0 0 0 927.45 549.6" fill="#fc9949"/><rect x="927.45" y="515.25" width="34.35" height="34.35" fill="#effae0"/><rect x="927.45" y="515.25" width="34.35" height="34.35" fill="#ff7c7d"/><rect x="961.8000000000001" y="480.90000000000003" width="68.7" height="68.7" fill="#ffffff"/><rect x="961.8" y="480.9" width="34.35" height="34.35" fill="#ffa2a3"/><g transform="translate(961.8,480.9) scale(1.7175) rotate(0)"><path d="M10 0L20 10L10 20L0 10L10 0Z" fill="#fda45c"/></g><rect x="996.15" y="480.9" width="34.35" height="34.35" fill="#fcfae4"/><polygon points="996.15,480.9 1030.5,515.25 996.15,515.25" fill="#ff9a9c"/><rect x="961.8" y="515.25" width="34.35" height="34.35" fill="#fadb47"/><rect x="961.8" y="515.25" width="34.35" height="34.35" fill="#ffe7e7"/><rect x="996.15" y="515.25" width="34.35" height="34.35" fill="#f0fae2"/><g transform="translate(996.15,515.25) scale(1.7175) rotate(0)"><path d="M10 0L20 10L10 20L0 10L10 0Z" fill="#fbe67d"/></g><rect x="0" y="549.6" width="68.7" height="68.7" fill="#ffffff"/><rect x="0" y="549.6" width="34.35" height="34.35" fill="#e9f8d3"/><rect x="0" y="549.6" width="34.35" height="34.35" fill="#ede576"/><rect x="34.35" y="549.6" width="34.35" height="34.35" fill="#e5f6cc"/><rect x="34.35" y="549.6" width="34.35" height="34.35" fill="#fff2e8"/><rect x="0" y="583.95" width="34.35" height="34.35" fill="#e2f5c6"/><g transform="translate(0,583.95) scale(1.7175) rotate(0)"><path d="M13 0H20V7L7 20H0V13L13 0Z" fill="#fade54"/></g><rect x="34.35" y="583.95" width="34.35" height="34.35" fill="#fcfef8"/><path d="M 34.35 618.3000000000001 A 34.35 34.35 0 0 1  68.7 583.95 L 34.35 618.3000000000001 A 34.35 34.35 0 0 0 68.7 583.95" fill="#fdb275"/><rect x="68.7" y="549.6" width="68.7" height="68.7" fill="#ffffff"/><rect x="68.7" y="549.6" width="34.35" height="34.35" fill="#eaf8d5"/><g transform="translate(68.7,549.6) scale(1.7175) rotate(0)"><path d="M13 0H20V7L7 20H0V13L13 0Z" fill="#eee679"/></g><rect x="103.05" y="549.6" width="34.35" height="34.35" fill="#fffdfd"/><path d="M 103.05 549.6 A 34.35 34.35 0 0 0 137.4 583.95 L 137.4 549.6" fill="#ff6b6d"/><rect x="68.7" y="583.95" width="34.35" height="34.35" fill="#fbe57b"/><path d="M 68.7 618.3000000000001 A 34.35 34.35 0 0 1  103.05000000000001 583.95 L 68.7 618.3000000000001 A 34.35 34.35 0 0 0 103.05000000000001 583.95" fill="#f2fbe5"/><rect x="103.05" y="583.95" width="34.35" height="34.35" fill="#fcfbe7"/><g transform="translate(103.05,583.95) scale(1.7175) rotate(0)"><path d="M13 0H20V7L7 20H0V13L13 0Z" fill="#e6f7ce"/></g><rect x="137.4" y="549.6" width="68.7" height="68.7" fill="#ffffff"/><rect x="137.4" y="549.6" width="34.35" height="34.35" fill="#fefbeb"/><g transform="translate(137.4,549.6) scale(1.7175) rotate(0)"><path d="M10 0L20 10L10 20L0 10L10 0Z" fill="#ffc6c7"/></g><rect x="171.75" y="549.6" width="34.35" height="34.35" fill="#ffedde"/><polygon points="171.75,549.6 206.1,549.6 171.75,583.95" fill="#f9d735"/><rect x="137.4" y="583.95" width="34.35" height="34.35" fill="#efe883"/><g transform="translate(137.4,583.95) scale(1.7175) rotate(0)"><path d="M10 0L20 10L10 20L0 10L10 0Z" fill="#fcfefa"/></g><rect x="171.75" y="583.95" width="34.35" height="34.35" fill="#fdaa67"/><g transform="translate(171.75,583.95) scale(1.7175) rotate(0)"><path d="M10 0L20 10L10 20L0 10L10 0Z" fill="#f9f6d1"/></g><rect x="206.10000000000002" y="549.6" width="68.7" height="68.7" fill="#ffffff"/><rect x="206.1" y="549.6" width="34.35" height="34.35" fill="#fc9c4d"/><g transform="translate(206.1,549.6) scale(1.7175) rotate(0)"><path d="M10 0L20 10L10 20L0 10L10 0Z" fill="#fdaf70"/></g><rect x="240.45" y="549.6" width="34.35" height="34.35" fill="#f2ed9e"/><rect x="240.45" y="549.6" width="34.35" height="34.35" fill="#e4f6ca"/><rect x="206.1" y="583.95" width="34.35" height="34.35" fill="#fadd52"/><path d="M 206.1 618.3000000000001 A 34.35 34.35 0 0 0 240.45 583.95 L 206.1 583.95" fill="#f6f3bd"/><rect x="240.45" y="583.95" width="34.35" height="34.35" fill="#f2fbe5"/><path d="M 240.45 583.95 A 34.35 34.35 0 0 1  274.8 618.3000000000001 L 240.45 583.95 A 34.35 34.35 0 0 0 274.8 618.3000000000001" fill="#ff6668"/><rect x="274.8" y="549.6" width="68.7" height="68.7" fill="#ffffff"/><rect x="274.8" y="549.6" width="34.35" height="34.35" fill="#fdaa68"/><rect x="274.8" y="549.6" width="34.35" height="34.35" fill="#ffa0a1"/><rect x="309.15" y="549.6" width="34.35" height="34.35" fill="#faf8d7"/><path d="M 309.15 549.6 A 34.35 34.35 0 0 1  343.5 583.95 L 309.15 549.6 A 34.35 34.35 0 0 0 343.5 583.95" fill="#ffd4d4"/><rect x="274.8" y="583.95" width="34.35" height="34.35" fill="#ff5254"/><path d="M 274.8 618.3000000000001 A 34.35 34.35 0 0 1  309.15000000000003 583.95 L 274.8 618.3000000000001 A 34.35 34.35 0 0 0 309.15000000000003 583.95" fill="#e5f6cc"/><rect x="309.15" y="583.95" width="34.35" height="34.35" fill="#e5f6cc"/><rect x="309.15" y="583.95" width="34.35" height="34.35" fill="#eaf8d6"/><rect x="343.5" y="549.6" width="68.7" height="68.7" fill="#ffffff"/><rect x="343.5" y="549.6" width="34.35" height="34.35" fill="#fc913a"/><path d="M 343.5 583.95 A 34.35 34.35 0 0 1  377.85 549.6 L 343.5 583.95 A 34.35 34.35 0 0 0 377.85 549.6" fill="#fee4d0"/><rect x="377.85" y="549.6" width="34.35" height="34.35" fill="#f2fbe6"/><g transform="translate(377.85,549.6) scale(1.7175) rotate(0)"><path d="M13 0H20V7L7 20H0V13L13 0Z" fill="#ff797b"/></g><rect x="343.5" y="583.95" width="34.35" height="34.35" fill="#fceca0"/><path d="M 343.5 583.95 A 34.35 34.35 0 0 1  377.85 618.3000000000001 L 343.5 583.95 A 34.35 34.35 0 0 0 377.85 618.3000000000001" fill="#fce991"/><rect x="377.85" y="583.95" width="34.35" height="34.35" fill="#ff4f51"/><path d="M 377.85 618.3000000000001 A 34.35 34.35 0 0 1  412.20000000000005 583.95 L 377.85 618.3000000000001 A 34.35 34.35 0 0 0 412.20000000000005 583.95" fill="#fdf0b0"/><rect x="412.2" y="549.6" width="68.7" height="68.7" fill="#fdb275"/><polygon points="412.2,549.6 480.9,549.6 480.9,618.3000000000001" fill="#f7fcef"/><rect x="480.90000000000003" y="549.6" width="68.7" height="68.7" fill="#ffffff"/><rect x="480.9" y="549.6" width="34.35" height="34.35" fill="#fdf1b8"/><path d="M 480.9 549.6 A 34.35 34.35 0 0 1  515.25 583.95 L 480.9 549.6 A 34.35 34.35 0 0 0 515.25 583.95" fill="#f6f2b8"/><rect x="515.25" y="549.6" width="34.35" height="34.35" fill="#ffbbbc"/><polygon points="515.25,549.6 549.6,549.6 549.6,583.95" fill="#f8f5cb"/><rect x="480.9" y="583.95" width="34.35" height="34.35" fill="#ff7f80"/><path d="M 480.9 618.3000000000001 A 34.35 34.35 0 0 1  515.25 583.95 L 480.9 618.3000000000001 A 34.35 34.35 0 0 0 515.25 583.95" fill="#ffc6c7"/><rect x="515.25" y="583.95" width="34.35" height="34.35" fill="#fdc394"/><g transform="translate(515.25,583.95) scale(1.7175) rotate(0)"><path d="M13 0H20V7L7 20H0V13L13 0Z" fill="#f6f1b7"/></g><rect x="549.6" y="549.6" width="68.7" height="68.7" fill="#ffffff"/><rect x="549.6" y="549.6" width="34.35" height="34.35" fill="#fdfefb"/><polygon points="549.6,549.6 583.95,549.6 549.6,583.95" fill="#ffbfc0"/><rect x="583.95" y="549.6" width="34.35" height="34.35" fill="#fefffc"/><g transform="translate(583.95,549.6) scale(1.7175) rotate(0)"><path d="M13 0H20V7L7 20H0V13L13 0Z" fill="#fffffe"/></g><rect x="549.6" y="583.95" width="34.35" height="34.35" fill="#fecca4"/><rect x="549.6" y="583.95" width="34.35" height="34.35" fill="#fef9df"/><rect x="583.95" y="583.95" width="34.35" height="34.35" fill="#ffb8b9"/><polygon points="583.95,583.95 618.3000000000001,583.95 583.95,618.3000000000001" fill="#f1eb94"/><rect x="618.3000000000001" y="549.6" width="68.7" height="68.7" fill="#ffffff"/><rect x="618.3" y="549.6" width="34.35" height="34.35" fill="#fcec9f"/><rect x="618.3" y="549.6" width="34.35" height="34.35" fill="#f5f0ae"/><rect x="652.65" y="549.6" width="34.35" height="34.35" fill="#fdfced"/><rect x="652.65" y="549.6" width="34.35" height="34.35" fill="#fad93b"/><rect x="618.3" y="583.95" width="34.35" height="34.35" fill="#e3f6c8"/><g transform="translate(618.3,583.95) scale(1.7175) rotate(0)"><path d="M10 0L20 10L10 20L0 10L10 0Z" fill="#f9fdf4"/></g><rect x="652.65" y="583.95" width="34.35" height="34.35" fill="#ff9495"/><rect x="652.65" y="583.95" width="34.35" height="34.35" fill="#f0fae2"/><rect x="687" y="549.6" width="68.7" height="68.7" fill="#fdeea6"/><g transform="translate(687,549.6) scale(3.435) rotate(0)"><path d="M13 0H20V7L7 20H0V13L13 0Z" fill="#fff4f5"/></g><rect x="755.7" y="549.6" width="68.7" height="68.7" fill="#fecfa9"/><path d="M 755.7 618.3000000000001 A 68.7 68.7 0 0 1  824.4000000000001 549.6 L 824.4000000000001 618.3000000000001" fill="#fdf4c6"/><rect x="824.4000000000001" y="549.6" width="68.7" height="68.7" fill="#ffffff"/><rect x="824.4" y="549.6" width="34.35" height="34.35" fill="#ffe4e4"/><path d="M 824.4 549.6 A 34.35 34.35 0 0 0 858.75 583.95 L 858.75 549.6" fill="#e7f7d0"/><rect x="858.75" y="549.6" width="34.35" height="34.35" fill="#fbe370"/><rect x="858.75" y="549.6" width="34.35" height="34.35" fill="#fadd52"/><rect x="824.4" y="583.95" width="34.35" height="34.35" fill="#ff5d5e"/><path d="M 824.4 618.3000000000001 A 34.35 34.35 0 0 1  858.75 583.95 L 824.4 618.3000000000001 A 34.35 34.35 0 0 0 858.75 583.95" fill="#f3fbe7"/><rect x="858.75" y="583.95" width="34.35" height="34.35" fill="#fee5d0"/><polygon points="858.75,583.95 893.1,583.95 893.1,618.3000000000001" fill="#fbe061"/><rect x="893.1" y="549.6" width="68.7" height="68.7" fill="#f5f1b5"/><g transform="translate(893.1,549.6) scale(3.435) rotate(0)"><path d="M10 0L20 10L10 20L0 10L10 0Z" fill="#ffc4c5"/></g><rect x="961.8000000000001" y="549.6" width="68.7" height="68.7" fill="#ffffff"/><rect x="961.8" y="549.6" width="34.35" height="34.35" fill="#fbdf5b"/><polygon points="961.8,549.6 996.15,583.95 961.8,583.95" fill="#fffefb"/><rect x="996.15" y="549.6" width="34.35" height="34.35" fill="#fff4eb"/><path d="M 996.15 583.95 A 34.35 34.35 0 0 1  1030.5 549.6 L 996.15 583.95 A 34.35 34.35 0 0 0 1030.5 549.6" fill="#fbf9e0"/><rect x="961.8" y="583.95" width="34.35" height="34.35" fill="#eaf8d6"/><path d="M 961.8 618.3000000000001 A 34.35 34.35 0 0 1  996.15 583.95 L 996.15 618.3000000000001" fill="#fdc393"/><rect x="996.15" y="583.95" width="34.35" height="34.35" fill="#ff4f51"/><path d="M 996.15 583.95 A 34.35 34.35 0 0 1  1030.5 618.3000000000001 L 996.15 583.95 A 34.35 34.35 0 0 0 1030.5 618.3000000000001" fill="#fef6d2"/><rect x="0" y="618.3" width="68.7" height="68.7" fill="#faf8d8"/><g transform="translate(0,618.3) scale(3.435) rotate(0)"><path d="M10 0L20 10L10 20L0 10L10 0Z" fill="#fdb47a"/></g><rect x="68.7" y="618.3" width="68.7" height="68.7" fill="#f9fdf3"/><path d="M 68.7 618.3 A 68.7 68.7 0 0 1  137.4 687 L 68.7 618.3 A 68.7 68.7 0 0 0 137.4 687" fill="#fef8d9"/><rect x="137.4" y="618.3000000000001" width="68.7" height="68.7" fill="#ffffff"/><rect x="137.4" y="618.3" width="34.35" height="34.35" fill="#fed7b7"/><polygon points="137.4,618.3 171.75,618.3 137.4,652.65" fill="#fffdf4"/><rect x="171.75" y="618.3" width="34.35" height="34.35" fill="#fcfbeb"/><polygon points="171.75,618.3 206.1,652.65 171.75,652.65" fill="#fdf4c5"/><rect x="137.4" y="652.65" width="34.35" height="34.35" fill="#f4efab"/><path d="M 137.4 687 A 34.35 34.35 0 0 1  171.75 652.65 L 137.4 687 A 34.35 34.35 0 0 0 171.75 652.65" fill="#fda761"/><rect x="171.75" y="652.65" width="34.35" height="34.35" fill="#fff8f3"/><rect x="171.75" y="652.65" width="34.35" height="34.35" fill="#f5fcec"/><rect x="206.1" y="618.3" width="68.7" height="68.7" fill="#fcfef9"/><g transform="translate(206.1,618.3) scale(3.435) rotate(0)"><path d="M10 0L20 10L10 20L0 10L10 0Z" fill="#eee67b"/></g><rect x="274.8" y="618.3" width="68.7" height="68.7" fill="#fbe371"/><rect x="274.8" y="618.3" width="68.7" height="68.7" fill="#fc9f53"/><rect x="343.5" y="618.3000000000001" width="68.7" height="68.7" fill="#ffffff"/><rect x="343.5" y="618.3" width="34.35" height="34.35" fill="#ffe4e4"/><g transform="translate(343.5,618.3) scale(1.7175) rotate(0)"><path d="M13 0H20V7L7 20H0V13L13 0Z" fill="#eef9dd"/></g><rect x="377.85" y="618.3" width="34.35" height="34.35" fill="#fecea7"/><polygon points="377.85,618.3 412.20000000000005,618.3 412.20000000000005,652.65" fill="#fbe269"/><rect x="343.5" y="652.65" width="34.35" height="34.35" fill="#fdc496"/><polygon points="377.85,652.65 377.85,687 343.5,687" fill="#f4fbe9"/><rect x="377.85" y="652.65" width="34.35" height="34.35" fill="#eee77f"/><rect x="377.85" y="652.65" width="34.35" height="34.35" fill="#fedbbf"/><rect x="412.2" y="618.3" width="68.7" height="68.7" fill="#f9d835"/><g transform="translate(412.2,618.3) scale(3.435) rotate(0)"><path d="M13 0H20V7L7 20H0V13L13 0Z" fill="#fbe167"/></g><rect x="480.90000000000003" y="618.3000000000001" width="68.7" height="68.7" fill="#ffffff"/><rect x="480.9" y="618.3" width="34.35" height="34.35" fill="#fceda2"/><g transform="translate(480.9,618.3) scale(1.7175) rotate(0)"><path d="M13 0H20V7L7 20H0V13L13 0Z" fill="#ff5f61"/></g><rect x="515.25" y="618.3" width="34.35" height="34.35" fill="#fdb071"/><g transform="translate(515.25,618.3) scale(1.7175) rotate(0)"><path d="M10 0L20 10L10 20L0 10L10 0Z" fill="#f9d62b"/></g><rect x="480.9" y="652.65" width="34.35" height="34.35" fill="#fcfbe8"/><polygon points="480.9,652.65 515.25,652.65 515.25,687" fill="#f0fae2"/><rect x="515.25" y="652.65" width="34.35" height="34.35" fill="#fdc394"/><path d="M 515.25 652.65 A 34.35 34.35 0 0 1  549.6 687 L 515.25 652.65 A 34.35 34.35 0 0 0 549.6 687" fill="#ebf8d8"/><rect x="549.6" y="618.3" width="68.7" height="68.7" fill="#ff8d8f"/><polygon points="549.6,618.3 618.3000000000001,687 549.6,687" fill="#fca259"/><rect x="618.3000000000001" y="618.3000000000001" width="68.7" height="68.7" fill="#ffffff"/><rect x="618.3" y="618.3" width="34.35" height="34.35" fill="#fbf9e1"/><g transform="translate(618.3,618.3) scale(1.7175) rotate(0)"><path d="M10 0L20 10L10 20L0 10L10 0Z" fill="#fdfbec"/></g><rect x="652.65" y="618.3" width="34.35" height="34.35" fill="#fef5cd"/><path d="M 652.65 618.3 A 34.35 34.35 0 0 1  687 652.65 L 652.65 618.3 A 34.35 34.35 0 0 0 687 652.65" fill="#e2f5c6"/><rect x="618.3" y="652.65" width="34.35" height="34.35" fill="#fed4b2"/><g transform="translate(618.3,652.65) scale(1.7175) rotate(0)"><path d="M10 0L20 10L10 20L0 10L10 0Z" fill="#fef5cd"/></g><rect x="652.65" y="652.65" width="34.35" height="34.35" fill="#fefefa"/><polygon points="652.65,652.65 687,652.65 687,687" fill="#e4f6c9"/><rect x="687" y="618.3" width="68.7" height="68.7" fill="#fef4c8"/><rect x="687" y="618.3" width="68.7" height="68.7" fill="#f2ec98"/><rect x="755.7" y="618.3" width="68.7" height="68.7" fill="#f1fae4"/><g transform="translate(755.7,618.3) scale(3.435) rotate(0)"><path d="M10 0L20 10L10 20L0 10L10 0Z" fill="#ffdede"/></g><rect x="824.4" y="618.3" width="68.7" height="68.7" fill="#fecda6"/><g transform="translate(824.4,618.3) scale(3.435) rotate(0)"><path d="M13 0H20V7L7 20H0V13L13 0Z" fill="#eee77d"/></g><rect x="893.1" y="618.3000000000001" width="68.7" height="68.7" fill="#ffffff"/><rect x="893.1" y="618.3" width="34.35" height="34.35" fill="#f7f4c3"/><g transform="translate(893.1,618.3) scale(1.7175) rotate(0)"><path d="M13 0H20V7L7 20H0V13L13 0Z" fill="#fad839"/></g><rect x="927.45" y="618.3" width="34.35" height="34.35" fill="#e4f6ca"/><path d="M 927.45 652.65 A 34.35 34.35 0 0 1  961.8000000000001 618.3 L 927.45 652.65 A 34.35 34.35 0 0 0 961.8000000000001 618.3" fill="#ebf8d7"/><rect x="893.1" y="652.65" width="34.35" height="34.35" fill="#ecf9db"/><g transform="translate(893.1,652.65) scale(1.7175) rotate(0)"><path d="M13 0H20V7L7 20H0V13L13 0Z" fill="#eee67a"/></g><rect x="927.45" y="652.65" width="34.35" height="34.35" fill="#ff6567"/><g transform="translate(927.45,652.65) scale(1.7175) rotate(0)"><path d="M13 0H20V7L7 20H0V13L13 0Z" fill="#f2fbe6"/></g><rect x="961.8000000000001" y="618.3000000000001" width="68.7" height="68.7" fill="#ffffff"/><rect x="961.8" y="618.3" width="34.35" height="34.35" fill="#fc933e"/><path d="M 961.8 652.65 A 34.35 34.35 0 0 1  996.15 618.3 L 996.15 652.65" fill="#fcfef8"/><rect x="996.15" y="618.3" width="34.35" height="34.35" fill="#fffffd"/><path d="M 996.15 652.65 A 34.35 34.35 0 0 1  1030.5 618.3 L 996.15 652.65 A 34.35 34.35 0 0 0 1030.5 618.3" fill="#fcea92"/><rect x="961.8" y="652.65" width="34.35" height="34.35" fill="#f4f0ad"/><polygon points="961.8,652.65 996.15,652.65 961.8,687" fill="#fbfef6"/><rect x="996.15" y="652.65" width="34.35" height="34.35" fill="#ede577"/><path d="M 996.15 687 A 34.35 34.35 0 0 1  1030.5 652.65 L 996.15 687 A 34.35 34.35 0 0 0 1030.5 652.65" fill="#fef8db"/></g></svg>