<svg width="2847" height="4351" viewBox="0 0 2847 4351" fill="none" xmlns="http://www.w3.org/2000/svg">
<path d="M1251.67 89.3223H1591.46C1592.02 89.3223 1592.46 89.77 1592.46 90.3223V217.496H2739.2C2739.75 217.496 2740.2 217.943 2740.2 218.496V573.827C2740.2 574.379 2739.75 574.827 2739.2 574.827H2582.89C2582.89 3217.02 2740.09 3217.91 2740.2 4234.5C2740.2 4235.05 2739.75 4235.53 2739.2 4235.53H113.645C113.092 4235.53 112.645 4235.06 112.645 4234.5C112.759 3202.37 285.484 3191.8 285.484 574.827H113.645C113.092 574.827 112.645 574.379 112.645 573.827V218.496C112.645 217.943 113.092 217.496 113.645 217.496H1250.67V90.3223C1250.67 89.77 1251.12 89.3223 1251.67 89.3223Z" fill="#D2AC83"/>
<path d="M1250.67 217.496V90.3223C1250.67 89.77 1251.12 89.3223 1251.67 89.3223H1591.46C1592.02 89.3223 1592.46 89.77 1592.46 90.3223V217.496M1250.67 217.496H113.645C113.092 217.496 112.645 217.943 112.645 218.496V573.827C112.645 574.379 113.092 574.827 113.645 574.827H285.484M1250.67 217.496V574.827M565.135 574.827H285.484M675.83 574.827H737.975M848.67 574.827H1250.67M1250.67 574.827V773.855C1250.67 774.407 1251.12 774.855 1251.67 774.855H1591.46C1592.02 774.855 1592.46 774.407 1592.46 773.855V574.827M1592.46 574.827V217.496M1592.46 574.827H2582.89M1592.46 217.496H2739.2C2739.75 217.496 2740.2 217.943 2740.2 218.496V573.827C2740.2 574.379 2739.75 574.827 2739.2 574.827H2582.89M2081.5 1767V1213.5C2081.5 1212.95 2081.05 1212.5 2080.5 1212.5H767.5C766.948 1212.5 766.5 1212.95 766.5 1213.5V3828C766.5 3828.55 766.948 3829 767.5 3829H2080.5C2081.05 3829 2081.5 3828.55 2081.5 3828V1952.5M285.484 574.827C285.484 3191.8 112.759 3202.37 112.645 4234.5C112.645 4235.06 113.092 4235.53 113.645 4235.53H2739.2C2739.75 4235.53 2740.2 4235.05 2740.2 4234.5C2740.09 3217.91 2582.89 3217.02 2582.89 574.827" stroke="black" stroke-width="20"/>
<g clip-path="url(#clip0_888_12674)">
<rect width="1300" height="2600" transform="translate(773 1219)" fill="#D2AC83"/>
<path d="M2073 1219H773V3819H2073V1219Z" fill="white"/>
<path d="M958.699 1219H773V1404.7H958.699V1219Z" fill="#F9F7D3"/>
<path d="M773 1404.7C773 1355.45 792.565 1308.22 827.39 1273.39C862.215 1238.56 909.449 1219 958.699 1219L773 1404.7C822.251 1404.7 869.484 1385.13 904.309 1350.31C939.135 1315.48 958.699 1268.25 958.699 1219" fill="#FFECEC"/>
<path d="M1144.4 1219H958.699V1404.7H1144.4V1219Z" fill="#FAD837"/>
<path d="M1005.12 1219H1051.55L1005.12 1265.42L958.699 1311.85V1265.42L1005.12 1219Z" fill="#FBE063"/>
<path d="M1144.4 1358.28V1404.7H1097.97L1144.4 1358.28Z" fill="#FBE063"/>
<path d="M1144.4 1265.43V1311.85L1097.97 1358.28L1051.55 1404.7H1005.12L1144.4 1265.43Z" fill="#FBE063"/>
<path d="M1097.97 1219H1144.4L1005.12 1358.28L958.699 1404.7V1358.28L1097.97 1219Z" fill="#FBE063"/>
<path d="M1330.13 1219H1144.43V1404.7H1330.13V1219Z" fill="#FBF9E0"/>
<path d="M1190.86 1219H1237.28L1190.86 1265.42L1144.43 1311.85V1265.42L1190.86 1219Z" fill="#EEE67C"/>
<path d="M1330.13 1358.28V1404.7H1283.71L1330.13 1358.28Z" fill="#EEE67C"/>
<path d="M1330.13 1265.43V1311.85L1283.71 1358.28L1237.28 1404.7H1190.86L1330.13 1265.43Z" fill="#EEE67C"/>
<path d="M1283.71 1219H1330.13L1190.86 1358.28L1144.43 1404.7V1358.28L1283.71 1219Z" fill="#EEE67C"/>
<path d="M1515.83 1219H1330.13V1404.7H1515.83V1219Z" fill="#FF9798"/>
<path d="M1330.13 1219L1515.83 1404.7H1330.13V1219Z" fill="#FADC4D"/>
<path d="M1701.57 1219H1515.86V1404.71H1701.57V1219Z" fill="white"/>
<path d="M1608.73 1219H1515.87V1311.87H1608.73V1219Z" fill="#FED6B5"/>
<path d="M1562.3 1219L1608.73 1265.43L1562.3 1311.87L1515.87 1265.43L1562.3 1219Z" fill="#FFD2D3"/>
<path d="M1701.57 1219H1608.7V1311.87H1701.57V1219Z" fill="#E5F6CC"/>
<path d="M1608.7 1311.87C1633.33 1311.87 1656.95 1302.08 1674.37 1284.67C1691.78 1267.25 1701.57 1243.63 1701.57 1219H1608.7" fill="#FECFAA"/>
<path d="M1608.73 1311.87H1515.87V1404.73H1608.73V1311.87Z" fill="#FED0AB"/>
<path d="M1562.3 1311.87L1608.73 1358.3L1562.3 1404.73L1515.87 1358.3L1562.3 1311.87Z" fill="#FDFEFA"/>
<path d="M1701.57 1311.87H1608.7V1404.73H1701.57V1311.87Z" fill="#EAF8D6"/>
<path d="M1631.92 1311.87H1655.13L1631.92 1335.08L1608.7 1358.3V1335.08L1631.92 1311.87Z" fill="#F2EC9A"/>
<path d="M1701.57 1381.52V1404.73H1678.35L1701.57 1381.52Z" fill="#F2EC9A"/>
<path d="M1701.57 1335.08V1358.3L1678.35 1381.52L1655.13 1404.73H1631.92L1701.57 1335.08Z" fill="#F2EC9A"/>
<path d="M1678.35 1311.87H1701.57L1631.92 1381.52L1608.7 1404.74V1381.52L1678.35 1311.87Z" fill="#F2EC9A"/>
<path d="M1887.27 1219H1701.57V1404.7H1887.27V1219Z" fill="#FFA4A5"/>
<path d="M1701.57 1219L1887.27 1404.7H1701.57V1219Z" fill="#EAF8D5"/>
<path d="M2073 1219H1887.3V1404.7H2073V1219Z" fill="#F0E989"/>
<path d="M1887.3 1219C1936.55 1219 1983.78 1238.56 2018.61 1273.39C2053.44 1308.22 2073 1355.45 2073 1404.7L1887.3 1219C1887.3 1268.25 1906.87 1315.48 1941.69 1350.31C1976.52 1385.13 2023.75 1404.7 2073 1404.7" fill="#FCFBEA"/>
<path d="M958.699 1404.7H773V1590.4H958.699V1404.7Z" fill="#E2F5C6"/>
<path d="M958.699 1404.7H773V1590.4H958.699V1404.7Z" fill="#EFE780"/>
<path d="M1144.4 1404.7H958.699V1590.4H1144.4V1404.7Z" fill="#F4FBEA"/>
<path d="M1144.4 1404.7H958.699V1590.4H1144.4V1404.7Z" fill="#EFE780"/>
<path d="M1330.14 1404.71H1144.43V1590.43H1330.14V1404.71Z" fill="white"/>
<path d="M1237.3 1404.7H1144.43V1497.57H1237.3V1404.7Z" fill="#FF999A"/>
<path d="M1237.3 1404.7H1144.43V1497.57H1237.3V1404.7Z" fill="#F9F7D3"/>
<path d="M1330.17 1404.7H1237.3V1497.57H1330.17V1404.7Z" fill="#E9F8D3"/>
<path d="M1330.17 1404.7V1497.57H1237.3L1330.17 1404.7Z" fill="#F9D62D"/>
<path d="M1237.3 1497.57H1144.43V1590.43H1237.3V1497.57Z" fill="#FEFFFC"/>
<path d="M1144.43 1497.57C1144.43 1522.2 1154.22 1545.82 1171.63 1563.23C1189.05 1580.65 1212.67 1590.43 1237.3 1590.43V1497.57" fill="#F3EEA4"/>
<path d="M1330.17 1497.57H1237.3V1590.43H1330.17V1497.57Z" fill="#F2ED9D"/>
<path d="M1330.17 1497.57H1237.3V1590.43H1330.17V1497.57Z" fill="#FF5556"/>
<path d="M1515.86 1404.71H1330.14V1590.43H1515.86V1404.71Z" fill="white"/>
<path d="M1423 1404.7H1330.13V1497.57H1423V1404.7Z" fill="#FFC3C4"/>
<path d="M1353.35 1404.7H1376.57L1353.35 1427.92L1330.13 1451.13V1427.92L1353.35 1404.7Z" fill="#FDFDF3"/>
<path d="M1423 1474.35V1497.57H1399.78L1423 1474.35Z" fill="#FDFDF3"/>
<path d="M1423 1427.92V1451.13L1399.78 1474.35L1376.57 1497.57H1353.35L1423 1427.92Z" fill="#FDFDF3"/>
<path d="M1399.78 1404.7H1423L1353.35 1474.35L1330.13 1497.57V1474.35L1399.78 1404.7Z" fill="#FDFDF3"/>
<path d="M1515.87 1404.7H1423V1497.57H1515.87V1404.7Z" fill="#FEF6D1"/>
<path d="M1423 1404.7H1515.87V1497.57L1423 1404.7Z" fill="#FCEDA2"/>
<path d="M1423 1497.57H1330.13V1590.43H1423V1497.57Z" fill="#FF999A"/>
<path d="M1330.13 1497.57C1354.76 1497.57 1378.38 1507.35 1395.8 1524.77C1413.22 1542.18 1423 1565.8 1423 1590.43L1330.13 1497.57C1330.13 1509.76 1332.53 1521.84 1337.2 1533.11C1341.87 1544.37 1348.71 1554.61 1357.33 1563.23C1365.96 1571.86 1376.19 1578.7 1387.46 1583.36C1398.73 1588.03 1410.8 1590.43 1423 1590.43" fill="#FEE3CD"/>
<path d="M1515.87 1497.57H1423V1590.43H1515.87V1497.57Z" fill="#FC9643"/>
<path d="M1515.87 1497.57H1423V1590.43H1515.87V1497.57Z" fill="#FDBD88"/>
<path d="M1701.57 1404.71H1515.86V1590.43H1701.57V1404.71Z" fill="white"/>
<path d="M1608.73 1404.7H1515.87V1497.57H1608.73V1404.7Z" fill="#FFFBF9"/>
<path d="M1539.08 1404.7H1562.3L1539.08 1427.92L1515.87 1451.13V1427.92L1539.08 1404.7Z" fill="#FF6C6E"/>
<path d="M1608.73 1474.35V1497.57H1585.52L1608.73 1474.35Z" fill="#FF6C6E"/>
<path d="M1608.73 1427.92V1451.13L1585.52 1474.35L1562.3 1497.57H1539.08L1608.73 1427.92Z" fill="#FF6C6E"/>
<path d="M1585.52 1404.7H1608.73L1539.08 1474.35L1515.87 1497.57V1474.35L1585.52 1404.7Z" fill="#FF6C6E"/>
<path d="M1701.57 1404.7H1608.7V1497.57H1701.57V1404.7Z" fill="#FDF3C2"/>
<path d="M1608.7 1497.57C1633.33 1497.57 1656.95 1487.78 1674.37 1470.37C1691.78 1452.95 1701.57 1429.33 1701.57 1404.7H1608.7" fill="#FEE9D7"/>
<path d="M1608.73 1497.57H1515.87V1590.43H1608.73V1497.57Z" fill="#FDB376"/>
<path d="M1515.87 1497.57C1528.06 1497.57 1540.14 1499.97 1551.41 1504.64C1562.67 1509.3 1572.91 1516.14 1581.53 1524.77C1590.16 1533.39 1597 1543.63 1601.67 1554.89C1606.33 1566.16 1608.73 1578.24 1608.73 1590.43L1515.87 1497.57C1515.87 1522.2 1525.65 1545.82 1543.07 1563.23C1560.48 1580.65 1584.1 1590.43 1608.73 1590.43" fill="#FF6E6F"/>
<path d="M1701.57 1497.57H1608.7V1590.43H1701.57V1497.57Z" fill="#FFFDFC"/>
<path d="M1631.92 1497.57H1655.13L1631.92 1520.78L1608.7 1544V1520.78L1631.92 1497.57Z" fill="#E9F8D4"/>
<path d="M1701.57 1567.22V1590.43H1678.35L1701.57 1567.22Z" fill="#E9F8D4"/>
<path d="M1701.57 1520.78V1544L1678.35 1567.22L1655.13 1590.43H1631.92L1701.57 1520.78Z" fill="#E9F8D4"/>
<path d="M1678.35 1497.57H1701.57L1631.92 1567.22L1608.7 1590.43V1567.22L1678.35 1497.57Z" fill="#E9F8D4"/>
<path d="M1887.29 1404.71H1701.57V1590.43H1887.29V1404.71Z" fill="white"/>
<path d="M1794.43 1404.7H1701.57V1497.57H1794.43V1404.7Z" fill="#FEF6D3"/>
<path d="M1724.78 1404.7H1748L1724.78 1427.92L1701.57 1451.13V1427.92L1724.78 1404.7Z" fill="#FF9293"/>
<path d="M1794.43 1474.35V1497.57H1771.22L1794.43 1474.35Z" fill="#FF9293"/>
<path d="M1794.43 1427.92V1451.13L1771.22 1474.35L1748 1497.57H1724.78L1794.43 1427.92Z" fill="#FF9293"/>
<path d="M1771.22 1404.7H1794.43L1724.78 1474.35L1701.57 1497.57V1474.35L1771.22 1404.7Z" fill="#FF9293"/>
<path d="M1887.3 1404.7H1794.43V1497.57H1887.3V1404.7Z" fill="#EEE67C"/>
<path d="M1887.3 1404.7H1794.43V1497.57H1887.3V1404.7Z" fill="#F1EA90"/>
<path d="M1794.43 1497.57H1701.57V1590.43H1794.43V1497.57Z" fill="#FEE8D6"/>
<path d="M1701.57 1497.57C1726.2 1497.57 1749.82 1507.35 1767.23 1524.77C1784.65 1542.18 1794.43 1565.8 1794.43 1590.43L1701.57 1497.57C1701.57 1509.76 1703.97 1521.84 1708.64 1533.11C1713.3 1544.37 1720.14 1554.61 1728.77 1563.23C1737.39 1571.86 1747.63 1578.7 1758.89 1583.36C1770.16 1588.03 1782.24 1590.43 1794.43 1590.43" fill="#FFB8B9"/>
<path d="M1887.3 1497.57H1794.43V1590.43H1887.3V1497.57Z" fill="#FF7D7E"/>
<path d="M1794.43 1497.57C1794.43 1522.2 1804.22 1545.82 1821.63 1563.23C1839.05 1580.65 1862.67 1590.43 1887.3 1590.43V1497.57" fill="#FEE0C7"/>
<path d="M2073 1404.7H1887.3V1590.4H2073V1404.7Z" fill="#E3F6C8"/>
<path d="M1887.3 1590.4C1887.3 1541.15 1906.87 1493.91 1941.69 1459.09C1976.52 1424.26 2023.75 1404.7 2073 1404.7L1887.3 1590.4C1936.55 1590.4 1983.78 1570.83 2018.61 1536.01C2053.44 1501.18 2073 1453.95 2073 1404.7" fill="#F4FBE9"/>
<path d="M958.699 1590.43H773V1776.13H958.699V1590.43Z" fill="#FEFBE9"/>
<path d="M773 1590.43H958.699L773 1776.13V1590.43Z" fill="#FFC5C6"/>
<path d="M1144.4 1590.43H958.699V1776.13H1144.4V1590.43Z" fill="#FCA054"/>
<path d="M1005.12 1590.43H1051.55L1005.12 1636.86L958.699 1683.28V1636.86L1005.12 1590.43Z" fill="#FED5B3"/>
<path d="M1144.4 1729.71V1776.13H1097.97L1144.4 1729.71Z" fill="#FED5B3"/>
<path d="M1144.4 1636.86V1683.28L1097.97 1729.71L1051.55 1776.13H1005.12L1144.4 1636.86Z" fill="#FED5B3"/>
<path d="M1097.97 1590.43H1144.4L1005.12 1729.71L958.699 1776.13V1729.71L1097.97 1590.43Z" fill="#FED5B3"/>
<path d="M1330.14 1590.43H1144.43V1776.14H1330.14V1590.43Z" fill="white"/>
<path d="M1237.3 1590.43H1144.43V1683.3H1237.3V1590.43Z" fill="#F5F1B4"/>
<path d="M1167.65 1590.43H1190.87L1167.65 1613.65L1144.43 1636.87V1613.65L1167.65 1590.43Z" fill="#FF6668"/>
<path d="M1237.3 1660.08V1683.3H1214.08L1237.3 1660.08Z" fill="#FF6668"/>
<path d="M1237.3 1613.65V1636.87L1214.08 1660.08L1190.87 1683.3H1167.65L1237.3 1613.65Z" fill="#FF6668"/>
<path d="M1214.08 1590.43H1237.3L1167.65 1660.08L1144.43 1683.3V1660.08L1214.08 1590.43Z" fill="#FF6668"/>
<path d="M1330.17 1590.43H1237.3V1683.3H1330.17V1590.43Z" fill="#F8F5C9"/>
<path d="M1237.3 1590.43L1330.17 1683.3H1237.3V1590.43Z" fill="#EEF9DE"/>
<path d="M1237.3 1683.3H1144.43V1776.17H1237.3V1683.3Z" fill="#EEF9DE"/>
<path d="M1190.87 1683.3L1237.3 1729.73L1190.87 1776.17L1144.43 1729.73L1190.87 1683.3Z" fill="#FFB6B7"/>
<path d="M1330.17 1683.3H1237.3V1776.17H1330.17V1683.3Z" fill="#F5F1B5"/>
<path d="M1283.73 1683.3L1330.17 1729.73L1283.73 1776.17L1237.3 1729.73L1283.73 1683.3Z" fill="#F2EC9B"/>
<path d="M1515.83 1590.43H1330.13V1776.13H1515.83V1590.43Z" fill="#FF898B"/>
<path d="M1330.13 1776.13C1330.13 1751.75 1334.94 1727.6 1344.27 1705.07C1353.6 1682.54 1367.28 1662.07 1384.52 1644.82C1419.35 1610 1466.58 1590.43 1515.83 1590.43L1330.13 1776.13C1354.52 1776.13 1378.67 1771.33 1401.2 1762C1423.73 1752.67 1444.2 1738.99 1461.44 1721.74C1478.69 1704.5 1492.36 1684.03 1501.7 1661.5C1511.03 1638.97 1515.83 1614.82 1515.83 1590.43" fill="#FFFFFE"/>
<path d="M1701.57 1590.43H1515.86V1776.14H1701.57V1590.43Z" fill="white"/>
<path d="M1608.73 1590.43H1515.87V1683.3H1608.73V1590.43Z" fill="#FFC0C1"/>
<path d="M1515.87 1590.43H1608.73L1515.87 1683.3V1590.43Z" fill="#EFFAE0"/>
<path d="M1701.57 1590.43H1608.7V1683.3H1701.57V1590.43Z" fill="#FF6D6F"/>
<path d="M1701.57 1590.43H1608.7V1683.3H1701.57V1590.43Z" fill="#F5FCEB"/>
<path d="M1608.73 1683.3H1515.87V1776.17H1608.73V1683.3Z" fill="#F3EDA1"/>
<path d="M1515.87 1683.3H1608.73L1515.87 1776.17V1683.3Z" fill="#E1F5C5"/>
<path d="M1701.57 1683.3H1608.7V1776.17H1701.57V1683.3Z" fill="#FDFCED"/>
<path d="M1701.57 1683.3H1608.7V1776.17H1701.57V1683.3Z" fill="#FBE36F"/>
<path d="M1887.27 1590.43H1701.57V1776.13H1887.27V1590.43Z" fill="#FDEFAB"/>
<path d="M1887.27 1590.43H1701.57V1776.13H1887.27V1590.43Z" fill="#FF6B6C"/>
<path d="M2073 1590.43H1887.3V1776.13H2073V1590.43Z" fill="#FDBC87"/>
<path d="M2073 1590.43H1887.3V1776.13H2073V1590.43Z" fill="#EFE781"/>
<path d="M958.699 1776.13H773V1961.83H958.699V1776.13Z" fill="#FAF7D7"/>
<path d="M865.85 1776.13L958.699 1868.98L865.85 1961.83L773 1868.98L865.85 1776.13Z" fill="#FDAB68"/>
<path d="M1144.4 1776.13H958.699V1961.83H1144.4V1776.13Z" fill="#FDA965"/>
<path d="M1051.55 1776.13L1144.4 1868.98L1051.55 1961.83L958.699 1868.98L1051.55 1776.13Z" fill="#FDF2BE"/>
<path d="M1330.13 1776.13H1144.43V1961.83H1330.13V1776.13Z" fill="#F7F3C1"/>
<path d="M1144.43 1961.83C1144.43 1912.58 1164 1865.35 1198.82 1830.52C1233.65 1795.7 1280.88 1776.13 1330.13 1776.13L1144.43 1961.83C1168.82 1961.83 1192.97 1957.03 1215.5 1947.7C1238.03 1938.36 1258.5 1924.69 1275.74 1907.44C1292.99 1890.2 1306.67 1869.73 1316 1847.2C1325.33 1824.67 1330.13 1800.52 1330.13 1776.13" fill="#FDF1B7"/>
<path d="M1515.83 1776.13H1330.13V1961.83H1515.83V1776.13Z" fill="#EDF9DC"/>
<path d="M1376.56 1776.13H1422.98L1376.56 1822.56L1330.13 1868.98V1822.56L1376.56 1776.13Z" fill="#FDB275"/>
<path d="M1515.83 1915.41V1961.83H1469.41L1515.83 1915.41Z" fill="#FDB275"/>
<path d="M1515.83 1822.56V1868.98L1469.41 1915.41L1422.98 1961.83H1376.56L1515.83 1822.56Z" fill="#FDB275"/>
<path d="M1469.41 1776.13H1515.83L1376.56 1915.41L1330.13 1961.83V1915.41L1469.41 1776.13Z" fill="#FDB275"/>
<path d="M1701.57 1776.14H1515.86V1961.86H1701.57V1776.14Z" fill="white"/>
<path d="M1608.73 1776.13H1515.87V1869H1608.73V1776.13Z" fill="#E4F6C9"/>
<path d="M1515.87 1869C1515.87 1856.8 1518.27 1844.73 1522.94 1833.46C1527.6 1822.19 1534.44 1811.96 1543.07 1803.33C1551.69 1794.71 1561.93 1787.87 1573.2 1783.2C1584.46 1778.53 1596.54 1776.13 1608.73 1776.13L1515.87 1869C1528.06 1869 1540.14 1866.6 1551.41 1861.93C1562.67 1857.26 1572.91 1850.42 1581.53 1841.8C1590.16 1833.18 1597 1822.94 1601.67 1811.67C1606.33 1800.4 1608.73 1788.33 1608.73 1776.13" fill="#FCE990"/>
<path d="M1701.57 1776.13H1608.7V1869H1701.57V1776.13Z" fill="#FECCA3"/>
<path d="M1608.7 1776.13H1701.57V1869L1608.7 1776.13Z" fill="#FADE55"/>
<path d="M1608.73 1869H1515.87V1961.87H1608.73V1869Z" fill="#FF6567"/>
<path d="M1539.08 1869H1562.3L1539.08 1892.22L1515.87 1915.43V1892.22L1539.08 1869Z" fill="#FF5658"/>
<path d="M1608.73 1938.65V1961.87H1585.52L1608.73 1938.65Z" fill="#FF5658"/>
<path d="M1608.73 1892.22V1915.43L1585.52 1938.65L1562.3 1961.87H1539.08L1608.73 1892.22Z" fill="#FF5658"/>
<path d="M1585.52 1869H1608.73L1539.08 1938.65L1515.87 1961.87V1938.65L1585.52 1869Z" fill="#FF5658"/>
<path d="M1701.57 1869H1608.7V1961.87H1701.57V1869Z" fill="#F9F6CF"/>
<path d="M1608.7 1869C1633.33 1869 1656.95 1878.78 1674.37 1896.2C1691.78 1913.62 1701.57 1937.24 1701.57 1961.87L1608.7 1869C1608.7 1893.63 1618.48 1917.25 1635.9 1934.67C1653.32 1952.08 1676.94 1961.87 1701.57 1961.87" fill="#E8F7D2"/>
<path d="M1887.29 1776.14H1701.57V1961.86H1887.29V1776.14Z" fill="white"/>
<path d="M1794.43 1776.13H1701.57V1869H1794.43V1776.13Z" fill="#FAFDF6"/>
<path d="M1701.57 1869C1701.57 1856.8 1703.97 1844.73 1708.64 1833.46C1713.3 1822.19 1720.14 1811.96 1728.77 1803.33C1737.39 1794.71 1747.63 1787.87 1758.89 1783.2C1770.16 1778.53 1782.24 1776.13 1794.43 1776.13L1701.57 1869C1726.2 1869 1749.82 1859.22 1767.23 1841.8C1784.65 1824.38 1794.43 1800.76 1794.43 1776.13" fill="#E4F6C9"/>
<path d="M1887.3 1776.13H1794.43V1869H1887.3V1776.13Z" fill="#FFE4E4"/>
<path d="M1817.65 1776.13H1840.87L1817.65 1799.35L1794.43 1822.57V1799.35L1817.65 1776.13Z" fill="#FFD1D1"/>
<path d="M1887.3 1845.78V1869H1864.08L1887.3 1845.78Z" fill="#FFD1D1"/>
<path d="M1887.3 1799.35V1822.57L1864.08 1845.78L1840.87 1869H1817.65L1887.3 1799.35Z" fill="#FFD1D1"/>
<path d="M1864.08 1776.13H1887.3L1817.65 1845.78L1794.43 1869V1845.78L1864.08 1776.13Z" fill="#FFD1D1"/>
<path d="M1794.43 1869H1701.57V1961.87H1794.43V1869Z" fill="#FFDCDC"/>
<path d="M1724.78 1869H1748L1724.78 1892.22L1701.57 1915.43V1892.22L1724.78 1869Z" fill="#FF7273"/>
<path d="M1794.43 1938.65V1961.87H1771.22L1794.43 1938.65Z" fill="#FF7273"/>
<path d="M1794.43 1892.22V1915.43L1771.22 1938.65L1748 1961.87H1724.78L1794.43 1892.22Z" fill="#FF7273"/>
<path d="M1771.22 1869H1794.43L1724.78 1938.65L1701.57 1961.87V1938.65L1771.22 1869Z" fill="#FF7273"/>
<path d="M1887.3 1869H1794.43V1961.87H1887.3V1869Z" fill="#FF7071"/>
<path d="M1794.43 1869H1887.3V1961.87L1794.43 1869Z" fill="#FECDA6"/>
<path d="M2073 1776.13H1887.3V1961.83H2073V1776.13Z" fill="#FFBABA"/>
<path d="M1933.73 1776.13H1980.15L1933.73 1822.56L1887.3 1868.98V1822.56L1933.73 1776.13Z" fill="#F4FBEA"/>
<path d="M2073 1915.41V1961.83H2026.58L2073 1915.41Z" fill="#F4FBEA"/>
<path d="M2073 1822.56V1868.98L2026.58 1915.41L1980.15 1961.83H1933.73L2073 1822.56Z" fill="#F4FBEA"/>
<path d="M2026.58 1776.13H2073L1933.73 1915.41L1887.3 1961.83V1915.41L2026.58 1776.13Z" fill="#F4FBEA"/>
<path d="M958.699 1961.87H773V2147.57H958.699V1961.87Z" fill="#FFD6D7"/>
<path d="M773 2147.57C773 2098.32 792.565 2051.08 827.39 2016.26C862.215 1981.43 909.449 1961.87 958.699 1961.87V2147.57" fill="#EFFAE0"/>
<path d="M1144.4 1961.87H958.699V2147.57H1144.4V1961.87Z" fill="#EEE77F"/>
<path d="M958.699 1961.87H1144.4L958.699 2147.57V1961.87Z" fill="#FFFEF8"/>
<path d="M1330.13 1961.87H1144.43V2147.57H1330.13V1961.87Z" fill="#F7F3BF"/>
<path d="M1330.13 1961.87H1144.43V2147.57H1330.13V1961.87Z" fill="#FDA55E"/>
<path d="M1515.86 1961.86H1330.14V2147.57H1515.86V1961.86Z" fill="white"/>
<path d="M1423 1961.87H1330.13V2054.73H1423V1961.87Z" fill="#FFF9F9"/>
<path d="M1376.57 1961.87L1423 2008.3L1376.57 2054.73L1330.13 2008.3L1376.57 1961.87Z" fill="#E9F8D4"/>
<path d="M1515.87 1961.87H1423V2054.73H1515.87V1961.87Z" fill="#FC933E"/>
<path d="M1423 1961.87L1515.87 2054.73H1423V1961.87Z" fill="#EAF8D5"/>
<path d="M1423 2054.7H1330.13V2147.57H1423V2054.7Z" fill="#FCFBE9"/>
<path d="M1376.57 2054.7L1423 2101.13L1376.57 2147.57L1330.13 2101.13L1376.57 2054.7Z" fill="#FDA762"/>
<path d="M1515.87 2054.7H1423V2147.57H1515.87V2054.7Z" fill="#FFDADB"/>
<path d="M1515.87 2054.7H1423V2147.57H1515.87V2054.7Z" fill="#FFF9F5"/>
<path d="M1701.57 1961.87H1515.87V2147.57H1701.57V1961.87Z" fill="#E5F6CD"/>
<path d="M1562.29 1961.87H1608.72L1562.29 2008.29L1515.87 2054.72V2008.29L1562.29 1961.87Z" fill="#EDF9DB"/>
<path d="M1701.57 2101.14V2147.57H1655.14L1701.57 2101.14Z" fill="#EDF9DB"/>
<path d="M1701.57 2008.29V2054.72L1655.14 2101.14L1608.72 2147.57H1562.29L1701.57 2008.29Z" fill="#EDF9DB"/>
<path d="M1655.14 1961.87H1701.57L1562.29 2101.14L1515.87 2147.57V2101.14L1655.14 1961.87Z" fill="#EDF9DB"/>
<path d="M1887.27 1961.87H1701.57V2147.57H1887.27V1961.87Z" fill="#FEE9D7"/>
<path d="M1701.57 1961.87C1750.82 1961.87 1798.05 1981.43 1832.88 2016.26C1867.7 2051.08 1887.27 2098.32 1887.27 2147.57L1701.57 1961.87C1701.57 2011.12 1721.13 2058.35 1755.96 2093.18C1790.78 2128 1838.02 2147.57 1887.27 2147.57" fill="#FDB174"/>
<path d="M2073 1961.86H1887.29V2147.57H2073V1961.86Z" fill="white"/>
<path d="M1980.17 1961.87H1887.3V2054.73H1980.17V1961.87Z" fill="#FDEFAD"/>
<path d="M1887.3 1961.87H1980.17L1887.3 2054.73V1961.87Z" fill="#FFF9F9"/>
<path d="M2073 1961.87H1980.13V2054.73H2073V1961.87Z" fill="#FADB49"/>
<path d="M1980.13 1961.87C1980.13 1974.06 1982.53 1986.14 1987.2 1997.41C1991.87 2008.67 1998.71 2018.91 2007.33 2027.53C2015.96 2036.16 2026.19 2043 2037.46 2047.67C2048.73 2052.33 2060.8 2054.73 2073 2054.73V1961.87" fill="#FEFBE9"/>
<path d="M1980.17 2054.7H1887.3V2147.57H1980.17V2054.7Z" fill="#FFF3EA"/>
<path d="M1887.3 2054.7C1911.93 2054.7 1935.55 2064.48 1952.97 2081.9C1970.38 2099.32 1980.17 2122.94 1980.17 2147.57L1887.3 2054.7C1887.3 2079.33 1897.08 2102.95 1914.5 2120.37C1931.92 2137.78 1955.54 2147.57 1980.17 2147.57" fill="#FDA864"/>
<path d="M2073 2054.7H1980.13V2147.57H2073V2054.7Z" fill="#FBE05E"/>
<path d="M2073 2054.7H1980.13V2147.57H2073V2054.7Z" fill="#FFB4B5"/>
<path d="M958.699 2147.57H773V2333.27H958.699V2147.57Z" fill="#FDF4C7"/>
<path d="M865.85 2147.57L958.699 2240.42L865.85 2333.27L773 2240.42L865.85 2147.57Z" fill="#F8FDF2"/>
<path d="M1144.4 2147.57H958.699V2333.27H1144.4V2147.57Z" fill="#ECF9DA"/>
<path d="M958.699 2147.57L1144.4 2333.27H958.699V2147.57Z" fill="#FBE062"/>
<path d="M1330.14 2147.57H1144.43V2333.29H1330.14V2147.57Z" fill="white"/>
<path d="M1237.3 2147.57H1144.43V2240.43H1237.3V2147.57Z" fill="#EDF9DC"/>
<path d="M1190.87 2147.57L1237.3 2194L1190.87 2240.43L1144.43 2194L1190.87 2147.57Z" fill="#FF7677"/>
<path d="M1330.17 2147.57H1237.3V2240.43H1330.17V2147.57Z" fill="#FF7173"/>
<path d="M1237.3 2147.57C1249.5 2147.57 1261.57 2149.97 1272.84 2154.64C1284.11 2159.3 1294.34 2166.14 1302.97 2174.77C1311.59 2183.39 1318.43 2193.63 1323.1 2204.89C1327.77 2216.16 1330.17 2228.24 1330.17 2240.43L1237.3 2147.57C1237.3 2172.2 1247.09 2195.82 1264.5 2213.23C1281.92 2230.65 1305.54 2240.43 1330.17 2240.43" fill="#FDF0B4"/>
<path d="M1237.3 2240.43H1144.43V2333.3H1237.3V2240.43Z" fill="#FF9A9B"/>
<path d="M1167.65 2240.43H1190.87L1167.65 2263.65L1144.43 2286.87V2263.65L1167.65 2240.43Z" fill="#EDF9DC"/>
<path d="M1237.3 2310.08V2333.3H1214.08L1237.3 2310.08Z" fill="#EDF9DC"/>
<path d="M1237.3 2263.65V2286.87L1214.08 2310.08L1190.87 2333.3H1167.65L1237.3 2263.65Z" fill="#EDF9DC"/>
<path d="M1214.08 2240.43H1237.3L1167.65 2310.08L1144.43 2333.3V2310.08L1214.08 2240.43Z" fill="#EDF9DC"/>
<path d="M1330.17 2240.43H1237.3V2333.3H1330.17V2240.43Z" fill="#FEFBEB"/>
<path d="M1237.3 2240.43C1261.93 2240.43 1285.55 2250.22 1302.97 2267.63C1320.38 2285.05 1330.17 2308.67 1330.17 2333.3L1237.3 2240.43C1237.3 2265.06 1247.09 2288.68 1264.5 2306.1C1281.92 2323.52 1305.54 2333.3 1330.17 2333.3" fill="#FADB45"/>
<path d="M1515.83 2147.57H1330.13V2333.27H1515.83V2147.57Z" fill="#FED6B6"/>
<path d="M1330.13 2333.27C1330.13 2284.02 1349.7 2236.78 1384.52 2201.96C1419.35 2167.13 1466.58 2147.57 1515.83 2147.57L1330.13 2333.27C1354.52 2333.27 1378.67 2328.46 1401.2 2319.13C1423.73 2309.8 1444.2 2296.12 1461.44 2278.88C1478.69 2261.63 1492.36 2241.16 1501.7 2218.63C1511.03 2196.1 1515.83 2171.95 1515.83 2147.57" fill="#F9D630"/>
<path d="M1701.57 2147.57H1515.87V2333.27H1701.57V2147.57Z" fill="#FFEDED"/>
<path d="M1515.87 2333.27C1515.87 2284.02 1535.43 2236.78 1570.26 2201.96C1605.08 2167.13 1652.32 2147.57 1701.57 2147.57L1515.87 2333.27C1565.12 2333.27 1612.35 2313.7 1647.18 2278.88C1682 2244.05 1701.57 2196.82 1701.57 2147.57" fill="#FCE98C"/>
<path d="M1887.27 2147.57H1701.57V2333.27H1887.27V2147.57Z" fill="#F2EC9A"/>
<path d="M1887.27 2147.57V2333.27H1701.57L1887.27 2147.57Z" fill="#FEC89D"/>
<path d="M2073 2147.57H1887.3V2333.27H2073V2147.57Z" fill="#E7F7CF"/>
<path d="M1887.3 2147.57C1887.3 2196.82 1906.87 2244.05 1941.69 2278.88C1976.52 2313.7 2023.75 2333.27 2073 2333.27V2147.57" fill="#F5F0AE"/>
<path d="M958.714 2333.29H773V2519H958.714V2333.29Z" fill="white"/>
<path d="M865.867 2333.3H773V2426.17H865.867V2333.3Z" fill="#FFAAAB"/>
<path d="M773 2333.3C797.63 2333.3 821.251 2343.08 838.667 2360.5C856.083 2377.92 865.867 2401.54 865.867 2426.17H773" fill="#FF898A"/>
<path d="M958.734 2333.3H865.867V2426.17H958.734V2333.3Z" fill="#FFDCDC"/>
<path d="M889.084 2333.3H912.301L889.084 2356.52L865.867 2379.73V2356.52L889.084 2333.3Z" fill="#F2EC9C"/>
<path d="M958.734 2402.95V2426.17H935.518L958.734 2402.95Z" fill="#F2EC9C"/>
<path d="M958.734 2356.52V2379.73L935.518 2402.95L912.301 2426.17H889.084L958.734 2356.52Z" fill="#F2EC9C"/>
<path d="M935.518 2333.3H958.734L889.084 2402.95L865.867 2426.17V2402.95L935.518 2333.3Z" fill="#F2EC9C"/>
<path d="M865.867 2426.13H773V2519H865.867V2426.13Z" fill="#FC9F53"/>
<path d="M796.217 2426.13H819.434L796.217 2449.35L773 2472.57V2449.35L796.217 2426.13Z" fill="#FF5153"/>
<path d="M865.867 2495.78V2519H842.65L865.867 2495.78Z" fill="#FF5153"/>
<path d="M865.867 2449.35V2472.57L842.65 2495.78L819.434 2519H796.217L865.867 2449.35Z" fill="#FF5153"/>
<path d="M842.65 2426.13H865.867L796.217 2495.78L773 2519V2495.78L842.65 2426.13Z" fill="#FF5153"/>
<path d="M958.734 2426.13H865.867V2519H958.734V2426.13Z" fill="#FCEDA1"/>
<path d="M912.301 2426.13L958.734 2472.57L912.301 2519L865.867 2472.57L912.301 2426.13Z" fill="#FEF5CB"/>
<path d="M1144.43 2333.29H958.715V2519H1144.43V2333.29Z" fill="white"/>
<path d="M1051.57 2333.3H958.699V2426.17H1051.57V2333.3Z" fill="#F1FAE3"/>
<path d="M958.699 2426.17C958.699 2401.54 968.483 2377.92 985.899 2360.5C1003.32 2343.08 1026.94 2333.3 1051.57 2333.3L958.699 2426.17C983.329 2426.17 1006.95 2416.38 1024.37 2398.97C1041.78 2381.55 1051.57 2357.93 1051.57 2333.3" fill="#F8F6CD"/>
<path d="M1144.43 2333.3H1051.57V2426.17H1144.43V2333.3Z" fill="#FBF9DF"/>
<path d="M1074.78 2333.3H1098L1074.78 2356.52L1051.57 2379.73V2356.52L1074.78 2333.3Z" fill="#EBF8D9"/>
<path d="M1144.43 2402.95V2426.17H1121.22L1144.43 2402.95Z" fill="#EBF8D9"/>
<path d="M1144.43 2356.52V2379.73L1121.22 2402.95L1098 2426.17H1074.78L1144.43 2356.52Z" fill="#EBF8D9"/>
<path d="M1121.22 2333.3H1144.43L1074.78 2402.95L1051.57 2426.17V2402.95L1121.22 2333.3Z" fill="#EBF8D9"/>
<path d="M1051.57 2426.13H958.699V2519H1051.57V2426.13Z" fill="#FFFEF9"/>
<path d="M958.699 2426.13C970.895 2426.13 982.971 2428.53 994.238 2433.2C1005.51 2437.87 1015.74 2444.71 1024.37 2453.33C1032.99 2461.96 1039.83 2472.19 1044.5 2483.46C1049.16 2494.73 1051.57 2506.8 1051.57 2519L958.699 2426.13C958.699 2450.76 968.483 2474.38 985.899 2491.8C1003.32 2509.22 1026.94 2519 1051.57 2519" fill="#FEDFC6"/>
<path d="M1144.43 2426.13H1051.57V2519H1144.43V2426.13Z" fill="#FEFFFD"/>
<path d="M1051.57 2519C1051.57 2506.8 1053.97 2494.73 1058.64 2483.46C1063.3 2472.19 1070.14 2461.96 1078.77 2453.33C1087.39 2444.71 1097.63 2437.87 1108.89 2433.2C1120.16 2428.53 1132.24 2426.13 1144.43 2426.13V2519" fill="#FDF3C2"/>
<path d="M1330.13 2333.3H1144.43V2519H1330.13V2333.3Z" fill="#FFFBF7"/>
<path d="M1144.43 2519C1144.43 2469.75 1164 2422.52 1198.82 2387.69C1233.65 2352.87 1280.88 2333.3 1330.13 2333.3L1144.43 2519C1193.68 2519 1240.92 2499.44 1275.74 2464.61C1310.57 2429.78 1330.13 2382.55 1330.13 2333.3" fill="#EDE574"/>
<path d="M1515.83 2333.3H1330.13V2519H1515.83V2333.3Z" fill="#FDFCF0"/>
<path d="M1515.83 2333.3H1330.13V2519H1515.83V2333.3Z" fill="#FECEA7"/>
<path d="M1701.57 2333.3H1515.87V2519H1701.57V2333.3Z" fill="#F9FDF2"/>
<path d="M1701.57 2333.3H1515.87V2519H1701.57V2333.3Z" fill="#FEE4CE"/>
<path d="M1887.29 2333.29H1701.57V2519H1887.29V2333.29Z" fill="white"/>
<path d="M1794.43 2333.3H1701.57V2426.17H1794.43V2333.3Z" fill="#FDC495"/>
<path d="M1701.57 2333.3H1794.43L1701.57 2426.17V2333.3Z" fill="#FEE9D8"/>
<path d="M1887.3 2333.3H1794.43V2426.17H1887.3V2333.3Z" fill="#FC9E51"/>
<path d="M1794.43 2333.3H1887.3V2426.17L1794.43 2333.3Z" fill="#F9FDF4"/>
<path d="M1794.43 2426.13H1701.57V2519H1794.43V2426.13Z" fill="#EEF9DE"/>
<path d="M1748 2426.13L1794.43 2472.57L1748 2519L1701.57 2472.57L1748 2426.13Z" fill="#E8F7D1"/>
<path d="M1887.3 2426.13H1794.43V2519H1887.3V2426.13Z" fill="#FFC3C3"/>
<path d="M1794.43 2426.13H1887.3L1794.43 2519V2426.13Z" fill="#FDEFAE"/>
<path d="M2073 2333.3H1887.3V2519H2073V2333.3Z" fill="#F2EC98"/>
<path d="M1980.15 2333.3L2073 2426.15L1980.15 2519L1887.3 2426.15L1980.15 2333.3Z" fill="#F8F5C8"/>
<path d="M958.699 2519H773V2704.7H958.699V2519Z" fill="#F6F2B8"/>
<path d="M773 2704.7C822.251 2704.7 869.484 2685.13 904.309 2650.31C939.135 2615.48 958.699 2568.25 958.699 2519H773" fill="#F3FBE7"/>
<path d="M1144.4 2519H958.699V2704.7H1144.4V2519Z" fill="#FBE578"/>
<path d="M958.699 2519C1007.95 2519 1055.18 2538.56 1090.01 2573.39C1124.83 2608.22 1144.4 2655.45 1144.4 2704.7L958.699 2519C958.699 2568.25 978.264 2615.48 1013.09 2650.31C1047.91 2685.13 1095.15 2704.7 1144.4 2704.7" fill="#F9D731"/>
<path d="M1330.13 2519H1144.43V2704.7H1330.13V2519Z" fill="#FFF7F7"/>
<path d="M1144.43 2519C1193.68 2519 1240.92 2538.56 1275.74 2573.39C1310.57 2608.22 1330.13 2655.45 1330.13 2704.7L1144.43 2519C1144.43 2568.25 1164 2615.48 1198.82 2650.31C1216.07 2667.55 1236.54 2681.23 1259.07 2690.56C1281.6 2699.9 1305.75 2704.7 1330.13 2704.7" fill="#FF696B"/>
<path d="M1515.83 2519H1330.13V2704.7H1515.83V2519Z" fill="#EEF9DE"/>
<path d="M1330.13 2704.7C1330.13 2655.45 1349.7 2608.22 1384.52 2573.39C1419.35 2538.56 1466.58 2519 1515.83 2519V2704.7" fill="#FBE474"/>
<path d="M1701.57 2519H1515.86V2704.71H1701.57V2519Z" fill="white"/>
<path d="M1608.73 2519H1515.87V2611.87H1608.73V2519Z" fill="#F5FCEB"/>
<path d="M1515.87 2611.87C1515.87 2587.24 1525.65 2563.62 1543.07 2546.2C1560.48 2528.78 1584.1 2519 1608.73 2519L1515.87 2611.87C1528.06 2611.87 1540.14 2609.47 1551.41 2604.8C1562.67 2600.13 1572.91 2593.29 1581.53 2584.67C1590.16 2576.04 1597 2565.81 1601.67 2554.54C1606.33 2543.27 1608.73 2531.2 1608.73 2519" fill="#EFE882"/>
<path d="M1701.57 2519H1608.7V2611.87H1701.57V2519Z" fill="#FF6364"/>
<path d="M1631.92 2519H1655.13L1631.92 2542.22L1608.7 2565.43V2542.22L1631.92 2519Z" fill="#FFFDF6"/>
<path d="M1701.57 2588.65V2611.87H1678.35L1701.57 2588.65Z" fill="#FFFDF6"/>
<path d="M1701.57 2542.22V2565.43L1678.35 2588.65L1655.13 2611.87H1631.92L1701.57 2542.22Z" fill="#FFFDF6"/>
<path d="M1678.35 2519H1701.57L1631.92 2588.65L1608.7 2611.87V2588.65L1678.35 2519Z" fill="#FFFDF6"/>
<path d="M1608.73 2611.87H1515.87V2704.73H1608.73V2611.87Z" fill="#FEF5CC"/>
<path d="M1515.87 2704.73C1528.06 2704.73 1540.14 2702.33 1551.41 2697.67C1562.67 2693 1572.91 2686.16 1581.53 2677.53C1590.16 2668.91 1597 2658.67 1601.67 2647.41C1606.33 2636.14 1608.73 2624.06 1608.73 2611.87H1515.87" fill="#FDA964"/>
<path d="M1701.57 2611.87H1608.7V2704.73H1701.57V2611.87Z" fill="#FC9745"/>
<path d="M1608.7 2611.87C1633.33 2611.87 1656.95 2621.65 1674.37 2639.07C1691.78 2656.48 1701.57 2680.1 1701.57 2704.73H1608.7" fill="#F8F4C6"/>
<path d="M1887.27 2519H1701.57V2704.7H1887.27V2519Z" fill="#FFCACA"/>
<path d="M1701.57 2704.7C1701.57 2655.45 1721.13 2608.22 1755.96 2573.39C1790.78 2538.56 1838.02 2519 1887.27 2519L1701.57 2704.7C1750.82 2704.7 1798.05 2685.13 1832.88 2650.31C1867.7 2615.48 1887.27 2568.25 1887.27 2519" fill="#FFEFEF"/>
<path d="M2073 2519H1887.3V2704.7H2073V2519Z" fill="#FEF6D3"/>
<path d="M1887.3 2519C1887.3 2568.25 1906.87 2615.48 1941.69 2650.31C1976.52 2685.13 2023.75 2704.7 2073 2704.7V2519" fill="#FEE0C8"/>
<path d="M958.699 2704.7H773V2890.4H958.699V2704.7Z" fill="#FBE060"/>
<path d="M865.85 2704.7L958.699 2797.55L865.85 2890.4L773 2797.55L865.85 2704.7Z" fill="#FBE36F"/>
<path d="M1144.4 2704.7H958.699V2890.4H1144.4V2704.7Z" fill="#FF8081"/>
<path d="M1005.12 2704.7H1051.55L1005.12 2751.12L958.699 2797.55V2751.12L1005.12 2704.7Z" fill="#E4F6CA"/>
<path d="M1144.4 2843.97V2890.4H1097.97L1144.4 2843.97Z" fill="#E4F6CA"/>
<path d="M1144.4 2751.12V2797.55L1097.97 2843.97L1051.55 2890.4H1005.12L1144.4 2751.12Z" fill="#E4F6CA"/>
<path d="M1097.97 2704.7H1144.4L1005.12 2843.98L958.699 2890.4V2843.98L1097.97 2704.7Z" fill="#E4F6CA"/>
<path d="M1330.13 2704.7H1144.43V2890.4H1330.13V2704.7Z" fill="#E2F5C5"/>
<path d="M1190.86 2704.7H1237.28L1190.86 2751.12L1144.43 2797.55V2751.12L1190.86 2704.7Z" fill="#FFB0B1"/>
<path d="M1330.13 2843.97V2890.4H1283.71L1330.13 2843.97Z" fill="#FFB0B1"/>
<path d="M1330.13 2751.12V2797.55L1283.71 2843.97L1237.28 2890.4H1190.86L1330.13 2751.12Z" fill="#FFB0B1"/>
<path d="M1283.71 2704.7H1330.13L1190.86 2843.98L1144.43 2890.4V2843.98L1283.71 2704.7Z" fill="#FFB0B1"/>
<path d="M1515.83 2704.7H1330.13V2890.4H1515.83V2704.7Z" fill="#F6F2BA"/>
<path d="M1376.56 2704.7H1422.98L1376.56 2751.12L1330.13 2797.55V2751.12L1376.56 2704.7Z" fill="#FF6466"/>
<path d="M1515.83 2843.97V2890.4H1469.41L1515.83 2843.97Z" fill="#FF6466"/>
<path d="M1515.83 2751.12V2797.55L1469.41 2843.97L1422.98 2890.4H1376.56L1515.83 2751.12Z" fill="#FF6466"/>
<path d="M1469.41 2704.7H1515.83L1376.56 2843.98L1330.13 2890.4V2843.98L1469.41 2704.7Z" fill="#FF6466"/>
<path d="M1701.57 2704.7H1515.87V2890.4H1701.57V2704.7Z" fill="#FFF8F3"/>
<path d="M1608.72 2704.7L1701.57 2797.55L1608.72 2890.4L1515.87 2797.55L1608.72 2704.7Z" fill="#FEFEF8"/>
<path d="M1887.29 2704.71H1701.57V2890.43H1887.29V2704.71Z" fill="white"/>
<path d="M1794.43 2704.7H1701.57V2797.57H1794.43V2704.7Z" fill="#F5F1B5"/>
<path d="M1794.43 2704.7H1701.57V2797.57H1794.43V2704.7Z" fill="#FCFAE5"/>
<path d="M1887.3 2704.7H1794.43V2797.57H1887.3V2704.7Z" fill="#FF5052"/>
<path d="M1887.3 2704.7V2797.57H1794.43L1887.3 2704.7Z" fill="#FF6A6C"/>
<path d="M1794.43 2797.57H1701.57V2890.43H1794.43V2797.57Z" fill="#F8F5CC"/>
<path d="M1794.43 2797.57H1701.57V2890.43H1794.43V2797.57Z" fill="#F7FCEE"/>
<path d="M1887.3 2797.57H1794.43V2890.43H1887.3V2797.57Z" fill="#F4FBE9"/>
<path d="M1794.43 2890.43C1794.43 2878.24 1796.84 2866.16 1801.5 2854.89C1806.17 2843.63 1813.01 2833.39 1821.63 2824.77C1830.26 2816.14 1840.49 2809.3 1851.76 2804.64C1863.03 2799.97 1875.11 2797.57 1887.3 2797.57L1794.43 2890.43C1819.06 2890.43 1842.68 2880.65 1860.1 2863.23C1877.52 2845.82 1887.3 2822.2 1887.3 2797.57" fill="#FED7B7"/>
<path d="M2073 2704.71H1887.29V2890.43H2073V2704.71Z" fill="white"/>
<path d="M1980.17 2704.7H1887.3V2797.57H1980.17V2704.7Z" fill="#FDC394"/>
<path d="M1910.52 2704.7H1933.73L1910.52 2727.92L1887.3 2751.13V2727.92L1910.52 2704.7Z" fill="#FDF0B2"/>
<path d="M1980.17 2774.35V2797.57H1956.95L1980.17 2774.35Z" fill="#FDF0B2"/>
<path d="M1980.17 2727.92V2751.13L1956.95 2774.35L1933.73 2797.57H1910.52L1980.17 2727.92Z" fill="#FDF0B2"/>
<path d="M1956.95 2704.7H1980.17L1910.52 2774.35L1887.3 2797.57V2774.35L1956.95 2704.7Z" fill="#FDF0B2"/>
<path d="M2073 2704.7H1980.13V2797.57H2073V2704.7Z" fill="#FC9D4F"/>
<path d="M2026.57 2704.7L2073 2751.13L2026.57 2797.57L1980.13 2751.13L2026.57 2704.7Z" fill="#FEDDC1"/>
<path d="M1980.17 2797.57H1887.3V2890.43H1980.17V2797.57Z" fill="#F6FCEE"/>
<path d="M1933.73 2797.57L1980.17 2844L1933.73 2890.43L1887.3 2844L1933.73 2797.57Z" fill="#F2ED9E"/>
<path d="M2073 2797.57H1980.13V2890.43H2073V2797.57Z" fill="#F7F3BE"/>
<path d="M2003.35 2797.57H2026.57L2003.35 2820.78L1980.13 2844V2820.78L2003.35 2797.57Z" fill="#FF8F90"/>
<path d="M2073 2867.22V2890.43H2049.78L2073 2867.22Z" fill="#FF8F90"/>
<path d="M2073 2820.78V2844L2049.78 2867.22L2026.57 2890.43H2003.35L2073 2820.78Z" fill="#FF8F90"/>
<path d="M2049.78 2797.57H2073L2003.35 2867.22L1980.13 2890.43V2867.22L2049.78 2797.57Z" fill="#FF8F90"/>
<path d="M958.699 2890.43H773V3076.13H958.699V2890.43Z" fill="#FFB1B2"/>
<path d="M958.699 2890.43V3076.13H773L958.699 2890.43Z" fill="#FEFEF9"/>
<path d="M1144.4 2890.43H958.699V3076.13H1144.4V2890.43Z" fill="#FFFFFE"/>
<path d="M1005.12 2890.43H1051.55L1005.12 2936.86L958.699 2983.28V2936.86L1005.12 2890.43Z" fill="#FEFFFD"/>
<path d="M1144.4 3029.71V3076.13H1097.97L1144.4 3029.71Z" fill="#FEFFFD"/>
<path d="M1144.4 2936.86V2983.28L1097.97 3029.71L1051.55 3076.13H1005.12L1144.4 2936.86Z" fill="#FEFFFD"/>
<path d="M1097.97 2890.43H1144.4L1005.12 3029.71L958.699 3076.13V3029.71L1097.97 2890.43Z" fill="#FEFFFD"/>
<path d="M1330.14 2890.43H1144.43V3076.14H1330.14V2890.43Z" fill="white"/>
<path d="M1237.3 2890.43H1144.43V2983.3H1237.3V2890.43Z" fill="#EAF8D5"/>
<path d="M1144.43 2890.43C1156.63 2890.43 1168.71 2892.84 1179.97 2897.5C1191.24 2902.17 1201.48 2909.01 1210.1 2917.63C1218.72 2926.26 1225.56 2936.49 1230.23 2947.76C1234.9 2959.03 1237.3 2971.11 1237.3 2983.3L1144.43 2890.43C1144.43 2915.06 1154.22 2938.68 1171.63 2956.1C1189.05 2973.52 1212.67 2983.3 1237.3 2983.3" fill="#F2EC9B"/>
<path d="M1330.17 2890.43H1237.3V2983.3H1330.17V2890.43Z" fill="#FBE05E"/>
<path d="M1260.52 2890.43H1283.73L1260.52 2913.65L1237.3 2936.87V2913.65L1260.52 2890.43Z" fill="#FFEEEE"/>
<path d="M1330.17 2960.08V2983.3H1306.95L1330.17 2960.08Z" fill="#FFEEEE"/>
<path d="M1330.17 2913.65V2936.87L1306.95 2960.08L1283.73 2983.3H1260.52L1330.17 2913.65Z" fill="#FFEEEE"/>
<path d="M1306.95 2890.43H1330.17L1260.52 2960.08L1237.3 2983.3V2960.08L1306.95 2890.43Z" fill="#FFEEEE"/>
<path d="M1237.3 2983.3H1144.43V3076.17H1237.3V2983.3Z" fill="#FEE6D2"/>
<path d="M1144.43 3076.17C1144.43 3051.54 1154.22 3027.92 1171.63 3010.5C1189.05 2993.08 1212.67 2983.3 1237.3 2983.3L1144.43 3076.17C1169.06 3076.17 1192.68 3066.38 1210.1 3048.97C1227.52 3031.55 1237.3 3007.93 1237.3 2983.3" fill="#FCFBEA"/>
<path d="M1330.17 2983.3H1237.3V3076.17H1330.17V2983.3Z" fill="#FFF3E9"/>
<path d="M1237.3 2983.3C1261.93 2983.3 1285.55 2993.08 1302.97 3010.5C1320.38 3027.92 1330.17 3051.54 1330.17 3076.17L1237.3 2983.3C1237.3 3007.93 1247.09 3031.55 1264.5 3048.97C1281.92 3066.38 1305.54 3076.17 1330.17 3076.17" fill="#FDB77E"/>
<path d="M1515.83 2890.43H1330.13V3076.13H1515.83V2890.43Z" fill="#FDB67D"/>
<path d="M1330.13 3076.13C1354.52 3076.13 1378.67 3071.33 1401.2 3062C1423.73 3052.67 1444.2 3038.99 1461.44 3021.74C1478.69 3004.5 1492.36 2984.03 1501.7 2961.5C1511.03 2938.97 1515.83 2914.82 1515.83 2890.43H1330.13" fill="#F2EC99"/>
<path d="M1701.57 2890.43H1515.87V3076.13H1701.57V2890.43Z" fill="#FAFDF5"/>
<path d="M1608.72 2890.43L1701.57 2983.28L1608.72 3076.13L1515.87 2983.28L1608.72 2890.43Z" fill="#FAF7D5"/>
<path d="M1887.29 2890.43H1701.57V3076.14H1887.29V2890.43Z" fill="white"/>
<path d="M1794.43 2890.43H1701.57V2983.3H1794.43V2890.43Z" fill="#FF6162"/>
<path d="M1724.78 2890.43H1748L1724.78 2913.65L1701.57 2936.87V2913.65L1724.78 2890.43Z" fill="#EFE883"/>
<path d="M1794.43 2960.08V2983.3H1771.22L1794.43 2960.08Z" fill="#EFE883"/>
<path d="M1794.43 2913.65V2936.87L1771.22 2960.08L1748 2983.3H1724.78L1794.43 2913.65Z" fill="#EFE883"/>
<path d="M1771.22 2890.43H1794.43L1724.78 2960.08L1701.57 2983.3V2960.08L1771.22 2890.43Z" fill="#EFE883"/>
<path d="M1887.3 2890.43H1794.43V2983.3H1887.3V2890.43Z" fill="#E1F5C5"/>
<path d="M1887.3 2890.43H1794.43V2983.3H1887.3V2890.43Z" fill="#EEF9DD"/>
<path d="M1794.43 2983.3H1701.57V3076.17H1794.43V2983.3Z" fill="#F0E98B"/>
<path d="M1701.57 2983.3C1726.2 2983.3 1749.82 2993.08 1767.23 3010.5C1784.65 3027.92 1794.43 3051.54 1794.43 3076.17L1701.57 2983.3C1701.57 3007.93 1711.35 3031.55 1728.77 3048.97C1746.18 3066.38 1769.8 3076.17 1794.43 3076.17" fill="#FADE56"/>
<path d="M1887.3 2983.3H1794.43V3076.17H1887.3V2983.3Z" fill="#FCFEF9"/>
<path d="M1887.3 2983.3H1794.43V3076.17H1887.3V2983.3Z" fill="#FDB880"/>
<path d="M2073 2890.43H1887.3V3076.13H2073V2890.43Z" fill="#FDEEA9"/>
<path d="M1887.3 3076.13C1887.3 3026.88 1906.87 2979.65 1941.69 2944.82C1976.52 2910 2023.75 2890.43 2073 2890.43L1887.3 3076.13C1936.55 3076.13 1983.78 3056.57 2018.61 3021.74C2053.44 2986.92 2073 2939.68 2073 2890.43" fill="#FFDEDE"/>
<path d="M958.699 3076.13H773V3261.83H958.699V3076.13Z" fill="#E9F8D4"/>
<path d="M865.85 3076.13L958.699 3168.98L865.85 3261.83L773 3168.98L865.85 3076.13Z" fill="#FF7374"/>
<path d="M1144.4 3076.13H958.699V3261.83H1144.4V3076.13Z" fill="#FFACAD"/>
<path d="M1144.4 3076.13H958.699V3261.83H1144.4V3076.13Z" fill="#F4F0AD"/>
<path d="M1330.13 3076.13H1144.43V3261.83H1330.13V3076.13Z" fill="#FFEBEB"/>
<path d="M1144.43 3261.83C1144.43 3212.58 1164 3165.35 1198.82 3130.52C1233.65 3095.7 1280.88 3076.13 1330.13 3076.13L1144.43 3261.83C1193.68 3261.83 1240.92 3242.27 1275.74 3207.44C1310.57 3172.62 1330.13 3125.38 1330.13 3076.13" fill="#F4FBEA"/>
<path d="M1515.83 3076.13H1330.13V3261.83H1515.83V3076.13Z" fill="#FCA35A"/>
<path d="M1330.13 3076.13C1330.13 3125.38 1349.7 3172.62 1384.52 3207.44C1419.35 3242.27 1466.58 3261.83 1515.83 3261.83V3076.13" fill="#FDB275"/>
<path d="M1701.57 3076.14H1515.86V3261.86H1701.57V3076.14Z" fill="white"/>
<path d="M1608.73 3076.13H1515.87V3169H1608.73V3076.13Z" fill="#F5F1B4"/>
<path d="M1515.87 3076.13H1608.73V3169L1515.87 3076.13Z" fill="#E8F7D2"/>
<path d="M1701.57 3076.13H1608.7V3169H1701.57V3076.13Z" fill="#F9D731"/>
<path d="M1655.13 3076.13L1701.57 3122.57L1655.13 3169L1608.7 3122.57L1655.13 3076.13Z" fill="#FFFCF1"/>
<path d="M1608.73 3169H1515.87V3261.87H1608.73V3169Z" fill="#FCEB9B"/>
<path d="M1562.3 3169L1608.73 3215.43L1562.3 3261.87L1515.87 3215.43L1562.3 3169Z" fill="#F5F0AE"/>
<path d="M1701.57 3169H1608.7V3261.87H1701.57V3169Z" fill="#FDBD88"/>
<path d="M1608.7 3169H1701.57V3261.87L1608.7 3169Z" fill="#FFB3B3"/>
<path d="M1887.27 3076.13H1701.57V3261.83H1887.27V3076.13Z" fill="#FFC7C8"/>
<path d="M1701.57 3076.13C1750.82 3076.13 1798.05 3095.7 1832.88 3130.52C1867.7 3165.35 1887.27 3212.58 1887.27 3261.83L1701.57 3076.13C1701.57 3125.38 1721.13 3172.62 1755.96 3207.44C1790.78 3242.27 1838.02 3261.83 1887.27 3261.83" fill="#FF6062"/>
<path d="M2073 3076.13H1887.3V3261.83H2073V3076.13Z" fill="#FFC0C1"/>
<path d="M1933.73 3076.13H1980.15L1933.73 3122.56L1887.3 3168.98V3122.56L1933.73 3076.13Z" fill="#F2FBE5"/>
<path d="M2073 3215.41V3261.83H2026.58L2073 3215.41Z" fill="#F2FBE5"/>
<path d="M2073 3122.56V3168.98L2026.58 3215.41L1980.15 3261.83H1933.73L2073 3122.56Z" fill="#F2FBE5"/>
<path d="M2026.58 3076.13H2073L1933.73 3215.41L1887.3 3261.83V3215.41L2026.58 3076.13Z" fill="#F2FBE5"/>
<path d="M958.699 3261.87H773V3447.57H958.699V3261.87Z" fill="#FDF0B2"/>
<path d="M819.425 3261.87H865.85L819.425 3308.29L773 3354.72V3308.29L819.425 3261.87Z" fill="#FBE57B"/>
<path d="M958.7 3401.14V3447.57H912.275L958.7 3401.14Z" fill="#FBE57B"/>
<path d="M958.7 3308.29V3354.72L912.275 3401.14L865.851 3447.57H819.426L958.7 3308.29Z" fill="#FBE57B"/>
<path d="M912.274 3261.87H958.699L819.425 3401.14L773 3447.57V3401.14L912.274 3261.87Z" fill="#FBE57B"/>
<path d="M1144.4 3261.87H958.699V3447.57H1144.4V3261.87Z" fill="#FBFAE2"/>
<path d="M958.699 3261.87C983.086 3261.87 1007.23 3266.67 1029.76 3276C1052.29 3285.34 1072.76 3299.01 1090.01 3316.26C1107.25 3333.5 1120.93 3353.97 1130.26 3376.5C1139.6 3399.03 1144.4 3423.18 1144.4 3447.57L958.699 3261.87C958.699 3311.12 978.264 3358.35 1013.09 3393.18C1047.91 3428 1095.15 3447.57 1144.4 3447.57" fill="#FCE784"/>
<path d="M1330.14 3261.86H1144.43V3447.57H1330.14V3261.86Z" fill="white"/>
<path d="M1237.3 3261.87H1144.43V3354.73H1237.3V3261.87Z" fill="#FADA43"/>
<path d="M1144.43 3261.87C1156.63 3261.87 1168.71 3264.27 1179.97 3268.94C1191.24 3273.6 1201.48 3280.44 1210.1 3289.07C1218.72 3297.69 1225.56 3307.93 1230.23 3319.2C1234.9 3330.46 1237.3 3342.54 1237.3 3354.73L1144.43 3261.87C1144.43 3286.5 1154.22 3310.12 1171.63 3327.53C1189.05 3344.95 1212.67 3354.73 1237.3 3354.73" fill="#FEFFFD"/>
<path d="M1330.17 3261.87H1237.3V3354.73H1330.17V3261.87Z" fill="#F0FAE1"/>
<path d="M1237.3 3261.87L1330.17 3354.73H1237.3V3261.87Z" fill="#F5F0B0"/>
<path d="M1237.3 3354.7H1144.43V3447.57H1237.3V3354.7Z" fill="#EDF9DB"/>
<path d="M1190.87 3354.7L1237.3 3401.13L1190.87 3447.57L1144.43 3401.13L1190.87 3354.7Z" fill="#FF797A"/>
<path d="M1330.17 3354.7H1237.3V3447.57H1330.17V3354.7Z" fill="#FF7173"/>
<path d="M1260.52 3354.7H1283.73L1260.52 3377.92L1237.3 3401.13V3377.92L1260.52 3354.7Z" fill="#E1F5C4"/>
<path d="M1330.17 3424.35V3447.57H1306.95L1330.17 3424.35Z" fill="#E1F5C4"/>
<path d="M1330.17 3377.92V3401.13L1306.95 3424.35L1283.73 3447.57H1260.52L1330.17 3377.92Z" fill="#E1F5C4"/>
<path d="M1306.95 3354.7H1330.17L1260.52 3424.35L1237.3 3447.57V3424.35L1306.95 3354.7Z" fill="#E1F5C4"/>
<path d="M1515.86 3261.86H1330.14V3447.57H1515.86V3261.86Z" fill="white"/>
<path d="M1423 3261.87H1330.13V3354.73H1423V3261.87Z" fill="#FAFDF5"/>
<path d="M1330.13 3261.87H1423V3354.73L1330.13 3261.87Z" fill="#FEFFFC"/>
<path d="M1515.87 3261.87H1423V3354.73H1515.87V3261.87Z" fill="#E5F6CB"/>
<path d="M1515.87 3261.87V3354.73H1423L1515.87 3261.87Z" fill="#F6F2B8"/>
<path d="M1423 3354.7H1330.13V3447.57H1423V3354.7Z" fill="#FFBABB"/>
<path d="M1330.13 3447.57C1330.13 3435.37 1332.53 3423.29 1337.2 3412.03C1341.87 3400.76 1348.71 3390.52 1357.33 3381.9C1365.96 3373.28 1376.19 3366.44 1387.46 3361.77C1398.73 3357.1 1410.8 3354.7 1423 3354.7V3447.57" fill="#FFF2F2"/>
<path d="M1515.87 3354.7H1423V3447.57H1515.87V3354.7Z" fill="#FECAA0"/>
<path d="M1423 3354.7C1423 3379.33 1432.78 3402.95 1450.2 3420.37C1467.62 3437.78 1491.24 3447.57 1515.87 3447.57V3354.7" fill="#F0EA8F"/>
<path d="M1701.57 3261.86H1515.86V3447.57H1701.57V3261.86Z" fill="white"/>
<path d="M1608.73 3261.87H1515.87V3354.73H1608.73V3261.87Z" fill="#FFF3EA"/>
<path d="M1515.87 3261.87C1528.06 3261.87 1540.14 3264.27 1551.41 3268.94C1562.67 3273.6 1572.91 3280.44 1581.53 3289.07C1590.16 3297.69 1597 3307.93 1601.67 3319.2C1606.33 3330.46 1608.73 3342.54 1608.73 3354.73H1515.87" fill="#F5F1B4"/>
<path d="M1701.57 3261.87H1608.7V3354.73H1701.57V3261.87Z" fill="#FEECDE"/>
<path d="M1655.13 3261.87L1701.57 3308.3L1655.13 3354.73L1608.7 3308.3L1655.13 3261.87Z" fill="#FDFEFA"/>
<path d="M1608.73 3354.7H1515.87V3447.57H1608.73V3354.7Z" fill="#FEE2CC"/>
<path d="M1539.08 3354.7H1562.3L1539.08 3377.92L1515.87 3401.13V3377.92L1539.08 3354.7Z" fill="#E7F7D0"/>
<path d="M1608.73 3424.35V3447.57H1585.52L1608.73 3424.35Z" fill="#E7F7D0"/>
<path d="M1608.73 3377.92V3401.13L1585.52 3424.35L1562.3 3447.57H1539.08L1608.73 3377.92Z" fill="#E7F7D0"/>
<path d="M1585.52 3354.7H1608.73L1539.08 3424.35L1515.87 3447.57V3424.35L1585.52 3354.7Z" fill="#E7F7D0"/>
<path d="M1701.57 3354.7H1608.7V3447.57H1701.57V3354.7Z" fill="#FFFCEF"/>
<path d="M1655.13 3354.7L1701.57 3401.13L1655.13 3447.57L1608.7 3401.13L1655.13 3354.7Z" fill="#FDEDA5"/>
<path d="M1887.27 3261.87H1701.57V3447.57H1887.27V3261.87Z" fill="#FBE164"/>
<path d="M1794.42 3261.87L1887.27 3354.72L1794.42 3447.57L1701.57 3354.72L1794.42 3261.87Z" fill="#FC9541"/>
<path d="M2073 3261.87H1887.3V3447.57H2073V3261.87Z" fill="#FCA056"/>
<path d="M2073 3261.87H1887.3V3447.57H2073V3261.87Z" fill="#FC933E"/>
<path d="M958.714 3447.57H773V3633.28H958.714V3447.57Z" fill="white"/>
<path d="M865.867 3447.57H773V3540.43H865.867V3447.57Z" fill="#E5F6CB"/>
<path d="M773 3540.43C797.63 3540.43 821.251 3530.65 838.667 3513.23C856.083 3495.82 865.867 3472.2 865.867 3447.57H773" fill="#FAFDF5"/>
<path d="M958.734 3447.57H865.867V3540.43H958.734V3447.57Z" fill="#F5F1B5"/>
<path d="M958.734 3447.57V3540.43H865.867L958.734 3447.57Z" fill="#E2F5C6"/>
<path d="M865.867 3540.43H773V3633.3H865.867V3540.43Z" fill="#F1EB95"/>
<path d="M773 3633.3C773 3608.67 782.784 3585.05 800.2 3567.63C817.616 3550.22 841.237 3540.43 865.867 3540.43L773 3633.3C797.63 3633.3 821.251 3623.52 838.667 3606.1C856.083 3588.68 865.867 3565.06 865.867 3540.43" fill="#F0E98B"/>
<path d="M958.734 3540.43H865.867V3633.3H958.734V3540.43Z" fill="#FFF2E7"/>
<path d="M889.084 3540.43H912.301L889.084 3563.65L865.867 3586.87V3563.65L889.084 3540.43Z" fill="#FFA4A5"/>
<path d="M958.734 3610.08V3633.3H935.518L958.734 3610.08Z" fill="#FFA4A5"/>
<path d="M958.734 3563.65V3586.87L935.518 3610.08L912.301 3633.3H889.084L958.734 3563.65Z" fill="#FFA4A5"/>
<path d="M935.518 3540.43H958.734L889.084 3610.08L865.867 3633.3V3610.08L935.518 3540.43Z" fill="#FFA4A5"/>
<path d="M1144.4 3447.57H958.699V3633.27H1144.4V3447.57Z" fill="#FBFEF8"/>
<path d="M958.699 3447.57C1007.95 3447.57 1055.18 3467.13 1090.01 3501.96C1124.83 3536.78 1144.4 3584.02 1144.4 3633.27L958.699 3447.57C958.699 3496.82 978.264 3544.05 1013.09 3578.88C1047.91 3613.7 1095.15 3633.27 1144.4 3633.27" fill="#FCEA93"/>
<path d="M1330.14 3447.57H1144.43V3633.28H1330.14V3447.57Z" fill="white"/>
<path d="M1237.3 3447.57H1144.43V3540.43H1237.3V3447.57Z" fill="#FDB67D"/>
<path d="M1144.43 3540.43C1156.63 3540.43 1168.71 3538.03 1179.97 3533.36C1191.24 3528.7 1201.48 3521.86 1210.1 3513.23C1218.72 3504.61 1225.56 3494.37 1230.23 3483.11C1234.9 3471.84 1237.3 3459.76 1237.3 3447.57H1144.43" fill="#FEFEF9"/>
<path d="M1330.17 3447.57H1237.3V3540.43H1330.17V3447.57Z" fill="#FF5B5D"/>
<path d="M1260.52 3447.57H1283.73L1260.52 3470.78L1237.3 3494V3470.78L1260.52 3447.57Z" fill="#FCEDA3"/>
<path d="M1330.17 3517.22V3540.43H1306.95L1330.17 3517.22Z" fill="#FCEDA3"/>
<path d="M1330.17 3470.78V3494L1306.95 3517.22L1283.73 3540.43H1260.52L1330.17 3470.78Z" fill="#FCEDA3"/>
<path d="M1306.95 3447.57H1330.17L1260.52 3517.22L1237.3 3540.43V3517.22L1306.95 3447.57Z" fill="#FCEDA3"/>
<path d="M1237.3 3540.43H1144.43V3633.3H1237.3V3540.43Z" fill="#FBF9DE"/>
<path d="M1167.65 3540.43H1190.87L1167.65 3563.65L1144.43 3586.87V3563.65L1167.65 3540.43Z" fill="#FFEBEB"/>
<path d="M1237.3 3610.08V3633.3H1214.08L1237.3 3610.08Z" fill="#FFEBEB"/>
<path d="M1237.3 3563.65V3586.87L1214.08 3610.08L1190.87 3633.3H1167.65L1237.3 3563.65Z" fill="#FFEBEB"/>
<path d="M1214.08 3540.43H1237.3L1167.65 3610.08L1144.43 3633.3V3610.08L1214.08 3540.43Z" fill="#FFEBEB"/>
<path d="M1330.17 3540.43H1237.3V3633.3H1330.17V3540.43Z" fill="#F3EEA5"/>
<path d="M1237.3 3540.43C1261.93 3540.43 1285.55 3550.22 1302.97 3567.63C1320.38 3585.05 1330.17 3608.67 1330.17 3633.3L1237.3 3540.43C1237.3 3565.06 1247.09 3588.68 1264.5 3606.1C1281.92 3623.52 1305.54 3633.3 1330.17 3633.3" fill="#FDF2BA"/>
<path d="M1515.86 3447.57H1330.14V3633.28H1515.86V3447.57Z" fill="white"/>
<path d="M1423 3447.57H1330.13V3540.43H1423V3447.57Z" fill="#FC9A4A"/>
<path d="M1330.13 3540.43C1354.76 3540.43 1378.38 3530.65 1395.8 3513.23C1413.22 3495.82 1423 3472.2 1423 3447.57H1330.13" fill="#FADF5A"/>
<path d="M1515.87 3447.57H1423V3540.43H1515.87V3447.57Z" fill="#EDE577"/>
<path d="M1423 3447.57C1447.63 3447.57 1471.25 3457.35 1488.67 3474.77C1506.08 3492.18 1515.87 3515.8 1515.87 3540.43H1423" fill="#FF999A"/>
<path d="M1423 3540.43H1330.13V3633.3H1423V3540.43Z" fill="#FFFFFE"/>
<path d="M1353.35 3540.43H1376.57L1353.35 3563.65L1330.13 3586.87V3563.65L1353.35 3540.43Z" fill="#FFFFFE"/>
<path d="M1423 3610.08V3633.3H1399.78L1423 3610.08Z" fill="#FFFFFE"/>
<path d="M1423 3563.65V3586.87L1399.78 3610.08L1376.57 3633.3H1353.35L1423 3563.65Z" fill="#FFFFFE"/>
<path d="M1399.78 3540.43H1423L1353.35 3610.08L1330.13 3633.3V3610.08L1399.78 3540.43Z" fill="#FFFFFE"/>
<path d="M1515.87 3540.43H1423V3633.3H1515.87V3540.43Z" fill="#FEE4CF"/>
<path d="M1423 3540.43C1447.63 3540.43 1471.25 3550.22 1488.67 3567.63C1506.08 3585.05 1515.87 3608.67 1515.87 3633.3L1423 3540.43C1423 3565.06 1432.78 3588.68 1450.2 3606.1C1467.62 3623.52 1491.24 3633.3 1515.87 3633.3" fill="#FF5153"/>
<path d="M1701.57 3447.57H1515.86V3633.28H1701.57V3447.57Z" fill="white"/>
<path d="M1608.73 3447.57H1515.87V3540.43H1608.73V3447.57Z" fill="#F5FCEC"/>
<path d="M1562.3 3447.57L1608.73 3494L1562.3 3540.43L1515.87 3494L1562.3 3447.57Z" fill="#EBF8D7"/>
<path d="M1701.57 3447.57H1608.7V3540.43H1701.57V3447.57Z" fill="#E3F6C8"/>
<path d="M1608.7 3447.57C1608.7 3472.2 1618.48 3495.82 1635.9 3513.23C1653.32 3530.65 1676.94 3540.43 1701.57 3540.43V3447.57" fill="#FFF7F7"/>
<path d="M1608.73 3540.43H1515.87V3633.3H1608.73V3540.43Z" fill="#FDC597"/>
<path d="M1515.87 3633.3C1528.06 3633.3 1540.14 3630.9 1551.41 3626.23C1562.67 3621.56 1572.91 3614.72 1581.53 3606.1C1590.16 3597.48 1597 3587.24 1601.67 3575.97C1606.33 3564.71 1608.73 3552.63 1608.73 3540.43H1515.87" fill="#FFFDF4"/>
<path d="M1701.57 3540.43H1608.7V3633.3H1701.57V3540.43Z" fill="#F1FAE3"/>
<path d="M1631.92 3540.43H1655.13L1631.92 3563.65L1608.7 3586.87V3563.65L1631.92 3540.43Z" fill="#EFE884"/>
<path d="M1701.57 3610.08V3633.3H1678.35L1701.57 3610.08Z" fill="#EFE884"/>
<path d="M1701.57 3563.65V3586.87L1678.35 3610.08L1655.13 3633.3H1631.92L1701.57 3563.65Z" fill="#EFE884"/>
<path d="M1678.35 3540.43H1701.57L1631.92 3610.08L1608.7 3633.3V3610.08L1678.35 3540.43Z" fill="#EFE884"/>
<path d="M1887.27 3447.57H1701.57V3633.27H1887.27V3447.57Z" fill="#F5F0AF"/>
<path d="M1701.57 3447.57H1887.27V3633.27L1701.57 3447.57Z" fill="#F7F3C0"/>
<path d="M2073 3447.57H1887.3V3633.27H2073V3447.57Z" fill="#F4FBE8"/>
<path d="M1887.3 3633.27C1887.3 3584.02 1906.87 3536.78 1941.69 3501.96C1976.52 3467.13 2023.75 3447.57 2073 3447.57L1887.3 3633.27C1936.55 3633.27 1983.78 3613.7 2018.61 3578.88C2053.44 3544.05 2073 3496.82 2073 3447.57" fill="#FEE2CB"/>
<path d="M958.699 3633.3H773V3819H958.699V3633.3Z" fill="#FC9A4B"/>
<path d="M773 3819C773 3769.75 792.565 3722.52 827.39 3687.69C862.215 3652.87 909.449 3633.3 958.699 3633.3L773 3819C822.251 3819 869.484 3799.44 904.309 3764.61C939.135 3729.78 958.699 3682.55 958.699 3633.3" fill="#FDFDF3"/>
<path d="M1144.4 3633.3H958.699V3819H1144.4V3633.3Z" fill="#FFEBEB"/>
<path d="M1005.12 3633.3H1051.55L1005.12 3679.73L958.699 3726.15V3679.73L1005.12 3633.3Z" fill="#FF6A6C"/>
<path d="M1144.4 3772.58V3819H1097.97L1144.4 3772.58Z" fill="#FF6A6C"/>
<path d="M1144.4 3679.73V3726.15L1097.97 3772.58L1051.55 3819H1005.12L1144.4 3679.73Z" fill="#FF6A6C"/>
<path d="M1097.97 3633.3H1144.4L1005.12 3772.58L958.699 3819V3772.58L1097.97 3633.3Z" fill="#FF6A6C"/>
<path d="M1330.13 3633.3H1144.43V3819H1330.13V3633.3Z" fill="#E9F8D3"/>
<path d="M1237.28 3633.3L1330.13 3726.15L1237.28 3819L1144.43 3726.15L1237.28 3633.3Z" fill="#E1F5C5"/>
<path d="M1515.83 3633.3H1330.13V3819H1515.83V3633.3Z" fill="#FADB47"/>
<path d="M1330.13 3633.3C1354.52 3633.3 1378.67 3638.1 1401.2 3647.44C1423.73 3656.77 1444.2 3670.45 1461.44 3687.69C1478.69 3704.93 1492.36 3725.41 1501.7 3747.94C1511.03 3770.47 1515.83 3794.61 1515.83 3819H1330.13" fill="#FCEC9F"/>
<path d="M1701.57 3633.3H1515.87V3819H1701.57V3633.3Z" fill="#F5F0B1"/>
<path d="M1701.57 3633.3H1515.87V3819H1701.57V3633.3Z" fill="#FEF7D7"/>
<path d="M1887.27 3633.3H1701.57V3819H1887.27V3633.3Z" fill="#FEFFFD"/>
<path d="M1747.99 3633.3H1794.42L1747.99 3679.73L1701.57 3726.15V3679.73L1747.99 3633.3Z" fill="#FDF1B5"/>
<path d="M1887.27 3772.58V3819H1840.84L1887.27 3772.58Z" fill="#FDF1B5"/>
<path d="M1887.26 3679.73V3726.15L1840.84 3772.58L1794.42 3819H1747.99L1887.26 3679.73Z" fill="#FDF1B5"/>
<path d="M1840.84 3633.3H1887.27L1747.99 3772.58L1701.57 3819V3772.58L1840.84 3633.3Z" fill="#FDF1B5"/>
<path d="M2073 3633.3H1887.3V3819H2073V3633.3Z" fill="#F2FBE6"/>
<path d="M1887.3 3819C1887.3 3769.75 1906.87 3722.52 1941.69 3687.69C1976.52 3652.87 2023.75 3633.3 2073 3633.3L1887.3 3819C1936.55 3819 1983.78 3799.44 2018.61 3764.61C2053.44 3729.78 2073 3682.55 2073 3633.3" fill="#F5F0B1"/>
</g>
<defs>
<clipPath id="clip0_888_12674">
<rect width="1300" height="2600" fill="white" transform="translate(773 1219)"/>
</clipPath>
</defs>
</svg>
