<svg width="2847" height="4351" viewBox="0 0 2847 4351" fill="none" xmlns="http://www.w3.org/2000/svg">
<path d="M1251.67 89.3223H1591.46C1592.02 89.3223 1592.46 89.77 1592.46 90.3223V217.496H2739.2C2739.75 217.496 2740.2 217.943 2740.2 218.496V573.827C2740.2 574.379 2739.75 574.827 2739.2 574.827H2582.89C2582.89 3217.02 2740.09 3217.91 2740.2 4234.5C2740.2 4235.05 2739.75 4235.53 2739.2 4235.53H113.645C113.092 4235.53 112.645 4235.06 112.645 4234.5C112.759 3202.37 285.484 3191.8 285.484 574.827H113.645C113.092 574.827 112.645 574.379 112.645 573.827V218.496C112.645 217.943 113.092 217.496 113.645 217.496H1250.67V90.3223C1250.67 89.77 1251.12 89.3223 1251.67 89.3223Z" fill="#D2AC83"/>
<path d="M1250.67 217.496V90.3223C1250.67 89.77 1251.12 89.3223 1251.67 89.3223H1591.46C1592.02 89.3223 1592.46 89.77 1592.46 90.3223V217.496M1250.67 217.496H113.645C113.092 217.496 112.645 217.943 112.645 218.496V573.827C112.645 574.379 113.092 574.827 113.645 574.827H285.484M1250.67 217.496V574.827M565.135 574.827H285.484M675.83 574.827H737.975M848.67 574.827H1250.67M1250.67 574.827V773.855C1250.67 774.407 1251.12 774.855 1251.67 774.855H1591.46C1592.02 774.855 1592.46 774.407 1592.46 773.855V574.827M1592.46 574.827V217.496M1592.46 574.827H2582.89M1592.46 217.496H2739.2C2739.75 217.496 2740.2 217.943 2740.2 218.496V573.827C2740.2 574.379 2739.75 574.827 2739.2 574.827H2582.89M2182 1616.5V966C2182 965.448 2181.55 965 2181 965H664.5C663.948 965 663.5 965.448 663.5 966V3982C663.5 3982.55 663.948 3983 664.5 3983H2181.5C2182.05 3983 2182.5 3982.55 2182.5 3982V2044.5M285.484 574.827C285.484 3191.8 112.759 3202.37 112.645 4234.5C112.645 4235.06 113.092 4235.53 113.645 4235.53H2739.2C2739.75 4235.53 2740.2 4235.05 2740.2 4234.5C2740.09 3217.91 2582.89 3217.02 2582.89 574.827" stroke="black" stroke-width="20"/>
<g clip-path="url(#clip0_924_7153)">
<rect width="1500" height="3000" transform="translate(673 973)" fill="#D2AC83"/>
<path d="M2173 973H673V3973H2173V973Z" fill="white"/>
<path d="M887.268 973H673V1187.27H887.268V973Z" fill="#F9F7D3"/>
<path d="M673 1187.27C673 1130.44 695.575 1075.94 735.758 1035.76C775.941 995.575 830.441 973 887.268 973L673 1187.27C729.828 1187.27 784.328 1164.69 824.511 1124.51C864.694 1084.33 887.268 1029.83 887.268 973" fill="#FFECEC"/>
<path d="M1101.54 973H887.268V1187.27H1101.54V973Z" fill="#FAD837"/>
<path d="M940.835 973H994.402L940.835 1026.57L887.268 1080.13V1026.57L940.835 973Z" fill="#FBE063"/>
<path d="M1101.54 1133.7V1187.27H1047.97L1101.54 1133.7Z" fill="#FBE063"/>
<path d="M1101.54 1026.57V1080.13L1047.97 1133.7L994.401 1187.27H940.834L1101.54 1026.57Z" fill="#FBE063"/>
<path d="M1047.97 973H1101.54L940.835 1133.7L887.268 1187.27V1133.7L1047.97 973Z" fill="#FBE063"/>
<path d="M1315.85 973H1101.58V1187.27H1315.85V973Z" fill="#FBF9E0"/>
<path d="M1155.15 973H1208.71L1155.15 1026.57L1101.58 1080.13V1026.57L1155.15 973Z" fill="#EEE67C"/>
<path d="M1315.85 1133.7V1187.27H1262.28L1315.85 1133.7Z" fill="#EEE67C"/>
<path d="M1315.85 1026.57V1080.13L1262.28 1133.7L1208.71 1187.27H1155.14L1315.85 1026.57Z" fill="#EEE67C"/>
<path d="M1262.28 973H1315.85L1155.15 1133.7L1101.58 1187.27V1133.7L1262.28 973Z" fill="#EEE67C"/>
<path d="M1530.11 973H1315.85V1187.27H1530.11V973Z" fill="#FF9798"/>
<path d="M1315.85 973L1530.11 1187.27H1315.85V973Z" fill="#FADC4D"/>
<path d="M1744.43 973H1530.14V1187.29H1744.43V973Z" fill="white"/>
<path d="M1637.31 973H1530.15V1080.15H1637.31V973Z" fill="#FED6B5"/>
<path d="M1583.73 973L1637.31 1026.58L1583.73 1080.15L1530.15 1026.58L1583.73 973Z" fill="#FFD2D3"/>
<path d="M1744.42 973H1637.27V1080.15H1744.42V973Z" fill="#E5F6CC"/>
<path d="M1637.27 1080.15C1665.69 1080.15 1692.94 1068.86 1713.04 1048.77C1733.13 1028.67 1744.42 1001.42 1744.42 973H1637.27" fill="#FECFAA"/>
<path d="M1637.31 1080.15H1530.15V1187.31H1637.31V1080.15Z" fill="#FED0AB"/>
<path d="M1583.73 1080.15L1637.31 1133.73L1583.73 1187.31L1530.15 1133.73L1583.73 1080.15Z" fill="#FDFEFA"/>
<path d="M1744.42 1080.15H1637.27V1187.31H1744.42V1080.15Z" fill="#EAF8D6"/>
<path d="M1664.06 1080.15H1690.84L1664.06 1106.94L1637.27 1133.73V1106.94L1664.06 1080.15Z" fill="#F2EC9A"/>
<path d="M1744.42 1160.52V1187.31H1717.63L1744.42 1160.52Z" fill="#F2EC9A"/>
<path d="M1744.42 1106.94V1133.73L1717.63 1160.52L1690.85 1187.31H1664.06L1744.42 1106.94Z" fill="#F2EC9A"/>
<path d="M1717.63 1080.15H1744.42L1664.06 1160.52L1637.27 1187.31V1160.52L1717.63 1080.15Z" fill="#F2EC9A"/>
<path d="M1958.69 973H1744.42V1187.27H1958.69V973Z" fill="#FFA4A5"/>
<path d="M1744.42 973L1958.69 1187.27H1744.42V973Z" fill="#EAF8D5"/>
<path d="M2173 973H1958.73V1187.27H2173V973Z" fill="#F0E989"/>
<path d="M1958.73 973C2015.56 973 2070.06 995.575 2110.24 1035.76C2150.43 1075.94 2173 1130.44 2173 1187.27L1958.73 973C1958.73 1029.83 1981.31 1084.33 2021.49 1124.51C2061.67 1164.69 2116.17 1187.27 2173 1187.27" fill="#FCFBEA"/>
<path d="M887.268 1187.27H673V1401.54H887.268V1187.27Z" fill="#E2F5C6"/>
<path d="M887.268 1187.27H673V1401.54H887.268V1187.27Z" fill="#EFE780"/>
<path d="M1101.54 1187.27H887.268V1401.54H1101.54V1187.27Z" fill="#F4FBEA"/>
<path d="M1101.54 1187.27H887.268V1401.54H1101.54V1187.27Z" fill="#EFE780"/>
<path d="M1315.86 1187.29H1101.57V1401.57H1315.86V1187.29Z" fill="white"/>
<path d="M1208.73 1187.27H1101.58V1294.42H1208.73V1187.27Z" fill="#FF999A"/>
<path d="M1208.73 1187.27H1101.58V1294.42H1208.73V1187.27Z" fill="#F9F7D3"/>
<path d="M1315.89 1187.27H1208.73V1294.42H1315.89V1187.27Z" fill="#E9F8D3"/>
<path d="M1315.89 1187.27V1294.42H1208.73L1315.89 1187.27Z" fill="#F9D62D"/>
<path d="M1208.73 1294.42H1101.58V1401.58H1208.73V1294.42Z" fill="#FEFFFC"/>
<path d="M1101.58 1294.42C1101.58 1322.84 1112.87 1350.1 1132.96 1370.19C1153.06 1390.29 1180.31 1401.58 1208.73 1401.58V1294.42" fill="#F3EEA4"/>
<path d="M1315.89 1294.42H1208.73V1401.58H1315.89V1294.42Z" fill="#F2ED9D"/>
<path d="M1315.89 1294.42H1208.73V1401.58H1315.89V1294.42Z" fill="#FF5556"/>
<path d="M1530.14 1187.29H1315.86V1401.57H1530.14V1187.29Z" fill="white"/>
<path d="M1423 1187.27H1315.85V1294.42H1423V1187.27Z" fill="#FFC3C4"/>
<path d="M1342.63 1187.27H1369.42L1342.63 1214.06L1315.85 1240.84V1214.06L1342.63 1187.27Z" fill="#FDFDF3"/>
<path d="M1423 1267.63V1294.42H1396.21L1423 1267.63Z" fill="#FDFDF3"/>
<path d="M1423 1214.06V1240.85L1396.21 1267.63L1369.42 1294.42H1342.63L1423 1214.06Z" fill="#FDFDF3"/>
<path d="M1396.21 1187.27H1423L1342.63 1267.63L1315.85 1294.42V1267.63L1396.21 1187.27Z" fill="#FDFDF3"/>
<path d="M1530.15 1187.27H1423V1294.42H1530.15V1187.27Z" fill="#FEF6D1"/>
<path d="M1423 1187.27H1530.15V1294.42L1423 1187.27Z" fill="#FCEDA2"/>
<path d="M1423 1294.42H1315.85V1401.58H1423V1294.42Z" fill="#FF999A"/>
<path d="M1315.85 1294.42C1344.26 1294.42 1371.52 1305.71 1391.62 1325.81C1411.71 1345.9 1423 1373.16 1423 1401.58L1315.85 1294.42C1315.85 1308.49 1318.62 1322.43 1324 1335.43C1329.39 1348.43 1337.28 1360.24 1347.23 1370.19C1357.18 1380.14 1368.99 1388.03 1381.99 1393.42C1394.99 1398.8 1408.93 1401.58 1423 1401.58" fill="#FEE3CD"/>
<path d="M1530.15 1294.42H1423V1401.58H1530.15V1294.42Z" fill="#FC9643"/>
<path d="M1530.15 1294.42H1423V1401.58H1530.15V1294.42Z" fill="#FDBD88"/>
<path d="M1744.43 1187.29H1530.14V1401.57H1744.43V1187.29Z" fill="white"/>
<path d="M1637.31 1187.27H1530.15V1294.42H1637.31V1187.27Z" fill="#FFFBF9"/>
<path d="M1556.94 1187.27H1583.73L1556.94 1214.06L1530.15 1240.84V1214.06L1556.94 1187.27Z" fill="#FF6C6E"/>
<path d="M1637.31 1267.63V1294.42H1610.52L1637.31 1267.63Z" fill="#FF6C6E"/>
<path d="M1637.31 1214.06V1240.85L1610.52 1267.63L1583.73 1294.42H1556.94L1637.31 1214.06Z" fill="#FF6C6E"/>
<path d="M1610.52 1187.27H1637.31L1556.94 1267.63L1530.15 1294.42V1267.63L1610.52 1187.27Z" fill="#FF6C6E"/>
<path d="M1744.42 1187.27H1637.27V1294.42H1744.42V1187.27Z" fill="#FDF3C2"/>
<path d="M1637.27 1294.42C1665.69 1294.42 1692.94 1283.13 1713.04 1263.04C1733.13 1242.94 1744.42 1215.69 1744.42 1187.27H1637.27" fill="#FEE9D7"/>
<path d="M1637.31 1294.42H1530.15V1401.58H1637.31V1294.42Z" fill="#FDB376"/>
<path d="M1530.15 1294.42C1544.23 1294.42 1558.16 1297.19 1571.16 1302.58C1584.16 1307.96 1595.97 1315.86 1605.92 1325.81C1615.87 1335.76 1623.77 1347.57 1629.15 1360.57C1634.54 1373.57 1637.31 1387.5 1637.31 1401.58L1530.15 1294.42C1530.15 1322.84 1541.44 1350.1 1561.54 1370.19C1581.63 1390.29 1608.89 1401.58 1637.31 1401.58" fill="#FF6E6F"/>
<path d="M1744.42 1294.42H1637.27V1401.58H1744.42V1294.42Z" fill="#FFFDFC"/>
<path d="M1664.06 1294.42H1690.84L1664.06 1321.21L1637.27 1348V1321.21L1664.06 1294.42Z" fill="#E9F8D4"/>
<path d="M1744.42 1374.79V1401.58H1717.63L1744.42 1374.79Z" fill="#E9F8D4"/>
<path d="M1744.42 1321.21V1348L1717.63 1374.79L1690.85 1401.58H1664.06L1744.42 1321.21Z" fill="#E9F8D4"/>
<path d="M1717.63 1294.42H1744.42L1664.06 1374.79L1637.27 1401.58V1374.79L1717.63 1294.42Z" fill="#E9F8D4"/>
<path d="M1958.72 1187.29H1744.43V1401.57H1958.72V1187.29Z" fill="white"/>
<path d="M1851.58 1187.27H1744.42V1294.42H1851.58V1187.27Z" fill="#FEF6D3"/>
<path d="M1771.21 1187.27H1798L1771.21 1214.06L1744.42 1240.84V1214.06L1771.21 1187.27Z" fill="#FF9293"/>
<path d="M1851.58 1267.63V1294.42H1824.79L1851.58 1267.63Z" fill="#FF9293"/>
<path d="M1851.58 1214.06V1240.85L1824.79 1267.63L1798 1294.42H1771.21L1851.58 1214.06Z" fill="#FF9293"/>
<path d="M1824.79 1187.27H1851.58L1771.21 1267.63L1744.42 1294.42V1267.63L1824.79 1187.27Z" fill="#FF9293"/>
<path d="M1958.73 1187.27H1851.58V1294.42H1958.73V1187.27Z" fill="#EEE67C"/>
<path d="M1958.73 1187.27H1851.58V1294.42H1958.73V1187.27Z" fill="#F1EA90"/>
<path d="M1851.58 1294.42H1744.42V1401.58H1851.58V1294.42Z" fill="#FEE8D6"/>
<path d="M1744.42 1294.42C1772.84 1294.42 1800.1 1305.71 1820.19 1325.81C1840.29 1345.9 1851.58 1373.16 1851.58 1401.58L1744.42 1294.42C1744.42 1308.49 1747.2 1322.43 1752.58 1335.43C1757.97 1348.43 1765.86 1360.24 1775.81 1370.19C1785.76 1380.14 1797.57 1388.03 1810.57 1393.42C1823.57 1398.8 1837.51 1401.58 1851.58 1401.58" fill="#FFB8B9"/>
<path d="M1958.73 1294.42H1851.58V1401.58H1958.73V1294.42Z" fill="#FF7D7E"/>
<path d="M1851.58 1294.42C1851.58 1322.84 1862.87 1350.1 1882.96 1370.19C1903.06 1390.29 1930.31 1401.58 1958.73 1401.58V1294.42" fill="#FEE0C7"/>
<path d="M2173 1187.27H1958.73V1401.54H2173V1187.27Z" fill="#E3F6C8"/>
<path d="M1958.73 1401.54C1958.73 1344.71 1981.31 1290.21 2021.49 1250.03C2061.67 1209.84 2116.17 1187.27 2173 1187.27L1958.73 1401.54C2015.56 1401.54 2070.06 1378.96 2110.24 1338.78C2150.43 1298.6 2173 1244.1 2173 1187.27" fill="#F4FBE9"/>
<path d="M887.268 1401.58H673V1615.85H887.268V1401.58Z" fill="#FEFBE9"/>
<path d="M673 1401.58H887.268L673 1615.85V1401.58Z" fill="#FFC5C6"/>
<path d="M1101.54 1401.58H887.268V1615.85H1101.54V1401.58Z" fill="#FCA054"/>
<path d="M940.835 1401.58H994.402L940.835 1455.15L887.268 1508.71V1455.15L940.835 1401.58Z" fill="#FED5B3"/>
<path d="M1101.54 1562.28V1615.85H1047.97L1101.54 1562.28Z" fill="#FED5B3"/>
<path d="M1101.54 1455.14V1508.71L1047.97 1562.28L994.401 1615.85H940.834L1101.54 1455.14Z" fill="#FED5B3"/>
<path d="M1047.97 1401.58H1101.54L940.835 1562.28L887.268 1615.85V1562.28L1047.97 1401.58Z" fill="#FED5B3"/>
<path d="M1315.86 1401.57H1101.57V1615.86H1315.86V1401.57Z" fill="white"/>
<path d="M1208.73 1401.58H1101.58V1508.73H1208.73V1401.58Z" fill="#F5F1B4"/>
<path d="M1128.37 1401.58H1155.16L1128.37 1428.37L1101.58 1455.16V1428.37L1128.37 1401.58Z" fill="#FF6668"/>
<path d="M1208.73 1481.94V1508.73H1181.94L1208.73 1481.94Z" fill="#FF6668"/>
<path d="M1208.73 1428.37V1455.16L1181.94 1481.94L1155.16 1508.73H1128.37L1208.73 1428.37Z" fill="#FF6668"/>
<path d="M1181.94 1401.58H1208.73L1128.37 1481.94L1101.58 1508.73V1481.94L1181.94 1401.58Z" fill="#FF6668"/>
<path d="M1315.89 1401.58H1208.73V1508.73H1315.89V1401.58Z" fill="#F8F5C9"/>
<path d="M1208.73 1401.58L1315.89 1508.73H1208.73V1401.58Z" fill="#EEF9DE"/>
<path d="M1208.73 1508.73H1101.58V1615.89H1208.73V1508.73Z" fill="#EEF9DE"/>
<path d="M1155.16 1508.73L1208.73 1562.31L1155.16 1615.89L1101.58 1562.31L1155.16 1508.73Z" fill="#FFB6B7"/>
<path d="M1315.89 1508.73H1208.73V1615.89H1315.89V1508.73Z" fill="#F5F1B5"/>
<path d="M1262.31 1508.73L1315.89 1562.31L1262.31 1615.89L1208.73 1562.31L1262.31 1508.73Z" fill="#F2EC9B"/>
<path d="M1530.11 1401.58H1315.85V1615.85H1530.11V1401.58Z" fill="#FF898B"/>
<path d="M1315.85 1615.85C1315.85 1587.71 1321.39 1559.85 1332.16 1533.85C1342.92 1507.85 1358.71 1484.23 1378.6 1464.34C1418.79 1424.15 1473.29 1401.58 1530.11 1401.58L1315.85 1615.85C1343.98 1615.85 1371.85 1610.3 1397.84 1599.54C1423.84 1588.77 1447.46 1572.99 1467.36 1553.09C1487.25 1533.19 1503.04 1509.57 1513.8 1483.58C1524.57 1457.58 1530.11 1429.72 1530.11 1401.58" fill="#FFFFFE"/>
<path d="M1744.43 1401.57H1530.14V1615.86H1744.43V1401.57Z" fill="white"/>
<path d="M1637.31 1401.58H1530.15V1508.73H1637.31V1401.58Z" fill="#FFC0C1"/>
<path d="M1530.15 1401.58H1637.31L1530.15 1508.73V1401.58Z" fill="#EFFAE0"/>
<path d="M1744.42 1401.58H1637.27V1508.73H1744.42V1401.58Z" fill="#FF6D6F"/>
<path d="M1744.42 1401.58H1637.27V1508.73H1744.42V1401.58Z" fill="#F5FCEB"/>
<path d="M1637.31 1508.73H1530.15V1615.89H1637.31V1508.73Z" fill="#F3EDA1"/>
<path d="M1530.15 1508.73H1637.31L1530.15 1615.89V1508.73Z" fill="#E1F5C5"/>
<path d="M1744.42 1508.73H1637.27V1615.89H1744.42V1508.73Z" fill="#FDFCED"/>
<path d="M1744.42 1508.73H1637.27V1615.89H1744.42V1508.73Z" fill="#FBE36F"/>
<path d="M1958.69 1401.58H1744.42V1615.85H1958.69V1401.58Z" fill="#FDEFAB"/>
<path d="M1958.69 1401.58H1744.42V1615.85H1958.69V1401.58Z" fill="#FF6B6C"/>
<path d="M2173 1401.58H1958.73V1615.85H2173V1401.58Z" fill="#FDBC87"/>
<path d="M2173 1401.58H1958.73V1615.85H2173V1401.58Z" fill="#EFE781"/>
<path d="M887.268 1615.85H673V1830.11H887.268V1615.85Z" fill="#FAF7D7"/>
<path d="M780.134 1615.85L887.268 1722.98L780.134 1830.11L673 1722.98L780.134 1615.85Z" fill="#FDAB68"/>
<path d="M1101.54 1615.85H887.268V1830.11H1101.54V1615.85Z" fill="#FDA965"/>
<path d="M994.402 1615.85L1101.54 1722.98L994.402 1830.11L887.268 1722.98L994.402 1615.85Z" fill="#FDF2BE"/>
<path d="M1315.85 1615.85H1101.58V1830.11H1315.85V1615.85Z" fill="#F7F3C1"/>
<path d="M1101.58 1830.11C1101.58 1773.29 1124.15 1718.79 1164.34 1678.6C1204.52 1638.42 1259.02 1615.85 1315.85 1615.85L1101.58 1830.11C1129.72 1830.11 1157.58 1824.57 1183.58 1813.8C1209.57 1803.04 1233.19 1787.25 1253.09 1767.36C1272.99 1747.46 1288.77 1723.84 1299.54 1697.84C1310.3 1671.85 1315.85 1643.98 1315.85 1615.85" fill="#FDF1B7"/>
<path d="M1530.11 1615.85H1315.85V1830.11H1530.11V1615.85Z" fill="#EDF9DC"/>
<path d="M1369.41 1615.85H1422.98L1369.41 1669.41L1315.85 1722.98V1669.41L1369.41 1615.85Z" fill="#FDB275"/>
<path d="M1530.11 1776.55V1830.11H1476.55L1530.11 1776.55Z" fill="#FDB275"/>
<path d="M1530.11 1669.41V1722.98L1476.55 1776.55L1422.98 1830.11H1369.41L1530.11 1669.41Z" fill="#FDB275"/>
<path d="M1476.55 1615.85H1530.11L1369.41 1776.55L1315.85 1830.12V1776.55L1476.55 1615.85Z" fill="#FDB275"/>
<path d="M1744.43 1615.86H1530.14V1830.14H1744.43V1615.86Z" fill="white"/>
<path d="M1637.31 1615.85H1530.15V1723H1637.31V1615.85Z" fill="#E4F6C9"/>
<path d="M1530.15 1723C1530.15 1708.93 1532.93 1694.99 1538.31 1681.99C1543.7 1668.99 1551.59 1657.18 1561.54 1647.23C1571.49 1637.28 1583.3 1629.39 1596.3 1624C1609.3 1618.62 1623.24 1615.85 1637.31 1615.85L1530.15 1723C1544.23 1723 1558.16 1720.23 1571.16 1714.84C1584.16 1709.46 1595.97 1701.57 1605.92 1691.62C1615.87 1681.67 1623.77 1669.85 1629.15 1656.85C1634.54 1643.85 1637.31 1629.92 1637.31 1615.85" fill="#FCE990"/>
<path d="M1744.42 1615.85H1637.27V1723H1744.42V1615.85Z" fill="#FECCA3"/>
<path d="M1637.27 1615.85H1744.42V1723L1637.27 1615.85Z" fill="#FADE55"/>
<path d="M1637.31 1723H1530.15V1830.15H1637.31V1723Z" fill="#FF6567"/>
<path d="M1556.94 1723H1583.73L1556.94 1749.79L1530.15 1776.58V1749.79L1556.94 1723Z" fill="#FF5658"/>
<path d="M1637.31 1803.37V1830.15H1610.52L1637.31 1803.37Z" fill="#FF5658"/>
<path d="M1637.31 1749.79V1776.58L1610.52 1803.37L1583.73 1830.15H1556.94L1637.31 1749.79Z" fill="#FF5658"/>
<path d="M1610.52 1723H1637.31L1556.94 1803.37L1530.15 1830.16V1803.37L1610.52 1723Z" fill="#FF5658"/>
<path d="M1744.42 1723H1637.27V1830.15H1744.42V1723Z" fill="#F9F6CF"/>
<path d="M1637.27 1723C1665.69 1723 1692.94 1734.29 1713.04 1754.38C1733.13 1774.48 1744.42 1801.74 1744.42 1830.15L1637.27 1723C1637.27 1751.42 1648.56 1778.67 1668.65 1798.77C1688.75 1818.86 1716 1830.15 1744.42 1830.15" fill="#E8F7D2"/>
<path d="M1958.72 1615.86H1744.43V1830.14H1958.72V1615.86Z" fill="white"/>
<path d="M1851.58 1615.85H1744.42V1723H1851.58V1615.85Z" fill="#FAFDF6"/>
<path d="M1744.42 1723C1744.42 1708.93 1747.2 1694.99 1752.58 1681.99C1757.97 1668.99 1765.86 1657.18 1775.81 1647.23C1785.76 1637.28 1797.57 1629.39 1810.57 1624C1823.57 1618.62 1837.51 1615.85 1851.58 1615.85L1744.42 1723C1772.84 1723 1800.1 1711.71 1820.19 1691.62C1840.29 1671.52 1851.58 1644.26 1851.58 1615.85" fill="#E4F6C9"/>
<path d="M1958.73 1615.85H1851.58V1723H1958.73V1615.85Z" fill="#FFE4E4"/>
<path d="M1878.36 1615.85H1905.15L1878.36 1642.63L1851.58 1669.42V1642.63L1878.36 1615.85Z" fill="#FFD1D1"/>
<path d="M1958.73 1696.21V1723H1931.94L1958.73 1696.21Z" fill="#FFD1D1"/>
<path d="M1958.73 1642.63V1669.42L1931.94 1696.21L1905.15 1723H1878.37L1958.73 1642.63Z" fill="#FFD1D1"/>
<path d="M1931.94 1615.85H1958.73L1878.36 1696.21L1851.58 1723V1696.21L1931.94 1615.85Z" fill="#FFD1D1"/>
<path d="M1851.58 1723H1744.42V1830.15H1851.58V1723Z" fill="#FFDCDC"/>
<path d="M1771.21 1723H1798L1771.21 1749.79L1744.42 1776.58V1749.79L1771.21 1723Z" fill="#FF7273"/>
<path d="M1851.58 1803.37V1830.15H1824.79L1851.58 1803.37Z" fill="#FF7273"/>
<path d="M1851.58 1749.79V1776.58L1824.79 1803.37L1798 1830.15H1771.21L1851.58 1749.79Z" fill="#FF7273"/>
<path d="M1824.79 1723H1851.58L1771.21 1803.37L1744.42 1830.16V1803.37L1824.79 1723Z" fill="#FF7273"/>
<path d="M1958.73 1723H1851.58V1830.15H1958.73V1723Z" fill="#FF7071"/>
<path d="M1851.58 1723H1958.73V1830.15L1851.58 1723Z" fill="#FECDA6"/>
<path d="M2173 1615.85H1958.73V1830.11H2173V1615.85Z" fill="#FFBABA"/>
<path d="M2012.3 1615.85H2065.87L2012.3 1669.41L1958.73 1722.98V1669.41L2012.3 1615.85Z" fill="#F4FBEA"/>
<path d="M2173 1776.55V1830.11H2119.43L2173 1776.55Z" fill="#F4FBEA"/>
<path d="M2173 1669.41V1722.98L2119.43 1776.55L2065.87 1830.11H2012.3L2173 1669.41Z" fill="#F4FBEA"/>
<path d="M2119.43 1615.85H2173L2012.3 1776.55L1958.73 1830.12V1776.55L2119.43 1615.85Z" fill="#F4FBEA"/>
<path d="M887.268 1830.15H673V2044.42H887.268V1830.15Z" fill="#FFD6D7"/>
<path d="M673 2044.42C673 1987.6 695.575 1933.1 735.758 1892.91C775.941 1852.73 830.441 1830.15 887.268 1830.15V2044.42" fill="#EFFAE0"/>
<path d="M1101.54 1830.15H887.268V2044.42H1101.54V1830.15Z" fill="#EEE77F"/>
<path d="M887.268 1830.15H1101.54L887.268 2044.42V1830.15Z" fill="#FFFEF8"/>
<path d="M1315.85 1830.15H1101.58V2044.42H1315.85V1830.15Z" fill="#F7F3BF"/>
<path d="M1315.85 1830.15H1101.58V2044.42H1315.85V1830.15Z" fill="#FDA55E"/>
<path d="M1530.14 1830.14H1315.86V2044.43H1530.14V1830.14Z" fill="white"/>
<path d="M1423 1830.15H1315.85V1937.31H1423V1830.15Z" fill="#FFF9F9"/>
<path d="M1369.42 1830.15L1423 1883.73L1369.42 1937.31L1315.85 1883.73L1369.42 1830.15Z" fill="#E9F8D4"/>
<path d="M1530.15 1830.15H1423V1937.31H1530.15V1830.15Z" fill="#FC933E"/>
<path d="M1423 1830.15L1530.15 1937.31H1423V1830.15Z" fill="#EAF8D5"/>
<path d="M1423 1937.27H1315.85V2044.42H1423V1937.27Z" fill="#FCFBE9"/>
<path d="M1369.42 1937.27L1423 1990.84L1369.42 2044.42L1315.85 1990.84L1369.42 1937.27Z" fill="#FDA762"/>
<path d="M1530.15 1937.27H1423V2044.42H1530.15V1937.27Z" fill="#FFDADB"/>
<path d="M1530.15 1937.27H1423V2044.42H1530.15V1937.27Z" fill="#FFF9F5"/>
<path d="M1744.42 1830.15H1530.15V2044.42H1744.42V1830.15Z" fill="#E5F6CD"/>
<path d="M1583.72 1830.15H1637.29L1583.72 1883.72L1530.15 1937.29V1883.72L1583.72 1830.15Z" fill="#EDF9DB"/>
<path d="M1744.42 1990.86V2044.42H1690.86L1744.42 1990.86Z" fill="#EDF9DB"/>
<path d="M1744.42 1883.72V1937.29L1690.85 1990.85L1637.29 2044.42H1583.72L1744.42 1883.72Z" fill="#EDF9DB"/>
<path d="M1690.86 1830.15H1744.42L1583.72 1990.86L1530.15 2044.42V1990.86L1690.86 1830.15Z" fill="#EDF9DB"/>
<path d="M1958.69 1830.15H1744.42V2044.42H1958.69V1830.15Z" fill="#FEE9D7"/>
<path d="M1744.42 1830.15C1801.25 1830.15 1855.75 1852.73 1895.93 1892.91C1936.12 1933.1 1958.69 1987.6 1958.69 2044.42L1744.42 1830.15C1744.42 1886.98 1767 1941.48 1807.18 1981.66C1847.36 2021.85 1901.86 2044.42 1958.69 2044.42" fill="#FDB174"/>
<path d="M2173 1830.14H1958.71V2044.43H2173V1830.14Z" fill="white"/>
<path d="M2065.89 1830.15H1958.73V1937.31H2065.89V1830.15Z" fill="#FDEFAD"/>
<path d="M1958.73 1830.15H2065.89L1958.73 1937.31V1830.15Z" fill="#FFF9F9"/>
<path d="M2173 1830.15H2065.85V1937.31H2173V1830.15Z" fill="#FADB49"/>
<path d="M2065.85 1830.15C2065.85 1844.23 2068.62 1858.16 2074 1871.16C2079.39 1884.16 2087.28 1895.97 2097.23 1905.92C2107.18 1915.87 2118.99 1923.77 2131.99 1929.15C2144.99 1934.54 2158.93 1937.31 2173 1937.31V1830.15" fill="#FEFBE9"/>
<path d="M2065.89 1937.27H1958.73V2044.42H2065.89V1937.27Z" fill="#FFF3EA"/>
<path d="M1958.73 1937.27C1987.15 1937.27 2014.41 1948.56 2034.5 1968.65C2054.6 1988.75 2065.89 2016 2065.89 2044.42L1958.73 1937.27C1958.73 1965.69 1970.02 1992.94 1990.12 2013.04C2010.21 2033.13 2037.47 2044.42 2065.89 2044.42" fill="#FDA864"/>
<path d="M2173 1937.27H2065.85V2044.42H2173V1937.27Z" fill="#FBE05E"/>
<path d="M2173 1937.27H2065.85V2044.42H2173V1937.27Z" fill="#FFB4B5"/>
<path d="M887.268 2044.42H673V2258.69H887.268V2044.42Z" fill="#FDF4C7"/>
<path d="M780.134 2044.42L887.268 2151.56L780.134 2258.69L673 2151.56L780.134 2044.42Z" fill="#F8FDF2"/>
<path d="M1101.54 2044.42H887.268V2258.69H1101.54V2044.42Z" fill="#ECF9DA"/>
<path d="M887.268 2044.42L1101.54 2258.69H887.268V2044.42Z" fill="#FBE062"/>
<path d="M1315.86 2044.43H1101.57V2258.72H1315.86V2044.43Z" fill="white"/>
<path d="M1208.73 2044.42H1101.58V2151.58H1208.73V2044.42Z" fill="#EDF9DC"/>
<path d="M1155.16 2044.42L1208.73 2098L1155.16 2151.58L1101.58 2098L1155.16 2044.42Z" fill="#FF7677"/>
<path d="M1315.89 2044.42H1208.73V2151.58H1315.89V2044.42Z" fill="#FF7173"/>
<path d="M1208.73 2044.42C1222.8 2044.42 1236.74 2047.2 1249.74 2052.58C1262.74 2057.97 1274.55 2065.86 1284.5 2075.81C1294.45 2085.76 1302.35 2097.57 1307.73 2110.57C1313.12 2123.57 1315.89 2137.51 1315.89 2151.58L1208.73 2044.42C1208.73 2072.84 1220.02 2100.1 1240.12 2120.19C1260.21 2140.29 1287.47 2151.58 1315.89 2151.58" fill="#FDF0B4"/>
<path d="M1208.73 2151.58H1101.58V2258.73H1208.73V2151.58Z" fill="#FF9A9B"/>
<path d="M1128.37 2151.58H1155.16L1128.37 2178.36L1101.58 2205.15V2178.36L1128.37 2151.58Z" fill="#EDF9DC"/>
<path d="M1208.73 2231.94V2258.73H1181.94L1208.73 2231.94Z" fill="#EDF9DC"/>
<path d="M1208.73 2178.37V2205.15L1181.94 2231.94L1155.16 2258.73H1128.37L1208.73 2178.37Z" fill="#EDF9DC"/>
<path d="M1181.94 2151.58H1208.73L1128.37 2231.94L1101.58 2258.73V2231.94L1181.94 2151.58Z" fill="#EDF9DC"/>
<path d="M1315.89 2151.58H1208.73V2258.73H1315.89V2151.58Z" fill="#FEFBEB"/>
<path d="M1208.73 2151.58C1237.15 2151.58 1264.41 2162.87 1284.5 2182.96C1304.6 2203.06 1315.89 2230.31 1315.89 2258.73L1208.73 2151.58C1208.73 2180 1220.02 2207.25 1240.12 2227.35C1260.21 2247.44 1287.47 2258.73 1315.89 2258.73" fill="#FADB45"/>
<path d="M1530.11 2044.42H1315.85V2258.69H1530.11V2044.42Z" fill="#FED6B6"/>
<path d="M1315.85 2258.69C1315.85 2201.86 1338.42 2147.36 1378.6 2107.18C1418.79 2067 1473.29 2044.42 1530.11 2044.42L1315.85 2258.69C1343.98 2258.69 1371.85 2253.15 1397.84 2242.38C1423.84 2231.61 1447.46 2215.83 1467.36 2195.93C1487.25 2176.04 1503.04 2152.42 1513.8 2126.42C1524.57 2100.42 1530.11 2072.56 1530.11 2044.42" fill="#F9D630"/>
<path d="M1744.42 2044.42H1530.15V2258.69H1744.42V2044.42Z" fill="#FFEDED"/>
<path d="M1530.15 2258.69C1530.15 2201.86 1552.73 2147.36 1592.91 2107.18C1633.1 2067 1687.6 2044.42 1744.42 2044.42L1530.15 2258.69C1586.98 2258.69 1641.48 2236.12 1681.66 2195.93C1721.85 2155.75 1744.42 2101.25 1744.42 2044.42" fill="#FCE98C"/>
<path d="M1958.69 2044.42H1744.42V2258.69H1958.69V2044.42Z" fill="#F2EC9A"/>
<path d="M1958.69 2044.42V2258.69H1744.42L1958.69 2044.42Z" fill="#FEC89D"/>
<path d="M2173 2044.42H1958.73V2258.69H2173V2044.42Z" fill="#E7F7CF"/>
<path d="M1958.73 2044.42C1958.73 2101.25 1981.31 2155.75 2021.49 2195.93C2061.67 2236.12 2116.17 2258.69 2173 2258.69V2044.42" fill="#F5F0AE"/>
<path d="M887.286 2258.71H673V2473H887.286V2258.71Z" fill="white"/>
<path d="M780.154 2258.73H673V2365.89H780.154V2258.73Z" fill="#FFAAAB"/>
<path d="M673 2258.73C701.419 2258.73 728.674 2270.02 748.77 2290.12C768.865 2310.21 780.154 2337.47 780.154 2365.89H673" fill="#FF898A"/>
<path d="M887.309 2258.73H780.154V2365.89H887.309V2258.73Z" fill="#FFDCDC"/>
<path d="M806.943 2258.73H833.731L806.943 2285.52L780.154 2312.31V2285.52L806.943 2258.73Z" fill="#F2EC9C"/>
<path d="M887.308 2339.1V2365.89H860.52L887.308 2339.1Z" fill="#F2EC9C"/>
<path d="M887.309 2285.52V2312.31L860.521 2339.1L833.732 2365.89H806.943L887.309 2285.52Z" fill="#F2EC9C"/>
<path d="M860.52 2258.73H887.309L806.943 2339.1L780.154 2365.89V2339.1L860.52 2258.73Z" fill="#F2EC9C"/>
<path d="M780.154 2365.85H673V2473H780.154V2365.85Z" fill="#FC9F53"/>
<path d="M699.789 2365.85H726.577L699.789 2392.63L673 2419.42V2392.63L699.789 2365.85Z" fill="#FF5153"/>
<path d="M780.154 2446.21V2473H753.365L780.154 2446.21Z" fill="#FF5153"/>
<path d="M780.155 2392.63V2419.42L753.366 2446.21L726.578 2473H699.789L780.155 2392.63Z" fill="#FF5153"/>
<path d="M753.366 2365.85H780.154L699.789 2446.21L673 2473V2446.21L753.366 2365.85Z" fill="#FF5153"/>
<path d="M887.309 2365.85H780.154V2473H887.309V2365.85Z" fill="#FCEDA1"/>
<path d="M833.731 2365.85L887.309 2419.42L833.731 2473L780.154 2419.42L833.731 2365.85Z" fill="#FEF5CB"/>
<path d="M1101.57 2258.71H887.285V2473H1101.57V2258.71Z" fill="white"/>
<path d="M994.422 2258.73H887.268V2365.89H994.422V2258.73Z" fill="#F1FAE3"/>
<path d="M887.268 2365.89C887.268 2337.47 898.557 2310.21 918.652 2290.12C938.748 2270.02 966.003 2258.73 994.422 2258.73L887.268 2365.89C915.687 2365.89 942.942 2354.6 963.037 2334.5C983.132 2314.41 994.422 2287.15 994.422 2258.73" fill="#F8F6CD"/>
<path d="M1101.58 2258.73H994.422V2365.89H1101.58V2258.73Z" fill="#FBF9DF"/>
<path d="M1021.21 2258.73H1048L1021.21 2285.52L994.422 2312.31V2285.52L1021.21 2258.73Z" fill="#EBF8D9"/>
<path d="M1101.58 2339.1V2365.89H1074.79L1101.58 2339.1Z" fill="#EBF8D9"/>
<path d="M1101.58 2285.52V2312.31L1074.79 2339.1L1048 2365.89H1021.21L1101.58 2285.52Z" fill="#EBF8D9"/>
<path d="M1074.79 2258.73H1101.58L1021.21 2339.1L994.422 2365.89V2339.1L1074.79 2258.73Z" fill="#EBF8D9"/>
<path d="M994.422 2365.85H887.268V2473H994.422V2365.85Z" fill="#FFFEF9"/>
<path d="M887.268 2365.85C901.339 2365.85 915.273 2368.62 928.274 2374C941.274 2379.39 953.087 2387.28 963.037 2397.23C972.987 2407.18 980.88 2418.99 986.265 2431.99C991.65 2444.99 994.422 2458.93 994.422 2473L887.268 2365.85C887.268 2394.26 898.557 2421.52 918.652 2441.62C938.748 2461.71 966.003 2473 994.422 2473" fill="#FEDFC6"/>
<path d="M1101.58 2365.85H994.422V2473H1101.58V2365.85Z" fill="#FEFFFD"/>
<path d="M994.422 2473C994.422 2458.93 997.194 2444.99 1002.58 2431.99C1007.96 2418.99 1015.86 2407.18 1025.81 2397.23C1035.76 2387.28 1047.57 2379.39 1060.57 2374C1073.57 2368.62 1087.5 2365.85 1101.58 2365.85V2473" fill="#FDF3C2"/>
<path d="M1315.85 2258.73H1101.58V2473H1315.85V2258.73Z" fill="#FFFBF7"/>
<path d="M1101.58 2473C1101.58 2416.17 1124.15 2361.67 1164.34 2321.49C1204.52 2281.31 1259.02 2258.73 1315.85 2258.73L1101.58 2473C1158.41 2473 1212.91 2450.43 1253.09 2410.24C1293.27 2370.06 1315.85 2315.56 1315.85 2258.73" fill="#EDE574"/>
<path d="M1530.11 2258.73H1315.85V2473H1530.11V2258.73Z" fill="#FDFCF0"/>
<path d="M1530.11 2258.73H1315.85V2473H1530.11V2258.73Z" fill="#FECEA7"/>
<path d="M1744.42 2258.73H1530.15V2473H1744.42V2258.73Z" fill="#F9FDF2"/>
<path d="M1744.42 2258.73H1530.15V2473H1744.42V2258.73Z" fill="#FEE4CE"/>
<path d="M1958.72 2258.71H1744.43V2473H1958.72V2258.71Z" fill="white"/>
<path d="M1851.58 2258.73H1744.42V2365.89H1851.58V2258.73Z" fill="#FDC495"/>
<path d="M1744.42 2258.73H1851.58L1744.42 2365.89V2258.73Z" fill="#FEE9D8"/>
<path d="M1958.73 2258.73H1851.58V2365.89H1958.73V2258.73Z" fill="#FC9E51"/>
<path d="M1851.58 2258.73H1958.73V2365.89L1851.58 2258.73Z" fill="#F9FDF4"/>
<path d="M1851.58 2365.85H1744.42V2473H1851.58V2365.85Z" fill="#EEF9DE"/>
<path d="M1798 2365.85L1851.58 2419.42L1798 2473L1744.42 2419.42L1798 2365.85Z" fill="#E8F7D1"/>
<path d="M1958.73 2365.85H1851.58V2473H1958.73V2365.85Z" fill="#FFC3C3"/>
<path d="M1851.58 2365.85H1958.73L1851.58 2473V2365.85Z" fill="#FDEFAE"/>
<path d="M2173 2258.73H1958.73V2473H2173V2258.73Z" fill="#F2EC98"/>
<path d="M2065.87 2258.73L2173 2365.87L2065.87 2473L1958.73 2365.87L2065.87 2258.73Z" fill="#F8F5C8"/>
<path d="M887.268 2473H673V2687.27H887.268V2473Z" fill="#F6F2B8"/>
<path d="M673 2687.27C729.828 2687.27 784.328 2664.69 824.511 2624.51C864.694 2584.33 887.268 2529.83 887.268 2473H673" fill="#F3FBE7"/>
<path d="M1101.54 2473H887.268V2687.27H1101.54V2473Z" fill="#FBE578"/>
<path d="M887.268 2473C944.095 2473 998.595 2495.57 1038.78 2535.76C1078.96 2575.94 1101.54 2630.44 1101.54 2687.27L887.268 2473C887.268 2529.83 909.842 2584.33 950.025 2624.51C990.208 2664.69 1044.71 2687.27 1101.54 2687.27" fill="#F9D731"/>
<path d="M1315.85 2473H1101.58V2687.27H1315.85V2473Z" fill="#FFF7F7"/>
<path d="M1101.58 2473C1158.41 2473 1212.91 2495.57 1253.09 2535.76C1293.27 2575.94 1315.85 2630.44 1315.85 2687.27L1101.58 2473C1101.58 2529.83 1124.15 2584.33 1164.34 2624.51C1184.23 2644.41 1207.85 2660.19 1233.85 2670.96C1259.85 2681.73 1287.71 2687.27 1315.85 2687.27" fill="#FF696B"/>
<path d="M1530.11 2473H1315.85V2687.27H1530.11V2473Z" fill="#EEF9DE"/>
<path d="M1315.85 2687.27C1315.85 2630.44 1338.42 2575.94 1378.6 2535.76C1418.79 2495.57 1473.29 2473 1530.11 2473V2687.27" fill="#FBE474"/>
<path d="M1744.43 2473H1530.14V2687.29H1744.43V2473Z" fill="white"/>
<path d="M1637.31 2473H1530.15V2580.15H1637.31V2473Z" fill="#F5FCEB"/>
<path d="M1530.15 2580.15C1530.15 2551.74 1541.44 2524.48 1561.54 2504.38C1581.63 2484.29 1608.89 2473 1637.31 2473L1530.15 2580.15C1544.23 2580.15 1558.16 2577.38 1571.16 2572C1584.16 2566.61 1595.97 2558.72 1605.92 2548.77C1615.87 2538.82 1623.77 2527.01 1629.15 2514.01C1634.54 2501.01 1637.31 2487.07 1637.31 2473" fill="#EFE882"/>
<path d="M1744.42 2473H1637.27V2580.15H1744.42V2473Z" fill="#FF6364"/>
<path d="M1664.06 2473H1690.84L1664.06 2499.79L1637.27 2526.58V2499.79L1664.06 2473Z" fill="#FFFDF6"/>
<path d="M1744.42 2553.37V2580.15H1717.63L1744.42 2553.37Z" fill="#FFFDF6"/>
<path d="M1744.42 2499.79V2526.58L1717.63 2553.37L1690.85 2580.15H1664.06L1744.42 2499.79Z" fill="#FFFDF6"/>
<path d="M1717.63 2473H1744.42L1664.06 2553.37L1637.27 2580.16V2553.37L1717.63 2473Z" fill="#FFFDF6"/>
<path d="M1637.31 2580.15H1530.15V2687.31H1637.31V2580.15Z" fill="#FEF5CC"/>
<path d="M1530.15 2687.31C1544.23 2687.31 1558.16 2684.54 1571.16 2679.15C1584.16 2673.77 1595.97 2665.87 1605.92 2655.92C1615.87 2645.97 1623.77 2634.16 1629.15 2621.16C1634.54 2608.16 1637.31 2594.23 1637.31 2580.15H1530.15" fill="#FDA964"/>
<path d="M1744.42 2580.15H1637.27V2687.31H1744.42V2580.15Z" fill="#FC9745"/>
<path d="M1637.27 2580.15C1665.69 2580.15 1692.94 2591.44 1713.04 2611.54C1733.13 2631.63 1744.42 2658.89 1744.42 2687.31H1637.27" fill="#F8F4C6"/>
<path d="M1958.69 2473H1744.42V2687.27H1958.69V2473Z" fill="#FFCACA"/>
<path d="M1744.42 2687.27C1744.42 2630.44 1767 2575.94 1807.18 2535.76C1847.36 2495.57 1901.86 2473 1958.69 2473L1744.42 2687.27C1801.25 2687.27 1855.75 2664.69 1895.93 2624.51C1936.12 2584.33 1958.69 2529.83 1958.69 2473" fill="#FFEFEF"/>
<path d="M2173 2473H1958.73V2687.27H2173V2473Z" fill="#FEF6D3"/>
<path d="M1958.73 2473C1958.73 2529.83 1981.31 2584.33 2021.49 2624.51C2061.67 2664.69 2116.17 2687.27 2173 2687.27V2473" fill="#FEE0C8"/>
<path d="M887.268 2687.27H673V2901.54H887.268V2687.27Z" fill="#FBE060"/>
<path d="M780.134 2687.27L887.268 2794.4L780.134 2901.54L673 2794.4L780.134 2687.27Z" fill="#FBE36F"/>
<path d="M1101.54 2687.27H887.268V2901.54H1101.54V2687.27Z" fill="#FF8081"/>
<path d="M940.835 2687.27H994.402L940.835 2740.83L887.268 2794.4V2740.83L940.835 2687.27Z" fill="#E4F6CA"/>
<path d="M1101.54 2847.97V2901.54H1047.97L1101.54 2847.97Z" fill="#E4F6CA"/>
<path d="M1101.54 2740.83V2794.4L1047.97 2847.97L994.401 2901.54H940.834L1101.54 2740.83Z" fill="#E4F6CA"/>
<path d="M1047.97 2687.27H1101.54L940.835 2847.97L887.268 2901.54V2847.97L1047.97 2687.27Z" fill="#E4F6CA"/>
<path d="M1315.85 2687.27H1101.58V2901.54H1315.85V2687.27Z" fill="#E2F5C5"/>
<path d="M1155.15 2687.27H1208.71L1155.15 2740.83L1101.58 2794.4V2740.83L1155.15 2687.27Z" fill="#FFB0B1"/>
<path d="M1315.85 2847.97V2901.54H1262.28L1315.85 2847.97Z" fill="#FFB0B1"/>
<path d="M1315.85 2740.83V2794.4L1262.28 2847.97L1208.71 2901.54H1155.14L1315.85 2740.83Z" fill="#FFB0B1"/>
<path d="M1262.28 2687.27H1315.85L1155.15 2847.97L1101.58 2901.54V2847.97L1262.28 2687.27Z" fill="#FFB0B1"/>
<path d="M1530.11 2687.27H1315.85V2901.54H1530.11V2687.27Z" fill="#F6F2BA"/>
<path d="M1369.41 2687.27H1422.98L1369.41 2740.83L1315.85 2794.4V2740.83L1369.41 2687.27Z" fill="#FF6466"/>
<path d="M1530.11 2847.97V2901.54H1476.55L1530.11 2847.97Z" fill="#FF6466"/>
<path d="M1530.11 2740.83V2794.4L1476.55 2847.97L1422.98 2901.54H1369.41L1530.11 2740.83Z" fill="#FF6466"/>
<path d="M1476.55 2687.27H1530.11L1369.41 2847.97L1315.85 2901.54V2847.97L1476.55 2687.27Z" fill="#FF6466"/>
<path d="M1744.42 2687.27H1530.15V2901.54H1744.42V2687.27Z" fill="#FFF8F3"/>
<path d="M1637.29 2687.27L1744.42 2794.4L1637.29 2901.54L1530.15 2794.4L1637.29 2687.27Z" fill="#FEFEF8"/>
<path d="M1958.72 2687.29H1744.43V2901.57H1958.72V2687.29Z" fill="white"/>
<path d="M1851.58 2687.27H1744.42V2794.42H1851.58V2687.27Z" fill="#F5F1B5"/>
<path d="M1851.58 2687.27H1744.42V2794.42H1851.58V2687.27Z" fill="#FCFAE5"/>
<path d="M1958.73 2687.27H1851.58V2794.42H1958.73V2687.27Z" fill="#FF5052"/>
<path d="M1958.73 2687.27V2794.42H1851.58L1958.73 2687.27Z" fill="#FF6A6C"/>
<path d="M1851.58 2794.42H1744.42V2901.58H1851.58V2794.42Z" fill="#F8F5CC"/>
<path d="M1851.58 2794.42H1744.42V2901.58H1851.58V2794.42Z" fill="#F7FCEE"/>
<path d="M1958.73 2794.42H1851.58V2901.58H1958.73V2794.42Z" fill="#F4FBE9"/>
<path d="M1851.58 2901.58C1851.58 2887.5 1854.35 2873.57 1859.73 2860.57C1865.12 2847.57 1873.01 2835.76 1882.96 2825.81C1892.91 2815.86 1904.72 2807.96 1917.72 2802.58C1930.72 2797.19 1944.66 2794.42 1958.73 2794.42L1851.58 2901.58C1880 2901.58 1907.25 2890.29 1927.35 2870.19C1947.44 2850.1 1958.73 2822.84 1958.73 2794.42" fill="#FED7B7"/>
<path d="M2173 2687.29H1958.71V2901.57H2173V2687.29Z" fill="white"/>
<path d="M2065.89 2687.27H1958.73V2794.42H2065.89V2687.27Z" fill="#FDC394"/>
<path d="M1985.52 2687.27H2012.31L1985.52 2714.06L1958.73 2740.84V2714.06L1985.52 2687.27Z" fill="#FDF0B2"/>
<path d="M2065.89 2767.63V2794.42H2039.1L2065.89 2767.63Z" fill="#FDF0B2"/>
<path d="M2065.89 2714.06V2740.85L2039.1 2767.63L2012.31 2794.42H1985.52L2065.89 2714.06Z" fill="#FDF0B2"/>
<path d="M2039.1 2687.27H2065.89L1985.52 2767.63L1958.73 2794.42V2767.63L2039.1 2687.27Z" fill="#FDF0B2"/>
<path d="M2173 2687.27H2065.85V2794.42H2173V2687.27Z" fill="#FC9D4F"/>
<path d="M2119.42 2687.27L2173 2740.84L2119.42 2794.42L2065.85 2740.84L2119.42 2687.27Z" fill="#FEDDC1"/>
<path d="M2065.89 2794.42H1958.73V2901.58H2065.89V2794.42Z" fill="#F6FCEE"/>
<path d="M2012.31 2794.42L2065.89 2848L2012.31 2901.58L1958.73 2848L2012.31 2794.42Z" fill="#F2ED9E"/>
<path d="M2173 2794.42H2065.85V2901.58H2173V2794.42Z" fill="#F7F3BE"/>
<path d="M2092.63 2794.42H2119.42L2092.63 2821.21L2065.85 2848V2821.21L2092.63 2794.42Z" fill="#FF8F90"/>
<path d="M2173 2874.79V2901.58H2146.21L2173 2874.79Z" fill="#FF8F90"/>
<path d="M2173 2821.21V2848L2146.21 2874.79L2119.42 2901.58H2092.63L2173 2821.21Z" fill="#FF8F90"/>
<path d="M2146.21 2794.42H2173L2092.63 2874.79L2065.85 2901.58V2874.79L2146.21 2794.42Z" fill="#FF8F90"/>
<path d="M887.268 2901.58H673V3115.85H887.268V2901.58Z" fill="#FFB1B2"/>
<path d="M887.268 2901.58V3115.85H673L887.268 2901.58Z" fill="#FEFEF9"/>
<path d="M1101.54 2901.58H887.268V3115.85H1101.54V2901.58Z" fill="#FFFFFE"/>
<path d="M940.835 2901.58H994.402L940.835 2955.15L887.268 3008.71V2955.15L940.835 2901.58Z" fill="#FEFFFD"/>
<path d="M1101.54 3062.28V3115.85H1047.97L1101.54 3062.28Z" fill="#FEFFFD"/>
<path d="M1101.54 2955.14V3008.71L1047.97 3062.28L994.401 3115.85H940.834L1101.54 2955.14Z" fill="#FEFFFD"/>
<path d="M1047.97 2901.58H1101.54L940.835 3062.28L887.268 3115.85V3062.28L1047.97 2901.58Z" fill="#FEFFFD"/>
<path d="M1315.86 2901.57H1101.57V3115.86H1315.86V2901.57Z" fill="white"/>
<path d="M1208.73 2901.58H1101.58V3008.73H1208.73V2901.58Z" fill="#EAF8D5"/>
<path d="M1101.58 2901.58C1115.65 2901.58 1129.58 2904.35 1142.58 2909.73C1155.58 2915.12 1167.4 2923.01 1177.35 2932.96C1187.3 2942.91 1195.19 2954.73 1200.58 2967.73C1205.96 2980.73 1208.73 2994.66 1208.73 3008.73L1101.58 2901.58C1101.58 2930 1112.87 2957.25 1132.96 2977.35C1153.06 2997.44 1180.31 3008.73 1208.73 3008.73" fill="#F2EC9B"/>
<path d="M1315.89 2901.58H1208.73V3008.73H1315.89V2901.58Z" fill="#FBE05E"/>
<path d="M1235.52 2901.58H1262.31L1235.52 2928.37L1208.73 2955.16V2928.37L1235.52 2901.58Z" fill="#FFEEEE"/>
<path d="M1315.89 2981.94V3008.73H1289.1L1315.89 2981.94Z" fill="#FFEEEE"/>
<path d="M1315.89 2928.37V2955.16L1289.1 2981.94L1262.31 3008.73H1235.52L1315.89 2928.37Z" fill="#FFEEEE"/>
<path d="M1289.1 2901.58H1315.89L1235.52 2981.94L1208.73 3008.73V2981.94L1289.1 2901.58Z" fill="#FFEEEE"/>
<path d="M1208.73 3008.73H1101.58V3115.89H1208.73V3008.73Z" fill="#FEE6D2"/>
<path d="M1101.58 3115.89C1101.58 3087.47 1112.87 3060.21 1132.96 3040.12C1153.06 3020.02 1180.31 3008.73 1208.73 3008.73L1101.58 3115.89C1130 3115.89 1157.25 3104.6 1177.35 3084.5C1197.44 3064.41 1208.73 3037.15 1208.73 3008.73" fill="#FCFBEA"/>
<path d="M1315.89 3008.73H1208.73V3115.89H1315.89V3008.73Z" fill="#FFF3E9"/>
<path d="M1208.73 3008.73C1237.15 3008.73 1264.41 3020.02 1284.5 3040.12C1304.6 3060.21 1315.89 3087.47 1315.89 3115.89L1208.73 3008.73C1208.73 3037.15 1220.02 3064.41 1240.12 3084.5C1260.21 3104.6 1287.47 3115.89 1315.89 3115.89" fill="#FDB77E"/>
<path d="M1530.11 2901.58H1315.85V3115.85H1530.11V2901.58Z" fill="#FDB67D"/>
<path d="M1315.85 3115.85C1343.98 3115.85 1371.85 3110.3 1397.84 3099.54C1423.84 3088.77 1447.46 3072.99 1467.36 3053.09C1487.25 3033.19 1503.04 3009.57 1513.8 2983.58C1524.57 2957.58 1530.11 2929.72 1530.11 2901.58H1315.85" fill="#F2EC99"/>
<path d="M1744.42 2901.58H1530.15V3115.85H1744.42V2901.58Z" fill="#FAFDF5"/>
<path d="M1637.29 2901.58L1744.42 3008.71L1637.29 3115.85L1530.15 3008.71L1637.29 2901.58Z" fill="#FAF7D5"/>
<path d="M1958.72 2901.57H1744.43V3115.86H1958.72V2901.57Z" fill="white"/>
<path d="M1851.58 2901.58H1744.42V3008.73H1851.58V2901.58Z" fill="#FF6162"/>
<path d="M1771.21 2901.58H1798L1771.21 2928.37L1744.42 2955.16V2928.37L1771.21 2901.58Z" fill="#EFE883"/>
<path d="M1851.58 2981.94V3008.73H1824.79L1851.58 2981.94Z" fill="#EFE883"/>
<path d="M1851.58 2928.37V2955.16L1824.79 2981.94L1798 3008.73H1771.21L1851.58 2928.37Z" fill="#EFE883"/>
<path d="M1824.79 2901.58H1851.58L1771.21 2981.94L1744.42 3008.73V2981.94L1824.79 2901.58Z" fill="#EFE883"/>
<path d="M1958.73 2901.58H1851.58V3008.73H1958.73V2901.58Z" fill="#E1F5C5"/>
<path d="M1958.73 2901.58H1851.58V3008.73H1958.73V2901.58Z" fill="#EEF9DD"/>
<path d="M1851.58 3008.73H1744.42V3115.89H1851.58V3008.73Z" fill="#F0E98B"/>
<path d="M1744.42 3008.73C1772.84 3008.73 1800.1 3020.02 1820.19 3040.12C1840.29 3060.21 1851.58 3087.47 1851.58 3115.89L1744.42 3008.73C1744.42 3037.15 1755.71 3064.41 1775.81 3084.5C1795.9 3104.6 1823.16 3115.89 1851.58 3115.89" fill="#FADE56"/>
<path d="M1958.73 3008.73H1851.58V3115.89H1958.73V3008.73Z" fill="#FCFEF9"/>
<path d="M1958.73 3008.73H1851.58V3115.89H1958.73V3008.73Z" fill="#FDB880"/>
<path d="M2173 2901.58H1958.73V3115.85H2173V2901.58Z" fill="#FDEEA9"/>
<path d="M1958.73 3115.85C1958.73 3059.02 1981.31 3004.52 2021.49 2964.34C2061.67 2924.15 2116.17 2901.58 2173 2901.58L1958.73 3115.85C2015.56 3115.85 2070.06 3093.27 2110.24 3053.09C2150.43 3012.91 2173 2958.41 2173 2901.58" fill="#FFDEDE"/>
<path d="M887.268 3115.85H673V3330.11H887.268V3115.85Z" fill="#E9F8D4"/>
<path d="M780.134 3115.85L887.268 3222.98L780.134 3330.11L673 3222.98L780.134 3115.85Z" fill="#FF7374"/>
<path d="M1101.54 3115.85H887.268V3330.11H1101.54V3115.85Z" fill="#FFACAD"/>
<path d="M1101.54 3115.85H887.268V3330.11H1101.54V3115.85Z" fill="#F4F0AD"/>
<path d="M1315.85 3115.85H1101.58V3330.11H1315.85V3115.85Z" fill="#FFEBEB"/>
<path d="M1101.58 3330.11C1101.58 3273.29 1124.15 3218.79 1164.34 3178.6C1204.52 3138.42 1259.02 3115.85 1315.85 3115.85L1101.58 3330.11C1158.41 3330.11 1212.91 3307.54 1253.09 3267.36C1293.27 3227.17 1315.85 3172.67 1315.85 3115.85" fill="#F4FBEA"/>
<path d="M1530.11 3115.85H1315.85V3330.11H1530.11V3115.85Z" fill="#FCA35A"/>
<path d="M1315.85 3115.85C1315.85 3172.67 1338.42 3227.17 1378.6 3267.36C1418.79 3307.54 1473.29 3330.11 1530.11 3330.11V3115.85" fill="#FDB275"/>
<path d="M1744.43 3115.86H1530.14V3330.14H1744.43V3115.86Z" fill="white"/>
<path d="M1637.31 3115.85H1530.15V3223H1637.31V3115.85Z" fill="#F5F1B4"/>
<path d="M1530.15 3115.85H1637.31V3223L1530.15 3115.85Z" fill="#E8F7D2"/>
<path d="M1744.42 3115.85H1637.27V3223H1744.42V3115.85Z" fill="#F9D731"/>
<path d="M1690.84 3115.85L1744.42 3169.42L1690.84 3223L1637.27 3169.42L1690.84 3115.85Z" fill="#FFFCF1"/>
<path d="M1637.31 3223H1530.15V3330.15H1637.31V3223Z" fill="#FCEB9B"/>
<path d="M1583.73 3223L1637.31 3276.58L1583.73 3330.15L1530.15 3276.58L1583.73 3223Z" fill="#F5F0AE"/>
<path d="M1744.42 3223H1637.27V3330.15H1744.42V3223Z" fill="#FDBD88"/>
<path d="M1637.27 3223H1744.42V3330.15L1637.27 3223Z" fill="#FFB3B3"/>
<path d="M1958.69 3115.85H1744.42V3330.11H1958.69V3115.85Z" fill="#FFC7C8"/>
<path d="M1744.42 3115.85C1801.25 3115.85 1855.75 3138.42 1895.93 3178.6C1936.12 3218.79 1958.69 3273.29 1958.69 3330.11L1744.42 3115.85C1744.42 3172.67 1767 3227.17 1807.18 3267.36C1847.36 3307.54 1901.86 3330.11 1958.69 3330.11" fill="#FF6062"/>
<path d="M2173 3115.85H1958.73V3330.11H2173V3115.85Z" fill="#FFC0C1"/>
<path d="M2012.3 3115.85H2065.87L2012.3 3169.41L1958.73 3222.98V3169.41L2012.3 3115.85Z" fill="#F2FBE5"/>
<path d="M2173 3276.55V3330.11H2119.43L2173 3276.55Z" fill="#F2FBE5"/>
<path d="M2173 3169.41V3222.98L2119.43 3276.55L2065.87 3330.11H2012.3L2173 3169.41Z" fill="#F2FBE5"/>
<path d="M2119.43 3115.85H2173L2012.3 3276.55L1958.73 3330.12V3276.55L2119.43 3115.85Z" fill="#F2FBE5"/>
<path d="M887.268 3330.15H673V3544.42H887.268V3330.15Z" fill="#FDF0B2"/>
<path d="M726.567 3330.15H780.134L726.567 3383.72L673 3437.29V3383.72L726.567 3330.15Z" fill="#FBE57B"/>
<path d="M887.268 3490.86V3544.42H833.701L887.268 3490.86Z" fill="#FBE57B"/>
<path d="M887.268 3383.72V3437.29L833.701 3490.85L780.134 3544.42H726.566L887.268 3383.72Z" fill="#FBE57B"/>
<path d="M833.701 3330.15H887.268L726.567 3490.86L673 3544.42V3490.86L833.701 3330.15Z" fill="#FBE57B"/>
<path d="M1101.54 3330.15H887.268V3544.42H1101.54V3330.15Z" fill="#FBFAE2"/>
<path d="M887.268 3330.15C915.406 3330.15 943.268 3335.7 969.265 3346.46C995.261 3357.23 1018.88 3373.02 1038.78 3392.91C1058.67 3412.81 1074.46 3436.43 1085.23 3462.43C1095.99 3488.42 1101.54 3516.28 1101.54 3544.42L887.268 3330.15C887.268 3386.98 909.842 3441.48 950.025 3481.67C990.208 3521.85 1044.71 3544.42 1101.54 3544.42" fill="#FCE784"/>
<path d="M1315.86 3330.14H1101.57V3544.43H1315.86V3330.14Z" fill="white"/>
<path d="M1208.73 3330.15H1101.58V3437.31H1208.73V3330.15Z" fill="#FADA43"/>
<path d="M1101.58 3330.15C1115.65 3330.15 1129.58 3332.93 1142.58 3338.31C1155.58 3343.7 1167.4 3351.59 1177.35 3361.54C1187.3 3371.49 1195.19 3383.3 1200.58 3396.3C1205.96 3409.3 1208.73 3423.24 1208.73 3437.31L1101.58 3330.15C1101.58 3358.57 1112.87 3385.83 1132.96 3405.92C1153.06 3426.02 1180.31 3437.31 1208.73 3437.31" fill="#FEFFFD"/>
<path d="M1315.89 3330.15H1208.73V3437.31H1315.89V3330.15Z" fill="#F0FAE1"/>
<path d="M1208.73 3330.15L1315.89 3437.31H1208.73V3330.15Z" fill="#F5F0B0"/>
<path d="M1208.73 3437.27H1101.58V3544.42H1208.73V3437.27Z" fill="#EDF9DB"/>
<path d="M1155.16 3437.27L1208.73 3490.85L1155.16 3544.42L1101.58 3490.85L1155.16 3437.27Z" fill="#FF797A"/>
<path d="M1315.89 3437.27H1208.73V3544.42H1315.89V3437.27Z" fill="#FF7173"/>
<path d="M1235.52 3437.27H1262.31L1235.52 3464.06L1208.73 3490.85V3464.06L1235.52 3437.27Z" fill="#E1F5C4"/>
<path d="M1315.89 3517.63V3544.42H1289.1L1315.89 3517.63Z" fill="#E1F5C4"/>
<path d="M1315.89 3464.06V3490.85L1289.1 3517.64L1262.31 3544.42H1235.52L1315.89 3464.06Z" fill="#E1F5C4"/>
<path d="M1289.1 3437.27H1315.89L1235.52 3517.64L1208.73 3544.42V3517.64L1289.1 3437.27Z" fill="#E1F5C4"/>
<path d="M1530.14 3330.14H1315.86V3544.43H1530.14V3330.14Z" fill="white"/>
<path d="M1423 3330.15H1315.85V3437.31H1423V3330.15Z" fill="#FAFDF5"/>
<path d="M1315.85 3330.15H1423V3437.31L1315.85 3330.15Z" fill="#FEFFFC"/>
<path d="M1530.15 3330.15H1423V3437.31H1530.15V3330.15Z" fill="#E5F6CB"/>
<path d="M1530.15 3330.15V3437.31H1423L1530.15 3330.15Z" fill="#F6F2B8"/>
<path d="M1423 3437.27H1315.85V3544.42H1423V3437.27Z" fill="#FFBABB"/>
<path d="M1315.85 3544.42C1315.85 3530.35 1318.62 3516.42 1324 3503.42C1329.39 3490.42 1337.28 3478.6 1347.23 3468.65C1357.18 3458.7 1368.99 3450.81 1381.99 3445.43C1394.99 3440.04 1408.93 3437.27 1423 3437.27V3544.42" fill="#FFF2F2"/>
<path d="M1530.15 3437.27H1423V3544.42H1530.15V3437.27Z" fill="#FECAA0"/>
<path d="M1423 3437.27C1423 3465.69 1434.29 3492.94 1454.38 3513.04C1474.48 3533.13 1501.74 3544.42 1530.15 3544.42V3437.27" fill="#F0EA8F"/>
<path d="M1744.43 3330.14H1530.14V3544.43H1744.43V3330.14Z" fill="white"/>
<path d="M1637.31 3330.15H1530.15V3437.31H1637.31V3330.15Z" fill="#FFF3EA"/>
<path d="M1530.15 3330.15C1544.23 3330.15 1558.16 3332.93 1571.16 3338.31C1584.16 3343.7 1595.97 3351.59 1605.92 3361.54C1615.87 3371.49 1623.77 3383.3 1629.15 3396.3C1634.54 3409.3 1637.31 3423.24 1637.31 3437.31H1530.15" fill="#F5F1B4"/>
<path d="M1744.42 3330.15H1637.27V3437.31H1744.42V3330.15Z" fill="#FEECDE"/>
<path d="M1690.84 3330.15L1744.42 3383.73L1690.84 3437.31L1637.27 3383.73L1690.84 3330.15Z" fill="#FDFEFA"/>
<path d="M1637.31 3437.27H1530.15V3544.42H1637.31V3437.27Z" fill="#FEE2CC"/>
<path d="M1556.94 3437.27H1583.73L1556.94 3464.06L1530.15 3490.85V3464.06L1556.94 3437.27Z" fill="#E7F7D0"/>
<path d="M1637.31 3517.63V3544.42H1610.52L1637.31 3517.63Z" fill="#E7F7D0"/>
<path d="M1637.31 3464.06V3490.85L1610.52 3517.64L1583.73 3544.42H1556.94L1637.31 3464.06Z" fill="#E7F7D0"/>
<path d="M1610.52 3437.27H1637.31L1556.94 3517.64L1530.15 3544.42V3517.64L1610.52 3437.27Z" fill="#E7F7D0"/>
<path d="M1744.42 3437.27H1637.27V3544.42H1744.42V3437.27Z" fill="#FFFCEF"/>
<path d="M1690.84 3437.27L1744.42 3490.85L1690.84 3544.42L1637.27 3490.85L1690.84 3437.27Z" fill="#FDEDA5"/>
<path d="M1958.69 3330.15H1744.42V3544.42H1958.69V3330.15Z" fill="#FBE164"/>
<path d="M1851.56 3330.15L1958.69 3437.29L1851.56 3544.42L1744.42 3437.29L1851.56 3330.15Z" fill="#FC9541"/>
<path d="M2173 3330.15H1958.73V3544.42H2173V3330.15Z" fill="#FCA056"/>
<path d="M2173 3330.15H1958.73V3544.42H2173V3330.15Z" fill="#FC933E"/>
<path d="M887.286 3544.43H673V3758.71H887.286V3544.43Z" fill="white"/>
<path d="M780.154 3544.42H673V3651.58H780.154V3544.42Z" fill="#E5F6CB"/>
<path d="M673 3651.58C701.419 3651.58 728.674 3640.29 748.77 3620.19C768.865 3600.1 780.154 3572.84 780.154 3544.42H673" fill="#FAFDF5"/>
<path d="M887.309 3544.42H780.154V3651.58H887.309V3544.42Z" fill="#F5F1B5"/>
<path d="M887.309 3544.42V3651.58H780.154L887.309 3544.42Z" fill="#E2F5C6"/>
<path d="M780.154 3651.58H673V3758.73H780.154V3651.58Z" fill="#F1EB95"/>
<path d="M673 3758.73C673 3730.31 684.289 3703.06 704.385 3682.96C724.48 3662.87 751.735 3651.58 780.154 3651.58L673 3758.73C701.419 3758.73 728.674 3747.44 748.77 3727.35C768.865 3707.25 780.154 3680 780.154 3651.58" fill="#F0E98B"/>
<path d="M887.309 3651.58H780.154V3758.73H887.309V3651.58Z" fill="#FFF2E7"/>
<path d="M806.943 3651.58H833.731L806.943 3678.37L780.154 3705.16V3678.37L806.943 3651.58Z" fill="#FFA4A5"/>
<path d="M887.308 3731.94V3758.73H860.52L887.308 3731.94Z" fill="#FFA4A5"/>
<path d="M887.309 3678.37V3705.16L860.521 3731.94L833.732 3758.73H806.943L887.309 3678.37Z" fill="#FFA4A5"/>
<path d="M860.52 3651.58H887.309L806.943 3731.94L780.154 3758.73V3731.94L860.52 3651.58Z" fill="#FFA4A5"/>
<path d="M1101.54 3544.42H887.268V3758.69H1101.54V3544.42Z" fill="#FBFEF8"/>
<path d="M887.268 3544.42C944.095 3544.42 998.595 3567 1038.78 3607.18C1078.96 3647.36 1101.54 3701.86 1101.54 3758.69L887.268 3544.42C887.268 3601.25 909.842 3655.75 950.025 3695.93C990.208 3736.12 1044.71 3758.69 1101.54 3758.69" fill="#FCEA93"/>
<path d="M1315.86 3544.43H1101.57V3758.71H1315.86V3544.43Z" fill="white"/>
<path d="M1208.73 3544.42H1101.58V3651.58H1208.73V3544.42Z" fill="#FDB67D"/>
<path d="M1101.58 3651.58C1115.65 3651.58 1129.58 3648.8 1142.58 3643.42C1155.58 3638.03 1167.4 3630.14 1177.35 3620.19C1187.3 3610.24 1195.19 3598.43 1200.58 3585.43C1205.96 3572.43 1208.73 3558.49 1208.73 3544.42H1101.58" fill="#FEFEF9"/>
<path d="M1315.89 3544.42H1208.73V3651.58H1315.89V3544.42Z" fill="#FF5B5D"/>
<path d="M1235.52 3544.42H1262.31L1235.52 3571.21L1208.73 3598V3571.21L1235.52 3544.42Z" fill="#FCEDA3"/>
<path d="M1315.89 3624.79V3651.58H1289.1L1315.89 3624.79Z" fill="#FCEDA3"/>
<path d="M1315.89 3571.21V3598L1289.1 3624.79L1262.31 3651.58H1235.52L1315.89 3571.21Z" fill="#FCEDA3"/>
<path d="M1289.1 3544.42H1315.89L1235.52 3624.79L1208.73 3651.58V3624.79L1289.1 3544.42Z" fill="#FCEDA3"/>
<path d="M1208.73 3651.58H1101.58V3758.73H1208.73V3651.58Z" fill="#FBF9DE"/>
<path d="M1128.37 3651.58H1155.16L1128.37 3678.37L1101.58 3705.16V3678.37L1128.37 3651.58Z" fill="#FFEBEB"/>
<path d="M1208.73 3731.94V3758.73H1181.94L1208.73 3731.94Z" fill="#FFEBEB"/>
<path d="M1208.73 3678.37V3705.16L1181.94 3731.94L1155.16 3758.73H1128.37L1208.73 3678.37Z" fill="#FFEBEB"/>
<path d="M1181.94 3651.58H1208.73L1128.37 3731.94L1101.58 3758.73V3731.94L1181.94 3651.58Z" fill="#FFEBEB"/>
<path d="M1315.89 3651.58H1208.73V3758.73H1315.89V3651.58Z" fill="#F3EEA5"/>
<path d="M1208.73 3651.58C1237.15 3651.58 1264.41 3662.87 1284.5 3682.96C1304.6 3703.06 1315.89 3730.31 1315.89 3758.73L1208.73 3651.58C1208.73 3680 1220.02 3707.25 1240.12 3727.35C1260.21 3747.44 1287.47 3758.73 1315.89 3758.73" fill="#FDF2BA"/>
<path d="M1530.14 3544.43H1315.86V3758.71H1530.14V3544.43Z" fill="white"/>
<path d="M1423 3544.42H1315.85V3651.58H1423V3544.42Z" fill="#FC9A4A"/>
<path d="M1315.85 3651.58C1344.26 3651.58 1371.52 3640.29 1391.62 3620.19C1411.71 3600.1 1423 3572.84 1423 3544.42H1315.85" fill="#FADF5A"/>
<path d="M1530.15 3544.42H1423V3651.58H1530.15V3544.42Z" fill="#EDE577"/>
<path d="M1423 3544.42C1451.42 3544.42 1478.67 3555.71 1498.77 3575.81C1518.86 3595.9 1530.15 3623.16 1530.15 3651.58H1423" fill="#FF999A"/>
<path d="M1423 3651.58H1315.85V3758.73H1423V3651.58Z" fill="#FFFFFE"/>
<path d="M1342.63 3651.58H1369.42L1342.63 3678.37L1315.85 3705.16V3678.37L1342.63 3651.58Z" fill="#FFFFFE"/>
<path d="M1423 3731.94V3758.73H1396.21L1423 3731.94Z" fill="#FFFFFE"/>
<path d="M1423 3678.37V3705.16L1396.21 3731.94L1369.42 3758.73H1342.63L1423 3678.37Z" fill="#FFFFFE"/>
<path d="M1396.21 3651.58H1423L1342.63 3731.94L1315.85 3758.73V3731.94L1396.21 3651.58Z" fill="#FFFFFE"/>
<path d="M1530.15 3651.58H1423V3758.73H1530.15V3651.58Z" fill="#FEE4CF"/>
<path d="M1423 3651.58C1451.42 3651.58 1478.67 3662.87 1498.77 3682.96C1518.86 3703.06 1530.15 3730.31 1530.15 3758.73L1423 3651.58C1423 3680 1434.29 3707.25 1454.38 3727.35C1474.48 3747.44 1501.74 3758.73 1530.15 3758.73" fill="#FF5153"/>
<path d="M1744.43 3544.43H1530.14V3758.71H1744.43V3544.43Z" fill="white"/>
<path d="M1637.31 3544.42H1530.15V3651.58H1637.31V3544.42Z" fill="#F5FCEC"/>
<path d="M1583.73 3544.42L1637.31 3598L1583.73 3651.58L1530.15 3598L1583.73 3544.42Z" fill="#EBF8D7"/>
<path d="M1744.42 3544.42H1637.27V3651.58H1744.42V3544.42Z" fill="#E3F6C8"/>
<path d="M1637.27 3544.42C1637.27 3572.84 1648.56 3600.1 1668.65 3620.19C1688.75 3640.29 1716 3651.58 1744.42 3651.58V3544.42" fill="#FFF7F7"/>
<path d="M1637.31 3651.58H1530.15V3758.73H1637.31V3651.58Z" fill="#FDC597"/>
<path d="M1530.15 3758.73C1544.23 3758.73 1558.16 3755.96 1571.16 3750.58C1584.16 3745.19 1595.97 3737.3 1605.92 3727.35C1615.87 3717.4 1623.77 3705.58 1629.15 3692.58C1634.54 3679.58 1637.31 3665.65 1637.31 3651.58H1530.15" fill="#FFFDF4"/>
<path d="M1744.42 3651.58H1637.27V3758.73H1744.42V3651.58Z" fill="#F1FAE3"/>
<path d="M1664.06 3651.58H1690.84L1664.06 3678.37L1637.27 3705.16V3678.37L1664.06 3651.58Z" fill="#EFE884"/>
<path d="M1744.42 3731.94V3758.73H1717.63L1744.42 3731.94Z" fill="#EFE884"/>
<path d="M1744.42 3678.37V3705.16L1717.63 3731.94L1690.85 3758.73H1664.06L1744.42 3678.37Z" fill="#EFE884"/>
<path d="M1717.63 3651.58H1744.42L1664.06 3731.94L1637.27 3758.73V3731.94L1717.63 3651.58Z" fill="#EFE884"/>
<path d="M1958.69 3544.42H1744.42V3758.69H1958.69V3544.42Z" fill="#F5F0AF"/>
<path d="M1744.42 3544.42H1958.69V3758.69L1744.42 3544.42Z" fill="#F7F3C0"/>
<path d="M2173 3544.42H1958.73V3758.69H2173V3544.42Z" fill="#F4FBE8"/>
<path d="M1958.73 3758.69C1958.73 3701.86 1981.31 3647.36 2021.49 3607.18C2061.67 3567 2116.17 3544.42 2173 3544.42L1958.73 3758.69C2015.56 3758.69 2070.06 3736.12 2110.24 3695.93C2150.43 3655.75 2173 3601.25 2173 3544.42" fill="#FEE2CB"/>
<path d="M887.268 3758.73H673V3973H887.268V3758.73Z" fill="#FC9A4B"/>
<path d="M673 3973C673 3916.17 695.575 3861.67 735.758 3821.49C775.941 3781.31 830.441 3758.73 887.268 3758.73L673 3973C729.828 3973 784.328 3950.42 824.511 3910.24C864.694 3870.06 887.268 3815.56 887.268 3758.73" fill="#FDFDF3"/>
<path d="M1101.54 3758.73H887.268V3973H1101.54V3758.73Z" fill="#FFEBEB"/>
<path d="M940.835 3758.73H994.402L940.835 3812.3L887.268 3865.86V3812.3L940.835 3758.73Z" fill="#FF6A6C"/>
<path d="M1101.54 3919.43V3973H1047.97L1101.54 3919.43Z" fill="#FF6A6C"/>
<path d="M1101.54 3812.3V3865.86L1047.97 3919.43L994.401 3973H940.834L1101.54 3812.3Z" fill="#FF6A6C"/>
<path d="M1047.97 3758.73H1101.54L940.835 3919.43L887.268 3973V3919.43L1047.97 3758.73Z" fill="#FF6A6C"/>
<path d="M1315.85 3758.73H1101.58V3973H1315.85V3758.73Z" fill="#E9F8D3"/>
<path d="M1208.71 3758.73L1315.85 3865.86L1208.71 3973L1101.58 3865.86L1208.71 3758.73Z" fill="#E1F5C5"/>
<path d="M1530.11 3758.73H1315.85V3973H1530.11V3758.73Z" fill="#FADB47"/>
<path d="M1315.85 3758.73C1343.98 3758.73 1371.85 3764.27 1397.84 3775.04C1423.84 3785.81 1447.46 3801.59 1467.36 3821.49C1487.25 3841.39 1503.04 3865.01 1513.8 3891C1524.57 3917 1530.11 3944.86 1530.11 3973H1315.85" fill="#FCEC9F"/>
<path d="M1744.42 3758.73H1530.15V3973H1744.42V3758.73Z" fill="#F5F0B1"/>
<path d="M1744.42 3758.73H1530.15V3973H1744.42V3758.73Z" fill="#FEF7D7"/>
<path d="M1958.69 3758.73H1744.42V3973H1958.69V3758.73Z" fill="#FEFFFD"/>
<path d="M1797.99 3758.73H1851.56L1797.99 3812.3L1744.42 3865.86V3812.3L1797.99 3758.73Z" fill="#FDF1B5"/>
<path d="M1958.69 3919.43V3973H1905.12L1958.69 3919.43Z" fill="#FDF1B5"/>
<path d="M1958.69 3812.3V3865.86L1905.12 3919.43L1851.56 3973H1797.99L1958.69 3812.3Z" fill="#FDF1B5"/>
<path d="M1905.13 3758.73H1958.69L1797.99 3919.43L1744.42 3973V3919.43L1905.13 3758.73Z" fill="#FDF1B5"/>
<path d="M2173 3758.73H1958.73V3973H2173V3758.73Z" fill="#F2FBE6"/>
<path d="M1958.73 3973C1958.73 3916.17 1981.31 3861.67 2021.49 3821.49C2061.67 3781.31 2116.17 3758.73 2173 3758.73L1958.73 3973C2015.56 3973 2070.06 3950.42 2110.24 3910.24C2150.43 3870.06 2173 3815.56 2173 3758.73" fill="#F5F0B1"/>
</g>
<defs>
<clipPath id="clip0_924_7153">
<rect width="1500" height="3000" fill="white" transform="translate(673 973)"/>
</clipPath>
</defs>
</svg>
