<?xml version="1.0" standalone="no"?><svg xmlns:xlink="http://www.w3.org/1999/xlink" xmlns="http://www.w3.org/2000/svg" viewBox="0 0 1000 1285.7142857142858" preserveAspectRatio="xMaxYMax slice"><g transform="scale(1.7857142857142858)"><rect x="0" y="0" width="560" height="720" fill="#ffffff"/><rect x="0" y="0" width="80" height="80" fill="#ffffff"/><rect x="0" y="0" width="40" height="40" fill="#faf7f1"/><path d="M 0 0 A 40 40 0 0 0 40 40 L 40 0" fill="#dccaa6"/><rect x="40" y="0" width="40" height="40" fill="#f3ece0"/><path d="M 40 40 A 40 40 0 0 1  80 0 L 80 40" fill="#dccaa7"/><rect x="0" y="40" width="40" height="40" fill="#b8c6cb"/><g transform="translate(0,40) scale(2) rotate(0)"><rect width="20" height="2" fill="#efe7da"/><rect y="4" width="20" height="2" fill="#efe7da"/><rect y="8" width="20" height="2" fill="#efe7da"/><rect y="12" width="20" height="2" fill="#efe7da"/><rect y="16" width="20" height="2" fill="#efe7da"/></g><rect x="40" y="40" width="40" height="40" fill="#979fab"/><path d="M 40 40 A 40 40 0 0 1  80 80 L 40 40 A 40 40 0 0 0 80 80" fill="#4f9493"/><rect x="80" y="0" width="80" height="80" fill="#aabcc2"/><g transform="translate(80,0) scale(4) rotate(0)"><rect width="20" height="2" fill="#d8e0e3"/><rect y="4" width="20" height="2" fill="#d8e0e3"/><rect y="8" width="20" height="2" fill="#d8e0e3"/><rect y="12" width="20" height="2" fill="#d8e0e3"/><rect y="16" width="20" height="2" fill="#d8e0e3"/></g><rect x="160" y="0" width="80" height="80" fill="#f9f6f0"/><circle cx="200" cy="40" r="40" fill="#697486"/><rect x="240" y="0" width="80" height="80" fill="#717c8d"/><g transform="translate(240,0) scale(4) rotate(0)"><rect width="2" height="20" fill="#eee6d8"/><rect x="4" width="2" height="20" fill="#eee6d8"/><rect x="8" width="2" height="20" fill="#eee6d8"/><rect x="12" width="2" height="20" fill="#eee6d8"/><rect x="16" width="2" height="20" fill="#eee6d8"/></g><rect x="320" y="0" width="80" height="80" fill="#b8bec6"/><g transform="translate(320,0) scale(4) rotate(0)"><path d="M10 0L20 10L10 20L0 10L10 0Z" fill="#046665"/></g><rect x="400" y="0" width="80" height="80" fill="#ffffff"/><rect x="400" y="0" width="40" height="40" fill="#275363"/><g transform="translate(400,0) scale(2) rotate(0)"><rect width="20" height="2" fill="#3a6271"/><rect y="4" width="20" height="2" fill="#3a6271"/><rect y="8" width="20" height="2" fill="#3a6271"/><rect y="12" width="20" height="2" fill="#3a6271"/><rect y="16" width="20" height="2" fill="#3a6271"/></g><rect x="440" y="0" width="40" height="40" fill="#577986"/><g transform="translate(440,0) scale(2) rotate(0)"><path d="M10 0L20 10L10 20L0 10L10 0Z" fill="#d7e6e6"/></g><rect x="400" y="40" width="40" height="40" fill="#49908f"/><g transform="translate(400,40) scale(2) rotate(0)"><path fill-rule="evenodd" clip-rule="evenodd" d="M10 20C15.5228 20 20 15.5228 20 10C20 4.47715 15.5228 0 10 0C4.47715 0 0 4.47715 0 10C0 15.5228 4.47715 20 10 20ZM10 17C13.866 17 17 13.866 17 10C17 6.13401 13.866 3 10 3C6.13401 3 3 6.13401 3 10C3 13.866 6.13401 17 10 17Z" fill="#f5f5f7"/></g><rect x="440" y="40" width="40" height="40" fill="#fffffe"/><g transform="translate(440,40) scale(2) rotate(0)"><path d="M5 0H10L5 5L0 10V5L5 0Z" fill="#d9e1e3"/><path d="M20 15V20H15L20 15Z" fill="#d9e1e3"/><path d="M20 5V10L15 15L10 20H5L20 5Z" fill="#d9e1e3"/><path d="M15 0H20L5 15.0002L0 20.0002V15.0002L15 0Z" fill="#d9e1e3"/></g><rect x="480" y="0" width="80" height="80" fill="#3b8787"/><circle cx="520" cy="40" r="40" fill="#358383"/><rect x="0" y="80" width="80" height="80" fill="#fbf9f5"/><path d="M 0 160 A 80 80 0 0 1  80 80 L 0 160 A 80 80 0 0 0 80 80" fill="#e8ddcb"/><rect x="80" y="80" width="80" height="80" fill="#d1b98b"/><g transform="translate(80,80) scale(4) rotate(0)"><path d="M10 0H20V10L10 20H0V10L10 0Z" fill="#edf1f2"/></g><rect x="160" y="80" width="80" height="80" fill="#345d6c"/><g transform="translate(160,80) scale(4) rotate(0)"><path d="M5 0H10L5 5L0 10V5L5 0Z" fill="#fcfaf7"/><path d="M20 15V20H15L20 15Z" fill="#fcfaf7"/><path d="M20 5V10L15 15L10 20H5L20 5Z" fill="#fcfaf7"/><path d="M15 0H20L5 15.0002L0 20.0002V15.0002L15 0Z" fill="#fcfaf7"/></g><rect x="240" y="80" width="80" height="80" fill="#fbf9f5"/><g transform="translate(240,80) scale(4) rotate(0)"><path fill-rule="evenodd" clip-rule="evenodd" d="M10 20C15.5228 20 20 15.5228 20 10C20 4.47715 15.5228 0 10 0C4.47715 0 0 4.47715 0 10C0 15.5228 4.47715 20 10 20ZM10 17C13.866 17 17 13.866 17 10C17 6.13401 13.866 3 10 3C6.13401 3 3 6.13401 3 10C3 13.866 6.13401 17 10 17Z" fill="#5f7f8b"/></g><rect x="320" y="80" width="80" height="80" fill="#4b9190"/><g transform="translate(320,80) scale(4) rotate(0)"><rect width="20" height="2" fill="#f5f0e8"/><rect y="4" width="20" height="2" fill="#f5f0e8"/><rect y="8" width="20" height="2" fill="#f5f0e8"/><rect y="12" width="20" height="2" fill="#f5f0e8"/><rect y="16" width="20" height="2" fill="#f5f0e8"/></g><rect x="400" y="80" width="80" height="80" fill="#ffffff"/><rect x="400" y="80" width="40" height="40" fill="#0f213e"/><g transform="translate(400,80) scale(2) rotate(0)"><path d="M10 0H20V10L10 20H0V10L10 0Z" fill="#539695"/></g><rect x="440" y="80" width="40" height="40" fill="#e0d0b1"/><g transform="translate(440,80) scale(2) rotate(0)"><path d="M10 0H20V10L10 20H0V10L10 0Z" fill="#adb3bd"/></g><rect x="400" y="120" width="40" height="40" fill="#428c8b"/><path d="M 400 160 A 40 40 0 0 0 440 120 L 400 120" fill="#f3ede1"/><rect x="440" y="120" width="40" height="40" fill="#224f5f"/><g transform="translate(440,120) scale(2) rotate(0)"><path d="M13 0H20V7L7 20H0V13L13 0Z" fill="#f0e9da"/></g><rect x="480" y="80" width="80" height="80" fill="#64838f"/><circle cx="520" cy="120" r="40" fill="#d9e1e4"/><rect x="0" y="160" width="80" height="80" fill="#f2ece2"/><g transform="translate(0,160) scale(4) rotate(0)"><path d="M5 0H10L5 5L0 10V5L5 0Z" fill="#f2ebe1"/><path d="M20 15V20H15L20 15Z" fill="#f2ebe1"/><path d="M20 5V10L15 15L10 20H5L20 5Z" fill="#f2ebe1"/><path d="M15 0H20L5 15.0002L0 20.0002V15.0002L15 0Z" fill="#f2ebe1"/></g><rect x="80" y="160" width="80" height="80" fill="#041735"/><g transform="translate(80,160) scale(4) rotate(0)"><path d="M10 0H20V10L10 20H0V10L10 0Z" fill="#124254"/></g><rect x="160" y="160" width="80" height="80" fill="#ffffff"/><rect x="160" y="160" width="40" height="40" fill="#fdfcfa"/><g transform="translate(160,160) scale(2) rotate(0)"><path d="M10 0H20V10L10 20H0V10L10 0Z" fill="#2a5565"/></g><rect x="200" y="160" width="40" height="40" fill="#faf8f3"/><g transform="translate(200,160) scale(2) rotate(0)"><path fill-rule="evenodd" clip-rule="evenodd" d="M10 20C15.5228 20 20 15.5228 20 10C20 4.47715 15.5228 0 10 0C4.47715 0 0 4.47715 0 10C0 15.5228 4.47715 20 10 20ZM10 17C13.866 17 17 13.866 17 10C17 6.13401 13.866 3 10 3C6.13401 3 3 6.13401 3 10C3 13.866 6.13401 17 10 17Z" fill="#79949e"/></g><rect x="160" y="200" width="40" height="40" fill="#dbc8a3"/><g transform="translate(160,200) scale(2) rotate(0)"><path d="M10 0H20V10L10 20H0V10L10 0Z" fill="#f6f1ea"/></g><rect x="200" y="200" width="40" height="40" fill="#c3cfd4"/><g transform="translate(200,200) scale(2) rotate(0)"><path d="M5 0H10L5 5L0 10V5L5 0Z" fill="#eff0f2"/><path d="M20 15V20H15L20 15Z" fill="#eff0f2"/><path d="M20 5V10L15 15L10 20H5L20 5Z" fill="#eff0f2"/><path d="M15 0H20L5 15.0002L0 20.0002V15.0002L15 0Z" fill="#eff0f2"/></g><rect x="240" y="160" width="80" height="80" fill="#d1b98b"/><g transform="translate(240,160) scale(4) rotate(0)"><path fill-rule="evenodd" clip-rule="evenodd" d="M10 20C15.5228 20 20 15.5228 20 10C20 4.47715 15.5228 0 10 0C4.47715 0 0 4.47715 0 10C0 15.5228 4.47715 20 10 20ZM10 17C13.866 17 17 13.866 17 10C17 6.13401 13.866 3 10 3C6.13401 3 3 6.13401 3 10C3 13.866 6.13401 17 10 17Z" fill="#b3c3c8"/></g><rect x="320" y="160" width="80" height="80" fill="#e3e5e8"/><g transform="translate(320,160) scale(4) rotate(0)"><rect width="2" height="20" fill="#a0b3bb"/><rect x="4" width="2" height="20" fill="#a0b3bb"/><rect x="8" width="2" height="20" fill="#a0b3bb"/><rect x="12" width="2" height="20" fill="#a0b3bb"/><rect x="16" width="2" height="20" fill="#a0b3bb"/></g><rect x="400" y="160" width="80" height="80" fill="#25354f"/><g transform="translate(400,160) scale(4) rotate(0)"><rect width="20" height="2" fill="#3c4b62"/><rect y="4" width="20" height="2" fill="#3c4b62"/><rect y="8" width="20" height="2" fill="#3c4b62"/><rect y="12" width="20" height="2" fill="#3c4b62"/><rect y="16" width="20" height="2" fill="#3c4b62"/></g><rect x="480" y="160" width="80" height="80" fill="#e9dfcd"/><g transform="translate(480,160) scale(4) rotate(0)"><rect width="20" height="2" fill="#5b7c88"/><rect y="4" width="20" height="2" fill="#5b7c88"/><rect y="8" width="20" height="2" fill="#5b7c88"/><rect y="12" width="20" height="2" fill="#5b7c88"/><rect y="16" width="20" height="2" fill="#5b7c88"/></g><rect x="0" y="240" width="80" height="80" fill="#c6dcdc"/><g transform="translate(0,240) scale(4) rotate(0)"><path d="M13 0H20V7L7 20H0V13L13 0Z" fill="#e4d6bb"/></g><rect x="80" y="240" width="80" height="80" fill="#e0d0b1"/><path d="M 80 320 A 80 80 0 0 1  160 240 L 80 320 A 80 80 0 0 0 160 240" fill="#136f6e"/><rect x="160" y="240" width="80" height="80" fill="#056665"/><g transform="translate(160,240) scale(4) rotate(0)"><path d="M5 0H10L5 5L0 10V5L5 0Z" fill="#dccaa7"/><path d="M20 15V20H15L20 15Z" fill="#dccaa7"/><path d="M20 5V10L15 15L10 20H5L20 5Z" fill="#dccaa7"/><path d="M15 0H20L5 15.0002L0 20.0002V15.0002L15 0Z" fill="#dccaa7"/></g><rect x="240" y="240" width="80" height="80" fill="#d3bc8f"/><g transform="translate(240,240) scale(4) rotate(0)"><rect width="2" height="20" fill="#7a8494"/><rect x="4" width="2" height="20" fill="#7a8494"/><rect x="8" width="2" height="20" fill="#7a8494"/><rect x="12" width="2" height="20" fill="#7a8494"/><rect x="16" width="2" height="20" fill="#7a8494"/></g><rect x="320" y="240" width="80" height="80" fill="#e2d4b7"/><g transform="translate(320,240) scale(4) rotate(0)"><path d="M10 0H20V10L10 20H0V10L10 0Z" fill="#f2ecdf"/></g><rect x="400" y="240" width="80" height="80" fill="#ede5d7"/><g transform="translate(400,240) scale(4) rotate(0)"><rect width="2" height="20" fill="#e6d9bf"/><rect x="4" width="2" height="20" fill="#e6d9bf"/><rect x="8" width="2" height="20" fill="#e6d9bf"/><rect x="12" width="2" height="20" fill="#e6d9bf"/><rect x="16" width="2" height="20" fill="#e6d9bf"/></g><rect x="480" y="240" width="80" height="80" fill="#e9decc"/><g transform="translate(480,240) scale(4) rotate(0)"><path fill-rule="evenodd" clip-rule="evenodd" d="M10 20C15.5228 20 20 15.5228 20 10C20 4.47715 15.5228 0 10 0C4.47715 0 0 4.47715 0 10C0 15.5228 4.47715 20 10 20ZM10 17C13.866 17 17 13.866 17 10C17 6.13401 13.866 3 10 3C6.13401 3 3 6.13401 3 10C3 13.866 6.13401 17 10 17Z" fill="#f0e8d9"/></g><rect x="0" y="320" width="80" height="80" fill="#478f8e"/><g transform="translate(0,320) scale(4) rotate(0)"><path d="M10 0H20V10L10 20H0V10L10 0Z" fill="#90bbbb"/></g><rect x="80" y="320" width="80" height="80" fill="#1c4a5b"/><g transform="translate(80,320) scale(4) rotate(0)"><path d="M10 0L20 10L10 20L0 10L10 0Z" fill="#529595"/></g><rect x="160" y="320" width="80" height="80" fill="#fdfcfb"/><g transform="translate(160,320) scale(4) rotate(0)"><path fill-rule="evenodd" clip-rule="evenodd" d="M10 20C15.5228 20 20 15.5228 20 10C20 4.47715 15.5228 0 10 0C4.47715 0 0 4.47715 0 10C0 15.5228 4.47715 20 10 20ZM10 17C13.866 17 17 13.866 17 10C17 6.13401 13.866 3 10 3C6.13401 3 3 6.13401 3 10C3 13.866 6.13401 17 10 17Z" fill="#f3ede4"/></g><rect x="240" y="320" width="80" height="80" fill="#8ca3ac"/><g transform="translate(240,320) scale(4) rotate(0)"><path d="M10 0H20V10L10 20H0V10L10 0Z" fill="#b8d4d4"/></g><rect x="320" y="320" width="80" height="80" fill="#d7dadf"/><path d="M 320 320 A 80 80 0 0 1  400 400 L 320 320 A 80 80 0 0 0 400 400" fill="#d8c39b"/><rect x="400" y="320" width="80" height="80" fill="#ffffff"/><rect x="400" y="320" width="40" height="40" fill="#e5d7bd"/><g transform="translate(400,320) scale(2) rotate(0)"><rect width="20" height="2" fill="#f2ecdf"/><rect y="4" width="20" height="2" fill="#f2ecdf"/><rect y="8" width="20" height="2" fill="#f2ecdf"/><rect y="12" width="20" height="2" fill="#f2ecdf"/><rect y="16" width="20" height="2" fill="#f2ecdf"/></g><rect x="440" y="320" width="40" height="40" fill="#d8c39b"/><circle cx="460" cy="340" r="20" fill="#e9ebed"/><rect x="400" y="360" width="40" height="40" fill="#fefdfc"/><g transform="translate(400,360) scale(2) rotate(0)"><path d="M10 0L20 10L10 20L0 10L10 0Z" fill="#466c7a"/></g><rect x="440" y="360" width="40" height="40" fill="#7b8594"/><g transform="translate(440,360) scale(2) rotate(0)"><path fill-rule="evenodd" clip-rule="evenodd" d="M10 20C15.5228 20 20 15.5228 20 10C20 4.47715 15.5228 0 10 0C4.47715 0 0 4.47715 0 10C0 15.5228 4.47715 20 10 20ZM10 17C13.866 17 17 13.866 17 10C17 6.13401 13.866 3 10 3C6.13401 3 3 6.13401 3 10C3 13.866 6.13401 17 10 17Z" fill="#eadfce"/></g><rect x="480" y="320" width="80" height="80" fill="#4d9292"/><g transform="translate(480,320) scale(4) rotate(0)"><path fill-rule="evenodd" clip-rule="evenodd" d="M10 20C15.5228 20 20 15.5228 20 10C20 4.47715 15.5228 0 10 0C4.47715 0 0 4.47715 0 10C0 15.5228 4.47715 20 10 20ZM10 17C13.866 17 17 13.866 17 10C17 6.13401 13.866 3 10 3C6.13401 3 3 6.13401 3 10C3 13.866 6.13401 17 10 17Z" fill="#c3cfd4"/></g><rect x="0" y="400" width="80" height="80" fill="#ffffff"/><rect x="0" y="400" width="40" height="40" fill="#04374a"/><g transform="translate(0,400) scale(2) rotate(0)"><path d="M10 0L20 10L10 20L0 10L10 0Z" fill="#f6f2eb"/></g><rect x="40" y="400" width="40" height="40" fill="#f8fbfb"/><g transform="translate(40,400) scale(2) rotate(0)"><rect width="20" height="2" fill="#f7f3ed"/><rect y="4" width="20" height="2" fill="#f7f3ed"/><rect y="8" width="20" height="2" fill="#f7f3ed"/><rect y="12" width="20" height="2" fill="#f7f3ed"/><rect y="16" width="20" height="2" fill="#f7f3ed"/></g><rect x="0" y="440" width="40" height="40" fill="#f9f5f0"/><g transform="translate(0,440) scale(2) rotate(0)"><path d="M13 0H20V7L7 20H0V13L13 0Z" fill="#a9bac1"/></g><rect x="40" y="440" width="40" height="40" fill="#c2dad9"/><circle cx="60" cy="460" r="20" fill="#d9dbe0"/><rect x="80" y="400" width="80" height="80" fill="#77939d"/><g transform="translate(80,400) scale(4) rotate(0)"><path d="M10 0L20 10L10 20L0 10L10 0Z" fill="#88b6b6"/></g><rect x="160" y="400" width="80" height="80" fill="#fdfbfa"/><g transform="translate(160,400) scale(4) rotate(0)"><path d="M13 0H20V7L7 20H0V13L13 0Z" fill="#f4efe6"/></g><rect x="240" y="400" width="80" height="80" fill="#ffffff"/><rect x="240" y="400" width="40" height="40" fill="#4f9393"/><g transform="translate(240,400) scale(2) rotate(0)"><path fill-rule="evenodd" clip-rule="evenodd" d="M10 20C15.5228 20 20 15.5228 20 10C20 4.47715 15.5228 0 10 0C4.47715 0 0 4.47715 0 10C0 15.5228 4.47715 20 10 20ZM10 17C13.866 17 17 13.866 17 10C17 6.13401 13.866 3 10 3C6.13401 3 3 6.13401 3 10C3 13.866 6.13401 17 10 17Z" fill="#f2ebe1"/></g><rect x="280" y="400" width="40" height="40" fill="#adb3bd"/><g transform="translate(280,400) scale(2) rotate(0)"><path fill-rule="evenodd" clip-rule="evenodd" d="M10 20C15.5228 20 20 15.5228 20 10C20 4.47715 15.5228 0 10 0C4.47715 0 0 4.47715 0 10C0 15.5228 4.47715 20 10 20ZM10 17C13.866 17 17 13.866 17 10C17 6.13401 13.866 3 10 3C6.13401 3 3 6.13401 3 10C3 13.866 6.13401 17 10 17Z" fill="#267b7a"/></g><rect x="240" y="440" width="40" height="40" fill="#e5d8bd"/><path d="M 240 480 A 40 40 0 0 0 280 440 L 240 440" fill="#f1f6f6"/><rect x="280" y="440" width="40" height="40" fill="#fcfbf9"/><g transform="translate(280,440) scale(2) rotate(0)"><path d="M5 0H10L5 5L0 10V5L5 0Z" fill="#536074"/><path d="M20 15V20H15L20 15Z" fill="#536074"/><path d="M20 5V10L15 15L10 20H5L20 5Z" fill="#536074"/><path d="M15 0H20L5 15.0002L0 20.0002V15.0002L15 0Z" fill="#536074"/></g><rect x="320" y="400" width="80" height="80" fill="#ffffff"/><rect x="320" y="400" width="40" height="40" fill="#f3eee5"/><circle cx="340" cy="420" r="20" fill="#e7dbc2"/><rect x="360" y="400" width="40" height="40" fill="#f5f7f8"/><g transform="translate(360,400) scale(2) rotate(0)"><rect width="20" height="2" fill="#8f97a5"/><rect y="4" width="20" height="2" fill="#8f97a5"/><rect y="8" width="20" height="2" fill="#8f97a5"/><rect y="12" width="20" height="2" fill="#8f97a5"/><rect y="16" width="20" height="2" fill="#8f97a5"/></g><rect x="320" y="440" width="40" height="40" fill="#deebeb"/><path d="M 320 440 A 40 40 0 0 1  360 480 L 320 440 A 40 40 0 0 0 360 480" fill="#295565"/><rect x="360" y="440" width="40" height="40" fill="#b1b7c0"/><circle cx="380" cy="460" r="20" fill="#8ca3ac"/><rect x="400" y="400" width="80" height="80" fill="#2c5767"/><path d="M 400 400 A 80 80 0 0 1  480 480 L 400 400 A 80 80 0 0 0 480 480" fill="#f0e8dc"/><rect x="480" y="400" width="80" height="80" fill="#ffffff"/><rect x="480" y="400" width="40" height="40" fill="#67a2a1"/><circle cx="500" cy="420" r="20" fill="#b7d3d2"/><rect x="520" y="400" width="40" height="40" fill="#d7c299"/><g transform="translate(520,400) scale(2) rotate(0)"><rect width="20" height="2" fill="#3f4e64"/><rect y="4" width="20" height="2" fill="#3f4e64"/><rect y="8" width="20" height="2" fill="#3f4e64"/><rect y="12" width="20" height="2" fill="#3f4e64"/><rect y="16" width="20" height="2" fill="#3f4e64"/></g><rect x="480" y="440" width="40" height="40" fill="#3b8787"/><g transform="translate(480,440) scale(2) rotate(0)"><path d="M5 0H10L5 5L0 10V5L5 0Z" fill="#d3bc8f"/><path d="M20 15V20H15L20 15Z" fill="#d3bc8f"/><path d="M20 5V10L15 15L10 20H5L20 5Z" fill="#d3bc8f"/><path d="M15 0H20L5 15.0002L0 20.0002V15.0002L15 0Z" fill="#d3bc8f"/></g><rect x="520" y="440" width="40" height="40" fill="#99a1ad"/><g transform="translate(520,440) scale(2) rotate(0)"><path d="M13 0H20V7L7 20H0V13L13 0Z" fill="#f0f3f4"/></g><rect x="0" y="480" width="80" height="80" fill="#174657"/><g transform="translate(0,480) scale(4) rotate(0)"><path d="M10 0H20V10L10 20H0V10L10 0Z" fill="#597b87"/></g><rect x="80" y="480" width="80" height="80" fill="#eadfca"/><g transform="translate(80,480) scale(4) rotate(0)"><rect width="20" height="2" fill="#546175"/><rect y="4" width="20" height="2" fill="#546175"/><rect y="8" width="20" height="2" fill="#546175"/><rect y="12" width="20" height="2" fill="#546175"/><rect y="16" width="20" height="2" fill="#546175"/></g><rect x="160" y="480" width="80" height="80" fill="#ffffff"/><rect x="160" y="480" width="40" height="40" fill="#c3cfd3"/><path d="M 160 480 A 40 40 0 0 1  200 520 L 160 480 A 40 40 0 0 0 200 520" fill="#426977"/><rect x="200" y="480" width="40" height="40" fill="#f2ebe1"/><g transform="translate(200,480) scale(2) rotate(0)"><path d="M5 0H10L5 5L0 10V5L5 0Z" fill="#7baeae"/><path d="M20 15V20H15L20 15Z" fill="#7baeae"/><path d="M20 5V10L15 15L10 20H5L20 5Z" fill="#7baeae"/><path d="M15 0H20L5 15.0002L0 20.0002V15.0002L15 0Z" fill="#7baeae"/></g><rect x="160" y="520" width="40" height="40" fill="#ddccaa"/><circle cx="180" cy="540" r="20" fill="#76abab"/><rect x="200" y="520" width="40" height="40" fill="#47556b"/><g transform="translate(200,520) scale(2) rotate(0)"><path d="M10 0H20V10L10 20H0V10L10 0Z" fill="#f2ece2"/></g><rect x="240" y="480" width="80" height="80" fill="#ffffff"/><rect x="240" y="480" width="40" height="40" fill="#eae0d0"/><path d="M 240 480 A 40 40 0 0 1  280 520 L 240 480 A 40 40 0 0 0 280 520" fill="#e5d7bd"/><rect x="280" y="480" width="40" height="40" fill="#7b96a0"/><g transform="translate(280,480) scale(2) rotate(0)"><path fill-rule="evenodd" clip-rule="evenodd" d="M10 20C15.5228 20 20 15.5228 20 10C20 4.47715 15.5228 0 10 0C4.47715 0 0 4.47715 0 10C0 15.5228 4.47715 20 10 20ZM10 17C13.866 17 17 13.866 17 10C17 6.13401 13.866 3 10 3C6.13401 3 3 6.13401 3 10C3 13.866 6.13401 17 10 17Z" fill="#445268"/></g><rect x="240" y="520" width="40" height="40" fill="#fdfdfb"/><g transform="translate(240,520) scale(2) rotate(0)"><rect width="20" height="2" fill="#7aaead"/><rect y="4" width="20" height="2" fill="#7aaead"/><rect y="8" width="20" height="2" fill="#7aaead"/><rect y="12" width="20" height="2" fill="#7aaead"/><rect y="16" width="20" height="2" fill="#7aaead"/></g><rect x="280" y="520" width="40" height="40" fill="#fafbfc"/><circle cx="300" cy="540" r="20" fill="#869ea7"/><rect x="320" y="480" width="80" height="80" fill="#eadfc9"/><g transform="translate(320,480) scale(4) rotate(0)"><rect width="20" height="2" fill="#d6c197"/><rect y="4" width="20" height="2" fill="#d6c197"/><rect y="8" width="20" height="2" fill="#d6c197"/><rect y="12" width="20" height="2" fill="#d6c197"/><rect y="16" width="20" height="2" fill="#d6c197"/></g><rect x="400" y="480" width="80" height="80" fill="#ffffff"/><rect x="400" y="480" width="40" height="40" fill="#9cc2c2"/><g transform="translate(400,480) scale(2) rotate(0)"><rect width="20" height="2" fill="#a0c5c4"/><rect y="4" width="20" height="2" fill="#a0c5c4"/><rect y="8" width="20" height="2" fill="#a0c5c4"/><rect y="12" width="20" height="2" fill="#a0c5c4"/><rect y="16" width="20" height="2" fill="#a0c5c4"/></g><rect x="440" y="480" width="40" height="40" fill="#b0cfcf"/><path d="M 440 480 A 40 40 0 0 1  480 520 L 440 480 A 40 40 0 0 0 480 520" fill="#ddcba9"/><rect x="400" y="520" width="40" height="40" fill="#104153"/><g transform="translate(400,520) scale(2) rotate(0)"><path d="M10 0H20V10L10 20H0V10L10 0Z" fill="#609e9d"/></g><rect x="440" y="520" width="40" height="40" fill="#f8f4ee"/><g transform="translate(440,520) scale(2) rotate(0)"><path fill-rule="evenodd" clip-rule="evenodd" d="M10 20C15.5228 20 20 15.5228 20 10C20 4.47715 15.5228 0 10 0C4.47715 0 0 4.47715 0 10C0 15.5228 4.47715 20 10 20ZM10 17C13.866 17 17 13.866 17 10C17 6.13401 13.866 3 10 3C6.13401 3 3 6.13401 3 10C3 13.866 6.13401 17 10 17Z" fill="#62828e"/></g><rect x="480" y="480" width="80" height="80" fill="#f7f9f9"/><g transform="translate(480,480) scale(4) rotate(0)"><path d="M5 0H10L5 5L0 10V5L5 0Z" fill="#0a3c4e"/><path d="M20 15V20H15L20 15Z" fill="#0a3c4e"/><path d="M20 5V10L15 15L10 20H5L20 5Z" fill="#0a3c4e"/><path d="M15 0H20L5 15.0002L0 20.0002V15.0002L15 0Z" fill="#0a3c4e"/></g><rect x="0" y="560" width="80" height="80" fill="#ffffff"/><rect x="0" y="560" width="40" height="40" fill="#f1eadc"/><g transform="translate(0,560) scale(2) rotate(0)"><path d="M10 0L20 10L10 20L0 10L10 0Z" fill="#3a6271"/></g><rect x="40" y="560" width="40" height="40" fill="#eee5d8"/><g transform="translate(40,560) scale(2) rotate(0)"><path fill-rule="evenodd" clip-rule="evenodd" d="M10 20C15.5228 20 20 15.5228 20 10C20 4.47715 15.5228 0 10 0C4.47715 0 0 4.47715 0 10C0 15.5228 4.47715 20 10 20ZM10 17C13.866 17 17 13.866 17 10C17 6.13401 13.866 3 10 3C6.13401 3 3 6.13401 3 10C3 13.866 6.13401 17 10 17Z" fill="#f2ebdd"/></g><rect x="0" y="600" width="40" height="40" fill="#e9ddc7"/><g transform="translate(0,600) scale(2) rotate(0)"><path fill-rule="evenodd" clip-rule="evenodd" d="M10 20C15.5228 20 20 15.5228 20 10C20 4.47715 15.5228 0 10 0C4.47715 0 0 4.47715 0 10C0 15.5228 4.47715 20 10 20ZM10 17C13.866 17 17 13.866 17 10C17 6.13401 13.866 3 10 3C6.13401 3 3 6.13401 3 10C3 13.866 6.13401 17 10 17Z" fill="#afcece"/></g><rect x="40" y="600" width="40" height="40" fill="#fefefd"/><circle cx="60" cy="620" r="20" fill="#1c2d48"/><rect x="80" y="560" width="80" height="80" fill="#f4eee5"/><g transform="translate(80,560) scale(4) rotate(0)"><path d="M13 0H20V7L7 20H0V13L13 0Z" fill="#c8dddd"/></g><rect x="160" y="560" width="80" height="80" fill="#decdac"/><circle cx="200" cy="600" r="40" fill="#338281"/><rect x="240" y="560" width="80" height="80" fill="#fdfcfa"/><path d="M 240 640 A 80 80 0 0 1  320 560 L 240 640 A 80 80 0 0 0 320 560" fill="#061936"/><rect x="320" y="560" width="80" height="80" fill="#ffffff"/><rect x="320" y="560" width="40" height="40" fill="#9bc2c2"/><g transform="translate(320,560) scale(2) rotate(0)"><rect width="20" height="2" fill="#f6f2eb"/><rect y="4" width="20" height="2" fill="#f6f2eb"/><rect y="8" width="20" height="2" fill="#f6f2eb"/><rect y="12" width="20" height="2" fill="#f6f2eb"/><rect y="16" width="20" height="2" fill="#f6f2eb"/></g><rect x="360" y="560" width="40" height="40" fill="#adcdcc"/><g transform="translate(360,560) scale(2) rotate(0)"><path d="M5 0H10L5 5L0 10V5L5 0Z" fill="#348382"/><path d="M20 15V20H15L20 15Z" fill="#348382"/><path d="M20 5V10L15 15L10 20H5L20 5Z" fill="#348382"/><path d="M15 0H20L5 15.0002L0 20.0002V15.0002L15 0Z" fill="#348382"/></g><rect x="320" y="600" width="40" height="40" fill="#606c7f"/><g transform="translate(320,600) scale(2) rotate(0)"><path fill-rule="evenodd" clip-rule="evenodd" d="M10 20C15.5228 20 20 15.5228 20 10C20 4.47715 15.5228 0 10 0C4.47715 0 0 4.47715 0 10C0 15.5228 4.47715 20 10 20ZM10 17C13.866 17 17 13.866 17 10C17 6.13401 13.866 3 10 3C6.13401 3 3 6.13401 3 10C3 13.866 6.13401 17 10 17Z" fill="#f6f2ec"/></g><rect x="360" y="600" width="40" height="40" fill="#b9d4d4"/><path d="M 360 600 A 40 40 0 0 1  400 640 L 360 600 A 40 40 0 0 0 400 640" fill="#537683"/><rect x="400" y="560" width="80" height="80" fill="#f6f1e8"/><g transform="translate(400,560) scale(4) rotate(0)"><rect width="20" height="2" fill="#d5dde1"/><rect y="4" width="20" height="2" fill="#d5dde1"/><rect y="8" width="20" height="2" fill="#d5dde1"/><rect y="12" width="20" height="2" fill="#d5dde1"/><rect y="16" width="20" height="2" fill="#d5dde1"/></g><rect x="480" y="560" width="80" height="80" fill="#ffffff"/><rect x="480" y="560" width="40" height="40" fill="#ccd7da"/><g transform="translate(480,560) scale(2) rotate(0)"><path d="M5 0H10L5 5L0 10V5L5 0Z" fill="#3b4a61"/><path d="M20 15V20H15L20 15Z" fill="#3b4a61"/><path d="M20 5V10L15 15L10 20H5L20 5Z" fill="#3b4a61"/><path d="M15 0H20L5 15.0002L0 20.0002V15.0002L15 0Z" fill="#3b4a61"/></g><rect x="520" y="560" width="40" height="40" fill="#fefefe"/><path d="M 520 600 A 40 40 0 0 1  560 560 L 520 600 A 40 40 0 0 0 560 560" fill="#eae0cf"/><rect x="480" y="600" width="40" height="40" fill="#77939d"/><g transform="translate(480,600) scale(2) rotate(0)"><path d="M10 0L20 10L10 20L0 10L10 0Z" fill="#dfcfaf"/></g><rect x="520" y="600" width="40" height="40" fill="#ece3d5"/><g transform="translate(520,600) scale(2) rotate(0)"><path fill-rule="evenodd" clip-rule="evenodd" d="M10 20C15.5228 20 20 15.5228 20 10C20 4.47715 15.5228 0 10 0C4.47715 0 0 4.47715 0 10C0 15.5228 4.47715 20 10 20ZM10 17C13.866 17 17 13.866 17 10C17 6.13401 13.866 3 10 3C6.13401 3 3 6.13401 3 10C3 13.866 6.13401 17 10 17Z" fill="#c4dbda"/></g><rect x="0" y="640" width="80" height="80" fill="#f8f5f0"/><g transform="translate(0,640) scale(4) rotate(0)"><path d="M13 0H20V7L7 20H0V13L13 0Z" fill="#f6f1ea"/></g><rect x="80" y="640" width="80" height="80" fill="#255161"/><path d="M 80 720 A 80 80 0 0 1  160 640 L 80 720 A 80 80 0 0 0 160 640" fill="#fbf9f7"/><rect x="160" y="640" width="80" height="80" fill="#1c4a5b"/><g transform="translate(160,640) scale(4) rotate(0)"><rect width="2" height="20" fill="#929aa7"/><rect x="4" width="2" height="20" fill="#929aa7"/><rect x="8" width="2" height="20" fill="#929aa7"/><rect x="12" width="2" height="20" fill="#929aa7"/><rect x="16" width="2" height="20" fill="#929aa7"/></g><rect x="240" y="640" width="80" height="80" fill="#eaeef0"/><g transform="translate(240,640) scale(4) rotate(0)"><path d="M13 0H20V7L7 20H0V13L13 0Z" fill="#d9e8e8"/></g><rect x="320" y="640" width="80" height="80" fill="#f5f0e8"/><g transform="translate(320,640) scale(4) rotate(0)"><path fill-rule="evenodd" clip-rule="evenodd" d="M10 20C15.5228 20 20 15.5228 20 10C20 4.47715 15.5228 0 10 0C4.47715 0 0 4.47715 0 10C0 15.5228 4.47715 20 10 20ZM10 17C13.866 17 17 13.866 17 10C17 6.13401 13.866 3 10 3C6.13401 3 3 6.13401 3 10C3 13.866 6.13401 17 10 17Z" fill="#78adac"/></g><rect x="400" y="640" width="80" height="80" fill="#ffffff"/><rect x="400" y="640" width="40" height="40" fill="#5b9b9a"/><g transform="translate(400,640) scale(2) rotate(0)"><rect width="20" height="2" fill="#5e9c9c"/><rect y="4" width="20" height="2" fill="#5e9c9c"/><rect y="8" width="20" height="2" fill="#5e9c9c"/><rect y="12" width="20" height="2" fill="#5e9c9c"/><rect y="16" width="20" height="2" fill="#5e9c9c"/></g><rect x="440" y="640" width="40" height="40" fill="#f3eee5"/><g transform="translate(440,640) scale(2) rotate(0)"><path d="M5 0H10L5 5L0 10V5L5 0Z" fill="#0c6a69"/><path d="M20 15V20H15L20 15Z" fill="#0c6a69"/><path d="M20 5V10L15 15L10 20H5L20 5Z" fill="#0c6a69"/><path d="M15 0H20L5 15.0002L0 20.0002V15.0002L15 0Z" fill="#0c6a69"/></g><rect x="400" y="680" width="40" height="40" fill="#e1d1b2"/><g transform="translate(400,680) scale(2) rotate(0)"><path d="M10 0L20 10L10 20L0 10L10 0Z" fill="#f8f5ee"/></g><rect x="440" y="680" width="40" height="40" fill="#e4efef"/><circle cx="460" cy="700" r="20" fill="#e6d8be"/><rect x="480" y="640" width="80" height="80" fill="#71a8a7"/><circle cx="520" cy="680" r="40" fill="#fdfcfa"/></g></svg>