<svg width="2847" height="4351" viewBox="0 0 2847 4351" fill="none" xmlns="http://www.w3.org/2000/svg">
<path d="M1251.67 89.3223H1591.46C1592.02 89.3223 1592.46 89.77 1592.46 90.3223V217.496H2739.2C2739.75 217.496 2740.2 217.943 2740.2 218.496V573.827C2740.2 574.379 2739.75 574.827 2739.2 574.827H2582.89C2582.89 3217.02 2740.09 3217.91 2740.2 4234.5C2740.2 4235.05 2739.75 4235.53 2739.2 4235.53H113.645C113.092 4235.53 112.645 4235.06 112.645 4234.5C112.759 3202.37 285.484 3191.8 285.484 574.827H113.645C113.092 574.827 112.645 574.379 112.645 573.827V218.496C112.645 217.943 113.092 217.496 113.645 217.496H1250.67V90.3223C1250.67 89.77 1251.12 89.3223 1251.67 89.3223Z" fill="#D2AC83"/>
<path d="M1250.67 217.496V90.3223C1250.67 89.77 1251.12 89.3223 1251.67 89.3223H1591.46C1592.02 89.3223 1592.46 89.77 1592.46 90.3223V217.496M1250.67 217.496H113.645C113.092 217.496 112.645 217.943 112.645 218.496V573.827C112.645 574.379 113.092 574.827 113.645 574.827H285.484M1250.67 217.496V574.827M565.135 574.827H285.484M675.83 574.827H737.975M848.67 574.827H1250.67M1250.67 574.827V773.855C1250.67 774.407 1251.12 774.855 1251.67 774.855H1591.46C1592.02 774.855 1592.46 774.407 1592.46 773.855V574.827M1592.46 574.827V217.496M1592.46 574.827H2582.89M1592.46 217.496H2739.2C2739.75 217.496 2740.2 217.943 2740.2 218.496V573.827C2740.2 574.379 2739.75 574.827 2739.2 574.827H2582.89M2185 1616V964C2185 963.448 2184.55 963 2184 963H667.5C666.948 963 666.5 963.448 666.5 964V3981C666.5 3981.55 666.948 3982 667.5 3982H2184C2184.55 3982 2185 3981.55 2185 3981V2044M285.484 574.827C285.484 3191.8 112.759 3202.37 112.645 4234.5C112.645 4235.06 113.092 4235.53 113.645 4235.53H2739.2C2739.75 4235.53 2740.2 4235.05 2740.2 4234.5C2740.09 3217.91 2582.89 3217.02 2582.89 574.827" stroke="black" stroke-width="20"/>
<g clip-path="url(#clip0_888_12675)">
<rect width="1500" height="3000" transform="translate(676 973)" fill="#D2AC83"/>
<path d="M2176 973H676V3973H2176V973Z" fill="white"/>
<path d="M890.286 973H676V1187.29H890.286V973Z" fill="white"/>
<path d="M783.132 973H676V1080.13H783.132V973Z" fill="#704337"/>
<path d="M729.566 973L783.132 1026.57L729.566 1080.13L676 1026.57L729.566 973Z" fill="#2A2820"/>
<path d="M890.264 973H783.132V1080.13H890.264V973Z" fill="#E8EBDD"/>
<path d="M783.132 973H890.264L783.132 1080.13V973Z" fill="#E9E4CC"/>
<path d="M783.132 1080.13H676V1187.26H783.132V1080.13Z" fill="#DED6B1"/>
<path d="M676 1187.26C676 1158.85 687.287 1131.6 707.378 1111.51C727.469 1091.42 754.719 1080.13 783.132 1080.13L676 1187.26C704.413 1187.26 731.663 1175.98 751.754 1155.89C771.845 1135.8 783.132 1108.55 783.132 1080.13" fill="#817F7B"/>
<path d="M890.264 1080.13H783.132V1187.26H890.264V1080.13Z" fill="#551F11"/>
<path d="M783.132 1187.26C811.545 1187.26 838.795 1175.98 858.886 1155.89C878.977 1135.8 890.264 1108.55 890.264 1080.13H783.132" fill="#4A625A"/>
<path d="M1104.6 973H890.302V1187.3H1104.6V973Z" fill="#B4BF91"/>
<path d="M943.877 973H997.453L943.877 1026.58L890.302 1080.15V1026.58L943.877 973Z" fill="#B9A95B"/>
<path d="M1104.6 1133.73V1187.3H1051.03L1104.6 1133.73Z" fill="#B9A95B"/>
<path d="M1104.6 1026.58V1080.15L1051.03 1133.73L997.452 1187.3H943.877L1104.6 1026.58Z" fill="#B9A95B"/>
<path d="M1051.03 973H1104.6L943.877 1133.73L890.302 1187.3V1133.73L1051.03 973Z" fill="#B9A95B"/>
<path d="M1318.87 973H1104.57V1187.3H1318.87V973Z" fill="#9EAC70"/>
<path d="M1158.14 973H1211.72L1158.14 1026.58L1104.57 1080.15V1026.58L1158.14 973Z" fill="#D9DEC7"/>
<path d="M1318.87 1133.73V1187.3H1265.29L1318.87 1133.73Z" fill="#D9DEC7"/>
<path d="M1318.87 1026.58V1080.15L1265.29 1133.73L1211.72 1187.3H1158.14L1318.87 1026.58Z" fill="#D9DEC7"/>
<path d="M1265.29 973H1318.87L1158.14 1133.73L1104.57 1187.3V1133.73L1265.29 973Z" fill="#D9DEC7"/>
<path d="M1533.14 973H1318.86V1187.29H1533.14V973Z" fill="white"/>
<path d="M1426 973H1318.87V1080.13H1426V973Z" fill="#798B85"/>
<path d="M1318.87 973C1318.87 1001.41 1330.16 1028.66 1350.25 1048.75C1370.34 1068.85 1397.59 1080.13 1426 1080.13V973" fill="#3F5950"/>
<path d="M1533.13 973H1426V1080.13H1533.13V973Z" fill="#90A05C"/>
<path d="M1479.57 973L1533.13 1026.57L1479.57 1080.13L1426 1026.57L1479.57 973Z" fill="#5E2B1E"/>
<path d="M1426 1080.13H1318.87V1187.26H1426V1080.13Z" fill="#ECECEB"/>
<path d="M1318.87 1187.26C1318.87 1158.85 1330.16 1131.6 1350.25 1111.51C1370.34 1091.42 1397.59 1080.13 1426 1080.13L1318.87 1187.26C1347.28 1187.26 1374.53 1175.98 1394.62 1155.89C1414.71 1135.8 1426 1108.55 1426 1080.13" fill="#908E8A"/>
<path d="M1533.13 1080.13H1426V1187.26H1533.13V1080.13Z" fill="#A6B37C"/>
<path d="M1533.13 1080.13V1187.26H1426L1533.13 1080.13Z" fill="#521B0C"/>
<path d="M1747.43 973H1533.14V1187.29H1747.43V973Z" fill="white"/>
<path d="M1640.26 973H1533.13V1080.13H1640.26V973Z" fill="#DBD0CD"/>
<path d="M1586.7 973L1640.26 1026.57L1586.7 1080.13L1533.13 1026.57L1586.7 973Z" fill="#403E37"/>
<path d="M1747.43 973H1640.3V1080.13H1747.43V973Z" fill="#95A462"/>
<path d="M1693.87 973L1747.43 1026.57L1693.87 1080.13L1640.3 1026.57L1693.87 973Z" fill="#D5D4D3"/>
<path d="M1640.26 1080.13H1533.13V1187.26H1640.26V1080.13Z" fill="#1B180F"/>
<path d="M1533.13 1080.13C1561.55 1080.13 1588.79 1091.42 1608.89 1111.51C1628.98 1131.6 1640.26 1158.85 1640.26 1187.26L1533.13 1080.13C1533.13 1108.55 1544.42 1135.8 1564.51 1155.89C1584.6 1175.98 1611.85 1187.26 1640.26 1187.26" fill="#EBE6D0"/>
<path d="M1747.43 1080.13H1640.3V1187.26H1747.43V1080.13Z" fill="#413F38"/>
<path d="M1747.43 1080.13V1187.26H1640.3L1747.43 1080.13Z" fill="#D5C8C5"/>
<path d="M1961.71 973H1747.43V1187.29H1961.71V973Z" fill="white"/>
<path d="M1854.57 973H1747.43V1080.13H1854.57V973Z" fill="#D7CEA0"/>
<path d="M1747.43 973C1775.85 973 1803.1 984.287 1823.19 1004.38C1843.28 1024.47 1854.57 1051.72 1854.57 1080.13L1747.43 973C1747.43 1001.41 1758.72 1028.66 1778.81 1048.75C1798.9 1068.85 1826.15 1080.13 1854.57 1080.13" fill="#B1BC8C"/>
<path d="M1961.7 973H1854.57V1080.13H1961.7V973Z" fill="#93A360"/>
<path d="M1854.57 1080.13C1854.57 1051.72 1865.85 1024.47 1885.94 1004.38C1906.04 984.287 1933.29 973 1961.7 973L1854.57 1080.13C1882.98 1080.13 1910.23 1068.85 1930.32 1048.75C1950.41 1028.66 1961.7 1001.41 1961.7 973" fill="#546A63"/>
<path d="M1854.57 1080.13H1747.43V1187.26H1854.57V1080.13Z" fill="#8D9E58"/>
<path d="M1747.43 1080.13C1775.85 1080.13 1803.1 1091.42 1823.19 1111.51C1843.28 1131.6 1854.57 1158.85 1854.57 1187.26L1747.43 1080.13C1747.43 1108.55 1758.72 1135.8 1778.81 1155.89C1798.9 1175.98 1826.15 1187.26 1854.57 1187.26" fill="#CFD6D4"/>
<path d="M1961.7 1080.13H1854.57V1187.26H1961.7V1080.13Z" fill="#C9D0CD"/>
<path d="M1908.13 1080.13L1961.7 1133.7L1908.13 1187.26L1854.57 1133.7L1908.13 1080.13Z" fill="#F1EDDD"/>
<path d="M2176 973H1961.7V1187.3H2176V973Z" fill="#D9DEDD"/>
<path d="M2068.85 973L2176 1080.15L2068.85 1187.3L1961.7 1080.15L2068.85 973Z" fill="#5F746D"/>
<path d="M890.302 1187.3H676V1401.6H890.302V1187.3Z" fill="#714438"/>
<path d="M729.575 1187.3H783.151L729.575 1240.88L676 1294.45V1240.88L729.575 1187.3Z" fill="#72847E"/>
<path d="M890.302 1348.03V1401.6H836.727L890.302 1348.03Z" fill="#72847E"/>
<path d="M890.301 1240.88V1294.45L836.726 1348.03L783.151 1401.6H729.575L890.301 1240.88Z" fill="#72847E"/>
<path d="M836.726 1187.3H890.302L729.575 1348.03L676 1401.6V1348.03L836.726 1187.3Z" fill="#72847E"/>
<path d="M1104.6 1187.3H890.302V1401.6H1104.6V1187.3Z" fill="#2F4B42"/>
<path d="M943.877 1187.3H997.453L943.877 1240.88L890.302 1294.45V1240.88L943.877 1187.3Z" fill="#F8F6F6"/>
<path d="M1104.6 1348.03V1401.6H1051.03L1104.6 1348.03Z" fill="#F8F6F6"/>
<path d="M1104.6 1240.88V1294.45L1051.03 1348.03L997.452 1401.6H943.877L1104.6 1240.88Z" fill="#F8F6F6"/>
<path d="M1051.03 1187.3H1104.6L943.877 1348.03L890.302 1401.6V1348.03L1051.03 1187.3Z" fill="#F8F6F6"/>
<path d="M1318.87 1187.3H1104.57V1401.6H1318.87V1187.3Z" fill="#CDD3D1"/>
<path d="M1211.72 1187.3L1318.87 1294.45L1211.72 1401.6L1104.57 1294.45L1211.72 1187.3Z" fill="#BEC79F"/>
<path d="M1533.17 1187.3H1318.87V1401.6H1533.17V1187.3Z" fill="#556C64"/>
<path d="M1318.87 1187.3C1318.87 1244.14 1341.45 1298.65 1381.64 1338.83C1421.83 1379.02 1476.33 1401.6 1533.17 1401.6V1187.3" fill="#8F9E99"/>
<path d="M1747.43 1187.3H1533.13V1401.6H1747.43V1187.3Z" fill="#D1C794"/>
<path d="M1640.28 1187.3L1747.43 1294.45L1640.28 1401.6L1533.13 1294.45L1640.28 1187.3Z" fill="#937067"/>
<path d="M1961.74 1187.3H1747.43V1401.6H1961.74V1187.3Z" fill="#F3F5ED"/>
<path d="M1801.01 1187.3H1854.58L1801.01 1240.88L1747.43 1294.45V1240.88L1801.01 1187.3Z" fill="#9F8179"/>
<path d="M1961.74 1348.03V1401.6H1908.16L1961.74 1348.03Z" fill="#9F8179"/>
<path d="M1961.74 1240.88V1294.45L1908.16 1348.03L1854.58 1401.6H1801.01L1961.74 1240.88Z" fill="#9F8179"/>
<path d="M1908.16 1187.3H1961.74L1801.01 1348.03L1747.43 1401.6V1348.03L1908.16 1187.3Z" fill="#9F8179"/>
<path d="M2176 1187.3H1961.7V1401.6H2176V1187.3Z" fill="#899A51"/>
<path d="M2015.27 1187.3H2068.85L2015.27 1240.88L1961.7 1294.45V1240.88L2015.27 1187.3Z" fill="#DBE0DF"/>
<path d="M2176 1348.03V1401.6H2122.42L2176 1348.03Z" fill="#DBE0DF"/>
<path d="M2176 1240.88V1294.45L2122.42 1348.03L2068.85 1401.6H2015.27L2176 1240.88Z" fill="#DBE0DF"/>
<path d="M2122.42 1187.3H2176L2015.27 1348.03L1961.7 1401.6V1348.03L2122.42 1187.3Z" fill="#DBE0DF"/>
<path d="M890.302 1401.57H676V1615.87H890.302V1401.57Z" fill="#C1C9C7"/>
<path d="M783.151 1401.57L890.302 1508.72L783.151 1615.87L676 1508.72L783.151 1401.57Z" fill="#D3C997"/>
<path d="M1104.6 1401.57H890.302V1615.87H1104.6V1401.57Z" fill="#D8D0A4"/>
<path d="M943.877 1401.57H997.453L943.877 1455.14L890.302 1508.72V1455.14L943.877 1401.57Z" fill="#475F57"/>
<path d="M1104.6 1562.29V1615.87H1051.03L1104.6 1562.29Z" fill="#475F57"/>
<path d="M1104.6 1455.14V1508.72L1051.03 1562.29L997.452 1615.87H943.877L1104.6 1455.14Z" fill="#475F57"/>
<path d="M1051.03 1401.57H1104.6L943.877 1562.29L890.302 1615.87V1562.29L1051.03 1401.57Z" fill="#475F57"/>
<path d="M1318.87 1401.57H1104.57V1615.87H1318.87V1401.57Z" fill="#8D8B87"/>
<path d="M1104.57 1401.57C1104.57 1458.4 1127.14 1512.91 1167.33 1553.1C1207.52 1593.29 1262.03 1615.87 1318.87 1615.87V1401.57" fill="#F9F7F6"/>
<path d="M1533.17 1401.57H1318.87V1615.87H1533.17V1401.57Z" fill="#FDFDFD"/>
<path d="M1533.17 1401.57H1318.87V1615.87H1533.17V1401.57Z" fill="#F4F5EF"/>
<path d="M1747.43 1401.57H1533.13V1615.87H1747.43V1401.57Z" fill="#35322B"/>
<path d="M1586.71 1401.57H1640.28L1586.71 1455.14L1533.13 1508.72V1455.14L1586.71 1401.57Z" fill="#AD928C"/>
<path d="M1747.43 1562.29V1615.87H1693.86L1747.43 1562.29Z" fill="#AD928C"/>
<path d="M1747.43 1455.14V1508.72L1693.86 1562.29L1640.28 1615.87H1586.71L1747.43 1455.14Z" fill="#AD928C"/>
<path d="M1693.86 1401.57H1747.43L1586.71 1562.29L1533.13 1615.87V1562.29L1693.86 1401.57Z" fill="#AD928C"/>
<path d="M1961.74 1401.57H1747.43V1615.87H1961.74V1401.57Z" fill="#8B9A95"/>
<path d="M1801.01 1401.57H1854.58L1801.01 1455.14L1747.43 1508.72V1455.14L1801.01 1401.57Z" fill="#7C7A75"/>
<path d="M1961.74 1562.29V1615.87H1908.16L1961.74 1562.29Z" fill="#7C7A75"/>
<path d="M1961.74 1455.14V1508.72L1908.16 1562.29L1854.58 1615.87H1801.01L1961.74 1455.14Z" fill="#7C7A75"/>
<path d="M1908.16 1401.57H1961.74L1801.01 1562.29L1747.43 1615.87V1562.29L1908.16 1401.57Z" fill="#7C7A75"/>
<path d="M2176 1401.57H1961.7V1615.87H2176V1401.57Z" fill="#909F9A"/>
<path d="M2176 1401.57H1961.7V1615.87H2176V1401.57Z" fill="#B7A756"/>
<path d="M890.302 1615.87H676V1830.17H890.302V1615.87Z" fill="#DED7B3"/>
<path d="M676 1830.17C676 1773.33 698.578 1718.82 738.768 1678.63C778.957 1638.45 833.465 1615.87 890.302 1615.87V1830.17" fill="#D7DCC3"/>
<path d="M1104.6 1615.87H890.302V1830.17H1104.6V1615.87Z" fill="#B2BD8E"/>
<path d="M890.302 1615.87H1104.6L890.302 1830.17V1615.87Z" fill="#8A9B53"/>
<path d="M1318.86 1615.86H1104.57V1830.14H1318.86V1615.86Z" fill="white"/>
<path d="M1211.7 1615.87H1104.57V1723H1211.7V1615.87Z" fill="#34322A"/>
<path d="M1131.35 1615.87H1158.13L1131.35 1642.65L1104.57 1669.43V1642.65L1131.35 1615.87Z" fill="#623023"/>
<path d="M1211.7 1696.22V1723H1184.92L1211.7 1696.22Z" fill="#623023"/>
<path d="M1211.7 1642.65V1669.43L1184.92 1696.22L1158.13 1723H1131.35L1211.7 1642.65Z" fill="#623023"/>
<path d="M1184.92 1615.87H1211.7L1131.35 1696.22L1104.57 1723V1696.22L1184.92 1615.87Z" fill="#623023"/>
<path d="M1318.83 1615.87H1211.7V1723H1318.83V1615.87Z" fill="#9F8179"/>
<path d="M1211.7 1615.87C1240.11 1615.87 1267.36 1627.15 1287.45 1647.25C1307.54 1667.34 1318.83 1694.59 1318.83 1723L1211.7 1615.87C1211.7 1644.28 1222.99 1671.53 1243.08 1691.62C1263.17 1711.71 1290.42 1723 1318.83 1723" fill="#4B1203"/>
<path d="M1211.7 1723H1104.57V1830.13H1211.7V1723Z" fill="#B8A859"/>
<path d="M1131.35 1723H1158.13L1131.35 1749.78L1104.57 1776.57V1749.78L1131.35 1723Z" fill="#91A09B"/>
<path d="M1211.7 1803.35V1830.13H1184.92L1211.7 1803.35Z" fill="#91A09B"/>
<path d="M1211.7 1749.78V1776.57L1184.92 1803.35L1158.13 1830.13H1131.35L1211.7 1749.78Z" fill="#91A09B"/>
<path d="M1184.92 1723H1211.7L1131.35 1803.35L1104.57 1830.13V1803.35L1184.92 1723Z" fill="#91A09B"/>
<path d="M1318.83 1723H1211.7V1830.13H1318.83V1723Z" fill="#F1F3EA"/>
<path d="M1211.7 1723C1240.11 1723 1267.36 1734.29 1287.45 1754.38C1307.54 1774.47 1318.83 1801.72 1318.83 1830.13H1211.7" fill="#EFEBD8"/>
<path d="M1533.14 1615.86H1318.86V1830.14H1533.14V1615.86Z" fill="white"/>
<path d="M1426 1615.87H1318.87V1723H1426V1615.87Z" fill="#A2AEAA"/>
<path d="M1426 1615.87H1318.87V1723H1426V1615.87Z" fill="#E2E6D4"/>
<path d="M1533.13 1615.87H1426V1723H1533.13V1615.87Z" fill="#FCFCF9"/>
<path d="M1426 1723C1426 1694.59 1437.29 1667.34 1457.38 1647.25C1477.47 1627.15 1504.72 1615.87 1533.13 1615.87L1426 1723C1454.41 1723 1481.66 1711.71 1501.75 1691.62C1521.85 1671.53 1533.13 1644.28 1533.13 1615.87" fill="#4A625A"/>
<path d="M1426 1723H1318.87V1830.13H1426V1723Z" fill="#FCFCF9"/>
<path d="M1318.87 1830.13C1347.28 1830.13 1374.53 1818.85 1394.62 1798.75C1414.71 1778.66 1426 1751.41 1426 1723H1318.87" fill="#B9A95A"/>
<path d="M1533.13 1723H1426V1830.13H1533.13V1723Z" fill="#3B554D"/>
<path d="M1426 1830.13C1426 1801.72 1437.29 1774.47 1457.38 1754.38C1477.47 1734.29 1504.72 1723 1533.13 1723V1830.13" fill="#E2E6E5"/>
<path d="M1747.43 1615.87H1533.13V1830.17H1747.43V1615.87Z" fill="#F9F8F1"/>
<path d="M1533.13 1615.87C1561.27 1615.87 1589.14 1621.41 1615.14 1632.18C1641.14 1642.95 1664.77 1658.73 1684.67 1678.63C1704.57 1698.53 1720.35 1722.16 1731.12 1748.16C1741.89 1774.16 1747.43 1802.03 1747.43 1830.17L1533.13 1615.87C1533.13 1672.7 1555.71 1727.21 1595.9 1767.4C1636.09 1807.59 1690.6 1830.17 1747.43 1830.17" fill="#8D9E58"/>
<path d="M1961.74 1615.87H1747.43V1830.17H1961.74V1615.87Z" fill="#D8D7D6"/>
<path d="M1854.58 1615.87L1961.74 1723.02L1854.58 1830.17L1747.43 1723.02L1854.58 1615.87Z" fill="#D9D0A6"/>
<path d="M2176 1615.87H1961.7V1830.17H2176V1615.87Z" fill="#B1BBB8"/>
<path d="M2015.27 1615.87H2068.85L2015.27 1669.44L1961.7 1723.02V1669.44L2015.27 1615.87Z" fill="#F5F6F0"/>
<path d="M2176 1776.59V1830.17H2122.42L2176 1776.59Z" fill="#F5F6F0"/>
<path d="M2176 1669.44V1723.02L2122.42 1776.59L2068.85 1830.17H2015.27L2176 1669.44Z" fill="#F5F6F0"/>
<path d="M2122.42 1615.87H2176L2015.27 1776.6L1961.7 1830.17V1776.6L2122.42 1615.87Z" fill="#F5F6F0"/>
<path d="M890.302 1830.13H676V2044.43H890.302V1830.13Z" fill="#D1C793"/>
<path d="M676 2044.43C676 1987.6 698.578 1933.09 738.768 1892.9C778.957 1852.71 833.465 1830.13 890.302 1830.13L676 2044.43C704.143 2044.43 732.009 2038.89 758.01 2028.12C784.01 2017.35 807.634 2001.57 827.534 1981.67C847.434 1961.77 863.219 1938.14 873.989 1912.14C884.759 1886.14 890.302 1858.28 890.302 1830.13" fill="#FBFBF9"/>
<path d="M1104.6 1830.13H890.302V2044.43H1104.6V1830.13Z" fill="#F2F4EC"/>
<path d="M890.302 1830.13C890.302 1858.28 895.845 1886.14 906.614 1912.14C917.384 1938.14 933.17 1961.77 953.069 1981.67C993.259 2021.86 1047.77 2044.43 1104.6 2044.43V1830.13" fill="#F9F7F0"/>
<path d="M1318.87 1830.13H1104.57V2044.43H1318.87V1830.13Z" fill="#582215"/>
<path d="M1104.57 2044.43C1104.57 1987.6 1127.14 1933.09 1167.33 1892.9C1207.52 1852.71 1262.03 1830.13 1318.87 1830.13L1104.57 2044.43C1132.71 2044.43 1160.58 2038.89 1186.58 2028.12C1212.58 2017.35 1236.2 2001.57 1256.1 1981.67C1276 1961.77 1291.79 1938.14 1302.56 1912.14C1313.33 1886.14 1318.87 1858.28 1318.87 1830.13" fill="#BABAB7"/>
<path d="M1533.17 1830.13H1318.87V2044.43H1533.17V1830.13Z" fill="#80584D"/>
<path d="M1372.44 1830.13H1426.02L1372.44 1883.71L1318.87 1937.28V1883.71L1372.44 1830.13Z" fill="#9E9D99"/>
<path d="M1533.17 1990.86V2044.43H1479.59L1533.17 1990.86Z" fill="#9E9D99"/>
<path d="M1533.17 1883.71V1937.28L1479.59 1990.86L1426.02 2044.44H1372.44L1533.17 1883.71Z" fill="#9E9D99"/>
<path d="M1479.59 1830.13H1533.17L1372.44 1990.86L1318.87 2044.44V1990.86L1479.59 1830.13Z" fill="#9E9D99"/>
<path d="M1747.43 1830.13H1533.13V2044.43H1747.43V1830.13Z" fill="#242119"/>
<path d="M1586.71 1830.13H1640.28L1586.71 1883.71L1533.13 1937.28V1883.71L1586.71 1830.13Z" fill="#667A74"/>
<path d="M1747.43 1990.86V2044.43H1693.86L1747.43 1990.86Z" fill="#667A74"/>
<path d="M1747.43 1883.71V1937.28L1693.86 1990.86L1640.28 2044.44H1586.71L1747.43 1883.71Z" fill="#667A74"/>
<path d="M1693.86 1830.13H1747.43L1586.71 1990.86L1533.13 2044.44V1990.86L1693.86 1830.13Z" fill="#667A74"/>
<path d="M1961.74 1830.13H1747.43V2044.43H1961.74V1830.13Z" fill="#F2F2F1"/>
<path d="M1961.74 1830.13V2044.43H1747.43L1961.74 1830.13Z" fill="#C6CECB"/>
<path d="M2176 1830.13H1961.7V2044.43H2176V1830.13Z" fill="#7B8C87"/>
<path d="M1961.7 1830.13H2176V2044.43L1961.7 1830.13Z" fill="#3E584F"/>
<path d="M890.302 2044.43H676V2258.74H890.302V2044.43Z" fill="#18160D"/>
<path d="M676 2044.43C676 2101.27 698.578 2155.78 738.768 2195.97C778.957 2236.16 833.465 2258.74 890.302 2258.74V2044.43" fill="#304C43"/>
<path d="M1104.6 2044.43H890.302V2258.74H1104.6V2044.43Z" fill="#DDD5AE"/>
<path d="M997.453 2044.43L1104.6 2151.58L997.453 2258.74L890.302 2151.58L997.453 2044.43Z" fill="#97A5A1"/>
<path d="M1318.87 2044.43H1104.57V2258.74H1318.87V2044.43Z" fill="#BBAC60"/>
<path d="M1104.57 2044.43L1318.87 2258.74H1104.57V2044.43Z" fill="#BAAB5E"/>
<path d="M1533.17 2044.43H1318.87V2258.74H1533.17V2044.43Z" fill="#9DAB6E"/>
<path d="M1318.87 2044.43C1318.87 2101.27 1341.45 2155.78 1381.64 2195.97C1421.83 2236.16 1476.33 2258.74 1533.17 2258.74V2044.43" fill="#A7B3AF"/>
<path d="M1747.43 2044.43H1533.14V2258.71H1747.43V2044.43Z" fill="white"/>
<path d="M1640.26 2044.43H1533.13V2151.57H1640.26V2044.43Z" fill="#4C645C"/>
<path d="M1559.91 2044.43H1586.7L1559.91 2071.22L1533.13 2098V2071.22L1559.91 2044.43Z" fill="#F0F0EF"/>
<path d="M1640.26 2124.78V2151.57H1613.48L1640.26 2124.78Z" fill="#F0F0EF"/>
<path d="M1640.26 2071.22V2098L1613.48 2124.78L1586.7 2151.57H1559.92L1640.26 2071.22Z" fill="#F0F0EF"/>
<path d="M1613.48 2044.43H1640.26L1559.91 2124.78L1533.13 2151.57V2124.78L1613.48 2044.43Z" fill="#F0F0EF"/>
<path d="M1747.43 2044.43H1640.3V2151.57H1747.43V2044.43Z" fill="#EFEBD9"/>
<path d="M1667.08 2044.43H1693.87L1667.08 2071.22L1640.3 2098V2071.22L1667.08 2044.43Z" fill="#D6D6D4"/>
<path d="M1747.43 2124.78V2151.57H1720.65L1747.43 2124.78Z" fill="#D6D6D4"/>
<path d="M1747.43 2071.22V2098L1720.65 2124.78L1693.87 2151.57H1667.08L1747.43 2071.22Z" fill="#D6D6D4"/>
<path d="M1720.65 2044.43H1747.43L1667.08 2124.78L1640.3 2151.57V2124.78L1720.65 2044.43Z" fill="#D6D6D4"/>
<path d="M1640.26 2151.57H1533.13V2258.7H1640.26V2151.57Z" fill="#B7C296"/>
<path d="M1640.26 2151.57H1533.13V2258.7H1640.26V2151.57Z" fill="#7C8E88"/>
<path d="M1747.43 2151.57H1640.3V2258.7H1747.43V2151.57Z" fill="#87984E"/>
<path d="M1640.3 2258.7C1668.71 2258.7 1695.96 2247.41 1716.06 2227.32C1736.15 2207.23 1747.43 2179.98 1747.43 2151.57H1640.3" fill="#D8CFA4"/>
<path d="M1961.74 2044.43H1747.43V2258.74H1961.74V2044.43Z" fill="#A98E86"/>
<path d="M1747.43 2044.43C1747.43 2101.27 1770.01 2155.78 1810.2 2195.97C1850.39 2236.16 1904.9 2258.74 1961.74 2258.74V2044.43" fill="#E3DDBE"/>
<path d="M2176 2044.43H1961.7V2258.74H2176V2044.43Z" fill="#B4A34E"/>
<path d="M1961.7 2044.43H2176L1961.7 2258.74V2044.43Z" fill="#C8D0AD"/>
<path d="M890.302 2258.7H676V2473H890.302V2258.7Z" fill="#F3F0E2"/>
<path d="M783.151 2258.7L890.302 2365.85L783.151 2473L676 2365.85L783.151 2258.7Z" fill="#F9F8F1"/>
<path d="M1104.6 2258.7H890.302V2473H1104.6V2258.7Z" fill="#CCC188"/>
<path d="M890.302 2473C890.302 2416.16 912.88 2361.66 953.069 2321.47C993.259 2281.28 1047.77 2258.7 1104.6 2258.7L890.302 2473C947.138 2473 1001.65 2450.42 1041.84 2410.23C1082.03 2370.04 1104.6 2315.54 1104.6 2258.7" fill="#221F17"/>
<path d="M1318.87 2258.7H1104.57V2473H1318.87V2258.7Z" fill="#CEC38C"/>
<path d="M1318.87 2258.7H1104.57V2473H1318.87V2258.7Z" fill="#BAC49A"/>
<path d="M1533.17 2258.7H1318.87V2473H1533.17V2258.7Z" fill="#CEC38B"/>
<path d="M1318.87 2258.7C1375.7 2258.7 1430.21 2281.28 1470.4 2321.47C1510.59 2361.66 1533.17 2416.16 1533.17 2473L1318.87 2258.7C1318.87 2315.54 1341.45 2370.04 1381.64 2410.23C1421.83 2450.42 1476.33 2473 1533.17 2473" fill="#DCE1CC"/>
<path d="M1747.43 2258.7H1533.13V2473H1747.43V2258.7Z" fill="#879792"/>
<path d="M1533.13 2258.7H1747.43L1533.13 2473V2258.7Z" fill="#A88D85"/>
<path d="M1961.74 2258.7H1747.43V2473H1961.74V2258.7Z" fill="#EFEEEE"/>
<path d="M1747.43 2258.7C1804.27 2258.7 1858.78 2281.28 1898.97 2321.47C1939.16 2361.66 1961.74 2416.16 1961.74 2473L1747.43 2258.7C1747.43 2315.54 1770.01 2370.04 1810.2 2410.23C1850.39 2450.42 1904.9 2473 1961.74 2473" fill="#92A25F"/>
<path d="M2176 2258.7H1961.7V2473H2176V2258.7Z" fill="#E8EBEA"/>
<path d="M2176 2258.7H1961.7V2473H2176V2258.7Z" fill="#ADB886"/>
<path d="M890.302 2473H676V2687.3H890.302V2473Z" fill="#F4F0EF"/>
<path d="M676 2473C732.836 2473 787.345 2495.58 827.534 2535.77C867.724 2575.96 890.302 2630.47 890.302 2687.3L676 2473C676 2529.84 698.578 2584.34 738.768 2624.53C778.957 2664.72 833.465 2687.3 890.302 2687.3" fill="#87984E"/>
<path d="M1104.6 2473H890.302V2687.3H1104.6V2473Z" fill="#CBBF85"/>
<path d="M1104.6 2473H890.302V2687.3H1104.6V2473Z" fill="#E1E6D3"/>
<path d="M1318.87 2473H1104.57V2687.3H1318.87V2473Z" fill="#CCC188"/>
<path d="M1211.72 2473L1318.87 2580.15L1211.72 2687.3L1104.57 2580.15L1211.72 2473Z" fill="#FFFFFE"/>
<path d="M1533.17 2473H1318.87V2687.3H1533.17V2473Z" fill="#7A7974"/>
<path d="M1318.87 2473C1375.7 2473 1430.21 2495.58 1470.4 2535.77C1510.59 2575.96 1533.17 2630.47 1533.17 2687.3L1318.87 2473C1318.87 2529.84 1341.45 2584.34 1381.64 2624.53C1421.83 2664.72 1476.33 2687.3 1533.17 2687.3" fill="#BFB16A"/>
<path d="M1747.43 2473H1533.13V2687.3H1747.43V2473Z" fill="#BFABA6"/>
<path d="M1533.13 2473C1533.13 2529.84 1555.71 2584.34 1595.9 2624.53C1636.09 2664.72 1690.6 2687.3 1747.43 2687.3V2473" fill="#F1F1F1"/>
<path d="M1961.74 2473H1747.43V2687.3H1961.74V2473Z" fill="#5A2518"/>
<path d="M1747.43 2687.3C1747.43 2630.47 1770.01 2575.96 1810.2 2535.77C1850.39 2495.58 1904.9 2473 1961.74 2473L1747.43 2687.3C1804.27 2687.3 1858.78 2664.72 1898.97 2624.53C1939.16 2584.34 1961.74 2529.84 1961.74 2473" fill="#91A15D"/>
<path d="M2176 2473H1961.71V2687.29H2176V2473Z" fill="white"/>
<path d="M2068.83 2473H1961.7V2580.13H2068.83V2473Z" fill="#FAF9F4"/>
<path d="M2068.83 2473H1961.7V2580.13H2068.83V2473Z" fill="#7C7B76"/>
<path d="M2176 2473H2068.87V2580.13H2176V2473Z" fill="#889950"/>
<path d="M2176 2473H2068.87V2580.13H2176V2473Z" fill="#F1F3EB"/>
<path d="M2068.83 2580.13H1961.7V2687.26H2068.83V2580.13Z" fill="#8C675E"/>
<path d="M1961.7 2580.13C1990.11 2580.13 2017.36 2591.42 2037.45 2611.51C2057.54 2631.6 2068.83 2658.85 2068.83 2687.26L1961.7 2580.13C1961.7 2608.55 1972.99 2635.8 1993.08 2655.89C2013.17 2675.98 2040.42 2687.26 2068.83 2687.26" fill="#B3B2AF"/>
<path d="M2176 2580.13H2068.87V2687.26H2176V2580.13Z" fill="#4E1607"/>
<path d="M2176 2580.13H2068.87V2687.26H2176V2580.13Z" fill="#DBD3AA"/>
<path d="M890.302 2687.3H676V2901.6H890.302V2687.3Z" fill="#9B7B73"/>
<path d="M676 2687.3C732.836 2687.3 787.345 2709.88 827.534 2750.07C867.724 2790.26 890.302 2844.77 890.302 2901.6L676 2687.3C676 2715.44 681.543 2743.31 692.313 2769.31C703.082 2795.31 718.868 2818.94 738.768 2838.83C758.667 2858.73 782.292 2874.52 808.292 2885.29C834.292 2896.06 862.159 2901.6 890.302 2901.6" fill="#C6CDCB"/>
<path d="M1104.57 2687.29H890.286V2901.57H1104.57V2687.29Z" fill="white"/>
<path d="M997.434 2687.3H890.302V2794.43H997.434V2687.3Z" fill="#FDFDFD"/>
<path d="M890.302 2687.3C904.371 2687.3 918.302 2690.07 931.299 2695.46C944.297 2700.84 956.107 2708.73 966.056 2718.68C976.004 2728.63 983.895 2740.44 989.279 2753.44C994.663 2766.43 997.434 2780.36 997.434 2794.43L890.302 2687.3C890.302 2715.71 901.589 2742.96 921.68 2763.05C941.771 2783.15 969.021 2794.43 997.434 2794.43" fill="#2B473E"/>
<path d="M1104.57 2687.3H997.434V2794.43H1104.57V2687.3Z" fill="#354F47"/>
<path d="M1104.57 2687.3V2794.43H997.434L1104.57 2687.3Z" fill="#FAF9F9"/>
<path d="M997.434 2794.43H890.302V2901.57H997.434V2794.43Z" fill="#F8F7EF"/>
<path d="M917.085 2794.43H943.868L917.085 2821.22L890.302 2848V2821.22L917.085 2794.43Z" fill="#E5DFC2"/>
<path d="M997.434 2874.78V2901.57H970.651L997.434 2874.78Z" fill="#E5DFC2"/>
<path d="M997.434 2821.22V2848L970.651 2874.78L943.868 2901.57H917.085L997.434 2821.22Z" fill="#E5DFC2"/>
<path d="M970.651 2794.43H997.434L917.085 2874.78L890.302 2901.57V2874.78L970.651 2794.43Z" fill="#E5DFC2"/>
<path d="M1104.57 2794.43H997.434V2901.57H1104.57V2794.43Z" fill="#F3F0E2"/>
<path d="M997.434 2794.43C1025.85 2794.43 1053.1 2805.72 1073.19 2825.81C1093.28 2845.9 1104.57 2873.15 1104.57 2901.57L997.434 2794.43C997.434 2822.85 1008.72 2850.1 1028.81 2870.19C1048.9 2890.28 1076.15 2901.57 1104.57 2901.57" fill="#D6CDA0"/>
<path d="M1318.87 2687.3H1104.57V2901.6H1318.87V2687.3Z" fill="#BEBEBB"/>
<path d="M1318.87 2687.3H1104.57V2901.6H1318.87V2687.3Z" fill="#582315"/>
<path d="M1533.17 2687.3H1318.87V2901.6H1533.17V2687.3Z" fill="#BCAD63"/>
<path d="M1426.02 2687.3L1533.17 2794.45L1426.02 2901.6L1318.87 2794.45L1426.02 2687.3Z" fill="#DDD3D0"/>
<path d="M1747.43 2687.3H1533.13V2901.6H1747.43V2687.3Z" fill="#ECEFE3"/>
<path d="M1640.28 2687.3L1747.43 2794.45L1640.28 2901.6L1533.13 2794.45L1640.28 2687.3Z" fill="#D7DDC4"/>
<path d="M1961.74 2687.3H1747.43V2901.6H1961.74V2687.3Z" fill="#2D4940"/>
<path d="M1747.43 2687.3C1804.27 2687.3 1858.78 2709.88 1898.97 2750.07C1939.16 2790.26 1961.74 2844.77 1961.74 2901.6H1747.43" fill="#C2B571"/>
<path d="M2176 2687.3H1961.7V2901.6H2176V2687.3Z" fill="#D2C896"/>
<path d="M1961.7 2901.6C1961.7 2844.77 1984.28 2790.26 2024.47 2750.07C2064.66 2709.88 2119.16 2687.3 2176 2687.3L1961.7 2901.6C1989.84 2901.6 2017.71 2896.06 2043.71 2885.29C2069.71 2874.52 2093.33 2858.73 2113.23 2838.83C2133.13 2818.94 2148.92 2795.31 2159.69 2769.31C2170.46 2743.31 2176 2715.44 2176 2687.3" fill="#EEEBD8"/>
<path d="M890.286 2901.57H676V3115.86H890.286V2901.57Z" fill="white"/>
<path d="M783.132 2901.57H676V3008.7H783.132V2901.57Z" fill="#95736A"/>
<path d="M676 2901.57H783.132V3008.7L676 2901.57Z" fill="#B8C1BE"/>
<path d="M890.264 2901.57H783.132V3008.7H890.264V2901.57Z" fill="#A5B27B"/>
<path d="M890.264 2901.57V3008.7H783.132L890.264 2901.57Z" fill="#2C2A22"/>
<path d="M783.132 3008.7H676V3115.83H783.132V3008.7Z" fill="#EFF1E7"/>
<path d="M702.783 3008.7H729.566L702.783 3035.48L676 3062.27V3035.48L702.783 3008.7Z" fill="#ECEFE3"/>
<path d="M783.133 3089.05V3115.83H756.35L783.133 3089.05Z" fill="#ECEFE3"/>
<path d="M783.132 3035.48V3062.27L756.349 3089.05L729.566 3115.83H702.783L783.132 3035.48Z" fill="#ECEFE3"/>
<path d="M756.349 3008.7H783.132L702.783 3089.05L676 3115.83V3089.05L756.349 3008.7Z" fill="#ECEFE3"/>
<path d="M890.264 3008.7H783.132V3115.83H890.264V3008.7Z" fill="#7E544A"/>
<path d="M783.132 3008.7C783.132 3037.11 794.419 3064.36 814.51 3084.45C834.601 3104.54 861.851 3115.83 890.264 3115.83V3008.7" fill="#D4C6C3"/>
<path d="M1104.6 2901.57H890.302V3115.87H1104.6V2901.57Z" fill="#94A29D"/>
<path d="M890.302 2901.57C890.302 2958.4 912.88 3012.91 953.069 3053.1C993.259 3093.29 1047.77 3115.87 1104.6 3115.87V2901.57" fill="#697D77"/>
<path d="M1318.87 2901.57H1104.57V3115.87H1318.87V2901.57Z" fill="#EEE9E7"/>
<path d="M1104.57 3115.87C1104.57 3059.03 1127.14 3004.52 1167.33 2964.33C1207.52 2924.14 1262.03 2901.57 1318.87 2901.57L1104.57 3115.87C1161.4 3115.87 1215.91 3093.29 1256.1 3053.1C1296.29 3012.91 1318.87 2958.4 1318.87 2901.57" fill="#667A73"/>
<path d="M1533.14 2901.57H1318.86V3115.86H1533.14V2901.57Z" fill="white"/>
<path d="M1426 2901.57H1318.87V3008.7H1426V2901.57Z" fill="#D1D7D5"/>
<path d="M1318.87 2901.57H1426L1318.87 3008.7V2901.57Z" fill="#F8F7EF"/>
<path d="M1533.13 2901.57H1426V3008.7H1533.13V2901.57Z" fill="#FAFAFA"/>
<path d="M1452.78 2901.57H1479.57L1452.78 2928.35L1426 2955.13V2928.35L1452.78 2901.57Z" fill="#E4DBD9"/>
<path d="M1533.13 2981.92V3008.7H1506.35L1533.13 2981.92Z" fill="#E4DBD9"/>
<path d="M1533.13 2928.35V2955.13L1506.35 2981.92L1479.57 3008.7H1452.78L1533.13 2928.35Z" fill="#E4DBD9"/>
<path d="M1506.35 2901.57H1533.13L1452.78 2981.92L1426 3008.7V2981.92L1506.35 2901.57Z" fill="#E4DBD9"/>
<path d="M1426 3008.7H1318.87V3115.83H1426V3008.7Z" fill="#C8CFCD"/>
<path d="M1345.65 3008.7H1372.43L1345.65 3035.48L1318.87 3062.27V3035.48L1345.65 3008.7Z" fill="#EEF0E6"/>
<path d="M1426 3089.05V3115.83H1399.22L1426 3089.05Z" fill="#EEF0E6"/>
<path d="M1426 3035.48V3062.27L1399.22 3089.05L1372.43 3115.83H1345.65L1426 3035.48Z" fill="#EEF0E6"/>
<path d="M1399.22 3008.7H1426L1345.65 3089.05L1318.87 3115.83V3089.05L1399.22 3008.7Z" fill="#EEF0E6"/>
<path d="M1533.13 3008.7H1426V3115.83H1533.13V3008.7Z" fill="#F3F0E2"/>
<path d="M1426 3008.7C1454.41 3008.7 1481.66 3019.99 1501.75 3040.08C1521.85 3060.17 1533.13 3087.42 1533.13 3115.83L1426 3008.7C1426 3037.11 1437.29 3064.36 1457.38 3084.45C1477.47 3104.54 1504.72 3115.83 1533.13 3115.83" fill="#9DAAA6"/>
<path d="M1747.43 2901.57H1533.13V3115.87H1747.43V2901.57Z" fill="#D3C997"/>
<path d="M1747.43 2901.57V3115.87H1533.13L1747.43 2901.57Z" fill="#93A19D"/>
<path d="M1961.74 2901.57H1747.43V3115.87H1961.74V2901.57Z" fill="#E4DEC0"/>
<path d="M1747.43 3115.87C1747.43 3059.03 1770.01 3004.52 1810.2 2964.33C1850.39 2924.14 1904.9 2901.57 1961.74 2901.57L1747.43 3115.87C1804.27 3115.87 1858.78 3093.29 1898.97 3053.1C1939.16 3012.91 1961.74 2958.4 1961.74 2901.57" fill="#8E6A61"/>
<path d="M2176 2901.57H1961.71V3115.86H2176V2901.57Z" fill="white"/>
<path d="M2068.83 2901.57H1961.7V3008.7H2068.83V2901.57Z" fill="#5C281B"/>
<path d="M1961.7 2901.57C1961.7 2929.98 1972.99 2957.23 1993.08 2977.32C2013.17 2997.41 2040.42 3008.7 2068.83 3008.7V2901.57" fill="#E6E5E5"/>
<path d="M2176 2901.57H2068.87V3008.7H2176V2901.57Z" fill="#F9F7F0"/>
<path d="M2176 2901.57H2068.87V3008.7H2176V2901.57Z" fill="#EBEEE1"/>
<path d="M2068.83 3008.7H1961.7V3115.83H2068.83V3008.7Z" fill="#D7D6D5"/>
<path d="M1988.48 3008.7H2015.26L1988.48 3035.48L1961.7 3062.27V3035.48L1988.48 3008.7Z" fill="#302E26"/>
<path d="M2068.83 3089.05V3115.83H2042.05L2068.83 3089.05Z" fill="#302E26"/>
<path d="M2068.83 3035.48V3062.27L2042.05 3089.05L2015.26 3115.83H1988.48L2068.83 3035.48Z" fill="#302E26"/>
<path d="M2042.05 3008.7H2068.83L1988.48 3089.05L1961.7 3115.83V3089.05L2042.05 3008.7Z" fill="#302E26"/>
<path d="M2176 3008.7H2068.87V3115.83H2176V3008.7Z" fill="#7C8D88"/>
<path d="M2095.65 3008.7H2122.43L2095.65 3035.48L2068.87 3062.27V3035.48L2095.65 3008.7Z" fill="#F8F6EF"/>
<path d="M2176 3089.05V3115.83H2149.22L2176 3089.05Z" fill="#F8F6EF"/>
<path d="M2176 3035.48V3062.27L2149.22 3089.05L2122.43 3115.83H2095.65L2176 3035.48Z" fill="#F8F6EF"/>
<path d="M2149.22 3008.7H2176L2095.65 3089.05L2068.87 3115.83V3089.05L2149.22 3008.7Z" fill="#F8F6EF"/>
<path d="M890.302 3115.87H676V3330.17H890.302V3115.87Z" fill="#CCC188"/>
<path d="M783.151 3115.87L890.302 3223.02L783.151 3330.17L676 3223.02L783.151 3115.87Z" fill="#876157"/>
<path d="M1104.6 3115.87H890.302V3330.17H1104.6V3115.87Z" fill="#9DAB6F"/>
<path d="M997.453 3115.87L1104.6 3223.02L997.453 3330.17L890.302 3223.02L997.453 3115.87Z" fill="#E5E5E4"/>
<path d="M1318.87 3115.87H1104.57V3330.17H1318.87V3115.87Z" fill="#85974B"/>
<path d="M1318.87 3115.87H1104.57V3330.17H1318.87V3115.87Z" fill="#E6EADA"/>
<path d="M1533.14 3115.86H1318.86V3330.14H1533.14V3115.86Z" fill="white"/>
<path d="M1426 3115.87H1318.87V3223H1426V3115.87Z" fill="#91A05C"/>
<path d="M1318.87 3115.87H1426L1318.87 3223V3115.87Z" fill="#9A7A72"/>
<path d="M1533.13 3115.87H1426V3223H1533.13V3115.87Z" fill="#94A361"/>
<path d="M1533.13 3115.87V3223H1426L1533.13 3115.87Z" fill="#DFE3E2"/>
<path d="M1426 3223H1318.87V3330.13H1426V3223Z" fill="#64625C"/>
<path d="M1372.43 3223L1426 3276.57L1372.43 3330.13L1318.87 3276.57L1372.43 3223Z" fill="#C0ACA7"/>
<path d="M1533.13 3223H1426V3330.13H1533.13V3223Z" fill="#B59E98"/>
<path d="M1452.78 3223H1479.57L1452.78 3249.78L1426 3276.57V3249.78L1452.78 3223Z" fill="#516861"/>
<path d="M1533.13 3303.35V3330.13H1506.35L1533.13 3303.35Z" fill="#516861"/>
<path d="M1533.13 3249.78V3276.57L1506.35 3303.35L1479.57 3330.13H1452.78L1533.13 3249.78Z" fill="#516861"/>
<path d="M1506.35 3223H1533.13L1452.78 3303.35L1426 3330.13V3303.35L1506.35 3223Z" fill="#516861"/>
<path d="M1747.43 3115.86H1533.14V3330.14H1747.43V3115.86Z" fill="white"/>
<path d="M1640.26 3115.87H1533.13V3223H1640.26V3115.87Z" fill="#93928E"/>
<path d="M1559.91 3115.87H1586.7L1559.91 3142.65L1533.13 3169.43V3142.65L1559.91 3115.87Z" fill="#F0F2E9"/>
<path d="M1640.26 3196.22V3223H1613.48L1640.26 3196.22Z" fill="#F0F2E9"/>
<path d="M1640.26 3142.65V3169.43L1613.48 3196.22L1586.7 3223H1559.92L1640.26 3142.65Z" fill="#F0F2E9"/>
<path d="M1613.48 3115.87H1640.26L1559.91 3196.22L1533.13 3223V3196.22L1613.48 3115.87Z" fill="#F0F2E9"/>
<path d="M1747.43 3115.87H1640.3V3223H1747.43V3115.87Z" fill="#E3E7E6"/>
<path d="M1667.08 3115.87H1693.87L1667.08 3142.65L1640.3 3169.43V3142.65L1667.08 3115.87Z" fill="#F2EFE0"/>
<path d="M1747.43 3196.22V3223H1720.65L1747.43 3196.22Z" fill="#F2EFE0"/>
<path d="M1747.43 3142.65V3169.43L1720.65 3196.22L1693.87 3223H1667.08L1747.43 3142.65Z" fill="#F2EFE0"/>
<path d="M1720.65 3115.87H1747.43L1667.08 3196.22L1640.3 3223V3196.22L1720.65 3115.87Z" fill="#F2EFE0"/>
<path d="M1640.26 3223H1533.13V3330.13H1640.26V3223Z" fill="#FBFCFC"/>
<path d="M1533.13 3223C1561.55 3223 1588.79 3234.29 1608.89 3254.38C1628.98 3274.47 1640.26 3301.72 1640.26 3330.13L1533.13 3223C1533.13 3251.41 1544.42 3278.66 1564.51 3298.75C1584.6 3318.85 1611.85 3330.13 1640.26 3330.13" fill="#EBEEE1"/>
<path d="M1747.43 3223H1640.3V3330.13H1747.43V3223Z" fill="#F2EFE0"/>
<path d="M1667.08 3223H1693.87L1667.08 3249.78L1640.3 3276.57V3249.78L1667.08 3223Z" fill="#D2C4C0"/>
<path d="M1747.43 3303.35V3330.13H1720.65L1747.43 3303.35Z" fill="#D2C4C0"/>
<path d="M1747.43 3249.78V3276.57L1720.65 3303.35L1693.87 3330.13H1667.08L1747.43 3249.78Z" fill="#D2C4C0"/>
<path d="M1720.65 3223H1747.43L1667.08 3303.35L1640.3 3330.13V3303.35L1720.65 3223Z" fill="#D2C4C0"/>
<path d="M1961.74 3115.87H1747.43V3330.17H1961.74V3115.87Z" fill="#6D6C66"/>
<path d="M1747.43 3115.87C1804.27 3115.87 1858.78 3138.45 1898.97 3178.63C1939.16 3218.82 1961.74 3273.33 1961.74 3330.17L1747.43 3115.87C1747.43 3172.7 1770.01 3227.21 1810.2 3267.4C1850.39 3307.59 1904.9 3330.17 1961.74 3330.17" fill="#D8CFA3"/>
<path d="M2176 3115.86H1961.71V3330.14H2176V3115.86Z" fill="white"/>
<path d="M2068.83 3115.87H1961.7V3223H2068.83V3115.87Z" fill="#6A6863"/>
<path d="M1961.7 3223C1961.7 3194.59 1972.99 3167.34 1993.08 3147.25C2013.17 3127.15 2040.42 3115.87 2068.83 3115.87L1961.7 3223C1990.11 3223 2017.36 3211.71 2037.45 3191.62C2057.54 3171.53 2068.83 3144.28 2068.83 3115.87" fill="#BAC499"/>
<path d="M2176 3115.87H2068.87V3223H2176V3115.87Z" fill="#C3CCA7"/>
<path d="M2122.43 3115.87L2176 3169.43L2122.43 3223L2068.87 3169.43L2122.43 3115.87Z" fill="#886258"/>
<path d="M2068.83 3223H1961.7V3330.13H2068.83V3223Z" fill="#ADB8B4"/>
<path d="M2015.26 3223L2068.83 3276.57L2015.26 3330.13L1961.7 3276.57L2015.26 3223Z" fill="#D9DEDD"/>
<path d="M2176 3223H2068.87V3330.13H2176V3223Z" fill="#D3C998"/>
<path d="M2068.87 3330.13C2068.87 3301.72 2080.16 3274.47 2100.25 3254.38C2120.34 3234.29 2147.59 3223 2176 3223L2068.87 3330.13C2097.28 3330.13 2124.53 3318.85 2144.62 3298.75C2164.71 3278.66 2176 3251.41 2176 3223" fill="#D2D2D0"/>
<path d="M890.302 3330.13H676V3544.43H890.302V3330.13Z" fill="#E8E1DF"/>
<path d="M676 3330.13H890.302V3544.43L676 3330.13Z" fill="#714338"/>
<path d="M1104.57 3330.14H890.286V3544.43H1104.57V3330.14Z" fill="white"/>
<path d="M997.434 3330.13H890.302V3437.27H997.434V3330.13Z" fill="#FDFDFB"/>
<path d="M997.434 3330.13H890.302V3437.27H997.434V3330.13Z" fill="#794F44"/>
<path d="M1104.57 3330.13H997.434V3437.27H1104.57V3330.13Z" fill="#B8C297"/>
<path d="M1104.57 3330.13H997.434V3437.27H1104.57V3330.13Z" fill="#26231B"/>
<path d="M997.434 3437.3H890.302V3544.43H997.434V3437.3Z" fill="#81594E"/>
<path d="M890.302 3437.3C890.302 3465.71 901.589 3492.96 921.68 3513.05C941.771 3533.15 969.021 3544.43 997.434 3544.43V3437.3" fill="#CED5B6"/>
<path d="M1104.57 3437.3H997.434V3544.43H1104.57V3437.3Z" fill="#2D4940"/>
<path d="M1024.22 3437.3H1051L1024.22 3464.08L997.434 3490.87V3464.08L1024.22 3437.3Z" fill="#A6A5A1"/>
<path d="M1104.57 3517.65V3544.43H1077.78L1104.57 3517.65Z" fill="#A6A5A1"/>
<path d="M1104.57 3464.08V3490.87L1077.78 3517.65L1051 3544.43H1024.22L1104.57 3464.08Z" fill="#A6A5A1"/>
<path d="M1077.78 3437.3H1104.57L1024.22 3517.65L997.434 3544.43V3517.65L1077.78 3437.3Z" fill="#A6A5A1"/>
<path d="M1318.87 3330.13H1104.57V3544.43H1318.87V3330.13Z" fill="#A68982"/>
<path d="M1318.87 3330.13H1104.57V3544.43H1318.87V3330.13Z" fill="#8D685F"/>
<path d="M1533.17 3330.13H1318.87V3544.43H1533.17V3330.13Z" fill="#C1AEA9"/>
<path d="M1318.87 3544.43C1318.87 3487.6 1341.45 3433.09 1381.64 3392.9C1421.83 3352.71 1476.33 3330.13 1533.17 3330.13L1318.87 3544.43C1375.7 3544.43 1430.21 3521.86 1470.4 3481.67C1510.59 3441.48 1533.17 3386.97 1533.17 3330.13" fill="#889A51"/>
<path d="M1747.43 3330.13H1533.13V3544.43H1747.43V3330.13Z" fill="#C5B877"/>
<path d="M1640.28 3330.13L1747.43 3437.28L1640.28 3544.43L1533.13 3437.28L1640.28 3330.13Z" fill="#E2E2E1"/>
<path d="M1961.74 3330.13H1747.43V3544.43H1961.74V3330.13Z" fill="#9B7B73"/>
<path d="M1747.43 3330.13C1804.27 3330.13 1858.78 3352.71 1898.97 3392.9C1939.16 3433.09 1961.74 3487.6 1961.74 3544.43L1747.43 3330.13C1747.43 3386.97 1770.01 3441.48 1810.2 3481.67C1850.39 3521.86 1904.9 3544.43 1961.74 3544.43" fill="#E6DEDC"/>
<path d="M2176 3330.13H1961.7V3544.43H2176V3330.13Z" fill="#D9D0A6"/>
<path d="M1961.7 3330.13H2176V3544.43L1961.7 3330.13Z" fill="#F6F7F7"/>
<path d="M890.286 3544.43H676V3758.71H890.286V3544.43Z" fill="white"/>
<path d="M783.132 3544.43H676V3651.57H783.132V3544.43Z" fill="#AEBA88"/>
<path d="M676 3544.43C704.413 3544.43 731.663 3555.72 751.754 3575.81C771.845 3595.9 783.132 3623.15 783.132 3651.57L676 3544.43C676 3572.85 687.287 3600.1 707.378 3620.19C727.469 3640.28 754.719 3651.57 783.132 3651.57" fill="#602D20"/>
<path d="M890.264 3544.43H783.132V3651.57H890.264V3544.43Z" fill="#9E7F77"/>
<path d="M783.132 3651.57C783.132 3623.15 794.419 3595.9 814.51 3575.81C834.601 3555.72 861.851 3544.43 890.264 3544.43L783.132 3651.57C811.545 3651.57 838.795 3640.28 858.886 3620.19C878.977 3600.1 890.264 3572.85 890.264 3544.43" fill="#71847E"/>
<path d="M783.132 3651.57H676V3758.7H783.132V3651.57Z" fill="#B8A859"/>
<path d="M676 3651.57C704.413 3651.57 731.663 3662.85 751.754 3682.94C771.845 3703.04 783.132 3730.29 783.132 3758.7L676 3651.57C676 3679.98 687.287 3707.23 707.378 3727.32C727.469 3747.41 754.719 3758.7 783.132 3758.7" fill="#F4F5EF"/>
<path d="M890.264 3651.57H783.132V3758.7H890.264V3651.57Z" fill="#D9D0A5"/>
<path d="M783.132 3651.57C811.545 3651.57 838.795 3662.85 858.886 3682.94C878.977 3703.04 890.264 3730.29 890.264 3758.7L783.132 3651.57C783.132 3679.98 794.419 3707.23 814.51 3727.32C834.601 3747.41 861.851 3758.7 890.264 3758.7" fill="#50190A"/>
<path d="M1104.6 3544.43H890.302V3758.74H1104.6V3544.43Z" fill="#D8CFA2"/>
<path d="M890.302 3758.74C947.138 3758.74 1001.65 3736.16 1041.84 3695.97C1082.03 3655.78 1104.6 3601.27 1104.6 3544.43H890.302" fill="#A3867E"/>
<path d="M1318.87 3544.43H1104.57V3758.74H1318.87V3544.43Z" fill="#B0BC8B"/>
<path d="M1104.57 3544.43H1318.87V3758.74L1104.57 3544.43Z" fill="#B6A655"/>
<path d="M1533.17 3544.43H1318.87V3758.74H1533.17V3544.43Z" fill="#7D7C77"/>
<path d="M1426.02 3544.43L1533.17 3651.58L1426.02 3758.74L1318.87 3651.58L1426.02 3544.43Z" fill="#3C564D"/>
<path d="M1747.43 3544.43H1533.14V3758.71H1747.43V3544.43Z" fill="white"/>
<path d="M1640.26 3544.43H1533.13V3651.57H1640.26V3544.43Z" fill="#D9D1A6"/>
<path d="M1533.13 3544.43H1640.26V3651.57L1533.13 3544.43Z" fill="#E4DEC0"/>
<path d="M1747.43 3544.43H1640.3V3651.57H1747.43V3544.43Z" fill="#A4B0AC"/>
<path d="M1693.87 3544.43L1747.43 3598L1693.87 3651.57L1640.3 3598L1693.87 3544.43Z" fill="#ECE6E5"/>
<path d="M1640.26 3651.57H1533.13V3758.7H1640.26V3651.57Z" fill="#D8D8D6"/>
<path d="M1533.13 3758.7C1533.13 3730.29 1544.42 3703.04 1564.51 3682.94C1584.6 3662.85 1611.85 3651.57 1640.26 3651.57L1533.13 3758.7C1561.55 3758.7 1588.79 3747.41 1608.89 3727.32C1628.98 3707.23 1640.26 3679.98 1640.26 3651.57" fill="#F4F1F0"/>
<path d="M1747.43 3651.57H1640.3V3758.7H1747.43V3651.57Z" fill="#120F06"/>
<path d="M1747.43 3651.57H1640.3V3758.7H1747.43V3651.57Z" fill="#D8DDDC"/>
<path d="M1961.74 3544.43H1747.43V3758.74H1961.74V3544.43Z" fill="#F1EEDE"/>
<path d="M1854.58 3544.43L1961.74 3651.58L1854.58 3758.74L1747.43 3651.58L1854.58 3544.43Z" fill="#DDDDDB"/>
<path d="M2176 3544.43H1961.7V3758.74H2176V3544.43Z" fill="#A08179"/>
<path d="M2015.27 3544.43H2068.85L2015.27 3598.01L1961.7 3651.58V3598.01L2015.27 3544.43Z" fill="#E4DBD9"/>
<path d="M2176 3705.16V3758.74H2122.42L2176 3705.16Z" fill="#E4DBD9"/>
<path d="M2176 3598.01V3651.59L2122.42 3705.16L2068.85 3758.74H2015.27L2176 3598.01Z" fill="#E4DBD9"/>
<path d="M2122.42 3544.43H2176L2015.27 3705.16L1961.7 3758.74V3705.16L2122.42 3544.43Z" fill="#E4DBD9"/>
<path d="M890.302 3758.7H676V3973H890.302V3758.7Z" fill="#0E0B02"/>
<path d="M676 3758.7C732.836 3758.7 787.345 3781.28 827.534 3821.47C867.724 3861.66 890.302 3916.16 890.302 3973L676 3758.7C676 3815.54 698.578 3870.04 738.768 3910.23C778.957 3950.42 833.465 3973 890.302 3973" fill="#C5CDAA"/>
<path d="M1104.6 3758.7H890.302V3973H1104.6V3758.7Z" fill="#BEB067"/>
<path d="M1104.6 3758.7H890.302V3973H1104.6V3758.7Z" fill="#5A2618"/>
<path d="M1318.87 3758.7H1104.57V3973H1318.87V3758.7Z" fill="#96756C"/>
<path d="M1318.87 3758.7H1104.57V3973H1318.87V3758.7Z" fill="#E5E8D8"/>
<path d="M1533.17 3758.7H1318.87V3973H1533.17V3758.7Z" fill="#CDBDB9"/>
<path d="M1533.17 3758.7H1318.87V3973H1533.17V3758.7Z" fill="#26231B"/>
<path d="M1747.43 3758.71H1533.14V3973H1747.43V3758.71Z" fill="white"/>
<path d="M1640.26 3758.7H1533.13V3865.83H1640.26V3758.7Z" fill="#D8CFA4"/>
<path d="M1640.26 3758.7V3865.83H1533.13L1640.26 3758.7Z" fill="#16130B"/>
<path d="M1747.43 3758.7H1640.3V3865.83H1747.43V3758.7Z" fill="#B49C96"/>
<path d="M1640.3 3758.7H1747.43L1640.3 3865.83V3758.7Z" fill="#C4CDA8"/>
<path d="M1640.26 3865.87H1533.13V3973H1640.26V3865.87Z" fill="#3F5850"/>
<path d="M1559.91 3865.87H1586.7L1559.91 3892.65L1533.13 3919.43V3892.65L1559.91 3865.87Z" fill="#DCD4AD"/>
<path d="M1640.26 3946.22V3973H1613.48L1640.26 3946.22Z" fill="#DCD4AD"/>
<path d="M1640.26 3892.65V3919.43L1613.48 3946.22L1586.7 3973H1559.92L1640.26 3892.65Z" fill="#DCD4AD"/>
<path d="M1613.48 3865.87H1640.26L1559.91 3946.22L1533.13 3973V3946.22L1613.48 3865.87Z" fill="#DCD4AD"/>
<path d="M1747.43 3865.87H1640.3V3973H1747.43V3865.87Z" fill="#602E21"/>
<path d="M1640.3 3865.87H1747.43V3973L1640.3 3865.87Z" fill="#72857F"/>
<path d="M1961.74 3758.7H1747.43V3973H1961.74V3758.7Z" fill="#67372A"/>
<path d="M1961.74 3758.7H1747.43V3973H1961.74V3758.7Z" fill="#CDC28A"/>
<path d="M2176 3758.7H1961.7V3973H2176V3758.7Z" fill="#7E8F8A"/>
<path d="M2068.85 3758.7L2176 3865.85L2068.85 3973L1961.7 3865.85L2068.85 3758.7Z" fill="#221F17"/>
</g>
<defs>
<clipPath id="clip0_888_12675">
<rect width="1500" height="3000" fill="white" transform="translate(676 973)"/>
</clipPath>
</defs>
</svg>
