<svg width="2847" height="4351" viewBox="0 0 2847 4351" fill="none" xmlns="http://www.w3.org/2000/svg">
<path d="M1251.67 89.3223H1591.46C1592.02 89.3223 1592.46 89.77 1592.46 90.3223V217.496H2739.2C2739.75 217.496 2740.2 217.943 2740.2 218.496V573.827C2740.2 574.379 2739.75 574.827 2739.2 574.827H2582.89C2582.89 3217.02 2740.09 3217.91 2740.2 4234.5C2740.2 4235.05 2739.75 4235.53 2739.2 4235.53H113.645C113.092 4235.53 112.645 4235.06 112.645 4234.5C112.759 3202.37 285.484 3191.8 285.484 574.827H113.645C113.092 574.827 112.645 574.379 112.645 573.827V218.496C112.645 217.943 113.092 217.496 113.645 217.496H1250.67V90.3223C1250.67 89.77 1251.12 89.3223 1251.67 89.3223Z" fill="#D2AC83"/>
<path d="M1250.67 217.496V90.3223C1250.67 89.77 1251.12 89.3223 1251.67 89.3223H1591.46C1592.02 89.3223 1592.46 89.77 1592.46 90.3223V217.496M1250.67 217.496H113.645C113.092 217.496 112.645 217.943 112.645 218.496V573.827C112.645 574.379 113.092 574.827 113.645 574.827H285.484M1250.67 217.496V574.827M565.135 574.827H285.484M675.83 574.827H737.975M848.67 574.827H1250.67M1250.67 574.827V773.855C1250.67 774.407 1251.12 774.855 1251.67 774.855H1591.46C1592.02 774.855 1592.46 774.407 1592.46 773.855V574.827M1592.46 574.827V217.496M1592.46 574.827H2582.89M1592.46 217.496H2739.2C2739.75 217.496 2740.2 217.943 2740.2 218.496V573.827C2740.2 574.379 2739.75 574.827 2739.2 574.827H2582.89M2085.5 1758V1213C2085.5 1212.45 2085.05 1212 2084.5 1212H771C770.448 1212 770 1212.45 770 1213V3829C770 3829.55 770.448 3830 771 3830H2084.5C2085.05 3830 2085.5 3829.55 2085.5 3829V1954M285.484 574.827C285.484 3191.8 112.759 3202.37 112.645 4234.5C112.645 4235.06 113.092 4235.53 113.645 4235.53H2739.2C2739.75 4235.53 2740.2 4235.05 2740.2 4234.5C2740.09 3217.91 2582.89 3217.02 2582.89 574.827" stroke="black" stroke-width="20"/>
<g clip-path="url(#clip0_888_12675)">
<rect width="1300" height="2600" transform="translate(776 1219)" fill="#D2AC83"/>
<path d="M2076 1219H776V3819H2076V1219Z" fill="white"/>
<path d="M961.714 1219H776V1404.71H961.714V1219Z" fill="white"/>
<path d="M868.848 1219H776V1311.85H868.848V1219Z" fill="#704337"/>
<path d="M822.424 1219L868.848 1265.42L822.424 1311.85L776 1265.42L822.424 1219Z" fill="#2A2820"/>
<path d="M961.696 1219H868.848V1311.85H961.696V1219Z" fill="#E8EBDD"/>
<path d="M868.848 1219H961.696L868.848 1311.85V1219Z" fill="#E9E4CC"/>
<path d="M868.848 1311.85H776V1404.7H868.848V1311.85Z" fill="#DED6B1"/>
<path d="M776 1404.7C776 1380.07 785.782 1356.45 803.195 1339.04C820.607 1321.63 844.223 1311.85 868.848 1311.85L776 1404.7C800.625 1404.7 824.241 1394.91 841.653 1377.5C859.066 1360.09 868.848 1336.47 868.848 1311.85" fill="#817F7B"/>
<path d="M961.696 1311.85H868.848V1404.7H961.696V1311.85Z" fill="#551F11"/>
<path d="M868.848 1404.7C893.472 1404.7 917.089 1394.91 934.501 1377.5C951.913 1360.09 961.696 1336.47 961.696 1311.85H868.848" fill="#4A625A"/>
<path d="M1147.46 1219H961.729V1404.73H1147.46V1219Z" fill="#B4BF91"/>
<path d="M1008.16 1219H1054.59L1008.16 1265.43L961.729 1311.86V1265.43L1008.16 1219Z" fill="#B9A95B"/>
<path d="M1147.46 1358.3V1404.73H1101.02L1147.46 1358.3Z" fill="#B9A95B"/>
<path d="M1147.46 1265.43V1311.86L1101.02 1358.3L1054.59 1404.73H1008.16L1147.46 1265.43Z" fill="#B9A95B"/>
<path d="M1101.02 1219H1147.46L1008.16 1358.3L961.729 1404.73V1358.3L1101.02 1219Z" fill="#B9A95B"/>
<path d="M1333.15 1219H1147.42V1404.73H1333.15V1219Z" fill="#9EAC70"/>
<path d="M1193.86 1219H1240.29L1193.86 1265.43L1147.42 1311.86V1265.43L1193.86 1219Z" fill="#D9DEC7"/>
<path d="M1333.15 1358.3V1404.73H1286.72L1333.15 1358.3Z" fill="#D9DEC7"/>
<path d="M1333.15 1265.43V1311.86L1286.72 1358.3L1240.29 1404.73H1193.86L1333.15 1265.43Z" fill="#D9DEC7"/>
<path d="M1286.72 1219H1333.15L1193.86 1358.3L1147.42 1404.73V1358.3L1286.72 1219Z" fill="#D9DEC7"/>
<path d="M1518.86 1219H1333.14V1404.71H1518.86V1219Z" fill="white"/>
<path d="M1426 1219H1333.15V1311.85H1426V1219Z" fill="#798B85"/>
<path d="M1333.15 1219C1333.15 1243.62 1342.93 1267.24 1360.35 1284.65C1377.76 1302.07 1401.38 1311.85 1426 1311.85V1219" fill="#3F5950"/>
<path d="M1518.85 1219H1426V1311.85H1518.85V1219Z" fill="#90A05C"/>
<path d="M1472.42 1219L1518.85 1265.42L1472.42 1311.85L1426 1265.42L1472.42 1219Z" fill="#5E2B1E"/>
<path d="M1426 1311.85H1333.15V1404.7H1426V1311.85Z" fill="#ECECEB"/>
<path d="M1333.15 1404.7C1333.15 1380.07 1342.93 1356.45 1360.35 1339.04C1377.76 1321.63 1401.38 1311.85 1426 1311.85L1333.15 1404.7C1357.78 1404.7 1381.39 1394.91 1398.81 1377.5C1416.22 1360.09 1426 1336.47 1426 1311.85" fill="#908E8A"/>
<path d="M1518.85 1311.85H1426V1404.7H1518.85V1311.85Z" fill="#A6B37C"/>
<path d="M1518.85 1311.85V1404.7H1426L1518.85 1311.85Z" fill="#521B0C"/>
<path d="M1704.57 1219H1518.86V1404.71H1704.57V1219Z" fill="white"/>
<path d="M1611.7 1219H1518.85V1311.85H1611.7V1219Z" fill="#DBD0CD"/>
<path d="M1565.27 1219L1611.7 1265.42L1565.27 1311.85L1518.85 1265.42L1565.27 1219Z" fill="#403E37"/>
<path d="M1704.58 1219H1611.73V1311.85H1704.58V1219Z" fill="#95A462"/>
<path d="M1658.15 1219L1704.58 1265.42L1658.15 1311.85L1611.73 1265.42L1658.15 1219Z" fill="#D5D4D3"/>
<path d="M1611.7 1311.85H1518.85V1404.7H1611.7V1311.85Z" fill="#1B180F"/>
<path d="M1518.85 1311.85C1543.47 1311.85 1567.09 1321.63 1584.5 1339.04C1601.91 1356.45 1611.7 1380.07 1611.7 1404.7L1518.85 1311.85C1518.85 1336.47 1528.63 1360.09 1546.04 1377.5C1563.45 1394.91 1587.07 1404.7 1611.7 1404.7" fill="#EBE6D0"/>
<path d="M1704.58 1311.85H1611.73V1404.7H1704.58V1311.85Z" fill="#413F38"/>
<path d="M1704.58 1311.85V1404.7H1611.73L1704.58 1311.85Z" fill="#D5C8C5"/>
<path d="M1890.29 1219H1704.57V1404.71H1890.29V1219Z" fill="white"/>
<path d="M1797.42 1219H1704.58V1311.85H1797.42V1219Z" fill="#D7CEA0"/>
<path d="M1704.58 1219C1729.2 1219 1752.82 1228.78 1770.23 1246.19C1787.64 1263.61 1797.42 1287.22 1797.42 1311.85L1704.58 1219C1704.58 1243.62 1714.36 1267.24 1731.77 1284.65C1749.18 1302.07 1772.8 1311.85 1797.42 1311.85" fill="#B1BC8C"/>
<path d="M1890.27 1219H1797.42V1311.85H1890.27V1219Z" fill="#93A360"/>
<path d="M1797.42 1311.85C1797.42 1287.22 1807.21 1263.61 1824.62 1246.19C1842.03 1228.78 1865.65 1219 1890.27 1219L1797.42 1311.85C1822.05 1311.85 1845.66 1302.07 1863.08 1284.65C1880.49 1267.24 1890.27 1243.62 1890.27 1219" fill="#546A63"/>
<path d="M1797.42 1311.85H1704.58V1404.7H1797.42V1311.85Z" fill="#8D9E58"/>
<path d="M1704.58 1311.85C1729.2 1311.85 1752.82 1321.63 1770.23 1339.04C1787.64 1356.45 1797.42 1380.07 1797.42 1404.7L1704.58 1311.85C1704.58 1336.47 1714.36 1360.09 1731.77 1377.5C1749.18 1394.91 1772.8 1404.7 1797.42 1404.7" fill="#CFD6D4"/>
<path d="M1890.27 1311.85H1797.42V1404.7H1890.27V1311.85Z" fill="#C9D0CD"/>
<path d="M1843.85 1311.85L1890.27 1358.27L1843.85 1404.7L1797.42 1358.27L1843.85 1311.85Z" fill="#F1EDDD"/>
<path d="M2076 1219H1890.27V1404.73H2076V1219Z" fill="#D9DEDD"/>
<path d="M1983.14 1219L2076 1311.86L1983.14 1404.73L1890.27 1311.86L1983.14 1219Z" fill="#5F746D"/>
<path d="M961.728 1404.73H776V1590.46H961.728V1404.73Z" fill="#714438"/>
<path d="M822.432 1404.73H868.864L822.432 1451.16L776 1497.59V1451.16L822.432 1404.73Z" fill="#72847E"/>
<path d="M961.728 1544.03V1590.46H915.296L961.728 1544.03Z" fill="#72847E"/>
<path d="M961.728 1451.16V1497.59L915.296 1544.02L868.864 1590.46H822.432L961.728 1451.16Z" fill="#72847E"/>
<path d="M915.296 1404.73H961.728L822.432 1544.03L776 1590.46V1544.03L915.296 1404.73Z" fill="#72847E"/>
<path d="M1147.46 1404.73H961.729V1590.46H1147.46V1404.73Z" fill="#2F4B42"/>
<path d="M1008.16 1404.73H1054.59L1008.16 1451.16L961.729 1497.59V1451.16L1008.16 1404.73Z" fill="#F8F6F6"/>
<path d="M1147.46 1544.03V1590.46H1101.02L1147.46 1544.03Z" fill="#F8F6F6"/>
<path d="M1147.46 1451.16V1497.59L1101.02 1544.02L1054.59 1590.46H1008.16L1147.46 1451.16Z" fill="#F8F6F6"/>
<path d="M1101.02 1404.73H1147.46L1008.16 1544.03L961.729 1590.46V1544.03L1101.02 1404.73Z" fill="#F8F6F6"/>
<path d="M1333.15 1404.73H1147.42V1590.46H1333.15V1404.73Z" fill="#CDD3D1"/>
<path d="M1240.29 1404.73L1333.15 1497.59L1240.29 1590.46L1147.42 1497.59L1240.29 1404.73Z" fill="#BEC79F"/>
<path d="M1518.88 1404.73H1333.15V1590.46H1518.88V1404.73Z" fill="#556C64"/>
<path d="M1333.15 1404.73C1333.15 1453.99 1352.72 1501.23 1387.55 1536.06C1422.38 1570.89 1469.62 1590.46 1518.88 1590.46V1404.73" fill="#8F9E99"/>
<path d="M1704.58 1404.73H1518.85V1590.46H1704.58V1404.73Z" fill="#D1C794"/>
<path d="M1611.71 1404.73L1704.58 1497.59L1611.71 1590.46L1518.85 1497.59L1611.71 1404.73Z" fill="#937067"/>
<path d="M1890.3 1404.73H1704.58V1590.46H1890.3V1404.73Z" fill="#F3F5ED"/>
<path d="M1751.01 1404.73H1797.44L1751.01 1451.16L1704.58 1497.59V1451.16L1751.01 1404.73Z" fill="#9F8179"/>
<path d="M1890.3 1544.03V1590.46H1843.87L1890.3 1544.03Z" fill="#9F8179"/>
<path d="M1890.3 1451.16V1497.59L1843.87 1544.02L1797.44 1590.46H1751.01L1890.3 1451.16Z" fill="#9F8179"/>
<path d="M1843.87 1404.73H1890.3L1751.01 1544.03L1704.58 1590.46V1544.03L1843.87 1404.73Z" fill="#9F8179"/>
<path d="M2076 1404.73H1890.27V1590.46H2076V1404.73Z" fill="#899A51"/>
<path d="M1936.7 1404.73H1983.14L1936.7 1451.16L1890.27 1497.59V1451.16L1936.7 1404.73Z" fill="#DBE0DF"/>
<path d="M2076 1544.03V1590.46H2029.57L2076 1544.03Z" fill="#DBE0DF"/>
<path d="M2076 1451.16V1497.59L2029.57 1544.02L1983.14 1590.46H1936.7L2076 1451.16Z" fill="#DBE0DF"/>
<path d="M2029.57 1404.73H2076L1936.7 1544.03L1890.27 1590.46V1544.03L2029.57 1404.73Z" fill="#DBE0DF"/>
<path d="M961.728 1590.42H776V1776.15H961.728V1590.42Z" fill="#C1C9C7"/>
<path d="M868.864 1590.42L961.728 1683.29L868.864 1776.15L776 1683.29L868.864 1590.42Z" fill="#D3C997"/>
<path d="M1147.46 1590.42H961.729V1776.15H1147.46V1590.42Z" fill="#D8D0A4"/>
<path d="M1008.16 1590.42H1054.59L1008.16 1636.86L961.729 1683.29V1636.86L1008.16 1590.42Z" fill="#475F57"/>
<path d="M1147.46 1729.72V1776.15H1101.02L1147.46 1729.72Z" fill="#475F57"/>
<path d="M1147.46 1636.86V1683.29L1101.02 1729.72L1054.59 1776.15H1008.16L1147.46 1636.86Z" fill="#475F57"/>
<path d="M1101.02 1590.42H1147.46L1008.16 1729.72L961.729 1776.15V1729.72L1101.02 1590.42Z" fill="#475F57"/>
<path d="M1333.15 1590.42H1147.42V1776.15H1333.15V1590.42Z" fill="#8D8B87"/>
<path d="M1147.42 1590.42C1147.42 1639.68 1166.99 1686.92 1201.82 1721.75C1236.65 1756.58 1283.89 1776.15 1333.15 1776.15V1590.42" fill="#F9F7F6"/>
<path d="M1518.88 1590.42H1333.15V1776.15H1518.88V1590.42Z" fill="#FDFDFD"/>
<path d="M1518.88 1590.42H1333.15V1776.15H1518.88V1590.42Z" fill="#F4F5EF"/>
<path d="M1704.58 1590.42H1518.85V1776.15H1704.58V1590.42Z" fill="#35322B"/>
<path d="M1565.28 1590.42H1611.71L1565.28 1636.86L1518.85 1683.29V1636.86L1565.28 1590.42Z" fill="#AD928C"/>
<path d="M1704.58 1729.72V1776.15H1658.14L1704.58 1729.72Z" fill="#AD928C"/>
<path d="M1704.58 1636.86V1683.29L1658.14 1729.72L1611.71 1776.15H1565.28L1704.58 1636.86Z" fill="#AD928C"/>
<path d="M1658.14 1590.42H1704.58L1565.28 1729.72L1518.85 1776.15V1729.72L1658.14 1590.42Z" fill="#AD928C"/>
<path d="M1890.3 1590.42H1704.58V1776.15H1890.3V1590.42Z" fill="#8B9A95"/>
<path d="M1751.01 1590.42H1797.44L1751.01 1636.86L1704.58 1683.29V1636.86L1751.01 1590.42Z" fill="#7C7A75"/>
<path d="M1890.3 1729.72V1776.15H1843.87L1890.3 1729.72Z" fill="#7C7A75"/>
<path d="M1890.3 1636.86V1683.29L1843.87 1729.72L1797.44 1776.15H1751.01L1890.3 1636.86Z" fill="#7C7A75"/>
<path d="M1843.87 1590.42H1890.3L1751.01 1729.72L1704.58 1776.15V1729.72L1843.87 1590.42Z" fill="#7C7A75"/>
<path d="M2076 1590.42H1890.27V1776.15H2076V1590.42Z" fill="#909F9A"/>
<path d="M2076 1590.42H1890.27V1776.15H2076V1590.42Z" fill="#B7A756"/>
<path d="M961.728 1776.15H776V1961.88H961.728V1776.15Z" fill="#DED7B3"/>
<path d="M776 1961.88C776 1912.62 795.568 1865.38 830.399 1830.55C865.229 1795.72 912.47 1776.15 961.728 1776.15V1961.88" fill="#D7DCC3"/>
<path d="M1147.46 1776.15H961.729V1961.88H1147.46V1776.15Z" fill="#B2BD8E"/>
<path d="M961.729 1776.15H1147.46L961.729 1961.88V1776.15Z" fill="#8A9B53"/>
<path d="M1333.14 1776.14H1147.43V1961.86H1333.14V1776.14Z" fill="white"/>
<path d="M1240.27 1776.15H1147.42V1869H1240.27V1776.15Z" fill="#34322A"/>
<path d="M1170.64 1776.15H1193.85L1170.64 1799.36L1147.42 1822.58V1799.36L1170.64 1776.15Z" fill="#623023"/>
<path d="M1240.27 1845.79V1869H1217.06L1240.27 1845.79Z" fill="#623023"/>
<path d="M1240.27 1799.37V1822.58L1217.06 1845.79L1193.85 1869H1170.64L1240.27 1799.37Z" fill="#623023"/>
<path d="M1217.06 1776.15H1240.27L1170.64 1845.79L1147.42 1869V1845.79L1217.06 1776.15Z" fill="#623023"/>
<path d="M1333.12 1776.15H1240.27V1869H1333.12V1776.15Z" fill="#9F8179"/>
<path d="M1240.27 1776.15C1264.9 1776.15 1288.51 1785.93 1305.92 1803.35C1323.34 1820.76 1333.12 1844.38 1333.12 1869L1240.27 1776.15C1240.27 1800.78 1250.05 1824.39 1267.47 1841.81C1284.88 1859.22 1308.49 1869 1333.12 1869" fill="#4B1203"/>
<path d="M1240.27 1869H1147.42V1961.85H1240.27V1869Z" fill="#B8A859"/>
<path d="M1170.64 1869H1193.85L1170.64 1892.21L1147.42 1915.42V1892.21L1170.64 1869Z" fill="#91A09B"/>
<path d="M1240.27 1938.64V1961.85H1217.06L1240.27 1938.64Z" fill="#91A09B"/>
<path d="M1240.27 1892.21V1915.42L1217.06 1938.64L1193.85 1961.85H1170.64L1240.27 1892.21Z" fill="#91A09B"/>
<path d="M1217.06 1869H1240.27L1170.64 1938.64L1147.42 1961.85V1938.64L1217.06 1869Z" fill="#91A09B"/>
<path d="M1333.12 1869H1240.27V1961.85H1333.12V1869Z" fill="#F1F3EA"/>
<path d="M1240.27 1869C1264.9 1869 1288.51 1878.78 1305.92 1896.19C1323.34 1913.61 1333.12 1937.22 1333.12 1961.85H1240.27" fill="#EFEBD8"/>
<path d="M1518.86 1776.14H1333.14V1961.86H1518.86V1776.14Z" fill="white"/>
<path d="M1426 1776.15H1333.15V1869H1426V1776.15Z" fill="#A2AEAA"/>
<path d="M1426 1776.15H1333.15V1869H1426V1776.15Z" fill="#E2E6D4"/>
<path d="M1518.85 1776.15H1426V1869H1518.85V1776.15Z" fill="#FCFCF9"/>
<path d="M1426 1869C1426 1844.38 1435.78 1820.76 1453.19 1803.35C1470.61 1785.93 1494.22 1776.15 1518.85 1776.15L1426 1869C1450.62 1869 1474.24 1859.22 1491.65 1841.81C1509.07 1824.39 1518.85 1800.78 1518.85 1776.15" fill="#4A625A"/>
<path d="M1426 1869H1333.15V1961.85H1426V1869Z" fill="#FCFCF9"/>
<path d="M1333.15 1961.85C1357.78 1961.85 1381.39 1952.07 1398.81 1934.65C1416.22 1917.24 1426 1893.62 1426 1869H1333.15" fill="#B9A95A"/>
<path d="M1518.85 1869H1426V1961.85H1518.85V1869Z" fill="#3B554D"/>
<path d="M1426 1961.85C1426 1937.22 1435.78 1913.61 1453.19 1896.19C1470.61 1878.78 1494.22 1869 1518.85 1869V1961.85" fill="#E2E6E5"/>
<path d="M1704.58 1776.15H1518.85V1961.88H1704.58V1776.15Z" fill="#F9F8F1"/>
<path d="M1518.85 1776.15C1543.24 1776.15 1567.39 1780.96 1589.92 1790.29C1612.46 1799.62 1632.93 1813.3 1650.18 1830.55C1667.42 1847.8 1681.1 1868.27 1690.44 1890.81C1699.77 1913.34 1704.58 1937.49 1704.58 1961.88L1518.85 1776.15C1518.85 1825.41 1538.42 1872.65 1573.25 1907.48C1608.08 1942.31 1655.32 1961.88 1704.58 1961.88" fill="#8D9E58"/>
<path d="M1890.3 1776.15H1704.58V1961.88H1890.3V1776.15Z" fill="#D8D7D6"/>
<path d="M1797.44 1776.15L1890.3 1869.02L1797.44 1961.88L1704.58 1869.02L1797.44 1776.15Z" fill="#D9D0A6"/>
<path d="M2076 1776.15H1890.27V1961.88H2076V1776.15Z" fill="#B1BBB8"/>
<path d="M1936.7 1776.15H1983.14L1936.7 1822.58L1890.27 1869.02V1822.58L1936.7 1776.15Z" fill="#F5F6F0"/>
<path d="M2076 1915.45V1961.88H2029.57L2076 1915.45Z" fill="#F5F6F0"/>
<path d="M2076 1822.58V1869.02L2029.57 1915.45L1983.14 1961.88H1936.7L2076 1822.58Z" fill="#F5F6F0"/>
<path d="M2029.57 1776.15H2076L1936.7 1915.45L1890.27 1961.88V1915.45L2029.57 1776.15Z" fill="#F5F6F0"/>
<path d="M961.728 1961.85H776V2147.58H961.728V1961.85Z" fill="#D1C793"/>
<path d="M776 2147.58C776 2098.32 795.568 2051.08 830.399 2016.25C865.229 1981.42 912.47 1961.85 961.728 1961.85L776 2147.58C800.39 2147.58 824.542 2142.77 847.075 2133.44C869.609 2124.1 890.083 2110.42 907.33 2093.18C924.576 2075.93 938.257 2055.46 947.59 2032.92C956.924 2010.39 961.728 1986.24 961.728 1961.85" fill="#FBFBF9"/>
<path d="M1147.46 1961.85H961.729V2147.58H1147.46V1961.85Z" fill="#F2F4EC"/>
<path d="M961.729 1961.85C961.729 1986.24 966.533 2010.39 975.866 2032.92C985.2 2055.46 998.881 2075.93 1016.13 2093.18C1050.96 2128.01 1098.2 2147.58 1147.46 2147.58V1961.85" fill="#F9F7F0"/>
<path d="M1333.15 1961.85H1147.42V2147.58H1333.15V1961.85Z" fill="#582215"/>
<path d="M1147.42 2147.58C1147.42 2098.32 1166.99 2051.08 1201.82 2016.25C1236.65 1981.42 1283.89 1961.85 1333.15 1961.85L1147.42 2147.58C1171.81 2147.58 1195.97 2142.77 1218.5 2133.44C1241.03 2124.1 1261.51 2110.42 1278.75 2093.18C1296 2075.93 1309.68 2055.46 1319.01 2032.92C1328.35 2010.39 1333.15 1986.24 1333.15 1961.85" fill="#BABAB7"/>
<path d="M1518.88 1961.85H1333.15V2147.58H1518.88V1961.85Z" fill="#80584D"/>
<path d="M1379.58 1961.85H1426.02L1379.58 2008.28L1333.15 2054.71V2008.28L1379.58 1961.85Z" fill="#9E9D99"/>
<path d="M1518.88 2101.14V2147.58H1472.45L1518.88 2101.14Z" fill="#9E9D99"/>
<path d="M1518.88 2008.28V2054.71L1472.45 2101.14L1426.02 2147.58H1379.58L1518.88 2008.28Z" fill="#9E9D99"/>
<path d="M1472.45 1961.85H1518.88L1379.58 2101.15L1333.15 2147.58V2101.15L1472.45 1961.85Z" fill="#9E9D99"/>
<path d="M1704.58 1961.85H1518.85V2147.58H1704.58V1961.85Z" fill="#242119"/>
<path d="M1565.28 1961.85H1611.71L1565.28 2008.28L1518.85 2054.71V2008.28L1565.28 1961.85Z" fill="#667A74"/>
<path d="M1704.58 2101.14V2147.58H1658.14L1704.58 2101.14Z" fill="#667A74"/>
<path d="M1704.58 2008.28V2054.71L1658.14 2101.14L1611.71 2147.58H1565.28L1704.58 2008.28Z" fill="#667A74"/>
<path d="M1658.14 1961.85H1704.58L1565.28 2101.15L1518.85 2147.58V2101.15L1658.14 1961.85Z" fill="#667A74"/>
<path d="M1890.3 1961.85H1704.58V2147.58H1890.3V1961.85Z" fill="#F2F2F1"/>
<path d="M1890.3 1961.85V2147.58H1704.58L1890.3 1961.85Z" fill="#C6CECB"/>
<path d="M2076 1961.85H1890.27V2147.58H2076V1961.85Z" fill="#7B8C87"/>
<path d="M1890.27 1961.85H2076V2147.58L1890.27 1961.85Z" fill="#3E584F"/>
<path d="M961.728 2147.58H776V2333.3H961.728V2147.58Z" fill="#18160D"/>
<path d="M776 2147.58C776 2196.83 795.568 2244.08 830.399 2278.91C865.229 2313.74 912.47 2333.3 961.728 2333.3V2147.58" fill="#304C43"/>
<path d="M1147.46 2147.58H961.729V2333.3H1147.46V2147.58Z" fill="#DDD5AE"/>
<path d="M1054.59 2147.58L1147.46 2240.44L1054.59 2333.3L961.729 2240.44L1054.59 2147.58Z" fill="#97A5A1"/>
<path d="M1333.15 2147.58H1147.42V2333.3H1333.15V2147.58Z" fill="#BBAC60"/>
<path d="M1147.42 2147.58L1333.15 2333.3H1147.42V2147.58Z" fill="#BAAB5E"/>
<path d="M1518.88 2147.58H1333.15V2333.3H1518.88V2147.58Z" fill="#9DAB6E"/>
<path d="M1333.15 2147.58C1333.15 2196.83 1352.72 2244.08 1387.55 2278.91C1422.38 2313.74 1469.62 2333.3 1518.88 2333.3V2147.58" fill="#A7B3AF"/>
<path d="M1704.57 2147.57H1518.86V2333.29H1704.57V2147.57Z" fill="white"/>
<path d="M1611.7 2147.58H1518.85V2240.42H1611.7V2147.58Z" fill="#4C645C"/>
<path d="M1542.06 2147.58H1565.27L1542.06 2170.79L1518.85 2194V2170.79L1542.06 2147.58Z" fill="#F0F0EF"/>
<path d="M1611.7 2217.21V2240.42H1588.48L1611.7 2217.21Z" fill="#F0F0EF"/>
<path d="M1611.7 2170.79V2194L1588.48 2217.21L1565.27 2240.42H1542.06L1611.7 2170.79Z" fill="#F0F0EF"/>
<path d="M1588.48 2147.58H1611.7L1542.06 2217.21L1518.85 2240.42V2217.21L1588.48 2147.58Z" fill="#F0F0EF"/>
<path d="M1704.58 2147.58H1611.73V2240.42H1704.58V2147.58Z" fill="#EFEBD9"/>
<path d="M1634.94 2147.58H1658.15L1634.94 2170.79L1611.73 2194V2170.79L1634.94 2147.58Z" fill="#D6D6D4"/>
<path d="M1704.58 2217.21V2240.42H1681.36L1704.58 2217.21Z" fill="#D6D6D4"/>
<path d="M1704.58 2170.79V2194L1681.36 2217.21L1658.15 2240.42H1634.94L1704.58 2170.79Z" fill="#D6D6D4"/>
<path d="M1681.36 2147.58H1704.58L1634.94 2217.21L1611.73 2240.42V2217.21L1681.36 2147.58Z" fill="#D6D6D4"/>
<path d="M1611.7 2240.42H1518.85V2333.27H1611.7V2240.42Z" fill="#B7C296"/>
<path d="M1611.7 2240.42H1518.85V2333.27H1611.7V2240.42Z" fill="#7C8E88"/>
<path d="M1704.58 2240.42H1611.73V2333.27H1704.58V2240.42Z" fill="#87984E"/>
<path d="M1611.73 2333.27C1636.35 2333.27 1659.97 2323.49 1677.38 2306.08C1694.79 2288.66 1704.58 2265.05 1704.58 2240.42H1611.73" fill="#D8CFA4"/>
<path d="M1890.3 2147.58H1704.58V2333.3H1890.3V2147.58Z" fill="#A98E86"/>
<path d="M1704.58 2147.58C1704.58 2196.83 1724.14 2244.08 1758.97 2278.91C1793.81 2313.74 1841.05 2333.3 1890.3 2333.3V2147.58" fill="#E3DDBE"/>
<path d="M2076 2147.58H1890.27V2333.3H2076V2147.58Z" fill="#B4A34E"/>
<path d="M1890.27 2147.58H2076L1890.27 2333.3V2147.58Z" fill="#C8D0AD"/>
<path d="M961.728 2333.27H776V2519H961.728V2333.27Z" fill="#F3F0E2"/>
<path d="M868.864 2333.27L961.728 2426.14L868.864 2519L776 2426.14L868.864 2333.27Z" fill="#F9F8F1"/>
<path d="M1147.46 2333.27H961.729V2519H1147.46V2333.27Z" fill="#CCC188"/>
<path d="M961.729 2519C961.729 2469.74 981.296 2422.5 1016.13 2387.67C1050.96 2352.84 1098.2 2333.27 1147.46 2333.27L961.729 2519C1010.99 2519 1058.23 2499.43 1093.06 2464.6C1127.89 2429.77 1147.46 2382.53 1147.46 2333.27" fill="#221F17"/>
<path d="M1333.15 2333.27H1147.42V2519H1333.15V2333.27Z" fill="#CEC38C"/>
<path d="M1333.15 2333.27H1147.42V2519H1333.15V2333.27Z" fill="#BAC49A"/>
<path d="M1518.88 2333.27H1333.15V2519H1518.88V2333.27Z" fill="#CEC38B"/>
<path d="M1333.15 2333.27C1382.41 2333.27 1429.65 2352.84 1464.48 2387.67C1499.31 2422.5 1518.88 2469.74 1518.88 2519L1333.15 2333.27C1333.15 2382.53 1352.72 2429.77 1387.55 2464.6C1422.38 2499.43 1469.62 2519 1518.88 2519" fill="#DCE1CC"/>
<path d="M1704.58 2333.27H1518.85V2519H1704.58V2333.27Z" fill="#879792"/>
<path d="M1518.85 2333.27H1704.58L1518.85 2519V2333.27Z" fill="#A88D85"/>
<path d="M1890.3 2333.27H1704.58V2519H1890.3V2333.27Z" fill="#EFEEEE"/>
<path d="M1704.58 2333.27C1753.83 2333.27 1801.08 2352.84 1835.91 2387.67C1870.74 2422.5 1890.3 2469.74 1890.3 2519L1704.58 2333.27C1704.58 2382.53 1724.14 2429.77 1758.97 2464.6C1793.81 2499.43 1841.05 2519 1890.3 2519" fill="#92A25F"/>
<path d="M2076 2333.27H1890.27V2519H2076V2333.27Z" fill="#E8EBEA"/>
<path d="M2076 2333.27H1890.27V2519H2076V2333.27Z" fill="#ADB886"/>
<path d="M961.728 2519H776V2704.73H961.728V2519Z" fill="#F4F0EF"/>
<path d="M776 2519C825.258 2519 872.499 2538.57 907.33 2573.4C942.16 2608.23 961.728 2655.47 961.728 2704.73L776 2519C776 2568.26 795.568 2615.5 830.399 2650.33C865.229 2685.16 912.47 2704.73 961.728 2704.73" fill="#87984E"/>
<path d="M1147.46 2519H961.729V2704.73H1147.46V2519Z" fill="#CBBF85"/>
<path d="M1147.46 2519H961.729V2704.73H1147.46V2519Z" fill="#E1E6D3"/>
<path d="M1333.15 2519H1147.42V2704.73H1333.15V2519Z" fill="#CCC188"/>
<path d="M1240.29 2519L1333.15 2611.86L1240.29 2704.73L1147.42 2611.86L1240.29 2519Z" fill="#FFFFFE"/>
<path d="M1518.88 2519H1333.15V2704.73H1518.88V2519Z" fill="#7A7974"/>
<path d="M1333.15 2519C1382.41 2519 1429.65 2538.57 1464.48 2573.4C1499.31 2608.23 1518.88 2655.47 1518.88 2704.73L1333.15 2519C1333.15 2568.26 1352.72 2615.5 1387.55 2650.33C1422.38 2685.16 1469.62 2704.73 1518.88 2704.73" fill="#BFB16A"/>
<path d="M1704.58 2519H1518.85V2704.73H1704.58V2519Z" fill="#BFABA6"/>
<path d="M1518.85 2519C1518.85 2568.26 1538.42 2615.5 1573.25 2650.33C1608.08 2685.16 1655.32 2704.73 1704.58 2704.73V2519" fill="#F1F1F1"/>
<path d="M1890.3 2519H1704.58V2704.73H1890.3V2519Z" fill="#5A2518"/>
<path d="M1704.58 2704.73C1704.58 2655.47 1724.14 2608.23 1758.97 2573.4C1793.81 2538.57 1841.05 2519 1890.3 2519L1704.58 2704.73C1753.83 2704.73 1801.08 2685.16 1835.91 2650.33C1870.74 2615.5 1890.3 2568.26 1890.3 2519" fill="#91A15D"/>
<path d="M2076 2519H1890.29V2704.71H2076V2519Z" fill="white"/>
<path d="M1983.12 2519H1890.27V2611.85H1983.12V2519Z" fill="#FAF9F4"/>
<path d="M1983.12 2519H1890.27V2611.85H1983.12V2519Z" fill="#7C7B76"/>
<path d="M2076 2519H1983.15V2611.85H2076V2519Z" fill="#889950"/>
<path d="M2076 2519H1983.15V2611.85H2076V2519Z" fill="#F1F3EB"/>
<path d="M1983.12 2611.85H1890.27V2704.7H1983.12V2611.85Z" fill="#8C675E"/>
<path d="M1890.27 2611.85C1914.9 2611.85 1938.51 2621.63 1955.92 2639.04C1973.34 2656.45 1983.12 2680.07 1983.12 2704.7L1890.27 2611.85C1890.27 2636.47 1900.05 2660.09 1917.47 2677.5C1934.88 2694.91 1958.49 2704.7 1983.12 2704.7" fill="#B3B2AF"/>
<path d="M2076 2611.85H1983.15V2704.7H2076V2611.85Z" fill="#4E1607"/>
<path d="M2076 2611.85H1983.15V2704.7H2076V2611.85Z" fill="#DBD3AA"/>
<path d="M961.728 2704.73H776V2890.46H961.728V2704.73Z" fill="#9B7B73"/>
<path d="M776 2704.73C825.258 2704.73 872.499 2724.3 907.33 2759.13C942.16 2793.96 961.728 2841.2 961.728 2890.46L776 2704.73C776 2729.12 780.804 2753.27 790.138 2775.8C799.471 2798.34 813.152 2818.81 830.399 2836.06C847.645 2853.3 868.119 2866.99 890.653 2876.32C913.187 2885.65 937.338 2890.46 961.728 2890.46" fill="#C6CDCB"/>
<path d="M1147.43 2704.71H961.714V2890.43H1147.43V2704.71Z" fill="white"/>
<path d="M1054.58 2704.73H961.729V2797.58H1054.58V2704.73Z" fill="#FDFDFD"/>
<path d="M961.729 2704.73C973.921 2704.73 985.995 2707.13 997.26 2711.8C1008.52 2716.46 1018.76 2723.3 1027.38 2731.92C1036 2740.54 1042.84 2750.78 1047.51 2762.05C1052.17 2773.31 1054.58 2785.38 1054.58 2797.58L961.729 2704.73C961.729 2729.35 971.511 2752.97 988.923 2770.38C1006.34 2787.79 1029.95 2797.58 1054.58 2797.58" fill="#2B473E"/>
<path d="M1147.42 2704.73H1054.58V2797.58H1147.42V2704.73Z" fill="#354F47"/>
<path d="M1147.42 2704.73V2797.58H1054.58L1147.42 2704.73Z" fill="#FAF9F9"/>
<path d="M1054.58 2797.58H961.729V2890.42H1054.58V2797.58Z" fill="#F8F7EF"/>
<path d="M984.94 2797.58H1008.15L984.94 2820.79L961.729 2844V2820.79L984.94 2797.58Z" fill="#E5DFC2"/>
<path d="M1054.58 2867.21V2890.42H1031.36L1054.58 2867.21Z" fill="#E5DFC2"/>
<path d="M1054.58 2820.79V2844L1031.36 2867.21L1008.15 2890.42H984.94L1054.58 2820.79Z" fill="#E5DFC2"/>
<path d="M1031.36 2797.58H1054.58L984.94 2867.21L961.729 2890.42V2867.21L1031.36 2797.58Z" fill="#E5DFC2"/>
<path d="M1147.42 2797.58H1054.58V2890.42H1147.42V2797.58Z" fill="#F3F0E2"/>
<path d="M1054.58 2797.58C1079.2 2797.58 1102.82 2807.36 1120.23 2824.77C1137.64 2842.18 1147.42 2865.8 1147.42 2890.42L1054.58 2797.58C1054.58 2822.2 1064.36 2845.82 1081.77 2863.23C1099.18 2880.64 1122.8 2890.42 1147.42 2890.42" fill="#D6CDA0"/>
<path d="M1333.15 2704.73H1147.42V2890.46H1333.15V2704.73Z" fill="#BEBEBB"/>
<path d="M1333.15 2704.73H1147.42V2890.46H1333.15V2704.73Z" fill="#582315"/>
<path d="M1518.88 2704.73H1333.15V2890.46H1518.88V2704.73Z" fill="#BCAD63"/>
<path d="M1426.02 2704.73L1518.88 2797.59L1426.02 2890.46L1333.15 2797.59L1426.02 2704.73Z" fill="#DDD3D0"/>
<path d="M1704.58 2704.73H1518.85V2890.46H1704.58V2704.73Z" fill="#ECEFE3"/>
<path d="M1611.71 2704.73L1704.58 2797.59L1611.71 2890.46L1518.85 2797.59L1611.71 2704.73Z" fill="#D7DDC4"/>
<path d="M1890.3 2704.73H1704.58V2890.46H1890.3V2704.73Z" fill="#2D4940"/>
<path d="M1704.58 2704.73C1753.83 2704.73 1801.08 2724.3 1835.91 2759.13C1870.74 2793.96 1890.3 2841.2 1890.3 2890.46H1704.58" fill="#C2B571"/>
<path d="M2076 2704.73H1890.27V2890.46H2076V2704.73Z" fill="#D2C896"/>
<path d="M1890.27 2890.46C1890.27 2841.2 1909.84 2793.96 1944.67 2759.13C1979.5 2724.3 2026.74 2704.73 2076 2704.73L1890.27 2890.46C1914.66 2890.46 1938.81 2885.65 1961.35 2876.32C1983.88 2866.99 2004.35 2853.3 2021.6 2836.06C2038.85 2818.81 2052.53 2798.34 2061.86 2775.8C2071.2 2753.27 2076 2729.12 2076 2704.73" fill="#EEEBD8"/>
<path d="M961.714 2890.43H776V3076.14H961.714V2890.43Z" fill="white"/>
<path d="M868.848 2890.42H776V2983.27H868.848V2890.42Z" fill="#95736A"/>
<path d="M776 2890.42H868.848V2983.27L776 2890.42Z" fill="#B8C1BE"/>
<path d="M961.696 2890.42H868.848V2983.27H961.696V2890.42Z" fill="#A5B27B"/>
<path d="M961.696 2890.42V2983.27H868.848L961.696 2890.42Z" fill="#2C2A22"/>
<path d="M868.848 2983.27H776V3076.12H868.848V2983.27Z" fill="#EFF1E7"/>
<path d="M799.212 2983.27H822.424L799.212 3006.48L776 3029.7V3006.48L799.212 2983.27Z" fill="#ECEFE3"/>
<path d="M868.848 3052.91V3076.12H845.636L868.848 3052.91Z" fill="#ECEFE3"/>
<path d="M868.848 3006.48V3029.7L845.636 3052.91L822.424 3076.12H799.212L868.848 3006.48Z" fill="#ECEFE3"/>
<path d="M845.636 2983.27H868.848L799.212 3052.91L776 3076.12V3052.91L845.636 2983.27Z" fill="#ECEFE3"/>
<path d="M961.696 2983.27H868.848V3076.12H961.696V2983.27Z" fill="#7E544A"/>
<path d="M868.848 2983.27C868.848 3007.9 878.63 3031.51 896.042 3048.92C913.455 3066.34 937.071 3076.12 961.696 3076.12V2983.27" fill="#D4C6C3"/>
<path d="M1147.46 2890.42H961.729V3076.15H1147.46V2890.42Z" fill="#94A29D"/>
<path d="M961.729 2890.42C961.729 2939.68 981.296 2986.92 1016.13 3021.75C1050.96 3056.58 1098.2 3076.15 1147.46 3076.15V2890.42" fill="#697D77"/>
<path d="M1333.15 2890.42H1147.42V3076.15H1333.15V2890.42Z" fill="#EEE9E7"/>
<path d="M1147.42 3076.15C1147.42 3026.89 1166.99 2979.65 1201.82 2944.82C1236.65 2909.99 1283.89 2890.42 1333.15 2890.42L1147.42 3076.15C1196.68 3076.15 1243.92 3056.58 1278.75 3021.75C1313.58 2986.92 1333.15 2939.68 1333.15 2890.42" fill="#667A73"/>
<path d="M1518.86 2890.43H1333.14V3076.14H1518.86V2890.43Z" fill="white"/>
<path d="M1426 2890.42H1333.15V2983.27H1426V2890.42Z" fill="#D1D7D5"/>
<path d="M1333.15 2890.42H1426L1333.15 2983.27V2890.42Z" fill="#F8F7EF"/>
<path d="M1518.85 2890.42H1426V2983.27H1518.85V2890.42Z" fill="#FAFAFA"/>
<path d="M1449.21 2890.42H1472.42L1449.21 2913.64L1426 2936.85V2913.64L1449.21 2890.42Z" fill="#E4DBD9"/>
<path d="M1518.85 2960.06V2983.27H1495.64L1518.85 2960.06Z" fill="#E4DBD9"/>
<path d="M1518.85 2913.64V2936.85L1495.64 2960.06L1472.42 2983.27H1449.21L1518.85 2913.64Z" fill="#E4DBD9"/>
<path d="M1495.64 2890.42H1518.85L1449.21 2960.06L1426 2983.27V2960.06L1495.64 2890.42Z" fill="#E4DBD9"/>
<path d="M1426 2983.27H1333.15V3076.12H1426V2983.27Z" fill="#C8CFCD"/>
<path d="M1356.36 2983.27H1379.58L1356.36 3006.48L1333.15 3029.7V3006.48L1356.36 2983.27Z" fill="#EEF0E6"/>
<path d="M1426 3052.91V3076.12H1402.79L1426 3052.91Z" fill="#EEF0E6"/>
<path d="M1426 3006.48V3029.7L1402.79 3052.91L1379.58 3076.12H1356.36L1426 3006.48Z" fill="#EEF0E6"/>
<path d="M1402.79 2983.27H1426L1356.36 3052.91L1333.15 3076.12V3052.91L1402.79 2983.27Z" fill="#EEF0E6"/>
<path d="M1518.85 2983.27H1426V3076.12H1518.85V2983.27Z" fill="#F3F0E2"/>
<path d="M1426 2983.27C1450.62 2983.27 1474.24 2993.05 1491.65 3010.47C1509.07 3027.88 1518.85 3051.49 1518.85 3076.12L1426 2983.27C1426 3007.9 1435.78 3031.51 1453.19 3048.92C1470.61 3066.34 1494.22 3076.12 1518.85 3076.12" fill="#9DAAA6"/>
<path d="M1704.58 2890.42H1518.85V3076.15H1704.58V2890.42Z" fill="#D3C997"/>
<path d="M1704.58 2890.42V3076.15H1518.85L1704.58 2890.42Z" fill="#93A19D"/>
<path d="M1890.3 2890.42H1704.58V3076.15H1890.3V2890.42Z" fill="#E4DEC0"/>
<path d="M1704.58 3076.15C1704.58 3026.89 1724.14 2979.65 1758.97 2944.82C1793.81 2909.99 1841.05 2890.42 1890.3 2890.42L1704.58 3076.15C1753.83 3076.15 1801.08 3056.58 1835.91 3021.75C1870.74 2986.92 1890.3 2939.68 1890.3 2890.42" fill="#8E6A61"/>
<path d="M2076 2890.43H1890.29V3076.14H2076V2890.43Z" fill="white"/>
<path d="M1983.12 2890.42H1890.27V2983.27H1983.12V2890.42Z" fill="#5C281B"/>
<path d="M1890.27 2890.42C1890.27 2915.05 1900.05 2938.66 1917.47 2956.08C1934.88 2973.49 1958.49 2983.27 1983.12 2983.27V2890.42" fill="#E6E5E5"/>
<path d="M2076 2890.42H1983.15V2983.27H2076V2890.42Z" fill="#F9F7F0"/>
<path d="M2076 2890.42H1983.15V2983.27H2076V2890.42Z" fill="#EBEEE1"/>
<path d="M1983.12 2983.27H1890.27V3076.12H1983.12V2983.27Z" fill="#D7D6D5"/>
<path d="M1913.48 2983.27H1936.7L1913.48 3006.48L1890.27 3029.7V3006.48L1913.48 2983.27Z" fill="#302E26"/>
<path d="M1983.12 3052.91V3076.12H1959.91L1983.12 3052.91Z" fill="#302E26"/>
<path d="M1983.12 3006.48V3029.7L1959.91 3052.91L1936.7 3076.12H1913.48L1983.12 3006.48Z" fill="#302E26"/>
<path d="M1959.91 2983.27H1983.12L1913.48 3052.91L1890.27 3076.12V3052.91L1959.91 2983.27Z" fill="#302E26"/>
<path d="M2076 2983.27H1983.15V3076.12H2076V2983.27Z" fill="#7C8D88"/>
<path d="M2006.36 2983.27H2029.58L2006.36 3006.48L1983.15 3029.7V3006.48L2006.36 2983.27Z" fill="#F8F6EF"/>
<path d="M2076 3052.91V3076.12H2052.79L2076 3052.91Z" fill="#F8F6EF"/>
<path d="M2076 3006.48V3029.7L2052.79 3052.91L2029.58 3076.12H2006.36L2076 3006.48Z" fill="#F8F6EF"/>
<path d="M2052.79 2983.27H2076L2006.36 3052.91L1983.15 3076.12V3052.91L2052.79 2983.27Z" fill="#F8F6EF"/>
<path d="M961.728 3076.15H776V3261.88H961.728V3076.15Z" fill="#CCC188"/>
<path d="M868.864 3076.15L961.728 3169.02L868.864 3261.88L776 3169.02L868.864 3076.15Z" fill="#876157"/>
<path d="M1147.46 3076.15H961.729V3261.88H1147.46V3076.15Z" fill="#9DAB6F"/>
<path d="M1054.59 3076.15L1147.46 3169.02L1054.59 3261.88L961.729 3169.02L1054.59 3076.15Z" fill="#E5E5E4"/>
<path d="M1333.15 3076.15H1147.42V3261.88H1333.15V3076.15Z" fill="#85974B"/>
<path d="M1333.15 3076.15H1147.42V3261.88H1333.15V3076.15Z" fill="#E6EADA"/>
<path d="M1518.86 3076.14H1333.14V3261.86H1518.86V3076.14Z" fill="white"/>
<path d="M1426 3076.15H1333.15V3169H1426V3076.15Z" fill="#91A05C"/>
<path d="M1333.15 3076.15H1426L1333.15 3169V3076.15Z" fill="#9A7A72"/>
<path d="M1518.85 3076.15H1426V3169H1518.85V3076.15Z" fill="#94A361"/>
<path d="M1518.85 3076.15V3169H1426L1518.85 3076.15Z" fill="#DFE3E2"/>
<path d="M1426 3169H1333.15V3261.85H1426V3169Z" fill="#64625C"/>
<path d="M1379.58 3169L1426 3215.42L1379.58 3261.85L1333.15 3215.42L1379.58 3169Z" fill="#C0ACA7"/>
<path d="M1518.85 3169H1426V3261.85H1518.85V3169Z" fill="#B59E98"/>
<path d="M1449.21 3169H1472.42L1449.21 3192.21L1426 3215.42V3192.21L1449.21 3169Z" fill="#516861"/>
<path d="M1518.85 3238.64V3261.85H1495.64L1518.85 3238.64Z" fill="#516861"/>
<path d="M1518.85 3192.21V3215.42L1495.64 3238.63L1472.42 3261.85H1449.21L1518.85 3192.21Z" fill="#516861"/>
<path d="M1495.64 3169H1518.85L1449.21 3238.64L1426 3261.85V3238.64L1495.64 3169Z" fill="#516861"/>
<path d="M1704.57 3076.14H1518.86V3261.86H1704.57V3076.14Z" fill="white"/>
<path d="M1611.7 3076.15H1518.85V3169H1611.7V3076.15Z" fill="#93928E"/>
<path d="M1542.06 3076.15H1565.27L1542.06 3099.36L1518.85 3122.58V3099.36L1542.06 3076.15Z" fill="#F0F2E9"/>
<path d="M1611.7 3145.79V3169H1588.48L1611.7 3145.79Z" fill="#F0F2E9"/>
<path d="M1611.7 3099.37V3122.58L1588.48 3145.79L1565.27 3169H1542.06L1611.7 3099.37Z" fill="#F0F2E9"/>
<path d="M1588.48 3076.15H1611.7L1542.06 3145.79L1518.85 3169V3145.79L1588.48 3076.15Z" fill="#F0F2E9"/>
<path d="M1704.58 3076.15H1611.73V3169H1704.58V3076.15Z" fill="#E3E7E6"/>
<path d="M1634.94 3076.15H1658.15L1634.94 3099.36L1611.73 3122.58V3099.36L1634.94 3076.15Z" fill="#F2EFE0"/>
<path d="M1704.58 3145.79V3169H1681.36L1704.58 3145.79Z" fill="#F2EFE0"/>
<path d="M1704.58 3099.37V3122.58L1681.36 3145.79L1658.15 3169H1634.94L1704.58 3099.37Z" fill="#F2EFE0"/>
<path d="M1681.36 3076.15H1704.58L1634.94 3145.79L1611.73 3169V3145.79L1681.36 3076.15Z" fill="#F2EFE0"/>
<path d="M1611.7 3169H1518.85V3261.85H1611.7V3169Z" fill="#FBFCFC"/>
<path d="M1518.85 3169C1543.47 3169 1567.09 3178.78 1584.5 3196.19C1601.91 3213.61 1611.7 3237.22 1611.7 3261.85L1518.85 3169C1518.85 3193.62 1528.63 3217.24 1546.04 3234.65C1563.45 3252.07 1587.07 3261.85 1611.7 3261.85" fill="#EBEEE1"/>
<path d="M1704.58 3169H1611.73V3261.85H1704.58V3169Z" fill="#F2EFE0"/>
<path d="M1634.94 3169H1658.15L1634.94 3192.21L1611.73 3215.42V3192.21L1634.94 3169Z" fill="#D2C4C0"/>
<path d="M1704.58 3238.64V3261.85H1681.36L1704.58 3238.64Z" fill="#D2C4C0"/>
<path d="M1704.58 3192.21V3215.42L1681.36 3238.63L1658.15 3261.85H1634.94L1704.58 3192.21Z" fill="#D2C4C0"/>
<path d="M1681.36 3169H1704.58L1634.94 3238.64L1611.73 3261.85V3238.64L1681.36 3169Z" fill="#D2C4C0"/>
<path d="M1890.3 3076.15H1704.58V3261.88H1890.3V3076.15Z" fill="#6D6C66"/>
<path d="M1704.58 3076.15C1753.83 3076.15 1801.08 3095.72 1835.91 3130.55C1870.74 3165.38 1890.3 3212.62 1890.3 3261.88L1704.58 3076.15C1704.58 3125.41 1724.14 3172.65 1758.97 3207.48C1793.81 3242.31 1841.05 3261.88 1890.3 3261.88" fill="#D8CFA3"/>
<path d="M2076 3076.14H1890.29V3261.86H2076V3076.14Z" fill="white"/>
<path d="M1983.12 3076.15H1890.27V3169H1983.12V3076.15Z" fill="#6A6863"/>
<path d="M1890.27 3169C1890.27 3144.38 1900.05 3120.76 1917.47 3103.35C1934.88 3085.93 1958.49 3076.15 1983.12 3076.15L1890.27 3169C1914.9 3169 1938.51 3159.22 1955.92 3141.81C1973.34 3124.39 1983.12 3100.78 1983.12 3076.15" fill="#BAC499"/>
<path d="M2076 3076.15H1983.15V3169H2076V3076.15Z" fill="#C3CCA7"/>
<path d="M2029.58 3076.15L2076 3122.58L2029.58 3169L1983.15 3122.58L2029.58 3076.15Z" fill="#886258"/>
<path d="M1983.12 3169H1890.27V3261.85H1983.12V3169Z" fill="#ADB8B4"/>
<path d="M1936.7 3169L1983.12 3215.42L1936.7 3261.85L1890.27 3215.42L1936.7 3169Z" fill="#D9DEDD"/>
<path d="M2076 3169H1983.15V3261.85H2076V3169Z" fill="#D3C998"/>
<path d="M1983.15 3261.85C1983.15 3237.22 1992.93 3213.61 2010.35 3196.19C2027.76 3178.78 2051.38 3169 2076 3169L1983.15 3261.85C2007.78 3261.85 2031.39 3252.07 2048.81 3234.65C2066.22 3217.24 2076 3193.62 2076 3169" fill="#D2D2D0"/>
<path d="M961.728 3261.85H776V3447.58H961.728V3261.85Z" fill="#E8E1DF"/>
<path d="M776 3261.85H961.728V3447.58L776 3261.85Z" fill="#714338"/>
<path d="M1147.43 3261.86H961.714V3447.57H1147.43V3261.86Z" fill="white"/>
<path d="M1054.58 3261.85H961.729V3354.7H1054.58V3261.85Z" fill="#FDFDFB"/>
<path d="M1054.58 3261.85H961.729V3354.7H1054.58V3261.85Z" fill="#794F44"/>
<path d="M1147.42 3261.85H1054.58V3354.7H1147.42V3261.85Z" fill="#B8C297"/>
<path d="M1147.42 3261.85H1054.58V3354.7H1147.42V3261.85Z" fill="#26231B"/>
<path d="M1054.58 3354.73H961.729V3447.58H1054.58V3354.73Z" fill="#81594E"/>
<path d="M961.729 3354.73C961.729 3379.35 971.511 3402.97 988.923 3420.38C1006.34 3437.79 1029.95 3447.58 1054.58 3447.58V3354.73" fill="#CED5B6"/>
<path d="M1147.42 3354.73H1054.58V3447.58H1147.42V3354.73Z" fill="#2D4940"/>
<path d="M1077.79 3354.73H1101L1077.79 3377.94L1054.58 3401.15V3377.94L1077.79 3354.73Z" fill="#A6A5A1"/>
<path d="M1147.42 3424.37V3447.58H1124.21L1147.42 3424.37Z" fill="#A6A5A1"/>
<path d="M1147.42 3377.94V3401.15L1124.21 3424.37L1101 3447.58H1077.79L1147.42 3377.94Z" fill="#A6A5A1"/>
<path d="M1124.21 3354.73H1147.42L1077.79 3424.37L1054.58 3447.58V3424.37L1124.21 3354.73Z" fill="#A6A5A1"/>
<path d="M1333.15 3261.85H1147.42V3447.58H1333.15V3261.85Z" fill="#A68982"/>
<path d="M1333.15 3261.85H1147.42V3447.58H1333.15V3261.85Z" fill="#8D685F"/>
<path d="M1518.88 3261.85H1333.15V3447.58H1518.88V3261.85Z" fill="#C1AEA9"/>
<path d="M1333.15 3447.58C1333.15 3398.32 1352.72 3351.08 1387.55 3316.25C1422.38 3281.42 1469.62 3261.85 1518.88 3261.85L1333.15 3447.58C1382.41 3447.58 1429.65 3428.01 1464.48 3393.18C1499.31 3358.35 1518.88 3311.11 1518.88 3261.85" fill="#889A51"/>
<path d="M1704.58 3261.85H1518.85V3447.58H1704.58V3261.85Z" fill="#C5B877"/>
<path d="M1611.71 3261.85L1704.58 3354.71L1611.71 3447.58L1518.85 3354.71L1611.71 3261.85Z" fill="#E2E2E1"/>
<path d="M1890.3 3261.85H1704.58V3447.58H1890.3V3261.85Z" fill="#9B7B73"/>
<path d="M1704.58 3261.85C1753.83 3261.85 1801.08 3281.42 1835.91 3316.25C1870.74 3351.08 1890.3 3398.32 1890.3 3447.58L1704.58 3261.85C1704.58 3311.11 1724.14 3358.35 1758.97 3393.18C1793.81 3428.01 1841.05 3447.58 1890.3 3447.58" fill="#E6DEDC"/>
<path d="M2076 3261.85H1890.27V3447.58H2076V3261.85Z" fill="#D9D0A6"/>
<path d="M1890.27 3261.85H2076V3447.58L1890.27 3261.85Z" fill="#F6F7F7"/>
<path d="M961.714 3447.57H776V3633.28H961.714V3447.57Z" fill="white"/>
<path d="M868.848 3447.58H776V3540.42H868.848V3447.58Z" fill="#AEBA88"/>
<path d="M776 3447.58C800.625 3447.58 824.241 3457.36 841.653 3474.77C859.066 3492.18 868.848 3515.8 868.848 3540.42L776 3447.58C776 3472.2 785.782 3495.82 803.195 3513.23C820.607 3530.64 844.223 3540.42 868.848 3540.42" fill="#602D20"/>
<path d="M961.696 3447.58H868.848V3540.42H961.696V3447.58Z" fill="#9E7F77"/>
<path d="M868.848 3540.42C868.848 3515.8 878.63 3492.18 896.042 3474.77C913.455 3457.36 937.071 3447.58 961.696 3447.58L868.848 3540.42C893.472 3540.42 917.089 3530.64 934.501 3513.23C951.913 3495.82 961.696 3472.2 961.696 3447.58" fill="#71847E"/>
<path d="M868.848 3540.42H776V3633.27H868.848V3540.42Z" fill="#B8A859"/>
<path d="M776 3540.42C800.625 3540.42 824.241 3550.21 841.653 3567.62C859.066 3585.03 868.848 3608.65 868.848 3633.27L776 3540.42C776 3565.05 785.782 3588.66 803.195 3606.08C820.607 3623.49 844.223 3633.27 868.848 3633.27" fill="#F4F5EF"/>
<path d="M961.696 3540.42H868.848V3633.27H961.696V3540.42Z" fill="#D9D0A5"/>
<path d="M868.848 3540.42C893.472 3540.42 917.089 3550.21 934.501 3567.62C951.913 3585.03 961.696 3608.65 961.696 3633.27L868.848 3540.42C868.848 3565.05 878.63 3588.66 896.042 3606.08C913.455 3623.49 937.071 3633.27 961.696 3633.27" fill="#50190A"/>
<path d="M1147.46 3447.58H961.729V3633.3H1147.46V3447.58Z" fill="#D8CFA2"/>
<path d="M961.729 3633.3C1010.99 3633.3 1058.23 3613.74 1093.06 3578.91C1127.89 3544.07 1147.46 3496.83 1147.46 3447.58H961.729" fill="#A3867E"/>
<path d="M1333.15 3447.58H1147.42V3633.3H1333.15V3447.58Z" fill="#B0BC8B"/>
<path d="M1147.42 3447.58H1333.15V3633.3L1147.42 3447.58Z" fill="#B6A655"/>
<path d="M1518.88 3447.58H1333.15V3633.3H1518.88V3447.58Z" fill="#7D7C77"/>
<path d="M1426.02 3447.58L1518.88 3540.44L1426.02 3633.3L1333.15 3540.44L1426.02 3447.58Z" fill="#3C564D"/>
<path d="M1704.57 3447.57H1518.86V3633.28H1704.57V3447.57Z" fill="white"/>
<path d="M1611.7 3447.58H1518.85V3540.42H1611.7V3447.58Z" fill="#D9D1A6"/>
<path d="M1518.85 3447.58H1611.7V3540.42L1518.85 3447.58Z" fill="#E4DEC0"/>
<path d="M1704.58 3447.58H1611.73V3540.42H1704.58V3447.58Z" fill="#A4B0AC"/>
<path d="M1658.15 3447.58L1704.58 3494L1658.15 3540.42L1611.73 3494L1658.15 3447.58Z" fill="#ECE6E5"/>
<path d="M1611.7 3540.42H1518.85V3633.27H1611.7V3540.42Z" fill="#D8D8D6"/>
<path d="M1518.85 3633.27C1518.85 3608.65 1528.63 3585.03 1546.04 3567.62C1563.45 3550.21 1587.07 3540.42 1611.7 3540.42L1518.85 3633.27C1543.47 3633.27 1567.09 3623.49 1584.5 3606.08C1601.91 3588.66 1611.7 3565.05 1611.7 3540.42" fill="#F4F1F0"/>
<path d="M1704.58 3540.42H1611.73V3633.27H1704.58V3540.42Z" fill="#120F06"/>
<path d="M1704.58 3540.42H1611.73V3633.27H1704.58V3540.42Z" fill="#D8DDDC"/>
<path d="M1890.3 3447.58H1704.58V3633.3H1890.3V3447.58Z" fill="#F1EEDE"/>
<path d="M1797.44 3447.58L1890.3 3540.44L1797.44 3633.3L1704.58 3540.44L1797.44 3447.58Z" fill="#DDDDDB"/>
<path d="M2076 3447.58H1890.27V3633.3H2076V3447.58Z" fill="#A08179"/>
<path d="M1936.7 3447.58H1983.14L1936.7 3494.01L1890.27 3540.44V3494.01L1936.7 3447.58Z" fill="#E4DBD9"/>
<path d="M2076 3586.87V3633.31H2029.57L2076 3586.87Z" fill="#E4DBD9"/>
<path d="M2076 3494.01V3540.44L2029.57 3586.87L1983.14 3633.3H1936.7L2076 3494.01Z" fill="#E4DBD9"/>
<path d="M2029.57 3447.58H2076L1936.7 3586.87L1890.27 3633.31V3586.87L2029.57 3447.58Z" fill="#E4DBD9"/>
<path d="M961.728 3633.27H776V3819H961.728V3633.27Z" fill="#0E0B02"/>
<path d="M776 3633.27C825.258 3633.27 872.499 3652.84 907.33 3687.67C942.16 3722.5 961.728 3769.74 961.728 3819L776 3633.27C776 3682.53 795.568 3729.77 830.399 3764.6C865.229 3799.43 912.47 3819 961.728 3819" fill="#C5CDAA"/>
<path d="M1147.46 3633.27H961.729V3819H1147.46V3633.27Z" fill="#BEB067"/>
<path d="M1147.46 3633.27H961.729V3819H1147.46V3633.27Z" fill="#5A2618"/>
<path d="M1333.15 3633.27H1147.42V3819H1333.15V3633.27Z" fill="#96756C"/>
<path d="M1333.15 3633.27H1147.42V3819H1333.15V3633.27Z" fill="#E5E8D8"/>
<path d="M1518.88 3633.27H1333.15V3819H1518.88V3633.27Z" fill="#CDBDB9"/>
<path d="M1518.88 3633.27H1333.15V3819H1518.88V3633.27Z" fill="#26231B"/>
<path d="M1704.57 3633.29H1518.86V3819H1704.57V3633.29Z" fill="white"/>
<path d="M1611.7 3633.27H1518.85V3726.12H1611.7V3633.27Z" fill="#D8CFA4"/>
<path d="M1611.7 3633.27V3726.12H1518.85L1611.7 3633.27Z" fill="#16130B"/>
<path d="M1704.58 3633.27H1611.73V3726.12H1704.58V3633.27Z" fill="#B49C96"/>
<path d="M1611.73 3633.27H1704.58L1611.73 3726.12V3633.27Z" fill="#C4CDA8"/>
<path d="M1611.7 3726.15H1518.85V3819H1611.7V3726.15Z" fill="#3F5850"/>
<path d="M1542.06 3726.15H1565.27L1542.06 3749.36L1518.85 3772.58V3749.36L1542.06 3726.15Z" fill="#DCD4AD"/>
<path d="M1611.7 3795.79V3819H1588.48L1611.7 3795.79Z" fill="#DCD4AD"/>
<path d="M1611.7 3749.37V3772.58L1588.48 3795.79L1565.27 3819H1542.06L1611.7 3749.37Z" fill="#DCD4AD"/>
<path d="M1588.48 3726.15H1611.7L1542.06 3795.79L1518.85 3819V3795.79L1588.48 3726.15Z" fill="#DCD4AD"/>
<path d="M1704.58 3726.15H1611.73V3819H1704.58V3726.15Z" fill="#602E21"/>
<path d="M1611.73 3726.15H1704.58V3819L1611.73 3726.15Z" fill="#72857F"/>
<path d="M1890.3 3633.27H1704.58V3819H1890.3V3633.27Z" fill="#67372A"/>
<path d="M1890.3 3633.27H1704.58V3819H1890.3V3633.27Z" fill="#CDC28A"/>
<path d="M2076 3633.27H1890.27V3819H2076V3633.27Z" fill="#7E8F8A"/>
<path d="M1983.14 3633.27L2076 3726.14L1983.14 3819L1890.27 3726.14L1983.14 3633.27Z" fill="#221F17"/>
</g>
<defs>
<clipPath id="clip0_888_12675">
<rect width="1300" height="2600" fill="white" transform="translate(776 1219)"/>
</clipPath>
</defs>
</svg>
