<?xml version="1.0" standalone="no"?><svg xmlns:xlink="http://www.w3.org/1999/xlink" xmlns="http://www.w3.org/2000/svg" viewBox="0 0 1000 666.6666666666666" preserveAspectRatio="xMaxYMax slice"><g transform="scale(0.970402717127608)"><rect x="0" y="0" width="1030.5" height="687" fill="#ffffff"/><rect x="0" y="0" width="68.7" height="68.7" fill="#ffffff"/><rect x="0" y="0" width="34.35" height="34.35" fill="#ddeaea"/><polygon points="0,0 34.35,34.35 0,34.35" fill="#f3ede4"/><rect x="34.35" y="0" width="34.35" height="34.35" fill="#172844"/><g transform="translate(34.35,0) scale(1.7175) rotate(0)"><path d="M13 0H20V7L7 20H0V13L13 0Z" fill="#c5cad0"/></g><rect x="0" y="34.35" width="34.35" height="34.35" fill="#f8f8f9"/><g transform="translate(0,34.35) scale(1.7175) rotate(0)"><path d="M10 0L20 10L10 20L0 10L10 0Z" fill="#fcfbf8"/></g><rect x="34.35" y="34.35" width="34.35" height="34.35" fill="#e9dfce"/><polygon points="34.35,34.35 68.7,34.35 34.35,68.7" fill="#a4b7be"/><rect x="68.7" y="0" width="68.7" height="68.7" fill="#6b7687"/><path d="M 68.7 0 A 68.7 68.7 0 0 1  137.4 68.7 L 68.7 0 A 68.7 68.7 0 0 0 137.4 68.7" fill="#d2ba8c"/><rect x="137.4" y="0" width="68.7" height="68.7" fill="#ffffff"/><rect x="137.4" y="0" width="34.35" height="34.35" fill="#ecedf0"/><g transform="translate(137.4,0) scale(1.7175) rotate(0)"><path d="M13 0H20V7L7 20H0V13L13 0Z" fill="#416775"/></g><rect x="171.75" y="0" width="34.35" height="34.35" fill="#fcfbf9"/><path d="M 171.75 34.35 A 34.35 34.35 0 0 1  206.1 0 L 171.75 34.35 A 34.35 34.35 0 0 0 206.1 0" fill="#e9decd"/><rect x="137.4" y="34.35" width="34.35" height="34.35" fill="#f2ece1"/><path d="M 137.4 34.35 A 34.35 34.35 0 0 1  171.75 68.7 L 137.4 34.35 A 34.35 34.35 0 0 0 171.75 68.7" fill="#587a86"/><rect x="171.75" y="34.35" width="34.35" height="34.35" fill="#fefdfc"/><path d="M 171.75 34.35 A 34.35 34.35 0 0 1  206.1 68.7 L 171.75 34.35 A 34.35 34.35 0 0 0 206.1 68.7" fill="#ece3d4"/><rect x="206.1" y="0" width="68.7" height="68.7" fill="#c6d1d6"/><rect x="206.1" y="0" width="68.7" height="68.7" fill="#c1d9d9"/><rect x="274.8" y="0" width="68.7" height="68.7" fill="#589998"/><path d="M 274.8 68.7 A 68.7 68.7 0 0 1  343.5 0 L 343.5 68.7" fill="#eceff1"/><rect x="343.5" y="0" width="68.7" height="68.7" fill="#ffffff"/><rect x="343.5" y="0" width="34.35" height="34.35" fill="#86b5b4"/><polygon points="343.5,0 377.85,34.35 343.5,34.35" fill="#96bfbf"/><rect x="377.85" y="0" width="34.35" height="34.35" fill="#fdfcfb"/><polygon points="377.85,0 412.20000000000005,34.35 377.85,34.35" fill="#476c7a"/><rect x="343.5" y="34.35" width="34.35" height="34.35" fill="#c0cdd1"/><path d="M 343.5 68.7 A 34.35 34.35 0 0 0 377.85 34.35 L 343.5 34.35" fill="#eef2f3"/><rect x="377.85" y="34.35" width="34.35" height="34.35" fill="#ced1d7"/><g transform="translate(377.85,34.35) scale(1.7175) rotate(0)"><path d="M13 0H20V7L7 20H0V13L13 0Z" fill="#ebe1d2"/></g><rect x="412.20000000000005" y="0" width="68.7" height="68.7" fill="#ffffff"/><rect x="412.2" y="0" width="34.35" height="34.35" fill="#a1c5c5"/><g transform="translate(412.2,0) scale(1.7175) rotate(0)"><path d="M13 0H20V7L7 20H0V13L13 0Z" fill="#f6f2ec"/></g><rect x="446.55" y="0" width="34.35" height="34.35" fill="#aebfc5"/><g transform="translate(446.55,0) scale(1.7175) rotate(0)"><path d="M13 0H20V7L7 20H0V13L13 0Z" fill="#efe7d7"/></g><rect x="412.2" y="34.35" width="34.35" height="34.35" fill="#acb2bc"/><polygon points="412.2,34.35 446.55,34.35 412.2,68.7" fill="#f6f7f8"/><rect x="446.55" y="34.35" width="34.35" height="34.35" fill="#f9f9fa"/><g transform="translate(446.55,34.35) scale(1.7175) rotate(0)"><path d="M13 0H20V7L7 20H0V13L13 0Z" fill="#678691"/></g><rect x="480.9" y="0" width="68.7" height="68.7" fill="#fdfcfa"/><g transform="translate(480.9,0) scale(3.435) rotate(0)"><path d="M13 0H20V7L7 20H0V13L13 0Z" fill="#f4eee2"/></g><rect x="549.6" y="0" width="68.7" height="68.7" fill="#ffffff"/><rect x="549.6" y="0" width="34.35" height="34.35" fill="#182945"/><rect x="549.6" y="0" width="34.35" height="34.35" fill="#8da4ad"/><rect x="583.95" y="0" width="34.35" height="34.35" fill="#f0e9da"/><g transform="translate(583.95,0) scale(1.7175) rotate(0)"><path d="M10 0L20 10L10 20L0 10L10 0Z" fill="#3c8887"/></g><rect x="549.6" y="34.35" width="34.35" height="34.35" fill="#46546a"/><g transform="translate(549.6,34.35) scale(1.7175) rotate(0)"><path d="M13 0H20V7L7 20H0V13L13 0Z" fill="#ebeff1"/></g><rect x="583.95" y="34.35" width="34.35" height="34.35" fill="#328281"/><g transform="translate(583.95,34.35) scale(1.7175) rotate(0)"><path d="M13 0H20V7L7 20H0V13L13 0Z" fill="#096968"/></g><rect x="618.3" y="0" width="68.7" height="68.7" fill="#dbc9a5"/><g transform="translate(618.3,0) scale(3.435) rotate(0)"><path d="M13 0H20V7L7 20H0V13L13 0Z" fill="#fcfaf7"/></g><rect x="687" y="0" width="68.7" height="68.7" fill="#fbfcfc"/><polygon points="687,0 755.7,0 755.7,68.7" fill="#a9cbca"/><rect x="755.7" y="0" width="68.7" height="68.7" fill="#f7f3ed"/><polygon points="755.7,0 824.4000000000001,0 755.7,68.7" fill="#ece3d4"/><rect x="824.4000000000001" y="0" width="68.7" height="68.7" fill="#ffffff"/><rect x="824.4" y="0" width="34.35" height="34.35" fill="#e4eeee"/><rect x="824.4" y="0" width="34.35" height="34.35" fill="#727d8e"/><rect x="858.75" y="0" width="34.35" height="34.35" fill="#d3bd90"/><path d="M 858.75 0 A 34.35 34.35 0 0 1  893.1 34.35 L 858.75 0 A 34.35 34.35 0 0 0 893.1 34.35" fill="#adcdcc"/><rect x="824.4" y="34.35" width="34.35" height="34.35" fill="#f6f2ec"/><polygon points="824.4,34.35 858.75,34.35 858.75,68.7" fill="#eae0cf"/><rect x="858.75" y="34.35" width="34.35" height="34.35" fill="#e1edec"/><polygon points="858.75,34.35 893.1,34.35 858.75,68.7" fill="#2e3e57"/><rect x="893.1" y="0" width="68.7" height="68.7" fill="#cbcfd5"/><g transform="translate(893.1,0) scale(3.435) rotate(0)"><path d="M10 0L20 10L10 20L0 10L10 0Z" fill="#47556b"/></g><rect x="961.8000000000001" y="0" width="68.7" height="68.7" fill="#ffffff"/><rect x="961.8" y="0" width="34.35" height="34.35" fill="#f7f2ea"/><path d="M 961.8 34.35 A 34.35 34.35 0 0 1  996.15 0 L 961.8 34.35 A 34.35 34.35 0 0 0 996.15 0" fill="#e1d2b3"/><rect x="996.15" y="0" width="34.35" height="34.35" fill="#cfb686"/><path d="M 996.15 0 A 34.35 34.35 0 0 1 1030.5 34.35 L 996.15 34.35" fill="#fcfaf8"/><rect x="961.8" y="34.35" width="34.35" height="34.35" fill="#0d6b6a"/><polygon points="961.8,34.35 996.15,68.7 961.8,68.7" fill="#eee6d9"/><rect x="996.15" y="34.35" width="34.35" height="34.35" fill="#556276"/><path d="M 996.15 34.35 A 34.35 34.35 0 0 1  1030.5 68.7 L 996.15 34.35 A 34.35 34.35 0 0 0 1030.5 68.7" fill="#046564"/><rect x="0" y="68.7" width="68.7" height="68.7" fill="#398685"/><path d="M 0 68.7 A 68.7 68.7 0 0 1  68.7 137.4 L 0 68.7 A 68.7 68.7 0 0 0 68.7 137.4" fill="#faf7f2"/><rect x="68.7" y="68.7" width="68.7" height="68.7" fill="#ffffff"/><rect x="68.7" y="68.7" width="34.35" height="34.35" fill="#6ca5a4"/><g transform="translate(68.7,68.7) scale(1.7175) rotate(0)"><path d="M13 0H20V7L7 20H0V13L13 0Z" fill="#1b2c47"/></g><rect x="103.05" y="68.7" width="34.35" height="34.35" fill="#ecf3f3"/><path d="M 103.05 103.05000000000001 A 34.35 34.35 0 0 1  137.4 68.7 L 103.05 103.05000000000001 A 34.35 34.35 0 0 0 137.4 68.7" fill="#3c4b62"/><rect x="68.7" y="103.05" width="34.35" height="34.35" fill="#ced8dc"/><g transform="translate(68.7,103.05) scale(1.7175) rotate(0)"><path d="M13 0H20V7L7 20H0V13L13 0Z" fill="#d1e3e2"/></g><rect x="103.05" y="103.05" width="34.35" height="34.35" fill="#c0d9d8"/><rect x="103.05" y="103.05" width="34.35" height="34.35" fill="#d4d7dc"/><rect x="137.4" y="68.7" width="68.7" height="68.7" fill="#567885"/><path d="M 137.4 68.7 A 68.7 68.7 0 0 0 206.10000000000002 137.4 L 206.10000000000002 68.7" fill="#505d72"/><rect x="206.10000000000002" y="68.7" width="68.7" height="68.7" fill="#ffffff"/><rect x="206.1" y="68.7" width="34.35" height="34.35" fill="#f9f6f1"/><path d="M 206.1 103.05000000000001 A 34.35 34.35 0 0 1  240.45 68.7 L 206.1 103.05000000000001 A 34.35 34.35 0 0 0 240.45 68.7" fill="#1e4b5c"/><rect x="240.45" y="68.7" width="34.35" height="34.35" fill="#06384b"/><path d="M 240.45 68.7 A 34.35 34.35 0 0 0 274.8 103.05000000000001 L 274.8 68.7" fill="#e6dac0"/><rect x="206.1" y="103.05" width="34.35" height="34.35" fill="#d3bd90"/><g transform="translate(206.1,103.05) scale(1.7175) rotate(0)"><path d="M10 0L20 10L10 20L0 10L10 0Z" fill="#f7f3ec"/></g><rect x="240.45" y="103.05" width="34.35" height="34.35" fill="#547683"/><path d="M 240.45 137.4 A 34.35 34.35 0 0 1  274.8 103.05 L 240.45 137.4 A 34.35 34.35 0 0 0 274.8 103.05" fill="#ede4d2"/><rect x="274.8" y="68.7" width="68.7" height="68.7" fill="#ffffff"/><rect x="274.8" y="68.7" width="34.35" height="34.35" fill="#b7bcc5"/><rect x="274.8" y="68.7" width="34.35" height="34.35" fill="#093b4d"/><rect x="309.15" y="68.7" width="34.35" height="34.35" fill="#f9f6f2"/><g transform="translate(309.15,68.7) scale(1.7175) rotate(0)"><path d="M13 0H20V7L7 20H0V13L13 0Z" fill="#eee7da"/></g><rect x="274.8" y="103.05" width="34.35" height="34.35" fill="#436977"/><path d="M 274.8 137.4 A 34.35 34.35 0 0 1  309.15000000000003 103.05 L 274.8 137.4 A 34.35 34.35 0 0 0 309.15000000000003 103.05" fill="#e5d7bc"/><rect x="309.15" y="103.05" width="34.35" height="34.35" fill="#e8edef"/><g transform="translate(309.15,103.05) scale(1.7175) rotate(0)"><path d="M13 0H20V7L7 20H0V13L13 0Z" fill="#e0e2e6"/></g><rect x="343.5" y="68.7" width="68.7" height="68.7" fill="#d6e6e6"/><path d="M 343.5 137.4 A 68.7 68.7 0 0 1  412.2 68.7 L 343.5 137.4 A 68.7 68.7 0 0 0 412.2 68.7" fill="#d5dde0"/><rect x="412.2" y="68.7" width="68.7" height="68.7" fill="#287c7b"/><g transform="translate(412.2,68.7) scale(3.435) rotate(0)"><path d="M13 0H20V7L7 20H0V13L13 0Z" fill="#9dc3c2"/></g><rect x="480.90000000000003" y="68.7" width="68.7" height="68.7" fill="#ffffff"/><rect x="480.9" y="68.7" width="34.35" height="34.35" fill="#426977"/><polygon points="480.9,68.7 515.25,68.7 515.25,103.05000000000001" fill="#e6d9bf"/><rect x="515.25" y="68.7" width="34.35" height="34.35" fill="#ebf3f3"/><g transform="translate(515.25,68.7) scale(1.7175) rotate(0)"><path d="M10 0L20 10L10 20L0 10L10 0Z" fill="#faf7f2"/></g><rect x="480.9" y="103.05" width="34.35" height="34.35" fill="#1c7473"/><g transform="translate(480.9,103.05) scale(1.7175) rotate(0)"><path d="M13 0H20V7L7 20H0V13L13 0Z" fill="#49566c"/></g><rect x="515.25" y="103.05" width="34.35" height="34.35" fill="#87909e"/><path d="M 515.25 103.05 A 34.35 34.35 0 0 1  549.6 137.4 L 515.25 103.05 A 34.35 34.35 0 0 0 549.6 137.4" fill="#4d5b70"/><rect x="549.6" y="68.7" width="68.7" height="68.7" fill="#fefdfc"/><rect x="549.6" y="68.7" width="68.7" height="68.7" fill="#1a2b46"/><rect x="618.3" y="68.7" width="68.7" height="68.7" fill="#ced8dc"/><polygon points="618.3,68.7 687,68.7 618.3,137.4" fill="#eee6d8"/><rect x="687" y="68.7" width="68.7" height="68.7" fill="#ffffff"/><rect x="687" y="68.7" width="34.35" height="34.35" fill="#f9f6f2"/><rect x="687" y="68.7" width="34.35" height="34.35" fill="#fefdfc"/><rect x="721.35" y="68.7" width="34.35" height="34.35" fill="#4a6e7c"/><rect x="721.35" y="68.7" width="34.35" height="34.35" fill="#f5f7f8"/><rect x="687" y="103.05" width="34.35" height="34.35" fill="#f1eadb"/><g transform="translate(687,103.05) scale(1.7175) rotate(0)"><path d="M10 0L20 10L10 20L0 10L10 0Z" fill="#faf7f3"/></g><rect x="721.35" y="103.05" width="34.35" height="34.35" fill="#aacbca"/><g transform="translate(721.35,103.05) scale(1.7175) rotate(0)"><path d="M10 0L20 10L10 20L0 10L10 0Z" fill="#3d8988"/></g><rect x="755.7" y="68.7" width="68.7" height="68.7" fill="#ffffff"/><rect x="755.7" y="68.7" width="34.35" height="34.35" fill="#eceef0"/><g transform="translate(755.7,68.7) scale(1.7175) rotate(0)"><path d="M10 0L20 10L10 20L0 10L10 0Z" fill="#dde4e6"/></g><rect x="790.05" y="68.7" width="34.35" height="34.35" fill="#f8fbfb"/><polygon points="790.05,68.7 824.4,103.05000000000001 790.05,103.05000000000001" fill="#eee6d9"/><rect x="755.7" y="103.05" width="34.35" height="34.35" fill="#accccc"/><rect x="755.7" y="103.05" width="34.35" height="34.35" fill="#e5eaec"/><rect x="790.05" y="103.05" width="34.35" height="34.35" fill="#fbf9f6"/><rect x="790.05" y="103.05" width="34.35" height="34.35" fill="#091c39"/><rect x="824.4" y="68.7" width="68.7" height="68.7" fill="#527582"/><g transform="translate(824.4,68.7) scale(3.435) rotate(0)"><path d="M10 0L20 10L10 20L0 10L10 0Z" fill="#ece2d3"/></g><rect x="893.1" y="68.7" width="68.7" height="68.7" fill="#ffffff"/><rect x="893.1" y="68.7" width="34.35" height="34.35" fill="#decdab"/><rect x="893.1" y="68.7" width="34.35" height="34.35" fill="#f9f6f1"/><rect x="927.45" y="68.7" width="34.35" height="34.35" fill="#c4c9d0"/><polygon points="927.45,68.7 961.8000000000001,103.05000000000001 927.45,103.05000000000001" fill="#fffefe"/><rect x="893.1" y="103.05" width="34.35" height="34.35" fill="#98adb5"/><g transform="translate(893.1,103.05) scale(1.7175) rotate(0)"><path d="M13 0H20V7L7 20H0V13L13 0Z" fill="#37465e"/></g><rect x="927.45" y="103.05" width="34.35" height="34.35" fill="#d6dfe2"/><g transform="translate(927.45,103.05) scale(1.7175) rotate(0)"><path d="M13 0H20V7L7 20H0V13L13 0Z" fill="#e8ddcc"/></g><rect x="961.8000000000001" y="68.7" width="68.7" height="68.7" fill="#ffffff"/><rect x="961.8" y="68.7" width="34.35" height="34.35" fill="#478f8e"/><g transform="translate(961.8,68.7) scale(1.7175) rotate(0)"><path d="M13 0H20V7L7 20H0V13L13 0Z" fill="#a2c6c6"/></g><rect x="996.15" y="68.7" width="34.35" height="34.35" fill="#eadfca"/><rect x="996.15" y="68.7" width="34.35" height="34.35" fill="#d5bf94"/><rect x="961.8" y="103.05" width="34.35" height="34.35" fill="#f1f6f6"/><polygon points="961.8,103.05 996.15,103.05 961.8,137.4" fill="#35455d"/><rect x="996.15" y="103.05" width="34.35" height="34.35" fill="#717c8c"/><polygon points="996.15,103.05 1030.5,103.05 1030.5,137.4" fill="#f4eee3"/><rect x="0" y="137.4" width="68.7" height="68.7" fill="#ffffff"/><rect x="0" y="137.4" width="34.35" height="34.35" fill="#b6c5cb"/><path d="M 0 171.75 A 34.35 34.35 0 0 0 34.35 137.4 L 0 137.4" fill="#f7f3ed"/><rect x="34.35" y="137.4" width="34.35" height="34.35" fill="#e9ddc7"/><g transform="translate(34.35,137.4) scale(1.7175) rotate(0)"><path d="M13 0H20V7L7 20H0V13L13 0Z" fill="#f6f2eb"/></g><rect x="0" y="171.75" width="34.35" height="34.35" fill="#a6b8bf"/><polygon points="34.35,171.75 34.35,206.1 0,206.1" fill="#071a38"/><rect x="34.35" y="171.75" width="34.35" height="34.35" fill="#0f4052"/><g transform="translate(34.35,171.75) scale(1.7175) rotate(0)"><path d="M10 0L20 10L10 20L0 10L10 0Z" fill="#dee0e4"/></g><rect x="68.7" y="137.4" width="68.7" height="68.7" fill="#ffffff"/><rect x="68.7" y="137.4" width="34.35" height="34.35" fill="#d8c49d"/><rect x="68.7" y="137.4" width="34.35" height="34.35" fill="#fdfcfb"/><rect x="103.05" y="137.4" width="34.35" height="34.35" fill="#a0a7b3"/><path d="M 103.05 171.75 A 34.35 34.35 0 0 1  137.4 137.4 L 103.05 171.75 A 34.35 34.35 0 0 0 137.4 137.4" fill="#eae0cb"/><rect x="68.7" y="171.75" width="34.35" height="34.35" fill="#629f9e"/><g transform="translate(68.7,171.75) scale(1.7175) rotate(0)"><path d="M13 0H20V7L7 20H0V13L13 0Z" fill="#668590"/></g><rect x="103.05" y="171.75" width="34.35" height="34.35" fill="#fdfcfb"/><g transform="translate(103.05,171.75) scale(1.7175) rotate(0)"><path d="M13 0H20V7L7 20H0V13L13 0Z" fill="#e8ddcc"/></g><rect x="137.4" y="137.4" width="68.7" height="68.7" fill="#ffffff"/><rect x="137.4" y="137.4" width="34.35" height="34.35" fill="#f5f6f7"/><g transform="translate(137.4,137.4) scale(1.7175) rotate(0)"><path d="M13 0H20V7L7 20H0V13L13 0Z" fill="#287c7b"/></g><rect x="171.75" y="137.4" width="34.35" height="34.35" fill="#fbf8f5"/><polygon points="171.75,137.4 206.1,171.75 171.75,171.75" fill="#ece3d5"/><rect x="137.4" y="171.75" width="34.35" height="34.35" fill="#507380"/><g transform="translate(137.4,171.75) scale(1.7175) rotate(0)"><path d="M10 0L20 10L10 20L0 10L10 0Z" fill="#dae1e4"/></g><rect x="171.75" y="171.75" width="34.35" height="34.35" fill="#fdfdfe"/><g transform="translate(171.75,171.75) scale(1.7175) rotate(0)"><path d="M10 0L20 10L10 20L0 10L10 0Z" fill="#194859"/></g><rect x="206.10000000000002" y="137.4" width="68.7" height="68.7" fill="#ffffff"/><rect x="206.1" y="137.4" width="34.35" height="34.35" fill="#fdfcfa"/><polygon points="206.1,137.4 240.45,171.75 206.1,171.75" fill="#d1b98a"/><rect x="240.45" y="137.4" width="34.35" height="34.35" fill="#e9dfce"/><path d="M 240.45 137.4 A 34.35 34.35 0 0 1  274.8 171.75 L 240.45 137.4 A 34.35 34.35 0 0 0 274.8 171.75" fill="#083a4c"/><rect x="206.1" y="171.75" width="34.35" height="34.35" fill="#a0c5c5"/><polygon points="206.1,171.75 240.45,206.1 206.1,206.1" fill="#f3f4f5"/><rect x="240.45" y="171.75" width="34.35" height="34.35" fill="#adcdcd"/><g transform="translate(240.45,171.75) scale(1.7175) rotate(0)"><path d="M13 0H20V7L7 20H0V13L13 0Z" fill="#94aab2"/></g><rect x="274.8" y="137.4" width="68.7" height="68.7" fill="#697486"/><g transform="translate(274.8,137.4) scale(3.435) rotate(0)"><path d="M10 0L20 10L10 20L0 10L10 0Z" fill="#e7dac1"/></g><rect x="343.5" y="137.4" width="68.7" height="68.7" fill="#136f6e"/><g transform="translate(343.5,137.4) scale(3.435) rotate(0)"><path d="M10 0L20 10L10 20L0 10L10 0Z" fill="#38475f"/></g><rect x="412.2" y="137.4" width="68.7" height="68.7" fill="#eee7da"/><path d="M 412.2 137.4 A 68.7 68.7 0 0 1  480.9 206.10000000000002 L 412.2 137.4 A 68.7 68.7 0 0 0 480.9 206.10000000000002" fill="#e2d3b6"/><rect x="480.9" y="137.4" width="68.7" height="68.7" fill="#c2c7ce"/><path d="M 480.9 206.10000000000002 A 68.7 68.7 0 0 1  549.6 137.4 L 480.9 206.10000000000002 A 68.7 68.7 0 0 0 549.6 137.4" fill="#a6adb8"/><rect x="549.6" y="137.4" width="68.7" height="68.7" fill="#dce9e9"/><rect x="549.6" y="137.4" width="68.7" height="68.7" fill="#f8f9f9"/><rect x="618.3000000000001" y="137.4" width="68.7" height="68.7" fill="#ffffff"/><rect x="618.3" y="137.4" width="34.35" height="34.35" fill="#6d7889"/><path d="M 618.3 137.4 A 34.35 34.35 0 0 1  652.65 171.75 L 618.3 137.4 A 34.35 34.35 0 0 0 652.65 171.75" fill="#e5efef"/><rect x="652.65" y="137.4" width="34.35" height="34.35" fill="#808a99"/><path d="M 652.65 137.4 A 34.35 34.35 0 0 1  687 171.75 L 652.65 137.4 A 34.35 34.35 0 0 0 687 171.75" fill="#599999"/><rect x="618.3" y="171.75" width="34.35" height="34.35" fill="#a9cbca"/><rect x="618.3" y="171.75" width="34.35" height="34.35" fill="#e5efef"/><rect x="652.65" y="171.75" width="34.35" height="34.35" fill="#d9c59e"/><path d="M 652.65 206.1 A 34.35 34.35 0 0 1  687 171.75 L 652.65 206.1 A 34.35 34.35 0 0 0 687 171.75" fill="#fdfbf9"/><rect x="687" y="137.4" width="68.7" height="68.7" fill="#e3e9eb"/><rect x="687" y="137.4" width="68.7" height="68.7" fill="#d4be93"/><rect x="755.7" y="137.4" width="68.7" height="68.7" fill="#ffffff"/><rect x="755.7" y="137.4" width="34.35" height="34.35" fill="#677285"/><rect x="755.7" y="137.4" width="34.35" height="34.35" fill="#f5efe7"/><rect x="790.05" y="137.4" width="34.35" height="34.35" fill="#96acb3"/><rect x="790.05" y="137.4" width="34.35" height="34.35" fill="#267a79"/><rect x="755.7" y="171.75" width="34.35" height="34.35" fill="#decdab"/><g transform="translate(755.7,171.75) scale(1.7175) rotate(0)"><path d="M10 0L20 10L10 20L0 10L10 0Z" fill="#7baeae"/></g><rect x="790.05" y="171.75" width="34.35" height="34.35" fill="#b0c0c6"/><path d="M 790.05 171.75 A 34.35 34.35 0 0 1  824.4 206.1 L 790.05 171.75 A 34.35 34.35 0 0 0 824.4 206.1" fill="#d6c197"/><rect x="824.4000000000001" y="137.4" width="68.7" height="68.7" fill="#ffffff"/><rect x="824.4" y="137.4" width="34.35" height="34.35" fill="#4b596e"/><path d="M 824.4 137.4 A 34.35 34.35 0 0 1  858.75 171.75 L 824.4 137.4 A 34.35 34.35 0 0 0 858.75 171.75" fill="#f2ece2"/><rect x="858.75" y="137.4" width="34.35" height="34.35" fill="#dfe5e8"/><g transform="translate(858.75,137.4) scale(1.7175) rotate(0)"><path d="M10 0L20 10L10 20L0 10L10 0Z" fill="#bdcacf"/></g><rect x="824.4" y="171.75" width="34.35" height="34.35" fill="#ceb583"/><path d="M 824.4 206.1 A 34.35 34.35 0 0 1  858.75 171.75 L 824.4 206.1 A 34.35 34.35 0 0 0 858.75 171.75" fill="#efe8dc"/><rect x="858.75" y="171.75" width="34.35" height="34.35" fill="#93bdbd"/><path d="M 858.75 206.1 A 34.35 34.35 0 0 0 893.1 171.75 L 858.75 171.75" fill="#355e6d"/><rect x="893.1" y="137.4" width="68.7" height="68.7" fill="#ffffff"/><rect x="893.1" y="137.4" width="34.35" height="34.35" fill="#cdd0d6"/><g transform="translate(893.1,137.4) scale(1.7175) rotate(0)"><path d="M13 0H20V7L7 20H0V13L13 0Z" fill="#e2d3b6"/></g><rect x="927.45" y="137.4" width="34.35" height="34.35" fill="#124254"/><rect x="927.45" y="137.4" width="34.35" height="34.35" fill="#ebecef"/><rect x="893.1" y="171.75" width="34.35" height="34.35" fill="#ccd6da"/><path d="M 893.1 206.1 A 34.35 34.35 0 0 1  927.45 171.75 L 893.1 206.1 A 34.35 34.35 0 0 0 927.45 171.75" fill="#8dbab9"/><rect x="927.45" y="171.75" width="34.35" height="34.35" fill="#fefdfc"/><polygon points="961.8000000000001,171.75 961.8000000000001,206.1 927.45,206.1" fill="#eadfca"/><rect x="961.8000000000001" y="137.4" width="68.7" height="68.7" fill="#ffffff"/><rect x="961.8" y="137.4" width="34.35" height="34.35" fill="#eee6d9"/><rect x="961.8" y="137.4" width="34.35" height="34.35" fill="#a5c8c7"/><rect x="996.15" y="137.4" width="34.35" height="34.35" fill="#36455d"/><g transform="translate(996.15,137.4) scale(1.7175) rotate(0)"><path d="M10 0L20 10L10 20L0 10L10 0Z" fill="#e8f1f1"/></g><rect x="961.8" y="171.75" width="34.35" height="34.35" fill="#338281"/><rect x="961.8" y="171.75" width="34.35" height="34.35" fill="#dccaa7"/><rect x="996.15" y="171.75" width="34.35" height="34.35" fill="#f1eadb"/><path d="M 996.15 171.75 A 34.35 34.35 0 0 1  1030.5 206.1 L 996.15 171.75 A 34.35 34.35 0 0 0 1030.5 206.1" fill="#408a8a"/><rect x="0" y="206.10000000000002" width="68.7" height="68.7" fill="#ffffff"/><rect x="0" y="206.1" width="34.35" height="34.35" fill="#7cafae"/><g transform="translate(0,206.1) scale(1.7175) rotate(0)"><path d="M10 0L20 10L10 20L0 10L10 0Z" fill="#1d4b5c"/></g><rect x="34.35" y="206.1" width="34.35" height="34.35" fill="#b2b7c1"/><path d="M 34.35 206.1 A 34.35 34.35 0 0 1  68.7 240.45 L 34.35 206.1 A 34.35 34.35 0 0 0 68.7 240.45" fill="#182945"/><rect x="0" y="240.45" width="34.35" height="34.35" fill="#e8f1f1"/><path d="M 0 240.45 A 34.35 34.35 0 0 1  34.35 274.8 L 0 240.45 A 34.35 34.35 0 0 0 34.35 274.8" fill="#0a3c4e"/><rect x="34.35" y="240.45" width="34.35" height="34.35" fill="#cbdfdf"/><path d="M 34.35 274.8 A 34.35 34.35 0 0 1  68.7 240.45 L 34.35 274.8 A 34.35 34.35 0 0 0 68.7 240.45" fill="#70a8a7"/><rect x="68.7" y="206.10000000000002" width="68.7" height="68.7" fill="#ffffff"/><rect x="68.7" y="206.1" width="34.35" height="34.35" fill="#f8f5ef"/><polygon points="68.7,206.1 103.05000000000001,206.1 68.7,240.45" fill="#579998"/><rect x="103.05" y="206.1" width="34.35" height="34.35" fill="#f0f3f4"/><path d="M 103.05 240.45 A 34.35 34.35 0 0 1  137.4 206.1 L 103.05 240.45 A 34.35 34.35 0 0 0 137.4 206.1" fill="#fcfbf9"/><rect x="68.7" y="240.45" width="34.35" height="34.35" fill="#335c6c"/><g transform="translate(68.7,240.45) scale(1.7175) rotate(0)"><path d="M13 0H20V7L7 20H0V13L13 0Z" fill="#8fbaba"/></g><rect x="103.05" y="240.45" width="34.35" height="34.35" fill="#5f9d9d"/><path d="M 103.05 274.8 A 34.35 34.35 0 0 1  137.4 240.45 L 137.4 274.8" fill="#fefefe"/><rect x="137.4" y="206.1" width="68.7" height="68.7" fill="#606c7f"/><g transform="translate(137.4,206.1) scale(3.435) rotate(0)"><path d="M10 0L20 10L10 20L0 10L10 0Z" fill="#4a9090"/></g><rect x="206.10000000000002" y="206.10000000000002" width="68.7" height="68.7" fill="#ffffff"/><rect x="206.1" y="206.1" width="34.35" height="34.35" fill="#d6c197"/><path d="M 206.1 240.45 A 34.35 34.35 0 0 1  240.45 206.1 L 206.1 240.45 A 34.35 34.35 0 0 0 240.45 206.1" fill="#809aa3"/><rect x="240.45" y="206.1" width="34.35" height="34.35" fill="#214e5f"/><g transform="translate(240.45,206.1) scale(1.7175) rotate(0)"><path d="M10 0L20 10L10 20L0 10L10 0Z" fill="#146f6e"/></g><rect x="206.1" y="240.45" width="34.35" height="34.35" fill="#f3ede4"/><path d="M 206.1 240.45 A 34.35 34.35 0 0 1  240.45 274.8 L 206.1 240.45 A 34.35 34.35 0 0 0 240.45 274.8" fill="#ede4d6"/><rect x="240.45" y="240.45" width="34.35" height="34.35" fill="#fbfaf7"/><g transform="translate(240.45,240.45) scale(1.7175) rotate(0)"><path d="M10 0L20 10L10 20L0 10L10 0Z" fill="#3b6372"/></g><rect x="274.8" y="206.1" width="68.7" height="68.7" fill="#faf8f4"/><path d="M 274.8 274.8 A 68.7 68.7 0 0 0 343.5 206.1 L 274.8 206.1" fill="#ede4d6"/><rect x="343.5" y="206.1" width="68.7" height="68.7" fill="#425067"/><path d="M 343.5 206.1 A 68.7 68.7 0 0 1  412.2 274.8 L 343.5 206.1 A 68.7 68.7 0 0 0 412.2 274.8" fill="#071937"/><rect x="412.20000000000005" y="206.10000000000002" width="68.7" height="68.7" fill="#ffffff"/><rect x="412.2" y="206.1" width="34.35" height="34.35" fill="#e8f1f1"/><path d="M 412.2 206.1 A 34.35 34.35 0 0 1  446.55 240.45 L 412.2 206.1 A 34.35 34.35 0 0 0 446.55 240.45" fill="#3d6473"/><rect x="446.55" y="206.1" width="34.35" height="34.35" fill="#525f73"/><g transform="translate(446.55,206.1) scale(1.7175) rotate(0)"><path d="M13 0H20V7L7 20H0V13L13 0Z" fill="#8cb9b8"/></g><rect x="412.2" y="240.45" width="34.35" height="34.35" fill="#446a78"/><g transform="translate(412.2,240.45) scale(1.7175) rotate(0)"><path d="M10 0L20 10L10 20L0 10L10 0Z" fill="#e4eaec"/></g><rect x="446.55" y="240.45" width="34.35" height="34.35" fill="#f2ece1"/><path d="M 446.55 240.45 A 34.35 34.35 0 0 1  480.90000000000003 274.8 L 446.55 240.45 A 34.35 34.35 0 0 0 480.90000000000003 274.8" fill="#dadde1"/><rect x="480.90000000000003" y="206.10000000000002" width="68.7" height="68.7" fill="#ffffff"/><rect x="480.9" y="206.1" width="34.35" height="34.35" fill="#7b8595"/><rect x="480.9" y="206.1" width="34.35" height="34.35" fill="#decdab"/><rect x="515.25" y="206.1" width="34.35" height="34.35" fill="#82b3b2"/><g transform="translate(515.25,206.1) scale(1.7175) rotate(0)"><path d="M10 0L20 10L10 20L0 10L10 0Z" fill="#096867"/></g><rect x="480.9" y="240.45" width="34.35" height="34.35" fill="#d8e7e7"/><polygon points="480.9,240.45 515.25,240.45 480.9,274.8" fill="#c4d0d4"/><rect x="515.25" y="240.45" width="34.35" height="34.35" fill="#73a9a9"/><g transform="translate(515.25,240.45) scale(1.7175) rotate(0)"><path d="M10 0L20 10L10 20L0 10L10 0Z" fill="#f9f7f3"/></g><rect x="549.6" y="206.1" width="68.7" height="68.7" fill="#1d4b5c"/><path d="M 549.6 206.1 A 68.7 68.7 0 0 0 618.3000000000001 274.8 L 618.3000000000001 206.1" fill="#f7f3eb"/><rect x="618.3" y="206.1" width="68.7" height="68.7" fill="#8ebab9"/><polygon points="618.3,206.1 687,274.8 618.3,274.8" fill="#f6f1ea"/><rect x="687" y="206.10000000000002" width="68.7" height="68.7" fill="#ffffff"/><rect x="687" y="206.1" width="34.35" height="34.35" fill="#8c95a3"/><rect x="687" y="206.1" width="34.35" height="34.35" fill="#081a38"/><rect x="721.35" y="206.1" width="34.35" height="34.35" fill="#0d3e51"/><path d="M 721.35 206.1 A 34.35 34.35 0 0 1  755.7 240.45 L 721.35 206.1 A 34.35 34.35 0 0 0 755.7 240.45" fill="#e9decd"/><rect x="687" y="240.45" width="34.35" height="34.35" fill="#5e7f8b"/><g transform="translate(687,240.45) scale(1.7175) rotate(0)"><path d="M13 0H20V7L7 20H0V13L13 0Z" fill="#cfb684"/></g><rect x="721.35" y="240.45" width="34.35" height="34.35" fill="#d3bd90"/><path d="M 721.35 274.8 A 34.35 34.35 0 0 1  755.7 240.45 L 721.35 274.8 A 34.35 34.35 0 0 0 755.7 240.45" fill="#a7b9bf"/><rect x="755.7" y="206.1" width="68.7" height="68.7" fill="#ddccaa"/><polygon points="824.4000000000001,206.1 824.4000000000001,274.8 755.7,274.8" fill="#505e72"/><rect x="824.4" y="206.1" width="68.7" height="68.7" fill="#5f9d9c"/><rect x="824.4" y="206.1" width="68.7" height="68.7" fill="#979fab"/><rect x="893.1" y="206.1" width="68.7" height="68.7" fill="#678691"/><path d="M 893.1 274.8 A 68.7 68.7 0 0 1  961.8000000000001 206.1 L 893.1 274.8 A 68.7 68.7 0 0 0 961.8000000000001 206.1" fill="#566276"/><rect x="961.8" y="206.1" width="68.7" height="68.7" fill="#305a69"/><path d="M 961.8 206.1 A 68.7 68.7 0 0 1  1030.5 274.8 L 961.8 206.1 A 68.7 68.7 0 0 0 1030.5 274.8" fill="#efe7db"/><rect x="0" y="274.8" width="68.7" height="68.7" fill="#f1eade"/><polygon points="68.7,274.8 68.7,343.5 0,343.5" fill="#e9dfce"/><rect x="68.7" y="274.8" width="68.7" height="68.7" fill="#ffffff"/><rect x="68.7" y="274.8" width="34.35" height="34.35" fill="#dbe9e9"/><g transform="translate(68.7,274.8) scale(1.7175) rotate(0)"><path d="M13 0H20V7L7 20H0V13L13 0Z" fill="#efe8db"/></g><rect x="103.05" y="274.8" width="34.35" height="34.35" fill="#f0e8dc"/><path d="M 103.05 309.15000000000003 A 34.35 34.35 0 0 1  137.4 274.8 L 103.05 309.15000000000003 A 34.35 34.35 0 0 0 137.4 274.8" fill="#e8f1f1"/><rect x="68.7" y="309.15" width="34.35" height="34.35" fill="#fbf8f4"/><polygon points="68.7,309.15 103.05000000000001,309.15 103.05000000000001,343.5" fill="#647082"/><rect x="103.05" y="309.15" width="34.35" height="34.35" fill="#f9f7f2"/><path d="M 103.05 309.15 A 34.35 34.35 0 0 1  137.4 343.5 L 103.05 309.15 A 34.35 34.35 0 0 0 137.4 343.5" fill="#126e6d"/><rect x="137.4" y="274.8" width="68.7" height="68.7" fill="#ffffff"/><rect x="137.4" y="274.8" width="34.35" height="34.35" fill="#e6d9bf"/><g transform="translate(137.4,274.8) scale(1.7175) rotate(0)"><path d="M10 0L20 10L10 20L0 10L10 0Z" fill="#194859"/></g><rect x="171.75" y="274.8" width="34.35" height="34.35" fill="#e9ddc6"/><g transform="translate(171.75,274.8) scale(1.7175) rotate(0)"><path d="M10 0L20 10L10 20L0 10L10 0Z" fill="#338281"/></g><rect x="137.4" y="309.15" width="34.35" height="34.35" fill="#eef5f5"/><g transform="translate(137.4,309.15) scale(1.7175) rotate(0)"><path d="M10 0L20 10L10 20L0 10L10 0Z" fill="#1c7574"/></g><rect x="171.75" y="309.15" width="34.35" height="34.35" fill="#a9caca"/><path d="M 171.75 309.15 A 34.35 34.35 0 0 1 206.1 343.5 L 171.75 343.5" fill="#f1ebe0"/><rect x="206.10000000000002" y="274.8" width="68.7" height="68.7" fill="#ffffff"/><rect x="206.1" y="274.8" width="34.35" height="34.35" fill="#f0e8dd"/><rect x="206.1" y="274.8" width="34.35" height="34.35" fill="#478e8e"/><rect x="240.45" y="274.8" width="34.35" height="34.35" fill="#091c39"/><path d="M 240.45 309.15000000000003 A 34.35 34.35 0 0 1  274.8 274.8 L 240.45 309.15000000000003 A 34.35 34.35 0 0 0 274.8 274.8" fill="#f7f4ed"/><rect x="206.1" y="309.15" width="34.35" height="34.35" fill="#167170"/><g transform="translate(206.1,309.15) scale(1.7175) rotate(0)"><path d="M10 0L20 10L10 20L0 10L10 0Z" fill="#4d717e"/></g><rect x="240.45" y="309.15" width="34.35" height="34.35" fill="#5c7d89"/><path d="M 240.45 309.15 A 34.35 34.35 0 0 0 274.8 343.5 L 274.8 309.15" fill="#c4dbdb"/><rect x="274.8" y="274.8" width="68.7" height="68.7" fill="#c0cdd2"/><path d="M 274.8 343.5 A 68.7 68.7 0 0 1  343.5 274.8 L 274.8 343.5 A 68.7 68.7 0 0 0 343.5 274.8" fill="#f3ede1"/><rect x="343.5" y="274.8" width="68.7" height="68.7" fill="#ffffff"/><rect x="343.5" y="274.8" width="34.35" height="34.35" fill="#e4eaec"/><g transform="translate(343.5,274.8) scale(1.7175) rotate(0)"><path d="M13 0H20V7L7 20H0V13L13 0Z" fill="#d0e2e2"/></g><rect x="377.85" y="274.8" width="34.35" height="34.35" fill="#177170"/><rect x="377.85" y="274.8" width="34.35" height="34.35" fill="#f9f7f2"/><rect x="343.5" y="309.15" width="34.35" height="34.35" fill="#e4d6ba"/><path d="M 343.5 309.15 A 34.35 34.35 0 0 1  377.85 343.5 L 343.5 309.15 A 34.35 34.35 0 0 0 377.85 343.5" fill="#f0e9de"/><rect x="377.85" y="309.15" width="34.35" height="34.35" fill="#25354f"/><path d="M 377.85 343.5 A 34.35 34.35 0 0 1  412.20000000000005 309.15 L 377.85 343.5 A 34.35 34.35 0 0 0 412.20000000000005 309.15" fill="#3c6472"/><rect x="412.2" y="274.8" width="68.7" height="68.7" fill="#64838f"/><g transform="translate(412.2,274.8) scale(3.435) rotate(0)"><path d="M10 0L20 10L10 20L0 10L10 0Z" fill="#314159"/></g><rect x="480.90000000000003" y="274.8" width="68.7" height="68.7" fill="#ffffff"/><rect x="480.9" y="274.8" width="34.35" height="34.35" fill="#f1eade"/><g transform="translate(480.9,274.8) scale(1.7175) rotate(0)"><path d="M13 0H20V7L7 20H0V13L13 0Z" fill="#87909e"/></g><rect x="515.25" y="274.8" width="34.35" height="34.35" fill="#fbfcfc"/><g transform="translate(515.25,274.8) scale(1.7175) rotate(0)"><path d="M10 0L20 10L10 20L0 10L10 0Z" fill="#fcfdfd"/></g><rect x="480.9" y="309.15" width="34.35" height="34.35" fill="#a6adb7"/><rect x="480.9" y="309.15" width="34.35" height="34.35" fill="#6b7788"/><rect x="515.25" y="309.15" width="34.35" height="34.35" fill="#e9decd"/><path d="M 515.25 343.5 A 34.35 34.35 0 0 1  549.6 309.15 L 515.25 343.5 A 34.35 34.35 0 0 0 549.6 309.15" fill="#efe7da"/><rect x="549.6" y="274.8" width="68.7" height="68.7" fill="#ffffff"/><rect x="549.6" y="274.8" width="34.35" height="34.35" fill="#858e9d"/><rect x="549.6" y="274.8" width="34.35" height="34.35" fill="#e3d4b8"/><rect x="583.95" y="274.8" width="34.35" height="34.35" fill="#e8ddcb"/><rect x="583.95" y="274.8" width="34.35" height="34.35" fill="#809aa3"/><rect x="549.6" y="309.15" width="34.35" height="34.35" fill="#d0b787"/><g transform="translate(549.6,309.15) scale(1.7175) rotate(0)"><path d="M13 0H20V7L7 20H0V13L13 0Z" fill="#d9c59e"/></g><rect x="583.95" y="309.15" width="34.35" height="34.35" fill="#c0d8d8"/><path d="M 583.95 343.5 A 34.35 34.35 0 0 0 618.3000000000001 309.15 L 583.95 309.15" fill="#f8f5f0"/><rect x="618.3" y="274.8" width="68.7" height="68.7" fill="#667284"/><polygon points="618.3,274.8 687,274.8 618.3,343.5" fill="#d1b989"/><rect x="687" y="274.8" width="68.7" height="68.7" fill="#ffffff"/><rect x="687" y="274.8" width="34.35" height="34.35" fill="#ebe1d2"/><path d="M 687 309.15000000000003 A 34.35 34.35 0 0 1  721.35 274.8 L 687 309.15000000000003 A 34.35 34.35 0 0 0 721.35 274.8" fill="#4f9393"/><rect x="721.35" y="274.8" width="34.35" height="34.35" fill="#f3eee5"/><g transform="translate(721.35,274.8) scale(1.7175) rotate(0)"><path d="M10 0L20 10L10 20L0 10L10 0Z" fill="#8aa1aa"/></g><rect x="687" y="309.15" width="34.35" height="34.35" fill="#62818d"/><g transform="translate(687,309.15) scale(1.7175) rotate(0)"><path d="M13 0H20V7L7 20H0V13L13 0Z" fill="#d0e2e2"/></g><rect x="721.35" y="309.15" width="34.35" height="34.35" fill="#faf8f4"/><path d="M 721.35 309.15 A 34.35 34.35 0 0 1 755.7 343.5 L 721.35 343.5" fill="#21324c"/><rect x="755.7" y="274.8" width="68.7" height="68.7" fill="#fcfaf7"/><polygon points="755.7,274.8 824.4000000000001,274.8 755.7,343.5" fill="#d1b98a"/><rect x="824.4000000000001" y="274.8" width="68.7" height="68.7" fill="#ffffff"/><rect x="824.4" y="274.8" width="34.35" height="34.35" fill="#567885"/><rect x="824.4" y="274.8" width="34.35" height="34.35" fill="#e7ebed"/><rect x="858.75" y="274.8" width="34.35" height="34.35" fill="#668590"/><g transform="translate(858.75,274.8) scale(1.7175) rotate(0)"><path d="M13 0H20V7L7 20H0V13L13 0Z" fill="#f7f3ed"/></g><rect x="824.4" y="309.15" width="34.35" height="34.35" fill="#fdfcfa"/><g transform="translate(824.4,309.15) scale(1.7175) rotate(0)"><path d="M13 0H20V7L7 20H0V13L13 0Z" fill="#ceb583"/></g><rect x="858.75" y="309.15" width="34.35" height="34.35" fill="#f9fbfb"/><g transform="translate(858.75,309.15) scale(1.7175) rotate(0)"><path d="M10 0L20 10L10 20L0 10L10 0Z" fill="#f2ece2"/></g><rect x="893.1" y="274.8" width="68.7" height="68.7" fill="#f7f7f8"/><polygon points="893.1,274.8 961.8000000000001,343.5 893.1,343.5" fill="#cbcfd5"/><rect x="961.8" y="274.8" width="68.7" height="68.7" fill="#fcfaf7"/><g transform="translate(961.8,274.8) scale(3.435) rotate(0)"><path d="M10 0L20 10L10 20L0 10L10 0Z" fill="#eef4f4"/></g><rect x="0" y="343.5" width="68.7" height="68.7" fill="#fbfcfc"/><g transform="translate(0,343.5) scale(3.435) rotate(0)"><path d="M10 0L20 10L10 20L0 10L10 0Z" fill="#081b38"/></g><rect x="68.7" y="343.5" width="68.7" height="68.7" fill="#ffffff"/><rect x="68.7" y="343.5" width="34.35" height="34.35" fill="#fcfbf8"/><g transform="translate(68.7,343.5) scale(1.7175) rotate(0)"><path d="M10 0L20 10L10 20L0 10L10 0Z" fill="#177170"/></g><rect x="103.05" y="343.5" width="34.35" height="34.35" fill="#dce9e9"/><polygon points="137.4,343.5 137.4,377.85 103.05,377.85" fill="#98c0c0"/><rect x="68.7" y="377.85" width="34.35" height="34.35" fill="#a1b4bb"/><rect x="68.7" y="377.85" width="34.35" height="34.35" fill="#5f7f8b"/><rect x="103.05" y="377.85" width="34.35" height="34.35" fill="#bfc4cc"/><path d="M 103.05 377.85 A 34.35 34.35 0 0 1  137.4 412.20000000000005 L 103.05 377.85 A 34.35 34.35 0 0 0 137.4 412.20000000000005" fill="#2e7f7f"/><rect x="137.4" y="343.5" width="68.7" height="68.7" fill="#eee6d5"/><g transform="translate(137.4,343.5) scale(3.435) rotate(0)"><path d="M13 0H20V7L7 20H0V13L13 0Z" fill="#d4bd91"/></g><rect x="206.1" y="343.5" width="68.7" height="68.7" fill="#35445c"/><polygon points="206.1,343.5 274.8,343.5 274.8,412.2" fill="#e2d4b6"/><rect x="274.8" y="343.5" width="68.7" height="68.7" fill="#ffffff"/><rect x="274.8" y="343.5" width="34.35" height="34.35" fill="#f3f6f7"/><polygon points="309.15000000000003,343.5 309.15000000000003,377.85 274.8,377.85" fill="#194759"/><rect x="309.15" y="343.5" width="34.35" height="34.35" fill="#ebeff0"/><g transform="translate(309.15,343.5) scale(1.7175) rotate(0)"><path d="M13 0H20V7L7 20H0V13L13 0Z" fill="#95aab2"/></g><rect x="274.8" y="377.85" width="34.35" height="34.35" fill="#fdfdfb"/><g transform="translate(274.8,377.85) scale(1.7175) rotate(0)"><path d="M10 0L20 10L10 20L0 10L10 0Z" fill="#546175"/></g><rect x="309.15" y="377.85" width="34.35" height="34.35" fill="#ebf3f3"/><path d="M 309.15 412.20000000000005 A 34.35 34.35 0 0 1  343.5 377.85 L 309.15 412.20000000000005 A 34.35 34.35 0 0 0 343.5 377.85" fill="#e4d6ba"/><rect x="343.5" y="343.5" width="68.7" height="68.7" fill="#dbe2e5"/><g transform="translate(343.5,343.5) scale(3.435) rotate(0)"><path d="M10 0L20 10L10 20L0 10L10 0Z" fill="#f9f6ef"/></g><rect x="412.2" y="343.5" width="68.7" height="68.7" fill="#f6f2ec"/><path d="M 412.2 343.5 A 68.7 68.7 0 0 1  480.9 412.2 L 412.2 343.5 A 68.7 68.7 0 0 0 480.9 412.2" fill="#fefefe"/><rect x="480.90000000000003" y="343.5" width="68.7" height="68.7" fill="#ffffff"/><rect x="480.9" y="343.5" width="34.35" height="34.35" fill="#cfe1e1"/><path d="M 480.9 343.5 A 34.35 34.35 0 0 1  515.25 377.85 L 480.9 343.5 A 34.35 34.35 0 0 0 515.25 377.85" fill="#faf8f3"/><rect x="515.25" y="343.5" width="34.35" height="34.35" fill="#468e8d"/><rect x="515.25" y="343.5" width="34.35" height="34.35" fill="#fbf9f6"/><rect x="480.9" y="377.85" width="34.35" height="34.35" fill="#2e3d56"/><path d="M 480.9 377.85 A 34.35 34.35 0 0 1  515.25 412.20000000000005 L 480.9 377.85 A 34.35 34.35 0 0 0 515.25 412.20000000000005" fill="#d1b98b"/><rect x="515.25" y="377.85" width="34.35" height="34.35" fill="#547683"/><g transform="translate(515.25,377.85) scale(1.7175) rotate(0)"><path d="M13 0H20V7L7 20H0V13L13 0Z" fill="#e4eeee"/></g><rect x="549.6" y="343.5" width="68.7" height="68.7" fill="#c1c6cd"/><g transform="translate(549.6,343.5) scale(3.435) rotate(0)"><path d="M13 0H20V7L7 20H0V13L13 0Z" fill="#eaebee"/></g><rect x="618.3000000000001" y="343.5" width="68.7" height="68.7" fill="#ffffff"/><rect x="618.3" y="343.5" width="34.35" height="34.35" fill="#cee1e1"/><g transform="translate(618.3,343.5) scale(1.7175) rotate(0)"><path d="M13 0H20V7L7 20H0V13L13 0Z" fill="#f6f1ea"/></g><rect x="652.65" y="343.5" width="34.35" height="34.35" fill="#c0c5cd"/><g transform="translate(652.65,343.5) scale(1.7175) rotate(0)"><path d="M10 0L20 10L10 20L0 10L10 0Z" fill="#396170"/></g><rect x="618.3" y="377.85" width="34.35" height="34.35" fill="#ebf3f3"/><g transform="translate(618.3,377.85) scale(1.7175) rotate(0)"><path d="M10 0L20 10L10 20L0 10L10 0Z" fill="#fefeff"/></g><rect x="652.65" y="377.85" width="34.35" height="34.35" fill="#031634"/><polygon points="652.65,377.85 687,377.85 652.65,412.20000000000005" fill="#e1e3e7"/><rect x="687" y="343.5" width="68.7" height="68.7" fill="#ffffff"/><rect x="687" y="343.5" width="34.35" height="34.35" fill="#98c0c0"/><g transform="translate(687,343.5) scale(1.7175) rotate(0)"><path d="M10 0L20 10L10 20L0 10L10 0Z" fill="#737d8e"/></g><rect x="721.35" y="343.5" width="34.35" height="34.35" fill="#051735"/><g transform="translate(721.35,343.5) scale(1.7175) rotate(0)"><path d="M10 0L20 10L10 20L0 10L10 0Z" fill="#efe8db"/></g><rect x="687" y="377.85" width="34.35" height="34.35" fill="#698793"/><rect x="687" y="377.85" width="34.35" height="34.35" fill="#f4eee3"/><rect x="721.35" y="377.85" width="34.35" height="34.35" fill="#237878"/><g transform="translate(721.35,377.85) scale(1.7175) rotate(0)"><path d="M10 0L20 10L10 20L0 10L10 0Z" fill="#808998"/></g><rect x="755.7" y="343.5" width="68.7" height="68.7" fill="#3f6674"/><path d="M 755.7 412.2 A 68.7 68.7 0 0 0 824.4000000000001 343.5 L 755.7 343.5" fill="#f3f7f7"/><rect x="824.4" y="343.5" width="68.7" height="68.7" fill="#dbdde2"/><rect x="824.4" y="343.5" width="68.7" height="68.7" fill="#2c3c55"/><rect x="893.1" y="343.5" width="68.7" height="68.7" fill="#ffffff"/><rect x="893.1" y="343.5" width="34.35" height="34.35" fill="#cee1e1"/><path d="M 893.1 343.5 A 34.35 34.35 0 0 0 927.45 377.85 L 927.45 343.5" fill="#629f9e"/><rect x="927.45" y="343.5" width="34.35" height="34.35" fill="#eee6d8"/><polygon points="927.45,343.5 961.8000000000001,343.5 927.45,377.85" fill="#ede4d5"/><rect x="893.1" y="377.85" width="34.35" height="34.35" fill="#84b4b4"/><g transform="translate(893.1,377.85) scale(1.7175) rotate(0)"><path d="M13 0H20V7L7 20H0V13L13 0Z" fill="#77acab"/></g><rect x="927.45" y="377.85" width="34.35" height="34.35" fill="#f4efe4"/><g transform="translate(927.45,377.85) scale(1.7175) rotate(0)"><path d="M10 0L20 10L10 20L0 10L10 0Z" fill="#f7f3ea"/></g><rect x="961.8" y="343.5" width="68.7" height="68.7" fill="#b1cfcf"/><polygon points="961.8,343.5 1030.5,412.2 961.8,412.2" fill="#f4eee2"/><rect x="0" y="412.20000000000005" width="68.7" height="68.7" fill="#ffffff"/><rect x="0" y="412.2" width="34.35" height="34.35" fill="#3a8686"/><rect x="0" y="412.2" width="34.35" height="34.35" fill="#9099a6"/><rect x="34.35" y="412.2" width="34.35" height="34.35" fill="#829ba5"/><path d="M 34.35 446.55 A 34.35 34.35 0 0 1  68.7 412.2 L 34.35 446.55 A 34.35 34.35 0 0 0 68.7 412.2" fill="#0a3b4e"/><rect x="0" y="446.55" width="34.35" height="34.35" fill="#b3b9c2"/><rect x="0" y="446.55" width="34.35" height="34.35" fill="#c9d4d8"/><rect x="34.35" y="446.55" width="34.35" height="34.35" fill="#838c9b"/><g transform="translate(34.35,446.55) scale(1.7175) rotate(0)"><path d="M10 0L20 10L10 20L0 10L10 0Z" fill="#e2eded"/></g><rect x="68.7" y="412.20000000000005" width="68.7" height="68.7" fill="#ffffff"/><rect x="68.7" y="412.2" width="34.35" height="34.35" fill="#589998"/><rect x="68.7" y="412.2" width="34.35" height="34.35" fill="#2d5767"/><rect x="103.05" y="412.2" width="34.35" height="34.35" fill="#e0d0b0"/><polygon points="137.4,412.2 137.4,446.55 103.05,446.55" fill="#fcfbf8"/><rect x="68.7" y="446.55" width="34.35" height="34.35" fill="#81b2b1"/><path d="M 68.7 480.90000000000003 A 34.35 34.35 0 0 0 103.05000000000001 446.55 L 68.7 446.55" fill="#285364"/><rect x="103.05" y="446.55" width="34.35" height="34.35" fill="#606c7f"/><polygon points="103.05,446.55 137.4,446.55 137.4,480.90000000000003" fill="#ece3d4"/><rect x="137.4" y="412.20000000000005" width="68.7" height="68.7" fill="#ffffff"/><rect x="137.4" y="412.2" width="34.35" height="34.35" fill="#416876"/><path d="M 137.4 446.55 A 34.35 34.35 0 0 0 171.75 412.2 L 137.4 412.2" fill="#ece2cf"/><rect x="171.75" y="412.2" width="34.35" height="34.35" fill="#becbd0"/><rect x="171.75" y="412.2" width="34.35" height="34.35" fill="#dcc9a6"/><rect x="137.4" y="446.55" width="34.35" height="34.35" fill="#478e8e"/><g transform="translate(137.4,446.55) scale(1.7175) rotate(0)"><path d="M13 0H20V7L7 20H0V13L13 0Z" fill="#6e798b"/></g><rect x="171.75" y="446.55" width="34.35" height="34.35" fill="#0c3e50"/><rect x="171.75" y="446.55" width="34.35" height="34.35" fill="#365f6e"/><rect x="206.10000000000002" y="412.20000000000005" width="68.7" height="68.7" fill="#ffffff"/><rect x="206.1" y="412.2" width="34.35" height="34.35" fill="#e9eeef"/><path d="M 206.1 446.55 A 34.35 34.35 0 0 1  240.45 412.2 L 206.1 446.55 A 34.35 34.35 0 0 0 240.45 412.2" fill="#ebe0cb"/><rect x="240.45" y="412.2" width="34.35" height="34.35" fill="#e4d5b9"/><rect x="240.45" y="412.2" width="34.35" height="34.35" fill="#f8f5f0"/><rect x="206.1" y="446.55" width="34.35" height="34.35" fill="#bad5d5"/><g transform="translate(206.1,446.55) scale(1.7175) rotate(0)"><path d="M10 0L20 10L10 20L0 10L10 0Z" fill="#65a1a0"/></g><rect x="240.45" y="446.55" width="34.35" height="34.35" fill="#4c707e"/><rect x="240.45" y="446.55" width="34.35" height="34.35" fill="#b4d1d1"/><rect x="274.8" y="412.20000000000005" width="68.7" height="68.7" fill="#ffffff"/><rect x="274.8" y="412.2" width="34.35" height="34.35" fill="#a3c7c7"/><g transform="translate(274.8,412.2) scale(1.7175) rotate(0)"><path d="M13 0H20V7L7 20H0V13L13 0Z" fill="#818a99"/></g><rect x="309.15" y="412.2" width="34.35" height="34.35" fill="#88b6b6"/><g transform="translate(309.15,412.2) scale(1.7175) rotate(0)"><path d="M10 0L20 10L10 20L0 10L10 0Z" fill="#d8c49c"/></g><rect x="274.8" y="446.55" width="34.35" height="34.35" fill="#bdd7d6"/><g transform="translate(274.8,446.55) scale(1.7175) rotate(0)"><path d="M10 0L20 10L10 20L0 10L10 0Z" fill="#ede4d6"/></g><rect x="309.15" y="446.55" width="34.35" height="34.35" fill="#9bafb7"/><path d="M 309.15 446.55 A 34.35 34.35 0 0 1  343.5 480.90000000000003 L 309.15 446.55 A 34.35 34.35 0 0 0 343.5 480.90000000000003" fill="#faf8f3"/><rect x="343.5" y="412.2" width="68.7" height="68.7" fill="#dccaa6"/><path d="M 343.5 480.9 A 68.7 68.7 0 0 1  412.2 412.2 L 343.5 480.9 A 68.7 68.7 0 0 0 412.2 412.2" fill="#fefdfc"/><rect x="412.20000000000005" y="412.20000000000005" width="68.7" height="68.7" fill="#ffffff"/><rect x="412.2" y="412.2" width="34.35" height="34.35" fill="#b6bbc4"/><g transform="translate(412.2,412.2) scale(1.7175) rotate(0)"><path d="M10 0L20 10L10 20L0 10L10 0Z" fill="#d4be92"/></g><rect x="446.55" y="412.2" width="34.35" height="34.35" fill="#f6f2eb"/><path d="M 446.55 446.55 A 34.35 34.35 0 0 0 480.90000000000003 412.2 L 446.55 412.2" fill="#34435b"/><rect x="412.2" y="446.55" width="34.35" height="34.35" fill="#fefefd"/><path d="M 412.2 480.90000000000003 A 34.35 34.35 0 0 1  446.55 446.55 L 412.2 480.90000000000003 A 34.35 34.35 0 0 0 446.55 446.55" fill="#273751"/><rect x="446.55" y="446.55" width="34.35" height="34.35" fill="#c9dede"/><rect x="446.55" y="446.55" width="34.35" height="34.35" fill="#ceb482"/><rect x="480.9" y="412.2" width="68.7" height="68.7" fill="#fbf9f6"/><g transform="translate(480.9,412.2) scale(3.435) rotate(0)"><path d="M13 0H20V7L7 20H0V13L13 0Z" fill="#86b5b4"/></g><rect x="549.6" y="412.20000000000005" width="68.7" height="68.7" fill="#ffffff"/><rect x="549.6" y="412.2" width="34.35" height="34.35" fill="#747e8f"/><path d="M 549.6 446.55 A 34.35 34.35 0 0 1  583.95 412.2 L 549.6 446.55 A 34.35 34.35 0 0 0 583.95 412.2" fill="#d4be93"/><rect x="583.95" y="412.2" width="34.35" height="34.35" fill="#d7c298"/><path d="M 583.95 412.2 A 34.35 34.35 0 0 1  618.3000000000001 446.55 L 583.95 412.2 A 34.35 34.35 0 0 0 618.3000000000001 446.55" fill="#4b6f7d"/><rect x="549.6" y="446.55" width="34.35" height="34.35" fill="#fefefd"/><g transform="translate(549.6,446.55) scale(1.7175) rotate(0)"><path d="M13 0H20V7L7 20H0V13L13 0Z" fill="#046564"/></g><rect x="583.95" y="446.55" width="34.35" height="34.35" fill="#f3ede4"/><path d="M 583.95 480.90000000000003 A 34.35 34.35 0 0 0 618.3000000000001 446.55 L 583.95 446.55" fill="#3c8887"/><rect x="618.3000000000001" y="412.20000000000005" width="68.7" height="68.7" fill="#ffffff"/><rect x="618.3" y="412.2" width="34.35" height="34.35" fill="#0b6a69"/><rect x="618.3" y="412.2" width="34.35" height="34.35" fill="#f9fbfb"/><rect x="652.65" y="412.2" width="34.35" height="34.35" fill="#8da4ad"/><rect x="652.65" y="412.2" width="34.35" height="34.35" fill="#bfd8d8"/><rect x="618.3" y="446.55" width="34.35" height="34.35" fill="#f6f2eb"/><polygon points="618.3,446.55 652.65,480.90000000000003 618.3,480.90000000000003" fill="#e4eaec"/><rect x="652.65" y="446.55" width="34.35" height="34.35" fill="#8e97a4"/><rect x="652.65" y="446.55" width="34.35" height="34.35" fill="#e5d7bd"/><rect x="687" y="412.20000000000005" width="68.7" height="68.7" fill="#ffffff"/><rect x="687" y="412.2" width="34.35" height="34.35" fill="#194759"/><g transform="translate(687,412.2) scale(1.7175) rotate(0)"><path d="M10 0L20 10L10 20L0 10L10 0Z" fill="#f9f6f1"/></g><rect x="721.35" y="412.2" width="34.35" height="34.35" fill="#f9f6f2"/><rect x="721.35" y="412.2" width="34.35" height="34.35" fill="#b5d2d1"/><rect x="687" y="446.55" width="34.35" height="34.35" fill="#75919b"/><path d="M 687 446.55 A 34.35 34.35 0 0 1  721.35 480.90000000000003 L 687 446.55 A 34.35 34.35 0 0 0 721.35 480.90000000000003" fill="#436977"/><rect x="721.35" y="446.55" width="34.35" height="34.35" fill="#dcdfe3"/><rect x="721.35" y="446.55" width="34.35" height="34.35" fill="#c3cfd4"/><rect x="755.7" y="412.2" width="68.7" height="68.7" fill="#e9decd"/><g transform="translate(755.7,412.2) scale(3.435) rotate(0)"><path d="M13 0H20V7L7 20H0V13L13 0Z" fill="#f3ede3"/></g><rect x="824.4000000000001" y="412.20000000000005" width="68.7" height="68.7" fill="#ffffff"/><rect x="824.4" y="412.2" width="34.35" height="34.35" fill="#bcd6d6"/><rect x="824.4" y="412.2" width="34.35" height="34.35" fill="#decdab"/><rect x="858.75" y="412.2" width="34.35" height="34.35" fill="#314059"/><path d="M 858.75 412.2 A 34.35 34.35 0 0 1  893.1 446.55 L 858.75 412.2 A 34.35 34.35 0 0 0 893.1 446.55" fill="#9ba3af"/><rect x="824.4" y="446.55" width="34.35" height="34.35" fill="#a1b4bb"/><polygon points="858.75,446.55 858.75,480.90000000000003 824.4,480.90000000000003" fill="#8fa5ae"/><rect x="858.75" y="446.55" width="34.35" height="34.35" fill="#0e203d"/><path d="M 858.75 480.90000000000003 A 34.35 34.35 0 0 1  893.1 446.55 L 858.75 480.90000000000003 A 34.35 34.35 0 0 0 893.1 446.55" fill="#fbf8f4"/><rect x="893.1" y="412.2" width="68.7" height="68.7" fill="#e6f0f0"/><path d="M 893.1 480.9 A 68.7 68.7 0 0 1  961.8000000000001 412.2 L 893.1 480.9 A 68.7 68.7 0 0 0 961.8000000000001 412.2" fill="#f0e8dc"/><rect x="961.8000000000001" y="412.20000000000005" width="68.7" height="68.7" fill="#ffffff"/><rect x="961.8" y="412.2" width="34.35" height="34.35" fill="#f0f1f3"/><path d="M 961.8 446.55 A 34.35 34.35 0 0 1  996.15 412.2 L 996.15 446.55" fill="#f1eadc"/><rect x="996.15" y="412.2" width="34.35" height="34.35" fill="#6e8b96"/><rect x="996.15" y="412.2" width="34.35" height="34.35" fill="#e3d4b8"/><rect x="961.8" y="446.55" width="34.35" height="34.35" fill="#fdfbf9"/><g transform="translate(961.8,446.55) scale(1.7175) rotate(0)"><path d="M13 0H20V7L7 20H0V13L13 0Z" fill="#7f8998"/></g><rect x="996.15" y="446.55" width="34.35" height="34.35" fill="#2a5565"/><rect x="996.15" y="446.55" width="34.35" height="34.35" fill="#d3bc8f"/><rect x="0" y="480.90000000000003" width="68.7" height="68.7" fill="#ffffff"/><rect x="0" y="480.9" width="34.35" height="34.35" fill="#f4eee2"/><path d="M 0 480.9 A 34.35 34.35 0 0 0 34.35 515.25 L 34.35 480.9" fill="#c5dcdc"/><rect x="34.35" y="480.9" width="34.35" height="34.35" fill="#b9d4d4"/><polygon points="34.35,480.9 68.7,515.25 34.35,515.25" fill="#fefefd"/><rect x="0" y="515.25" width="34.35" height="34.35" fill="#f7f3ec"/><g transform="translate(0,515.25) scale(1.7175) rotate(0)"><path d="M13 0H20V7L7 20H0V13L13 0Z" fill="#7d98a1"/></g><rect x="34.35" y="515.25" width="34.35" height="34.35" fill="#e3d4b7"/><rect x="34.35" y="515.25" width="34.35" height="34.35" fill="#25354f"/><rect x="68.7" y="480.90000000000003" width="68.7" height="68.7" fill="#ffffff"/><rect x="68.7" y="480.9" width="34.35" height="34.35" fill="#6f8c97"/><rect x="68.7" y="480.9" width="34.35" height="34.35" fill="#d7c299"/><rect x="103.05" y="480.9" width="34.35" height="34.35" fill="#d6c197"/><g transform="translate(103.05,480.9) scale(1.7175) rotate(0)"><path d="M10 0L20 10L10 20L0 10L10 0Z" fill="#f5f0e6"/></g><rect x="68.7" y="515.25" width="34.35" height="34.35" fill="#f5f0e9"/><rect x="68.7" y="515.25" width="34.35" height="34.35" fill="#eee6d9"/><rect x="103.05" y="515.25" width="34.35" height="34.35" fill="#ede5d7"/><path d="M 103.05 549.6 A 34.35 34.35 0 0 1  137.4 515.25 L 137.4 549.6" fill="#f2ebe1"/><rect x="137.4" y="480.9" width="68.7" height="68.7" fill="#ece3d5"/><path d="M 137.4 480.9 A 68.7 68.7 0 0 1  206.10000000000002 549.6 L 137.4 480.9 A 68.7 68.7 0 0 0 206.10000000000002 549.6" fill="#7db0af"/><rect x="206.1" y="480.9" width="68.7" height="68.7" fill="#e7e9ec"/><path d="M 206.1 480.9 A 68.7 68.7 0 0 1  274.8 549.6 L 206.1 480.9 A 68.7 68.7 0 0 0 274.8 549.6" fill="#2d5867"/><rect x="274.8" y="480.9" width="68.7" height="68.7" fill="#eae1d1"/><path d="M 274.8 549.6 A 68.7 68.7 0 0 1  343.5 480.9 L 274.8 549.6 A 68.7 68.7 0 0 0 343.5 480.9" fill="#6ca5a5"/><rect x="343.5" y="480.90000000000003" width="68.7" height="68.7" fill="#ffffff"/><rect x="343.5" y="480.9" width="34.35" height="34.35" fill="#d9e8e8"/><g transform="translate(343.5,480.9) scale(1.7175) rotate(0)"><path d="M13 0H20V7L7 20H0V13L13 0Z" fill="#88919f"/></g><rect x="377.85" y="480.9" width="34.35" height="34.35" fill="#e6d9bf"/><polygon points="377.85,480.9 412.20000000000005,480.9 377.85,515.25" fill="#e0d0b0"/><rect x="343.5" y="515.25" width="34.35" height="34.35" fill="#144355"/><g transform="translate(343.5,515.25) scale(1.7175) rotate(0)"><path d="M13 0H20V7L7 20H0V13L13 0Z" fill="#2c3c55"/></g><rect x="377.85" y="515.25" width="34.35" height="34.35" fill="#066766"/><path d="M 377.85 549.6 A 34.35 34.35 0 0 1  412.20000000000005 515.25 L 412.20000000000005 549.6" fill="#4a908f"/><rect x="412.2" y="480.9" width="68.7" height="68.7" fill="#b0cfcf"/><g transform="translate(412.2,480.9) scale(3.435) rotate(0)"><path d="M13 0H20V7L7 20H0V13L13 0Z" fill="#edf0f2"/></g><rect x="480.9" y="480.9" width="68.7" height="68.7" fill="#d5bf94"/><g transform="translate(480.9,480.9) scale(3.435) rotate(0)"><path d="M10 0L20 10L10 20L0 10L10 0Z" fill="#edf1f2"/></g><rect x="549.6" y="480.90000000000003" width="68.7" height="68.7" fill="#ffffff"/><rect x="549.6" y="480.9" width="34.35" height="34.35" fill="#b9bec7"/><g transform="translate(549.6,480.9) scale(1.7175) rotate(0)"><path d="M13 0H20V7L7 20H0V13L13 0Z" fill="#49576d"/></g><rect x="583.95" y="480.9" width="34.35" height="34.35" fill="#a0a8b3"/><path d="M 583.95 515.25 A 34.35 34.35 0 0 0 618.3000000000001 480.9 L 583.95 480.9" fill="#a3c7c6"/><rect x="549.6" y="515.25" width="34.35" height="34.35" fill="#456a79"/><rect x="549.6" y="515.25" width="34.35" height="34.35" fill="#eee5d3"/><rect x="583.95" y="515.25" width="34.35" height="34.35" fill="#f9f6f2"/><path d="M 583.95 515.25 A 34.35 34.35 0 0 1  618.3000000000001 549.6 L 583.95 515.25 A 34.35 34.35 0 0 0 618.3000000000001 549.6" fill="#247978"/><rect x="618.3000000000001" y="480.90000000000003" width="68.7" height="68.7" fill="#ffffff"/><rect x="618.3" y="480.9" width="34.35" height="34.35" fill="#fcfaf8"/><path d="M 618.3 480.9 A 34.35 34.35 0 0 0 652.65 515.25 L 652.65 480.9" fill="#3e6573"/><rect x="652.65" y="480.9" width="34.35" height="34.35" fill="#a7c9c9"/><g transform="translate(652.65,480.9) scale(1.7175) rotate(0)"><path d="M10 0L20 10L10 20L0 10L10 0Z" fill="#fbf9f6"/></g><rect x="618.3" y="515.25" width="34.35" height="34.35" fill="#a6b8bf"/><path d="M 618.3 515.25 A 34.35 34.35 0 0 1  652.65 549.6 L 618.3 515.25 A 34.35 34.35 0 0 0 652.65 549.6" fill="#eee6d9"/><rect x="652.65" y="515.25" width="34.35" height="34.35" fill="#f7f3ec"/><path d="M 652.65 549.6 A 34.35 34.35 0 0 1  687 515.25 L 687 549.6" fill="#d7c39a"/><rect x="687" y="480.9" width="68.7" height="68.7" fill="#a7aeb8"/><path d="M 687 549.6 A 68.7 68.7 0 0 1  755.7 480.9 L 687 549.6 A 68.7 68.7 0 0 0 755.7 480.9" fill="#7f8998"/><rect x="755.7" y="480.9" width="68.7" height="68.7" fill="#e8ddcb"/><path d="M 755.7 480.9 A 68.7 68.7 0 0 0 824.4000000000001 549.6 L 824.4000000000001 480.9" fill="#f8f9f9"/><rect x="824.4000000000001" y="480.90000000000003" width="68.7" height="68.7" fill="#ffffff"/><rect x="824.4" y="480.9" width="34.35" height="34.35" fill="#255162"/><g transform="translate(824.4,480.9) scale(1.7175) rotate(0)"><path d="M13 0H20V7L7 20H0V13L13 0Z" fill="#aebec4"/></g><rect x="858.75" y="480.9" width="34.35" height="34.35" fill="#6da6a5"/><path d="M 858.75 480.9 A 34.35 34.35 0 0 0 893.1 515.25 L 893.1 480.9" fill="#f9f6f0"/><rect x="824.4" y="515.25" width="34.35" height="34.35" fill="#e3d4b7"/><g transform="translate(824.4,515.25) scale(1.7175) rotate(0)"><path d="M13 0H20V7L7 20H0V13L13 0Z" fill="#ebe1cd"/></g><rect x="858.75" y="515.25" width="34.35" height="34.35" fill="#0e3e51"/><path d="M 858.75 549.6 A 34.35 34.35 0 0 1  893.1 515.25 L 858.75 549.6 A 34.35 34.35 0 0 0 893.1 515.25" fill="#fefefe"/><rect x="893.1" y="480.9" width="68.7" height="68.7" fill="#f1eadc"/><rect x="893.1" y="480.9" width="68.7" height="68.7" fill="#6ba5a4"/><rect x="961.8" y="480.9" width="68.7" height="68.7" fill="#428c8b"/><polygon points="961.8,480.9 1030.5,549.6 961.8,549.6" fill="#267b7a"/><rect x="0" y="549.6" width="68.7" height="68.7" fill="#ffffff"/><path d="M 0 618.3000000000001 A 68.7 68.7 0 0 1  68.7 549.6 L 0 618.3000000000001 A 68.7 68.7 0 0 0 68.7 549.6" fill="#fefdfd"/><rect x="68.7" y="549.6" width="68.7" height="68.7" fill="#ffffff"/><rect x="68.7" y="549.6" width="34.35" height="34.35" fill="#e6d9c0"/><g transform="translate(68.7,549.6) scale(1.7175) rotate(0)"><path d="M10 0L20 10L10 20L0 10L10 0Z" fill="#677284"/></g><rect x="103.05" y="549.6" width="34.35" height="34.35" fill="#1b7473"/><rect x="103.05" y="549.6" width="34.35" height="34.35" fill="#f9fbfb"/><rect x="68.7" y="583.95" width="34.35" height="34.35" fill="#f0e8d8"/><path d="M 68.7 618.3000000000001 A 34.35 34.35 0 0 1  103.05000000000001 583.95 L 68.7 618.3000000000001 A 34.35 34.35 0 0 0 103.05000000000001 583.95" fill="#f0f6f6"/><rect x="103.05" y="583.95" width="34.35" height="34.35" fill="#d1b98b"/><path d="M 103.05 583.95 A 34.35 34.35 0 0 1  137.4 618.3000000000001 L 103.05 583.95 A 34.35 34.35 0 0 0 137.4 618.3000000000001" fill="#f2f7f7"/><rect x="137.4" y="549.6" width="68.7" height="68.7" fill="#ffffff"/><rect x="137.4" y="549.6" width="34.35" height="34.35" fill="#6b8994"/><g transform="translate(137.4,549.6) scale(1.7175) rotate(0)"><path d="M10 0L20 10L10 20L0 10L10 0Z" fill="#fcfbf9"/></g><rect x="171.75" y="549.6" width="34.35" height="34.35" fill="#d7dfe2"/><polygon points="206.1,549.6 206.1,583.95 171.75,583.95" fill="#8bb8b8"/><rect x="137.4" y="583.95" width="34.35" height="34.35" fill="#e9dfce"/><g transform="translate(137.4,583.95) scale(1.7175) rotate(0)"><path d="M10 0L20 10L10 20L0 10L10 0Z" fill="#efe7da"/></g><rect x="171.75" y="583.95" width="34.35" height="34.35" fill="#70a8a7"/><path d="M 171.75 618.3000000000001 A 34.35 34.35 0 0 1  206.1 583.95 L 171.75 618.3000000000001 A 34.35 34.35 0 0 0 206.1 583.95" fill="#fffefe"/><rect x="206.10000000000002" y="549.6" width="68.7" height="68.7" fill="#ffffff"/><rect x="206.1" y="549.6" width="34.35" height="34.35" fill="#dfcfae"/><path d="M 206.1 549.6 A 34.35 34.35 0 0 1  240.45 583.95 L 206.1 549.6 A 34.35 34.35 0 0 0 240.45 583.95" fill="#eae0cf"/><rect x="240.45" y="549.6" width="34.35" height="34.35" fill="#f9f6f0"/><g transform="translate(240.45,549.6) scale(1.7175) rotate(0)"><path d="M10 0L20 10L10 20L0 10L10 0Z" fill="#efe7da"/></g><rect x="206.1" y="583.95" width="34.35" height="34.35" fill="#197372"/><rect x="206.1" y="583.95" width="34.35" height="34.35" fill="#f9f6f1"/><rect x="240.45" y="583.95" width="34.35" height="34.35" fill="#265262"/><path d="M 240.45 618.3000000000001 A 34.35 34.35 0 0 1  274.8 583.95 L 240.45 618.3000000000001 A 34.35 34.35 0 0 0 274.8 583.95" fill="#f7f3ea"/><rect x="274.8" y="549.6" width="68.7" height="68.7" fill="#f2ebde"/><path d="M 274.8 549.6 A 68.7 68.7 0 0 1  343.5 618.3000000000001 L 274.8 549.6 A 68.7 68.7 0 0 0 343.5 618.3000000000001" fill="#f1eae0"/><rect x="343.5" y="549.6" width="68.7" height="68.7" fill="#ffffff"/><rect x="343.5" y="549.6" width="34.35" height="34.35" fill="#b3b9c2"/><g transform="translate(343.5,549.6) scale(1.7175) rotate(0)"><path d="M13 0H20V7L7 20H0V13L13 0Z" fill="#184658"/></g><rect x="377.85" y="549.6" width="34.35" height="34.35" fill="#576478"/><path d="M 377.85 583.95 A 34.35 34.35 0 0 1  412.20000000000005 549.6 L 377.85 583.95 A 34.35 34.35 0 0 0 412.20000000000005 549.6" fill="#dfe1e5"/><rect x="343.5" y="583.95" width="34.35" height="34.35" fill="#406775"/><rect x="343.5" y="583.95" width="34.35" height="34.35" fill="#e2d3b5"/><rect x="377.85" y="583.95" width="34.35" height="34.35" fill="#c9cdd3"/><g transform="translate(377.85,583.95) scale(1.7175) rotate(0)"><path d="M13 0H20V7L7 20H0V13L13 0Z" fill="#e7dbc3"/></g><rect x="412.2" y="549.6" width="68.7" height="68.7" fill="#c4c8cf"/><path d="M 412.2 618.3000000000001 A 68.7 68.7 0 0 0 480.9 549.6 L 412.2 549.6" fill="#dfcfae"/><rect x="480.9" y="549.6" width="68.7" height="68.7" fill="#faf8f3"/><path d="M 480.9 549.6 A 68.7 68.7 0 0 1  549.6 618.3000000000001 L 480.9 549.6 A 68.7 68.7 0 0 0 549.6 618.3000000000001" fill="#fdfdfb"/><rect x="549.6" y="549.6" width="68.7" height="68.7" fill="#3d6473"/><path d="M 549.6 618.3000000000001 A 68.7 68.7 0 0 0 618.3000000000001 549.6 L 549.6 549.6" fill="#0d3e50"/><rect x="618.3" y="549.6" width="68.7" height="68.7" fill="#faf8f4"/><rect x="618.3" y="549.6" width="68.7" height="68.7" fill="#d2ba8b"/><rect x="687" y="549.6" width="68.7" height="68.7" fill="#fefdfc"/><path d="M 687 549.6 A 68.7 68.7 0 0 0 755.7 618.3000000000001 L 755.7 549.6" fill="#fdfcfb"/><rect x="755.7" y="549.6" width="68.7" height="68.7" fill="#ffffff"/><rect x="755.7" y="549.6" width="34.35" height="34.35" fill="#fdfdfc"/><rect x="755.7" y="549.6" width="34.35" height="34.35" fill="#fefdfc"/><rect x="790.05" y="549.6" width="34.35" height="34.35" fill="#fefdfc"/><g transform="translate(790.05,549.6) scale(1.7175) rotate(0)"><path d="M10 0L20 10L10 20L0 10L10 0Z" fill="#f4efe7"/></g><rect x="755.7" y="583.95" width="34.35" height="34.35" fill="#cdd7db"/><path d="M 755.7 583.95 A 34.35 34.35 0 0 1  790.0500000000001 618.3000000000001 L 755.7 583.95 A 34.35 34.35 0 0 0 790.0500000000001 618.3000000000001" fill="#eff2f3"/><rect x="790.05" y="583.95" width="34.35" height="34.35" fill="#8ea5ad"/><polygon points="790.05,583.95 824.4,583.95 824.4,618.3000000000001" fill="#eadec9"/><rect x="824.4000000000001" y="549.6" width="68.7" height="68.7" fill="#ffffff"/><rect x="824.4" y="549.6" width="34.35" height="34.35" fill="#7e8897"/><rect x="824.4" y="549.6" width="34.35" height="34.35" fill="#fcfdfd"/><rect x="858.75" y="549.6" width="34.35" height="34.35" fill="#6da6a5"/><rect x="858.75" y="549.6" width="34.35" height="34.35" fill="#eceef0"/><rect x="824.4" y="583.95" width="34.35" height="34.35" fill="#fdfcfa"/><path d="M 824.4 583.95 A 34.35 34.35 0 0 1  858.75 618.3000000000001 L 824.4 583.95 A 34.35 34.35 0 0 0 858.75 618.3000000000001" fill="#e7dbc3"/><rect x="858.75" y="583.95" width="34.35" height="34.35" fill="#6d8b96"/><path d="M 858.75 583.95 A 34.35 34.35 0 0 1  893.1 618.3000000000001 L 858.75 583.95 A 34.35 34.35 0 0 0 893.1 618.3000000000001" fill="#1b2c47"/><rect x="893.1" y="549.6" width="68.7" height="68.7" fill="#ffffff"/><rect x="893.1" y="549.6" width="34.35" height="34.35" fill="#8f97a5"/><g transform="translate(893.1,549.6) scale(1.7175) rotate(0)"><path d="M13 0H20V7L7 20H0V13L13 0Z" fill="#828c9a"/></g><rect x="927.45" y="549.6" width="34.35" height="34.35" fill="#6a8893"/><rect x="927.45" y="549.6" width="34.35" height="34.35" fill="#cbcfd5"/><rect x="893.1" y="583.95" width="34.35" height="34.35" fill="#207776"/><path d="M 893.1 583.95 A 34.35 34.35 0 0 1  927.45 618.3000000000001 L 893.1 583.95 A 34.35 34.35 0 0 0 927.45 618.3000000000001" fill="#106d6c"/><rect x="927.45" y="583.95" width="34.35" height="34.35" fill="#2f807f"/><g transform="translate(927.45,583.95) scale(1.7175) rotate(0)"><path d="M10 0L20 10L10 20L0 10L10 0Z" fill="#d7c299"/></g><rect x="961.8" y="549.6" width="68.7" height="68.7" fill="#f1eadf"/><rect x="961.8" y="549.6" width="68.7" height="68.7" fill="#f7f3ec"/><rect x="0" y="618.3000000000001" width="68.7" height="68.7" fill="#ffffff"/><rect x="0" y="618.3" width="34.35" height="34.35" fill="#6fa7a6"/><path d="M 0 652.65 A 34.35 34.35 0 0 1  34.35 618.3 L 0 652.65 A 34.35 34.35 0 0 0 34.35 618.3" fill="#d7c29a"/><rect x="34.35" y="618.3" width="34.35" height="34.35" fill="#4a6f7d"/><g transform="translate(34.35,618.3) scale(1.7175) rotate(0)"><path d="M13 0H20V7L7 20H0V13L13 0Z" fill="#f3eee5"/></g><rect x="0" y="652.65" width="34.35" height="34.35" fill="#ebe2d3"/><path d="M 0 687 A 34.35 34.35 0 0 1  34.35 652.65 L 0 687 A 34.35 34.35 0 0 0 34.35 652.65" fill="#faf8f3"/><rect x="34.35" y="652.65" width="34.35" height="34.35" fill="#d0b888"/><rect x="34.35" y="652.65" width="34.35" height="34.35" fill="#fbf9f6"/><rect x="68.7" y="618.3" width="68.7" height="68.7" fill="#dac7a2"/><polygon points="68.7,618.3 137.4,687 68.7,687" fill="#bad5d5"/><rect x="137.4" y="618.3" width="68.7" height="68.7" fill="#b0cfce"/><polygon points="137.4,618.3 206.10000000000002,618.3 137.4,687" fill="#6d8a95"/><rect x="206.10000000000002" y="618.3000000000001" width="68.7" height="68.7" fill="#ffffff"/><rect x="206.1" y="618.3" width="34.35" height="34.35" fill="#e5d7bd"/><g transform="translate(206.1,618.3) scale(1.7175) rotate(0)"><path d="M13 0H20V7L7 20H0V13L13 0Z" fill="#e8dcc4"/></g><rect x="240.45" y="618.3" width="34.35" height="34.35" fill="#5f9d9c"/><path d="M 240.45 652.65 A 34.35 34.35 0 0 0 274.8 618.3 L 240.45 618.3" fill="#ede3d0"/><rect x="206.1" y="652.65" width="34.35" height="34.35" fill="#d4dde0"/><rect x="206.1" y="652.65" width="34.35" height="34.35" fill="#ecf3f3"/><rect x="240.45" y="652.65" width="34.35" height="34.35" fill="#eee6d8"/><polygon points="240.45,652.65 274.8,652.65 274.8,687" fill="#e5d7bd"/><rect x="274.8" y="618.3000000000001" width="68.7" height="68.7" fill="#ffffff"/><rect x="274.8" y="618.3" width="34.35" height="34.35" fill="#f8f5f0"/><g transform="translate(274.8,618.3) scale(1.7175) rotate(0)"><path d="M10 0L20 10L10 20L0 10L10 0Z" fill="#ece4d5"/></g><rect x="309.15" y="618.3" width="34.35" height="34.35" fill="#ffffff"/><rect x="309.15" y="618.3" width="34.35" height="34.35" fill="#fbf9f4"/><rect x="274.8" y="652.65" width="34.35" height="34.35" fill="#bdcacf"/><path d="M 274.8 652.65 A 34.35 34.35 0 0 1 309.15000000000003 687 L 274.8 687" fill="#f0e8dc"/><rect x="309.15" y="652.65" width="34.35" height="34.35" fill="#d3dcdf"/><g transform="translate(309.15,652.65) scale(1.7175) rotate(0)"><path d="M10 0L20 10L10 20L0 10L10 0Z" fill="#4e727f"/></g><rect x="343.5" y="618.3" width="68.7" height="68.7" fill="#cbdfdf"/><polygon points="343.5,618.3 412.2,618.3 343.5,687" fill="#dccaa6"/><rect x="412.2" y="618.3" width="68.7" height="68.7" fill="#8cb9b8"/><g transform="translate(412.2,618.3) scale(3.435) rotate(0)"><path d="M10 0L20 10L10 20L0 10L10 0Z" fill="#fdfcfb"/></g><rect x="480.9" y="618.3" width="68.7" height="68.7" fill="#bbd5d5"/><g transform="translate(480.9,618.3) scale(3.435) rotate(0)"><path d="M10 0L20 10L10 20L0 10L10 0Z" fill="#378584"/></g><rect x="549.6" y="618.3000000000001" width="68.7" height="68.7" fill="#ffffff"/><rect x="549.6" y="618.3" width="34.35" height="34.35" fill="#d4be92"/><polygon points="549.6,618.3 583.95,652.65 549.6,652.65" fill="#9eb2b9"/><rect x="583.95" y="618.3" width="34.35" height="34.35" fill="#fbf9f4"/><rect x="583.95" y="618.3" width="34.35" height="34.35" fill="#f5f1e9"/><rect x="549.6" y="652.65" width="34.35" height="34.35" fill="#fffefe"/><polygon points="549.6,652.65 583.95,652.65 583.95,687" fill="#f5f0e6"/><rect x="583.95" y="652.65" width="34.35" height="34.35" fill="#0c3d50"/><path d="M 583.95 652.65 A 34.35 34.35 0 0 1  618.3000000000001 687 L 583.95 652.65 A 34.35 34.35 0 0 0 618.3000000000001 687" fill="#f6f2eb"/><rect x="618.3000000000001" y="618.3000000000001" width="68.7" height="68.7" fill="#ffffff"/><rect x="618.3" y="618.3" width="34.35" height="34.35" fill="#f2ebde"/><polygon points="618.3,618.3 652.65,618.3 618.3,652.65" fill="#106d6c"/><rect x="652.65" y="618.3" width="34.35" height="34.35" fill="#7cafae"/><polygon points="687,618.3 687,652.65 652.65,652.65" fill="#f9fafb"/><rect x="618.3" y="652.65" width="34.35" height="34.35" fill="#096968"/><g transform="translate(618.3,652.65) scale(1.7175) rotate(0)"><path d="M10 0L20 10L10 20L0 10L10 0Z" fill="#ece4d5"/></g><rect x="652.65" y="652.65" width="34.35" height="34.35" fill="#f2ebe1"/><polygon points="652.65,652.65 687,652.65 652.65,687" fill="#435167"/><rect x="687" y="618.3" width="68.7" height="68.7" fill="#10223e"/><path d="M 687 618.3 A 68.7 68.7 0 0 1  755.7 687 L 687 618.3 A 68.7 68.7 0 0 0 755.7 687" fill="#0e203d"/><rect x="755.7" y="618.3" width="68.7" height="68.7" fill="#b8d3d3"/><path d="M 755.7 618.3 A 68.7 68.7 0 0 1  824.4000000000001 687 L 755.7 618.3 A 68.7 68.7 0 0 0 824.4000000000001 687" fill="#458d8c"/><rect x="824.4" y="618.3" width="68.7" height="68.7" fill="#6b7688"/><rect x="824.4" y="618.3" width="68.7" height="68.7" fill="#fbfdfd"/><rect x="893.1" y="618.3000000000001" width="68.7" height="68.7" fill="#ffffff"/><rect x="893.1" y="618.3" width="34.35" height="34.35" fill="#46546a"/><polygon points="927.45,618.3 927.45,652.65 893.1,652.65" fill="#23334d"/><rect x="927.45" y="618.3" width="34.35" height="34.35" fill="#a7b9c0"/><polygon points="927.45,618.3 961.8000000000001,652.65 927.45,652.65" fill="#207776"/><rect x="893.1" y="652.65" width="34.35" height="34.35" fill="#d9c59f"/><path d="M 893.1 687 A 34.35 34.35 0 0 1  927.45 652.65 L 893.1 687 A 34.35 34.35 0 0 0 927.45 652.65" fill="#e2d3b5"/><rect x="927.45" y="652.65" width="34.35" height="34.35" fill="#7d8796"/><g transform="translate(927.45,652.65) scale(1.7175) rotate(0)"><path d="M13 0H20V7L7 20H0V13L13 0Z" fill="#6da6a5"/></g><rect x="961.8" y="618.3" width="68.7" height="68.7" fill="#f7f7f8"/><g transform="translate(961.8,618.3) scale(3.435) rotate(0)"><path d="M13 0H20V7L7 20H0V13L13 0Z" fill="#eee5d4"/></g></g></svg>