<svg width="2847" height="4351" viewBox="0 0 2847 4351" fill="none" xmlns="http://www.w3.org/2000/svg">
<path d="M1251.67 89.3223H1591.46C1592.02 89.3223 1592.46 89.77 1592.46 90.3223V217.496H2739.2C2739.75 217.496 2740.2 217.943 2740.2 218.496V573.827C2740.2 574.379 2739.75 574.827 2739.2 574.827H2582.89C2582.89 3217.02 2740.09 3217.91 2740.2 4234.5C2740.2 4235.05 2739.75 4235.53 2739.2 4235.53H113.645C113.092 4235.53 112.645 4235.06 112.645 4234.5C112.759 3202.37 285.484 3191.8 285.484 574.827H113.645C113.092 574.827 112.645 574.379 112.645 573.827V218.496C112.645 217.943 113.092 217.496 113.645 217.496H1250.67V90.3223C1250.67 89.77 1251.12 89.3223 1251.67 89.3223Z" fill="#D2AC83"/>
<path d="M1250.67 217.496V90.3223C1250.67 89.77 1251.12 89.3223 1251.67 89.3223H1591.46C1592.02 89.3223 1592.46 89.77 1592.46 90.3223V217.496M1250.67 217.496H113.645C113.092 217.496 112.645 217.943 112.645 218.496V573.827C112.645 574.379 113.092 574.827 113.645 574.827H285.484M1250.67 217.496V574.827M565.135 574.827H285.484M675.83 574.827H737.975M848.67 574.827H1250.67M1250.67 574.827V773.855C1250.67 774.407 1251.12 774.855 1251.67 774.855H1591.46C1592.02 774.855 1592.46 774.407 1592.46 773.855V574.827M1592.46 574.827V217.496M1592.46 574.827H2582.89M1592.46 217.496H2739.2C2739.75 217.496 2740.2 217.943 2740.2 218.496V573.827C2740.2 574.379 2739.75 574.827 2739.2 574.827H2582.89M2080.5 1757V1236C2080.5 1235.45 2080.05 1235 2079.5 1235H770.5C769.948 1235 769.5 1235.45 769.5 1236V3843.5C769.5 3844.05 769.948 3844.5 770.5 3844.5H2079.5C2080.05 3844.5 2080.5 3844.05 2080.5 3843.5V1953.5M285.484 574.827C285.484 3191.8 112.759 3202.37 112.645 4234.5C112.645 4235.06 113.092 4235.53 113.645 4235.53H2739.2C2739.75 4235.53 2740.2 4235.05 2740.2 4234.5C2740.09 3217.91 2582.89 3217.02 2582.89 574.827" stroke="black" stroke-width="20"/>
<g clip-path="url(#clip0_888_12681)">
<rect width="1300" height="2600" transform="translate(776 1240)" fill="#D2AC83"/>
<path d="M2076 1240H776V3840H2076V1240Z" fill="white"/>
<path d="M961.714 1240H776V1425.71H961.714V1240Z" fill="white"/>
<path d="M868.867 1240H776V1332.87H868.867V1240Z" fill="#C9C5BA"/>
<path d="M776 1240C800.63 1240 824.251 1249.78 841.667 1267.2C859.083 1284.62 868.867 1308.24 868.867 1332.87H776" fill="#F4F1E9"/>
<path d="M961.734 1240H868.867V1332.87H961.734V1240Z" fill="#9A8E7C"/>
<path d="M868.867 1240C868.867 1264.63 878.651 1288.25 896.067 1305.67C913.483 1323.08 937.104 1332.87 961.734 1332.87V1240" fill="#B1A89A"/>
<path d="M868.867 1332.87H776V1425.73H868.867V1332.87Z" fill="#CD7457"/>
<path d="M776 1425.73C776 1401.1 785.784 1377.48 803.2 1360.07C820.616 1342.65 844.237 1332.87 868.867 1332.87L776 1425.73C800.63 1425.73 824.251 1415.95 841.667 1398.53C859.083 1381.12 868.867 1357.5 868.867 1332.87" fill="#BF4E29"/>
<path d="M961.734 1332.87H868.867V1425.73H961.734V1332.87Z" fill="#B8B3A4"/>
<path d="M961.734 1332.87H868.867V1425.73H961.734V1332.87Z" fill="#D0CDC2"/>
<path d="M1147.4 1240H961.699V1425.7H1147.4V1240Z" fill="#E0DDD7"/>
<path d="M961.699 1240C1010.95 1240 1058.18 1259.56 1093.01 1294.39C1127.83 1329.22 1147.4 1376.45 1147.4 1425.7L961.699 1240C961.699 1289.25 981.264 1336.48 1016.09 1371.31C1050.91 1406.13 1098.15 1425.7 1147.4 1425.7" fill="#DC9E8A"/>
<path d="M1333.13 1240H1147.43V1425.7H1333.13V1240Z" fill="#B0AA99"/>
<path d="M1147.43 1240C1196.68 1240 1243.92 1259.56 1278.74 1294.39C1313.57 1329.22 1333.13 1376.45 1333.13 1425.7H1147.43" fill="#BCB4A8"/>
<path d="M1518.83 1240H1333.13V1425.7H1518.83V1240Z" fill="#F4F0E8"/>
<path d="M1518.83 1240H1333.13V1425.7H1518.83V1240Z" fill="#EBE5D6"/>
<path d="M1704.57 1240H1518.87V1425.7H1704.57V1240Z" fill="#BCB4A9"/>
<path d="M1518.87 1425.7C1518.87 1376.45 1538.43 1329.22 1573.26 1294.39C1608.08 1259.56 1655.32 1240 1704.57 1240L1518.87 1425.7C1568.12 1425.7 1615.35 1406.13 1650.18 1371.31C1685 1336.48 1704.57 1289.25 1704.57 1240" fill="#E8E1D0"/>
<path d="M1890.29 1240H1704.57V1425.71H1890.29V1240Z" fill="white"/>
<path d="M1797.43 1240H1704.57V1332.87H1797.43V1240Z" fill="#F8F8F6"/>
<path d="M1704.57 1240H1797.43L1704.57 1332.87V1240Z" fill="#E4B4A4"/>
<path d="M1890.3 1240H1797.43V1332.87H1890.3V1240Z" fill="#F4F3F1"/>
<path d="M1797.43 1240L1890.3 1332.87H1797.43V1240Z" fill="#CCC6BD"/>
<path d="M1797.43 1332.87H1704.57V1425.73H1797.43V1332.87Z" fill="#D07C61"/>
<path d="M1751 1332.87L1797.43 1379.3L1751 1425.73L1704.57 1379.3L1751 1332.87Z" fill="#8D806C"/>
<path d="M1890.3 1332.87H1797.43V1425.73H1890.3V1332.87Z" fill="#DC9E8A"/>
<path d="M1820.65 1332.87H1843.87L1820.65 1356.08L1797.43 1379.3V1356.08L1820.65 1332.87Z" fill="#E7E0CF"/>
<path d="M1890.3 1402.52V1425.73H1867.08L1890.3 1402.52Z" fill="#E7E0CF"/>
<path d="M1890.3 1356.08V1379.3L1867.08 1402.52L1843.87 1425.73H1820.65L1890.3 1356.08Z" fill="#E7E0CF"/>
<path d="M1867.08 1332.87H1890.3L1820.65 1402.52L1797.43 1425.74V1402.52L1867.08 1332.87Z" fill="#E7E0CF"/>
<path d="M2076 1240H1890.3V1425.7H2076V1240Z" fill="#ECCABF"/>
<path d="M1890.3 1425.7C1890.3 1376.45 1909.87 1329.22 1944.69 1294.39C1979.52 1259.56 2026.75 1240 2076 1240V1425.7" fill="#AFA998"/>
<path d="M961.714 1425.71H776V1611.43H961.714V1425.71Z" fill="white"/>
<path d="M868.867 1425.7H776V1518.57H868.867V1425.7Z" fill="#E8E1D0"/>
<path d="M868.867 1425.7H776V1518.57H868.867V1425.7Z" fill="#C5C1B4"/>
<path d="M961.734 1425.7H868.867V1518.57H961.734V1425.7Z" fill="white"/>
<path d="M868.867 1425.7C893.497 1425.7 917.118 1435.48 934.534 1452.9C951.95 1470.32 961.734 1493.94 961.734 1518.57H868.867" fill="#ECEBE7"/>
<path d="M868.867 1518.57H776V1611.43H868.867V1518.57Z" fill="#8C7E6A"/>
<path d="M868.867 1518.57H776V1611.43H868.867V1518.57Z" fill="#FAF8F4"/>
<path d="M961.734 1518.57H868.867V1611.43H961.734V1518.57Z" fill="#B8AFA3"/>
<path d="M961.734 1518.57H868.867V1611.43H961.734V1518.57Z" fill="#F1EDE2"/>
<path d="M1147.43 1425.71H961.714V1611.43H1147.43V1425.71Z" fill="white"/>
<path d="M1054.57 1425.7H961.699V1518.57H1054.57V1425.7Z" fill="#978F78"/>
<path d="M961.699 1425.7C986.329 1425.7 1009.95 1435.48 1027.37 1452.9C1044.78 1470.32 1054.57 1493.94 1054.57 1518.57L961.699 1425.7C961.699 1450.33 971.483 1473.95 988.899 1491.37C1006.32 1508.78 1029.94 1518.57 1054.57 1518.57" fill="#FBFBFA"/>
<path d="M1147.43 1425.7H1054.57V1518.57H1147.43V1425.7Z" fill="#FDFCFB"/>
<path d="M1054.57 1518.57C1054.57 1493.94 1064.35 1470.32 1081.77 1452.9C1099.18 1435.48 1122.8 1425.7 1147.43 1425.7L1054.57 1518.57C1079.2 1518.57 1102.82 1508.78 1120.23 1491.37C1137.65 1473.95 1147.43 1450.33 1147.43 1425.7" fill="#C1522E"/>
<path d="M1054.57 1518.57H961.699V1611.43H1054.57V1518.57Z" fill="#D68C74"/>
<path d="M961.699 1611.43C986.329 1611.43 1009.95 1601.65 1027.37 1584.23C1044.78 1566.82 1054.57 1543.2 1054.57 1518.57H961.699" fill="#9C9580"/>
<path d="M1147.43 1518.57H1054.57V1611.43H1147.43V1518.57Z" fill="#B8B3A4"/>
<path d="M1101 1518.57L1147.43 1565L1101 1611.43L1054.57 1565L1101 1518.57Z" fill="#D68E76"/>
<path d="M1333.14 1425.71H1147.43V1611.43H1333.14V1425.71Z" fill="white"/>
<path d="M1240.3 1425.7H1147.43V1518.57H1240.3V1425.7Z" fill="#BEB6AB"/>
<path d="M1193.87 1425.7L1240.3 1472.13L1193.87 1518.57L1147.43 1472.13L1193.87 1425.7Z" fill="#C76443"/>
<path d="M1333.17 1425.7H1240.3V1518.57H1333.17V1425.7Z" fill="#C7C3B7"/>
<path d="M1240.3 1518.57C1240.3 1493.94 1250.09 1470.32 1267.5 1452.9C1284.92 1435.48 1308.54 1425.7 1333.17 1425.7L1240.3 1518.57C1264.93 1518.57 1288.55 1508.78 1305.97 1491.37C1323.38 1473.95 1333.17 1450.33 1333.17 1425.7" fill="#C6BFB5"/>
<path d="M1240.3 1518.57H1147.43V1611.43H1240.3V1518.57Z" fill="#BDB5AA"/>
<path d="M1240.3 1518.57H1147.43V1611.43H1240.3V1518.57Z" fill="#F1EDE2"/>
<path d="M1333.17 1518.57H1240.3V1611.43H1333.17V1518.57Z" fill="#EEE9DC"/>
<path d="M1240.3 1518.57H1333.17V1611.43L1240.3 1518.57Z" fill="#EBC7BB"/>
<path d="M1518.83 1425.7H1333.13V1611.4H1518.83V1425.7Z" fill="#ACA294"/>
<path d="M1379.56 1425.7H1425.98L1379.56 1472.12L1333.13 1518.55V1472.12L1379.56 1425.7Z" fill="#FCF8F6"/>
<path d="M1518.83 1564.97V1611.4H1472.41L1518.83 1564.97Z" fill="#FCF8F6"/>
<path d="M1518.83 1472.12V1518.55L1472.41 1564.97L1425.98 1611.4H1379.56L1518.83 1472.12Z" fill="#FCF8F6"/>
<path d="M1472.41 1425.7H1518.83L1379.56 1564.98L1333.13 1611.4V1564.98L1472.41 1425.7Z" fill="#FCF8F6"/>
<path d="M1704.57 1425.7H1518.87V1611.4H1704.57V1425.7Z" fill="#EFEEEB"/>
<path d="M1518.87 1425.7H1704.57V1611.4L1518.87 1425.7Z" fill="#CD7355"/>
<path d="M1890.27 1425.7H1704.57V1611.4H1890.27V1425.7Z" fill="#F3F0E7"/>
<path d="M1750.99 1425.7H1797.42L1750.99 1472.12L1704.57 1518.55V1472.12L1750.99 1425.7Z" fill="#C55C3B"/>
<path d="M1890.27 1564.97V1611.4H1843.84L1890.27 1564.97Z" fill="#C55C3B"/>
<path d="M1890.27 1472.12V1518.55L1843.84 1564.97L1797.42 1611.4H1750.99L1890.27 1472.12Z" fill="#C55C3B"/>
<path d="M1843.84 1425.7H1890.27L1750.99 1564.98L1704.57 1611.4V1564.98L1843.84 1425.7Z" fill="#C55C3B"/>
<path d="M2076 1425.7H1890.3V1611.4H2076V1425.7Z" fill="#B3A99C"/>
<path d="M1890.3 1611.4C1939.55 1611.4 1986.78 1591.83 2021.61 1557.01C2056.44 1522.18 2076 1474.95 2076 1425.7H1890.3" fill="#AFA997"/>
<path d="M961.714 1611.43H776V1797.14H961.714V1611.43Z" fill="white"/>
<path d="M868.867 1611.43H776V1704.3H868.867V1611.43Z" fill="#CECABF"/>
<path d="M799.217 1611.43H822.434L799.217 1634.65L776 1657.87V1634.65L799.217 1611.43Z" fill="#CDCABF"/>
<path d="M868.867 1681.08V1704.3H845.65L868.867 1681.08Z" fill="#CDCABF"/>
<path d="M868.867 1634.65V1657.87L845.65 1681.08L822.434 1704.3H799.217L868.867 1634.65Z" fill="#CDCABF"/>
<path d="M845.65 1611.43H868.867L799.217 1681.08L776 1704.3V1681.08L845.65 1611.43Z" fill="#CDCABF"/>
<path d="M961.734 1611.43H868.867V1704.3H961.734V1611.43Z" fill="#C7C2B6"/>
<path d="M868.867 1611.43C893.497 1611.43 917.118 1621.22 934.534 1638.63C951.95 1656.05 961.734 1679.67 961.734 1704.3L868.867 1611.43C868.867 1623.63 871.269 1635.71 875.936 1646.97C880.603 1658.24 887.444 1668.48 896.067 1677.1C904.691 1685.72 914.928 1692.56 926.196 1697.23C937.463 1701.9 949.539 1704.3 961.734 1704.3" fill="#F6F4ED"/>
<path d="M868.867 1704.3H776V1797.17H868.867V1704.3Z" fill="#867762"/>
<path d="M822.434 1704.3L868.867 1750.73L822.434 1797.17L776 1750.73L822.434 1704.3Z" fill="#F5F2EA"/>
<path d="M961.734 1704.3H868.867V1797.17H961.734V1704.3Z" fill="#E3DFDA"/>
<path d="M915.301 1704.3L961.734 1750.73L915.301 1797.17L868.867 1750.73L915.301 1704.3Z" fill="#DACFB4"/>
<path d="M1147.43 1611.43H961.714V1797.14H1147.43V1611.43Z" fill="white"/>
<path d="M1054.57 1611.43H961.699V1704.3H1054.57V1611.43Z" fill="#BEB9AB"/>
<path d="M1008.13 1611.43L1054.57 1657.87L1008.13 1704.3L961.699 1657.87L1008.13 1611.43Z" fill="#B8AFA3"/>
<path d="M1147.43 1611.43H1054.57V1704.3H1147.43V1611.43Z" fill="#D3CFC6"/>
<path d="M1077.78 1611.43H1101L1077.78 1634.65L1054.57 1657.87V1634.65L1077.78 1611.43Z" fill="#EEECE9"/>
<path d="M1147.43 1681.08V1704.3H1124.22L1147.43 1681.08Z" fill="#EEECE9"/>
<path d="M1147.43 1634.65V1657.87L1124.22 1681.08L1101 1704.3H1077.78L1147.43 1634.65Z" fill="#EEECE9"/>
<path d="M1124.22 1611.43H1147.43L1077.78 1681.08L1054.57 1704.3V1681.08L1124.22 1611.43Z" fill="#EEECE9"/>
<path d="M1054.57 1704.3H961.699V1797.17H1054.57V1704.3Z" fill="#C04F2B"/>
<path d="M984.916 1704.3H1008.13L984.916 1727.52L961.699 1750.73V1727.52L984.916 1704.3Z" fill="#DFDCD6"/>
<path d="M1054.57 1773.95V1797.17H1031.35L1054.57 1773.95Z" fill="#DFDCD6"/>
<path d="M1054.57 1727.52V1750.73L1031.35 1773.95L1008.13 1797.17H984.916L1054.57 1727.52Z" fill="#DFDCD6"/>
<path d="M1031.35 1704.3H1054.57L984.916 1773.95L961.699 1797.17V1773.95L1031.35 1704.3Z" fill="#DFDCD6"/>
<path d="M1147.43 1704.3H1054.57V1797.17H1147.43V1704.3Z" fill="#E8E1D0"/>
<path d="M1101 1704.3L1147.43 1750.73L1101 1797.17L1054.57 1750.73L1101 1704.3Z" fill="#DB9B87"/>
<path d="M1333.13 1611.43H1147.43V1797.13H1333.13V1611.43Z" fill="#BAB2A6"/>
<path d="M1193.86 1611.43H1240.28L1193.86 1657.86L1147.43 1704.28V1657.86L1193.86 1611.43Z" fill="#BF4E29"/>
<path d="M1333.13 1750.71V1797.13H1286.71L1333.13 1750.71Z" fill="#BF4E29"/>
<path d="M1333.13 1657.86V1704.28L1286.71 1750.71L1240.28 1797.13H1193.86L1333.13 1657.86Z" fill="#BF4E29"/>
<path d="M1286.71 1611.43H1333.13L1193.86 1750.71L1147.43 1797.13V1750.71L1286.71 1611.43Z" fill="#BF4E29"/>
<path d="M1518.83 1611.43H1333.13V1797.13H1518.83V1611.43Z" fill="#968E77"/>
<path d="M1379.56 1611.43H1425.98L1379.56 1657.86L1333.13 1704.28V1657.86L1379.56 1611.43Z" fill="#F3DFD8"/>
<path d="M1518.83 1750.71V1797.13H1472.41L1518.83 1750.71Z" fill="#F3DFD8"/>
<path d="M1518.83 1657.86V1704.28L1472.41 1750.71L1425.98 1797.13H1379.56L1518.83 1657.86Z" fill="#F3DFD8"/>
<path d="M1472.41 1611.43H1518.83L1379.56 1750.71L1333.13 1797.13V1750.71L1472.41 1611.43Z" fill="#F3DFD8"/>
<path d="M1704.57 1611.43H1518.87V1797.13H1704.57V1611.43Z" fill="#A39888"/>
<path d="M1518.87 1611.43C1518.87 1660.68 1538.43 1707.92 1573.26 1742.74C1608.08 1777.57 1655.32 1797.13 1704.57 1797.13V1611.43" fill="#EFEEEA"/>
<path d="M1890.27 1611.43H1704.57V1797.13H1890.27V1611.43Z" fill="#AEA896"/>
<path d="M1704.57 1611.43H1890.27L1704.57 1797.13V1611.43Z" fill="#E8E6E2"/>
<path d="M2076 1611.43H1890.3V1797.13H2076V1611.43Z" fill="#C0BCAE"/>
<path d="M1890.3 1797.13C1890.3 1772.75 1895.1 1748.6 1904.44 1726.07C1913.77 1703.54 1927.45 1683.07 1944.69 1665.82C1979.52 1631 2026.75 1611.43 2076 1611.43L1890.3 1797.13C1939.55 1797.13 1986.78 1777.57 2021.61 1742.74C2056.44 1707.92 2076 1660.68 2076 1611.43" fill="#887964"/>
<path d="M961.699 1797.13H776V1982.83H961.699V1797.13Z" fill="#BAB2A6"/>
<path d="M961.699 1797.13H776V1982.83H961.699V1797.13Z" fill="#958D77"/>
<path d="M1147.43 1797.14H961.714V1982.86H1147.43V1797.14Z" fill="white"/>
<path d="M1054.57 1797.13H961.699V1890H1054.57V1797.13Z" fill="#CDC9BE"/>
<path d="M984.916 1797.13H1008.13L984.916 1820.35L961.699 1843.57V1820.35L984.916 1797.13Z" fill="#BFBAAD"/>
<path d="M1054.57 1866.78V1890H1031.35L1054.57 1866.78Z" fill="#BFBAAD"/>
<path d="M1054.57 1820.35V1843.57L1031.35 1866.78L1008.13 1890H984.916L1054.57 1820.35Z" fill="#BFBAAD"/>
<path d="M1031.35 1797.13H1054.57L984.916 1866.78L961.699 1890V1866.78L1031.35 1797.13Z" fill="#BFBAAD"/>
<path d="M1147.43 1797.13H1054.57V1890H1147.43V1797.13Z" fill="#E3B0A0"/>
<path d="M1054.57 1797.13H1147.43V1890L1054.57 1797.13Z" fill="#ECCABF"/>
<path d="M1054.57 1890H961.699V1982.87H1054.57V1890Z" fill="#A09585"/>
<path d="M984.916 1890H1008.13L984.916 1913.22L961.699 1936.43V1913.22L984.916 1890Z" fill="#ABA193"/>
<path d="M1054.57 1959.65V1982.87H1031.35L1054.57 1959.65Z" fill="#ABA193"/>
<path d="M1054.57 1913.22V1936.43L1031.35 1959.65L1008.13 1982.87H984.916L1054.57 1913.22Z" fill="#ABA193"/>
<path d="M1031.35 1890H1054.57L984.916 1959.65L961.699 1982.87V1959.65L1031.35 1890Z" fill="#ABA193"/>
<path d="M1147.43 1890H1054.57V1982.87H1147.43V1890Z" fill="#EDE8DB"/>
<path d="M1147.43 1890H1054.57V1982.87H1147.43V1890Z" fill="#DBD1B6"/>
<path d="M1333.13 1797.13H1147.43V1982.83H1333.13V1797.13Z" fill="#DBD1B7"/>
<path d="M1333.13 1797.13H1147.43V1982.83H1333.13V1797.13Z" fill="#D07C61"/>
<path d="M1518.86 1797.14H1333.14V1982.86H1518.86V1797.14Z" fill="white"/>
<path d="M1426 1797.13H1333.13V1890H1426V1797.13Z" fill="#C3BFB2"/>
<path d="M1333.13 1890C1333.13 1877.8 1335.53 1865.73 1340.2 1854.46C1344.87 1843.19 1351.71 1832.96 1360.33 1824.33C1368.96 1815.71 1379.19 1808.87 1390.46 1804.2C1401.73 1799.53 1413.8 1797.13 1426 1797.13V1890" fill="#E4B4A5"/>
<path d="M1518.87 1797.13H1426V1890H1518.87V1797.13Z" fill="#FDFCFB"/>
<path d="M1426 1797.13H1518.87V1890L1426 1797.13Z" fill="#DBD1B7"/>
<path d="M1426 1890H1333.13V1982.87H1426V1890Z" fill="#EBC8BD"/>
<path d="M1426 1890H1333.13V1982.87H1426V1890Z" fill="#F0EBE0"/>
<path d="M1518.87 1890H1426V1982.87H1518.87V1890Z" fill="#A09585"/>
<path d="M1472.43 1890L1518.87 1936.43L1472.43 1982.87L1426 1936.43L1472.43 1890Z" fill="#F6F5F3"/>
<path d="M1704.57 1797.13H1518.87V1982.83H1704.57V1797.13Z" fill="#DA9781"/>
<path d="M1611.72 1797.13L1704.57 1889.98L1611.72 1982.83L1518.87 1889.98L1611.72 1797.13Z" fill="#FEFBFA"/>
<path d="M1890.27 1797.13H1704.57V1982.83H1890.27V1797.13Z" fill="#B8B3A4"/>
<path d="M1704.57 1797.13C1753.82 1797.13 1801.05 1816.7 1835.88 1851.52C1870.7 1886.35 1890.27 1933.58 1890.27 1982.83L1704.57 1797.13C1704.57 1846.38 1724.13 1893.62 1758.96 1928.44C1793.78 1963.27 1841.02 1982.83 1890.27 1982.83" fill="#DFD6BF"/>
<path d="M2076 1797.13H1890.3V1982.83H2076V1797.13Z" fill="#E9E2D2"/>
<path d="M1936.73 1797.13H1983.15L1936.73 1843.56L1890.3 1889.98V1843.56L1936.73 1797.13Z" fill="white"/>
<path d="M2076 1936.41V1982.83H2029.58L2076 1936.41Z" fill="white"/>
<path d="M2076 1843.56V1889.98L2029.58 1936.41L1983.15 1982.83H1936.73L2076 1843.56Z" fill="white"/>
<path d="M2029.58 1797.13H2076L1936.73 1936.41L1890.3 1982.83V1936.41L2029.58 1797.13Z" fill="white"/>
<path d="M961.699 1982.87H776V2168.57H961.699V1982.87Z" fill="#CEC8C0"/>
<path d="M868.85 1982.87L961.699 2075.72L868.85 2168.57L776 2075.72L868.85 1982.87Z" fill="#CA6A4B"/>
<path d="M1147.4 1982.87H961.699V2168.57H1147.4V1982.87Z" fill="#E4E2DC"/>
<path d="M961.699 2168.57C961.699 2119.32 981.264 2072.08 1016.09 2037.26C1050.91 2002.43 1098.15 1982.87 1147.4 1982.87V2168.57" fill="#F6F4ED"/>
<path d="M1333.13 1982.87H1147.43V2168.57H1333.13V1982.87Z" fill="#928572"/>
<path d="M1193.86 1982.87H1240.28L1193.86 2029.29L1147.43 2075.72V2029.29L1193.86 1982.87Z" fill="#D7D4CC"/>
<path d="M1333.13 2122.14V2168.57H1286.71L1333.13 2122.14Z" fill="#D7D4CC"/>
<path d="M1333.13 2029.29V2075.72L1286.71 2122.14L1240.28 2168.57H1193.86L1333.13 2029.29Z" fill="#D7D4CC"/>
<path d="M1286.71 1982.87H1333.13L1193.86 2122.14L1147.43 2168.57V2122.14L1286.71 1982.87Z" fill="#D7D4CC"/>
<path d="M1518.83 1982.87H1333.13V2168.57H1518.83V1982.87Z" fill="#EFD4CB"/>
<path d="M1333.13 2168.57C1333.13 2119.32 1352.7 2072.08 1387.52 2037.26C1422.35 2002.43 1469.58 1982.87 1518.83 1982.87L1333.13 2168.57C1357.52 2168.57 1381.67 2163.76 1404.2 2154.43C1426.73 2145.1 1447.2 2131.42 1464.44 2114.18C1481.69 2096.93 1495.36 2076.46 1504.7 2053.93C1514.03 2031.4 1518.83 2007.25 1518.83 1982.87" fill="#E3DBC7"/>
<path d="M1704.57 1982.87H1518.87V2168.57H1704.57V1982.87Z" fill="#CBC5BC"/>
<path d="M1704.57 1982.87V2168.57H1518.87L1704.57 1982.87Z" fill="#DCD9D2"/>
<path d="M1890.27 1982.87H1704.57V2168.57H1890.27V1982.87Z" fill="#B6B1A1"/>
<path d="M1704.57 1982.87C1753.82 1982.87 1801.05 2002.43 1835.88 2037.26C1870.7 2072.08 1890.27 2119.32 1890.27 2168.57L1704.57 1982.87C1704.57 2032.12 1724.13 2079.35 1758.96 2114.18C1793.78 2149 1841.02 2168.57 1890.27 2168.57" fill="#E3DAC5"/>
<path d="M2076 1982.87H1890.3V2168.57H2076V1982.87Z" fill="#A8A28F"/>
<path d="M1936.73 1982.87H1983.15L1936.73 2029.29L1890.3 2075.72V2029.29L1936.73 1982.87Z" fill="#D6D3CB"/>
<path d="M2076 2122.14V2168.57H2029.58L2076 2122.14Z" fill="#D6D3CB"/>
<path d="M2076 2029.29V2075.72L2029.58 2122.14L1983.15 2168.57H1936.73L2076 2029.29Z" fill="#D6D3CB"/>
<path d="M2029.58 1982.87H2076L1936.73 2122.14L1890.3 2168.57V2122.14L2029.58 1982.87Z" fill="#D6D3CB"/>
<path d="M961.699 2168.57H776V2354.27H961.699V2168.57Z" fill="#99917B"/>
<path d="M776 2168.57H961.699V2354.27L776 2168.57Z" fill="#F3EFE6"/>
<path d="M1147.4 2168.57H961.699V2354.27H1147.4V2168.57Z" fill="#F2DCD5"/>
<path d="M1054.55 2168.57L1147.4 2261.42L1054.55 2354.27L961.699 2261.42L1054.55 2168.57Z" fill="#83745E"/>
<path d="M1333.13 2168.57H1147.43V2354.27H1333.13V2168.57Z" fill="#FFFFFE"/>
<path d="M1240.28 2168.57L1333.13 2261.42L1240.28 2354.27L1147.43 2261.42L1240.28 2168.57Z" fill="#DFD5BD"/>
<path d="M1518.83 2168.57H1333.13V2354.27H1518.83V2168.57Z" fill="#F5F3F2"/>
<path d="M1518.83 2168.57H1333.13V2354.27H1518.83V2168.57Z" fill="#F7F4EE"/>
<path d="M1704.57 2168.57H1518.87V2354.27H1704.57V2168.57Z" fill="#DFD6BF"/>
<path d="M1518.87 2168.57L1704.57 2354.27H1518.87V2168.57Z" fill="#C55E3D"/>
<path d="M1890.27 2168.57H1704.57V2354.27H1890.27V2168.57Z" fill="#ABA192"/>
<path d="M1890.27 2168.57H1704.57V2354.27H1890.27V2168.57Z" fill="#F8F6F0"/>
<path d="M2076 2168.57H1890.29V2354.29H2076V2168.57Z" fill="white"/>
<path d="M1983.17 2168.57H1890.3V2261.43H1983.17V2168.57Z" fill="#EFEEEB"/>
<path d="M1913.52 2168.57H1936.73L1913.52 2191.78L1890.3 2215V2191.78L1913.52 2168.57Z" fill="#A29786"/>
<path d="M1983.17 2238.22V2261.43H1959.95L1983.17 2238.22Z" fill="#A29786"/>
<path d="M1983.17 2191.78V2215L1959.95 2238.22L1936.73 2261.43H1913.52L1983.17 2191.78Z" fill="#A29786"/>
<path d="M1959.95 2168.57H1983.17L1913.52 2238.22L1890.3 2261.43V2238.22L1959.95 2168.57Z" fill="#A29786"/>
<path d="M2076 2168.57H1983.13V2261.43H2076V2168.57Z" fill="#B3A99C"/>
<path d="M2029.57 2168.57L2076 2215L2029.57 2261.43L1983.13 2215L2029.57 2168.57Z" fill="#D8947D"/>
<path d="M1983.17 2261.43H1890.3V2354.3H1983.17V2261.43Z" fill="#E2D9C4"/>
<path d="M1890.3 2261.43H1983.17V2354.3L1890.3 2261.43Z" fill="#E7E5DF"/>
<path d="M2076 2261.43H1983.13V2354.3H2076V2261.43Z" fill="#E6BAAC"/>
<path d="M2006.35 2261.43H2029.57L2006.35 2284.65L1983.13 2307.87V2284.65L2006.35 2261.43Z" fill="#DCD2B8"/>
<path d="M2076 2331.08V2354.3H2052.78L2076 2331.08Z" fill="#DCD2B8"/>
<path d="M2076 2284.65V2307.87L2052.78 2331.08L2029.57 2354.3H2006.35L2076 2284.65Z" fill="#DCD2B8"/>
<path d="M2052.78 2261.43H2076L2006.35 2331.08L1983.13 2354.3V2331.08L2052.78 2261.43Z" fill="#DCD2B8"/>
<path d="M961.699 2354.3H776V2540H961.699V2354.3Z" fill="#FEFEFD"/>
<path d="M776 2354.3H961.699V2540L776 2354.3Z" fill="#CA6B4C"/>
<path d="M1147.43 2354.29H961.714V2540H1147.43V2354.29Z" fill="white"/>
<path d="M1054.57 2354.3H961.699V2447.17H1054.57V2354.3Z" fill="#C5BEB3"/>
<path d="M984.916 2354.3H1008.13L984.916 2377.52L961.699 2400.73V2377.52L984.916 2354.3Z" fill="#E0DED7"/>
<path d="M1054.57 2423.95V2447.17H1031.35L1054.57 2423.95Z" fill="#E0DED7"/>
<path d="M1054.57 2377.52V2400.73L1031.35 2423.95L1008.13 2447.17H984.916L1054.57 2377.52Z" fill="#E0DED7"/>
<path d="M1031.35 2354.3H1054.57L984.916 2423.95L961.699 2447.17V2423.95L1031.35 2354.3Z" fill="#E0DED7"/>
<path d="M1147.43 2354.3H1054.57V2447.17H1147.43V2354.3Z" fill="#C25633"/>
<path d="M1147.43 2354.3H1054.57V2447.17H1147.43V2354.3Z" fill="#E3B1A0"/>
<path d="M1054.57 2447.13H961.699V2540H1054.57V2447.13Z" fill="#E1AD9C"/>
<path d="M961.699 2447.13C973.895 2447.13 985.971 2449.53 997.238 2454.2C1008.51 2458.87 1018.74 2465.71 1027.37 2474.33C1035.99 2482.96 1042.83 2493.19 1047.5 2504.46C1052.16 2515.73 1054.57 2527.8 1054.57 2540L961.699 2447.13C961.699 2471.76 971.483 2495.38 988.899 2512.8C1006.32 2530.22 1029.94 2540 1054.57 2540" fill="#DB9A85"/>
<path d="M1147.43 2447.13H1054.57V2540H1147.43V2447.13Z" fill="#E1D9C3"/>
<path d="M1054.57 2447.13C1066.76 2447.13 1078.84 2449.53 1090.11 2454.2C1101.37 2458.87 1111.61 2465.71 1120.23 2474.33C1128.86 2482.96 1135.7 2493.19 1140.36 2504.46C1145.03 2515.73 1147.43 2527.8 1147.43 2540L1054.57 2447.13C1054.57 2471.76 1064.35 2495.38 1081.77 2512.8C1099.18 2530.22 1122.8 2540 1147.43 2540" fill="#8F826E"/>
<path d="M1333.13 2354.3H1147.43V2540H1333.13V2354.3Z" fill="#A49D89"/>
<path d="M1333.13 2354.3H1147.43V2540H1333.13V2354.3Z" fill="#A19A85"/>
<path d="M1518.83 2354.3H1333.13V2540H1518.83V2354.3Z" fill="#C1BDAF"/>
<path d="M1333.13 2354.3C1357.52 2354.3 1381.67 2359.1 1404.2 2368.44C1426.73 2377.77 1447.2 2391.45 1464.44 2408.69C1481.69 2425.93 1495.36 2446.41 1504.7 2468.94C1514.03 2491.47 1518.83 2515.61 1518.83 2540H1333.13" fill="#E6B9AA"/>
<path d="M1704.57 2354.3H1518.87V2540H1704.57V2354.3Z" fill="#887965"/>
<path d="M1518.87 2354.3C1518.87 2403.55 1538.43 2450.78 1573.26 2485.61C1608.08 2520.44 1655.32 2540 1704.57 2540V2354.3" fill="#F8ECE8"/>
<path d="M1890.27 2354.3H1704.57V2540H1890.27V2354.3Z" fill="#99927C"/>
<path d="M1797.42 2354.3L1890.27 2447.15L1797.42 2540L1704.57 2447.15L1797.42 2354.3Z" fill="#F2F1EF"/>
<path d="M2076 2354.3H1890.3V2540H2076V2354.3Z" fill="#CE7559"/>
<path d="M1983.15 2354.3L2076 2447.15L1983.15 2540L1890.3 2447.15L1983.15 2354.3Z" fill="#E5B8A9"/>
<path d="M961.699 2540H776V2725.7H961.699V2540Z" fill="#FCFBF9"/>
<path d="M822.425 2540H868.85L822.425 2586.42L776 2632.85V2586.42L822.425 2540Z" fill="#F8F7F5"/>
<path d="M961.699 2679.28V2725.7H915.274L961.699 2679.28Z" fill="#F8F7F5"/>
<path d="M961.699 2586.42V2632.85L915.274 2679.27L868.85 2725.7H822.425L961.699 2586.42Z" fill="#F8F7F5"/>
<path d="M915.274 2540H961.699L822.425 2679.28L776 2725.7V2679.28L915.274 2540Z" fill="#F8F7F5"/>
<path d="M1147.4 2540H961.699V2725.7H1147.4V2540Z" fill="#EBE5D7"/>
<path d="M961.699 2540C961.699 2589.25 981.264 2636.48 1016.09 2671.31C1050.91 2706.13 1098.15 2725.7 1147.4 2725.7V2540" fill="#C4C0B3"/>
<path d="M1333.13 2540H1147.43V2725.7H1333.13V2540Z" fill="#F1D7CF"/>
<path d="M1333.13 2540H1147.43V2725.7H1333.13V2540Z" fill="#D07D63"/>
<path d="M1518.83 2540H1333.13V2725.7H1518.83V2540Z" fill="#9D9180"/>
<path d="M1333.13 2540L1518.83 2725.7H1333.13V2540Z" fill="#F7E8E3"/>
<path d="M1704.57 2540H1518.86V2725.71H1704.57V2540Z" fill="white"/>
<path d="M1611.73 2540H1518.87V2632.87H1611.73V2540Z" fill="#CFCCC2"/>
<path d="M1611.73 2540V2632.87H1518.87L1611.73 2540Z" fill="#847560"/>
<path d="M1704.57 2540H1611.7V2632.87H1704.57V2540Z" fill="#F8F6F1"/>
<path d="M1704.57 2540V2632.87H1611.7L1704.57 2540Z" fill="#FAFAF9"/>
<path d="M1611.73 2632.87H1518.87V2725.73H1611.73V2632.87Z" fill="#F2F1EE"/>
<path d="M1518.87 2632.87L1611.73 2725.73H1518.87V2632.87Z" fill="#F9F7F3"/>
<path d="M1704.57 2632.87H1611.7V2725.73H1704.57V2632.87Z" fill="#D3CDC6"/>
<path d="M1611.7 2632.87L1704.57 2725.73H1611.7V2632.87Z" fill="#E3E0DB"/>
<path d="M1890.29 2540H1704.57V2725.71H1890.29V2540Z" fill="white"/>
<path d="M1797.43 2540H1704.57V2632.87H1797.43V2540Z" fill="#CDC9BF"/>
<path d="M1797.43 2540H1704.57V2632.87H1797.43V2540Z" fill="#D2CFC5"/>
<path d="M1890.3 2540H1797.43V2632.87H1890.3V2540Z" fill="#A59A8B"/>
<path d="M1820.65 2540H1843.87L1820.65 2563.22L1797.43 2586.43V2563.22L1820.65 2540Z" fill="#EDEBE8"/>
<path d="M1890.3 2609.65V2632.87H1867.08L1890.3 2609.65Z" fill="#EDEBE8"/>
<path d="M1890.3 2563.22V2586.43L1867.08 2609.65L1843.87 2632.87H1820.65L1890.3 2563.22Z" fill="#EDEBE8"/>
<path d="M1867.08 2540H1890.3L1820.65 2609.65L1797.43 2632.87V2609.65L1867.08 2540Z" fill="#EDEBE8"/>
<path d="M1797.43 2632.87H1704.57V2725.73H1797.43V2632.87Z" fill="#FDFCFB"/>
<path d="M1751 2632.87L1797.43 2679.3L1751 2725.73L1704.57 2679.3L1751 2632.87Z" fill="#B3AE9D"/>
<path d="M1890.3 2632.87H1797.43V2725.73H1890.3V2632.87Z" fill="#D4CFC7"/>
<path d="M1820.65 2632.87H1843.87L1820.65 2656.08L1797.43 2679.3V2656.08L1820.65 2632.87Z" fill="#7C6C55"/>
<path d="M1890.3 2702.52V2725.73H1867.08L1890.3 2702.52Z" fill="#7C6C55"/>
<path d="M1890.3 2656.08V2679.3L1867.08 2702.52L1843.87 2725.73H1820.65L1890.3 2656.08Z" fill="#7C6C55"/>
<path d="M1867.08 2632.87H1890.3L1820.65 2702.52L1797.43 2725.74V2702.52L1867.08 2632.87Z" fill="#7C6C55"/>
<path d="M2076 2540H1890.3V2725.7H2076V2540Z" fill="#B3AD9D"/>
<path d="M1983.15 2540L2076 2632.85L1983.15 2725.7L1890.3 2632.85L1983.15 2540Z" fill="#EEEDE9"/>
<path d="M961.699 2725.7H776V2911.4H961.699V2725.7Z" fill="#9B8F7D"/>
<path d="M868.85 2725.7L961.699 2818.55L868.85 2911.4L776 2818.55L868.85 2725.7Z" fill="#E3DBC7"/>
<path d="M1147.4 2725.7H961.699V2911.4H1147.4V2725.7Z" fill="#F2EEE4"/>
<path d="M961.699 2725.7L1147.4 2911.4H961.699V2725.7Z" fill="#F5F4F3"/>
<path d="M1333.14 2725.71H1147.43V2911.43H1333.14V2725.71Z" fill="white"/>
<path d="M1240.3 2725.7H1147.43V2818.57H1240.3V2725.7Z" fill="#A79C8D"/>
<path d="M1170.65 2725.7H1193.87L1170.65 2748.92L1147.43 2772.13V2748.92L1170.65 2725.7Z" fill="#B7B1A2"/>
<path d="M1240.3 2795.35V2818.57H1217.08L1240.3 2795.35Z" fill="#B7B1A2"/>
<path d="M1240.3 2748.92V2772.13L1217.08 2795.35L1193.87 2818.57H1170.65L1240.3 2748.92Z" fill="#B7B1A2"/>
<path d="M1217.08 2725.7H1240.3L1170.65 2795.35L1147.43 2818.57V2795.35L1217.08 2725.7Z" fill="#B7B1A2"/>
<path d="M1333.17 2725.7H1240.3V2818.57H1333.17V2725.7Z" fill="#DDA28E"/>
<path d="M1240.3 2818.57C1240.3 2793.94 1250.09 2770.32 1267.5 2752.9C1284.92 2735.48 1308.54 2725.7 1333.17 2725.7L1240.3 2818.57C1264.93 2818.57 1288.55 2808.78 1305.97 2791.37C1323.38 2773.95 1333.17 2750.33 1333.17 2725.7" fill="#E9E7E3"/>
<path d="M1240.3 2818.57H1147.43V2911.43H1240.3V2818.57Z" fill="#E8E5E1"/>
<path d="M1147.43 2911.43C1147.43 2899.24 1149.84 2887.16 1154.5 2875.89C1159.17 2864.63 1166.01 2854.39 1174.63 2845.77C1183.26 2837.14 1193.49 2830.3 1204.76 2825.64C1216.03 2820.97 1228.11 2818.57 1240.3 2818.57L1147.43 2911.43C1159.63 2911.43 1171.71 2909.03 1182.97 2904.36C1194.24 2899.7 1204.48 2892.86 1213.1 2884.23C1221.72 2875.61 1228.56 2865.37 1233.23 2854.11C1237.9 2842.84 1240.3 2830.76 1240.3 2818.57" fill="#9E9382"/>
<path d="M1333.17 2818.57H1240.3V2911.43H1333.17V2818.57Z" fill="#9E9382"/>
<path d="M1333.17 2818.57H1240.3V2911.43H1333.17V2818.57Z" fill="#ECCBC0"/>
<path d="M1518.86 2725.71H1333.14V2911.43H1518.86V2725.71Z" fill="white"/>
<path d="M1426 2725.7H1333.13V2818.57H1426V2725.7Z" fill="#EAC4B8"/>
<path d="M1333.13 2818.57C1333.13 2806.37 1335.53 2794.29 1340.2 2783.03C1344.87 2771.76 1351.71 2761.52 1360.33 2752.9C1368.96 2744.28 1379.19 2737.44 1390.46 2732.77C1401.73 2728.1 1413.8 2725.7 1426 2725.7V2818.57" fill="#ACA694"/>
<path d="M1518.87 2725.7H1426V2818.57H1518.87V2725.7Z" fill="#DDDAD3"/>
<path d="M1449.22 2725.7H1472.43L1449.22 2748.92L1426 2772.13V2748.92L1449.22 2725.7Z" fill="#C2BBB0"/>
<path d="M1518.87 2795.35V2818.57H1495.65L1518.87 2795.35Z" fill="#C2BBB0"/>
<path d="M1518.87 2748.92V2772.13L1495.65 2795.35L1472.43 2818.57H1449.22L1518.87 2748.92Z" fill="#C2BBB0"/>
<path d="M1495.65 2725.7H1518.87L1449.22 2795.35L1426 2818.57V2795.35L1495.65 2725.7Z" fill="#C2BBB0"/>
<path d="M1426 2818.57H1333.13V2911.43H1426V2818.57Z" fill="#D2CDC5"/>
<path d="M1333.13 2911.43C1333.13 2899.24 1335.53 2887.16 1340.2 2875.89C1344.87 2864.63 1351.71 2854.39 1360.33 2845.77C1368.96 2837.14 1379.19 2830.3 1390.46 2825.64C1401.73 2820.97 1413.8 2818.57 1426 2818.57L1333.13 2911.43C1357.76 2911.43 1381.38 2901.65 1398.8 2884.23C1416.22 2866.82 1426 2843.2 1426 2818.57" fill="#F8ECE8"/>
<path d="M1518.87 2818.57H1426V2911.43H1518.87V2818.57Z" fill="#DBD1B6"/>
<path d="M1426 2818.57H1518.87V2911.43L1426 2818.57Z" fill="#A39888"/>
<path d="M1704.57 2725.7H1518.87V2911.4H1704.57V2725.7Z" fill="#C76444"/>
<path d="M1518.87 2725.7H1704.57V2911.4L1518.87 2725.7Z" fill="#80715B"/>
<path d="M1890.27 2725.7H1704.57V2911.4H1890.27V2725.7Z" fill="#C0B8AD"/>
<path d="M1797.42 2725.7L1890.27 2818.55L1797.42 2911.4L1704.57 2818.55L1797.42 2725.7Z" fill="#D2CDC5"/>
<path d="M2076 2725.7H1890.3V2911.4H2076V2725.7Z" fill="#ACA694"/>
<path d="M1983.15 2725.7L2076 2818.55L1983.15 2911.4L1890.3 2818.55L1983.15 2725.7Z" fill="#A39C88"/>
<path d="M961.699 2911.43H776V3097.13H961.699V2911.43Z" fill="#E6E4DE"/>
<path d="M776 3097.13C776 3047.88 795.565 3000.65 830.39 2965.82C865.215 2931 912.449 2911.43 961.699 2911.43L776 3097.13C825.251 3097.13 872.484 3077.57 907.309 3042.74C942.135 3007.92 961.699 2960.68 961.699 2911.43" fill="#FEFEFD"/>
<path d="M1147.4 2911.43H961.699V3097.13H1147.4V2911.43Z" fill="#FBFAFA"/>
<path d="M961.699 2911.43H1147.4V3097.13L961.699 2911.43Z" fill="#FAF9F6"/>
<path d="M1333.13 2911.43H1147.43V3097.13H1333.13V2911.43Z" fill="#F1D9D1"/>
<path d="M1147.43 2911.43H1333.13V3097.13L1147.43 2911.43Z" fill="#CCC8BD"/>
<path d="M1518.83 2911.43H1333.13V3097.13H1518.83V2911.43Z" fill="#FBFAF9"/>
<path d="M1333.13 2911.43C1357.52 2911.43 1381.67 2916.24 1404.2 2925.57C1426.73 2934.9 1447.2 2948.58 1464.44 2965.82C1481.69 2983.07 1495.36 3003.54 1504.7 3026.07C1514.03 3048.6 1518.83 3072.75 1518.83 3097.13L1333.13 2911.43C1333.13 2960.68 1352.7 3007.92 1387.52 3042.74C1422.35 3077.57 1469.58 3097.13 1518.83 3097.13" fill="#E2DFDA"/>
<path d="M1704.57 2911.43H1518.87V3097.13H1704.57V2911.43Z" fill="#ABA193"/>
<path d="M1518.87 2911.43L1704.57 3097.13H1518.87V2911.43Z" fill="#8D7F6B"/>
<path d="M1890.29 2911.43H1704.57V3097.14H1890.29V2911.43Z" fill="white"/>
<path d="M1797.43 2911.43H1704.57V3004.3H1797.43V2911.43Z" fill="#C2BBB0"/>
<path d="M1751 2911.43L1797.43 2957.87L1751 3004.3L1704.57 2957.87L1751 2911.43Z" fill="#F6F4EE"/>
<path d="M1890.3 2911.43H1797.43V3004.3H1890.3V2911.43Z" fill="#FBFAF7"/>
<path d="M1797.43 3004.3C1797.43 2979.67 1807.22 2956.05 1824.63 2938.63C1842.05 2921.22 1865.67 2911.43 1890.3 2911.43L1797.43 3004.3C1822.06 3004.3 1845.68 2994.52 1863.1 2977.1C1880.52 2959.68 1890.3 2936.06 1890.3 2911.43" fill="#F0EEEB"/>
<path d="M1797.43 3004.3H1704.57V3097.17H1797.43V3004.3Z" fill="#C0502B"/>
<path d="M1751 3004.3L1797.43 3050.73L1751 3097.17L1704.57 3050.73L1751 3004.3Z" fill="#E8BFB2"/>
<path d="M1890.3 3004.3H1797.43V3097.17H1890.3V3004.3Z" fill="#FCFBF9"/>
<path d="M1890.3 3004.3H1797.43V3097.17H1890.3V3004.3Z" fill="#EBE9E5"/>
<path d="M2076 2911.43H1890.3V3097.13H2076V2911.43Z" fill="#E4B3A3"/>
<path d="M1890.3 2911.43C1939.55 2911.43 1986.78 2931 2021.61 2965.82C2056.44 3000.65 2076 3047.88 2076 3097.13L1890.3 2911.43C1890.3 2960.68 1909.87 3007.92 1944.69 3042.74C1979.52 3077.57 2026.75 3097.13 2076 3097.13" fill="#B3AD9D"/>
<path d="M961.699 3097.13H776V3282.83H961.699V3097.13Z" fill="#DED4BC"/>
<path d="M776 3282.83C776 3233.58 795.565 3186.35 830.39 3151.52C865.215 3116.7 912.449 3097.13 961.699 3097.13L776 3282.83C825.251 3282.83 872.484 3263.27 907.309 3228.44C942.135 3193.62 961.699 3146.38 961.699 3097.13" fill="#E7E0CE"/>
<path d="M1147.4 3097.13H961.699V3282.83H1147.4V3097.13Z" fill="#E2E0DA"/>
<path d="M1008.12 3097.13H1054.55L1008.12 3143.56L961.699 3189.98V3143.56L1008.12 3097.13Z" fill="#E2D9C3"/>
<path d="M1147.4 3236.41V3282.83H1100.97L1147.4 3236.41Z" fill="#E2D9C3"/>
<path d="M1147.4 3143.56V3189.98L1100.97 3236.41L1054.55 3282.83H1008.12L1147.4 3143.56Z" fill="#E2D9C3"/>
<path d="M1100.97 3097.13H1147.4L1008.12 3236.41L961.699 3282.83V3236.41L1100.97 3097.13Z" fill="#E2D9C3"/>
<path d="M1333.13 3097.13H1147.43V3282.83H1333.13V3097.13Z" fill="#F0EEEB"/>
<path d="M1147.43 3282.83C1196.68 3282.83 1243.92 3263.27 1278.74 3228.44C1313.57 3193.62 1333.13 3146.38 1333.13 3097.13H1147.43" fill="#E1DED8"/>
<path d="M1518.83 3097.13H1333.13V3282.83H1518.83V3097.13Z" fill="#DA9882"/>
<path d="M1333.13 3282.83C1357.52 3282.83 1381.67 3278.03 1404.2 3268.7C1426.73 3259.36 1447.2 3245.69 1464.44 3228.44C1481.69 3211.2 1495.36 3190.73 1504.7 3168.2C1514.03 3145.67 1518.83 3121.52 1518.83 3097.13H1333.13" fill="#7C6C56"/>
<path d="M1704.57 3097.13H1518.87V3282.83H1704.57V3097.13Z" fill="#F9EDE9"/>
<path d="M1704.57 3097.13H1518.87V3282.83H1704.57V3097.13Z" fill="#ADA695"/>
<path d="M1890.27 3097.13H1704.57V3282.83H1890.27V3097.13Z" fill="#F1F0ED"/>
<path d="M1890.27 3097.13V3282.83H1704.57L1890.27 3097.13Z" fill="#E0D7C0"/>
<path d="M2076 3097.13H1890.3V3282.83H2076V3097.13Z" fill="#9D9681"/>
<path d="M1890.3 3282.83C1890.3 3233.58 1909.87 3186.35 1944.69 3151.52C1979.52 3116.7 2026.75 3097.13 2076 3097.13V3282.83" fill="#CD7458"/>
<path d="M961.714 3282.86H776V3468.57H961.714V3282.86Z" fill="white"/>
<path d="M868.867 3282.87H776V3375.73H868.867V3282.87Z" fill="#857661"/>
<path d="M799.217 3282.87H822.434L799.217 3306.08L776 3329.3V3306.08L799.217 3282.87Z" fill="#D8D5CD"/>
<path d="M868.867 3352.52V3375.73H845.65L868.867 3352.52Z" fill="#D8D5CD"/>
<path d="M868.867 3306.08V3329.3L845.65 3352.52L822.434 3375.73H799.217L868.867 3306.08Z" fill="#D8D5CD"/>
<path d="M845.65 3282.87H868.867L799.217 3352.52L776 3375.74V3352.52L845.65 3282.87Z" fill="#D8D5CD"/>
<path d="M961.734 3282.87H868.867V3375.73H961.734V3282.87Z" fill="#81725C"/>
<path d="M868.867 3282.87H961.734V3375.73L868.867 3282.87Z" fill="#FEFEFD"/>
<path d="M868.867 3375.7H776V3468.57H868.867V3375.7Z" fill="#D58C74"/>
<path d="M776 3468.57C776 3443.94 785.784 3420.32 803.2 3402.9C820.616 3385.48 844.237 3375.7 868.867 3375.7L776 3468.57C800.63 3468.57 824.251 3458.78 841.667 3441.37C859.083 3423.95 868.867 3400.33 868.867 3375.7" fill="#FDFCFA"/>
<path d="M961.734 3375.7H868.867V3468.57H961.734V3375.7Z" fill="#FBFAFA"/>
<path d="M915.301 3375.7L961.734 3422.13L915.301 3468.57L868.867 3422.13L915.301 3375.7Z" fill="#E2DAC4"/>
<path d="M1147.43 3282.86H961.714V3468.57H1147.43V3282.86Z" fill="white"/>
<path d="M1054.57 3282.87H961.699V3375.73H1054.57V3282.87Z" fill="#E3DFDB"/>
<path d="M961.699 3282.87C961.699 3307.5 971.483 3331.12 988.899 3348.53C1006.32 3365.95 1029.94 3375.73 1054.57 3375.73V3282.87" fill="#978F79"/>
<path d="M1147.43 3282.87H1054.57V3375.73H1147.43V3282.87Z" fill="#AEA597"/>
<path d="M1077.78 3282.87H1101L1077.78 3306.08L1054.57 3329.3V3306.08L1077.78 3282.87Z" fill="#EFEDEB"/>
<path d="M1147.43 3352.52V3375.73H1124.22L1147.43 3352.52Z" fill="#EFEDEB"/>
<path d="M1147.43 3306.08V3329.3L1124.22 3352.52L1101 3375.73H1077.78L1147.43 3306.08Z" fill="#EFEDEB"/>
<path d="M1124.22 3282.87H1147.43L1077.78 3352.52L1054.57 3375.74V3352.52L1124.22 3282.87Z" fill="#EFEDEB"/>
<path d="M1054.57 3375.7H961.699V3468.57H1054.57V3375.7Z" fill="#E9E2D2"/>
<path d="M1008.13 3375.7L1054.57 3422.13L1008.13 3468.57L961.699 3422.13L1008.13 3375.7Z" fill="#E6E3DF"/>
<path d="M1147.43 3375.7H1054.57V3468.57H1147.43V3375.7Z" fill="#A79D8E"/>
<path d="M1101 3375.7L1147.43 3422.13L1101 3468.57L1054.57 3422.13L1101 3375.7Z" fill="#C7C1B7"/>
<path d="M1333.14 3282.86H1147.43V3468.57H1333.14V3282.86Z" fill="white"/>
<path d="M1240.3 3282.87H1147.43V3375.73H1240.3V3282.87Z" fill="#D9947E"/>
<path d="M1147.43 3375.73C1147.43 3351.1 1157.22 3327.48 1174.63 3310.07C1192.05 3292.65 1215.67 3282.87 1240.3 3282.87L1147.43 3375.73C1159.63 3375.73 1171.71 3373.33 1182.97 3368.67C1194.24 3364 1204.48 3357.16 1213.1 3348.53C1221.72 3339.91 1228.56 3329.67 1233.23 3318.41C1237.9 3307.14 1240.3 3295.06 1240.3 3282.87" fill="#E6DFCC"/>
<path d="M1333.17 3282.87H1240.3V3375.73H1333.17V3282.87Z" fill="#FAF9F5"/>
<path d="M1333.17 3282.87H1240.3V3375.73H1333.17V3282.87Z" fill="#D6D3CA"/>
<path d="M1240.3 3375.7H1147.43V3468.57H1240.3V3375.7Z" fill="#EBE5D6"/>
<path d="M1147.43 3375.7H1240.3L1147.43 3468.57V3375.7Z" fill="#F4F1E9"/>
<path d="M1333.17 3375.7H1240.3V3468.57H1333.17V3375.7Z" fill="#BEB9AB"/>
<path d="M1286.73 3375.7L1333.17 3422.13L1286.73 3468.57L1240.3 3422.13L1286.73 3375.7Z" fill="#FBFAF7"/>
<path d="M1518.86 3282.86H1333.14V3468.57H1518.86V3282.86Z" fill="white"/>
<path d="M1426 3282.87H1333.13V3375.73H1426V3282.87Z" fill="#F4DFD8"/>
<path d="M1379.57 3282.87L1426 3329.3L1379.57 3375.73L1333.13 3329.3L1379.57 3282.87Z" fill="#F1ECE2"/>
<path d="M1518.87 3282.87H1426V3375.73H1518.87V3282.87Z" fill="#E0D7C0"/>
<path d="M1518.87 3282.87H1426V3375.73H1518.87V3282.87Z" fill="#F9EFEC"/>
<path d="M1426 3375.7H1333.13V3468.57H1426V3375.7Z" fill="#C9C3BA"/>
<path d="M1379.57 3375.7L1426 3422.13L1379.57 3468.57L1333.13 3422.13L1379.57 3375.7Z" fill="#DC9D89"/>
<path d="M1518.87 3375.7H1426V3468.57H1518.87V3375.7Z" fill="#F3F2EF"/>
<path d="M1426 3468.57C1450.63 3468.57 1474.25 3458.78 1491.67 3441.37C1509.08 3423.95 1518.87 3400.33 1518.87 3375.7H1426" fill="#D0CCC2"/>
<path d="M1704.57 3282.86H1518.86V3468.57H1704.57V3282.86Z" fill="white"/>
<path d="M1611.73 3282.87H1518.87V3375.73H1611.73V3282.87Z" fill="#FEFEFE"/>
<path d="M1565.3 3282.87L1611.73 3329.3L1565.3 3375.73L1518.87 3329.3L1565.3 3282.87Z" fill="#EEE9DD"/>
<path d="M1704.57 3282.87H1611.7V3375.73H1704.57V3282.87Z" fill="#B9B4A4"/>
<path d="M1611.7 3282.87C1636.33 3282.87 1659.95 3292.65 1677.37 3310.07C1694.78 3327.48 1704.57 3351.1 1704.57 3375.73L1611.7 3282.87C1611.7 3307.5 1621.48 3331.12 1638.9 3348.53C1656.32 3365.95 1679.94 3375.73 1704.57 3375.73" fill="#DB9A85"/>
<path d="M1611.73 3375.7H1518.87V3468.57H1611.73V3375.7Z" fill="#82735D"/>
<path d="M1518.87 3468.57C1518.87 3443.94 1528.65 3420.32 1546.07 3402.9C1563.48 3385.48 1587.1 3375.7 1611.73 3375.7L1518.87 3468.57C1531.06 3468.57 1543.14 3466.16 1554.41 3461.5C1565.67 3456.83 1575.91 3449.99 1584.53 3441.37C1593.16 3432.74 1600 3422.5 1604.67 3411.24C1609.33 3399.97 1611.73 3387.89 1611.73 3375.7" fill="#A59E8B"/>
<path d="M1704.57 3375.7H1611.7V3468.57H1704.57V3375.7Z" fill="#EEEADD"/>
<path d="M1611.7 3375.7L1704.57 3468.57H1611.7V3375.7Z" fill="#A39C88"/>
<path d="M1890.27 3282.87H1704.57V3468.57H1890.27V3282.87Z" fill="#8D7F6B"/>
<path d="M1890.27 3282.87H1704.57V3468.57H1890.27V3282.87Z" fill="#C96849"/>
<path d="M2076 3282.87H1890.3V3468.57H2076V3282.87Z" fill="#CDC7BF"/>
<path d="M1890.3 3468.57C1890.3 3444.18 1895.1 3420.03 1904.44 3397.5C1913.77 3374.97 1927.45 3354.5 1944.69 3337.26C1961.93 3320.01 1982.41 3306.34 2004.94 3297C2027.47 3287.67 2051.61 3282.87 2076 3282.87L1890.3 3468.57C1939.55 3468.57 1986.78 3449 2021.61 3414.18C2056.44 3379.35 2076 3332.12 2076 3282.87" fill="#DCD9D2"/>
<path d="M961.714 3468.57H776V3654.28H961.714V3468.57Z" fill="white"/>
<path d="M868.867 3468.57H776V3561.43H868.867V3468.57Z" fill="#E1DFD8"/>
<path d="M799.217 3468.57H822.434L799.217 3491.78L776 3515V3491.78L799.217 3468.57Z" fill="#8C7E6A"/>
<path d="M868.867 3538.22V3561.43H845.65L868.867 3538.22Z" fill="#8C7E6A"/>
<path d="M868.867 3491.78V3515L845.65 3538.22L822.434 3561.43H799.217L868.867 3491.78Z" fill="#8C7E6A"/>
<path d="M845.65 3468.57H868.867L799.217 3538.22L776 3561.43V3538.22L845.65 3468.57Z" fill="#8C7E6A"/>
<path d="M961.734 3468.57H868.867V3561.43H961.734V3468.57Z" fill="#F2D9D2"/>
<path d="M892.084 3468.57H915.301L892.084 3491.78L868.867 3515V3491.78L892.084 3468.57Z" fill="#83745E"/>
<path d="M961.734 3538.22V3561.43H938.518L961.734 3538.22Z" fill="#83745E"/>
<path d="M961.734 3491.78V3515L938.518 3538.22L915.301 3561.43H892.084L961.734 3491.78Z" fill="#83745E"/>
<path d="M938.518 3468.57H961.734L892.084 3538.22L868.867 3561.43V3538.22L938.518 3468.57Z" fill="#83745E"/>
<path d="M868.867 3561.43H776V3654.3H868.867V3561.43Z" fill="#9F9483"/>
<path d="M822.434 3561.43L868.867 3607.87L822.434 3654.3L776 3607.87L822.434 3561.43Z" fill="#F0EBE0"/>
<path d="M961.734 3561.43H868.867V3654.3H961.734V3561.43Z" fill="#D4D1C8"/>
<path d="M868.867 3561.43C868.867 3586.06 878.651 3609.68 896.067 3627.1C913.483 3644.52 937.104 3654.3 961.734 3654.3V3561.43" fill="#F7F4EE"/>
<path d="M1147.4 3468.57H961.699V3654.27H1147.4V3468.57Z" fill="#B8AFA3"/>
<path d="M1054.55 3468.57L1147.4 3561.42L1054.55 3654.27L961.699 3561.42L1054.55 3468.57Z" fill="#F8F6F0"/>
<path d="M1333.13 3468.57H1147.43V3654.27H1333.13V3468.57Z" fill="#DBD0B5"/>
<path d="M1193.86 3468.57H1240.28L1193.86 3514.99L1147.43 3561.42V3514.99L1193.86 3468.57Z" fill="#8B7D69"/>
<path d="M1333.13 3607.84V3654.27H1286.71L1333.13 3607.84Z" fill="#8B7D69"/>
<path d="M1333.13 3514.99V3561.42L1286.71 3607.84L1240.28 3654.27H1193.86L1333.13 3514.99Z" fill="#8B7D69"/>
<path d="M1286.71 3468.57H1333.13L1193.86 3607.84L1147.43 3654.27V3607.84L1286.71 3468.57Z" fill="#8B7D69"/>
<path d="M1518.83 3468.57H1333.13V3654.27H1518.83V3468.57Z" fill="#C1BAAF"/>
<path d="M1518.83 3468.57H1333.13V3654.27H1518.83V3468.57Z" fill="#AEA496"/>
<path d="M1704.57 3468.57H1518.86V3654.28H1704.57V3468.57Z" fill="white"/>
<path d="M1611.73 3468.57H1518.87V3561.43H1611.73V3468.57Z" fill="#9A8E7D"/>
<path d="M1611.73 3468.57V3561.43H1518.87L1611.73 3468.57Z" fill="#E1DFD9"/>
<path d="M1704.57 3468.57H1611.7V3561.43H1704.57V3468.57Z" fill="#D0CCC2"/>
<path d="M1611.7 3468.57C1611.7 3493.2 1621.48 3516.82 1638.9 3534.23C1656.32 3551.65 1679.94 3561.43 1704.57 3561.43V3468.57" fill="#DEDAD4"/>
<path d="M1611.73 3561.43H1518.87V3654.3H1611.73V3561.43Z" fill="#F0EEEB"/>
<path d="M1518.87 3561.43H1611.73L1518.87 3654.3V3561.43Z" fill="#DC9E8A"/>
<path d="M1704.57 3561.43H1611.7V3654.3H1704.57V3561.43Z" fill="#F4F1E9"/>
<path d="M1704.57 3561.43V3654.3H1611.7L1704.57 3561.43Z" fill="#F8EAE6"/>
<path d="M1890.27 3468.57H1704.57V3654.27H1890.27V3468.57Z" fill="#E5E3DD"/>
<path d="M1890.27 3468.57H1704.57V3654.27H1890.27V3468.57Z" fill="#D79079"/>
<path d="M2076 3468.57H1890.3V3654.27H2076V3468.57Z" fill="#9D9180"/>
<path d="M1890.3 3654.27C1890.3 3605.02 1909.87 3557.78 1944.69 3522.96C1979.52 3488.13 2026.75 3468.57 2076 3468.57L1890.3 3654.27C1939.55 3654.27 1986.78 3634.7 2021.61 3599.88C2056.44 3565.05 2076 3517.82 2076 3468.57" fill="#C76343"/>
<path d="M961.699 3654.3H776V3840H961.699V3654.3Z" fill="#8F826F"/>
<path d="M961.699 3654.3H776V3840H961.699V3654.3Z" fill="#F2DAD2"/>
<path d="M1147.4 3654.3H961.699V3840H1147.4V3654.3Z" fill="#F9F8F4"/>
<path d="M1054.55 3654.3L1147.4 3747.15L1054.55 3840L961.699 3747.15L1054.55 3654.3Z" fill="#E1DFD8"/>
<path d="M1333.13 3654.3H1147.43V3840H1333.13V3654.3Z" fill="#DBD1B7"/>
<path d="M1240.28 3654.3L1333.13 3747.15L1240.28 3840L1147.43 3747.15L1240.28 3654.3Z" fill="#D58C74"/>
<path d="M1518.83 3654.3H1333.13V3840H1518.83V3654.3Z" fill="#AFA597"/>
<path d="M1333.13 3654.3C1333.13 3703.55 1352.7 3750.78 1387.52 3785.61C1422.35 3820.44 1469.58 3840 1518.83 3840V3654.3" fill="#EDE8DB"/>
<path d="M1704.57 3654.29H1518.86V3840H1704.57V3654.29Z" fill="white"/>
<path d="M1611.73 3654.3H1518.87V3747.17H1611.73V3654.3Z" fill="#D6D3CA"/>
<path d="M1518.87 3747.17C1518.87 3722.54 1528.65 3698.92 1546.07 3681.5C1563.48 3664.08 1587.1 3654.3 1611.73 3654.3V3747.17" fill="#867863"/>
<path d="M1704.57 3654.3H1611.7V3747.17H1704.57V3654.3Z" fill="#EEE9DC"/>
<path d="M1704.57 3654.3H1611.7V3747.17H1704.57V3654.3Z" fill="#F3F1EF"/>
<path d="M1611.73 3747.13H1518.87V3840H1611.73V3747.13Z" fill="#FDFDFB"/>
<path d="M1611.73 3747.13H1518.87V3840H1611.73V3747.13Z" fill="#C2BAB0"/>
<path d="M1704.57 3747.13H1611.7V3840H1704.57V3747.13Z" fill="#C35734"/>
<path d="M1611.7 3840C1611.7 3815.37 1621.48 3791.75 1638.9 3774.33C1656.32 3756.92 1679.94 3747.13 1704.57 3747.13L1611.7 3840C1636.33 3840 1659.95 3830.22 1677.37 3812.8C1694.78 3795.38 1704.57 3771.76 1704.57 3747.13" fill="#D0CCC2"/>
<path d="M1890.27 3654.3H1704.57V3840H1890.27V3654.3Z" fill="#E5DDCA"/>
<path d="M1750.99 3654.3H1797.42L1750.99 3700.73L1704.57 3747.15V3700.73L1750.99 3654.3Z" fill="#FEFEFD"/>
<path d="M1890.27 3793.58V3840H1843.84L1890.27 3793.58Z" fill="#FEFEFD"/>
<path d="M1890.27 3700.73V3747.15L1843.84 3793.58L1797.42 3840H1750.99L1890.27 3700.73Z" fill="#FEFEFD"/>
<path d="M1843.84 3654.3H1890.27L1750.99 3793.58L1704.57 3840V3793.58L1843.84 3654.3Z" fill="#FEFEFD"/>
<path d="M2076 3654.29H1890.29V3840H2076V3654.29Z" fill="white"/>
<path d="M1983.17 3654.3H1890.3V3747.17H1983.17V3654.3Z" fill="#958D77"/>
<path d="M1936.73 3654.3L1983.17 3700.73L1936.73 3747.17L1890.3 3700.73L1936.73 3654.3Z" fill="#CECAC0"/>
<path d="M2076 3654.3H1983.13V3747.17H2076V3654.3Z" fill="#8E816D"/>
<path d="M2076 3654.3H1983.13V3747.17H2076V3654.3Z" fill="#F4F3F1"/>
<path d="M1983.17 3747.13H1890.3V3840H1983.17V3747.13Z" fill="#ACA694"/>
<path d="M1890.3 3747.13H1983.17L1890.3 3840V3747.13Z" fill="#E0D7C1"/>
<path d="M2076 3747.13H1983.13V3840H2076V3747.13Z" fill="#F9F8F7"/>
<path d="M1983.13 3747.13C2007.76 3747.13 2031.38 3756.92 2048.8 3774.33C2066.22 3791.75 2076 3815.37 2076 3840L1983.13 3747.13C1983.13 3759.33 1985.53 3771.4 1990.2 3782.67C1994.87 3793.94 2001.71 3804.18 2010.33 3812.8C2018.96 3821.42 2029.19 3828.26 2040.46 3832.93C2051.73 3837.6 2063.8 3840 2076 3840" fill="#B0AA99"/>
</g>
<defs>
<clipPath id="clip0_888_12681">
<rect width="1300" height="2600" fill="white" transform="translate(776 1240)"/>
</clipPath>
</defs>
</svg>
