<?xml version="1.0" standalone="no"?><svg xmlns:xlink="http://www.w3.org/1999/xlink" xmlns="http://www.w3.org/2000/svg" viewBox="0 0 1000 666.6666666666666" preserveAspectRatio="xMaxYMax slice"><g transform="scale(0.970402717127608)"><rect x="0" y="0" width="1030.5" height="687" fill="#ffffff"/><rect x="0" y="0" width="68.7" height="68.7" fill="#dedee4"/><g transform="translate(0,0) scale(3.435) rotate(0)"><path d="M10 0L20 10L10 20L0 10L10 0Z" fill="#fffbed"/></g><rect x="68.7" y="0" width="68.7" height="68.7" fill="#fff5d6"/><polygon points="137.4,0 137.4,68.7 68.7,68.7" fill="#646883"/><rect x="137.4" y="0" width="68.7" height="68.7" fill="#feeaa8"/><polygon points="206.10000000000002,0 206.10000000000002,68.7 137.4,68.7" fill="#f1826c"/><rect x="206.1" y="0" width="68.7" height="68.7" fill="#fff9e5"/><g transform="translate(206.1,0) scale(3.435) rotate(0)"><path d="M13 0H20V7L7 20H0V13L13 0Z" fill="#eaebee"/></g><rect x="274.8" y="0" width="68.7" height="68.7" fill="#ffffff"/><rect x="274.8" y="0" width="34.35" height="34.35" fill="#feeaa9"/><path d="M 274.8 0 A 34.35 34.35 0 0 1  309.15000000000003 34.35 L 274.8 0 A 34.35 34.35 0 0 0 309.15000000000003 34.35" fill="#dcdade"/><rect x="309.15" y="0" width="34.35" height="34.35" fill="#e1e0e3"/><rect x="309.15" y="0" width="34.35" height="34.35" fill="#feebaa"/><rect x="274.8" y="34.35" width="34.35" height="34.35" fill="#fff1d6"/><path d="M 274.8 34.35 A 34.35 34.35 0 0 1 309.15000000000003 68.7 L 274.8 68.7" fill="#ffba37"/><rect x="309.15" y="34.35" width="34.35" height="34.35" fill="#c7c9d2"/><polygon points="309.15,34.35 343.5,68.7 309.15,68.7" fill="#f7b4a7"/><rect x="343.5" y="0" width="68.7" height="68.7" fill="#655f6e"/><g transform="translate(343.5,0) scale(3.435) rotate(0)"><path d="M10 0L20 10L10 20L0 10L10 0Z" fill="#ffc14d"/></g><rect x="412.20000000000005" y="0" width="68.7" height="68.7" fill="#ffffff"/><rect x="412.2" y="0" width="34.35" height="34.35" fill="#ffd68a"/><g transform="translate(412.2,0) scale(1.7175) rotate(0)"><path d="M10 0L20 10L10 20L0 10L10 0Z" fill="#ffe1a8"/></g><rect x="446.55" y="0" width="34.35" height="34.35" fill="#ffb936"/><path d="M 446.55 34.35 A 34.35 34.35 0 0 0 480.90000000000003 0 L 446.55 0" fill="#ffe7b9"/><rect x="412.2" y="34.35" width="34.35" height="34.35" fill="#636783"/><path d="M 412.2 34.35 A 34.35 34.35 0 0 1  446.55 68.7 L 412.2 34.35 A 34.35 34.35 0 0 0 446.55 68.7" fill="#feefbb"/><rect x="446.55" y="34.35" width="34.35" height="34.35" fill="#31293e"/><path d="M 446.55 34.35 A 34.35 34.35 0 0 1  480.90000000000003 68.7 L 446.55 34.35 A 34.35 34.35 0 0 0 480.90000000000003 68.7" fill="#bfc1cc"/><rect x="480.90000000000003" y="0" width="68.7" height="68.7" fill="#ffffff"/><rect x="480.9" y="0" width="34.35" height="34.35" fill="#f6afa1"/><rect x="480.9" y="0" width="34.35" height="34.35" fill="#a8a5ad"/><rect x="515.25" y="0" width="34.35" height="34.35" fill="#fffefb"/><rect x="515.25" y="0" width="34.35" height="34.35" fill="#81849a"/><rect x="480.9" y="34.35" width="34.35" height="34.35" fill="#ffdb97"/><rect x="480.9" y="34.35" width="34.35" height="34.35" fill="#fef6f5"/><rect x="515.25" y="34.35" width="34.35" height="34.35" fill="#fce6e1"/><rect x="515.25" y="34.35" width="34.35" height="34.35" fill="#f2f2f5"/><rect x="549.6" y="0" width="68.7" height="68.7" fill="#ffffff"/><rect x="549.6" y="0" width="34.35" height="34.35" fill="#fff9e4"/><path d="M 549.6 0 A 34.35 34.35 0 0 1  583.95 34.35 L 549.6 0 A 34.35 34.35 0 0 0 583.95 34.35" fill="#fad5ce"/><rect x="583.95" y="0" width="34.35" height="34.35" fill="#645f6e"/><path d="M 583.95 0 A 34.35 34.35 0 0 1  618.3000000000001 34.35 L 583.95 0 A 34.35 34.35 0 0 0 618.3000000000001 34.35" fill="#ee644a"/><rect x="549.6" y="34.35" width="34.35" height="34.35" fill="#585d7a"/><g transform="translate(549.6,34.35) scale(1.7175) rotate(0)"><path d="M13 0H20V7L7 20H0V13L13 0Z" fill="#fffbed"/></g><rect x="583.95" y="34.35" width="34.35" height="34.35" fill="#ffbd42"/><rect x="583.95" y="34.35" width="34.35" height="34.35" fill="#4d5271"/><rect x="618.3000000000001" y="0" width="68.7" height="68.7" fill="#ffffff"/><rect x="618.3" y="0" width="34.35" height="34.35" fill="#fff4d3"/><g transform="translate(618.3,0) scale(1.7175) rotate(0)"><path d="M10 0L20 10L10 20L0 10L10 0Z" fill="#fefefe"/></g><rect x="652.65" y="0" width="34.35" height="34.35" fill="#ffebc7"/><path d="M 652.65 34.35 A 34.35 34.35 0 0 1  687 0 L 652.65 34.35 A 34.35 34.35 0 0 0 687 0" fill="#cacbd5"/><rect x="618.3" y="34.35" width="34.35" height="34.35" fill="#d5d6de"/><polygon points="618.3,34.35 652.65,34.35 618.3,68.7" fill="#fce6e2"/><rect x="652.65" y="34.35" width="34.35" height="34.35" fill="#7e8298"/><polygon points="652.65,34.35 687,34.35 687,68.7" fill="#feeaa6"/><rect x="687" y="0" width="68.7" height="68.7" fill="#ffffff"/><rect x="687" y="0" width="34.35" height="34.35" fill="#fff7df"/><g transform="translate(687,0) scale(1.7175) rotate(0)"><path d="M13 0H20V7L7 20H0V13L13 0Z" fill="#5c5666"/></g><rect x="721.35" y="0" width="34.35" height="34.35" fill="#f07b64"/><rect x="721.35" y="0" width="34.35" height="34.35" fill="#fff3db"/><rect x="687" y="34.35" width="34.35" height="34.35" fill="#f3f2f4"/><g transform="translate(687,34.35) scale(1.7175) rotate(0)"><path d="M13 0H20V7L7 20H0V13L13 0Z" fill="#b6b8c5"/></g><rect x="721.35" y="34.35" width="34.35" height="34.35" fill="#9497aa"/><path d="M 721.35 34.35 A 34.35 34.35 0 0 1  755.7 68.7 L 721.35 34.35 A 34.35 34.35 0 0 0 755.7 68.7" fill="#c6c8d2"/><rect x="755.7" y="0" width="68.7" height="68.7" fill="#e4e5ea"/><polygon points="755.7,0 824.4000000000001,0 824.4000000000001,68.7" fill="#e0e1e6"/><rect x="824.4" y="0" width="68.7" height="68.7" fill="#fff8e1"/><path d="M 824.4 68.7 A 68.7 68.7 0 0 0 893.1 0 L 824.4 0" fill="#3c3448"/><rect x="893.1" y="0" width="68.7" height="68.7" fill="#ffefd1"/><path d="M 893.1 0 A 68.7 68.7 0 0 1  961.8000000000001 68.7 L 893.1 0 A 68.7 68.7 0 0 0 961.8000000000001 68.7" fill="#eff0f3"/><rect x="961.8" y="0" width="68.7" height="68.7" fill="#f7b8ac"/><g transform="translate(961.8,0) scale(3.435) rotate(0)"><path d="M10 0L20 10L10 20L0 10L10 0Z" fill="#fff8e1"/></g><rect x="0" y="68.7" width="68.7" height="68.7" fill="#ffffff"/><rect x="0" y="68.7" width="34.35" height="34.35" fill="#bcbac0"/><g transform="translate(0,68.7) scale(1.7175) rotate(0)"><path d="M13 0H20V7L7 20H0V13L13 0Z" fill="#9497aa"/></g><rect x="34.35" y="68.7" width="34.35" height="34.35" fill="#ef765e"/><g transform="translate(34.35,68.7) scale(1.7175) rotate(0)"><path d="M10 0L20 10L10 20L0 10L10 0Z" fill="#fff5e2"/></g><rect x="0" y="103.05" width="34.35" height="34.35" fill="#fff8ea"/><rect x="0" y="103.05" width="34.35" height="34.35" fill="#feeaa6"/><rect x="34.35" y="103.05" width="34.35" height="34.35" fill="#f18671"/><polygon points="34.35,103.05 68.7,103.05 34.35,137.4" fill="#585263"/><rect x="68.7" y="68.7" width="68.7" height="68.7" fill="#ffffff"/><rect x="68.7" y="68.7" width="34.35" height="34.35" fill="#fbdfda"/><g transform="translate(68.7,68.7) scale(1.7175) rotate(0)"><path d="M10 0L20 10L10 20L0 10L10 0Z" fill="#f9ccc3"/></g><rect x="103.05" y="68.7" width="34.35" height="34.35" fill="#575061"/><polygon points="103.05,68.7 137.4,68.7 137.4,103.05000000000001" fill="#ffc860"/><rect x="68.7" y="103.05" width="34.35" height="34.35" fill="#fef0bf"/><path d="M 68.7 103.05 A 34.35 34.35 0 0 1 103.05000000000001 137.4 L 68.7 137.4" fill="#d4d6dd"/><rect x="103.05" y="103.05" width="34.35" height="34.35" fill="#c5c7d1"/><g transform="translate(103.05,103.05) scale(1.7175) rotate(0)"><path d="M13 0H20V7L7 20H0V13L13 0Z" fill="#ffdfa3"/></g><rect x="137.4" y="68.7" width="68.7" height="68.7" fill="#ffffff"/><rect x="137.4" y="68.7" width="34.35" height="34.35" fill="#6b6f89"/><rect x="137.4" y="68.7" width="34.35" height="34.35" fill="#6c6675"/><rect x="171.75" y="68.7" width="34.35" height="34.35" fill="#d9d7db"/><rect x="171.75" y="68.7" width="34.35" height="34.35" fill="#ffdea1"/><rect x="137.4" y="103.05" width="34.35" height="34.35" fill="#feefbb"/><g transform="translate(137.4,103.05) scale(1.7175) rotate(0)"><path d="M13 0H20V7L7 20H0V13L13 0Z" fill="#787c94"/></g><rect x="171.75" y="103.05" width="34.35" height="34.35" fill="#fff6db"/><g transform="translate(171.75,103.05) scale(1.7175) rotate(0)"><path d="M10 0L20 10L10 20L0 10L10 0Z" fill="#494254"/></g><rect x="206.1" y="68.7" width="68.7" height="68.7" fill="#eb5032"/><g transform="translate(206.1,68.7) scale(3.435) rotate(0)"><path d="M10 0L20 10L10 20L0 10L10 0Z" fill="#fff7e7"/></g><rect x="274.8" y="68.7" width="68.7" height="68.7" fill="#eb4c2d"/><g transform="translate(274.8,68.7) scale(3.435) rotate(0)"><path d="M10 0L20 10L10 20L0 10L10 0Z" fill="#d0ced3"/></g><rect x="343.5" y="68.7" width="68.7" height="68.7" fill="#ffffff"/><rect x="343.5" y="68.7" width="34.35" height="34.35" fill="#fffffe"/><g transform="translate(343.5,68.7) scale(1.7175) rotate(0)"><path d="M10 0L20 10L10 20L0 10L10 0Z" fill="#d8d9e0"/></g><rect x="377.85" y="68.7" width="34.35" height="34.35" fill="#e4e5ea"/><path d="M 377.85 103.05000000000001 A 34.35 34.35 0 0 0 412.20000000000005 68.7 L 377.85 68.7" fill="#fff8e2"/><rect x="343.5" y="103.05" width="34.35" height="34.35" fill="#fffdf5"/><g transform="translate(343.5,103.05) scale(1.7175) rotate(0)"><path d="M10 0L20 10L10 20L0 10L10 0Z" fill="#ffc964"/></g><rect x="377.85" y="103.05" width="34.35" height="34.35" fill="#8e91a4"/><g transform="translate(377.85,103.05) scale(1.7175) rotate(0)"><path d="M13 0H20V7L7 20H0V13L13 0Z" fill="#dfe0e6"/></g><rect x="412.2" y="68.7" width="68.7" height="68.7" fill="#f8c5ba"/><path d="M 412.2 68.7 A 68.7 68.7 0 0 1 480.9 137.4 L 412.2 137.4" fill="#4f4859"/><rect x="480.9" y="68.7" width="68.7" height="68.7" fill="#c0bdc4"/><rect x="480.9" y="68.7" width="68.7" height="68.7" fill="#f07861"/><rect x="549.6" y="68.7" width="68.7" height="68.7" fill="#fdece9"/><path d="M 549.6 68.7 A 68.7 68.7 0 0 1  618.3000000000001 137.4 L 549.6 68.7 A 68.7 68.7 0 0 0 618.3000000000001 137.4" fill="#d5d6de"/><rect x="618.3000000000001" y="68.7" width="68.7" height="68.7" fill="#ffffff"/><rect x="618.3" y="68.7" width="34.35" height="34.35" fill="#acaebd"/><path d="M 618.3 103.05000000000001 A 34.35 34.35 0 0 0 652.65 68.7 L 618.3 68.7" fill="#eb5032"/><rect x="652.65" y="68.7" width="34.35" height="34.35" fill="#f28974"/><rect x="652.65" y="68.7" width="34.35" height="34.35" fill="#686c86"/><rect x="618.3" y="103.05" width="34.35" height="34.35" fill="#a4a6b6"/><polygon points="618.3,103.05 652.65,103.05 652.65,137.4" fill="#fffdfd"/><rect x="652.65" y="103.05" width="34.35" height="34.35" fill="#f8bdb2"/><path d="M 652.65 137.4 A 34.35 34.35 0 0 1  687 103.05 L 652.65 137.4 A 34.35 34.35 0 0 0 687 103.05" fill="#d6d7de"/><rect x="687" y="68.7" width="68.7" height="68.7" fill="#ffffff"/><rect x="687" y="68.7" width="34.35" height="34.35" fill="#9a9daf"/><g transform="translate(687,68.7) scale(1.7175) rotate(0)"><path d="M13 0H20V7L7 20H0V13L13 0Z" fill="#ffeecf"/></g><rect x="721.35" y="68.7" width="34.35" height="34.35" fill="#fffcf1"/><g transform="translate(721.35,68.7) scale(1.7175) rotate(0)"><path d="M13 0H20V7L7 20H0V13L13 0Z" fill="#e0e1e6"/></g><rect x="687" y="103.05" width="34.35" height="34.35" fill="#fff5e1"/><g transform="translate(687,103.05) scale(1.7175) rotate(0)"><path d="M13 0H20V7L7 20H0V13L13 0Z" fill="#7f7a87"/></g><rect x="721.35" y="103.05" width="34.35" height="34.35" fill="#feeeb9"/><rect x="721.35" y="103.05" width="34.35" height="34.35" fill="#ffeac4"/><rect x="755.7" y="68.7" width="68.7" height="68.7" fill="#f28874"/><path d="M 755.7 137.4 A 68.7 68.7 0 0 1  824.4000000000001 68.7 L 755.7 137.4 A 68.7 68.7 0 0 0 824.4000000000001 68.7" fill="#d5d3d7"/><rect x="824.4" y="68.7" width="68.7" height="68.7" fill="#fef2c7"/><path d="M 824.4 68.7 A 68.7 68.7 0 0 1  893.1 137.4 L 824.4 68.7 A 68.7 68.7 0 0 0 893.1 137.4" fill="#5d5767"/><rect x="893.1" y="68.7" width="68.7" height="68.7" fill="#fef3ce"/><path d="M 893.1 68.7 A 68.7 68.7 0 0 1  961.8000000000001 137.4 L 893.1 68.7 A 68.7 68.7 0 0 0 961.8000000000001 137.4" fill="#ef735a"/><rect x="961.8" y="68.7" width="68.7" height="68.7" fill="#fdeeeb"/><g transform="translate(961.8,68.7) scale(3.435) rotate(0)"><path d="M13 0H20V7L7 20H0V13L13 0Z" fill="#c1c3ce"/></g><rect x="0" y="137.4" width="68.7" height="68.7" fill="#ffffff"/><rect x="0" y="137.4" width="34.35" height="34.35" fill="#fff7dc"/><rect x="0" y="137.4" width="34.35" height="34.35" fill="#fffefc"/><rect x="34.35" y="137.4" width="34.35" height="34.35" fill="#fef0bf"/><polygon points="34.35,137.4 68.7,137.4 68.7,171.75" fill="#626682"/><rect x="0" y="171.75" width="34.35" height="34.35" fill="#fef0be"/><path d="M 0 206.1 A 34.35 34.35 0 0 1  34.35 171.75 L 0 206.1 A 34.35 34.35 0 0 0 34.35 171.75" fill="#fff4d3"/><rect x="34.35" y="171.75" width="34.35" height="34.35" fill="#ffd077"/><rect x="34.35" y="171.75" width="34.35" height="34.35" fill="#fad0c8"/><rect x="68.7" y="137.4" width="68.7" height="68.7" fill="#fee9a3"/><path d="M 68.7 137.4 A 68.7 68.7 0 0 1  137.4 206.10000000000002 L 68.7 137.4 A 68.7 68.7 0 0 0 137.4 206.10000000000002" fill="#656984"/><rect x="137.4" y="137.4" width="68.7" height="68.7" fill="#ffffff"/><rect x="137.4" y="137.4" width="34.35" height="34.35" fill="#fdeeeb"/><g transform="translate(137.4,137.4) scale(1.7175) rotate(0)"><path d="M13 0H20V7L7 20H0V13L13 0Z" fill="#fef1c3"/></g><rect x="171.75" y="137.4" width="34.35" height="34.35" fill="#fff9ef"/><g transform="translate(171.75,137.4) scale(1.7175) rotate(0)"><path d="M10 0L20 10L10 20L0 10L10 0Z" fill="#f49f8f"/></g><rect x="137.4" y="171.75" width="34.35" height="34.35" fill="#ffc557"/><path d="M 137.4 206.1 A 34.35 34.35 0 0 1  171.75 171.75 L 137.4 206.1 A 34.35 34.35 0 0 0 171.75 171.75" fill="#f9cdc5"/><rect x="171.75" y="171.75" width="34.35" height="34.35" fill="#c8c9d3"/><polygon points="171.75,171.75 206.1,206.1 171.75,206.1" fill="#a1a3b4"/><rect x="206.1" y="137.4" width="68.7" height="68.7" fill="#f28c78"/><g transform="translate(206.1,137.4) scale(3.435) rotate(0)"><path d="M10 0L20 10L10 20L0 10L10 0Z" fill="#696d87"/></g><rect x="274.8" y="137.4" width="68.7" height="68.7" fill="#ffffff"/><rect x="274.8" y="137.4" width="34.35" height="34.35" fill="#f07b65"/><g transform="translate(274.8,137.4) scale(1.7175) rotate(0)"><path d="M13 0H20V7L7 20H0V13L13 0Z" fill="#ffbd41"/></g><rect x="309.15" y="137.4" width="34.35" height="34.35" fill="#fff8ea"/><polygon points="309.15,137.4 343.5,137.4 343.5,171.75" fill="#feeaa7"/><rect x="274.8" y="171.75" width="34.35" height="34.35" fill="#fff8e2"/><path d="M 274.8 171.75 A 34.35 34.35 0 0 1 309.15000000000003 206.1 L 274.8 206.1" fill="#fffefd"/><rect x="309.15" y="171.75" width="34.35" height="34.35" fill="#2e273b"/><g transform="translate(309.15,171.75) scale(1.7175) rotate(0)"><path d="M13 0H20V7L7 20H0V13L13 0Z" fill="#5b607c"/></g><rect x="343.5" y="137.4" width="68.7" height="68.7" fill="#feecaf"/><path d="M 343.5 137.4 A 68.7 68.7 0 0 0 412.2 206.10000000000002 L 412.2 137.4" fill="#fee9a5"/><rect x="412.2" y="137.4" width="68.7" height="68.7" fill="#ffd78a"/><path d="M 412.2 137.4 A 68.7 68.7 0 0 1 480.9 206.10000000000002 L 412.2 206.10000000000002" fill="#f6b0a3"/><rect x="480.9" y="137.4" width="68.7" height="68.7" fill="#ffdb97"/><g transform="translate(480.9,137.4) scale(3.435) rotate(0)"><path d="M13 0H20V7L7 20H0V13L13 0Z" fill="#ffc862"/></g><rect x="549.6" y="137.4" width="68.7" height="68.7" fill="#efeff2"/><rect x="549.6" y="137.4" width="68.7" height="68.7" fill="#bec0cb"/><rect x="618.3" y="137.4" width="68.7" height="68.7" fill="#362e42"/><g transform="translate(618.3,137.4) scale(3.435) rotate(0)"><path d="M10 0L20 10L10 20L0 10L10 0Z" fill="#fdece9"/></g><rect x="687" y="137.4" width="68.7" height="68.7" fill="#ffffff"/><rect x="687" y="137.4" width="34.35" height="34.35" fill="#fff9e5"/><g transform="translate(687,137.4) scale(1.7175) rotate(0)"><path d="M13 0H20V7L7 20H0V13L13 0Z" fill="#eb5234"/></g><rect x="721.35" y="137.4" width="34.35" height="34.35" fill="#fef1c4"/><g transform="translate(721.35,137.4) scale(1.7175) rotate(0)"><path d="M10 0L20 10L10 20L0 10L10 0Z" fill="#ef7159"/></g><rect x="687" y="171.75" width="34.35" height="34.35" fill="#feedb3"/><rect x="687" y="171.75" width="34.35" height="34.35" fill="#efeff2"/><rect x="721.35" y="171.75" width="34.35" height="34.35" fill="#f7baae"/><polygon points="721.35,171.75 755.7,171.75 755.7,206.1" fill="#f9c9c0"/><rect x="755.7" y="137.4" width="68.7" height="68.7" fill="#ffffff"/><rect x="755.7" y="137.4" width="34.35" height="34.35" fill="#ffc14b"/><g transform="translate(755.7,137.4) scale(1.7175) rotate(0)"><path d="M13 0H20V7L7 20H0V13L13 0Z" fill="#fce5e1"/></g><rect x="790.05" y="137.4" width="34.35" height="34.35" fill="#eaeaec"/><path d="M 790.05 171.75 A 34.35 34.35 0 0 1  824.4 137.4 L 790.05 171.75 A 34.35 34.35 0 0 0 824.4 137.4" fill="#fef3cb"/><rect x="755.7" y="171.75" width="34.35" height="34.35" fill="#fffcf2"/><polygon points="755.7,171.75 790.0500000000001,206.1 755.7,206.1" fill="#fef0bf"/><rect x="790.05" y="171.75" width="34.35" height="34.35" fill="#a5a8b7"/><path d="M 790.05 206.1 A 34.35 34.35 0 0 1  824.4 171.75 L 790.05 206.1 A 34.35 34.35 0 0 0 824.4 171.75" fill="#bebbc2"/><rect x="824.4" y="137.4" width="68.7" height="68.7" fill="#b5b7c4"/><g transform="translate(824.4,137.4) scale(3.435) rotate(0)"><path d="M10 0L20 10L10 20L0 10L10 0Z" fill="#636783"/></g><rect x="893.1" y="137.4" width="68.7" height="68.7" fill="#ffffff"/><rect x="893.1" y="137.4" width="34.35" height="34.35" fill="#fef6f4"/><path d="M 893.1 171.75 A 34.35 34.35 0 0 1  927.45 137.4 L 893.1 171.75 A 34.35 34.35 0 0 0 927.45 137.4" fill="#81849a"/><rect x="927.45" y="137.4" width="34.35" height="34.35" fill="#ffda93"/><path d="M 927.45 171.75 A 34.35 34.35 0 0 1  961.8000000000001 137.4 L 927.45 171.75 A 34.35 34.35 0 0 0 961.8000000000001 137.4" fill="#f5a899"/><rect x="893.1" y="171.75" width="34.35" height="34.35" fill="#f3f3f5"/><path d="M 893.1 206.1 A 34.35 34.35 0 0 1  927.45 171.75 L 927.45 206.1" fill="#fef8f7"/><rect x="927.45" y="171.75" width="34.35" height="34.35" fill="#feedb4"/><path d="M 927.45 206.1 A 34.35 34.35 0 0 1  961.8000000000001 171.75 L 961.8000000000001 206.1" fill="#fffefd"/><rect x="961.8" y="137.4" width="68.7" height="68.7" fill="#d6d7de"/><g transform="translate(961.8,137.4) scale(3.435) rotate(0)"><path d="M13 0H20V7L7 20H0V13L13 0Z" fill="#fff4df"/></g><rect x="0" y="206.10000000000002" width="68.7" height="68.7" fill="#ffffff"/><rect x="0" y="206.1" width="34.35" height="34.35" fill="#ffe4b1"/><path d="M 0 240.45 A 34.35 34.35 0 0 1  34.35 206.1 L 34.35 240.45" fill="#d7d8df"/><rect x="34.35" y="206.1" width="34.35" height="34.35" fill="#fffefc"/><g transform="translate(34.35,206.1) scale(1.7175) rotate(0)"><path d="M10 0L20 10L10 20L0 10L10 0Z" fill="#ffe3ae"/></g><rect x="0" y="240.45" width="34.35" height="34.35" fill="#ffbe42"/><path d="M 0 274.8 A 34.35 34.35 0 0 1  34.35 240.45 L 34.35 274.8" fill="#f8c3b8"/><rect x="34.35" y="240.45" width="34.35" height="34.35" fill="#c6c4ca"/><path d="M 34.35 240.45 A 34.35 34.35 0 0 1  68.7 274.8 L 34.35 240.45 A 34.35 34.35 0 0 0 68.7 274.8" fill="#585c7a"/><rect x="68.7" y="206.10000000000002" width="68.7" height="68.7" fill="#ffffff"/><rect x="68.7" y="206.1" width="34.35" height="34.35" fill="#fffaea"/><polygon points="68.7,206.1 103.05000000000001,206.1 103.05000000000001,240.45" fill="#ed5e43"/><rect x="103.05" y="206.1" width="34.35" height="34.35" fill="#fff5e2"/><g transform="translate(103.05,206.1) scale(1.7175) rotate(0)"><path d="M13 0H20V7L7 20H0V13L13 0Z" fill="#fff4d1"/></g><rect x="68.7" y="240.45" width="34.35" height="34.35" fill="#ffe0a5"/><g transform="translate(68.7,240.45) scale(1.7175) rotate(0)"><path d="M10 0L20 10L10 20L0 10L10 0Z" fill="#f49e8e"/></g><rect x="103.05" y="240.45" width="34.35" height="34.35" fill="#e0e0e6"/><g transform="translate(103.05,240.45) scale(1.7175) rotate(0)"><path d="M13 0H20V7L7 20H0V13L13 0Z" fill="#ffe2ab"/></g><rect x="137.4" y="206.10000000000002" width="68.7" height="68.7" fill="#ffffff"/><rect x="137.4" y="206.1" width="34.35" height="34.35" fill="#fbe0da"/><polygon points="137.4,206.1 171.75,206.1 171.75,240.45" fill="#bcbac0"/><rect x="171.75" y="206.1" width="34.35" height="34.35" fill="#ffdb96"/><path d="M 171.75 240.45 A 34.35 34.35 0 0 1  206.1 206.1 L 206.1 240.45" fill="#fef0c2"/><rect x="137.4" y="240.45" width="34.35" height="34.35" fill="#e0dfe2"/><g transform="translate(137.4,240.45) scale(1.7175) rotate(0)"><path d="M13 0H20V7L7 20H0V13L13 0Z" fill="#ffd076"/></g><rect x="171.75" y="240.45" width="34.35" height="34.35" fill="#ffda93"/><path d="M 171.75 274.8 A 34.35 34.35 0 0 1  206.1 240.45 L 171.75 274.8 A 34.35 34.35 0 0 0 206.1 240.45" fill="#ffbb3a"/><rect x="206.10000000000002" y="206.10000000000002" width="68.7" height="68.7" fill="#ffffff"/><rect x="206.1" y="206.1" width="34.35" height="34.35" fill="#f07c66"/><rect x="206.1" y="206.1" width="34.35" height="34.35" fill="#ffce72"/><rect x="240.45" y="206.1" width="34.35" height="34.35" fill="#ffc14b"/><polygon points="240.45,206.1 274.8,240.45 240.45,240.45" fill="#fee8a0"/><rect x="206.1" y="240.45" width="34.35" height="34.35" fill="#898591"/><polygon points="206.1,240.45 240.45,240.45 206.1,274.8" fill="#9698ab"/><rect x="240.45" y="240.45" width="34.35" height="34.35" fill="#d2d0d5"/><path d="M 240.45 240.45 A 34.35 34.35 0 0 1  274.8 274.8 L 240.45 240.45 A 34.35 34.35 0 0 0 274.8 274.8" fill="#feecb1"/><rect x="274.8" y="206.10000000000002" width="68.7" height="68.7" fill="#ffffff"/><rect x="274.8" y="206.1" width="34.35" height="34.35" fill="#fff7de"/><rect x="274.8" y="206.1" width="34.35" height="34.35" fill="#f3907d"/><rect x="309.15" y="206.1" width="34.35" height="34.35" fill="#ee684e"/><path d="M 309.15 240.45 A 34.35 34.35 0 0 1  343.5 206.1 L 309.15 240.45 A 34.35 34.35 0 0 0 343.5 206.1" fill="#fff6d7"/><rect x="274.8" y="240.45" width="34.35" height="34.35" fill="#feedb5"/><g transform="translate(274.8,240.45) scale(1.7175) rotate(0)"><path d="M13 0H20V7L7 20H0V13L13 0Z" fill="#cccdd6"/></g><rect x="309.15" y="240.45" width="34.35" height="34.35" fill="#aca9b1"/><path d="M 309.15 240.45 A 34.35 34.35 0 0 0 343.5 274.8 L 343.5 240.45" fill="#ecebed"/><rect x="343.5" y="206.10000000000002" width="68.7" height="68.7" fill="#ffffff"/><rect x="343.5" y="206.1" width="34.35" height="34.35" fill="#7a7d95"/><g transform="translate(343.5,206.1) scale(1.7175) rotate(0)"><path d="M10 0L20 10L10 20L0 10L10 0Z" fill="#7d8097"/></g><rect x="377.85" y="206.1" width="34.35" height="34.35" fill="#fce4df"/><polygon points="377.85,206.1 412.20000000000005,240.45 377.85,240.45" fill="#bfc0cc"/><rect x="343.5" y="240.45" width="34.35" height="34.35" fill="#ffd688"/><polygon points="343.5,240.45 377.85,274.8 343.5,274.8" fill="#fff3de"/><rect x="377.85" y="240.45" width="34.35" height="34.35" fill="#bdbbc1"/><path d="M 377.85 240.45 A 34.35 34.35 0 0 0 412.20000000000005 274.8 L 412.20000000000005 240.45" fill="#f6ab9d"/><rect x="412.20000000000005" y="206.10000000000002" width="68.7" height="68.7" fill="#ffffff"/><rect x="412.2" y="206.1" width="34.35" height="34.35" fill="#ef6f57"/><path d="M 412.2 240.45 A 34.35 34.35 0 0 1  446.55 206.1 L 412.2 240.45 A 34.35 34.35 0 0 0 446.55 206.1" fill="#ffecc7"/><rect x="446.55" y="206.1" width="34.35" height="34.35" fill="#ffdea0"/><polygon points="480.90000000000003,206.1 480.90000000000003,240.45 446.55,240.45" fill="#fff4d2"/><rect x="412.2" y="240.45" width="34.35" height="34.35" fill="#6c6775"/><polygon points="412.2,240.45 446.55,240.45 412.2,274.8" fill="#fdfdfd"/><rect x="446.55" y="240.45" width="34.35" height="34.35" fill="#feeaa6"/><path d="M 446.55 274.8 A 34.35 34.35 0 0 1  480.90000000000003 240.45 L 446.55 274.8 A 34.35 34.35 0 0 0 480.90000000000003 240.45" fill="#646883"/><rect x="480.9" y="206.1" width="68.7" height="68.7" fill="#c7c9d2"/><g transform="translate(480.9,206.1) scale(3.435) rotate(0)"><path d="M13 0H20V7L7 20H0V13L13 0Z" fill="#fbd9d2"/></g><rect x="549.6" y="206.10000000000002" width="68.7" height="68.7" fill="#ffffff"/><rect x="549.6" y="206.1" width="34.35" height="34.35" fill="#c3c1c7"/><rect x="549.6" y="206.1" width="34.35" height="34.35" fill="#d5d3d7"/><rect x="583.95" y="206.1" width="34.35" height="34.35" fill="#f6f6f8"/><g transform="translate(583.95,206.1) scale(1.7175) rotate(0)"><path d="M13 0H20V7L7 20H0V13L13 0Z" fill="#4c4557"/></g><rect x="549.6" y="240.45" width="34.35" height="34.35" fill="#e5e4e6"/><rect x="549.6" y="240.45" width="34.35" height="34.35" fill="#ffebc5"/><rect x="583.95" y="240.45" width="34.35" height="34.35" fill="#f5a798"/><path d="M 583.95 240.45 A 34.35 34.35 0 0 1 618.3000000000001 274.8 L 583.95 274.8" fill="#8f8b96"/><rect x="618.3" y="206.1" width="68.7" height="68.7" fill="#8e8a95"/><g transform="translate(618.3,206.1) scale(3.435) rotate(0)"><path d="M13 0H20V7L7 20H0V13L13 0Z" fill="#fef2c8"/></g><rect x="687" y="206.1" width="68.7" height="68.7" fill="#fff8ea"/><rect x="687" y="206.1" width="68.7" height="68.7" fill="#ffe3af"/><rect x="755.7" y="206.10000000000002" width="68.7" height="68.7" fill="#ffffff"/><rect x="755.7" y="206.1" width="34.35" height="34.35" fill="#ffefd1"/><g transform="translate(755.7,206.1) scale(1.7175) rotate(0)"><path d="M13 0H20V7L7 20H0V13L13 0Z" fill="#f39987"/></g><rect x="790.05" y="206.1" width="34.35" height="34.35" fill="#fad1c9"/><path d="M 790.05 206.1 A 34.35 34.35 0 0 1  824.4 240.45 L 790.05 206.1 A 34.35 34.35 0 0 0 824.4 240.45" fill="#fef2f0"/><rect x="755.7" y="240.45" width="34.35" height="34.35" fill="#b1b3c1"/><path d="M 755.7 240.45 A 34.35 34.35 0 0 1  790.0500000000001 274.8 L 755.7 240.45 A 34.35 34.35 0 0 0 790.0500000000001 274.8" fill="#3a3347"/><rect x="790.05" y="240.45" width="34.35" height="34.35" fill="#4f485a"/><g transform="translate(790.05,240.45) scale(1.7175) rotate(0)"><path d="M13 0H20V7L7 20H0V13L13 0Z" fill="#f5a697"/></g><rect x="824.4" y="206.1" width="68.7" height="68.7" fill="#feecaf"/><path d="M 824.4 206.1 A 68.7 68.7 0 0 1  893.1 274.8 L 824.4 206.1 A 68.7 68.7 0 0 0 893.1 274.8" fill="#9da0b1"/><rect x="893.1" y="206.10000000000002" width="68.7" height="68.7" fill="#ffffff"/><rect x="893.1" y="206.1" width="34.35" height="34.35" fill="#ffda95"/><polygon points="893.1,206.1 927.45,240.45 893.1,240.45" fill="#fff7df"/><rect x="927.45" y="206.1" width="34.35" height="34.35" fill="#6a6f88"/><path d="M 927.45 206.1 A 34.35 34.35 0 0 1  961.8000000000001 240.45 L 927.45 206.1 A 34.35 34.35 0 0 0 961.8000000000001 240.45" fill="#eb5032"/><rect x="893.1" y="240.45" width="34.35" height="34.35" fill="#8d90a4"/><rect x="893.1" y="240.45" width="34.35" height="34.35" fill="#eb4e2f"/><rect x="927.45" y="240.45" width="34.35" height="34.35" fill="#c1bec4"/><rect x="927.45" y="240.45" width="34.35" height="34.35" fill="#eb4c2d"/><rect x="961.8" y="206.1" width="68.7" height="68.7" fill="#e5e4e6"/><path d="M 961.8 206.1 A 68.7 68.7 0 0 1 1030.5 274.8 L 961.8 274.8" fill="#9295a8"/><rect x="0" y="274.8" width="68.7" height="68.7" fill="#ffffff"/><rect x="0" y="274.8" width="34.35" height="34.35" fill="#f0765f"/><g transform="translate(0,274.8) scale(1.7175) rotate(0)"><path d="M10 0L20 10L10 20L0 10L10 0Z" fill="#878a9f"/></g><rect x="34.35" y="274.8" width="34.35" height="34.35" fill="#fffbf4"/><path d="M 34.35 309.15000000000003 A 34.35 34.35 0 0 1  68.7 274.8 L 68.7 309.15000000000003" fill="#cdced7"/><rect x="0" y="309.15" width="34.35" height="34.35" fill="#fce3de"/><g transform="translate(0,309.15) scale(1.7175) rotate(0)"><path d="M13 0H20V7L7 20H0V13L13 0Z" fill="#ef745c"/></g><rect x="34.35" y="309.15" width="34.35" height="34.35" fill="#f28b77"/><path d="M 34.35 343.5 A 34.35 34.35 0 0 1  68.7 309.15 L 68.7 343.5" fill="#f6ab9d"/><rect x="68.7" y="274.8" width="68.7" height="68.7" fill="#ffdb97"/><path d="M 68.7 343.5 A 68.7 68.7 0 0 1  137.4 274.8 L 137.4 343.5" fill="#ffca66"/><rect x="137.4" y="274.8" width="68.7" height="68.7" fill="#ffffff"/><rect x="137.4" y="274.8" width="34.35" height="34.35" fill="#feecb1"/><path d="M 137.4 309.15000000000003 A 34.35 34.35 0 0 1  171.75 274.8 L 137.4 309.15000000000003 A 34.35 34.35 0 0 0 171.75 274.8" fill="#cdcfd7"/><rect x="171.75" y="274.8" width="34.35" height="34.35" fill="#fff8e2"/><polygon points="206.1,274.8 206.1,309.15000000000003 171.75,309.15000000000003" fill="#f8c3b9"/><rect x="137.4" y="309.15" width="34.35" height="34.35" fill="#feeeb8"/><polygon points="137.4,309.15 171.75,309.15 137.4,343.5" fill="#ffd585"/><rect x="171.75" y="309.15" width="34.35" height="34.35" fill="#787380"/><rect x="171.75" y="309.15" width="34.35" height="34.35" fill="#eb5234"/><rect x="206.1" y="274.8" width="68.7" height="68.7" fill="#8e92a5"/><rect x="206.1" y="274.8" width="68.7" height="68.7" fill="#fffcf0"/><rect x="274.8" y="274.8" width="68.7" height="68.7" fill="#ffffff"/><rect x="274.8" y="274.8" width="34.35" height="34.35" fill="#ffc85f"/><g transform="translate(274.8,274.8) scale(1.7175) rotate(0)"><path d="M13 0H20V7L7 20H0V13L13 0Z" fill="#fef3f1"/></g><rect x="309.15" y="274.8" width="34.35" height="34.35" fill="#feeaa7"/><polygon points="309.15,274.8 343.5,274.8 343.5,309.15000000000003" fill="#b2afb7"/><rect x="274.8" y="309.15" width="34.35" height="34.35" fill="#ef6f56"/><g transform="translate(274.8,309.15) scale(1.7175) rotate(0)"><path d="M13 0H20V7L7 20H0V13L13 0Z" fill="#ffca67"/></g><rect x="309.15" y="309.15" width="34.35" height="34.35" fill="#fffaec"/><g transform="translate(309.15,309.15) scale(1.7175) rotate(0)"><path d="M13 0H20V7L7 20H0V13L13 0Z" fill="#ffde9f"/></g><rect x="343.5" y="274.8" width="68.7" height="68.7" fill="#4d5271"/><path d="M 343.5 343.5 A 68.7 68.7 0 0 1  412.2 274.8 L 343.5 343.5 A 68.7 68.7 0 0 0 412.2 274.8" fill="#feedb3"/><rect x="412.20000000000005" y="274.8" width="68.7" height="68.7" fill="#ffffff"/><rect x="412.2" y="274.8" width="34.35" height="34.35" fill="#525775"/><g transform="translate(412.2,274.8) scale(1.7175) rotate(0)"><path d="M10 0L20 10L10 20L0 10L10 0Z" fill="#f49d8c"/></g><rect x="446.55" y="274.8" width="34.35" height="34.35" fill="#f9cdc5"/><rect x="446.55" y="274.8" width="34.35" height="34.35" fill="#fff7dc"/><rect x="412.2" y="309.15" width="34.35" height="34.35" fill="#d2d3db"/><path d="M 412.2 343.5 A 34.35 34.35 0 0 1  446.55 309.15 L 446.55 343.5" fill="#afacb4"/><rect x="446.55" y="309.15" width="34.35" height="34.35" fill="#feeaa9"/><g transform="translate(446.55,309.15) scale(1.7175) rotate(0)"><path d="M13 0H20V7L7 20H0V13L13 0Z" fill="#fef1c3"/></g><rect x="480.9" y="274.8" width="68.7" height="68.7" fill="#b5b7c4"/><g transform="translate(480.9,274.8) scale(3.435) rotate(0)"><path d="M13 0H20V7L7 20H0V13L13 0Z" fill="#6e6877"/></g><rect x="549.6" y="274.8" width="68.7" height="68.7" fill="#dedde0"/><g transform="translate(549.6,274.8) scale(3.435) rotate(0)"><path d="M10 0L20 10L10 20L0 10L10 0Z" fill="#989bad"/></g><rect x="618.3000000000001" y="274.8" width="68.7" height="68.7" fill="#ffffff"/><rect x="618.3" y="274.8" width="34.35" height="34.35" fill="#f4f4f6"/><g transform="translate(618.3,274.8) scale(1.7175) rotate(0)"><path d="M10 0L20 10L10 20L0 10L10 0Z" fill="#5e5868"/></g><rect x="652.65" y="274.8" width="34.35" height="34.35" fill="#4d5271"/><g transform="translate(652.65,274.8) scale(1.7175) rotate(0)"><path d="M10 0L20 10L10 20L0 10L10 0Z" fill="#ffbf47"/></g><rect x="618.3" y="309.15" width="34.35" height="34.35" fill="#5a5e7b"/><g transform="translate(618.3,309.15) scale(1.7175) rotate(0)"><path d="M10 0L20 10L10 20L0 10L10 0Z" fill="#f7baae"/></g><rect x="652.65" y="309.15" width="34.35" height="34.35" fill="#e5e4e6"/><path d="M 652.65 309.15 A 34.35 34.35 0 0 1 687 343.5 L 652.65 343.5" fill="#fff9e5"/><rect x="687" y="274.8" width="68.7" height="68.7" fill="#ffffff"/><rect x="687" y="274.8" width="34.35" height="34.35" fill="#ffce72"/><g transform="translate(687,274.8) scale(1.7175) rotate(0)"><path d="M10 0L20 10L10 20L0 10L10 0Z" fill="#fffdf5"/></g><rect x="721.35" y="274.8" width="34.35" height="34.35" fill="#b3b5c2"/><path d="M 721.35 309.15000000000003 A 34.35 34.35 0 0 1  755.7 274.8 L 721.35 309.15000000000003 A 34.35 34.35 0 0 0 755.7 274.8" fill="#fbdad3"/><rect x="687" y="309.15" width="34.35" height="34.35" fill="#fff0d2"/><path d="M 687 343.5 A 34.35 34.35 0 0 0 721.35 309.15 L 687 309.15" fill="#fff9e7"/><rect x="721.35" y="309.15" width="34.35" height="34.35" fill="#adafbe"/><rect x="721.35" y="309.15" width="34.35" height="34.35" fill="#b1b4c1"/><rect x="755.7" y="274.8" width="68.7" height="68.7" fill="#ffc250"/><rect x="755.7" y="274.8" width="68.7" height="68.7" fill="#ffd37f"/><rect x="824.4000000000001" y="274.8" width="68.7" height="68.7" fill="#ffffff"/><rect x="824.4" y="274.8" width="34.35" height="34.35" fill="#fff5d7"/><g transform="translate(824.4,274.8) scale(1.7175) rotate(0)"><path d="M13 0H20V7L7 20H0V13L13 0Z" fill="#fef2ca"/></g><rect x="858.75" y="274.8" width="34.35" height="34.35" fill="#ffce72"/><rect x="858.75" y="274.8" width="34.35" height="34.35" fill="#aca9b1"/><rect x="824.4" y="309.15" width="34.35" height="34.35" fill="#fffdf8"/><path d="M 824.4 343.5 A 34.35 34.35 0 0 1  858.75 309.15 L 858.75 343.5" fill="#5c617d"/><rect x="858.75" y="309.15" width="34.35" height="34.35" fill="#fff7e9"/><path d="M 858.75 343.5 A 34.35 34.35 0 0 1  893.1 309.15 L 858.75 343.5 A 34.35 34.35 0 0 0 893.1 309.15" fill="#ea4525"/><rect x="893.1" y="274.8" width="68.7" height="68.7" fill="#ffffff"/><rect x="893.1" y="274.8" width="34.35" height="34.35" fill="#ea4626"/><g transform="translate(893.1,274.8) scale(1.7175) rotate(0)"><path d="M10 0L20 10L10 20L0 10L10 0Z" fill="#f28b78"/></g><rect x="927.45" y="274.8" width="34.35" height="34.35" fill="#fff4e0"/><path d="M 927.45 309.15000000000003 A 34.35 34.35 0 0 1  961.8000000000001 274.8 L 927.45 309.15000000000003 A 34.35 34.35 0 0 0 961.8000000000001 274.8" fill="#ccced7"/><rect x="893.1" y="309.15" width="34.35" height="34.35" fill="#f6afa2"/><path d="M 893.1 343.5 A 34.35 34.35 0 0 1  927.45 309.15 L 893.1 343.5 A 34.35 34.35 0 0 0 927.45 309.15" fill="#878ba0"/><rect x="927.45" y="309.15" width="34.35" height="34.35" fill="#ffb833"/><rect x="927.45" y="309.15" width="34.35" height="34.35" fill="#fef2c9"/><rect x="961.8" y="274.8" width="68.7" height="68.7" fill="#f6f7f8"/><polygon points="961.8,274.8 1030.5,274.8 961.8,343.5" fill="#ffdfa4"/><rect x="0" y="343.5" width="68.7" height="68.7" fill="#ffe1a9"/><path d="M 0 412.2 A 68.7 68.7 0 0 1  68.7 343.5 L 0 412.2 A 68.7 68.7 0 0 0 68.7 343.5" fill="#fafafb"/><rect x="68.7" y="343.5" width="68.7" height="68.7" fill="#ffffff"/><rect x="68.7" y="343.5" width="34.35" height="34.35" fill="#e1e2e7"/><rect x="68.7" y="343.5" width="34.35" height="34.35" fill="#fdebe8"/><rect x="103.05" y="343.5" width="34.35" height="34.35" fill="#ffcc6c"/><path d="M 103.05 343.5 A 34.35 34.35 0 0 1  137.4 377.85 L 103.05 343.5 A 34.35 34.35 0 0 0 137.4 377.85" fill="#e5e6eb"/><rect x="68.7" y="377.85" width="34.35" height="34.35" fill="#dbdade"/><path d="M 68.7 412.20000000000005 A 34.35 34.35 0 0 1  103.05000000000001 377.85 L 68.7 412.20000000000005 A 34.35 34.35 0 0 0 103.05000000000001 377.85" fill="#585c79"/><rect x="103.05" y="377.85" width="34.35" height="34.35" fill="#feecae"/><g transform="translate(103.05,377.85) scale(1.7175) rotate(0)"><path d="M13 0H20V7L7 20H0V13L13 0Z" fill="#ffe7b9"/></g><rect x="137.4" y="343.5" width="68.7" height="68.7" fill="#ffffff"/><rect x="137.4" y="343.5" width="34.35" height="34.35" fill="#f9c8be"/><g transform="translate(137.4,343.5) scale(1.7175) rotate(0)"><path d="M10 0L20 10L10 20L0 10L10 0Z" fill="#ffe6b6"/></g><rect x="171.75" y="343.5" width="34.35" height="34.35" fill="#fdf2ef"/><path d="M 171.75 377.85 A 34.35 34.35 0 0 1  206.1 343.5 L 171.75 377.85 A 34.35 34.35 0 0 0 206.1 343.5" fill="#ffcb6a"/><rect x="137.4" y="377.85" width="34.35" height="34.35" fill="#fffaea"/><g transform="translate(137.4,377.85) scale(1.7175) rotate(0)"><path d="M10 0L20 10L10 20L0 10L10 0Z" fill="#fef2c7"/></g><rect x="171.75" y="377.85" width="34.35" height="34.35" fill="#fefaf9"/><path d="M 171.75 377.85 A 34.35 34.35 0 0 1  206.1 412.20000000000005 L 171.75 377.85 A 34.35 34.35 0 0 0 206.1 412.20000000000005" fill="#c5c3c9"/><rect x="206.10000000000002" y="343.5" width="68.7" height="68.7" fill="#ffffff"/><rect x="206.1" y="343.5" width="34.35" height="34.35" fill="#615b6b"/><g transform="translate(206.1,343.5) scale(1.7175) rotate(0)"><path d="M13 0H20V7L7 20H0V13L13 0Z" fill="#fff6e5"/></g><rect x="240.45" y="343.5" width="34.35" height="34.35" fill="#cdcbd0"/><g transform="translate(240.45,343.5) scale(1.7175) rotate(0)"><path d="M13 0H20V7L7 20H0V13L13 0Z" fill="#fad2ca"/></g><rect x="206.1" y="377.85" width="34.35" height="34.35" fill="#a7a3ac"/><g transform="translate(206.1,377.85) scale(1.7175) rotate(0)"><path d="M13 0H20V7L7 20H0V13L13 0Z" fill="#f5aa9c"/></g><rect x="240.45" y="377.85" width="34.35" height="34.35" fill="#c6c4c9"/><g transform="translate(240.45,377.85) scale(1.7175) rotate(0)"><path d="M13 0H20V7L7 20H0V13L13 0Z" fill="#ffeecd"/></g><rect x="274.8" y="343.5" width="68.7" height="68.7" fill="#e4e5e9"/><path d="M 274.8 343.5 A 68.7 68.7 0 0 1  343.5 412.2 L 274.8 343.5 A 68.7 68.7 0 0 0 343.5 412.2" fill="#3f374b"/><rect x="343.5" y="343.5" width="68.7" height="68.7" fill="#f1806a"/><g transform="translate(343.5,343.5) scale(3.435) rotate(0)"><path d="M10 0L20 10L10 20L0 10L10 0Z" fill="#ffeece"/></g><rect x="412.20000000000005" y="343.5" width="68.7" height="68.7" fill="#ffffff"/><rect x="412.2" y="343.5" width="34.35" height="34.35" fill="#feeaa9"/><path d="M 412.2 377.85 A 34.35 34.35 0 0 1  446.55 343.5 L 412.2 377.85 A 34.35 34.35 0 0 0 446.55 343.5" fill="#99959f"/><rect x="446.55" y="343.5" width="34.35" height="34.35" fill="#ffe3af"/><g transform="translate(446.55,343.5) scale(1.7175) rotate(0)"><path d="M10 0L20 10L10 20L0 10L10 0Z" fill="#eeeef1"/></g><rect x="412.2" y="377.85" width="34.35" height="34.35" fill="#f9c9c0"/><g transform="translate(412.2,377.85) scale(1.7175) rotate(0)"><path d="M10 0L20 10L10 20L0 10L10 0Z" fill="#f07962"/></g><rect x="446.55" y="377.85" width="34.35" height="34.35" fill="#505573"/><g transform="translate(446.55,377.85) scale(1.7175) rotate(0)"><path d="M13 0H20V7L7 20H0V13L13 0Z" fill="#fee9a1"/></g><rect x="480.90000000000003" y="343.5" width="68.7" height="68.7" fill="#ffffff"/><rect x="480.9" y="343.5" width="34.35" height="34.35" fill="#fdeae6"/><g transform="translate(480.9,343.5) scale(1.7175) rotate(0)"><path d="M13 0H20V7L7 20H0V13L13 0Z" fill="#4e5372"/></g><rect x="515.25" y="343.5" width="34.35" height="34.35" fill="#feebad"/><g transform="translate(515.25,343.5) scale(1.7175) rotate(0)"><path d="M10 0L20 10L10 20L0 10L10 0Z" fill="#ea492a"/></g><rect x="480.9" y="377.85" width="34.35" height="34.35" fill="#fef0c2"/><g transform="translate(480.9,377.85) scale(1.7175) rotate(0)"><path d="M13 0H20V7L7 20H0V13L13 0Z" fill="#adafbe"/></g><rect x="515.25" y="377.85" width="34.35" height="34.35" fill="#f39481"/><path d="M 515.25 377.85 A 34.35 34.35 0 0 1  549.6 412.20000000000005 L 515.25 377.85 A 34.35 34.35 0 0 0 549.6 412.20000000000005" fill="#edeef1"/><rect x="549.6" y="343.5" width="68.7" height="68.7" fill="#ffffff"/><rect x="549.6" y="343.5" width="34.35" height="34.35" fill="#fffefb"/><path d="M 549.6 343.5 A 34.35 34.35 0 0 1  583.95 377.85 L 549.6 343.5 A 34.35 34.35 0 0 0 583.95 377.85" fill="#a39fa9"/><rect x="583.95" y="343.5" width="34.35" height="34.35" fill="#b9b7be"/><polygon points="583.95,343.5 618.3000000000001,343.5 583.95,377.85" fill="#ffbd41"/><rect x="549.6" y="377.85" width="34.35" height="34.35" fill="#feedb2"/><path d="M 549.6 377.85 A 34.35 34.35 0 0 1  583.95 412.20000000000005 L 549.6 377.85 A 34.35 34.35 0 0 0 583.95 412.20000000000005" fill="#bbbdc9"/><rect x="583.95" y="377.85" width="34.35" height="34.35" fill="#fef5f3"/><g transform="translate(583.95,377.85) scale(1.7175) rotate(0)"><path d="M10 0L20 10L10 20L0 10L10 0Z" fill="#cfd1d9"/></g><rect x="618.3" y="343.5" width="68.7" height="68.7" fill="#f8f7f8"/><polygon points="687,343.5 687,412.2 618.3,412.2" fill="#fbfbfb"/><rect x="687" y="343.5" width="68.7" height="68.7" fill="#ffffff"/><rect x="687" y="343.5" width="34.35" height="34.35" fill="#616581"/><rect x="687" y="343.5" width="34.35" height="34.35" fill="#fef0bf"/><rect x="721.35" y="343.5" width="34.35" height="34.35" fill="#bdbfca"/><rect x="721.35" y="343.5" width="34.35" height="34.35" fill="#f18570"/><rect x="687" y="377.85" width="34.35" height="34.35" fill="#fffcf8"/><polygon points="687,377.85 721.35,412.20000000000005 687,412.20000000000005" fill="#f39886"/><rect x="721.35" y="377.85" width="34.35" height="34.35" fill="#aaadbb"/><polygon points="721.35,377.85 755.7,412.20000000000005 721.35,412.20000000000005" fill="#fffaeb"/><rect x="755.7" y="343.5" width="68.7" height="68.7" fill="#ffffff"/><rect x="755.7" y="343.5" width="34.35" height="34.35" fill="#f3f3f5"/><polygon points="755.7,343.5 790.0500000000001,377.85 755.7,377.85" fill="#ef745c"/><rect x="790.05" y="343.5" width="34.35" height="34.35" fill="#fffdf7"/><polygon points="824.4,343.5 824.4,377.85 790.05,377.85" fill="#ffe7b9"/><rect x="755.7" y="377.85" width="34.35" height="34.35" fill="#fef8f7"/><path d="M 755.7 412.20000000000005 A 34.35 34.35 0 0 0 790.0500000000001 377.85 L 755.7 377.85" fill="#feebae"/><rect x="790.05" y="377.85" width="34.35" height="34.35" fill="#ef6e54"/><path d="M 790.05 412.20000000000005 A 34.35 34.35 0 0 1  824.4 377.85 L 824.4 412.20000000000005" fill="#f39987"/><rect x="824.4000000000001" y="343.5" width="68.7" height="68.7" fill="#ffffff"/><rect x="824.4" y="343.5" width="34.35" height="34.35" fill="#ffe6b6"/><polygon points="858.75,343.5 858.75,377.85 824.4,377.85" fill="#afb1bf"/><rect x="858.75" y="343.5" width="34.35" height="34.35" fill="#fef3cd"/><rect x="858.75" y="343.5" width="34.35" height="34.35" fill="#706a79"/><rect x="824.4" y="377.85" width="34.35" height="34.35" fill="#494254"/><path d="M 824.4 412.20000000000005 A 34.35 34.35 0 0 1  858.75 377.85 L 824.4 412.20000000000005 A 34.35 34.35 0 0 0 858.75 377.85" fill="#e1e0e3"/><rect x="858.75" y="377.85" width="34.35" height="34.35" fill="#fff9e6"/><path d="M 858.75 377.85 A 34.35 34.35 0 0 1  893.1 412.20000000000005 L 858.75 377.85 A 34.35 34.35 0 0 0 893.1 412.20000000000005" fill="#8b8fa3"/><rect x="893.1" y="343.5" width="68.7" height="68.7" fill="#ffffff"/><rect x="893.1" y="343.5" width="34.35" height="34.35" fill="#fffbed"/><g transform="translate(893.1,343.5) scale(1.7175) rotate(0)"><path d="M10 0L20 10L10 20L0 10L10 0Z" fill="#342c41"/></g><rect x="927.45" y="343.5" width="34.35" height="34.35" fill="#e7e6e8"/><polygon points="961.8000000000001,343.5 961.8000000000001,377.85 927.45,377.85" fill="#fff9e8"/><rect x="893.1" y="377.85" width="34.35" height="34.35" fill="#ffc75f"/><path d="M 893.1 412.20000000000005 A 34.35 34.35 0 0 1  927.45 377.85 L 893.1 412.20000000000005 A 34.35 34.35 0 0 0 927.45 377.85" fill="#ef755e"/><rect x="927.45" y="377.85" width="34.35" height="34.35" fill="#ea4727"/><polygon points="927.45,377.85 961.8000000000001,412.20000000000005 927.45,412.20000000000005" fill="#e4e5ea"/><rect x="961.8" y="343.5" width="68.7" height="68.7" fill="#fffdf5"/><rect x="961.8" y="343.5" width="68.7" height="68.7" fill="#ffc75d"/><rect x="0" y="412.20000000000005" width="68.7" height="68.7" fill="#ffffff"/><rect x="0" y="412.2" width="34.35" height="34.35" fill="#a4a1aa"/><path d="M 0 446.55 A 34.35 34.35 0 0 0 34.35 412.2 L 0 412.2" fill="#a3a6b6"/><rect x="34.35" y="412.2" width="34.35" height="34.35" fill="#e5e4e7"/><g transform="translate(34.35,412.2) scale(1.7175) rotate(0)"><path d="M13 0H20V7L7 20H0V13L13 0Z" fill="#f18672"/></g><rect x="0" y="446.55" width="34.35" height="34.35" fill="#ef6e55"/><rect x="0" y="446.55" width="34.35" height="34.35" fill="#f28b78"/><rect x="34.35" y="446.55" width="34.35" height="34.35" fill="#ffc964"/><path d="M 34.35 480.90000000000003 A 34.35 34.35 0 0 1  68.7 446.55 L 34.35 480.90000000000003 A 34.35 34.35 0 0 0 68.7 446.55" fill="#e5e4e7"/><rect x="68.7" y="412.2" width="68.7" height="68.7" fill="#ffc14c"/><g transform="translate(68.7,412.2) scale(3.435) rotate(0)"><path d="M10 0L20 10L10 20L0 10L10 0Z" fill="#feedb5"/></g><rect x="137.4" y="412.2" width="68.7" height="68.7" fill="#aaacbb"/><path d="M 137.4 480.9 A 68.7 68.7 0 0 1  206.10000000000002 412.2 L 137.4 480.9 A 68.7 68.7 0 0 0 206.10000000000002 412.2" fill="#fffaf0"/><rect x="206.10000000000002" y="412.20000000000005" width="68.7" height="68.7" fill="#ffffff"/><rect x="206.1" y="412.2" width="34.35" height="34.35" fill="#7a7d95"/><rect x="206.1" y="412.2" width="34.35" height="34.35" fill="#6c7089"/><rect x="240.45" y="412.2" width="34.35" height="34.35" fill="#ededf0"/><g transform="translate(240.45,412.2) scale(1.7175) rotate(0)"><path d="M10 0L20 10L10 20L0 10L10 0Z" fill="#ffda93"/></g><rect x="206.1" y="446.55" width="34.35" height="34.35" fill="#423a4d"/><rect x="206.1" y="446.55" width="34.35" height="34.35" fill="#e2e3e8"/><rect x="240.45" y="446.55" width="34.35" height="34.35" fill="#feeaa9"/><polygon points="274.8,446.55 274.8,480.90000000000003 240.45,480.90000000000003" fill="#feedb5"/><rect x="274.8" y="412.20000000000005" width="68.7" height="68.7" fill="#ffffff"/><rect x="274.8" y="412.2" width="34.35" height="34.35" fill="#31293e"/><path d="M 274.8 412.2 A 34.35 34.35 0 0 1  309.15000000000003 446.55 L 274.8 412.2 A 34.35 34.35 0 0 0 309.15000000000003 446.55" fill="#ffcc6c"/><rect x="309.15" y="412.2" width="34.35" height="34.35" fill="#fff6e6"/><g transform="translate(309.15,412.2) scale(1.7175) rotate(0)"><path d="M10 0L20 10L10 20L0 10L10 0Z" fill="#c3c5cf"/></g><rect x="274.8" y="446.55" width="34.35" height="34.35" fill="#f7bbaf"/><polygon points="274.8,446.55 309.15000000000003,446.55 309.15000000000003,480.90000000000003" fill="#5c607d"/><rect x="309.15" y="446.55" width="34.35" height="34.35" fill="#b8b6bd"/><path d="M 309.15 480.90000000000003 A 34.35 34.35 0 0 1  343.5 446.55 L 309.15 480.90000000000003 A 34.35 34.35 0 0 0 343.5 446.55" fill="#ffd78c"/><rect x="343.5" y="412.20000000000005" width="68.7" height="68.7" fill="#ffffff"/><rect x="343.5" y="412.2" width="34.35" height="34.35" fill="#9b97a1"/><path d="M 343.5 446.55 A 34.35 34.35 0 0 0 377.85 412.2 L 343.5 412.2" fill="#ffcc6c"/><rect x="377.85" y="412.2" width="34.35" height="34.35" fill="#6f738c"/><path d="M 377.85 446.55 A 34.35 34.35 0 0 1  412.20000000000005 412.2 L 377.85 446.55 A 34.35 34.35 0 0 0 412.20000000000005 412.2" fill="#c0bec4"/><rect x="343.5" y="446.55" width="34.35" height="34.35" fill="#ffd078"/><rect x="343.5" y="446.55" width="34.35" height="34.35" fill="#686271"/><rect x="377.85" y="446.55" width="34.35" height="34.35" fill="#5c617d"/><g transform="translate(377.85,446.55) scale(1.7175) rotate(0)"><path d="M10 0L20 10L10 20L0 10L10 0Z" fill="#fffcf5"/></g><rect x="412.2" y="412.2" width="68.7" height="68.7" fill="#86818d"/><path d="M 412.2 412.2 A 68.7 68.7 0 0 1 480.9 480.9 L 412.2 480.9" fill="#fffbed"/><rect x="480.90000000000003" y="412.20000000000005" width="68.7" height="68.7" fill="#ffffff"/><rect x="480.9" y="412.2" width="34.35" height="34.35" fill="#666a85"/><rect x="480.9" y="412.2" width="34.35" height="34.35" fill="#ffc75c"/><rect x="515.25" y="412.2" width="34.35" height="34.35" fill="#bab7be"/><path d="M 515.25 446.55 A 34.35 34.35 0 0 1  549.6 412.2 L 515.25 446.55 A 34.35 34.35 0 0 0 549.6 412.2" fill="#ffbc3e"/><rect x="480.9" y="446.55" width="34.35" height="34.35" fill="#a3a5b5"/><path d="M 480.9 446.55 A 34.35 34.35 0 0 1  515.25 480.90000000000003 L 480.9 446.55 A 34.35 34.35 0 0 0 515.25 480.90000000000003" fill="#ec5639"/><rect x="515.25" y="446.55" width="34.35" height="34.35" fill="#ffd688"/><g transform="translate(515.25,446.55) scale(1.7175) rotate(0)"><path d="M13 0H20V7L7 20H0V13L13 0Z" fill="#ed6348"/></g><rect x="549.6" y="412.20000000000005" width="68.7" height="68.7" fill="#ffffff"/><rect x="549.6" y="412.2" width="34.35" height="34.35" fill="#ffedcc"/><g transform="translate(549.6,412.2) scale(1.7175) rotate(0)"><path d="M13 0H20V7L7 20H0V13L13 0Z" fill="#ffc65b"/></g><rect x="583.95" y="412.2" width="34.35" height="34.35" fill="#f7f7f7"/><rect x="583.95" y="412.2" width="34.35" height="34.35" fill="#30283c"/><rect x="549.6" y="446.55" width="34.35" height="34.35" fill="#eb4d2e"/><rect x="549.6" y="446.55" width="34.35" height="34.35" fill="#fffcf6"/><rect x="583.95" y="446.55" width="34.35" height="34.35" fill="#fad4cd"/><path d="M 583.95 446.55 A 34.35 34.35 0 0 1 618.3000000000001 480.90000000000003 L 583.95 480.90000000000003" fill="#ffc454"/><rect x="618.3" y="412.2" width="68.7" height="68.7" fill="#ffd076"/><path d="M 618.3 480.9 A 68.7 68.7 0 0 1  687 412.2 L 618.3 480.9 A 68.7 68.7 0 0 0 687 412.2" fill="#e8e8ec"/><rect x="687" y="412.20000000000005" width="68.7" height="68.7" fill="#ffffff"/><rect x="687" y="412.2" width="34.35" height="34.35" fill="#c7c5cb"/><g transform="translate(687,412.2) scale(1.7175) rotate(0)"><path d="M10 0L20 10L10 20L0 10L10 0Z" fill="#e2e3e8"/></g><rect x="721.35" y="412.2" width="34.35" height="34.35" fill="#e7e8ec"/><path d="M 721.35 446.55 A 34.35 34.35 0 0 1  755.7 412.2 L 721.35 446.55 A 34.35 34.35 0 0 0 755.7 412.2" fill="#ffbe42"/><rect x="687" y="446.55" width="34.35" height="34.35" fill="#ed6044"/><rect x="687" y="446.55" width="34.35" height="34.35" fill="#ffe6b6"/><rect x="721.35" y="446.55" width="34.35" height="34.35" fill="#8e91a5"/><g transform="translate(721.35,446.55) scale(1.7175) rotate(0)"><path d="M10 0L20 10L10 20L0 10L10 0Z" fill="#fff9e8"/></g><rect x="755.7" y="412.2" width="68.7" height="68.7" fill="#feefbe"/><g transform="translate(755.7,412.2) scale(3.435) rotate(0)"><path d="M13 0H20V7L7 20H0V13L13 0Z" fill="#f1816b"/></g><rect x="824.4000000000001" y="412.20000000000005" width="68.7" height="68.7" fill="#ffffff"/><rect x="824.4" y="412.2" width="34.35" height="34.35" fill="#7d8197"/><rect x="824.4" y="412.2" width="34.35" height="34.35" fill="#feefbb"/><rect x="858.75" y="412.2" width="34.35" height="34.35" fill="#585263"/><polygon points="858.75,412.2 893.1,412.2 893.1,446.55" fill="#fffcf1"/><rect x="824.4" y="446.55" width="34.35" height="34.35" fill="#ecedf0"/><rect x="824.4" y="446.55" width="34.35" height="34.35" fill="#332c40"/><rect x="858.75" y="446.55" width="34.35" height="34.35" fill="#ee6a51"/><rect x="858.75" y="446.55" width="34.35" height="34.35" fill="#ffbe44"/><rect x="893.1" y="412.2" width="68.7" height="68.7" fill="#fef0c0"/><path d="M 893.1 412.2 A 68.7 68.7 0 0 1  961.8000000000001 480.9 L 893.1 412.2 A 68.7 68.7 0 0 0 961.8000000000001 480.9" fill="#fcfdfd"/><rect x="961.8000000000001" y="412.20000000000005" width="68.7" height="68.7" fill="#ffffff"/><rect x="961.8" y="412.2" width="34.35" height="34.35" fill="#bbb9c0"/><g transform="translate(961.8,412.2) scale(1.7175) rotate(0)"><path d="M13 0H20V7L7 20H0V13L13 0Z" fill="#ffcb69"/></g><rect x="996.15" y="412.2" width="34.35" height="34.35" fill="#feefbd"/><g transform="translate(996.15,412.2) scale(1.7175) rotate(0)"><path d="M13 0H20V7L7 20H0V13L13 0Z" fill="#c5c7d1"/></g><rect x="961.8" y="446.55" width="34.35" height="34.35" fill="#f1f0f2"/><g transform="translate(961.8,446.55) scale(1.7175) rotate(0)"><path d="M10 0L20 10L10 20L0 10L10 0Z" fill="#cdced7"/></g><rect x="996.15" y="446.55" width="34.35" height="34.35" fill="#ed5e43"/><g transform="translate(996.15,446.55) scale(1.7175) rotate(0)"><path d="M13 0H20V7L7 20H0V13L13 0Z" fill="#9a96a0"/></g><rect x="0" y="480.9" width="68.7" height="68.7" fill="#f9c6bc"/><polygon points="0,480.9 68.7,480.9 68.7,549.6" fill="#ffcc6b"/><rect x="68.7" y="480.9" width="68.7" height="68.7" fill="#453e50"/><path d="M 68.7 480.9 A 68.7 68.7 0 0 1 137.4 549.6 L 68.7 549.6" fill="#5c607d"/><rect x="137.4" y="480.9" width="68.7" height="68.7" fill="#f5f5f7"/><path d="M 137.4 549.6 A 68.7 68.7 0 0 1  206.10000000000002 480.9 L 206.10000000000002 549.6" fill="#fad5ce"/><rect x="206.10000000000002" y="480.90000000000003" width="68.7" height="68.7" fill="#ffffff"/><rect x="206.1" y="480.9" width="34.35" height="34.35" fill="#f07c65"/><polygon points="240.45,480.9 240.45,515.25 206.1,515.25" fill="#fff6d8"/><rect x="240.45" y="480.9" width="34.35" height="34.35" fill="#f1806a"/><polygon points="240.45,480.9 274.8,515.25 240.45,515.25" fill="#cccdd6"/><rect x="206.1" y="515.25" width="34.35" height="34.35" fill="#30283d"/><path d="M 206.1 549.6 A 34.35 34.35 0 0 1  240.45 515.25 L 206.1 549.6 A 34.35 34.35 0 0 0 240.45 515.25" fill="#554e5f"/><rect x="240.45" y="515.25" width="34.35" height="34.35" fill="#fee8a0"/><path d="M 240.45 549.6 A 34.35 34.35 0 0 1  274.8 515.25 L 240.45 549.6 A 34.35 34.35 0 0 0 274.8 515.25" fill="#ffd687"/><rect x="274.8" y="480.9" width="68.7" height="68.7" fill="#fef0bf"/><g transform="translate(274.8,480.9) scale(3.435) rotate(0)"><path d="M10 0L20 10L10 20L0 10L10 0Z" fill="#f5a899"/></g><rect x="343.5" y="480.9" width="68.7" height="68.7" fill="#fef3cb"/><path d="M 343.5 549.6 A 68.7 68.7 0 0 1  412.2 480.9 L 343.5 549.6 A 68.7 68.7 0 0 0 412.2 480.9" fill="#ffc456"/><rect x="412.2" y="480.9" width="68.7" height="68.7" fill="#676171"/><path d="M 412.2 549.6 A 68.7 68.7 0 0 1  480.9 480.9 L 480.9 549.6" fill="#fffdfa"/><rect x="480.90000000000003" y="480.90000000000003" width="68.7" height="68.7" fill="#ffffff"/><rect x="480.9" y="480.9" width="34.35" height="34.35" fill="#feeaa9"/><path d="M 480.9 515.25 A 34.35 34.35 0 0 1  515.25 480.9 L 480.9 515.25 A 34.35 34.35 0 0 0 515.25 480.9" fill="#ffb833"/><rect x="515.25" y="480.9" width="34.35" height="34.35" fill="#fffffe"/><g transform="translate(515.25,480.9) scale(1.7175) rotate(0)"><path d="M13 0H20V7L7 20H0V13L13 0Z" fill="#8e91a5"/></g><rect x="480.9" y="515.25" width="34.35" height="34.35" fill="#f7b9ad"/><polygon points="515.25,515.25 515.25,549.6 480.9,549.6" fill="#f7f7f7"/><rect x="515.25" y="515.25" width="34.35" height="34.35" fill="#fff4de"/><g transform="translate(515.25,515.25) scale(1.7175) rotate(0)"><path d="M13 0H20V7L7 20H0V13L13 0Z" fill="#fff7de"/></g><rect x="549.6" y="480.9" width="68.7" height="68.7" fill="#feebac"/><path d="M 549.6 549.6 A 68.7 68.7 0 0 1  618.3000000000001 480.9 L 618.3000000000001 549.6" fill="#eff0f3"/><rect x="618.3000000000001" y="480.90000000000003" width="68.7" height="68.7" fill="#ffffff"/><rect x="618.3" y="480.9" width="34.35" height="34.35" fill="#ffe3af"/><g transform="translate(618.3,480.9) scale(1.7175) rotate(0)"><path d="M10 0L20 10L10 20L0 10L10 0Z" fill="#98949e"/></g><rect x="652.65" y="480.9" width="34.35" height="34.35" fill="#a6a8b8"/><rect x="652.65" y="480.9" width="34.35" height="34.35" fill="#fff8e2"/><rect x="618.3" y="515.25" width="34.35" height="34.35" fill="#fffefd"/><path d="M 618.3 549.6 A 34.35 34.35 0 0 1  652.65 515.25 L 618.3 549.6 A 34.35 34.35 0 0 0 652.65 515.25" fill="#f49f8f"/><rect x="652.65" y="515.25" width="34.35" height="34.35" fill="#c8c9d3"/><polygon points="652.65,515.25 687,515.25 652.65,549.6" fill="#ffda94"/><rect x="687" y="480.90000000000003" width="68.7" height="68.7" fill="#ffffff"/><rect x="687" y="480.9" width="34.35" height="34.35" fill="#646883"/><g transform="translate(687,480.9) scale(1.7175) rotate(0)"><path d="M13 0H20V7L7 20H0V13L13 0Z" fill="#fff8eb"/></g><rect x="721.35" y="480.9" width="34.35" height="34.35" fill="#85818d"/><rect x="721.35" y="480.9" width="34.35" height="34.35" fill="#fff5d3"/><rect x="687" y="515.25" width="34.35" height="34.35" fill="#f8f9fa"/><rect x="687" y="515.25" width="34.35" height="34.35" fill="#b6b3bb"/><rect x="721.35" y="515.25" width="34.35" height="34.35" fill="#f9cdc4"/><g transform="translate(721.35,515.25) scale(1.7175) rotate(0)"><path d="M13 0H20V7L7 20H0V13L13 0Z" fill="#aeb0be"/></g><rect x="755.7" y="480.90000000000003" width="68.7" height="68.7" fill="#ffffff"/><rect x="755.7" y="480.9" width="34.35" height="34.35" fill="#2d253a"/><g transform="translate(755.7,480.9) scale(1.7175) rotate(0)"><path d="M13 0H20V7L7 20H0V13L13 0Z" fill="#ffd687"/></g><rect x="790.05" y="480.9" width="34.35" height="34.35" fill="#fff7dd"/><path d="M 790.05 480.9 A 34.35 34.35 0 0 0 824.4 515.25 L 824.4 480.9" fill="#d7d8df"/><rect x="755.7" y="515.25" width="34.35" height="34.35" fill="#d9dae1"/><polygon points="755.7,515.25 790.0500000000001,515.25 755.7,549.6" fill="#72768f"/><rect x="790.05" y="515.25" width="34.35" height="34.35" fill="#a1a4b4"/><g transform="translate(790.05,515.25) scale(1.7175) rotate(0)"><path d="M10 0L20 10L10 20L0 10L10 0Z" fill="#f1f2f4"/></g><rect x="824.4" y="480.9" width="68.7" height="68.7" fill="#f4a08f"/><g transform="translate(824.4,480.9) scale(3.435) rotate(0)"><path d="M13 0H20V7L7 20H0V13L13 0Z" fill="#fff9ed"/></g><rect x="893.1" y="480.9" width="68.7" height="68.7" fill="#a09ca6"/><path d="M 893.1 480.9 A 68.7 68.7 0 0 1 961.8000000000001 549.6 L 893.1 549.6" fill="#fff2db"/><rect x="961.8" y="480.9" width="68.7" height="68.7" fill="#fce5e1"/><polygon points="961.8,480.9 1030.5,480.9 961.8,549.6" fill="#8b8692"/><rect x="0" y="549.6" width="68.7" height="68.7" fill="#ffffff"/><rect x="0" y="549.6" width="34.35" height="34.35" fill="#aeabb3"/><polygon points="0,549.6 34.35,583.95 0,583.95" fill="#ef735b"/><rect x="34.35" y="549.6" width="34.35" height="34.35" fill="#605a6a"/><g transform="translate(34.35,549.6) scale(1.7175) rotate(0)"><path d="M13 0H20V7L7 20H0V13L13 0Z" fill="#acaebd"/></g><rect x="0" y="583.95" width="34.35" height="34.35" fill="#e4e3e5"/><g transform="translate(0,583.95) scale(1.7175) rotate(0)"><path d="M13 0H20V7L7 20H0V13L13 0Z" fill="#fef0bf"/></g><rect x="34.35" y="583.95" width="34.35" height="34.35" fill="#fffffd"/><rect x="34.35" y="583.95" width="34.35" height="34.35" fill="#f7b4a7"/><rect x="68.7" y="549.6" width="68.7" height="68.7" fill="#b0b2c0"/><path d="M 68.7 549.6 A 68.7 68.7 0 0 1  137.4 618.3000000000001 L 68.7 549.6 A 68.7 68.7 0 0 0 137.4 618.3000000000001" fill="#555a77"/><rect x="137.4" y="549.6" width="68.7" height="68.7" fill="#ffffff"/><rect x="137.4" y="549.6" width="34.35" height="34.35" fill="#73778f"/><path d="M 137.4 583.95 A 34.35 34.35 0 0 1  171.75 549.6 L 137.4 583.95 A 34.35 34.35 0 0 0 171.75 549.6" fill="#ed6247"/><rect x="171.75" y="549.6" width="34.35" height="34.35" fill="#ee6d53"/><g transform="translate(171.75,549.6) scale(1.7175) rotate(0)"><path d="M10 0L20 10L10 20L0 10L10 0Z" fill="#fff7dd"/></g><rect x="137.4" y="583.95" width="34.35" height="34.35" fill="#f28873"/><rect x="137.4" y="583.95" width="34.35" height="34.35" fill="#ffd78a"/><rect x="171.75" y="583.95" width="34.35" height="34.35" fill="#eb4e30"/><path d="M 171.75 583.95 A 34.35 34.35 0 0 1  206.1 618.3000000000001 L 171.75 583.95 A 34.35 34.35 0 0 0 206.1 618.3000000000001" fill="#4d4658"/><rect x="206.10000000000002" y="549.6" width="68.7" height="68.7" fill="#ffffff"/><rect x="206.1" y="549.6" width="34.35" height="34.35" fill="#ffe7ba"/><g transform="translate(206.1,549.6) scale(1.7175) rotate(0)"><path d="M13 0H20V7L7 20H0V13L13 0Z" fill="#f8f8f9"/></g><rect x="240.45" y="549.6" width="34.35" height="34.35" fill="#e6e6e8"/><g transform="translate(240.45,549.6) scale(1.7175) rotate(0)"><path d="M10 0L20 10L10 20L0 10L10 0Z" fill="#f7f7f8"/></g><rect x="206.1" y="583.95" width="34.35" height="34.35" fill="#feecaf"/><g transform="translate(206.1,583.95) scale(1.7175) rotate(0)"><path d="M13 0H20V7L7 20H0V13L13 0Z" fill="#4a4f6e"/></g><rect x="240.45" y="583.95" width="34.35" height="34.35" fill="#fffaeb"/><path d="M 240.45 618.3000000000001 A 34.35 34.35 0 0 0 274.8 583.95 L 240.45 583.95" fill="#ffcf76"/><rect x="274.8" y="549.6" width="68.7" height="68.7" fill="#686372"/><polygon points="343.5,549.6 343.5,618.3000000000001 274.8,618.3000000000001" fill="#7e8298"/><rect x="343.5" y="549.6" width="68.7" height="68.7" fill="#ffffff"/><rect x="343.5" y="549.6" width="34.35" height="34.35" fill="#ef7158"/><path d="M 343.5 549.6 A 34.35 34.35 0 0 1  377.85 583.95 L 343.5 549.6 A 34.35 34.35 0 0 0 377.85 583.95" fill="#f1846f"/><rect x="377.85" y="549.6" width="34.35" height="34.35" fill="#9093a6"/><polygon points="412.20000000000005,549.6 412.20000000000005,583.95 377.85,583.95" fill="#a3a0a9"/><rect x="343.5" y="583.95" width="34.35" height="34.35" fill="#fffcf4"/><g transform="translate(343.5,583.95) scale(1.7175) rotate(0)"><path d="M13 0H20V7L7 20H0V13L13 0Z" fill="#fff7dd"/></g><rect x="377.85" y="583.95" width="34.35" height="34.35" fill="#dfe0e6"/><polygon points="412.20000000000005,583.95 412.20000000000005,618.3000000000001 377.85,618.3000000000001" fill="#9c98a2"/><rect x="412.2" y="549.6" width="68.7" height="68.7" fill="#a5a1aa"/><rect x="412.2" y="549.6" width="68.7" height="68.7" fill="#4e5372"/><rect x="480.90000000000003" y="549.6" width="68.7" height="68.7" fill="#ffffff"/><rect x="480.9" y="549.6" width="34.35" height="34.35" fill="#fffcf7"/><g transform="translate(480.9,549.6) scale(1.7175) rotate(0)"><path d="M10 0L20 10L10 20L0 10L10 0Z" fill="#f07b64"/></g><rect x="515.25" y="549.6" width="34.35" height="34.35" fill="#ffda95"/><g transform="translate(515.25,549.6) scale(1.7175) rotate(0)"><path d="M10 0L20 10L10 20L0 10L10 0Z" fill="#a5a7b7"/></g><rect x="480.9" y="583.95" width="34.35" height="34.35" fill="#b7b9c6"/><g transform="translate(480.9,583.95) scale(1.7175) rotate(0)"><path d="M10 0L20 10L10 20L0 10L10 0Z" fill="#fff6da"/></g><rect x="515.25" y="583.95" width="34.35" height="34.35" fill="#736e7c"/><path d="M 515.25 618.3000000000001 A 34.35 34.35 0 0 1  549.6 583.95 L 515.25 618.3000000000001 A 34.35 34.35 0 0 0 549.6 583.95" fill="#f28f7c"/><rect x="549.6" y="549.6" width="68.7" height="68.7" fill="#fefaf9"/><path d="M 549.6 549.6 A 68.7 68.7 0 0 1  618.3000000000001 618.3000000000001 L 549.6 549.6 A 68.7 68.7 0 0 0 618.3000000000001 618.3000000000001" fill="#fffffe"/><rect x="618.3000000000001" y="549.6" width="68.7" height="68.7" fill="#ffffff"/><rect x="618.3" y="549.6" width="34.35" height="34.35" fill="#edecee"/><path d="M 618.3 583.95 A 34.35 34.35 0 0 1  652.65 549.6 L 618.3 583.95 A 34.35 34.35 0 0 0 652.65 549.6" fill="#636782"/><rect x="652.65" y="549.6" width="34.35" height="34.35" fill="#fffcf4"/><path d="M 652.65 549.6 A 34.35 34.35 0 0 1  687 583.95 L 652.65 549.6 A 34.35 34.35 0 0 0 687 583.95" fill="#7d8097"/><rect x="618.3" y="583.95" width="34.35" height="34.35" fill="#b1aeb6"/><g transform="translate(618.3,583.95) scale(1.7175) rotate(0)"><path d="M13 0H20V7L7 20H0V13L13 0Z" fill="#4f5473"/></g><rect x="652.65" y="583.95" width="34.35" height="34.35" fill="#f9cec5"/><g transform="translate(652.65,583.95) scale(1.7175) rotate(0)"><path d="M10 0L20 10L10 20L0 10L10 0Z" fill="#acaebd"/></g><rect x="687" y="549.6" width="68.7" height="68.7" fill="#ffffff"/><rect x="687" y="549.6" width="34.35" height="34.35" fill="#352d41"/><polygon points="687,549.6 721.35,583.95 687,583.95" fill="#ffbc3f"/><rect x="721.35" y="549.6" width="34.35" height="34.35" fill="#ffcf75"/><polygon points="721.35,549.6 755.7,583.95 721.35,583.95" fill="#746f7c"/><rect x="687" y="583.95" width="34.35" height="34.35" fill="#fef1c5"/><path d="M 687 618.3000000000001 A 34.35 34.35 0 0 1  721.35 583.95 L 687 618.3000000000001 A 34.35 34.35 0 0 0 721.35 583.95" fill="#fffefc"/><rect x="721.35" y="583.95" width="34.35" height="34.35" fill="#fffcf6"/><g transform="translate(721.35,583.95) scale(1.7175) rotate(0)"><path d="M10 0L20 10L10 20L0 10L10 0Z" fill="#f7baae"/></g><rect x="755.7" y="549.6" width="68.7" height="68.7" fill="#c9c7cc"/><g transform="translate(755.7,549.6) scale(3.435) rotate(0)"><path d="M13 0H20V7L7 20H0V13L13 0Z" fill="#ef745c"/></g><rect x="824.4000000000001" y="549.6" width="68.7" height="68.7" fill="#ffffff"/><rect x="824.4" y="549.6" width="34.35" height="34.35" fill="#fffef9"/><path d="M 824.4 583.95 A 34.35 34.35 0 0 1  858.75 549.6 L 824.4 583.95 A 34.35 34.35 0 0 0 858.75 549.6" fill="#fffdf8"/><rect x="858.75" y="549.6" width="34.35" height="34.35" fill="#dedde0"/><polygon points="858.75,549.6 893.1,583.95 858.75,583.95" fill="#feecb0"/><rect x="824.4" y="583.95" width="34.35" height="34.35" fill="#362f43"/><polygon points="858.75,583.95 858.75,618.3000000000001 824.4,618.3000000000001" fill="#ffde9e"/><rect x="858.75" y="583.95" width="34.35" height="34.35" fill="#ffd27d"/><polygon points="858.75,583.95 893.1,618.3000000000001 858.75,618.3000000000001" fill="#cfcdd2"/><rect x="893.1" y="549.6" width="68.7" height="68.7" fill="#ffd587"/><g transform="translate(893.1,549.6) scale(3.435) rotate(0)"><path d="M13 0H20V7L7 20H0V13L13 0Z" fill="#ec573a"/></g><rect x="961.8" y="549.6" width="68.7" height="68.7" fill="#fef2c7"/><path d="M 961.8 618.3000000000001 A 68.7 68.7 0 0 1  1030.5 549.6 L 961.8 618.3000000000001 A 68.7 68.7 0 0 0 1030.5 549.6" fill="#fffaea"/><rect x="0" y="618.3" width="68.7" height="68.7" fill="#ffe7bb"/><g transform="translate(0,618.3) scale(3.435) rotate(0)"><path d="M10 0L20 10L10 20L0 10L10 0Z" fill="#fffbee"/></g><rect x="68.7" y="618.3000000000001" width="68.7" height="68.7" fill="#ffffff"/><rect x="68.7" y="618.3" width="34.35" height="34.35" fill="#f8bfb5"/><path d="M 68.7 618.3 A 34.35 34.35 0 0 0 103.05000000000001 652.65 L 103.05000000000001 618.3" fill="#fffcf5"/><rect x="103.05" y="618.3" width="34.35" height="34.35" fill="#fef7f6"/><rect x="103.05" y="618.3" width="34.35" height="34.35" fill="#575c79"/><rect x="68.7" y="652.65" width="34.35" height="34.35" fill="#f7f7f7"/><path d="M 68.7 687 A 34.35 34.35 0 0 0 103.05000000000001 652.65 L 68.7 652.65" fill="#84808c"/><rect x="103.05" y="652.65" width="34.35" height="34.35" fill="#ffeece"/><g transform="translate(103.05,652.65) scale(1.7175) rotate(0)"><path d="M13 0H20V7L7 20H0V13L13 0Z" fill="#d7d6da"/></g><rect x="137.4" y="618.3000000000001" width="68.7" height="68.7" fill="#ffffff"/><rect x="137.4" y="618.3" width="34.35" height="34.35" fill="#d9dae0"/><polygon points="137.4,618.3 171.75,652.65 137.4,652.65" fill="#f7b8ac"/><rect x="171.75" y="618.3" width="34.35" height="34.35" fill="#f9cbc3"/><polygon points="171.75,618.3 206.1,652.65 171.75,652.65" fill="#fffefe"/><rect x="137.4" y="652.65" width="34.35" height="34.35" fill="#a5a7b7"/><rect x="137.4" y="652.65" width="34.35" height="34.35" fill="#ffd484"/><rect x="171.75" y="652.65" width="34.35" height="34.35" fill="#d6d7de"/><g transform="translate(171.75,652.65) scale(1.7175) rotate(0)"><path d="M13 0H20V7L7 20H0V13L13 0Z" fill="#3d3649"/></g><rect x="206.10000000000002" y="618.3000000000001" width="68.7" height="68.7" fill="#ffffff"/><rect x="206.1" y="618.3" width="34.35" height="34.35" fill="#31293e"/><path d="M 206.1 652.65 A 34.35 34.35 0 0 1  240.45 618.3 L 240.45 652.65" fill="#8b8ea2"/><rect x="240.45" y="618.3" width="34.35" height="34.35" fill="#feeaa8"/><polygon points="240.45,618.3 274.8,652.65 240.45,652.65" fill="#847f8b"/><rect x="206.1" y="652.65" width="34.35" height="34.35" fill="#fef1c4"/><g transform="translate(206.1,652.65) scale(1.7175) rotate(0)"><path d="M10 0L20 10L10 20L0 10L10 0Z" fill="#fff5d4"/></g><rect x="240.45" y="652.65" width="34.35" height="34.35" fill="#9497a9"/><path d="M 240.45 652.65 A 34.35 34.35 0 0 1  274.8 687 L 240.45 652.65 A 34.35 34.35 0 0 0 274.8 687" fill="#fff9ee"/><rect x="274.8" y="618.3000000000001" width="68.7" height="68.7" fill="#ffffff"/><rect x="274.8" y="618.3" width="34.35" height="34.35" fill="#edecee"/><path d="M 274.8 618.3 A 34.35 34.35 0 0 1  309.15000000000003 652.65 L 274.8 618.3 A 34.35 34.35 0 0 0 309.15000000000003 652.65" fill="#575c79"/><rect x="309.15" y="618.3" width="34.35" height="34.35" fill="#b6b3bb"/><path d="M 309.15 652.65 A 34.35 34.35 0 0 1  343.5 618.3 L 309.15 652.65 A 34.35 34.35 0 0 0 343.5 618.3" fill="#807b88"/><rect x="274.8" y="652.65" width="34.35" height="34.35" fill="#acaebd"/><g transform="translate(274.8,652.65) scale(1.7175) rotate(0)"><path d="M13 0H20V7L7 20H0V13L13 0Z" fill="#fff7df"/></g><rect x="309.15" y="652.65" width="34.35" height="34.35" fill="#c7c9d3"/><rect x="309.15" y="652.65" width="34.35" height="34.35" fill="#babcc8"/><rect x="343.5" y="618.3000000000001" width="68.7" height="68.7" fill="#ffffff"/><rect x="343.5" y="618.3" width="34.35" height="34.35" fill="#564f60"/><path d="M 343.5 652.65 A 34.35 34.35 0 0 0 377.85 618.3 L 343.5 618.3" fill="#feeaa6"/><rect x="377.85" y="618.3" width="34.35" height="34.35" fill="#f49b89"/><rect x="377.85" y="618.3" width="34.35" height="34.35" fill="#ee6c53"/><rect x="343.5" y="652.65" width="34.35" height="34.35" fill="#676170"/><g transform="translate(343.5,652.65) scale(1.7175) rotate(0)"><path d="M10 0L20 10L10 20L0 10L10 0Z" fill="#fce5e0"/></g><rect x="377.85" y="652.65" width="34.35" height="34.35" fill="#fffcf2"/><path d="M 377.85 687 A 34.35 34.35 0 0 0 412.20000000000005 652.65 L 377.85 652.65" fill="#c5c3c9"/><rect x="412.20000000000005" y="618.3000000000001" width="68.7" height="68.7" fill="#ffffff"/><rect x="412.2" y="618.3" width="34.35" height="34.35" fill="#fdf0ee"/><g transform="translate(412.2,618.3) scale(1.7175) rotate(0)"><path d="M13 0H20V7L7 20H0V13L13 0Z" fill="#fffbf0"/></g><rect x="446.55" y="618.3" width="34.35" height="34.35" fill="#fbd9d3"/><polygon points="446.55,618.3 480.90000000000003,652.65 446.55,652.65" fill="#fff9e6"/><rect x="412.2" y="652.65" width="34.35" height="34.35" fill="#aaa7b0"/><path d="M 412.2 652.65 A 34.35 34.35 0 0 1  446.55 687 L 412.2 652.65 A 34.35 34.35 0 0 0 446.55 687" fill="#ffc556"/><rect x="446.55" y="652.65" width="34.35" height="34.35" fill="#f9cec5"/><path d="M 446.55 652.65 A 34.35 34.35 0 0 0 480.90000000000003 687 L 480.90000000000003 652.65" fill="#dbd9dd"/><rect x="480.90000000000003" y="618.3000000000001" width="68.7" height="68.7" fill="#ffffff"/><rect x="480.9" y="618.3" width="34.35" height="34.35" fill="#a4a7b7"/><polygon points="480.9,618.3 515.25,618.3 515.25,652.65" fill="#ffdc9b"/><rect x="515.25" y="618.3" width="34.35" height="34.35" fill="#fffaf1"/><path d="M 515.25 652.65 A 34.35 34.35 0 0 1  549.6 618.3 L 515.25 652.65 A 34.35 34.35 0 0 0 549.6 618.3" fill="#9995a0"/><rect x="480.9" y="652.65" width="34.35" height="34.35" fill="#ffbc3d"/><path d="M 480.9 687 A 34.35 34.35 0 0 1  515.25 652.65 L 480.9 687 A 34.35 34.35 0 0 0 515.25 652.65" fill="#ffc962"/><rect x="515.25" y="652.65" width="34.35" height="34.35" fill="#535876"/><g transform="translate(515.25,652.65) scale(1.7175) rotate(0)"><path d="M13 0H20V7L7 20H0V13L13 0Z" fill="#fdedea"/></g><rect x="549.6" y="618.3000000000001" width="68.7" height="68.7" fill="#ffffff"/><rect x="549.6" y="618.3" width="34.35" height="34.35" fill="#f8bdb2"/><g transform="translate(549.6,618.3) scale(1.7175) rotate(0)"><path d="M13 0H20V7L7 20H0V13L13 0Z" fill="#feedb2"/></g><rect x="583.95" y="618.3" width="34.35" height="34.35" fill="#a19ea7"/><polygon points="583.95,618.3 618.3000000000001,652.65 583.95,652.65" fill="#fffdf5"/><rect x="549.6" y="652.65" width="34.35" height="34.35" fill="#fef0c0"/><polygon points="549.6,652.65 583.95,687 549.6,687" fill="#ee694f"/><rect x="583.95" y="652.65" width="34.35" height="34.35" fill="#676171"/><g transform="translate(583.95,652.65) scale(1.7175) rotate(0)"><path d="M13 0H20V7L7 20H0V13L13 0Z" fill="#555a78"/></g><rect x="618.3" y="618.3" width="68.7" height="68.7" fill="#fef2c8"/><path d="M 618.3 618.3 A 68.7 68.7 0 0 1  687 687 L 618.3 618.3 A 68.7 68.7 0 0 0 687 687" fill="#ffeac3"/><rect x="687" y="618.3000000000001" width="68.7" height="68.7" fill="#ffffff"/><rect x="687" y="618.3" width="34.35" height="34.35" fill="#686372"/><path d="M 687 652.65 A 34.35 34.35 0 0 1  721.35 618.3 L 721.35 652.65" fill="#fdedea"/><rect x="721.35" y="618.3" width="34.35" height="34.35" fill="#dad9dc"/><path d="M 721.35 652.65 A 34.35 34.35 0 0 1  755.7 618.3 L 755.7 652.65" fill="#fffefe"/><rect x="687" y="652.65" width="34.35" height="34.35" fill="#fff9ee"/><g transform="translate(687,652.65) scale(1.7175) rotate(0)"><path d="M13 0H20V7L7 20H0V13L13 0Z" fill="#ecebed"/></g><rect x="721.35" y="652.65" width="34.35" height="34.35" fill="#ffd688"/><path d="M 721.35 652.65 A 34.35 34.35 0 0 1  755.7 687 L 721.35 652.65 A 34.35 34.35 0 0 0 755.7 687" fill="#d2d3db"/><rect x="755.7" y="618.3" width="68.7" height="68.7" fill="#fffbed"/><path d="M 755.7 618.3 A 68.7 68.7 0 0 1 824.4000000000001 687 L 755.7 687" fill="#706b79"/><rect x="824.4000000000001" y="618.3000000000001" width="68.7" height="68.7" fill="#ffffff"/><rect x="824.4" y="618.3" width="34.35" height="34.35" fill="#fbd9d2"/><g transform="translate(824.4,618.3) scale(1.7175) rotate(0)"><path d="M13 0H20V7L7 20H0V13L13 0Z" fill="#fef1c6"/></g><rect x="858.75" y="618.3" width="34.35" height="34.35" fill="#ffdfa4"/><path d="M 858.75 652.65 A 34.35 34.35 0 0 1  893.1 618.3 L 858.75 652.65 A 34.35 34.35 0 0 0 893.1 618.3" fill="#787380"/><rect x="824.4" y="652.65" width="34.35" height="34.35" fill="#ebebed"/><polygon points="824.4,652.65 858.75,652.65 824.4,687" fill="#e8e7ea"/><rect x="858.75" y="652.65" width="34.35" height="34.35" fill="#dedde0"/><polygon points="893.1,652.65 893.1,687 858.75,687" fill="#f5a495"/><rect x="893.1" y="618.3" width="68.7" height="68.7" fill="#d7d8df"/><path d="M 893.1 687 A 68.7 68.7 0 0 1  961.8000000000001 618.3 L 893.1 687 A 68.7 68.7 0 0 0 961.8000000000001 618.3" fill="#a19da7"/><rect x="961.8" y="618.3" width="68.7" height="68.7" fill="#ffd68a"/><path d="M 961.8 618.3 A 68.7 68.7 0 0 1  1030.5 687 L 961.8 618.3 A 68.7 68.7 0 0 0 1030.5 687" fill="#ffc963"/></g></svg>