<?xml version="1.0" standalone="no"?><svg xmlns:xlink="http://www.w3.org/1999/xlink" xmlns="http://www.w3.org/2000/svg" viewBox="0 0 1080 1388.5714285714287" preserveAspectRatio="xMaxYMax slice"><g transform="scale(1.9285714285714286)"><rect x="0" y="0" width="560" height="720" fill="#ffffff"/><g transform="translate(0,0) scale(4) rotate(0)"><path d="M13 0H20V7L7 20H0V13L13 0Z" fill="#f6f7f0"/></g><g transform="translate(80,0) scale(4) rotate(0)"><path d="M10 5L5 0L0 5L5 10L0 15L5 20L10 15L15 20L20 15L15 10L20 5L15 0L10 5Z" fill="#e6f5f4"/></g><g transform="translate(160,0) scale(4) rotate(0)"><path d="M13 0H20V7L7 20H0V13L13 0Z" fill="#ebeede"/></g><polygon points="240,0 320,0 320,80" fill="#f1f9f9"/><polygon points="320,0 400,80 320,80" fill="#cae9e7"/><polygon points="400,0 480,80 400,80" fill="#e7ead7"/><g transform="translate(480,0) scale(4) rotate(0)"><path d="M10 5L5 0L0 5L5 10L0 15L5 20L10 15L15 20L20 15L15 10L20 5L15 0L10 5Z" fill="#d2f1f8"/></g><g transform="translate(0,80) scale(4) rotate(0)"><path d="M5 0H10L5 5L0 10V5L5 0Z" fill="#fef5ef"/><path d="M20 15V20H15L20 15Z" fill="#fef5ef"/><path d="M20 5V10L15 15L10 20H5L20 5Z" fill="#fef5ef"/><path d="M15 0H20L5 15.0002L0 20.0002V15.0002L15 0Z" fill="#fef5ef"/></g><polygon points="80,80 160,80 80,160" fill="#eff1e5"/><g transform="translate(160,80) scale(4) rotate(0)"><path fill-rule="evenodd" clip-rule="evenodd" d="M10 20C15.5228 20 20 15.5228 20 10C20 4.47715 15.5228 0 10 0C4.47715 0 0 4.47715 0 10C0 15.5228 4.47715 20 10 20ZM10 17C13.866 17 17 13.866 17 10C17 6.13401 13.866 3 10 3C6.13401 3 3 6.13401 3 10C3 13.866 6.13401 17 10 17Z" fill="#e9ecda"/></g><g transform="translate(240,80) scale(4) rotate(0)"><path d="M5 0H10L5 5L0 10V5L5 0Z" fill="#fca86c"/><path d="M20 15V20H15L20 15Z" fill="#fca86c"/><path d="M20 5V10L15 15L10 20H5L20 5Z" fill="#fca86c"/><path d="M15 0H20L5 15.0002L0 20.0002V15.0002L15 0Z" fill="#fca86c"/></g><polygon points="320,80 400,80 400,160" fill="#fbfefe"/><g transform="translate(400,80) scale(4) rotate(0)"><path d="M5 0H10L5 5L0 10V5L5 0Z" fill="#fffbf9"/><path d="M20 15V20H15L20 15Z" fill="#fffbf9"/><path d="M20 5V10L15 15L10 20H5L20 5Z" fill="#fffbf9"/><path d="M15 0H20L5 15.0002L0 20.0002V15.0002L15 0Z" fill="#fffbf9"/></g><g transform="translate(480,80) scale(4) rotate(0)"><path d="M10 5L5 0L0 5L5 10L0 15L5 20L10 15L15 20L20 15L15 10L20 5L15 0L10 5Z" fill="#7cd8ea"/></g><g transform="translate(0,160) scale(4) rotate(0)"><path d="M13 0H20V7L7 20H0V13L13 0Z" fill="#fb7c21"/></g><g transform="translate(80,160) scale(4) rotate(0)"><rect width="2" height="20" fill="#fdfdfb"/><rect x="4" width="2" height="20" fill="#fdfdfb"/><rect x="8" width="2" height="20" fill="#fdfdfb"/><rect x="12" width="2" height="20" fill="#fdfdfb"/><rect x="16" width="2" height="20" fill="#fdfdfb"/></g><path d="M 160 240 A 80 80 0 0 1  240 160 L 240 240" fill="#fca262"/><g transform="translate(240,160) scale(4) rotate(0)"><path d="M13 0H20V7L7 20H0V13L13 0Z" fill="#b2e8f3"/></g><g transform="translate(320,160) scale(4) rotate(0)"><path d="M10 0H20L0 20V10L10 0Z" fill="#e0f2f1"/><path d="M20 10V20H10L20 10Z" fill="#e0f2f1"/></g><g transform="translate(400,160) scale(4) rotate(0)"><rect width="2" height="20" fill="#e4f7fb"/><rect x="4" width="2" height="20" fill="#e4f7fb"/><rect x="8" width="2" height="20" fill="#e4f7fb"/><rect x="12" width="2" height="20" fill="#e4f7fb"/><rect x="16" width="2" height="20" fill="#e4f7fb"/></g><g transform="translate(480,160) scale(4) rotate(0)"><path fill-rule="evenodd" clip-rule="evenodd" d="M10 20C15.5228 20 20 15.5228 20 10C20 4.47715 15.5228 0 10 0C4.47715 0 0 4.47715 0 10C0 15.5228 4.47715 20 10 20ZM10 17C13.866 17 17 13.866 17 10C17 6.13401 13.866 3 10 3C6.13401 3 3 6.13401 3 10C3 13.866 6.13401 17 10 17Z" fill="#fdc59d"/></g><g transform="translate(0,240) scale(4) rotate(0)"><path d="M13 0H20V7L7 20H0V13L13 0Z" fill="#fdcfae"/></g><g transform="translate(80,240) scale(4) rotate(0)"><rect width="20" height="2" fill="#e5f4f3"/><rect y="4" width="20" height="2" fill="#e5f4f3"/><rect y="8" width="20" height="2" fill="#e5f4f3"/><rect y="12" width="20" height="2" fill="#e5f4f3"/><rect y="16" width="20" height="2" fill="#e5f4f3"/></g><g transform="translate(160,240) scale(4) rotate(0)"><rect width="20" height="2" fill="#82d9eb"/><rect y="4" width="20" height="2" fill="#82d9eb"/><rect y="8" width="20" height="2" fill="#82d9eb"/><rect y="12" width="20" height="2" fill="#82d9eb"/><rect y="16" width="20" height="2" fill="#82d9eb"/></g><g transform="translate(240,240) scale(4) rotate(0)"><path d="M10 0H20L0 20V10L10 0Z" fill="#fbfdfd"/><path d="M20 10V20H10L20 10Z" fill="#fbfdfd"/></g><circle cx="360" cy="280" r="40" fill="#fbdabf"/><rect x="400" y="240" width="80" height="80" fill="#fdffff"/><g transform="translate(480,240) scale(4) rotate(0)"><path d="M10 5L5 0L0 5L5 10L0 15L5 20L10 15L15 20L20 15L15 10L20 5L15 0L10 5Z" fill="#fff1e8"/></g><g transform="translate(0,320) scale(4) rotate(0)"><path d="M5 0H10L5 5L0 10V5L5 0Z" fill="#f7f8f2"/><path d="M20 15V20H15L20 15Z" fill="#f7f8f2"/><path d="M20 5V10L15 15L10 20H5L20 5Z" fill="#f7f8f2"/><path d="M15 0H20L5 15.0002L0 20.0002V15.0002L15 0Z" fill="#f7f8f2"/></g><polygon points="80,320 160,400 80,400" fill="#fafefe"/><polygon points="160,320 240,400 160,400" fill="#f0f2e7"/><g transform="translate(240,320) scale(4) rotate(0)"><rect width="20" height="2" fill="#f38a37"/><rect y="4" width="20" height="2" fill="#f38a37"/><rect y="8" width="20" height="2" fill="#f38a37"/><rect y="12" width="20" height="2" fill="#f38a37"/><rect y="16" width="20" height="2" fill="#f38a37"/></g><path d="M 320 400 A 80 80 0 0 1  400 320 L 320 400 A 80 80 0 0 0 400 320" fill="#fbfbf8"/><g transform="translate(400,320) scale(4) rotate(0)"><path d="M10 0H20L0 20V10L10 0Z" fill="#fc974e"/><path d="M20 10V20H10L20 10Z" fill="#fc974e"/></g><g transform="translate(480,320) scale(4) rotate(0)"><rect width="2" height="20" fill="#e4f4f3"/><rect x="4" width="2" height="20" fill="#e4f4f3"/><rect x="8" width="2" height="20" fill="#e4f4f3"/><rect x="12" width="2" height="20" fill="#e4f4f3"/><rect x="16" width="2" height="20" fill="#e4f4f3"/></g><g transform="translate(0,400) scale(4) rotate(0)"><path d="M10 0H20L0 20V10L10 0Z" fill="#f5f6ef"/><path d="M20 10V20H10L20 10Z" fill="#f5f6ef"/></g><g transform="translate(80,400) scale(4) rotate(0)"><path d="M10 0H20L0 20V10L10 0Z" fill="#f1f9f9"/><path d="M20 10V20H10L20 10Z" fill="#f1f9f9"/></g><g transform="translate(160,400) scale(4) rotate(0)"><rect width="20" height="2" fill="#fef9f5"/><rect y="4" width="20" height="2" fill="#fef9f5"/><rect y="8" width="20" height="2" fill="#fef9f5"/><rect y="12" width="20" height="2" fill="#fef9f5"/><rect y="16" width="20" height="2" fill="#fef9f5"/></g><g transform="translate(240,400) scale(4) rotate(0)"><rect width="2" height="20" fill="#fdbc8d"/><rect x="4" width="2" height="20" fill="#fdbc8d"/><rect x="8" width="2" height="20" fill="#fdbc8d"/><rect x="12" width="2" height="20" fill="#fdbc8d"/><rect x="16" width="2" height="20" fill="#fdbc8d"/></g><polygon points="320,400 400,400 320,480" fill="#f8f9f4"/><g transform="translate(400,400) scale(4) rotate(0)"><path fill-rule="evenodd" clip-rule="evenodd" d="M10 20C15.5228 20 20 15.5228 20 10C20 4.47715 15.5228 0 10 0C4.47715 0 0 4.47715 0 10C0 15.5228 4.47715 20 10 20ZM10 17C13.866 17 17 13.866 17 10C17 6.13401 13.866 3 10 3C6.13401 3 3 6.13401 3 10C3 13.866 6.13401 17 10 17Z" fill="#fc974e"/></g><path d="M 480 400 A 80 80 0 0 0 560 480 L 560 400" fill="#ebedde"/><path d="M 0 560 A 80 80 0 0 0 80 480 L 0 480" fill="#d4edec"/><g transform="translate(80,480) scale(4) rotate(0)"><path fill-rule="evenodd" clip-rule="evenodd" d="M10 20C15.5228 20 20 15.5228 20 10C20 4.47715 15.5228 0 10 0C4.47715 0 0 4.47715 0 10C0 15.5228 4.47715 20 10 20ZM10 17C13.866 17 17 13.866 17 10C17 6.13401 13.866 3 10 3C6.13401 3 3 6.13401 3 10C3 13.866 6.13401 17 10 17Z" fill="#b6e1df"/></g><g transform="translate(160,480) scale(4) rotate(0)"><path d="M10 0H20L0 20V10L10 0Z" fill="#ecefe0"/><path d="M20 10V20H10L20 10Z" fill="#ecefe0"/></g><path d="M 240 560 A 80 80 0 0 0 320 480 L 240 480" fill="#afe7f2"/><circle cx="360" cy="520" r="40" fill="#fed4b5"/><g transform="translate(400,480) scale(4) rotate(0)"><path d="M5 0H10L5 5L0 10V5L5 0Z" fill="#a9dcd9"/><path d="M20 15V20H15L20 15Z" fill="#a9dcd9"/><path d="M20 5V10L15 15L10 20H5L20 5Z" fill="#a9dcd9"/><path d="M15 0H20L5 15.0002L0 20.0002V15.0002L15 0Z" fill="#a9dcd9"/></g><g transform="translate(480,480) scale(4) rotate(0)"><path d="M5 0H10L5 5L0 10V5L5 0Z" fill="#dbf0ef"/><path d="M20 15V20H15L20 15Z" fill="#dbf0ef"/><path d="M20 5V10L15 15L10 20H5L20 5Z" fill="#dbf0ef"/><path d="M15 0H20L5 15.0002L0 20.0002V15.0002L15 0Z" fill="#dbf0ef"/></g><g transform="translate(0,560) scale(4) rotate(0)"><path d="M10 0H20L0 20V10L10 0Z" fill="#eff1e5"/><path d="M20 10V20H10L20 10Z" fill="#eff1e5"/></g><g transform="translate(80,560) scale(4) rotate(0)"><path fill-rule="evenodd" clip-rule="evenodd" d="M10 20C15.5228 20 20 15.5228 20 10C20 4.47715 15.5228 0 10 0C4.47715 0 0 4.47715 0 10C0 15.5228 4.47715 20 10 20ZM10 17C13.866 17 17 13.866 17 10C17 6.13401 13.866 3 10 3C6.13401 3 3 6.13401 3 10C3 13.866 6.13401 17 10 17Z" fill="#99e0ef"/></g><path d="M 160 640 A 80 80 0 0 1  240 560 L 160 640 A 80 80 0 0 0 240 560" fill="#fac8a2"/><circle cx="280" cy="600" r="40" fill="#fb852f"/><rect x="320" y="560" width="80" height="80" fill="#c8e9e7"/><path d="M 400 560 A 80 80 0 0 1  480 640 L 400 560 A 80 80 0 0 0 480 640" fill="#f49448"/><g transform="translate(480,560) scale(4) rotate(0)"><rect width="2" height="20" fill="#f9c59b"/><rect x="4" width="2" height="20" fill="#f9c59b"/><rect x="8" width="2" height="20" fill="#f9c59b"/><rect x="12" width="2" height="20" fill="#f9c59b"/><rect x="16" width="2" height="20" fill="#f9c59b"/></g><g transform="translate(0,640) scale(4) rotate(0)"><rect width="20" height="2" fill="#f0f2e7"/><rect y="4" width="20" height="2" fill="#f0f2e7"/><rect y="8" width="20" height="2" fill="#f0f2e7"/><rect y="12" width="20" height="2" fill="#f0f2e7"/><rect y="16" width="20" height="2" fill="#f0f2e7"/></g><g transform="translate(80,640) scale(4) rotate(0)"><rect width="2" height="20" fill="#fbd6b9"/><rect x="4" width="2" height="20" fill="#fbd6b9"/><rect x="8" width="2" height="20" fill="#fbd6b9"/><rect x="12" width="2" height="20" fill="#fbd6b9"/><rect x="16" width="2" height="20" fill="#fbd6b9"/></g><g transform="translate(160,640) scale(4) rotate(0)"><path d="M13 0H20V7L7 20H0V13L13 0Z" fill="#f0f2e6"/></g><g transform="translate(240,640) scale(4) rotate(0)"><path d="M10 0H20L0 20V10L10 0Z" fill="#f6a15f"/><path d="M20 10V20H10L20 10Z" fill="#f6a15f"/></g><polygon points="320,640 400,720 320,720" fill="#fed4b5"/><path d="M 400 640 A 80 80 0 0 0 480 720 L 480 640" fill="#feede1"/><g transform="translate(480,640) scale(4) rotate(0)"><path d="M13 0H20V7L7 20H0V13L13 0Z" fill="#f2fbfd"/></g></g></svg>