<?xml version="1.0" standalone="no"?><svg xmlns:xlink="http://www.w3.org/1999/xlink" xmlns="http://www.w3.org/2000/svg" viewBox="0 0 1000 666.6666666666666" preserveAspectRatio="xMaxYMax slice"><g transform="scale(0.8960573476702509)"><rect x="0" y="0" width="1116" height="744" fill="#ffffff"/><rect x="0" y="0" width="74.4" height="74.4" fill="#e9bbc0"/><path d="M 0 0 A 74.4 74.4 0 0 1  74.4 74.4 L 0 0 A 74.4 74.4 0 0 0 74.4 74.4" fill="#efcdd0"/><rect x="74.4" y="0" width="74.4" height="74.4" fill="#f5ecd8"/><rect x="74.4" y="0" width="74.4" height="74.4" fill="#f9f4e9"/><rect x="148.8" y="0" width="74.4" height="74.4" fill="#c8e6da"/><rect x="148.8" y="0" width="74.4" height="74.4" fill="#d6ece4"/><rect x="223.20000000000002" y="0" width="74.4" height="74.4" fill="#ffffff"/><rect x="223.2" y="0" width="37.2" height="37.2" fill="#fce7ed"/><rect x="223.2" y="0" width="37.2" height="37.2" fill="#fdfefe"/><rect x="260.4" y="0" width="37.2" height="37.2" fill="#da8f96"/><polygon points="260.4,0 297.59999999999997,0 260.4,37.2" fill="#fcf6f7"/><rect x="223.2" y="37.2" width="37.2" height="37.2" fill="#e9bdc1"/><g transform="translate(223.2,37.2) scale(1.86) rotate(0)"><path d="M13 0H20V7L7 20H0V13L13 0Z" fill="#f4ebd7"/></g><rect x="260.4" y="37.2" width="37.2" height="37.2" fill="#e7b5ba"/><path d="M 260.4 74.4 A 37.2 37.2 0 0 1  297.59999999999997 37.2 L 260.4 74.4 A 37.2 37.2 0 0 0 297.59999999999997 37.2" fill="#d4ece3"/><rect x="297.6" y="0" width="74.4" height="74.4" fill="#dcefe8"/><rect x="297.6" y="0" width="74.4" height="74.4" fill="#f3ecea"/><rect x="372" y="0" width="74.4" height="74.4" fill="#ffffff"/><rect x="372" y="0" width="37.2" height="37.2" fill="#fefcfd"/><rect x="372" y="0" width="37.2" height="37.2" fill="#fffdfe"/><rect x="409.2" y="0" width="37.2" height="37.2" fill="#d5bcb5"/><g transform="translate(409.2,0) scale(1.86) rotate(0)"><path d="M13 0H20V7L7 20H0V13L13 0Z" fill="#fcf9f2"/></g><rect x="372" y="37.2" width="37.2" height="37.2" fill="#e9babf"/><path d="M 372 37.2 A 37.2 37.2 0 0 1  409.2 74.4 L 372 37.2 A 37.2 37.2 0 0 0 409.2 74.4" fill="#dfccc6"/><rect x="409.2" y="37.2" width="37.2" height="37.2" fill="#f6eddb"/><polygon points="409.2,37.2 446.4,74.4 409.2,74.4" fill="#e94f78"/><rect x="446.40000000000003" y="0" width="74.4" height="74.4" fill="#ffffff"/><rect x="446.4" y="0" width="37.2" height="37.2" fill="#ddc8c2"/><path d="M 446.4 0 A 37.2 37.2 0 0 0 483.59999999999997 37.2 L 483.59999999999997 0" fill="#db8f96"/><rect x="483.6" y="0" width="37.2" height="37.2" fill="#e3d3ce"/><g transform="translate(483.6,0) scale(1.86) rotate(0)"><path d="M10 0L20 10L10 20L0 10L10 0Z" fill="#c6e5d9"/></g><rect x="446.4" y="37.2" width="37.2" height="37.2" fill="#fdf8f8"/><path d="M 446.4 74.4 A 37.2 37.2 0 0 1  483.59999999999997 37.2 L 446.4 74.4 A 37.2 37.2 0 0 0 483.59999999999997 37.2" fill="#ede2df"/><rect x="483.6" y="37.2" width="37.2" height="37.2" fill="#f5edda"/><path d="M 483.6 37.2 A 37.2 37.2 0 0 1  520.8000000000001 74.4 L 483.6 37.2 A 37.2 37.2 0 0 0 520.8000000000001 74.4" fill="#f293ac"/><rect x="520.8" y="0" width="74.4" height="74.4" fill="#f8f4f3"/><polygon points="595.1999999999999,0 595.1999999999999,74.4 520.8,74.4" fill="#fcfefd"/><rect x="595.2" y="0" width="74.4" height="74.4" fill="#fef9fa"/><rect x="595.2" y="0" width="74.4" height="74.4" fill="#e8f4ef"/><rect x="669.6" y="0" width="74.4" height="74.4" fill="#f8c4d2"/><rect x="669.6" y="0" width="74.4" height="74.4" fill="#f9f4e9"/><rect x="744" y="0" width="74.4" height="74.4" fill="#ffffff"/><rect x="744" y="0" width="37.2" height="37.2" fill="#f5ebd7"/><polygon points="781.2,0 781.2,37.2 744,37.2" fill="#f7efdf"/><rect x="781.2" y="0" width="37.2" height="37.2" fill="#f1d4d7"/><g transform="translate(781.2,0) scale(1.86) rotate(0)"><path d="M13 0H20V7L7 20H0V13L13 0Z" fill="#fdf0f4"/></g><rect x="744" y="37.2" width="37.2" height="37.2" fill="#efced1"/><g transform="translate(744,37.2) scale(1.86) rotate(0)"><path d="M13 0H20V7L7 20H0V13L13 0Z" fill="#f4a8bc"/></g><rect x="781.2" y="37.2" width="37.2" height="37.2" fill="#f6b8c9"/><polygon points="781.2,37.2 818.4000000000001,37.2 781.2,74.4" fill="#ed6f91"/><rect x="818.4000000000001" y="0" width="74.4" height="74.4" fill="#ffffff"/><rect x="818.4" y="0" width="37.2" height="37.2" fill="#f4ead6"/><rect x="818.4" y="0" width="37.2" height="37.2" fill="#f9f4e8"/><rect x="855.6" y="0" width="37.2" height="37.2" fill="#f088a3"/><path d="M 855.6 0 A 37.2 37.2 0 0 1 892.8000000000001 37.2 L 855.6 37.2" fill="#e8b9be"/><rect x="818.4" y="37.2" width="37.2" height="37.2" fill="#fceaef"/><g transform="translate(818.4,37.2) scale(1.86) rotate(0)"><path d="M10 0L20 10L10 20L0 10L10 0Z" fill="#fefafb"/></g><rect x="855.6" y="37.2" width="37.2" height="37.2" fill="#f3ebe9"/><polygon points="855.6,37.2 892.8000000000001,74.4 855.6,74.4" fill="#f5abbe"/><rect x="892.8000000000001" y="0" width="74.4" height="74.4" fill="#ffffff"/><rect x="892.8" y="0" width="37.2" height="37.2" fill="#dbefe7"/><g transform="translate(892.8,0) scale(1.86) rotate(0)"><path d="M10 0L20 10L10 20L0 10L10 0Z" fill="#fefefd"/></g><rect x="930" y="0" width="37.2" height="37.2" fill="#e5b0b5"/><g transform="translate(930,0) scale(1.86) rotate(0)"><path d="M13 0H20V7L7 20H0V13L13 0Z" fill="#fbf7ee"/></g><rect x="892.8" y="37.2" width="37.2" height="37.2" fill="#faeff0"/><g transform="translate(892.8,37.2) scale(1.86) rotate(0)"><path d="M10 0L20 10L10 20L0 10L10 0Z" fill="#e0cdc7"/></g><rect x="930" y="37.2" width="37.2" height="37.2" fill="#fdfefd"/><path d="M 930 37.2 A 37.2 37.2 0 0 1  967.2 74.4 L 930 37.2 A 37.2 37.2 0 0 0 967.2 74.4" fill="#dc939a"/><rect x="967.2" y="0" width="74.4" height="74.4" fill="#ffffff"/><rect x="967.2" y="0" width="37.2" height="37.2" fill="#fefdfc"/><g transform="translate(967.2,0) scale(1.86) rotate(0)"><path d="M10 0L20 10L10 20L0 10L10 0Z" fill="#d3ebe2"/></g><rect x="1004.4" y="0" width="37.2" height="37.2" fill="#f8fcfa"/><g transform="translate(1004.4,0) scale(1.86) rotate(0)"><path d="M10 0L20 10L10 20L0 10L10 0Z" fill="#fcf5f5"/></g><rect x="967.2" y="37.2" width="37.2" height="37.2" fill="#f089a4"/><path d="M 967.2 74.4 A 37.2 37.2 0 0 1  1004.4000000000001 37.2 L 967.2 74.4 A 37.2 37.2 0 0 0 1004.4000000000001 37.2" fill="#ebf6f2"/><rect x="1004.4" y="37.2" width="37.2" height="37.2" fill="#dac3bd"/><path d="M 1004.4 37.2 A 37.2 37.2 0 0 1  1041.6 74.4 L 1004.4 37.2 A 37.2 37.2 0 0 0 1041.6 74.4" fill="#fbdfe7"/><rect x="1041.6" y="0" width="74.4" height="74.4" fill="#fcfaf5"/><path d="M 1041.6 0 A 74.4 74.4 0 0 1  1116 74.4 L 1041.6 0 A 74.4 74.4 0 0 0 1116 74.4" fill="#ee7494"/><rect x="0" y="74.4" width="74.4" height="74.4" fill="#fcfdfd"/><rect x="0" y="74.4" width="74.4" height="74.4" fill="#d88890"/><rect x="74.4" y="74.4" width="74.4" height="74.4" fill="#ffffff"/><rect x="74.4" y="74.4" width="37.2" height="37.2" fill="#ceb1a9"/><path d="M 74.4 111.60000000000001 A 37.2 37.2 0 0 1  111.60000000000001 74.4 L 74.4 111.60000000000001 A 37.2 37.2 0 0 0 111.60000000000001 74.4" fill="#decac5"/><rect x="111.6" y="74.4" width="37.2" height="37.2" fill="#fafdfc"/><path d="M 111.6 74.4 A 37.2 37.2 0 0 1 148.8 111.60000000000001 L 111.6 111.60000000000001" fill="#fcf9f4"/><rect x="74.4" y="111.6" width="37.2" height="37.2" fill="#f1f9f6"/><g transform="translate(74.4,111.6) scale(1.86) rotate(0)"><path d="M10 0L20 10L10 20L0 10L10 0Z" fill="#fcf9f3"/></g><rect x="111.6" y="111.6" width="37.2" height="37.2" fill="#e6f3ee"/><path d="M 111.6 111.6 A 37.2 37.2 0 0 0 148.8 148.8 L 148.8 111.6" fill="#f4a8bc"/><rect x="148.8" y="74.4" width="74.4" height="74.4" fill="#ffffff"/><rect x="148.8" y="74.4" width="37.2" height="37.2" fill="#f7f0e2"/><polygon points="148.8,74.4 186,111.60000000000001 148.8,111.60000000000001" fill="#ef829f"/><rect x="186" y="74.4" width="37.2" height="37.2" fill="#c9e6db"/><path d="M 186 74.4 A 37.2 37.2 0 0 1  223.2 111.60000000000001 L 186 74.4 A 37.2 37.2 0 0 0 223.2 111.60000000000001" fill="#ecf6f2"/><rect x="148.8" y="111.6" width="37.2" height="37.2" fill="#f6eedd"/><rect x="148.8" y="111.6" width="37.2" height="37.2" fill="#fefafb"/><rect x="186" y="111.6" width="37.2" height="37.2" fill="#d9eee6"/><rect x="186" y="111.6" width="37.2" height="37.2" fill="#ea587f"/><rect x="223.2" y="74.4" width="74.4" height="74.4" fill="#eb5f84"/><path d="M 223.2 74.4 A 74.4 74.4 0 0 1  297.6 148.8 L 223.2 74.4 A 74.4 74.4 0 0 0 297.6 148.8" fill="#f7f0e1"/><rect x="297.6" y="74.4" width="74.4" height="74.4" fill="#e1f1eb"/><polygon points="297.6,74.4 372,148.8 297.6,148.8" fill="#e6d6d2"/><rect x="372" y="74.4" width="74.4" height="74.4" fill="#f4ebd6"/><g transform="translate(372,74.4) scale(3.72) rotate(0)"><path d="M10 0L20 10L10 20L0 10L10 0Z" fill="#decac5"/></g><rect x="446.40000000000003" y="74.4" width="74.4" height="74.4" fill="#ffffff"/><rect x="446.4" y="74.4" width="37.2" height="37.2" fill="#ef7b99"/><g transform="translate(446.4,74.4) scale(1.86) rotate(0)"><path d="M13 0H20V7L7 20H0V13L13 0Z" fill="#f18ba6"/></g><rect x="483.6" y="74.4" width="37.2" height="37.2" fill="#e5b0b5"/><g transform="translate(483.6,74.4) scale(1.86) rotate(0)"><path d="M13 0H20V7L7 20H0V13L13 0Z" fill="#ea557d"/></g><rect x="446.4" y="111.6" width="37.2" height="37.2" fill="#fefdfa"/><g transform="translate(446.4,111.6) scale(1.86) rotate(0)"><path d="M10 0L20 10L10 20L0 10L10 0Z" fill="#eabfc3"/></g><rect x="483.6" y="111.6" width="37.2" height="37.2" fill="#e5f3ed"/><polygon points="483.6,111.6 520.8000000000001,148.8 483.6,148.8" fill="#e1f1eb"/><rect x="520.8" y="74.4" width="74.4" height="74.4" fill="#e8dbd7"/><g transform="translate(520.8,74.4) scale(3.72) rotate(0)"><path d="M10 0L20 10L10 20L0 10L10 0Z" fill="#f2d8da"/></g><rect x="595.2" y="74.4" width="74.4" height="74.4" fill="#eac0c4"/><path d="M 595.2 74.4 A 74.4 74.4 0 0 0 669.6 148.8 L 669.6 74.4" fill="#ddefe8"/><rect x="669.6" y="74.4" width="74.4" height="74.4" fill="#efe6e3"/><g transform="translate(669.6,74.4) scale(3.72) rotate(0)"><path d="M13 0H20V7L7 20H0V13L13 0Z" fill="#e9babf"/></g><rect x="744" y="74.4" width="74.4" height="74.4" fill="#ffffff"/><rect x="744" y="74.4" width="37.2" height="37.2" fill="#f9ebed"/><g transform="translate(744,74.4) scale(1.86) rotate(0)"><path d="M10 0L20 10L10 20L0 10L10 0Z" fill="#edc6ca"/></g><rect x="781.2" y="74.4" width="37.2" height="37.2" fill="#ddefe8"/><g transform="translate(781.2,74.4) scale(1.86) rotate(0)"><path d="M13 0H20V7L7 20H0V13L13 0Z" fill="#f1e9e6"/></g><rect x="744" y="111.6" width="37.2" height="37.2" fill="#f8f2e6"/><path d="M 744 148.8 A 37.2 37.2 0 0 1  781.2 111.6 L 781.2 148.8" fill="#d3b9b1"/><rect x="781.2" y="111.6" width="37.2" height="37.2" fill="#f9cbd7"/><polygon points="781.2,111.6 818.4000000000001,111.6 818.4000000000001,148.8" fill="#fcfaf5"/><rect x="818.4000000000001" y="74.4" width="74.4" height="74.4" fill="#ffffff"/><rect x="818.4" y="74.4" width="37.2" height="37.2" fill="#e94f78"/><g transform="translate(818.4,74.4) scale(1.86) rotate(0)"><path d="M10 0L20 10L10 20L0 10L10 0Z" fill="#f2f9f7"/></g><rect x="855.6" y="74.4" width="37.2" height="37.2" fill="#d7ede4"/><polygon points="855.6,74.4 892.8000000000001,74.4 855.6,111.60000000000001" fill="#dbc6bf"/><rect x="818.4" y="111.6" width="37.2" height="37.2" fill="#e0a0a6"/><path d="M 818.4 148.8 A 37.2 37.2 0 0 1  855.6 111.6 L 818.4 148.8 A 37.2 37.2 0 0 0 855.6 111.6" fill="#e4d4d0"/><rect x="855.6" y="111.6" width="37.2" height="37.2" fill="#ea577e"/><polygon points="855.6,111.6 892.8000000000001,148.8 855.6,148.8" fill="#f7fbfa"/><rect x="892.8" y="74.4" width="74.4" height="74.4" fill="#d5bdb5"/><path d="M 892.8 74.4 A 74.4 74.4 0 0 1  967.1999999999999 148.8 L 892.8 74.4 A 74.4 74.4 0 0 0 967.1999999999999 148.8" fill="#efced1"/><rect x="967.2" y="74.4" width="74.4" height="74.4" fill="#f6f1ef"/><path d="M 967.2 148.8 A 74.4 74.4 0 0 0 1041.6000000000001 74.4 L 967.2 74.4" fill="#f7f3f2"/><rect x="1041.6" y="74.4" width="74.4" height="74.4" fill="#fffdfe"/><polygon points="1041.6,74.4 1116,74.4 1041.6,148.8" fill="#f084a0"/><rect x="0" y="148.8" width="74.4" height="74.4" fill="#ffffff"/><rect x="0" y="148.8" width="37.2" height="37.2" fill="#fcfefd"/><polygon points="0,148.8 37.2,148.8 0,186" fill="#efced1"/><rect x="37.2" y="148.8" width="37.2" height="37.2" fill="#ffffff"/><g transform="translate(37.2,148.8) scale(1.86) rotate(0)"><path d="M13 0H20V7L7 20H0V13L13 0Z" fill="#f1e9e7"/></g><rect x="0" y="186" width="37.2" height="37.2" fill="#faf6ed"/><path d="M 0 223.2 A 37.2 37.2 0 0 1  37.2 186 L 0 223.2 A 37.2 37.2 0 0 0 37.2 186" fill="#ecc4c8"/><rect x="37.2" y="186" width="37.2" height="37.2" fill="#d8c0b9"/><path d="M 37.2 186 A 37.2 37.2 0 0 0 74.4 223.2 L 74.4 186" fill="#f3faf7"/><rect x="74.4" y="148.8" width="74.4" height="74.4" fill="#eabec2"/><rect x="74.4" y="148.8" width="74.4" height="74.4" fill="#fceaef"/><rect x="148.8" y="148.8" width="74.4" height="74.4" fill="#ffffff"/><rect x="148.8" y="148.8" width="37.2" height="37.2" fill="#ed7293"/><g transform="translate(148.8,148.8) scale(1.86) rotate(0)"><path d="M10 0L20 10L10 20L0 10L10 0Z" fill="#eac0c4"/></g><rect x="186" y="148.8" width="37.2" height="37.2" fill="#f7f3f1"/><g transform="translate(186,148.8) scale(1.86) rotate(0)"><path d="M13 0H20V7L7 20H0V13L13 0Z" fill="#fbf7f0"/></g><rect x="148.8" y="186" width="37.2" height="37.2" fill="#e0a1a7"/><polygon points="148.8,186 186,186 186,223.2" fill="#f7f0e2"/><rect x="186" y="186" width="37.2" height="37.2" fill="#f7c2d0"/><polygon points="186,186 223.2,223.2 186,223.2" fill="#fdf1f4"/><rect x="223.2" y="148.8" width="74.4" height="74.4" fill="#fffefd"/><polygon points="297.6,148.8 297.6,223.20000000000002 223.2,223.20000000000002" fill="#eb6186"/><rect x="297.6" y="148.8" width="74.4" height="74.4" fill="#ffffff"/><rect x="297.6" y="148.8" width="37.2" height="37.2" fill="#e94f78"/><polygon points="297.6,148.8 334.8,148.8 334.8,186" fill="#f8c3d1"/><rect x="334.8" y="148.8" width="37.2" height="37.2" fill="#f5fbf8"/><g transform="translate(334.8,148.8) scale(1.86) rotate(0)"><path d="M10 0L20 10L10 20L0 10L10 0Z" fill="#f192ab"/></g><rect x="297.6" y="186" width="37.2" height="37.2" fill="#f8fcfb"/><g transform="translate(297.6,186) scale(1.86) rotate(0)"><path d="M10 0L20 10L10 20L0 10L10 0Z" fill="#ec6387"/></g><rect x="334.8" y="186" width="37.2" height="37.2" fill="#cae7dc"/><polygon points="334.8,186 372,223.2 334.8,223.2" fill="#cbaca3"/><rect x="372" y="148.8" width="74.4" height="74.4" fill="#f2d8da"/><g transform="translate(372,148.8) scale(3.72) rotate(0)"><path d="M10 0L20 10L10 20L0 10L10 0Z" fill="#ed6f90"/></g><rect x="446.4" y="148.8" width="74.4" height="74.4" fill="#d9eee6"/><path d="M 446.4 148.8 A 74.4 74.4 0 0 0 520.8 223.20000000000002 L 520.8 148.8" fill="#f0f8f5"/><rect x="520.8000000000001" y="148.8" width="74.4" height="74.4" fill="#ffffff"/><rect x="520.8" y="148.8" width="37.2" height="37.2" fill="#dbefe7"/><g transform="translate(520.8,148.8) scale(1.86) rotate(0)"><path d="M10 0L20 10L10 20L0 10L10 0Z" fill="#e6f3ee"/></g><rect x="558" y="148.8" width="37.2" height="37.2" fill="#fefbfc"/><polygon points="558,148.8 595.2,148.8 595.2,186" fill="#d2b7af"/><rect x="520.8" y="186" width="37.2" height="37.2" fill="#f9cbd7"/><g transform="translate(520.8,186) scale(1.86) rotate(0)"><path d="M13 0H20V7L7 20H0V13L13 0Z" fill="#ec6488"/></g><rect x="558" y="186" width="37.2" height="37.2" fill="#ecc4c8"/><path d="M 558 186 A 37.2 37.2 0 0 1 595.2 223.2 L 558 223.2" fill="#f0e8e5"/><rect x="595.2" y="148.8" width="74.4" height="74.4" fill="#e3a9ae"/><rect x="595.2" y="148.8" width="74.4" height="74.4" fill="#d5ece3"/><rect x="669.6" y="148.8" width="74.4" height="74.4" fill="#e9bcc0"/><polygon points="744,148.8 744,223.20000000000002 669.6,223.20000000000002" fill="#fdfbf7"/><rect x="744" y="148.8" width="74.4" height="74.4" fill="#eec9cd"/><g transform="translate(744,148.8) scale(3.72) rotate(0)"><path d="M10 0L20 10L10 20L0 10L10 0Z" fill="#f7becd"/></g><rect x="818.4" y="148.8" width="74.4" height="74.4" fill="#e7f4ef"/><g transform="translate(818.4,148.8) scale(3.72) rotate(0)"><path d="M10 0L20 10L10 20L0 10L10 0Z" fill="#f6e3e5"/></g><rect x="892.8000000000001" y="148.8" width="74.4" height="74.4" fill="#ffffff"/><rect x="892.8" y="148.8" width="37.2" height="37.2" fill="#f9f4e9"/><rect x="892.8" y="148.8" width="37.2" height="37.2" fill="#f9cdd9"/><rect x="930" y="148.8" width="37.2" height="37.2" fill="#daeee6"/><g transform="translate(930,148.8) scale(1.86) rotate(0)"><path d="M10 0L20 10L10 20L0 10L10 0Z" fill="#e9bbc0"/></g><rect x="892.8" y="186" width="37.2" height="37.2" fill="#d5ece3"/><polygon points="892.8,186 930,223.2 892.8,223.2" fill="#f8c8d5"/><rect x="930" y="186" width="37.2" height="37.2" fill="#f7c1cf"/><g transform="translate(930,186) scale(1.86) rotate(0)"><path d="M13 0H20V7L7 20H0V13L13 0Z" fill="#fdedf2"/></g><rect x="967.2" y="148.8" width="74.4" height="74.4" fill="#fadbe3"/><g transform="translate(967.2,148.8) scale(3.72) rotate(0)"><path d="M13 0H20V7L7 20H0V13L13 0Z" fill="#fcf7f7"/></g><rect x="1041.6" y="148.8" width="74.4" height="74.4" fill="#f6fbf9"/><path d="M 1041.6 223.20000000000002 A 74.4 74.4 0 0 1  1116 148.8 L 1041.6 223.20000000000002 A 74.4 74.4 0 0 0 1116 148.8" fill="#e3a8ad"/><rect x="0" y="223.20000000000002" width="74.4" height="74.4" fill="#ffffff"/><rect x="0" y="223.2" width="37.2" height="37.2" fill="#f8c5d2"/><path d="M 0 260.4 A 37.2 37.2 0 0 1  37.2 223.2 L 37.2 260.4" fill="#f190a9"/><rect x="37.2" y="223.2" width="37.2" height="37.2" fill="#fdfcf9"/><g transform="translate(37.2,223.2) scale(1.86) rotate(0)"><path d="M10 0L20 10L10 20L0 10L10 0Z" fill="#f9fcfb"/></g><rect x="0" y="260.4" width="37.2" height="37.2" fill="#fce8ed"/><polygon points="0,260.4 37.2,297.59999999999997 0,297.59999999999997" fill="#fdfcf9"/><rect x="37.2" y="260.4" width="37.2" height="37.2" fill="#f6eedd"/><g transform="translate(37.2,260.4) scale(1.86) rotate(0)"><path d="M10 0L20 10L10 20L0 10L10 0Z" fill="#f6efde"/></g><rect x="74.4" y="223.2" width="74.4" height="74.4" fill="#f8f4f3"/><rect x="74.4" y="223.2" width="74.4" height="74.4" fill="#f8f1e3"/><rect x="148.8" y="223.20000000000002" width="74.4" height="74.4" fill="#ffffff"/><rect x="148.8" y="223.2" width="37.2" height="37.2" fill="#dd979e"/><polygon points="148.8,223.2 186,223.2 186,260.4" fill="#f5ecd9"/><rect x="186" y="223.2" width="37.2" height="37.2" fill="#fdfbf7"/><rect x="186" y="223.2" width="37.2" height="37.2" fill="#fcf8f2"/><rect x="148.8" y="260.4" width="37.2" height="37.2" fill="#fdfcf8"/><path d="M 148.8 260.4 A 37.2 37.2 0 0 1  186 297.59999999999997 L 148.8 260.4 A 37.2 37.2 0 0 0 186 297.59999999999997" fill="#faf6f5"/><rect x="186" y="260.4" width="37.2" height="37.2" fill="#c9a99f"/><g transform="translate(186,260.4) scale(1.86) rotate(0)"><path d="M13 0H20V7L7 20H0V13L13 0Z" fill="#e5f3ee"/></g><rect x="223.20000000000002" y="223.20000000000002" width="74.4" height="74.4" fill="#ffffff"/><rect x="223.2" y="223.2" width="37.2" height="37.2" fill="#e2a7ad"/><rect x="223.2" y="223.2" width="37.2" height="37.2" fill="#fefffe"/><rect x="260.4" y="223.2" width="37.2" height="37.2" fill="#ebdfdb"/><rect x="260.4" y="223.2" width="37.2" height="37.2" fill="#f39eb4"/><rect x="223.2" y="260.4" width="37.2" height="37.2" fill="#eecace"/><path d="M 223.2 297.59999999999997 A 37.2 37.2 0 0 1  260.4 260.4 L 223.2 297.59999999999997 A 37.2 37.2 0 0 0 260.4 260.4" fill="#eb5a80"/><rect x="260.4" y="260.4" width="37.2" height="37.2" fill="#f7f0e0"/><rect x="260.4" y="260.4" width="37.2" height="37.2" fill="#e8b8bc"/><rect x="297.6" y="223.20000000000002" width="74.4" height="74.4" fill="#ffffff"/><rect x="297.6" y="223.2" width="37.2" height="37.2" fill="#cbe7dd"/><rect x="297.6" y="223.2" width="37.2" height="37.2" fill="#cce8dd"/><rect x="334.8" y="223.2" width="37.2" height="37.2" fill="#fdf8f8"/><polygon points="334.8,223.2 372,260.4 334.8,260.4" fill="#f7fbf9"/><rect x="297.6" y="260.4" width="37.2" height="37.2" fill="#fbf7ef"/><rect x="297.6" y="260.4" width="37.2" height="37.2" fill="#ecc5c9"/><rect x="334.8" y="260.4" width="37.2" height="37.2" fill="#dc939a"/><rect x="334.8" y="260.4" width="37.2" height="37.2" fill="#f8f1e3"/><rect x="372" y="223.20000000000002" width="74.4" height="74.4" fill="#ffffff"/><rect x="372" y="223.2" width="37.2" height="37.2" fill="#d7838b"/><path d="M 372 223.2 A 37.2 37.2 0 0 0 409.2 260.4 L 409.2 223.2" fill="#f5b0c2"/><rect x="409.2" y="223.2" width="37.2" height="37.2" fill="#f5eeed"/><polygon points="409.2,223.2 446.4,223.2 409.2,260.4" fill="#e1a4aa"/><rect x="372" y="260.4" width="37.2" height="37.2" fill="#fbe0e7"/><path d="M 372 260.4 A 37.2 37.2 0 0 1  409.2 297.59999999999997 L 372 260.4 A 37.2 37.2 0 0 0 409.2 297.59999999999997" fill="#d98b92"/><rect x="409.2" y="260.4" width="37.2" height="37.2" fill="#c9e6db"/><path d="M 409.2 260.4 A 37.2 37.2 0 0 1  446.4 297.59999999999997 L 409.2 260.4 A 37.2 37.2 0 0 0 446.4 297.59999999999997" fill="#edc8cc"/><rect x="446.40000000000003" y="223.20000000000002" width="74.4" height="74.4" fill="#ffffff"/><rect x="446.4" y="223.2" width="37.2" height="37.2" fill="#f4faf8"/><polygon points="446.4,223.2 483.59999999999997,223.2 483.59999999999997,260.4" fill="#eee3e0"/><rect x="483.6" y="223.2" width="37.2" height="37.2" fill="#f7efdf"/><g transform="translate(483.6,223.2) scale(1.86) rotate(0)"><path d="M13 0H20V7L7 20H0V13L13 0Z" fill="#f8f3f2"/></g><rect x="446.4" y="260.4" width="37.2" height="37.2" fill="#cfb3aa"/><g transform="translate(446.4,260.4) scale(1.86) rotate(0)"><path d="M13 0H20V7L7 20H0V13L13 0Z" fill="#fffefe"/></g><rect x="483.6" y="260.4" width="37.2" height="37.2" fill="#e0f1ea"/><g transform="translate(483.6,260.4) scale(1.86) rotate(0)"><path d="M10 0L20 10L10 20L0 10L10 0Z" fill="#fbdfe6"/></g><rect x="520.8000000000001" y="223.20000000000002" width="74.4" height="74.4" fill="#ffffff"/><rect x="520.8" y="223.2" width="37.2" height="37.2" fill="#decbc5"/><path d="M 520.8 260.4 A 37.2 37.2 0 0 1  558 223.2 L 520.8 260.4 A 37.2 37.2 0 0 0 558 223.2" fill="#c6e5d9"/><rect x="558" y="223.2" width="37.2" height="37.2" fill="#fef8fa"/><polygon points="595.2,223.2 595.2,260.4 558,260.4" fill="#f8f3e6"/><rect x="520.8" y="260.4" width="37.2" height="37.2" fill="#f6f1ef"/><rect x="520.8" y="260.4" width="37.2" height="37.2" fill="#faf1f2"/><rect x="558" y="260.4" width="37.2" height="37.2" fill="#f1e9e7"/><g transform="translate(558,260.4) scale(1.86) rotate(0)"><path d="M13 0H20V7L7 20H0V13L13 0Z" fill="#d6828a"/></g><rect x="595.2" y="223.2" width="74.4" height="74.4" fill="#fbdce4"/><path d="M 595.2 223.2 A 74.4 74.4 0 0 1  669.6 297.6 L 595.2 223.2 A 74.4 74.4 0 0 0 669.6 297.6" fill="#c6e5d9"/><rect x="669.6" y="223.2" width="74.4" height="74.4" fill="#d0e9df"/><path d="M 669.6 223.2 A 74.4 74.4 0 0 1  744 297.6 L 669.6 223.2 A 74.4 74.4 0 0 0 744 297.6" fill="#df9ba2"/><rect x="744" y="223.2" width="74.4" height="74.4" fill="#f7f0e2"/><path d="M 744 223.2 A 74.4 74.4 0 0 1  818.4 297.6 L 744 223.2 A 74.4 74.4 0 0 0 818.4 297.6" fill="#fefdfb"/><rect x="818.4000000000001" y="223.20000000000002" width="74.4" height="74.4" fill="#ffffff"/><rect x="818.4" y="223.2" width="37.2" height="37.2" fill="#f4ebd6"/><g transform="translate(818.4,223.2) scale(1.86) rotate(0)"><path d="M10 0L20 10L10 20L0 10L10 0Z" fill="#cfe9df"/></g><rect x="855.6" y="223.2" width="37.2" height="37.2" fill="#eabdc1"/><g transform="translate(855.6,223.2) scale(1.86) rotate(0)"><path d="M13 0H20V7L7 20H0V13L13 0Z" fill="#f8f1e3"/></g><rect x="818.4" y="260.4" width="37.2" height="37.2" fill="#f5f0ee"/><polygon points="855.6,260.4 855.6,297.59999999999997 818.4,297.59999999999997" fill="#ef7d9b"/><rect x="855.6" y="260.4" width="37.2" height="37.2" fill="#c8a89e"/><rect x="855.6" y="260.4" width="37.2" height="37.2" fill="#cce8dd"/><rect x="892.8" y="223.2" width="74.4" height="74.4" fill="#fdfaf6"/><path d="M 892.8 223.2 A 74.4 74.4 0 0 1  967.1999999999999 297.6 L 892.8 223.2 A 74.4 74.4 0 0 0 967.1999999999999 297.6" fill="#f5e1e3"/><rect x="967.2" y="223.2" width="74.4" height="74.4" fill="#e9bbbf"/><path d="M 967.2 297.6 A 74.4 74.4 0 0 1  1041.6000000000001 223.2 L 967.2 297.6 A 74.4 74.4 0 0 0 1041.6000000000001 223.2" fill="#ed6b8d"/><rect x="1041.6" y="223.2" width="74.4" height="74.4" fill="#fdf1f5"/><g transform="translate(1041.6,223.2) scale(3.72) rotate(0)"><path d="M10 0L20 10L10 20L0 10L10 0Z" fill="#f2ebe9"/></g><rect x="0" y="297.6" width="74.4" height="74.4" fill="#ef819e"/><path d="M 0 372 A 74.4 74.4 0 0 1  74.4 297.6 L 0 372 A 74.4 74.4 0 0 0 74.4 297.6" fill="#f6fbf9"/><rect x="74.4" y="297.6" width="74.4" height="74.4" fill="#ffffff"/><rect x="74.4" y="297.6" width="37.2" height="37.2" fill="#ebc0c4"/><g transform="translate(74.4,297.6) scale(1.86) rotate(0)"><path d="M13 0H20V7L7 20H0V13L13 0Z" fill="#e3d2cd"/></g><rect x="111.6" y="297.6" width="37.2" height="37.2" fill="#e7f4ef"/><g transform="translate(111.6,297.6) scale(1.86) rotate(0)"><path d="M10 0L20 10L10 20L0 10L10 0Z" fill="#f7bdcc"/></g><rect x="74.4" y="334.8" width="37.2" height="37.2" fill="#fcf9f4"/><g transform="translate(74.4,334.8) scale(1.86) rotate(0)"><path d="M10 0L20 10L10 20L0 10L10 0Z" fill="#f6e4e6"/></g><rect x="111.6" y="334.8" width="37.2" height="37.2" fill="#e3d3ce"/><rect x="111.6" y="334.8" width="37.2" height="37.2" fill="#f7f1e2"/><rect x="148.8" y="297.6" width="74.4" height="74.4" fill="#db9198"/><g transform="translate(148.8,297.6) scale(3.72) rotate(0)"><path d="M10 0L20 10L10 20L0 10L10 0Z" fill="#fbf8f1"/></g><rect x="223.20000000000002" y="297.6" width="74.4" height="74.4" fill="#ffffff"/><rect x="223.2" y="297.6" width="37.2" height="37.2" fill="#f6eedd"/><polygon points="223.2,297.6 260.4,334.8 223.2,334.8" fill="#fef5f7"/><rect x="260.4" y="297.6" width="37.2" height="37.2" fill="#f9edee"/><g transform="translate(260.4,297.6) scale(1.86) rotate(0)"><path d="M10 0L20 10L10 20L0 10L10 0Z" fill="#f6b8c9"/></g><rect x="223.2" y="334.8" width="37.2" height="37.2" fill="#cbe7dc"/><path d="M 223.2 334.8 A 37.2 37.2 0 0 1  260.4 372 L 223.2 334.8 A 37.2 37.2 0 0 0 260.4 372" fill="#f4a7bb"/><rect x="260.4" y="334.8" width="37.2" height="37.2" fill="#eaddda"/><g transform="translate(260.4,334.8) scale(1.86) rotate(0)"><path d="M13 0H20V7L7 20H0V13L13 0Z" fill="#cfb3ab"/></g><rect x="297.6" y="297.6" width="74.4" height="74.4" fill="#ffffff"/><rect x="297.6" y="297.6" width="37.2" height="37.2" fill="#ea567d"/><rect x="297.6" y="297.6" width="37.2" height="37.2" fill="#ddf0e9"/><rect x="334.8" y="297.6" width="37.2" height="37.2" fill="#f1f9f6"/><g transform="translate(334.8,297.6) scale(1.86) rotate(0)"><path d="M13 0H20V7L7 20H0V13L13 0Z" fill="#fdfcf8"/></g><rect x="297.6" y="334.8" width="37.2" height="37.2" fill="#faeeef"/><polygon points="297.6,334.8 334.8,334.8 297.6,372" fill="#fcfaf5"/><rect x="334.8" y="334.8" width="37.2" height="37.2" fill="#ee7897"/><rect x="334.8" y="334.8" width="37.2" height="37.2" fill="#eef7f4"/><rect x="372" y="297.6" width="74.4" height="74.4" fill="#ffffff"/><rect x="372" y="297.6" width="37.2" height="37.2" fill="#d68189"/><g transform="translate(372,297.6) scale(1.86) rotate(0)"><path d="M13 0H20V7L7 20H0V13L13 0Z" fill="#caaba1"/></g><rect x="409.2" y="297.6" width="37.2" height="37.2" fill="#f2d7da"/><path d="M 409.2 297.6 A 37.2 37.2 0 0 1  446.4 334.8 L 409.2 297.6 A 37.2 37.2 0 0 0 446.4 334.8" fill="#decac5"/><rect x="372" y="334.8" width="37.2" height="37.2" fill="#efcfd2"/><path d="M 372 372 A 37.2 37.2 0 0 1  409.2 334.8 L 372 372 A 37.2 37.2 0 0 0 409.2 334.8" fill="#e9dbd7"/><rect x="409.2" y="334.8" width="37.2" height="37.2" fill="#d98990"/><path d="M 409.2 372 A 37.2 37.2 0 0 1  446.4 334.8 L 409.2 372 A 37.2 37.2 0 0 0 446.4 334.8" fill="#ddefe8"/><rect x="446.40000000000003" y="297.6" width="74.4" height="74.4" fill="#ffffff"/><rect x="446.4" y="297.6" width="37.2" height="37.2" fill="#edf7f3"/><g transform="translate(446.4,297.6) scale(1.86) rotate(0)"><path d="M13 0H20V7L7 20H0V13L13 0Z" fill="#f3dcde"/></g><rect x="483.6" y="297.6" width="37.2" height="37.2" fill="#f4faf8"/><polygon points="483.6,297.6 520.8000000000001,297.6 520.8000000000001,334.8" fill="#dd959c"/><rect x="446.4" y="334.8" width="37.2" height="37.2" fill="#d2b8b0"/><polygon points="446.4,334.8 483.59999999999997,372 446.4,372" fill="#c7e6da"/><rect x="483.6" y="334.8" width="37.2" height="37.2" fill="#fef7f9"/><g transform="translate(483.6,334.8) scale(1.86) rotate(0)"><path d="M10 0L20 10L10 20L0 10L10 0Z" fill="#fffefe"/></g><rect x="520.8000000000001" y="297.6" width="74.4" height="74.4" fill="#ffffff"/><rect x="520.8" y="297.6" width="37.2" height="37.2" fill="#f4dddf"/><g transform="translate(520.8,297.6) scale(1.86) rotate(0)"><path d="M13 0H20V7L7 20H0V13L13 0Z" fill="#f29ab1"/></g><rect x="558" y="297.6" width="37.2" height="37.2" fill="#ecc5c9"/><g transform="translate(558,297.6) scale(1.86) rotate(0)"><path d="M13 0H20V7L7 20H0V13L13 0Z" fill="#d7ede5"/></g><rect x="520.8" y="334.8" width="37.2" height="37.2" fill="#f4faf8"/><g transform="translate(520.8,334.8) scale(1.86) rotate(0)"><path d="M10 0L20 10L10 20L0 10L10 0Z" fill="#fcfaf9"/></g><rect x="558" y="334.8" width="37.2" height="37.2" fill="#e2f2ec"/><rect x="558" y="334.8" width="37.2" height="37.2" fill="#ecc4c8"/><rect x="595.2" y="297.6" width="74.4" height="74.4" fill="#f9cdd9"/><polygon points="669.6,297.6 669.6,372 595.2,372" fill="#fad9e2"/><rect x="669.6" y="297.6" width="74.4" height="74.4" fill="#ffffff"/><rect x="669.6" y="297.6" width="37.2" height="37.2" fill="#f4ead6"/><g transform="translate(669.6,297.6) scale(1.86) rotate(0)"><path d="M13 0H20V7L7 20H0V13L13 0Z" fill="#efe6e3"/></g><rect x="706.8" y="297.6" width="37.2" height="37.2" fill="#d6bdb6"/><g transform="translate(706.8,297.6) scale(1.86) rotate(0)"><path d="M10 0L20 10L10 20L0 10L10 0Z" fill="#f7c1d0"/></g><rect x="669.6" y="334.8" width="37.2" height="37.2" fill="#ea597f"/><path d="M 669.6 334.8 A 37.2 37.2 0 0 1 706.8000000000001 372 L 669.6 372" fill="#e7b7bb"/><rect x="706.8" y="334.8" width="37.2" height="37.2" fill="#f087a3"/><g transform="translate(706.8,334.8) scale(1.86) rotate(0)"><path d="M13 0H20V7L7 20H0V13L13 0Z" fill="#f7f0e1"/></g><rect x="744" y="297.6" width="74.4" height="74.4" fill="#d9eee6"/><path d="M 744 372 A 74.4 74.4 0 0 1  818.4 297.6 L 744 372 A 74.4 74.4 0 0 0 818.4 297.6" fill="#ed7192"/><rect x="818.4000000000001" y="297.6" width="74.4" height="74.4" fill="#ffffff"/><rect x="818.4" y="297.6" width="37.2" height="37.2" fill="#e2a6ac"/><rect x="818.4" y="297.6" width="37.2" height="37.2" fill="#e8b8bc"/><rect x="855.6" y="297.6" width="37.2" height="37.2" fill="#efcdd1"/><g transform="translate(855.6,297.6) scale(1.86) rotate(0)"><path d="M13 0H20V7L7 20H0V13L13 0Z" fill="#eadeda"/></g><rect x="818.4" y="334.8" width="37.2" height="37.2" fill="#fbf7ee"/><g transform="translate(818.4,334.8) scale(1.86) rotate(0)"><path d="M10 0L20 10L10 20L0 10L10 0Z" fill="#fce6ec"/></g><rect x="855.6" y="334.8" width="37.2" height="37.2" fill="#fdfbf6"/><rect x="855.6" y="334.8" width="37.2" height="37.2" fill="#c9a89f"/><rect x="892.8" y="297.6" width="74.4" height="74.4" fill="#f6f1f0"/><rect x="892.8" y="297.6" width="74.4" height="74.4" fill="#f9fcfb"/><rect x="967.2" y="297.6" width="74.4" height="74.4" fill="#e9527a"/><rect x="967.2" y="297.6" width="74.4" height="74.4" fill="#fad9e2"/><rect x="1041.6" y="297.6" width="74.4" height="74.4" fill="#fefdfb"/><rect x="1041.6" y="297.6" width="74.4" height="74.4" fill="#d7ede4"/><rect x="0" y="372" width="74.4" height="74.4" fill="#ffffff"/><rect x="0" y="372" width="37.2" height="37.2" fill="#ec678a"/><polygon points="0,372 37.2,372 0,409.2" fill="#e5b0b5"/><rect x="37.2" y="372" width="37.2" height="37.2" fill="#fcf9f2"/><path d="M 37.2 409.2 A 37.2 37.2 0 0 1  74.4 372 L 74.4 409.2" fill="#d2b7af"/><rect x="0" y="409.2" width="37.2" height="37.2" fill="#fffffe"/><g transform="translate(0,409.2) scale(1.86) rotate(0)"><path d="M13 0H20V7L7 20H0V13L13 0Z" fill="#f6eedd"/></g><rect x="37.2" y="409.2" width="37.2" height="37.2" fill="#c6e5d9"/><polygon points="37.2,409.2 74.4,409.2 37.2,446.4" fill="#ea557c"/><rect x="74.4" y="372" width="74.4" height="74.4" fill="#ffffff"/><rect x="74.4" y="372" width="37.2" height="37.2" fill="#fdfbf7"/><g transform="translate(74.4,372) scale(1.86) rotate(0)"><path d="M13 0H20V7L7 20H0V13L13 0Z" fill="#f6b7c7"/></g><rect x="111.6" y="372" width="37.2" height="37.2" fill="#fbf7ef"/><path d="M 111.6 372 A 37.2 37.2 0 0 0 148.8 409.2 L 148.8 372" fill="#ef7c9a"/><rect x="74.4" y="409.2" width="37.2" height="37.2" fill="#fad5de"/><g transform="translate(74.4,409.2) scale(1.86) rotate(0)"><path d="M10 0L20 10L10 20L0 10L10 0Z" fill="#f8f2e4"/></g><rect x="111.6" y="409.2" width="37.2" height="37.2" fill="#c7a69c"/><rect x="111.6" y="409.2" width="37.2" height="37.2" fill="#fdfcf8"/><rect x="148.8" y="372" width="74.4" height="74.4" fill="#e8f4f0"/><g transform="translate(148.8,372) scale(3.72) rotate(0)"><path d="M10 0L20 10L10 20L0 10L10 0Z" fill="#eb5d82"/></g><rect x="223.2" y="372" width="74.4" height="74.4" fill="#f088a4"/><path d="M 223.2 446.4 A 74.4 74.4 0 0 1  297.6 372 L 223.2 446.4 A 74.4 74.4 0 0 0 297.6 372" fill="#fbf8f2"/><rect x="297.6" y="372" width="74.4" height="74.4" fill="#fdf1f5"/><g transform="translate(297.6,372) scale(3.72) rotate(0)"><path d="M10 0L20 10L10 20L0 10L10 0Z" fill="#f7f0e2"/></g><rect x="372" y="372" width="74.4" height="74.4" fill="#ffffff"/><rect x="372" y="372" width="37.2" height="37.2" fill="#f1f8f5"/><g transform="translate(372,372) scale(1.86) rotate(0)"><path d="M13 0H20V7L7 20H0V13L13 0Z" fill="#fcf9f4"/></g><rect x="409.2" y="372" width="37.2" height="37.2" fill="#d98990"/><rect x="409.2" y="372" width="37.2" height="37.2" fill="#d7858d"/><rect x="372" y="409.2" width="37.2" height="37.2" fill="#fef5f7"/><path d="M 372 409.2 A 37.2 37.2 0 0 1  409.2 446.4 L 372 409.2 A 37.2 37.2 0 0 0 409.2 446.4" fill="#f9f6f5"/><rect x="409.2" y="409.2" width="37.2" height="37.2" fill="#f7bfce"/><g transform="translate(409.2,409.2) scale(1.86) rotate(0)"><path d="M13 0H20V7L7 20H0V13L13 0Z" fill="#dbc5bf"/></g><rect x="446.4" y="372" width="74.4" height="74.4" fill="#fcf5f5"/><path d="M 446.4 446.4 A 74.4 74.4 0 0 1  520.8 372 L 446.4 446.4 A 74.4 74.4 0 0 0 520.8 372" fill="#eee4e1"/><rect x="520.8000000000001" y="372" width="74.4" height="74.4" fill="#ffffff"/><rect x="520.8" y="372" width="37.2" height="37.2" fill="#fcfaf5"/><polygon points="558,372 558,409.2 520.8,409.2" fill="#cae7db"/><rect x="558" y="372" width="37.2" height="37.2" fill="#f9f3e7"/><path d="M 558 409.2 A 37.2 37.2 0 0 1  595.2 372 L 558 409.2 A 37.2 37.2 0 0 0 595.2 372" fill="#fef5f7"/><rect x="520.8" y="409.2" width="37.2" height="37.2" fill="#f1f9f6"/><path d="M 520.8 446.4 A 37.2 37.2 0 0 1  558 409.2 L 520.8 446.4 A 37.2 37.2 0 0 0 558 409.2" fill="#f6eedd"/><rect x="558" y="409.2" width="37.2" height="37.2" fill="#fcf9f3"/><path d="M 558 446.4 A 37.2 37.2 0 0 1  595.2 409.2 L 558 446.4 A 37.2 37.2 0 0 0 595.2 409.2" fill="#c7a59b"/><rect x="595.2" y="372" width="74.4" height="74.4" fill="#da8e95"/><path d="M 595.2 446.4 A 74.4 74.4 0 0 1  669.6 372 L 595.2 446.4 A 74.4 74.4 0 0 0 669.6 372" fill="#fffbfc"/><rect x="669.6" y="372" width="74.4" height="74.4" fill="#f5b0c3"/><polygon points="669.6,372 744,446.4 669.6,446.4" fill="#cfb2a9"/><rect x="744" y="372" width="74.4" height="74.4" fill="#ffffff"/><rect x="744" y="372" width="37.2" height="37.2" fill="#fffefe"/><path d="M 744 372 A 37.2 37.2 0 0 1  781.2 409.2 L 744 372 A 37.2 37.2 0 0 0 781.2 409.2" fill="#d7848c"/><rect x="781.2" y="372" width="37.2" height="37.2" fill="#ecc6c9"/><path d="M 781.2 409.2 A 37.2 37.2 0 0 1  818.4000000000001 372 L 781.2 409.2 A 37.2 37.2 0 0 0 818.4000000000001 372" fill="#d7838b"/><rect x="744" y="409.2" width="37.2" height="37.2" fill="#ed7293"/><polygon points="744,409.2 781.2,446.4 744,446.4" fill="#ecc3c7"/><rect x="781.2" y="409.2" width="37.2" height="37.2" fill="#d6bdb6"/><g transform="translate(781.2,409.2) scale(1.86) rotate(0)"><path d="M10 0L20 10L10 20L0 10L10 0Z" fill="#fffefe"/></g><rect x="818.4" y="372" width="74.4" height="74.4" fill="#e0f1ea"/><path d="M 818.4 446.4 A 74.4 74.4 0 0 1  892.8 372 L 892.8 446.4" fill="#f293ac"/><rect x="892.8" y="372" width="74.4" height="74.4" fill="#f39cb3"/><g transform="translate(892.8,372) scale(3.72) rotate(0)"><path d="M10 0L20 10L10 20L0 10L10 0Z" fill="#ee7494"/></g><rect x="967.2" y="372" width="74.4" height="74.4" fill="#ffffff"/><rect x="967.2" y="372" width="37.2" height="37.2" fill="#ec6287"/><rect x="967.2" y="372" width="37.2" height="37.2" fill="#e6b2b7"/><rect x="1004.4" y="372" width="37.2" height="37.2" fill="#f6eede"/><g transform="translate(1004.4,372) scale(1.86) rotate(0)"><path d="M13 0H20V7L7 20H0V13L13 0Z" fill="#eadeda"/></g><rect x="967.2" y="409.2" width="37.2" height="37.2" fill="#fdfafa"/><path d="M 967.2 446.4 A 37.2 37.2 0 0 1  1004.4000000000001 409.2 L 1004.4000000000001 446.4" fill="#fbf3f4"/><rect x="1004.4" y="409.2" width="37.2" height="37.2" fill="#e5f3ee"/><polygon points="1004.4,409.2 1041.6,409.2 1041.6,446.4" fill="#ef7e9c"/><rect x="1041.6" y="372" width="74.4" height="74.4" fill="#d4bbb3"/><path d="M 1041.6 446.4 A 74.4 74.4 0 0 1  1116 372 L 1041.6 446.4 A 74.4 74.4 0 0 0 1116 372" fill="#e8b7bc"/><rect x="0" y="446.4" width="74.4" height="74.4" fill="#faf8f7"/><g transform="translate(0,446.4) scale(3.72) rotate(0)"><path d="M10 0L20 10L10 20L0 10L10 0Z" fill="#db8f96"/></g><rect x="74.4" y="446.4" width="74.4" height="74.4" fill="#c8e6db"/><g transform="translate(74.4,446.4) scale(3.72) rotate(0)"><path d="M13 0H20V7L7 20H0V13L13 0Z" fill="#df9da3"/></g><rect x="148.8" y="446.4" width="74.4" height="74.4" fill="#e7f4ef"/><polygon points="148.8,446.4 223.20000000000002,446.4 148.8,520.8" fill="#edc9cc"/><rect x="223.20000000000002" y="446.40000000000003" width="74.4" height="74.4" fill="#ffffff"/><rect x="223.2" y="446.4" width="37.2" height="37.2" fill="#cbaca3"/><path d="M 223.2 446.4 A 37.2 37.2 0 0 1  260.4 483.59999999999997 L 223.2 446.4 A 37.2 37.2 0 0 0 260.4 483.59999999999997" fill="#e4abb0"/><rect x="260.4" y="446.4" width="37.2" height="37.2" fill="#f8fcfa"/><g transform="translate(260.4,446.4) scale(1.86) rotate(0)"><path d="M13 0H20V7L7 20H0V13L13 0Z" fill="#f7e8e9"/></g><rect x="223.2" y="483.6" width="37.2" height="37.2" fill="#f1d5d8"/><path d="M 223.2 483.6 A 37.2 37.2 0 0 0 260.4 520.8000000000001 L 260.4 483.6" fill="#f5ebd7"/><rect x="260.4" y="483.6" width="37.2" height="37.2" fill="#e5b1b6"/><path d="M 260.4 520.8000000000001 A 37.2 37.2 0 0 1  297.59999999999997 483.6 L 260.4 520.8000000000001 A 37.2 37.2 0 0 0 297.59999999999997 483.6" fill="#f6b8c8"/><rect x="297.6" y="446.4" width="74.4" height="74.4" fill="#c8e6da"/><polygon points="297.6,446.4 372,520.8 297.6,520.8" fill="#d8c0b9"/><rect x="372" y="446.40000000000003" width="74.4" height="74.4" fill="#ffffff"/><rect x="372" y="446.4" width="37.2" height="37.2" fill="#eecbce"/><rect x="372" y="446.4" width="37.2" height="37.2" fill="#fbf7ef"/><rect x="409.2" y="446.4" width="37.2" height="37.2" fill="#cdb0a7"/><g transform="translate(409.2,446.4) scale(1.86) rotate(0)"><path d="M10 0L20 10L10 20L0 10L10 0Z" fill="#da8e95"/></g><rect x="372" y="483.6" width="37.2" height="37.2" fill="#e1f1eb"/><polygon points="372,483.6 409.2,483.6 372,520.8000000000001" fill="#dcefe7"/><rect x="409.2" y="483.6" width="37.2" height="37.2" fill="#f5fbf9"/><path d="M 409.2 483.6 A 37.2 37.2 0 0 1 446.4 520.8000000000001 L 409.2 520.8000000000001" fill="#d8ede5"/><rect x="446.4" y="446.4" width="74.4" height="74.4" fill="#e5f3ee"/><g transform="translate(446.4,446.4) scale(3.72) rotate(0)"><path d="M13 0H20V7L7 20H0V13L13 0Z" fill="#f3ecea"/></g><rect x="520.8000000000001" y="446.40000000000003" width="74.4" height="74.4" fill="#ffffff"/><rect x="520.8" y="446.4" width="37.2" height="37.2" fill="#fefefd"/><rect x="520.8" y="446.4" width="37.2" height="37.2" fill="#f087a3"/><rect x="558" y="446.4" width="37.2" height="37.2" fill="#f08aa5"/><rect x="558" y="446.4" width="37.2" height="37.2" fill="#ea537b"/><rect x="520.8" y="483.6" width="37.2" height="37.2" fill="#db8f96"/><g transform="translate(520.8,483.6) scale(1.86) rotate(0)"><path d="M10 0L20 10L10 20L0 10L10 0Z" fill="#d8ede5"/></g><rect x="558" y="483.6" width="37.2" height="37.2" fill="#fbf8f7"/><g transform="translate(558,483.6) scale(1.86) rotate(0)"><path d="M10 0L20 10L10 20L0 10L10 0Z" fill="#f7f0e2"/></g><rect x="595.2" y="446.4" width="74.4" height="74.4" fill="#c9a99f"/><g transform="translate(595.2,446.4) scale(3.72) rotate(0)"><path d="M13 0H20V7L7 20H0V13L13 0Z" fill="#ddf0e8"/></g><rect x="669.6" y="446.40000000000003" width="74.4" height="74.4" fill="#ffffff"/><rect x="669.6" y="446.4" width="37.2" height="37.2" fill="#d5bcb4"/><path d="M 669.6 483.59999999999997 A 37.2 37.2 0 0 1  706.8000000000001 446.4 L 669.6 483.59999999999997 A 37.2 37.2 0 0 0 706.8000000000001 446.4" fill="#f8f1e3"/><rect x="706.8" y="446.4" width="37.2" height="37.2" fill="#d7848b"/><g transform="translate(706.8,446.4) scale(1.86) rotate(0)"><path d="M10 0L20 10L10 20L0 10L10 0Z" fill="#edc9cc"/></g><rect x="669.6" y="483.6" width="37.2" height="37.2" fill="#c9e7db"/><path d="M 669.6 483.6 A 37.2 37.2 0 0 1  706.8000000000001 520.8000000000001 L 669.6 483.6 A 37.2 37.2 0 0 0 706.8000000000001 520.8000000000001" fill="#e1a2a8"/><rect x="706.8" y="483.6" width="37.2" height="37.2" fill="#f4faf8"/><path d="M 706.8 483.6 A 37.2 37.2 0 0 1  744 520.8000000000001 L 706.8 483.6 A 37.2 37.2 0 0 0 744 520.8000000000001" fill="#f5ebd7"/><rect x="744" y="446.40000000000003" width="74.4" height="74.4" fill="#ffffff"/><rect x="744" y="446.4" width="37.2" height="37.2" fill="#fbfdfc"/><path d="M 744 483.59999999999997 A 37.2 37.2 0 0 1  781.2 446.4 L 744 483.59999999999997 A 37.2 37.2 0 0 0 781.2 446.4" fill="#e5b0b5"/><rect x="781.2" y="446.4" width="37.2" height="37.2" fill="#dbefe7"/><path d="M 781.2 483.59999999999997 A 37.2 37.2 0 0 1  818.4000000000001 446.4 L 818.4000000000001 483.59999999999997" fill="#fcfaf5"/><rect x="744" y="483.6" width="37.2" height="37.2" fill="#e3aab0"/><g transform="translate(744,483.6) scale(1.86) rotate(0)"><path d="M10 0L20 10L10 20L0 10L10 0Z" fill="#ee7a99"/></g><rect x="781.2" y="483.6" width="37.2" height="37.2" fill="#f6fbf9"/><rect x="781.2" y="483.6" width="37.2" height="37.2" fill="#d8ede5"/><rect x="818.4" y="446.4" width="74.4" height="74.4" fill="#d7bfb8"/><g transform="translate(818.4,446.4) scale(3.72) rotate(0)"><path d="M10 0L20 10L10 20L0 10L10 0Z" fill="#d0eae0"/></g><rect x="892.8000000000001" y="446.40000000000003" width="74.4" height="74.4" fill="#ffffff"/><rect x="892.8" y="446.4" width="37.2" height="37.2" fill="#d0b5ac"/><path d="M 892.8 446.4 A 37.2 37.2 0 0 1  930 483.59999999999997 L 892.8 446.4 A 37.2 37.2 0 0 0 930 483.59999999999997" fill="#e6b2b7"/><rect x="930" y="446.4" width="37.2" height="37.2" fill="#dff0ea"/><path d="M 930 483.59999999999997 A 37.2 37.2 0 0 1  967.2 446.4 L 930 483.59999999999997 A 37.2 37.2 0 0 0 967.2 446.4" fill="#f190aa"/><rect x="892.8" y="483.6" width="37.2" height="37.2" fill="#f8f2e4"/><path d="M 892.8 483.6 A 37.2 37.2 0 0 1  930 520.8000000000001 L 892.8 483.6 A 37.2 37.2 0 0 0 930 520.8000000000001" fill="#cdafa6"/><rect x="930" y="483.6" width="37.2" height="37.2" fill="#f298b0"/><g transform="translate(930,483.6) scale(1.86) rotate(0)"><path d="M13 0H20V7L7 20H0V13L13 0Z" fill="#dbc6bf"/></g><rect x="967.2" y="446.40000000000003" width="74.4" height="74.4" fill="#ffffff"/><rect x="967.2" y="446.4" width="37.2" height="37.2" fill="#f39bb2"/><g transform="translate(967.2,446.4) scale(1.86) rotate(0)"><path d="M10 0L20 10L10 20L0 10L10 0Z" fill="#d4bab2"/></g><rect x="1004.4" y="446.4" width="37.2" height="37.2" fill="#eff8f4"/><polygon points="1004.4,446.4 1041.6,446.4 1004.4,483.59999999999997" fill="#f7bdcc"/><rect x="967.2" y="483.6" width="37.2" height="37.2" fill="#ebdedb"/><rect x="967.2" y="483.6" width="37.2" height="37.2" fill="#dbefe7"/><rect x="1004.4" y="483.6" width="37.2" height="37.2" fill="#e9dbd7"/><path d="M 1004.4 520.8000000000001 A 37.2 37.2 0 0 1  1041.6 483.6 L 1041.6 520.8000000000001" fill="#fef4f6"/><rect x="1041.6000000000001" y="446.40000000000003" width="74.4" height="74.4" fill="#ffffff"/><rect x="1041.6" y="446.4" width="37.2" height="37.2" fill="#d6828a"/><g transform="translate(1041.6,446.4) scale(1.86) rotate(0)"><path d="M13 0H20V7L7 20H0V13L13 0Z" fill="#fcfefd"/></g><rect x="1078.8" y="446.4" width="37.2" height="37.2" fill="#f8f4f2"/><rect x="1078.8" y="446.4" width="37.2" height="37.2" fill="#fbdfe6"/><rect x="1041.6" y="483.6" width="37.2" height="37.2" fill="#fbfdfc"/><g transform="translate(1041.6,483.6) scale(1.86) rotate(0)"><path d="M10 0L20 10L10 20L0 10L10 0Z" fill="#f7becd"/></g><rect x="1078.8" y="483.6" width="37.2" height="37.2" fill="#f4a6ba"/><polygon points="1078.8,483.6 1116,483.6 1078.8,520.8000000000001" fill="#cee9de"/><rect x="0" y="520.8000000000001" width="74.4" height="74.4" fill="#ffffff"/><rect x="0" y="520.8" width="37.2" height="37.2" fill="#f9f3e7"/><g transform="translate(0,520.8) scale(1.86) rotate(0)"><path d="M13 0H20V7L7 20H0V13L13 0Z" fill="#ecc4c7"/></g><rect x="37.2" y="520.8" width="37.2" height="37.2" fill="#e1a4aa"/><polygon points="37.2,520.8 74.4,520.8 37.2,558" fill="#fdfaf6"/><rect x="0" y="558" width="37.2" height="37.2" fill="#fdfaf6"/><g transform="translate(0,558) scale(1.86) rotate(0)"><path d="M13 0H20V7L7 20H0V13L13 0Z" fill="#fefdfa"/></g><rect x="37.2" y="558" width="37.2" height="37.2" fill="#fbf6ee"/><g transform="translate(37.2,558) scale(1.86) rotate(0)"><path d="M10 0L20 10L10 20L0 10L10 0Z" fill="#fcfefd"/></g><rect x="74.4" y="520.8000000000001" width="74.4" height="74.4" fill="#ffffff"/><rect x="74.4" y="520.8" width="37.2" height="37.2" fill="#f3faf7"/><polygon points="74.4,520.8 111.60000000000001,558 74.4,558" fill="#dcc7c1"/><rect x="111.6" y="520.8" width="37.2" height="37.2" fill="#fcf9f2"/><g transform="translate(111.6,520.8) scale(1.86) rotate(0)"><path d="M13 0H20V7L7 20H0V13L13 0Z" fill="#f298b0"/></g><rect x="74.4" y="558" width="37.2" height="37.2" fill="#f8f2e5"/><g transform="translate(74.4,558) scale(1.86) rotate(0)"><path d="M10 0L20 10L10 20L0 10L10 0Z" fill="#fad7e1"/></g><rect x="111.6" y="558" width="37.2" height="37.2" fill="#f7f0e0"/><g transform="translate(111.6,558) scale(1.86) rotate(0)"><path d="M13 0H20V7L7 20H0V13L13 0Z" fill="#f39bb2"/></g><rect x="148.8" y="520.8000000000001" width="74.4" height="74.4" fill="#ffffff"/><rect x="148.8" y="520.8" width="37.2" height="37.2" fill="#de9ba1"/><polygon points="148.8,520.8 186,520.8 186,558" fill="#f9cfda"/><rect x="186" y="520.8" width="37.2" height="37.2" fill="#ef809d"/><path d="M 186 558 A 37.2 37.2 0 0 1  223.2 520.8 L 186 558 A 37.2 37.2 0 0 0 223.2 520.8" fill="#eb5c82"/><rect x="148.8" y="558" width="37.2" height="37.2" fill="#f5e1e3"/><g transform="translate(148.8,558) scale(1.86) rotate(0)"><path d="M10 0L20 10L10 20L0 10L10 0Z" fill="#efe5e2"/></g><rect x="186" y="558" width="37.2" height="37.2" fill="#fefcfa"/><rect x="186" y="558" width="37.2" height="37.2" fill="#caaaa0"/><rect x="223.20000000000002" y="520.8000000000001" width="74.4" height="74.4" fill="#ffffff"/><rect x="223.2" y="520.8" width="37.2" height="37.2" fill="#fffffe"/><g transform="translate(223.2,520.8) scale(1.86) rotate(0)"><path d="M13 0H20V7L7 20H0V13L13 0Z" fill="#fcebef"/></g><rect x="260.4" y="520.8" width="37.2" height="37.2" fill="#fefefe"/><path d="M 260.4 558 A 37.2 37.2 0 0 0 297.59999999999997 520.8 L 260.4 520.8" fill="#d6ece3"/><rect x="223.2" y="558" width="37.2" height="37.2" fill="#ee7595"/><rect x="223.2" y="558" width="37.2" height="37.2" fill="#e7b6bb"/><rect x="260.4" y="558" width="37.2" height="37.2" fill="#faf5ec"/><g transform="translate(260.4,558) scale(1.86) rotate(0)"><path d="M10 0L20 10L10 20L0 10L10 0Z" fill="#f296ae"/></g><rect x="297.6" y="520.8000000000001" width="74.4" height="74.4" fill="#ffffff"/><rect x="297.6" y="520.8" width="37.2" height="37.2" fill="#eadeda"/><g transform="translate(297.6,520.8) scale(1.86) rotate(0)"><path d="M10 0L20 10L10 20L0 10L10 0Z" fill="#e9f5f0"/></g><rect x="334.8" y="520.8" width="37.2" height="37.2" fill="#fefdfb"/><rect x="334.8" y="520.8" width="37.2" height="37.2" fill="#e8f5f0"/><rect x="297.6" y="558" width="37.2" height="37.2" fill="#f4aabe"/><polygon points="297.6,558 334.8,595.2 297.6,595.2" fill="#dac4be"/><rect x="334.8" y="558" width="37.2" height="37.2" fill="#f1e9e7"/><rect x="334.8" y="558" width="37.2" height="37.2" fill="#eb5b81"/><rect x="372" y="520.8" width="74.4" height="74.4" fill="#f6eddb"/><path d="M 372 595.1999999999999 A 74.4 74.4 0 0 1  446.4 520.8 L 446.4 595.1999999999999" fill="#c6e5d9"/><rect x="446.4" y="520.8" width="74.4" height="74.4" fill="#f9ceda"/><path d="M 446.4 520.8 A 74.4 74.4 0 0 1  520.8 595.1999999999999 L 446.4 520.8 A 74.4 74.4 0 0 0 520.8 595.1999999999999" fill="#f5ecda"/><rect x="520.8" y="520.8" width="74.4" height="74.4" fill="#ebdfdb"/><g transform="translate(520.8,520.8) scale(3.72) rotate(0)"><path d="M13 0H20V7L7 20H0V13L13 0Z" fill="#f3a2b7"/></g><rect x="595.2" y="520.8000000000001" width="74.4" height="74.4" fill="#ffffff"/><rect x="595.2" y="520.8" width="37.2" height="37.2" fill="#de999f"/><path d="M 595.2 558 A 37.2 37.2 0 0 1  632.4000000000001 520.8 L 595.2 558 A 37.2 37.2 0 0 0 632.4000000000001 520.8" fill="#e7f4ef"/><rect x="632.4" y="520.8" width="37.2" height="37.2" fill="#f9eced"/><g transform="translate(632.4,520.8) scale(1.86) rotate(0)"><path d="M13 0H20V7L7 20H0V13L13 0Z" fill="#e8b7bb"/></g><rect x="595.2" y="558" width="37.2" height="37.2" fill="#def0e9"/><path d="M 595.2 595.2 A 37.2 37.2 0 0 0 632.4000000000001 558 L 595.2 558" fill="#fbdee6"/><rect x="632.4" y="558" width="37.2" height="37.2" fill="#faf6f5"/><polygon points="632.4,558 669.6,558 632.4,595.2" fill="#ed6b8d"/><rect x="669.6" y="520.8000000000001" width="74.4" height="74.4" fill="#ffffff"/><rect x="669.6" y="520.8" width="37.2" height="37.2" fill="#f9edee"/><path d="M 669.6 520.8 A 37.2 37.2 0 0 1  706.8000000000001 558 L 669.6 520.8 A 37.2 37.2 0 0 0 706.8000000000001 558" fill="#e1a3a9"/><rect x="706.8" y="520.8" width="37.2" height="37.2" fill="#fefdfb"/><rect x="706.8" y="520.8" width="37.2" height="37.2" fill="#e4abb1"/><rect x="669.6" y="558" width="37.2" height="37.2" fill="#fefffe"/><path d="M 669.6 558 A 37.2 37.2 0 0 1 706.8000000000001 595.2 L 669.6 595.2" fill="#f4a7bb"/><rect x="706.8" y="558" width="37.2" height="37.2" fill="#d7858d"/><polygon points="744,558 744,595.2 706.8,595.2" fill="#db9198"/><rect x="744" y="520.8000000000001" width="74.4" height="74.4" fill="#ffffff"/><rect x="744" y="520.8" width="37.2" height="37.2" fill="#dcc8c2"/><polygon points="744,520.8 781.2,520.8 744,558" fill="#e3a8ad"/><rect x="781.2" y="520.8" width="37.2" height="37.2" fill="#fdfcf9"/><path d="M 781.2 520.8 A 37.2 37.2 0 0 1  818.4000000000001 558 L 781.2 520.8 A 37.2 37.2 0 0 0 818.4000000000001 558" fill="#f6e4e6"/><rect x="744" y="558" width="37.2" height="37.2" fill="#fefcfa"/><g transform="translate(744,558) scale(1.86) rotate(0)"><path d="M10 0L20 10L10 20L0 10L10 0Z" fill="#f9f3e8"/></g><rect x="781.2" y="558" width="37.2" height="37.2" fill="#ec6387"/><polygon points="818.4000000000001,558 818.4000000000001,595.2 781.2,595.2" fill="#f3a2b7"/><rect x="818.4000000000001" y="520.8000000000001" width="74.4" height="74.4" fill="#ffffff"/><rect x="818.4" y="520.8" width="37.2" height="37.2" fill="#fef8fa"/><path d="M 818.4 558 A 37.2 37.2 0 0 1  855.6 520.8 L 818.4 558 A 37.2 37.2 0 0 0 855.6 520.8" fill="#fbf7ef"/><rect x="855.6" y="520.8" width="37.2" height="37.2" fill="#f7f0e1"/><path d="M 855.6 520.8 A 37.2 37.2 0 0 1 892.8000000000001 558 L 855.6 558" fill="#f8c9d6"/><rect x="818.4" y="558" width="37.2" height="37.2" fill="#f4edeb"/><g transform="translate(818.4,558) scale(1.86) rotate(0)"><path d="M10 0L20 10L10 20L0 10L10 0Z" fill="#f9f4e9"/></g><rect x="855.6" y="558" width="37.2" height="37.2" fill="#ccaea5"/><rect x="855.6" y="558" width="37.2" height="37.2" fill="#d1eae0"/><rect x="892.8000000000001" y="520.8000000000001" width="74.4" height="74.4" fill="#ffffff"/><rect x="892.8" y="520.8" width="37.2" height="37.2" fill="#f2d6d8"/><path d="M 892.8 520.8 A 37.2 37.2 0 0 1  930 558 L 892.8 520.8 A 37.2 37.2 0 0 0 930 558" fill="#ebf6f2"/><rect x="930" y="520.8" width="37.2" height="37.2" fill="#fcfafa"/><path d="M 930 558 A 37.2 37.2 0 0 1  967.2 520.8 L 930 558 A 37.2 37.2 0 0 0 967.2 520.8" fill="#eb5d83"/><rect x="892.8" y="558" width="37.2" height="37.2" fill="#caaaa1"/><path d="M 892.8 558 A 37.2 37.2 0 0 1  930 595.2 L 892.8 558 A 37.2 37.2 0 0 0 930 595.2" fill="#e4f3ed"/><rect x="930" y="558" width="37.2" height="37.2" fill="#f08aa5"/><g transform="translate(930,558) scale(1.86) rotate(0)"><path d="M10 0L20 10L10 20L0 10L10 0Z" fill="#fffbfc"/></g><rect x="967.2" y="520.8000000000001" width="74.4" height="74.4" fill="#ffffff"/><rect x="967.2" y="520.8" width="37.2" height="37.2" fill="#ede3e0"/><rect x="967.2" y="520.8" width="37.2" height="37.2" fill="#f39fb5"/><rect x="1004.4" y="520.8" width="37.2" height="37.2" fill="#decbc5"/><path d="M 1004.4 520.8 A 37.2 37.2 0 0 1  1041.6 558 L 1004.4 520.8 A 37.2 37.2 0 0 0 1041.6 558" fill="#ec6387"/><rect x="967.2" y="558" width="37.2" height="37.2" fill="#edc8cb"/><path d="M 967.2 558 A 37.2 37.2 0 0 1  1004.4000000000001 595.2 L 967.2 558 A 37.2 37.2 0 0 0 1004.4000000000001 595.2" fill="#dd959c"/><rect x="1004.4" y="558" width="37.2" height="37.2" fill="#fdf8f8"/><path d="M 1004.4 595.2 A 37.2 37.2 0 0 1  1041.6 558 L 1004.4 595.2 A 37.2 37.2 0 0 0 1041.6 558" fill="#f3d9db"/><rect x="1041.6000000000001" y="520.8000000000001" width="74.4" height="74.4" fill="#ffffff"/><rect x="1041.6" y="520.8" width="37.2" height="37.2" fill="#f0e6e4"/><rect x="1041.6" y="520.8" width="37.2" height="37.2" fill="#f8c8d5"/><rect x="1078.8" y="520.8" width="37.2" height="37.2" fill="#f089a4"/><rect x="1078.8" y="520.8" width="37.2" height="37.2" fill="#df9da3"/><rect x="1041.6" y="558" width="37.2" height="37.2" fill="#f18ca7"/><path d="M 1041.6 595.2 A 37.2 37.2 0 0 0 1078.8 558 L 1041.6 558" fill="#e5b1b6"/><rect x="1078.8" y="558" width="37.2" height="37.2" fill="#ccaea5"/><path d="M 1078.8 595.2 A 37.2 37.2 0 0 1  1116 558 L 1078.8 595.2 A 37.2 37.2 0 0 0 1116 558" fill="#eee4e1"/><rect x="0" y="595.2" width="74.4" height="74.4" fill="#fdedf1"/><rect x="0" y="595.2" width="74.4" height="74.4" fill="#e1f1eb"/><rect x="74.4" y="595.2" width="74.4" height="74.4" fill="#ffffff"/><rect x="74.4" y="595.2" width="37.2" height="37.2" fill="#cde8de"/><path d="M 74.4 595.2 A 37.2 37.2 0 0 1 111.60000000000001 632.4000000000001 L 74.4 632.4000000000001" fill="#ef7b99"/><rect x="111.6" y="595.2" width="37.2" height="37.2" fill="#eabfc3"/><path d="M 111.6 632.4000000000001 A 37.2 37.2 0 0 1  148.8 595.2 L 111.6 632.4000000000001 A 37.2 37.2 0 0 0 148.8 595.2" fill="#de99a0"/><rect x="74.4" y="632.4" width="37.2" height="37.2" fill="#eecbcf"/><polygon points="74.4,632.4 111.60000000000001,632.4 74.4,669.6" fill="#fbfdfc"/><rect x="111.6" y="632.4" width="37.2" height="37.2" fill="#f2d7da"/><g transform="translate(111.6,632.4) scale(1.86) rotate(0)"><path d="M13 0H20V7L7 20H0V13L13 0Z" fill="#f7efe0"/></g><rect x="148.8" y="595.2" width="74.4" height="74.4" fill="#ffffff"/><rect x="148.8" y="595.2" width="37.2" height="37.2" fill="#d4bab2"/><path d="M 148.8 632.4000000000001 A 37.2 37.2 0 0 1  186 595.2 L 148.8 632.4000000000001 A 37.2 37.2 0 0 0 186 595.2" fill="#f9f3e8"/><rect x="186" y="595.2" width="37.2" height="37.2" fill="#e2a7ac"/><polygon points="186,595.2 223.2,632.4000000000001 186,632.4000000000001" fill="#ddc9c3"/><rect x="148.8" y="632.4" width="37.2" height="37.2" fill="#e2a7ad"/><g transform="translate(148.8,632.4) scale(1.86) rotate(0)"><path d="M13 0H20V7L7 20H0V13L13 0Z" fill="#f4dfe1"/></g><rect x="186" y="632.4" width="37.2" height="37.2" fill="#ed7091"/><g transform="translate(186,632.4) scale(1.86) rotate(0)"><path d="M13 0H20V7L7 20H0V13L13 0Z" fill="#f8c3d1"/></g><rect x="223.2" y="595.2" width="74.4" height="74.4" fill="#fef7f9"/><path d="M 223.2 669.6 A 74.4 74.4 0 0 1  297.6 595.2 L 223.2 669.6 A 74.4 74.4 0 0 0 297.6 595.2" fill="#faf6ec"/><rect x="297.6" y="595.2" width="74.4" height="74.4" fill="#f2f9f6"/><path d="M 297.6 669.6 A 74.4 74.4 0 0 1  372 595.2 L 297.6 669.6 A 74.4 74.4 0 0 0 372 595.2" fill="#fffefe"/><rect x="372" y="595.2" width="74.4" height="74.4" fill="#ffffff"/><rect x="372" y="595.2" width="37.2" height="37.2" fill="#efced1"/><g transform="translate(372,595.2) scale(1.86) rotate(0)"><path d="M10 0L20 10L10 20L0 10L10 0Z" fill="#efcfd2"/></g><rect x="409.2" y="595.2" width="37.2" height="37.2" fill="#f4aabd"/><path d="M 409.2 632.4000000000001 A 37.2 37.2 0 0 1  446.4 595.2 L 409.2 632.4000000000001 A 37.2 37.2 0 0 0 446.4 595.2" fill="#e7b6bb"/><rect x="372" y="632.4" width="37.2" height="37.2" fill="#ebf6f2"/><polygon points="372,632.4 409.2,632.4 409.2,669.6" fill="#cfe9df"/><rect x="409.2" y="632.4" width="37.2" height="37.2" fill="#ebe0dc"/><path d="M 409.2 669.6 A 37.2 37.2 0 0 1  446.4 632.4 L 409.2 669.6 A 37.2 37.2 0 0 0 446.4 632.4" fill="#faf8f7"/><rect x="446.4" y="595.2" width="74.4" height="74.4" fill="#eef7f4"/><path d="M 446.4 595.2 A 74.4 74.4 0 0 1  520.8 669.6 L 446.4 595.2 A 74.4 74.4 0 0 0 520.8 669.6" fill="#fffdfe"/><rect x="520.8000000000001" y="595.2" width="74.4" height="74.4" fill="#ffffff"/><rect x="520.8" y="595.2" width="37.2" height="37.2" fill="#f6efde"/><g transform="translate(520.8,595.2) scale(1.86) rotate(0)"><path d="M13 0H20V7L7 20H0V13L13 0Z" fill="#f9d1dc"/></g><rect x="558" y="595.2" width="37.2" height="37.2" fill="#fef7f9"/><g transform="translate(558,595.2) scale(1.86) rotate(0)"><path d="M13 0H20V7L7 20H0V13L13 0Z" fill="#f39eb4"/></g><rect x="520.8" y="632.4" width="37.2" height="37.2" fill="#f6eddb"/><polygon points="558,632.4 558,669.6 520.8,669.6" fill="#e3f2ed"/><rect x="558" y="632.4" width="37.2" height="37.2" fill="#ed6a8d"/><g transform="translate(558,632.4) scale(1.86) rotate(0)"><path d="M13 0H20V7L7 20H0V13L13 0Z" fill="#f6eedd"/></g><rect x="595.2" y="595.2" width="74.4" height="74.4" fill="#cae7dc"/><path d="M 595.2 669.6 A 74.4 74.4 0 0 1  669.6 595.2 L 595.2 669.6 A 74.4 74.4 0 0 0 669.6 595.2" fill="#ecc4c7"/><rect x="669.6" y="595.2" width="74.4" height="74.4" fill="#ffffff"/><rect x="669.6" y="595.2" width="37.2" height="37.2" fill="#f7f0e2"/><g transform="translate(669.6,595.2) scale(1.86) rotate(0)"><path d="M10 0L20 10L10 20L0 10L10 0Z" fill="#ece0dd"/></g><rect x="706.8" y="595.2" width="37.2" height="37.2" fill="#de9aa1"/><rect x="706.8" y="595.2" width="37.2" height="37.2" fill="#ef809d"/><rect x="669.6" y="632.4" width="37.2" height="37.2" fill="#ea587f"/><polygon points="706.8000000000001,632.4 706.8000000000001,669.6 669.6,669.6" fill="#f297af"/><rect x="706.8" y="632.4" width="37.2" height="37.2" fill="#cdb0a7"/><path d="M 706.8 669.6 A 37.2 37.2 0 0 1  744 632.4 L 706.8 669.6 A 37.2 37.2 0 0 0 744 632.4" fill="#e0f1ea"/><rect x="744" y="595.2" width="74.4" height="74.4" fill="#ed6c8e"/><path d="M 744 595.2 A 74.4 74.4 0 0 1  818.4 669.6 L 744 595.2 A 74.4 74.4 0 0 0 818.4 669.6" fill="#fcf9f2"/><rect x="818.4" y="595.2" width="74.4" height="74.4" fill="#f5efed"/><polygon points="818.4,595.2 892.8,669.6 818.4,669.6" fill="#ece0dd"/><rect x="892.8000000000001" y="595.2" width="74.4" height="74.4" fill="#ffffff"/><rect x="892.8" y="595.2" width="37.2" height="37.2" fill="#fdeef2"/><rect x="892.8" y="595.2" width="37.2" height="37.2" fill="#ffffff"/><rect x="930" y="595.2" width="37.2" height="37.2" fill="#d5ece3"/><g transform="translate(930,595.2) scale(1.86) rotate(0)"><path d="M10 0L20 10L10 20L0 10L10 0Z" fill="#d98c93"/></g><rect x="892.8" y="632.4" width="37.2" height="37.2" fill="#e6f3ee"/><rect x="892.8" y="632.4" width="37.2" height="37.2" fill="#fce7ec"/><rect x="930" y="632.4" width="37.2" height="37.2" fill="#fef6f8"/><polygon points="930,632.4 967.2,669.6 930,669.6" fill="#f6e5e7"/><rect x="967.2" y="595.2" width="74.4" height="74.4" fill="#fbf8f1"/><path d="M 967.2 595.2 A 74.4 74.4 0 0 1  1041.6000000000001 669.6 L 967.2 595.2 A 74.4 74.4 0 0 0 1041.6000000000001 669.6" fill="#f1f9f6"/><rect x="1041.6" y="595.2" width="74.4" height="74.4" fill="#ef809d"/><path d="M 1041.6 595.2 A 74.4 74.4 0 0 1  1116 669.6 L 1041.6 595.2 A 74.4 74.4 0 0 0 1116 669.6" fill="#fffefd"/><rect x="0" y="669.6" width="74.4" height="74.4" fill="#ffffff"/><rect x="0" y="669.6" width="37.2" height="37.2" fill="#f9f5f4"/><path d="M 0 706.8000000000001 A 37.2 37.2 0 0 1  37.2 669.6 L 0 706.8000000000001 A 37.2 37.2 0 0 0 37.2 669.6" fill="#ef7b9a"/><rect x="37.2" y="669.6" width="37.2" height="37.2" fill="#d88890"/><path d="M 37.2 706.8000000000001 A 37.2 37.2 0 0 0 74.4 669.6 L 37.2 669.6" fill="#dc939a"/><rect x="0" y="706.8" width="37.2" height="37.2" fill="#cde8de"/><g transform="translate(0,706.8) scale(1.86) rotate(0)"><path d="M10 0L20 10L10 20L0 10L10 0Z" fill="#f39eb4"/></g><rect x="37.2" y="706.8" width="37.2" height="37.2" fill="#db9198"/><path d="M 37.2 744 A 37.2 37.2 0 0 1  74.4 706.8 L 37.2 744 A 37.2 37.2 0 0 0 74.4 706.8" fill="#fce3ea"/><rect x="74.4" y="669.6" width="74.4" height="74.4" fill="#ffffff"/><rect x="74.4" y="669.6" width="37.2" height="37.2" fill="#ecf6f2"/><path d="M 74.4 706.8000000000001 A 37.2 37.2 0 0 1  111.60000000000001 669.6 L 74.4 706.8000000000001 A 37.2 37.2 0 0 0 111.60000000000001 669.6" fill="#fefdfb"/><rect x="111.6" y="669.6" width="37.2" height="37.2" fill="#dbefe7"/><polygon points="111.6,669.6 148.8,669.6 111.6,706.8000000000001" fill="#fad7e0"/><rect x="74.4" y="706.8" width="37.2" height="37.2" fill="#d68189"/><rect x="74.4" y="706.8" width="37.2" height="37.2" fill="#edf7f3"/><rect x="111.6" y="706.8" width="37.2" height="37.2" fill="#d3b8b1"/><path d="M 111.6 706.8 A 37.2 37.2 0 0 1  148.8 744 L 111.6 706.8 A 37.2 37.2 0 0 0 148.8 744" fill="#e5f3ee"/><rect x="148.8" y="669.6" width="74.4" height="74.4" fill="#ffffff"/><rect x="148.8" y="669.6" width="37.2" height="37.2" fill="#fcfafa"/><g transform="translate(148.8,669.6) scale(1.86) rotate(0)"><path d="M13 0H20V7L7 20H0V13L13 0Z" fill="#fad5df"/></g><rect x="186" y="669.6" width="37.2" height="37.2" fill="#d3ebe2"/><rect x="186" y="669.6" width="37.2" height="37.2" fill="#f8c4d1"/><rect x="148.8" y="706.8" width="37.2" height="37.2" fill="#f3a1b7"/><g transform="translate(148.8,706.8) scale(1.86) rotate(0)"><path d="M13 0H20V7L7 20H0V13L13 0Z" fill="#ecc6ca"/></g><rect x="186" y="706.8" width="37.2" height="37.2" fill="#f5aec0"/><g transform="translate(186,706.8) scale(1.86) rotate(0)"><path d="M10 0L20 10L10 20L0 10L10 0Z" fill="#f3faf7"/></g><rect x="223.20000000000002" y="669.6" width="74.4" height="74.4" fill="#ffffff"/><rect x="223.2" y="669.6" width="37.2" height="37.2" fill="#fef8fa"/><path d="M 223.2 706.8000000000001 A 37.2 37.2 0 0 1  260.4 669.6 L 223.2 706.8000000000001 A 37.2 37.2 0 0 0 260.4 669.6" fill="#e4f3ed"/><rect x="260.4" y="669.6" width="37.2" height="37.2" fill="#fdfefe"/><g transform="translate(260.4,669.6) scale(1.86) rotate(0)"><path d="M13 0H20V7L7 20H0V13L13 0Z" fill="#faf7f6"/></g><rect x="223.2" y="706.8" width="37.2" height="37.2" fill="#e3f2ec"/><rect x="223.2" y="706.8" width="37.2" height="37.2" fill="#f5abbe"/><rect x="260.4" y="706.8" width="37.2" height="37.2" fill="#e0a1a7"/><rect x="260.4" y="706.8" width="37.2" height="37.2" fill="#faf5ea"/><rect x="297.6" y="669.6" width="74.4" height="74.4" fill="#edc7ca"/><g transform="translate(297.6,669.6) scale(3.72) rotate(0)"><path d="M13 0H20V7L7 20H0V13L13 0Z" fill="#d9eee6"/></g><rect x="372" y="669.6" width="74.4" height="74.4" fill="#ffffff"/><rect x="372" y="669.6" width="37.2" height="37.2" fill="#fcf9f3"/><path d="M 372 706.8000000000001 A 37.2 37.2 0 0 1  409.2 669.6 L 372 706.8000000000001 A 37.2 37.2 0 0 0 409.2 669.6" fill="#d1eae0"/><rect x="409.2" y="669.6" width="37.2" height="37.2" fill="#fbe1e8"/><g transform="translate(409.2,669.6) scale(1.86) rotate(0)"><path d="M13 0H20V7L7 20H0V13L13 0Z" fill="#f6e3e5"/></g><rect x="372" y="706.8" width="37.2" height="37.2" fill="#f1e8e6"/><path d="M 372 744 A 37.2 37.2 0 0 1  409.2 706.8 L 409.2 744" fill="#f5edda"/><rect x="409.2" y="706.8" width="37.2" height="37.2" fill="#f9f4ea"/><g transform="translate(409.2,706.8) scale(1.86) rotate(0)"><path d="M10 0L20 10L10 20L0 10L10 0Z" fill="#f8eaeb"/></g><rect x="446.4" y="669.6" width="74.4" height="74.4" fill="#d8ede5"/><path d="M 446.4 744 A 74.4 74.4 0 0 1  520.8 669.6 L 446.4 744 A 74.4 74.4 0 0 0 520.8 669.6" fill="#f083a0"/><rect x="520.8" y="669.6" width="74.4" height="74.4" fill="#f8c9d6"/><polygon points="595.1999999999999,669.6 595.1999999999999,744 520.8,744" fill="#d4ebe2"/><rect x="595.2" y="669.6" width="74.4" height="74.4" fill="#d1b6ae"/><polygon points="595.2,669.6 669.6,669.6 595.2,744" fill="#c9a9a0"/><rect x="669.6" y="669.6" width="74.4" height="74.4" fill="#ffffff"/><rect x="669.6" y="669.6" width="37.2" height="37.2" fill="#f9eeef"/><g transform="translate(669.6,669.6) scale(1.86) rotate(0)"><path d="M13 0H20V7L7 20H0V13L13 0Z" fill="#e1cfca"/></g><rect x="706.8" y="669.6" width="37.2" height="37.2" fill="#ee7595"/><path d="M 706.8 706.8000000000001 A 37.2 37.2 0 0 1  744 669.6 L 706.8 706.8000000000001 A 37.2 37.2 0 0 0 744 669.6" fill="#fcebf0"/><rect x="669.6" y="706.8" width="37.2" height="37.2" fill="#d98a92"/><polygon points="669.6,706.8 706.8000000000001,744 669.6,744" fill="#e6d7d3"/><rect x="706.8" y="706.8" width="37.2" height="37.2" fill="#f8f2e6"/><rect x="706.8" y="706.8" width="37.2" height="37.2" fill="#fcfefd"/><rect x="744" y="669.6" width="74.4" height="74.4" fill="#ffffff"/><rect x="744" y="669.6" width="37.2" height="37.2" fill="#f8f4f3"/><rect x="744" y="669.6" width="37.2" height="37.2" fill="#d8ede5"/><rect x="781.2" y="669.6" width="37.2" height="37.2" fill="#fffdfe"/><path d="M 781.2 706.8000000000001 A 37.2 37.2 0 0 0 818.4000000000001 669.6 L 781.2 669.6" fill="#faf6ec"/><rect x="744" y="706.8" width="37.2" height="37.2" fill="#f3a2b8"/><path d="M 744 706.8 A 37.2 37.2 0 0 1  781.2 744 L 744 706.8 A 37.2 37.2 0 0 0 781.2 744" fill="#f6b4c5"/><rect x="781.2" y="706.8" width="37.2" height="37.2" fill="#fefbfb"/><g transform="translate(781.2,706.8) scale(1.86) rotate(0)"><path d="M13 0H20V7L7 20H0V13L13 0Z" fill="#fefdfd"/></g><rect x="818.4000000000001" y="669.6" width="74.4" height="74.4" fill="#ffffff"/><rect x="818.4" y="669.6" width="37.2" height="37.2" fill="#e9f5f1"/><rect x="818.4" y="669.6" width="37.2" height="37.2" fill="#f3a0b6"/><rect x="855.6" y="669.6" width="37.2" height="37.2" fill="#fefefe"/><polygon points="855.6,669.6 892.8000000000001,706.8000000000001 855.6,706.8000000000001" fill="#e3f2ed"/><rect x="818.4" y="706.8" width="37.2" height="37.2" fill="#fefcfa"/><rect x="818.4" y="706.8" width="37.2" height="37.2" fill="#dff0e9"/><rect x="855.6" y="706.8" width="37.2" height="37.2" fill="#f9ccd8"/><g transform="translate(855.6,706.8) scale(1.86) rotate(0)"><path d="M13 0H20V7L7 20H0V13L13 0Z" fill="#def0e9"/></g><rect x="892.8" y="669.6" width="74.4" height="74.4" fill="#f5aec1"/><g transform="translate(892.8,669.6) scale(3.72) rotate(0)"><path d="M10 0L20 10L10 20L0 10L10 0Z" fill="#ebf6f2"/></g><rect x="967.2" y="669.6" width="74.4" height="74.4" fill="#ffffff"/><rect x="967.2" y="669.6" width="37.2" height="37.2" fill="#fbf7f0"/><path d="M 967.2 669.6 A 37.2 37.2 0 0 1  1004.4000000000001 706.8000000000001 L 967.2 669.6 A 37.2 37.2 0 0 0 1004.4000000000001 706.8000000000001" fill="#e7b7bb"/><rect x="1004.4" y="669.6" width="37.2" height="37.2" fill="#fdebf0"/><path d="M 1004.4 706.8000000000001 A 37.2 37.2 0 0 1  1041.6 669.6 L 1004.4 706.8000000000001 A 37.2 37.2 0 0 0 1041.6 669.6" fill="#fbf7ef"/><rect x="967.2" y="706.8" width="37.2" height="37.2" fill="#f4aabd"/><g transform="translate(967.2,706.8) scale(1.86) rotate(0)"><path d="M13 0H20V7L7 20H0V13L13 0Z" fill="#ef7e9c"/></g><rect x="1004.4" y="706.8" width="37.2" height="37.2" fill="#edf7f3"/><rect x="1004.4" y="706.8" width="37.2" height="37.2" fill="#eef7f4"/><rect x="1041.6000000000001" y="669.6" width="74.4" height="74.4" fill="#ffffff"/><rect x="1041.6" y="669.6" width="37.2" height="37.2" fill="#eff8f4"/><path d="M 1041.6 706.8000000000001 A 37.2 37.2 0 0 1  1078.8 669.6 L 1041.6 706.8000000000001 A 37.2 37.2 0 0 0 1078.8 669.6" fill="#dd989e"/><rect x="1078.8" y="669.6" width="37.2" height="37.2" fill="#e4abb0"/><rect x="1078.8" y="669.6" width="37.2" height="37.2" fill="#f7f0e1"/><rect x="1041.6" y="706.8" width="37.2" height="37.2" fill="#fbf8f1"/><polygon points="1041.6,706.8 1078.8,706.8 1078.8,744" fill="#eac0c4"/><rect x="1078.8" y="706.8" width="37.2" height="37.2" fill="#fbf7f0"/><g transform="translate(1078.8,706.8) scale(1.86) rotate(0)"><path d="M10 0L20 10L10 20L0 10L10 0Z" fill="#e7d8d4"/></g></g></svg>