<svg width="2847" height="4351" viewBox="0 0 2847 4351" fill="none" xmlns="http://www.w3.org/2000/svg">
<path d="M1251.67 89.3223H1591.46C1592.02 89.3223 1592.46 89.77 1592.46 90.3223V217.496H2739.2C2739.75 217.496 2740.2 217.943 2740.2 218.496V573.827C2740.2 574.379 2739.75 574.827 2739.2 574.827H2582.89C2582.89 3217.02 2740.09 3217.91 2740.2 4234.5C2740.2 4235.05 2739.75 4235.53 2739.2 4235.53H113.645C113.092 4235.53 112.645 4235.06 112.645 4234.5C112.759 3202.37 285.484 3191.8 285.484 574.827H113.645C113.092 574.827 112.645 574.379 112.645 573.827V218.496C112.645 217.943 113.092 217.496 113.645 217.496H1250.67V90.3223C1250.67 89.77 1251.12 89.3223 1251.67 89.3223Z" fill="#D2AC83"/>
<path d="M1250.67 217.496V90.3223C1250.67 89.77 1251.12 89.3223 1251.67 89.3223H1591.46C1592.02 89.3223 1592.46 89.77 1592.46 90.3223V217.496M1250.67 217.496H113.645C113.092 217.496 112.645 217.943 112.645 218.496V573.827C112.645 574.379 113.092 574.827 113.645 574.827H285.484M1250.67 217.496V574.827M565.135 574.827H285.484M675.83 574.827H737.975M848.67 574.827H1250.67M1250.67 574.827V773.855C1250.67 774.407 1251.12 774.855 1251.67 774.855H1591.46C1592.02 774.855 1592.46 774.407 1592.46 773.855V574.827M1592.46 574.827V217.496M1592.46 574.827H2582.89M1592.46 217.496H2739.2C2739.75 217.496 2740.2 217.943 2740.2 218.496V573.827C2740.2 574.379 2739.75 574.827 2739.2 574.827H2582.89M2079 1755V1211.5C2079 1210.95 2078.55 1210.5 2078 1210.5H764.5C763.948 1210.5 763.5 1210.95 763.5 1211.5V3824.5C763.5 3825.05 763.948 3825.5 764.5 3825.5H2078C2078.55 3825.5 2079 3825.05 2079 3824.5V1953M285.484 574.827C285.484 3191.8 112.759 3202.37 112.645 4234.5C112.645 4235.06 113.092 4235.53 113.645 4235.53H2739.2C2739.75 4235.53 2740.2 4235.05 2740.2 4234.5C2740.09 3217.91 2582.89 3217.02 2582.89 574.827" stroke="black" stroke-width="20"/>
<g clip-path="url(#clip0_888_12680)">
<rect width="1300" height="2600" transform="translate(773 1219)" fill="#D2AC83"/>
<path d="M2073 1219H773V3819H2073V1219Z" fill="white"/>
<path d="M958.699 1219H773V1404.7H958.699V1219Z" fill="#CECEB2"/>
<path d="M958.699 1219H773V1404.7H958.699V1219Z" fill="#FBE0CC"/>
<path d="M1144.4 1219H958.699V1404.7H1144.4V1219Z" fill="#D7E5DF"/>
<path d="M958.699 1404.7C958.699 1355.45 978.264 1308.22 1013.09 1273.39C1047.91 1238.56 1095.15 1219 1144.4 1219V1404.7" fill="#ECECE2"/>
<path d="M1330.13 1219H1144.43V1404.7H1330.13V1219Z" fill="#9DC0B0"/>
<path d="M1330.13 1219V1404.7H1144.43L1330.13 1219Z" fill="#D9D9C4"/>
<path d="M1515.83 1219H1330.13V1404.7H1515.83V1219Z" fill="#FE5D7A"/>
<path d="M1515.83 1219H1330.13V1404.7H1515.83V1219Z" fill="#FEFAF7"/>
<path d="M1701.57 1219H1515.87V1404.7H1701.57V1219Z" fill="#FEE1E0"/>
<path d="M1515.87 1219C1565.12 1219 1612.35 1238.56 1647.18 1273.39C1682 1308.22 1701.57 1355.45 1701.57 1404.7L1515.87 1219C1515.87 1268.25 1535.43 1315.48 1570.26 1350.31C1605.08 1385.13 1652.32 1404.7 1701.57 1404.7" fill="#FC9E9B"/>
<path d="M1887.29 1219H1701.57V1404.71H1887.29V1219Z" fill="white"/>
<path d="M1794.43 1219H1701.57V1311.87H1794.43V1219Z" fill="#86B19D"/>
<path d="M1701.57 1311.87C1701.57 1299.67 1703.97 1287.6 1708.64 1276.33C1713.3 1265.06 1720.14 1254.82 1728.77 1246.2C1737.39 1237.58 1747.63 1230.74 1758.89 1226.07C1770.16 1221.4 1782.24 1219 1794.43 1219L1701.57 1311.87C1713.76 1311.87 1725.84 1309.47 1737.11 1304.8C1748.37 1300.13 1758.61 1293.29 1767.23 1284.67C1775.86 1276.04 1782.7 1265.81 1787.36 1254.54C1792.03 1243.27 1794.43 1231.2 1794.43 1219" fill="#EFF5F2"/>
<path d="M1887.3 1219H1794.43V1311.87H1887.3V1219Z" fill="#FBDAC3"/>
<path d="M1817.65 1219H1840.87L1817.65 1242.22L1794.43 1265.43V1242.22L1817.65 1219Z" fill="#E3E3D4"/>
<path d="M1887.3 1288.65V1311.87H1864.08L1887.3 1288.65Z" fill="#E3E3D4"/>
<path d="M1887.3 1242.22V1265.43L1864.08 1288.65L1840.87 1311.87H1817.65L1887.3 1242.22Z" fill="#E3E3D4"/>
<path d="M1864.08 1219H1887.3L1817.65 1288.65L1794.43 1311.87V1288.65L1864.08 1219Z" fill="#E3E3D4"/>
<path d="M1794.43 1311.87H1701.57V1404.73H1794.43V1311.87Z" fill="#FFFEFD"/>
<path d="M1701.57 1404.73C1701.57 1392.54 1703.97 1380.46 1708.64 1369.2C1713.3 1357.93 1720.14 1347.69 1728.77 1339.07C1737.39 1330.44 1747.63 1323.6 1758.89 1318.94C1770.16 1314.27 1782.24 1311.87 1794.43 1311.87L1701.57 1404.73C1713.76 1404.73 1725.84 1402.33 1737.11 1397.67C1748.37 1393 1758.61 1386.16 1767.23 1377.53C1775.86 1368.91 1782.7 1358.67 1787.36 1347.41C1792.03 1336.14 1794.43 1324.06 1794.43 1311.87" fill="#FFD8DF"/>
<path d="M1887.3 1311.87H1794.43V1404.73H1887.3V1311.87Z" fill="#92B9A7"/>
<path d="M1794.43 1311.87C1819.06 1311.87 1842.68 1321.65 1860.1 1339.07C1877.52 1356.48 1887.3 1380.1 1887.3 1404.73L1794.43 1311.87C1794.43 1336.5 1804.22 1360.12 1821.63 1377.53C1839.05 1394.95 1862.67 1404.73 1887.3 1404.73" fill="#D2D2B9"/>
<path d="M2073 1219H1887.3V1404.7H2073V1219Z" fill="#D7D7C0"/>
<path d="M2073 1219H1887.3V1404.7H2073V1219Z" fill="#FEDAD9"/>
<path d="M958.699 1404.7H773V1590.4H958.699V1404.7Z" fill="#FFFEFD"/>
<path d="M958.699 1404.7H773V1590.4H958.699V1404.7Z" fill="#FFEEF1"/>
<path d="M1144.4 1404.7H958.699V1590.4H1144.4V1404.7Z" fill="#FDF0E6"/>
<path d="M1005.12 1404.7H1051.55L1005.12 1451.12L958.699 1497.55V1451.12L1005.12 1404.7Z" fill="#FCABA9"/>
<path d="M1144.4 1543.97V1590.4H1097.97L1144.4 1543.97Z" fill="#FCABA9"/>
<path d="M1144.4 1451.12V1497.55L1097.97 1543.97L1051.55 1590.4H1005.12L1144.4 1451.12Z" fill="#FCABA9"/>
<path d="M1097.97 1404.7H1144.4L1005.12 1543.98L958.699 1590.4V1543.98L1097.97 1404.7Z" fill="#FCABA9"/>
<path d="M1330.13 1404.7H1144.43V1590.4H1330.13V1404.7Z" fill="#FFF3F2"/>
<path d="M1144.43 1404.7L1330.13 1590.4H1144.43V1404.7Z" fill="#BBD3C8"/>
<path d="M1515.83 1404.7H1330.13V1590.4H1515.83V1404.7Z" fill="#FCA09D"/>
<path d="M1515.83 1404.7H1330.13V1590.4H1515.83V1404.7Z" fill="#FCADAA"/>
<path d="M1701.57 1404.7H1515.87V1590.4H1701.57V1404.7Z" fill="#FDF0E6"/>
<path d="M1515.87 1404.7H1701.57L1515.87 1590.4V1404.7Z" fill="#FDC1BF"/>
<path d="M1887.29 1404.71H1701.57V1590.43H1887.29V1404.71Z" fill="white"/>
<path d="M1794.43 1404.7H1701.57V1497.57H1794.43V1404.7Z" fill="#FDC2C0"/>
<path d="M1794.43 1404.7H1701.57V1497.57H1794.43V1404.7Z" fill="#FFABBA"/>
<path d="M1887.3 1404.7H1794.43V1497.57H1887.3V1404.7Z" fill="#FE5473"/>
<path d="M1794.43 1497.57C1819.06 1497.57 1842.68 1487.78 1860.1 1470.37C1877.52 1452.95 1887.3 1429.33 1887.3 1404.7H1794.43" fill="#FFC3CE"/>
<path d="M1794.43 1497.57H1701.57V1590.43H1794.43V1497.57Z" fill="#FBFBF9"/>
<path d="M1701.57 1590.43C1701.57 1578.24 1703.97 1566.16 1708.64 1554.89C1713.3 1543.63 1720.14 1533.39 1728.77 1524.77C1737.39 1516.14 1747.63 1509.3 1758.89 1504.64C1770.16 1499.97 1782.24 1497.57 1794.43 1497.57V1590.43" fill="#FFCBD5"/>
<path d="M1887.3 1497.57H1794.43V1590.43H1887.3V1497.57Z" fill="#FED1D0"/>
<path d="M1794.43 1497.57C1819.06 1497.57 1842.68 1507.35 1860.1 1524.77C1877.52 1542.18 1887.3 1565.8 1887.3 1590.43L1794.43 1497.57C1794.43 1522.2 1804.22 1545.82 1821.63 1563.23C1839.05 1580.65 1862.67 1590.43 1887.3 1590.43" fill="#FE7A92"/>
<path d="M2073 1404.7H1887.3V1590.4H2073V1404.7Z" fill="#FEFEFD"/>
<path d="M1887.3 1590.4C1887.3 1541.15 1906.87 1493.91 1941.69 1459.09C1976.52 1424.26 2023.75 1404.7 2073 1404.7L1887.3 1590.4C1936.55 1590.4 1983.78 1570.83 2018.61 1536.01C2053.44 1501.18 2073 1453.95 2073 1404.7" fill="#FFA7B7"/>
<path d="M958.714 1590.43H773V1776.14H958.714V1590.43Z" fill="white"/>
<path d="M865.867 1590.43H773V1683.3H865.867V1590.43Z" fill="#FAD7BE"/>
<path d="M865.867 1590.43H773V1683.3H865.867V1590.43Z" fill="#FCA6A3"/>
<path d="M958.734 1590.43H865.867V1683.3H958.734V1590.43Z" fill="#F3F3EC"/>
<path d="M889.084 1590.43H912.301L889.084 1613.65L865.867 1636.87V1613.65L889.084 1590.43Z" fill="#91B8A7"/>
<path d="M958.734 1660.08V1683.3H935.518L958.734 1660.08Z" fill="#91B8A7"/>
<path d="M958.734 1613.65V1636.87L935.518 1660.08L912.301 1683.3H889.084L958.734 1613.65Z" fill="#91B8A7"/>
<path d="M935.518 1590.43H958.734L889.084 1660.08L865.867 1683.3V1660.08L935.518 1590.43Z" fill="#91B8A7"/>
<path d="M865.867 1683.3H773V1776.17H865.867V1683.3Z" fill="#CEDFD7"/>
<path d="M865.867 1683.3H773V1776.17H865.867V1683.3Z" fill="#DEEAE5"/>
<path d="M958.734 1683.3H865.867V1776.17H958.734V1683.3Z" fill="#DFDFCD"/>
<path d="M958.734 1683.3H865.867V1776.17H958.734V1683.3Z" fill="#FCE4D3"/>
<path d="M1144.4 1590.43H958.699V1776.13H1144.4V1590.43Z" fill="#98BCAC"/>
<path d="M1005.12 1590.43H1051.55L1005.12 1636.86L958.699 1683.28V1636.86L1005.12 1590.43Z" fill="#FE7D95"/>
<path d="M1144.4 1729.71V1776.13H1097.97L1144.4 1729.71Z" fill="#FE7D95"/>
<path d="M1144.4 1636.86V1683.28L1097.97 1729.71L1051.55 1776.13H1005.12L1144.4 1636.86Z" fill="#FE7D95"/>
<path d="M1097.97 1590.43H1144.4L1005.12 1729.71L958.699 1776.13V1729.71L1097.97 1590.43Z" fill="#FE7D95"/>
<path d="M1330.13 1590.43H1144.43V1776.13H1330.13V1590.43Z" fill="#FDBEBC"/>
<path d="M1330.13 1590.43V1776.13H1144.43L1330.13 1590.43Z" fill="#D6D6BF"/>
<path d="M1515.83 1590.43H1330.13V1776.13H1515.83V1590.43Z" fill="#FCE8D9"/>
<path d="M1422.98 1590.43L1515.83 1683.28L1422.98 1776.13L1330.13 1683.28L1422.98 1590.43Z" fill="#CFCFB3"/>
<path d="M1701.57 1590.43H1515.86V1776.14H1701.57V1590.43Z" fill="white"/>
<path d="M1608.73 1590.43H1515.87V1683.3H1608.73V1590.43Z" fill="#FAD8C0"/>
<path d="M1515.87 1590.43C1528.06 1590.43 1540.14 1592.84 1551.41 1597.5C1562.67 1602.17 1572.91 1609.01 1581.53 1617.63C1590.16 1626.26 1597 1636.49 1601.67 1647.76C1606.33 1659.03 1608.73 1671.11 1608.73 1683.3L1515.87 1590.43C1515.87 1602.63 1518.27 1614.71 1522.94 1625.97C1527.6 1637.24 1534.44 1647.48 1543.07 1656.1C1560.48 1673.52 1584.1 1683.3 1608.73 1683.3" fill="#FE4365"/>
<path d="M1701.57 1590.43H1608.7V1683.3H1701.57V1590.43Z" fill="#FFC6D0"/>
<path d="M1655.13 1590.43L1701.57 1636.87L1655.13 1683.3L1608.7 1636.87L1655.13 1590.43Z" fill="#E9F1EE"/>
<path d="M1608.73 1683.3H1515.87V1776.17H1608.73V1683.3Z" fill="#E6EFEB"/>
<path d="M1608.73 1683.3H1515.87V1776.17H1608.73V1683.3Z" fill="#B6D0C4"/>
<path d="M1701.57 1683.3H1608.7V1776.17H1701.57V1683.3Z" fill="#D8D8C3"/>
<path d="M1655.13 1683.3L1701.57 1729.73L1655.13 1776.17L1608.7 1729.73L1655.13 1683.3Z" fill="#CECEB3"/>
<path d="M1887.27 1590.43H1701.57V1776.13H1887.27V1590.43Z" fill="#FAD3B6"/>
<path d="M1747.99 1590.43H1794.42L1747.99 1636.86L1701.57 1683.28V1636.86L1747.99 1590.43Z" fill="#FDEEE3"/>
<path d="M1887.27 1729.71V1776.13H1840.84L1887.27 1729.71Z" fill="#FDEEE3"/>
<path d="M1887.27 1636.86V1683.28L1840.84 1729.71L1794.42 1776.13H1747.99L1887.27 1636.86Z" fill="#FDEEE3"/>
<path d="M1840.84 1590.43H1887.27L1747.99 1729.71L1701.57 1776.13V1729.71L1840.84 1590.43Z" fill="#FDEEE3"/>
<path d="M2073 1590.43H1887.3V1776.13H2073V1590.43Z" fill="#FBDECA"/>
<path d="M2073 1590.43H1887.3V1776.13H2073V1590.43Z" fill="#E0E0CF"/>
<path d="M958.714 1776.14H773V1961.86H958.714V1776.14Z" fill="white"/>
<path d="M865.867 1776.13H773V1869H865.867V1776.13Z" fill="#D8D8C2"/>
<path d="M865.867 1776.13V1869H773L865.867 1776.13Z" fill="#F7F7F3"/>
<path d="M958.734 1776.13H865.867V1869H958.734V1776.13Z" fill="#FE4C6C"/>
<path d="M912.301 1776.13L958.734 1822.57L912.301 1869L865.867 1822.57L912.301 1776.13Z" fill="#FBFDFC"/>
<path d="M865.867 1869H773V1961.87H865.867V1869Z" fill="#FED9D8"/>
<path d="M865.867 1869H773V1961.87H865.867V1869Z" fill="#8CB5A2"/>
<path d="M958.734 1869H865.867V1961.87H958.734V1869Z" fill="#F5F5EF"/>
<path d="M865.867 1961.87C890.497 1961.87 914.118 1952.08 931.534 1934.67C948.95 1917.25 958.734 1893.63 958.734 1869H865.867" fill="#CDCDB1"/>
<path d="M1144.4 1776.13H958.699V1961.83H1144.4V1776.13Z" fill="#D5D5BE"/>
<path d="M958.699 1776.13H1144.4V1961.83L958.699 1776.13Z" fill="#DCDCC9"/>
<path d="M1330.13 1776.13H1144.43V1961.83H1330.13V1776.13Z" fill="#FE627F"/>
<path d="M1190.86 1776.13H1237.28L1190.86 1822.56L1144.43 1868.98V1822.56L1190.86 1776.13Z" fill="#D7D7C0"/>
<path d="M1330.13 1915.41V1961.83H1283.71L1330.13 1915.41Z" fill="#D7D7C0"/>
<path d="M1330.13 1822.56V1868.98L1283.71 1915.41L1237.28 1961.83H1190.86L1330.13 1822.56Z" fill="#D7D7C0"/>
<path d="M1283.71 1776.13H1330.13L1190.86 1915.41L1144.43 1961.83V1915.41L1283.71 1776.13Z" fill="#D7D7C0"/>
<path d="M1515.83 1776.13H1330.13V1961.83H1515.83V1776.13Z" fill="#FFFEFD"/>
<path d="M1515.83 1776.13H1330.13V1961.83H1515.83V1776.13Z" fill="#FFF3F2"/>
<path d="M1701.57 1776.14H1515.86V1961.86H1701.57V1776.14Z" fill="white"/>
<path d="M1608.73 1776.13H1515.87V1869H1608.73V1776.13Z" fill="#FFF9FA"/>
<path d="M1515.87 1776.13L1608.73 1869H1515.87V1776.13Z" fill="#FDC1C0"/>
<path d="M1701.57 1776.13H1608.7V1869H1701.57V1776.13Z" fill="#F2F2EB"/>
<path d="M1701.57 1776.13H1608.7V1869H1701.57V1776.13Z" fill="#FEE1E0"/>
<path d="M1608.73 1869H1515.87V1961.87H1608.73V1869Z" fill="#FE6782"/>
<path d="M1608.73 1869V1961.87H1515.87L1608.73 1869Z" fill="#FCE8DA"/>
<path d="M1701.57 1869H1608.7V1961.87H1701.57V1869Z" fill="#F8FAF9"/>
<path d="M1655.13 1869L1701.57 1915.43L1655.13 1961.87L1608.7 1915.43L1655.13 1869Z" fill="#CDDFD7"/>
<path d="M1887.29 1776.14H1701.57V1961.86H1887.29V1776.14Z" fill="white"/>
<path d="M1794.43 1776.13H1701.57V1869H1794.43V1776.13Z" fill="#DBDBC7"/>
<path d="M1701.57 1776.13C1713.76 1776.13 1725.84 1778.53 1737.11 1783.2C1748.37 1787.87 1758.61 1794.71 1767.23 1803.33C1775.86 1811.96 1782.7 1822.19 1787.36 1833.46C1792.03 1844.73 1794.43 1856.8 1794.43 1869L1701.57 1776.13C1701.57 1788.33 1703.97 1800.4 1708.64 1811.67C1713.3 1822.94 1720.14 1833.18 1728.77 1841.8C1737.39 1850.42 1747.63 1857.26 1758.89 1861.93C1770.16 1866.6 1782.24 1869 1794.43 1869" fill="#C9DCD3"/>
<path d="M1887.3 1776.13H1794.43V1869H1887.3V1776.13Z" fill="#FCA29F"/>
<path d="M1794.43 1869C1819.06 1869 1842.68 1859.22 1860.1 1841.8C1877.52 1824.38 1887.3 1800.76 1887.3 1776.13H1794.43" fill="#F9F9F5"/>
<path d="M1794.43 1869H1701.57V1961.87H1794.43V1869Z" fill="#D9D9C4"/>
<path d="M1701.57 1869H1794.43V1961.87L1701.57 1869Z" fill="#D0D0B6"/>
<path d="M1887.3 1869H1794.43V1961.87H1887.3V1869Z" fill="#FBFDFC"/>
<path d="M1794.43 1869H1887.3L1794.43 1961.87V1869Z" fill="#FCE8D9"/>
<path d="M2073 1776.14H1887.29V1961.86H2073V1776.14Z" fill="white"/>
<path d="M1980.17 1776.13H1887.3V1869H1980.17V1776.13Z" fill="#C6DAD1"/>
<path d="M1933.73 1776.13L1980.17 1822.57L1933.73 1869L1887.3 1822.57L1933.73 1776.13Z" fill="#FE6480"/>
<path d="M2073 1776.13H1980.13V1869H2073V1776.13Z" fill="#CACAAC"/>
<path d="M1980.13 1776.13L2073 1869H1980.13V1776.13Z" fill="#FDC2C0"/>
<path d="M1980.17 1869H1887.3V1961.87H1980.17V1869Z" fill="#FFB5C2"/>
<path d="M1887.3 1869C1911.93 1869 1935.55 1878.78 1952.97 1896.2C1970.38 1913.62 1980.17 1937.24 1980.17 1961.87L1887.3 1869C1887.3 1893.63 1897.08 1917.25 1914.5 1934.67C1931.92 1952.08 1955.54 1961.87 1980.17 1961.87" fill="#FFF2F2"/>
<path d="M2073 1869H1980.13V1961.87H2073V1869Z" fill="#FDEBDF"/>
<path d="M2073 1869H1980.13V1961.87H2073V1869Z" fill="#FFF5F7"/>
<path d="M958.699 1961.87H773V2147.57H958.699V1961.87Z" fill="#A0C2B2"/>
<path d="M773 2147.57C773 2098.32 792.565 2051.08 827.39 2016.26C862.215 1981.43 909.449 1961.87 958.699 1961.87L773 2147.57C822.251 2147.57 869.484 2128 904.309 2093.18C939.135 2058.35 958.699 2011.12 958.699 1961.87" fill="#FDECE1"/>
<path d="M1144.43 1961.86H958.714V2147.57H1144.43V1961.86Z" fill="white"/>
<path d="M1051.57 1961.87H958.699V2054.73H1051.57V1961.87Z" fill="#EAEADF"/>
<path d="M958.699 1961.87H1051.57L958.699 2054.73V1961.87Z" fill="#97BCAB"/>
<path d="M1144.43 1961.87H1051.57V2054.73H1144.43V1961.87Z" fill="#FEF8F4"/>
<path d="M1074.78 1961.87H1098L1074.78 1985.08L1051.57 2008.3V1985.08L1074.78 1961.87Z" fill="#B1CCC0"/>
<path d="M1144.43 2031.52V2054.73H1121.22L1144.43 2031.52Z" fill="#B1CCC0"/>
<path d="M1144.43 1985.08V2008.3L1121.22 2031.52L1098 2054.73H1074.78L1144.43 1985.08Z" fill="#B1CCC0"/>
<path d="M1121.22 1961.87H1144.43L1074.78 2031.52L1051.57 2054.74V2031.52L1121.22 1961.87Z" fill="#B1CCC0"/>
<path d="M1051.57 2054.7H958.699V2147.57H1051.57V2054.7Z" fill="#D7D7C0"/>
<path d="M1005.13 2054.7L1051.57 2101.13L1005.13 2147.57L958.699 2101.13L1005.13 2054.7Z" fill="#FCE7D8"/>
<path d="M1144.43 2054.7H1051.57V2147.57H1144.43V2054.7Z" fill="#8AB4A1"/>
<path d="M1144.43 2054.7H1051.57V2147.57H1144.43V2054.7Z" fill="#E8E8DB"/>
<path d="M1330.13 1961.87H1144.43V2147.57H1330.13V1961.87Z" fill="#FFFEFD"/>
<path d="M1144.43 1961.87H1330.13V2147.57L1144.43 1961.87Z" fill="#FCACA9"/>
<path d="M1515.86 1961.86H1330.14V2147.57H1515.86V1961.86Z" fill="white"/>
<path d="M1423 1961.87H1330.13V2054.73H1423V1961.87Z" fill="#FFA1B2"/>
<path d="M1330.13 1961.87C1354.76 1961.87 1378.38 1971.65 1395.8 1989.07C1413.22 2006.48 1423 2030.1 1423 2054.73L1330.13 1961.87C1330.13 1974.06 1332.53 1986.14 1337.2 1997.41C1341.87 2008.67 1348.71 2018.91 1357.33 2027.53C1365.96 2036.16 1376.19 2043 1387.46 2047.67C1398.73 2052.33 1410.8 2054.73 1423 2054.73" fill="#FEE9E8"/>
<path d="M1515.87 1961.87H1423V2054.73H1515.87V1961.87Z" fill="#CCDED6"/>
<path d="M1446.22 1961.87H1469.43L1446.22 1985.08L1423 2008.3V1985.08L1446.22 1961.87Z" fill="#E7F0EC"/>
<path d="M1515.87 2031.52V2054.73H1492.65L1515.87 2031.52Z" fill="#E7F0EC"/>
<path d="M1515.87 1985.08V2008.3L1492.65 2031.52L1469.43 2054.73H1446.22L1515.87 1985.08Z" fill="#E7F0EC"/>
<path d="M1492.65 1961.87H1515.87L1446.22 2031.52L1423 2054.74V2031.52L1492.65 1961.87Z" fill="#E7F0EC"/>
<path d="M1423 2054.7H1330.13V2147.57H1423V2054.7Z" fill="#FAD7BD"/>
<path d="M1330.13 2147.57C1354.76 2147.57 1378.38 2137.78 1395.8 2120.37C1413.22 2102.95 1423 2079.33 1423 2054.7H1330.13" fill="#FFBFCB"/>
<path d="M1515.87 2054.7H1423V2147.57H1515.87V2054.7Z" fill="#8DB5A3"/>
<path d="M1423 2054.7C1447.63 2054.7 1471.25 2064.48 1488.67 2081.9C1506.08 2099.32 1515.87 2122.94 1515.87 2147.57H1423" fill="#FE6783"/>
<path d="M1701.57 1961.87H1515.87V2147.57H1701.57V1961.87Z" fill="#FED1D0"/>
<path d="M1562.29 1961.87H1608.72L1562.29 2008.29L1515.87 2054.72V2008.29L1562.29 1961.87Z" fill="#FEEAE9"/>
<path d="M1701.57 2101.14V2147.57H1655.14L1701.57 2101.14Z" fill="#FEEAE9"/>
<path d="M1701.57 2008.29V2054.72L1655.14 2101.14L1608.72 2147.57H1562.29L1701.57 2008.29Z" fill="#FEEAE9"/>
<path d="M1655.14 1961.87H1701.57L1562.29 2101.14L1515.87 2147.57V2101.14L1655.14 1961.87Z" fill="#FEEAE9"/>
<path d="M1887.27 1961.87H1701.57V2147.57H1887.27V1961.87Z" fill="#C8C8AA"/>
<path d="M1887.27 1961.87H1701.57V2147.57H1887.27V1961.87Z" fill="#DEDECC"/>
<path d="M2073 1961.87H1887.3V2147.57H2073V1961.87Z" fill="#FDEBDE"/>
<path d="M1887.3 1961.87H2073V2147.57L1887.3 1961.87Z" fill="#FFFDFD"/>
<path d="M958.699 2147.57H773V2333.27H958.699V2147.57Z" fill="#FAFAF7"/>
<path d="M773 2333.27C773 2284.02 792.565 2236.78 827.39 2201.96C862.215 2167.13 909.449 2147.57 958.699 2147.57V2333.27" fill="#FCA5A2"/>
<path d="M1144.4 2147.57H958.699V2333.27H1144.4V2147.57Z" fill="#FED1D0"/>
<path d="M958.699 2147.57C1007.95 2147.57 1055.18 2167.13 1090.01 2201.96C1124.83 2236.78 1144.4 2284.02 1144.4 2333.27L958.699 2147.57C958.699 2196.82 978.264 2244.05 1013.09 2278.88C1047.91 2313.7 1095.15 2333.27 1144.4 2333.27" fill="#D5E4DE"/>
<path d="M1330.14 2147.57H1144.43V2333.29H1330.14V2147.57Z" fill="white"/>
<path d="M1237.3 2147.57H1144.43V2240.43H1237.3V2147.57Z" fill="#C1D7CD"/>
<path d="M1167.65 2147.57H1190.87L1167.65 2170.78L1144.43 2194V2170.78L1167.65 2147.57Z" fill="#87B29E"/>
<path d="M1237.3 2217.22V2240.43H1214.08L1237.3 2217.22Z" fill="#87B29E"/>
<path d="M1237.3 2170.78V2194L1214.08 2217.22L1190.87 2240.43H1167.65L1237.3 2170.78Z" fill="#87B29E"/>
<path d="M1214.08 2147.57H1237.3L1167.65 2217.22L1144.43 2240.43V2217.22L1214.08 2147.57Z" fill="#87B29E"/>
<path d="M1330.17 2147.57H1237.3V2240.43H1330.17V2147.57Z" fill="#FBDFCB"/>
<path d="M1283.73 2147.57L1330.17 2194L1283.73 2240.43L1237.3 2194L1283.73 2147.57Z" fill="#FE8EA2"/>
<path d="M1237.3 2240.43H1144.43V2333.3H1237.3V2240.43Z" fill="#DDDDC9"/>
<path d="M1144.43 2240.43C1156.63 2240.43 1168.71 2242.84 1179.97 2247.5C1191.24 2252.17 1201.48 2259.01 1210.1 2267.63C1218.72 2276.26 1225.56 2286.49 1230.23 2297.76C1234.9 2309.03 1237.3 2321.11 1237.3 2333.3L1144.43 2240.43C1144.43 2265.06 1154.22 2288.68 1171.63 2306.1C1189.05 2323.52 1212.67 2333.3 1237.3 2333.3" fill="#FCFCFA"/>
<path d="M1330.17 2240.43H1237.3V2333.3H1330.17V2240.43Z" fill="#E3EDE8"/>
<path d="M1237.3 2333.3C1237.3 2308.67 1247.09 2285.05 1264.5 2267.63C1281.92 2250.22 1305.54 2240.43 1330.17 2240.43L1237.3 2333.3C1261.93 2333.3 1285.55 2323.52 1302.97 2306.1C1320.38 2288.68 1330.17 2265.06 1330.17 2240.43" fill="#C6DAD1"/>
<path d="M1515.83 2147.57H1330.13V2333.27H1515.83V2147.57Z" fill="#DBE8E2"/>
<path d="M1330.13 2147.57H1515.83L1330.13 2333.27V2147.57Z" fill="#FFBDC9"/>
<path d="M1701.57 2147.57H1515.87V2333.27H1701.57V2147.57Z" fill="#FFA5B5"/>
<path d="M1562.29 2147.57H1608.72L1562.29 2193.99L1515.87 2240.42V2193.99L1562.29 2147.57Z" fill="#FCE4D2"/>
<path d="M1701.57 2286.84V2333.27H1655.14L1701.57 2286.84Z" fill="#FCE4D2"/>
<path d="M1701.57 2193.99V2240.42L1655.14 2286.84L1608.72 2333.26H1562.29L1701.57 2193.99Z" fill="#FCE4D2"/>
<path d="M1655.14 2147.57H1701.57L1562.29 2286.84L1515.87 2333.27V2286.84L1655.14 2147.57Z" fill="#FCE4D2"/>
<path d="M1887.29 2147.57H1701.57V2333.29H1887.29V2147.57Z" fill="white"/>
<path d="M1794.43 2147.57H1701.57V2240.43H1794.43V2147.57Z" fill="#FBFBF9"/>
<path d="M1724.78 2147.57H1748L1724.78 2170.78L1701.57 2194V2170.78L1724.78 2147.57Z" fill="#FFFBF8"/>
<path d="M1794.43 2217.22V2240.43H1771.22L1794.43 2217.22Z" fill="#FFFBF8"/>
<path d="M1794.43 2170.78V2194L1771.22 2217.22L1748 2240.43H1724.78L1794.43 2170.78Z" fill="#FFFBF8"/>
<path d="M1771.22 2147.57H1794.43L1724.78 2217.22L1701.57 2240.43V2217.22L1771.22 2147.57Z" fill="#FFFBF8"/>
<path d="M1887.3 2147.57H1794.43V2240.43H1887.3V2147.57Z" fill="#F9CEAF"/>
<path d="M1887.3 2147.57H1794.43V2240.43H1887.3V2147.57Z" fill="#FCA3A1"/>
<path d="M1794.43 2240.43H1701.57V2333.3H1794.43V2240.43Z" fill="#BED5CB"/>
<path d="M1724.78 2240.43H1748L1724.78 2263.65L1701.57 2286.87V2263.65L1724.78 2240.43Z" fill="#FBE0CD"/>
<path d="M1794.43 2310.08V2333.3H1771.22L1794.43 2310.08Z" fill="#FBE0CD"/>
<path d="M1794.43 2263.65V2286.87L1771.22 2310.08L1748 2333.3H1724.78L1794.43 2263.65Z" fill="#FBE0CD"/>
<path d="M1771.22 2240.43H1794.43L1724.78 2310.08L1701.57 2333.3V2310.08L1771.22 2240.43Z" fill="#FBE0CD"/>
<path d="M1887.3 2240.43H1794.43V2333.3H1887.3V2240.43Z" fill="#BED5CA"/>
<path d="M1887.3 2240.43H1794.43V2333.3H1887.3V2240.43Z" fill="#C1D7CD"/>
<path d="M2073 2147.57H1887.29V2333.29H2073V2147.57Z" fill="white"/>
<path d="M1980.17 2147.57H1887.3V2240.43H1980.17V2147.57Z" fill="#FFC5CF"/>
<path d="M1980.17 2147.57V2240.43H1887.3L1980.17 2147.57Z" fill="#FEDFDE"/>
<path d="M2073 2147.57H1980.13V2240.43H2073V2147.57Z" fill="#CFCFB4"/>
<path d="M2003.35 2147.57H2026.57L2003.35 2170.78L1980.13 2194V2170.78L2003.35 2147.57Z" fill="#ADCABD"/>
<path d="M2073 2217.22V2240.43H2049.78L2073 2217.22Z" fill="#ADCABD"/>
<path d="M2073 2170.78V2194L2049.78 2217.22L2026.57 2240.43H2003.35L2073 2170.78Z" fill="#ADCABD"/>
<path d="M2049.78 2147.57H2073L2003.35 2217.22L1980.13 2240.43V2217.22L2049.78 2147.57Z" fill="#ADCABD"/>
<path d="M1980.17 2240.43H1887.3V2333.3H1980.17V2240.43Z" fill="#FDB9B7"/>
<path d="M1910.52 2240.43H1933.73L1910.52 2263.65L1887.3 2286.87V2263.65L1910.52 2240.43Z" fill="#FFF3F3"/>
<path d="M1980.17 2310.08V2333.3H1956.95L1980.17 2310.08Z" fill="#FFF3F3"/>
<path d="M1980.17 2263.65V2286.87L1956.95 2310.08L1933.73 2333.3H1910.52L1980.17 2263.65Z" fill="#FFF3F3"/>
<path d="M1956.95 2240.43H1980.17L1910.52 2310.08L1887.3 2333.3V2310.08L1956.95 2240.43Z" fill="#FFF3F3"/>
<path d="M2073 2240.43H1980.13V2333.3H2073V2240.43Z" fill="#FDECDF"/>
<path d="M2073 2240.43H1980.13V2333.3H2073V2240.43Z" fill="#EBF2EF"/>
<path d="M958.699 2333.3H773V2519H958.699V2333.3Z" fill="#FE637F"/>
<path d="M958.699 2333.3H773V2519H958.699V2333.3Z" fill="#FBDFCA"/>
<path d="M1144.4 2333.3H958.699V2519H1144.4V2333.3Z" fill="#B5CFC3"/>
<path d="M958.699 2333.3H1144.4L958.699 2519V2333.3Z" fill="#FCA8A5"/>
<path d="M1330.13 2333.3H1144.43V2519H1330.13V2333.3Z" fill="#FFE6EA"/>
<path d="M1330.13 2333.3H1144.43V2519H1330.13V2333.3Z" fill="#FDEBDF"/>
<path d="M1515.83 2333.3H1330.13V2519H1515.83V2333.3Z" fill="#FFADBC"/>
<path d="M1422.98 2333.3L1515.83 2426.15L1422.98 2519L1330.13 2426.15L1422.98 2333.3Z" fill="#FFFCFB"/>
<path d="M1701.57 2333.3H1515.87V2519H1701.57V2333.3Z" fill="#FE879C"/>
<path d="M1515.87 2333.3H1701.57L1515.87 2519V2333.3Z" fill="#FED7D6"/>
<path d="M1887.27 2333.3H1701.57V2519H1887.27V2333.3Z" fill="#C4D9CF"/>
<path d="M1701.57 2333.3C1750.82 2333.3 1798.05 2352.87 1832.88 2387.69C1867.7 2422.52 1887.27 2469.75 1887.27 2519L1701.57 2333.3C1701.57 2382.55 1721.13 2429.78 1755.96 2464.61C1790.78 2499.44 1838.02 2519 1887.27 2519" fill="#CBDED5"/>
<path d="M2073 2333.3H1887.3V2519H2073V2333.3Z" fill="#FFB5C3"/>
<path d="M1887.3 2333.3C1936.55 2333.3 1983.78 2352.87 2018.61 2387.69C2053.44 2422.52 2073 2469.75 2073 2519L1887.3 2333.3C1887.3 2382.55 1906.87 2429.78 1941.69 2464.61C1976.52 2499.44 2023.75 2519 2073 2519" fill="#FAFAF7"/>
<path d="M958.714 2519H773V2704.71H958.714V2519Z" fill="white"/>
<path d="M865.867 2519H773V2611.87H865.867V2519Z" fill="#E9E9DC"/>
<path d="M773 2519C797.63 2519 821.251 2528.78 838.667 2546.2C856.083 2563.62 865.867 2587.24 865.867 2611.87H773" fill="#FFCED7"/>
<path d="M958.734 2519H865.867V2611.87H958.734V2519Z" fill="#A9C7BA"/>
<path d="M889.084 2519H912.301L889.084 2542.22L865.867 2565.43V2542.22L889.084 2519Z" fill="#FFE9ED"/>
<path d="M958.734 2588.65V2611.87H935.518L958.734 2588.65Z" fill="#FFE9ED"/>
<path d="M958.734 2542.22V2565.43L935.518 2588.65L912.301 2611.87H889.084L958.734 2542.22Z" fill="#FFE9ED"/>
<path d="M935.518 2519H958.734L889.084 2588.65L865.867 2611.87V2588.65L935.518 2519Z" fill="#FFE9ED"/>
<path d="M865.867 2611.87H773V2704.73H865.867V2611.87Z" fill="#FEEAE9"/>
<path d="M773 2704.73C773 2680.1 782.784 2656.48 800.2 2639.07C817.616 2621.65 841.237 2611.87 865.867 2611.87V2704.73" fill="#D4D4BB"/>
<path d="M958.734 2611.87H865.867V2704.73H958.734V2611.87Z" fill="#FDECDF"/>
<path d="M889.084 2611.87H912.301L889.084 2635.08L865.867 2658.3V2635.08L889.084 2611.87Z" fill="#FAD7BE"/>
<path d="M958.734 2681.52V2704.73H935.518L958.734 2681.52Z" fill="#FAD7BE"/>
<path d="M958.734 2635.08V2658.3L935.518 2681.52L912.301 2704.73H889.084L958.734 2635.08Z" fill="#FAD7BE"/>
<path d="M935.518 2611.87H958.734L889.084 2681.52L865.867 2704.74V2681.52L935.518 2611.87Z" fill="#FAD7BE"/>
<path d="M1144.4 2519H958.699V2704.7H1144.4V2519Z" fill="#B6D0C4"/>
<path d="M1005.12 2519H1051.55L1005.12 2565.42L958.699 2611.85V2565.42L1005.12 2519Z" fill="#E5E5D7"/>
<path d="M1144.4 2658.28V2704.7H1097.97L1144.4 2658.28Z" fill="#E5E5D7"/>
<path d="M1144.4 2565.42V2611.85L1097.97 2658.27L1051.55 2704.7H1005.12L1144.4 2565.42Z" fill="#E5E5D7"/>
<path d="M1097.97 2519H1144.4L1005.12 2658.28L958.699 2704.7V2658.28L1097.97 2519Z" fill="#E5E5D7"/>
<path d="M1330.14 2519H1144.43V2704.71H1330.14V2519Z" fill="white"/>
<path d="M1237.3 2519H1144.43V2611.87H1237.3V2519Z" fill="#FE9DAE"/>
<path d="M1144.43 2519H1237.3L1144.43 2611.87V2519Z" fill="#FCE7D7"/>
<path d="M1330.17 2519H1237.3V2611.87H1330.17V2519Z" fill="#FECFCD"/>
<path d="M1237.3 2519C1261.93 2519 1285.55 2528.78 1302.97 2546.2C1320.38 2563.62 1330.17 2587.24 1330.17 2611.87H1237.3" fill="#FFC7D1"/>
<path d="M1237.3 2611.87H1144.43V2704.73H1237.3V2611.87Z" fill="#FE496A"/>
<path d="M1144.43 2611.87L1237.3 2704.73H1144.43V2611.87Z" fill="#FEF7F1"/>
<path d="M1330.17 2611.87H1237.3V2704.73H1330.17V2611.87Z" fill="#FCE2D0"/>
<path d="M1260.52 2611.87H1283.73L1260.52 2635.08L1237.3 2658.3V2635.08L1260.52 2611.87Z" fill="#8BB4A2"/>
<path d="M1330.17 2681.52V2704.73H1306.95L1330.17 2681.52Z" fill="#8BB4A2"/>
<path d="M1330.17 2635.08V2658.3L1306.95 2681.52L1283.73 2704.73H1260.52L1330.17 2635.08Z" fill="#8BB4A2"/>
<path d="M1306.95 2611.87H1330.17L1260.52 2681.52L1237.3 2704.74V2681.52L1306.95 2611.87Z" fill="#8BB4A2"/>
<path d="M1515.86 2519H1330.14V2704.71H1515.86V2519Z" fill="white"/>
<path d="M1423 2519H1330.13V2611.87H1423V2519Z" fill="#FFF6F6"/>
<path d="M1423 2519H1330.13V2611.87H1423V2519Z" fill="#F8F8F4"/>
<path d="M1515.87 2519H1423V2611.87H1515.87V2519Z" fill="#FEDFDE"/>
<path d="M1423 2519C1447.63 2519 1471.25 2528.78 1488.67 2546.2C1506.08 2563.62 1515.87 2587.24 1515.87 2611.87L1423 2519C1423 2543.63 1432.78 2567.25 1450.2 2584.67C1467.62 2602.08 1491.24 2611.87 1515.87 2611.87" fill="#FFFDFD"/>
<path d="M1423 2611.87H1330.13V2704.73H1423V2611.87Z" fill="#F6F6F1"/>
<path d="M1330.13 2611.87C1354.76 2611.87 1378.38 2621.65 1395.8 2639.07C1413.22 2656.48 1423 2680.1 1423 2704.73L1330.13 2611.87C1330.13 2624.06 1332.53 2636.14 1337.2 2647.41C1341.87 2658.67 1348.71 2668.91 1357.33 2677.53C1365.96 2686.16 1376.19 2693 1387.46 2697.67C1398.73 2702.33 1410.8 2704.73 1423 2704.73" fill="#F8F8F4"/>
<path d="M1515.87 2611.87H1423V2704.73H1515.87V2611.87Z" fill="#FFD5DD"/>
<path d="M1423 2704.73C1423 2680.1 1432.78 2656.48 1450.2 2639.07C1467.62 2621.65 1491.24 2611.87 1515.87 2611.87L1423 2704.73C1447.63 2704.73 1471.25 2694.95 1488.67 2677.53C1506.08 2660.12 1515.87 2636.5 1515.87 2611.87" fill="#A3C4B5"/>
<path d="M1701.57 2519H1515.87V2704.7H1701.57V2519Z" fill="#F9D0B3"/>
<path d="M1515.87 2704.7C1515.87 2655.45 1535.43 2608.22 1570.26 2573.39C1605.08 2538.56 1652.32 2519 1701.57 2519L1515.87 2704.7C1565.12 2704.7 1612.35 2685.13 1647.18 2650.31C1682 2615.48 1701.57 2568.25 1701.57 2519" fill="#F5F5EF"/>
<path d="M1887.27 2519H1701.57V2704.7H1887.27V2519Z" fill="#FAD9C0"/>
<path d="M1794.42 2519L1887.27 2611.85L1794.42 2704.7L1701.57 2611.85L1794.42 2519Z" fill="#FFFAFA"/>
<path d="M2073 2519H1887.3V2704.7H2073V2519Z" fill="#FAD4B8"/>
<path d="M1887.3 2519C1936.55 2519 1983.78 2538.56 2018.61 2573.39C2053.44 2608.22 2073 2655.45 2073 2704.7L1887.3 2519C1887.3 2568.25 1906.87 2615.48 1941.69 2650.31C1976.52 2685.13 2023.75 2704.7 2073 2704.7" fill="#FFF0EF"/>
<path d="M958.714 2704.71H773V2890.43H958.714V2704.71Z" fill="white"/>
<path d="M865.867 2704.7H773V2797.57H865.867V2704.7Z" fill="#FEF7F1"/>
<path d="M773 2797.57C773 2772.94 782.784 2749.32 800.2 2731.9C817.616 2714.48 841.237 2704.7 865.867 2704.7L773 2797.57C797.63 2797.57 821.251 2787.78 838.667 2770.37C856.083 2752.95 865.867 2729.33 865.867 2704.7" fill="#E3E3D4"/>
<path d="M958.734 2704.7H865.867V2797.57H958.734V2704.7Z" fill="#A6C6B8"/>
<path d="M912.301 2704.7L958.734 2751.13L912.301 2797.57L865.867 2751.13L912.301 2704.7Z" fill="#FE6E88"/>
<path d="M865.867 2797.57H773V2890.43H865.867V2797.57Z" fill="#B8D1C6"/>
<path d="M773 2890.43C773 2878.24 775.402 2866.16 780.069 2854.89C784.736 2843.63 791.577 2833.39 800.2 2824.77C808.824 2816.14 819.061 2809.3 830.328 2804.64C841.596 2799.97 853.672 2797.57 865.867 2797.57L773 2890.43C785.195 2890.43 797.272 2888.03 808.539 2883.36C819.806 2878.7 830.043 2871.86 838.667 2863.23C847.29 2854.61 854.131 2844.37 858.798 2833.11C863.465 2821.84 865.867 2809.76 865.867 2797.57" fill="#FCAAA7"/>
<path d="M958.734 2797.57H865.867V2890.43H958.734V2797.57Z" fill="#FE6E88"/>
<path d="M865.867 2797.57C865.867 2809.76 868.269 2821.84 872.936 2833.11C877.603 2844.37 884.444 2854.61 893.067 2863.23C901.691 2871.86 911.928 2878.7 923.196 2883.36C934.463 2888.03 946.539 2890.43 958.734 2890.43V2797.57" fill="#FEE0DF"/>
<path d="M1144.4 2704.7H958.699V2890.4H1144.4V2704.7Z" fill="#FAD7BE"/>
<path d="M1051.55 2704.7L1144.4 2797.55L1051.55 2890.4L958.699 2797.55L1051.55 2704.7Z" fill="#FAD7BD"/>
<path d="M1330.13 2704.7H1144.43V2890.4H1330.13V2704.7Z" fill="#FBDFCA"/>
<path d="M1144.43 2890.4C1144.43 2841.15 1164 2793.91 1198.82 2759.09C1233.65 2724.26 1280.88 2704.7 1330.13 2704.7L1144.43 2890.4C1193.68 2890.4 1240.92 2870.83 1275.74 2836.01C1310.57 2801.18 1330.13 2753.95 1330.13 2704.7" fill="#FFFBFA"/>
<path d="M1515.83 2704.7H1330.13V2890.4H1515.83V2704.7Z" fill="#8DB5A3"/>
<path d="M1330.13 2704.7H1515.83L1330.13 2890.4V2704.7Z" fill="#D6D6BF"/>
<path d="M1701.57 2704.7H1515.87V2890.4H1701.57V2704.7Z" fill="#A6C5B7"/>
<path d="M1515.87 2890.4C1565.12 2890.4 1612.35 2870.83 1647.18 2836.01C1682 2801.18 1701.57 2753.95 1701.57 2704.7H1515.87" fill="#FEE8E7"/>
<path d="M1887.27 2704.7H1701.57V2890.4H1887.27V2704.7Z" fill="#FFEDF0"/>
<path d="M1701.57 2704.7H1887.27L1701.57 2890.4V2704.7Z" fill="#FE6480"/>
<path d="M2073 2704.71H1887.29V2890.43H2073V2704.71Z" fill="white"/>
<path d="M1980.17 2704.7H1887.3V2797.57H1980.17V2704.7Z" fill="#FAD2B5"/>
<path d="M1887.3 2704.7C1911.93 2704.7 1935.55 2714.48 1952.97 2731.9C1970.38 2749.32 1980.17 2772.94 1980.17 2797.57L1887.3 2704.7C1887.3 2729.33 1897.08 2752.95 1914.5 2770.37C1931.92 2787.78 1955.54 2797.57 1980.17 2797.57" fill="#FFFCFC"/>
<path d="M2073 2704.7H1980.13V2797.57H2073V2704.7Z" fill="#FCE4D3"/>
<path d="M1980.13 2797.57C1980.13 2785.37 1982.53 2773.29 1987.2 2762.03C1991.87 2750.76 1998.71 2740.52 2007.33 2731.9C2015.96 2723.28 2026.19 2716.44 2037.46 2711.77C2048.73 2707.1 2060.8 2704.7 2073 2704.7L1980.13 2797.57C2004.76 2797.57 2028.38 2787.78 2045.8 2770.37C2063.22 2752.95 2073 2729.33 2073 2704.7" fill="#FCE2CF"/>
<path d="M1980.17 2797.57H1887.3V2890.43H1980.17V2797.57Z" fill="#F9CEAF"/>
<path d="M1887.3 2797.57H1980.17V2890.43L1887.3 2797.57Z" fill="#FDC0BE"/>
<path d="M2073 2797.57H1980.13V2890.43H2073V2797.57Z" fill="#D3E3DC"/>
<path d="M1980.13 2797.57H2073L1980.13 2890.43V2797.57Z" fill="#CFE0D8"/>
<path d="M958.714 2890.43H773V3076.14H958.714V2890.43Z" fill="white"/>
<path d="M865.867 2890.43H773V2983.3H865.867V2890.43Z" fill="#EBEBDF"/>
<path d="M773 2890.43H865.867V2983.3L773 2890.43Z" fill="#F8F8F3"/>
<path d="M958.734 2890.43H865.867V2983.3H958.734V2890.43Z" fill="#FBDEC9"/>
<path d="M865.867 2890.43H958.734L865.867 2983.3V2890.43Z" fill="#F9D0B2"/>
<path d="M865.867 2983.3H773V3076.17H865.867V2983.3Z" fill="#E7E7D9"/>
<path d="M819.434 2983.3L865.867 3029.73L819.434 3076.17L773 3029.73L819.434 2983.3Z" fill="#FCE8D9"/>
<path d="M958.734 2983.3H865.867V3076.17H958.734V2983.3Z" fill="#DDDDCA"/>
<path d="M958.734 2983.3V3076.17H865.867L958.734 2983.3Z" fill="#FDFDFC"/>
<path d="M1144.4 2890.43H958.699V3076.13H1144.4V2890.43Z" fill="#D9E7E0"/>
<path d="M958.699 3076.13C958.699 3026.88 978.264 2979.65 1013.09 2944.82C1047.91 2910 1095.15 2890.43 1144.4 2890.43V3076.13" fill="#FBDDC8"/>
<path d="M1330.13 2890.43H1144.43V3076.13H1330.13V2890.43Z" fill="#FEE1E0"/>
<path d="M1237.28 2890.43L1330.13 2983.28L1237.28 3076.13L1144.43 2983.28L1237.28 2890.43Z" fill="#F2F2EA"/>
<path d="M1515.83 2890.43H1330.13V3076.13H1515.83V2890.43Z" fill="#FFFBF9"/>
<path d="M1422.98 2890.43L1515.83 2983.28L1422.98 3076.13L1330.13 2983.28L1422.98 2890.43Z" fill="#CDCDB1"/>
<path d="M1701.57 2890.43H1515.86V3076.14H1701.57V2890.43Z" fill="white"/>
<path d="M1608.73 2890.43H1515.87V2983.3H1608.73V2890.43Z" fill="#FE9DAF"/>
<path d="M1608.73 2890.43V2983.3H1515.87L1608.73 2890.43Z" fill="#96BBAA"/>
<path d="M1701.57 2890.43H1608.7V2983.3H1701.57V2890.43Z" fill="#FDBEBC"/>
<path d="M1608.7 2983.3C1608.7 2958.67 1618.48 2935.05 1635.9 2917.63C1653.32 2900.22 1676.94 2890.43 1701.57 2890.43L1608.7 2983.3C1633.33 2983.3 1656.95 2973.52 1674.37 2956.1C1691.78 2938.68 1701.57 2915.06 1701.57 2890.43" fill="#FAD3B7"/>
<path d="M1608.73 2983.3H1515.87V3076.17H1608.73V2983.3Z" fill="#FEE4E3"/>
<path d="M1608.73 2983.3H1515.87V3076.17H1608.73V2983.3Z" fill="#FDF0E6"/>
<path d="M1701.57 2983.3H1608.7V3076.17H1701.57V2983.3Z" fill="#FCE9DA"/>
<path d="M1701.57 2983.3H1608.7V3076.17H1701.57V2983.3Z" fill="#FEFBF8"/>
<path d="M1887.27 2890.43H1701.57V3076.13H1887.27V2890.43Z" fill="#FFA2B3"/>
<path d="M1701.57 2890.43L1887.27 3076.13H1701.57V2890.43Z" fill="#E6E6D8"/>
<path d="M2073 2890.43H1887.3V3076.13H2073V2890.43Z" fill="#D6E4DE"/>
<path d="M1887.3 2890.43H2073V3076.13L1887.3 2890.43Z" fill="#F9CFB0"/>
<path d="M958.699 3076.13H773V3261.83H958.699V3076.13Z" fill="#FEE2E1"/>
<path d="M865.85 3076.13L958.699 3168.98L865.85 3261.83L773 3168.98L865.85 3076.13Z" fill="#EFEFE6"/>
<path d="M1144.43 3076.14H958.714V3261.86H1144.43V3076.14Z" fill="white"/>
<path d="M1051.57 3076.13H958.699V3169H1051.57V3076.13Z" fill="#FE5473"/>
<path d="M1051.57 3076.13H958.699V3169H1051.57V3076.13Z" fill="#C1D7CD"/>
<path d="M1144.43 3076.13H1051.57V3169H1144.43V3076.13Z" fill="#BAD2C7"/>
<path d="M1098 3076.13L1144.43 3122.57L1098 3169L1051.57 3122.57L1098 3076.13Z" fill="#FDC4C2"/>
<path d="M1051.57 3169H958.699V3261.87H1051.57V3169Z" fill="#FE8A9F"/>
<path d="M1051.57 3169H958.699V3261.87H1051.57V3169Z" fill="#FEF6F0"/>
<path d="M1144.43 3169H1051.57V3261.87H1144.43V3169Z" fill="#E3E3D3"/>
<path d="M1144.43 3169H1051.57V3261.87H1144.43V3169Z" fill="#FDEADD"/>
<path d="M1330.14 3076.14H1144.43V3261.86H1330.14V3076.14Z" fill="white"/>
<path d="M1237.3 3076.13H1144.43V3169H1237.3V3076.13Z" fill="#FE9CAE"/>
<path d="M1190.87 3076.13L1237.3 3122.57L1190.87 3169L1144.43 3122.57L1190.87 3076.13Z" fill="#FFEEF1"/>
<path d="M1330.17 3076.13H1237.3V3169H1330.17V3076.13Z" fill="#FFBFCB"/>
<path d="M1237.3 3169C1237.3 3156.8 1239.7 3144.73 1244.37 3133.46C1249.04 3122.19 1255.88 3111.96 1264.5 3103.33C1273.12 3094.71 1283.36 3087.87 1294.63 3083.2C1305.9 3078.53 1317.97 3076.13 1330.17 3076.13V3169" fill="#9DC0B0"/>
<path d="M1237.3 3169H1144.43V3261.87H1237.3V3169Z" fill="#F9F9F5"/>
<path d="M1237.3 3169H1144.43V3261.87H1237.3V3169Z" fill="#FE4668"/>
<path d="M1330.17 3169H1237.3V3261.87H1330.17V3169Z" fill="#FDEFE5"/>
<path d="M1237.3 3169L1330.17 3261.87H1237.3V3169Z" fill="#FECECD"/>
<path d="M1515.83 3076.13H1330.13V3261.83H1515.83V3076.13Z" fill="#FE98AA"/>
<path d="M1422.98 3076.13L1515.83 3168.98L1422.98 3261.83L1330.13 3168.98L1422.98 3076.13Z" fill="#FFC9D3"/>
<path d="M1701.57 3076.13H1515.87V3261.83H1701.57V3076.13Z" fill="#FE708A"/>
<path d="M1515.87 3076.13H1701.57V3261.83L1515.87 3076.13Z" fill="#FE6883"/>
<path d="M1887.27 3076.13H1701.57V3261.83H1887.27V3076.13Z" fill="#EFEFE6"/>
<path d="M1701.57 3261.83C1701.57 3212.58 1721.13 3165.35 1755.96 3130.52C1790.78 3095.7 1838.02 3076.13 1887.27 3076.13V3261.83" fill="#CDCDB0"/>
<path d="M2073 3076.13H1887.3V3261.83H2073V3076.13Z" fill="#DBE8E2"/>
<path d="M2073 3076.13H1887.3V3261.83H2073V3076.13Z" fill="#FAD7BD"/>
<path d="M958.699 3261.87H773V3447.57H958.699V3261.87Z" fill="#E3E3D4"/>
<path d="M865.85 3261.87L958.699 3354.72L865.85 3447.57L773 3354.72L865.85 3261.87Z" fill="#FAD8BF"/>
<path d="M1144.4 3261.87H958.699V3447.57H1144.4V3261.87Z" fill="#F4F4ED"/>
<path d="M1005.12 3261.87H1051.55L1005.12 3308.29L958.699 3354.72V3308.29L1005.12 3261.87Z" fill="#FED3D2"/>
<path d="M1144.4 3401.14V3447.57H1097.97L1144.4 3401.14Z" fill="#FED3D2"/>
<path d="M1144.4 3308.29V3354.72L1097.97 3401.14L1051.55 3447.57H1005.12L1144.4 3308.29Z" fill="#FED3D2"/>
<path d="M1097.97 3261.87H1144.4L1005.12 3401.14L958.699 3447.57V3401.14L1097.97 3261.87Z" fill="#FED3D2"/>
<path d="M1330.13 3261.87H1144.43V3447.57H1330.13V3261.87Z" fill="#D6D6BF"/>
<path d="M1190.86 3261.87H1237.28L1190.86 3308.29L1144.43 3354.72V3308.29L1190.86 3261.87Z" fill="#EAF1EE"/>
<path d="M1330.13 3401.14V3447.57H1283.71L1330.13 3401.14Z" fill="#EAF1EE"/>
<path d="M1330.13 3308.29V3354.72L1283.71 3401.14L1237.28 3447.57H1190.86L1330.13 3308.29Z" fill="#EAF1EE"/>
<path d="M1283.71 3261.87H1330.13L1190.86 3401.14L1144.43 3447.57V3401.14L1283.71 3261.87Z" fill="#EAF1EE"/>
<path d="M1515.86 3261.86H1330.14V3447.57H1515.86V3261.86Z" fill="white"/>
<path d="M1423 3261.87H1330.13V3354.73H1423V3261.87Z" fill="#FCE7D8"/>
<path d="M1330.13 3261.87H1423V3354.73L1330.13 3261.87Z" fill="#FDBDBB"/>
<path d="M1515.87 3261.87H1423V3354.73H1515.87V3261.87Z" fill="#E4E4D4"/>
<path d="M1515.87 3261.87H1423V3354.73H1515.87V3261.87Z" fill="#CDCDB0"/>
<path d="M1423 3354.7H1330.13V3447.57H1423V3354.7Z" fill="#FEF5EF"/>
<path d="M1353.35 3354.7H1376.57L1353.35 3377.92L1330.13 3401.13V3377.92L1353.35 3354.7Z" fill="#FFA2B3"/>
<path d="M1423 3424.35V3447.57H1399.78L1423 3424.35Z" fill="#FFA2B3"/>
<path d="M1423 3377.92V3401.13L1399.78 3424.35L1376.57 3447.57H1353.35L1423 3377.92Z" fill="#FFA2B3"/>
<path d="M1399.78 3354.7H1423L1353.35 3424.35L1330.13 3447.57V3424.35L1399.78 3354.7Z" fill="#FFA2B3"/>
<path d="M1515.87 3354.7H1423V3447.57H1515.87V3354.7Z" fill="#FBDBC4"/>
<path d="M1469.43 3354.7L1515.87 3401.13L1469.43 3447.57L1423 3401.13L1469.43 3354.7Z" fill="#FDEFE6"/>
<path d="M1701.57 3261.87H1515.87V3447.57H1701.57V3261.87Z" fill="#FFFEFE"/>
<path d="M1701.57 3261.87H1515.87V3447.57H1701.57V3261.87Z" fill="#86B19E"/>
<path d="M1887.27 3261.87H1701.57V3447.57H1887.27V3261.87Z" fill="#FE99AB"/>
<path d="M1794.42 3261.87L1887.27 3354.72L1794.42 3447.57L1701.57 3354.72L1794.42 3261.87Z" fill="#A7C6B8"/>
<path d="M2073 3261.87H1887.3V3447.57H2073V3261.87Z" fill="#D8E6E0"/>
<path d="M1887.3 3447.57C1887.3 3423.18 1892.1 3399.03 1901.44 3376.5C1910.77 3353.97 1924.45 3333.5 1941.69 3316.26C1958.93 3299.01 1979.41 3285.34 2001.94 3276C2024.47 3266.67 2048.61 3261.87 2073 3261.87L1887.3 3447.57C1936.55 3447.57 1983.78 3428 2018.61 3393.18C2053.44 3358.35 2073 3311.12 2073 3261.87" fill="#FED9D8"/>
<path d="M958.699 3447.57H773V3633.27H958.699V3447.57Z" fill="#B6D0C4"/>
<path d="M773 3447.57C822.251 3447.57 869.484 3467.13 904.309 3501.96C939.135 3536.78 958.699 3584.02 958.699 3633.27L773 3447.57C773 3496.82 792.565 3544.05 827.39 3578.88C862.215 3613.7 909.449 3633.27 958.699 3633.27" fill="#EBEBDF"/>
<path d="M1144.4 3447.57H958.699V3633.27H1144.4V3447.57Z" fill="#FAD3B7"/>
<path d="M958.699 3633.27C958.699 3584.02 978.264 3536.78 1013.09 3501.96C1047.91 3467.13 1095.15 3447.57 1144.4 3447.57L958.699 3633.27C1007.95 3633.27 1055.18 3613.7 1090.01 3578.88C1124.83 3544.05 1144.4 3496.82 1144.4 3447.57" fill="#FCE8DA"/>
<path d="M1330.14 3447.57H1144.43V3633.28H1330.14V3447.57Z" fill="white"/>
<path d="M1237.3 3447.57H1144.43V3540.43H1237.3V3447.57Z" fill="#98BDAC"/>
<path d="M1167.65 3447.57H1190.87L1167.65 3470.78L1144.43 3494V3470.78L1167.65 3447.57Z" fill="#FED1D0"/>
<path d="M1237.3 3517.22V3540.43H1214.08L1237.3 3517.22Z" fill="#FED1D0"/>
<path d="M1237.3 3470.78V3494L1214.08 3517.22L1190.87 3540.43H1167.65L1237.3 3470.78Z" fill="#FED1D0"/>
<path d="M1214.08 3447.57H1237.3L1167.65 3517.22L1144.43 3540.43V3517.22L1214.08 3447.57Z" fill="#FED1D0"/>
<path d="M1330.17 3447.57H1237.3V3540.43H1330.17V3447.57Z" fill="#C9C9AB"/>
<path d="M1330.17 3447.57H1237.3V3540.43H1330.17V3447.57Z" fill="#FCA5A3"/>
<path d="M1237.3 3540.43H1144.43V3633.3H1237.3V3540.43Z" fill="#FBDCC5"/>
<path d="M1144.43 3540.43H1237.3L1144.43 3633.3V3540.43Z" fill="#FFF6F8"/>
<path d="M1330.17 3540.43H1237.3V3633.3H1330.17V3540.43Z" fill="#CDDFD7"/>
<path d="M1237.3 3540.43C1261.93 3540.43 1285.55 3550.22 1302.97 3567.63C1320.38 3585.05 1330.17 3608.67 1330.17 3633.3L1237.3 3540.43C1237.3 3565.06 1247.09 3588.68 1264.5 3606.1C1281.92 3623.52 1305.54 3633.3 1330.17 3633.3" fill="#F7F7F3"/>
<path d="M1515.86 3447.57H1330.14V3633.28H1515.86V3447.57Z" fill="white"/>
<path d="M1423 3447.57H1330.13V3540.43H1423V3447.57Z" fill="#FE7C94"/>
<path d="M1423 3447.57H1330.13V3540.43H1423V3447.57Z" fill="#BAD2C7"/>
<path d="M1515.87 3447.57H1423V3540.43H1515.87V3447.57Z" fill="#FED6D4"/>
<path d="M1515.87 3447.57H1423V3540.43H1515.87V3447.57Z" fill="#D4D4BB"/>
<path d="M1423 3540.43H1330.13V3633.3H1423V3540.43Z" fill="#FCA3A1"/>
<path d="M1353.35 3540.43H1376.57L1353.35 3563.65L1330.13 3586.87V3563.65L1353.35 3540.43Z" fill="#FE9EB0"/>
<path d="M1423 3610.08V3633.3H1399.78L1423 3610.08Z" fill="#FE9EB0"/>
<path d="M1423 3563.65V3586.87L1399.78 3610.08L1376.57 3633.3H1353.35L1423 3563.65Z" fill="#FE9EB0"/>
<path d="M1399.78 3540.43H1423L1353.35 3610.08L1330.13 3633.3V3610.08L1399.78 3540.43Z" fill="#FE9EB0"/>
<path d="M1515.87 3540.43H1423V3633.3H1515.87V3540.43Z" fill="#FFF1F4"/>
<path d="M1469.43 3540.43L1515.87 3586.87L1469.43 3633.3L1423 3586.87L1469.43 3540.43Z" fill="#D2D2B8"/>
<path d="M1701.57 3447.57H1515.87V3633.27H1701.57V3447.57Z" fill="#FFF9F9"/>
<path d="M1562.29 3447.57H1608.72L1562.29 3493.99L1515.87 3540.42V3493.99L1562.29 3447.57Z" fill="#FBE1CD"/>
<path d="M1701.57 3586.84V3633.27H1655.14L1701.57 3586.84Z" fill="#FBE1CD"/>
<path d="M1701.57 3493.99V3540.42L1655.14 3586.84L1608.72 3633.27H1562.29L1701.57 3493.99Z" fill="#FBE1CD"/>
<path d="M1655.14 3447.57H1701.57L1562.29 3586.84L1515.87 3633.27V3586.84L1655.14 3447.57Z" fill="#FBE1CD"/>
<path d="M1887.27 3447.57H1701.57V3633.27H1887.27V3447.57Z" fill="#FE6E88"/>
<path d="M1701.57 3447.57H1887.27L1701.57 3633.27V3447.57Z" fill="#CCCCB0"/>
<path d="M2073 3447.57H1887.29V3633.28H2073V3447.57Z" fill="white"/>
<path d="M1980.17 3447.57H1887.3V3540.43H1980.17V3447.57Z" fill="#FDC0BE"/>
<path d="M1887.3 3447.57H1980.17V3540.43L1887.3 3447.57Z" fill="#D4D4BB"/>
<path d="M2073 3447.57H1980.13V3540.43H2073V3447.57Z" fill="#FFFAFA"/>
<path d="M1980.13 3447.57C2004.76 3447.57 2028.38 3457.35 2045.8 3474.77C2063.22 3492.18 2073 3515.8 2073 3540.43L1980.13 3447.57C1980.13 3459.76 1982.53 3471.84 1987.2 3483.11C1991.87 3494.37 1998.71 3504.61 2007.33 3513.23C2015.96 3521.86 2026.19 3528.7 2037.46 3533.36C2048.73 3538.03 2060.8 3540.43 2073 3540.43" fill="#9ABEAE"/>
<path d="M1980.17 3540.43H1887.3V3633.3H1980.17V3540.43Z" fill="#EAEADE"/>
<path d="M1887.3 3540.43C1887.3 3565.06 1897.08 3588.68 1914.5 3606.1C1931.92 3623.52 1955.54 3633.3 1980.17 3633.3V3540.43" fill="#FE879C"/>
<path d="M2073 3540.43H1980.13V3633.3H2073V3540.43Z" fill="#FEE0DF"/>
<path d="M1980.13 3633.3C1980.13 3621.11 1982.53 3609.03 1987.2 3597.76C1991.87 3586.49 1998.71 3576.26 2007.33 3567.63C2015.96 3559.01 2026.19 3552.17 2037.46 3547.5C2048.73 3542.84 2060.8 3540.43 2073 3540.43V3633.3" fill="#FEEBEB"/>
<path d="M958.714 3633.29H773V3819H958.714V3633.29Z" fill="white"/>
<path d="M865.867 3633.3H773V3726.17H865.867V3633.3Z" fill="#FE8DA1"/>
<path d="M865.867 3633.3V3726.17H773L865.867 3633.3Z" fill="#FCA4A2"/>
<path d="M958.734 3633.3H865.867V3726.17H958.734V3633.3Z" fill="#D7E5DF"/>
<path d="M912.301 3633.3L958.734 3679.73L912.301 3726.17L865.867 3679.73L912.301 3633.3Z" fill="#93B9A8"/>
<path d="M865.867 3726.13H773V3819H865.867V3726.13Z" fill="#FDFDFB"/>
<path d="M819.434 3726.13L865.867 3772.57L819.434 3819L773 3772.57L819.434 3726.13Z" fill="#FCAAA8"/>
<path d="M958.734 3726.13H865.867V3819H958.734V3726.13Z" fill="#FDB8B6"/>
<path d="M865.867 3819C890.497 3819 914.118 3809.22 931.534 3791.8C948.95 3774.38 958.734 3750.76 958.734 3726.13H865.867" fill="#F1F1EA"/>
<path d="M1144.4 3633.3H958.699V3819H1144.4V3633.3Z" fill="#FCA9A6"/>
<path d="M1144.4 3633.3H958.699V3819H1144.4V3633.3Z" fill="#FDC1BF"/>
<path d="M1330.13 3633.3H1144.43V3819H1330.13V3633.3Z" fill="#FEF3EC"/>
<path d="M1144.43 3633.3L1330.13 3819H1144.43V3633.3Z" fill="#FAFAF7"/>
<path d="M1515.83 3633.3H1330.13V3819H1515.83V3633.3Z" fill="#96BBAA"/>
<path d="M1422.98 3633.3L1515.83 3726.15L1422.98 3819L1330.13 3726.15L1422.98 3633.3Z" fill="#FDF2E9"/>
<path d="M1701.57 3633.3H1515.87V3819H1701.57V3633.3Z" fill="#F3F3EC"/>
<path d="M1608.72 3633.3L1701.57 3726.15L1608.72 3819L1515.87 3726.15L1608.72 3633.3Z" fill="#D1D1B7"/>
<path d="M1887.27 3633.3H1701.57V3819H1887.27V3633.3Z" fill="#F9D1B3"/>
<path d="M1701.57 3633.3C1701.57 3682.55 1721.13 3729.78 1755.96 3764.61C1790.78 3799.44 1838.02 3819 1887.27 3819V3633.3" fill="#FEF9F6"/>
<path d="M2073 3633.29H1887.29V3819H2073V3633.29Z" fill="white"/>
<path d="M1980.17 3633.3H1887.3V3726.17H1980.17V3633.3Z" fill="#FCA09D"/>
<path d="M1980.17 3633.3V3726.17H1887.3L1980.17 3633.3Z" fill="#CBDED5"/>
<path d="M2073 3633.3H1980.13V3726.17H2073V3633.3Z" fill="#FDBFBD"/>
<path d="M1980.13 3726.17C2004.76 3726.17 2028.38 3716.38 2045.8 3698.97C2063.22 3681.55 2073 3657.93 2073 3633.3H1980.13" fill="#E1E1D0"/>
<path d="M1980.17 3726.13H1887.3V3819H1980.17V3726.13Z" fill="#FFA6B6"/>
<path d="M1887.3 3726.13C1911.93 3726.13 1935.55 3735.92 1952.97 3753.33C1970.38 3770.75 1980.17 3794.37 1980.17 3819L1887.3 3726.13C1887.3 3750.76 1897.08 3774.38 1914.5 3791.8C1931.92 3809.22 1955.54 3819 1980.17 3819" fill="#FBDEC9"/>
<path d="M2073 3726.13H1980.13V3819H2073V3726.13Z" fill="#FEDCDB"/>
<path d="M2003.35 3726.13H2026.57L2003.35 3749.35L1980.13 3772.57V3749.35L2003.35 3726.13Z" fill="#B1CDC0"/>
<path d="M2073 3795.78V3819H2049.78L2073 3795.78Z" fill="#B1CDC0"/>
<path d="M2073 3749.35V3772.57L2049.78 3795.78L2026.57 3819H2003.35L2073 3749.35Z" fill="#B1CDC0"/>
<path d="M2049.78 3726.13H2073L2003.35 3795.78L1980.13 3819V3795.78L2049.78 3726.13Z" fill="#B1CDC0"/>
</g>
<defs>
<clipPath id="clip0_888_12680">
<rect width="1300" height="2600" fill="white" transform="translate(773 1219)"/>
</clipPath>
</defs>
</svg>
