<?xml version="1.0" standalone="no"?><svg xmlns:xlink="http://www.w3.org/1999/xlink" xmlns="http://www.w3.org/2000/svg" viewBox="0 0 1000 1285.7142857142858" preserveAspectRatio="xMaxYMax slice"><g transform="scale(1.7857142857142858)"><rect x="0" y="0" width="560" height="720" fill="#ffffff"/><rect x="0" y="0" width="80" height="80" fill="#bdebf4"/><g transform="translate(0,0) scale(4) rotate(0)"><rect width="2" height="20" fill="#f7f8f2"/><rect x="4" width="2" height="20" fill="#f7f8f2"/><rect x="8" width="2" height="20" fill="#f7f8f2"/><rect x="12" width="2" height="20" fill="#f7f8f2"/><rect x="16" width="2" height="20" fill="#f7f8f2"/></g><rect x="80" y="0" width="80" height="80" fill="#d8f3f9"/><g transform="translate(80,0) scale(4) rotate(0)"><rect width="20" height="2" fill="#fac9a2"/><rect y="4" width="20" height="2" fill="#fac9a2"/><rect y="8" width="20" height="2" fill="#fac9a2"/><rect y="12" width="20" height="2" fill="#fac9a2"/><rect y="16" width="20" height="2" fill="#fac9a2"/></g><rect x="160" y="0" width="80" height="80" fill="#ffffff"/><rect x="160" y="0" width="40" height="40" fill="#bce3e1"/><g transform="translate(160,0) scale(2) rotate(0)"><rect width="20" height="2" fill="#f6a05d"/><rect y="4" width="20" height="2" fill="#f6a05d"/><rect y="8" width="20" height="2" fill="#f6a05d"/><rect y="12" width="20" height="2" fill="#f6a05d"/><rect y="16" width="20" height="2" fill="#f6a05d"/></g><rect x="200" y="0" width="40" height="40" fill="#fbd8bc"/><g transform="translate(200,0) scale(2) rotate(0)"><path d="M5 0H10L5 5L0 10V5L5 0Z" fill="#a0e2f0"/><path d="M20 15V20H15L20 15Z" fill="#a0e2f0"/><path d="M20 5V10L15 15L10 20H5L20 5Z" fill="#a0e2f0"/><path d="M15 0H20L5 15.0002L0 20.0002V15.0002L15 0Z" fill="#a0e2f0"/></g><rect x="160" y="40" width="40" height="40" fill="#fdcca9"/><g transform="translate(160,40) scale(2) rotate(0)"><path d="M10 0H20L0 20V10L10 0Z" fill="#fde8d8"/><path d="M20 10V20H10L20 10Z" fill="#fde8d8"/></g><rect x="200" y="40" width="40" height="40" fill="#fed3b5"/><g transform="translate(200,40) scale(2) rotate(0)"><path d="M13 0H20V7L7 20H0V13L13 0Z" fill="#fb852f"/></g><rect x="240" y="0" width="80" height="80" fill="#c8e9e7"/><g transform="translate(240,0) scale(4) rotate(0)"><path d="M13 0H20V7L7 20H0V13L13 0Z" fill="#97e0ee"/></g><rect x="320" y="0" width="80" height="80" fill="#fedfc9"/><g transform="translate(320,0) scale(4) rotate(0)"><path d="M10 5L5 0L0 5L5 10L0 15L5 20L10 15L15 20L20 15L15 10L20 5L15 0L10 5Z" fill="#fef8f2"/></g><rect x="400" y="0" width="80" height="80" fill="#74d5e9"/><g transform="translate(400,0) scale(4) rotate(0)"><rect width="20" height="2" fill="#f48c3a"/><rect y="4" width="20" height="2" fill="#f48c3a"/><rect y="8" width="20" height="2" fill="#f48c3a"/><rect y="12" width="20" height="2" fill="#f48c3a"/><rect y="16" width="20" height="2" fill="#f48c3a"/></g><rect x="480" y="0" width="80" height="80" fill="#ffffff"/><rect x="480" y="0" width="40" height="40" fill="#ddf5fa"/><path d="M 480 0 A 40 40 0 0 1  520 40 L 480 0 A 40 40 0 0 0 520 40" fill="#fedfc8"/><rect x="520" y="0" width="40" height="40" fill="#edf8f7"/><g transform="translate(520,0) scale(2) rotate(0)"><rect width="2" height="20" fill="#fdfefc"/><rect x="4" width="2" height="20" fill="#fdfefc"/><rect x="8" width="2" height="20" fill="#fdfefc"/><rect x="12" width="2" height="20" fill="#fdfefc"/><rect x="16" width="2" height="20" fill="#fdfefc"/></g><rect x="480" y="40" width="40" height="40" fill="#e8f6f5"/><circle cx="500" cy="60" r="20" fill="#d3f2f8"/><rect x="520" y="40" width="40" height="40" fill="#f5fbfa"/><polygon points="520,40 560,40 560,80" fill="#f5fbfa"/><rect x="0" y="80" width="80" height="80" fill="#ffffff"/><rect x="0" y="80" width="40" height="40" fill="#f0f2e7"/><circle cx="20" cy="100" r="20" fill="#fdc399"/><rect x="40" y="80" width="40" height="40" fill="#bae3e0"/><g transform="translate(40,80) scale(2) rotate(0)"><rect width="2" height="20" fill="#e2e6cf"/><rect x="4" width="2" height="20" fill="#e2e6cf"/><rect x="8" width="2" height="20" fill="#e2e6cf"/><rect x="12" width="2" height="20" fill="#e2e6cf"/><rect x="16" width="2" height="20" fill="#e2e6cf"/></g><rect x="0" y="120" width="40" height="40" fill="#f6a96c"/><g transform="translate(0,120) scale(2) rotate(0)"><rect width="2" height="20" fill="#fce1cc"/><rect x="4" width="2" height="20" fill="#fce1cc"/><rect x="8" width="2" height="20" fill="#fce1cc"/><rect x="12" width="2" height="20" fill="#fce1cc"/><rect x="16" width="2" height="20" fill="#fce1cc"/></g><rect x="40" y="120" width="40" height="40" fill="#fca464"/><g transform="translate(40,120) scale(2) rotate(0)"><rect width="2" height="20" fill="#e3e7d2"/><rect x="4" width="2" height="20" fill="#e3e7d2"/><rect x="8" width="2" height="20" fill="#e3e7d2"/><rect x="12" width="2" height="20" fill="#e3e7d2"/><rect x="16" width="2" height="20" fill="#e3e7d2"/></g><rect x="80" y="80" width="80" height="80" fill="#ffffff"/><rect x="80" y="80" width="40" height="40" fill="#e8ebd9"/><polygon points="80,80 120,80 80,120" fill="#f6f7f0"/><rect x="120" y="80" width="40" height="40" fill="#a7dbd8"/><g transform="translate(120,80) scale(2) rotate(0)"><path d="M10 5L5 0L0 5L5 10L0 15L5 20L10 15L15 20L20 15L15 10L20 5L15 0L10 5Z" fill="#92deee"/></g><rect x="80" y="120" width="40" height="40" fill="#a4e4f1"/><path d="M 80 160 A 40 40 0 0 1  120 120 L 120 160" fill="#fca160"/><rect x="120" y="120" width="40" height="40" fill="#edefe1"/><circle cx="140" cy="140" r="20" fill="#f48f3f"/><rect x="160" y="80" width="80" height="80" fill="#e5f4f3"/><g transform="translate(160,80) scale(4) rotate(0)"><path d="M10 5L5 0L0 5L5 10L0 15L5 20L10 15L15 20L20 15L15 10L20 5L15 0L10 5Z" fill="#d5f2f8"/></g><rect x="240" y="80" width="80" height="80" fill="#fb8c3b"/><g transform="translate(240,80) scale(4) rotate(0)"><rect width="20" height="2" fill="#fffefe"/><rect y="4" width="20" height="2" fill="#fffefe"/><rect y="8" width="20" height="2" fill="#fffefe"/><rect y="12" width="20" height="2" fill="#fffefe"/><rect y="16" width="20" height="2" fill="#fffefe"/></g><rect x="320" y="80" width="80" height="80" fill="#fdc196"/><g transform="translate(320,80) scale(4) rotate(0)"><path d="M13 0H20V7L7 20H0V13L13 0Z" fill="#fb8937"/></g><rect x="400" y="80" width="80" height="80" fill="#f5f6ee"/><g transform="translate(400,80) scale(4) rotate(0)"><path d="M10 0H20L0 20V10L10 0Z" fill="#f7ae74"/><path d="M20 10V20H10L20 10Z" fill="#f7ae74"/></g><rect x="480" y="80" width="80" height="80" fill="#d1eceb"/><path d="M 480 160 A 80 80 0 0 0 560 80 L 480 80" fill="#effafc"/><rect x="0" y="160" width="80" height="80" fill="#ffffff"/><rect x="0" y="160" width="40" height="40" fill="#fbd7ba"/><g transform="translate(0,160) scale(2) rotate(0)"><path d="M5 0H10L5 5L0 10V5L5 0Z" fill="#e1e5ce"/><path d="M20 15V20H15L20 15Z" fill="#e1e5ce"/><path d="M20 5V10L15 15L10 20H5L20 5Z" fill="#e1e5ce"/><path d="M15 0H20L5 15.0002L0 20.0002V15.0002L15 0Z" fill="#e1e5ce"/></g><rect x="40" y="160" width="40" height="40" fill="#eef8f8"/><g transform="translate(40,160) scale(2) rotate(0)"><path d="M10 5L5 0L0 5L5 10L0 15L5 20L10 15L15 20L20 15L15 10L20 5L15 0L10 5Z" fill="#f0f2e7"/></g><rect x="0" y="200" width="40" height="40" fill="#a7e5f1"/><g transform="translate(0,200) scale(2) rotate(0)"><path fill-rule="evenodd" clip-rule="evenodd" d="M10 20C15.5228 20 20 15.5228 20 10C20 4.47715 15.5228 0 10 0C4.47715 0 0 4.47715 0 10C0 15.5228 4.47715 20 10 20ZM10 17C13.866 17 17 13.866 17 10C17 6.13401 13.866 3 10 3C6.13401 3 3 6.13401 3 10C3 13.866 6.13401 17 10 17Z" fill="#fee7d7"/></g><rect x="40" y="200" width="40" height="40" fill="#f59f5a"/><g transform="translate(40,200) scale(2) rotate(0)"><path fill-rule="evenodd" clip-rule="evenodd" d="M10 20C15.5228 20 20 15.5228 20 10C20 4.47715 15.5228 0 10 0C4.47715 0 0 4.47715 0 10C0 15.5228 4.47715 20 10 20ZM10 17C13.866 17 17 13.866 17 10C17 6.13401 13.866 3 10 3C6.13401 3 3 6.13401 3 10C3 13.866 6.13401 17 10 17Z" fill="#fafdfe"/></g><rect x="80" y="160" width="80" height="80" fill="#b3e0dd"/><g transform="translate(80,160) scale(4) rotate(0)"><path d="M5 0H10L5 5L0 10V5L5 0Z" fill="#a2e3f0"/><path d="M20 15V20H15L20 15Z" fill="#a2e3f0"/><path d="M20 5V10L15 15L10 20H5L20 5Z" fill="#a2e3f0"/><path d="M15 0H20L5 15.0002L0 20.0002V15.0002L15 0Z" fill="#a2e3f0"/></g><rect x="160" y="160" width="80" height="80" fill="#dbf0ef"/><g transform="translate(160,160) scale(4) rotate(0)"><rect width="2" height="20" fill="#fef5ee"/><rect x="4" width="2" height="20" fill="#fef5ee"/><rect x="8" width="2" height="20" fill="#fef5ee"/><rect x="12" width="2" height="20" fill="#fef5ee"/><rect x="16" width="2" height="20" fill="#fef5ee"/></g><rect x="240" y="160" width="80" height="80" fill="#ffffff"/><rect x="240" y="160" width="40" height="40" fill="#9fe2f0"/><g transform="translate(240,160) scale(2) rotate(0)"><path fill-rule="evenodd" clip-rule="evenodd" d="M10 20C15.5228 20 20 15.5228 20 10C20 4.47715 15.5228 0 10 0C4.47715 0 0 4.47715 0 10C0 15.5228 4.47715 20 10 20ZM10 17C13.866 17 17 13.866 17 10C17 6.13401 13.866 3 10 3C6.13401 3 3 6.13401 3 10C3 13.866 6.13401 17 10 17Z" fill="#f59950"/></g><rect x="280" y="160" width="40" height="40" fill="#fdfefe"/><g transform="translate(280,160) scale(2) rotate(0)"><path d="M10 5L5 0L0 5L5 10L0 15L5 20L10 15L15 20L20 15L15 10L20 5L15 0L10 5Z" fill="#afdedc"/></g><rect x="240" y="200" width="40" height="40" fill="#fed7bb"/><g transform="translate(240,200) scale(2) rotate(0)"><path d="M5 0H10L5 5L0 10V5L5 0Z" fill="#fb9347"/><path d="M20 15V20H15L20 15Z" fill="#fb9347"/><path d="M20 5V10L15 15L10 20H5L20 5Z" fill="#fb9347"/><path d="M15 0H20L5 15.0002L0 20.0002V15.0002L15 0Z" fill="#fb9347"/></g><rect x="280" y="200" width="40" height="40" fill="#c0e5e3"/><circle cx="300" cy="220" r="20" fill="#f8f9f4"/><rect x="320" y="160" width="80" height="80" fill="#e7ead8"/><g transform="translate(320,160) scale(4) rotate(0)"><path fill-rule="evenodd" clip-rule="evenodd" d="M10 20C15.5228 20 20 15.5228 20 10C20 4.47715 15.5228 0 10 0C4.47715 0 0 4.47715 0 10C0 15.5228 4.47715 20 10 20ZM10 17C13.866 17 17 13.866 17 10C17 6.13401 13.866 3 10 3C6.13401 3 3 6.13401 3 10C3 13.866 6.13401 17 10 17Z" fill="#fc9851"/></g><rect x="400" y="160" width="80" height="80" fill="#e0f6fa"/><circle cx="440" cy="200" r="40" fill="#f59c55"/><rect x="480" y="160" width="80" height="80" fill="#d0ecea"/><g transform="translate(480,160) scale(4) rotate(0)"><rect width="2" height="20" fill="#fc9b55"/><rect x="4" width="2" height="20" fill="#fc9b55"/><rect x="8" width="2" height="20" fill="#fc9b55"/><rect x="12" width="2" height="20" fill="#fc9b55"/><rect x="16" width="2" height="20" fill="#fc9b55"/></g><rect x="0" y="240" width="80" height="80" fill="#fb8732"/><g transform="translate(0,240) scale(4) rotate(0)"><path d="M10 5L5 0L0 5L5 10L0 15L5 20L10 15L15 20L20 15L15 10L20 5L15 0L10 5Z" fill="#c6e8e6"/></g><rect x="80" y="240" width="80" height="80" fill="#87dbec"/><path d="M 80 240 A 80 80 0 0 1  160 320 L 80 240 A 80 80 0 0 0 160 320" fill="#f49448"/><rect x="160" y="240" width="80" height="80" fill="#e4e7d2"/><g transform="translate(160,240) scale(4) rotate(0)"><path fill-rule="evenodd" clip-rule="evenodd" d="M10 20C15.5228 20 20 15.5228 20 10C20 4.47715 15.5228 0 10 0C4.47715 0 0 4.47715 0 10C0 15.5228 4.47715 20 10 20ZM10 17C13.866 17 17 13.866 17 10C17 6.13401 13.866 3 10 3C6.13401 3 3 6.13401 3 10C3 13.866 6.13401 17 10 17Z" fill="#daf0ef"/></g><rect x="240" y="240" width="80" height="80" fill="#eff1e5"/><polygon points="240,240 320,240 240,320" fill="#fff9f5"/><rect x="320" y="240" width="80" height="80" fill="#f59e5a"/><polygon points="400,240 400,320 320,320" fill="#e9f6f5"/><rect x="400" y="240" width="80" height="80" fill="#c2e6e4"/><g transform="translate(400,240) scale(4) rotate(0)"><path fill-rule="evenodd" clip-rule="evenodd" d="M10 20C15.5228 20 20 15.5228 20 10C20 4.47715 15.5228 0 10 0C4.47715 0 0 4.47715 0 10C0 15.5228 4.47715 20 10 20ZM10 17C13.866 17 17 13.866 17 10C17 6.13401 13.866 3 10 3C6.13401 3 3 6.13401 3 10C3 13.866 6.13401 17 10 17Z" fill="#b5e9f3"/></g><rect x="480" y="240" width="80" height="80" fill="#fefefe"/><path d="M 480 320 A 80 80 0 0 1  560 240 L 480 320 A 80 80 0 0 0 560 240" fill="#b8e2df"/><rect x="0" y="320" width="80" height="80" fill="#f8bb8b"/><g transform="translate(0,320) scale(4) rotate(0)"><path d="M5 0H10L5 5L0 10V5L5 0Z" fill="#e4f4f3"/><path d="M20 15V20H15L20 15Z" fill="#e4f4f3"/><path d="M20 5V10L15 15L10 20H5L20 5Z" fill="#e4f4f3"/><path d="M15 0H20L5 15.0002L0 20.0002V15.0002L15 0Z" fill="#e4f4f3"/></g><rect x="80" y="320" width="80" height="80" fill="#fdcfae"/><g transform="translate(80,320) scale(4) rotate(0)"><path d="M13 0H20V7L7 20H0V13L13 0Z" fill="#e6e9d6"/></g><rect x="160" y="320" width="80" height="80" fill="#fbd6ba"/><g transform="translate(160,320) scale(4) rotate(0)"><path d="M5 0H10L5 5L0 10V5L5 0Z" fill="#f0fafd"/><path d="M20 15V20H15L20 15Z" fill="#f0fafd"/><path d="M20 5V10L15 15L10 20H5L20 5Z" fill="#f0fafd"/><path d="M15 0H20L5 15.0002L0 20.0002V15.0002L15 0Z" fill="#f0fafd"/></g><rect x="240" y="320" width="80" height="80" fill="#fed3b5"/><g transform="translate(240,320) scale(4) rotate(0)"><path d="M13 0H20V7L7 20H0V13L13 0Z" fill="#fdeadb"/></g><rect x="320" y="320" width="80" height="80" fill="#ffffff"/><rect x="320" y="320" width="40" height="40" fill="#f9be8f"/><polygon points="320,320 360,320 360,360" fill="#e5f7fb"/><rect x="360" y="320" width="40" height="40" fill="#d3edeb"/><rect x="360" y="320" width="40" height="40" fill="#f38a37"/><rect x="320" y="360" width="40" height="40" fill="#facda9"/><path d="M 320 400 A 40 40 0 0 0 360 360 L 320 360" fill="#96dfee"/><rect x="360" y="360" width="40" height="40" fill="#f7ac70"/><path d="M 360 360 A 40 40 0 0 1  400 400 L 360 360 A 40 40 0 0 0 400 400" fill="#bce4e2"/><rect x="400" y="320" width="80" height="80" fill="#ffffff"/><rect x="400" y="320" width="40" height="40" fill="#fad0af"/><polygon points="400,320 440,320 400,360" fill="#99e0ef"/><rect x="440" y="320" width="40" height="40" fill="#e3e6d0"/><path d="M 440 360 A 40 40 0 0 1  480 320 L 440 360 A 40 40 0 0 0 480 320" fill="#cceae8"/><rect x="400" y="360" width="40" height="40" fill="#e6ead7"/><g transform="translate(400,360) scale(2) rotate(0)"><rect width="2" height="20" fill="#ebeedf"/><rect x="4" width="2" height="20" fill="#ebeedf"/><rect x="8" width="2" height="20" fill="#ebeedf"/><rect x="12" width="2" height="20" fill="#ebeedf"/><rect x="16" width="2" height="20" fill="#ebeedf"/></g><rect x="440" y="360" width="40" height="40" fill="#e4e7d2"/><rect x="440" y="360" width="40" height="40" fill="#e2f3f2"/><rect x="480" y="320" width="80" height="80" fill="#fcfeff"/><path d="M 480 400 A 80 80 0 0 0 560 320 L 480 320" fill="#fc9951"/><rect x="0" y="400" width="80" height="80" fill="#fbd2b2"/><path d="M 0 400 A 80 80 0 0 1  80 480 L 0 400 A 80 80 0 0 0 80 480" fill="#eaeddc"/><rect x="80" y="400" width="80" height="80" fill="#e8ebd9"/><g transform="translate(80,400) scale(4) rotate(0)"><path fill-rule="evenodd" clip-rule="evenodd" d="M10 20C15.5228 20 20 15.5228 20 10C20 4.47715 15.5228 0 10 0C4.47715 0 0 4.47715 0 10C0 15.5228 4.47715 20 10 20ZM10 17C13.866 17 17 13.866 17 10C17 6.13401 13.866 3 10 3C6.13401 3 3 6.13401 3 10C3 13.866 6.13401 17 10 17Z" fill="#edefe1"/></g><rect x="160" y="400" width="80" height="80" fill="#fc9a54"/><g transform="translate(160,400) scale(4) rotate(0)"><path d="M5 0H10L5 5L0 10V5L5 0Z" fill="#f9c49a"/><path d="M20 15V20H15L20 15Z" fill="#f9c49a"/><path d="M20 5V10L15 15L10 20H5L20 5Z" fill="#f9c49a"/><path d="M15 0H20L5 15.0002L0 20.0002V15.0002L15 0Z" fill="#f9c49a"/></g><rect x="240" y="400" width="80" height="80" fill="#ffffff"/><rect x="240" y="400" width="40" height="40" fill="#f38631"/><path d="M 240 400 A 40 40 0 0 1 280 440 L 240 440" fill="#fce4d0"/><rect x="280" y="400" width="40" height="40" fill="#fdfeff"/><path d="M 280 440 A 40 40 0 0 0 320 400 L 280 400" fill="#faceab"/><rect x="240" y="440" width="40" height="40" fill="#fef0e6"/><rect x="240" y="440" width="40" height="40" fill="#f2f4ea"/><rect x="280" y="440" width="40" height="40" fill="#dbf0ef"/><path d="M 280 440 A 40 40 0 0 1  320 480 L 280 440 A 40 40 0 0 0 320 480" fill="#b0dfdc"/><rect x="320" y="400" width="80" height="80" fill="#fb7c20"/><path d="M 320 400 A 80 80 0 0 1  400 480 L 320 400 A 80 80 0 0 0 400 480" fill="#f8bd8e"/><rect x="400" y="400" width="80" height="80" fill="#c1ecf5"/><g transform="translate(400,400) scale(4) rotate(0)"><path d="M13 0H20V7L7 20H0V13L13 0Z" fill="#fa6f0a"/></g><rect x="480" y="400" width="80" height="80" fill="#ffffff"/><rect x="480" y="400" width="40" height="40" fill="#f9c194"/><polygon points="480,400 520,400 520,440" fill="#fed6b9"/><rect x="520" y="400" width="40" height="40" fill="#f6a96c"/><g transform="translate(520,400) scale(2) rotate(0)"><rect width="20" height="2" fill="#ecefe1"/><rect y="4" width="20" height="2" fill="#ecefe1"/><rect y="8" width="20" height="2" fill="#ecefe1"/><rect y="12" width="20" height="2" fill="#ecefe1"/><rect y="16" width="20" height="2" fill="#ecefe1"/></g><rect x="480" y="440" width="40" height="40" fill="#eefafc"/><polygon points="480,440 520,440 480,480" fill="#f4f5ec"/><rect x="520" y="440" width="40" height="40" fill="#b1e7f2"/><g transform="translate(520,440) scale(2) rotate(0)"><path fill-rule="evenodd" clip-rule="evenodd" d="M10 20C15.5228 20 20 15.5228 20 10C20 4.47715 15.5228 0 10 0C4.47715 0 0 4.47715 0 10C0 15.5228 4.47715 20 10 20ZM10 17C13.866 17 17 13.866 17 10C17 6.13401 13.866 3 10 3C6.13401 3 3 6.13401 3 10C3 13.866 6.13401 17 10 17Z" fill="#fad0af"/></g><rect x="0" y="480" width="80" height="80" fill="#ffffff"/><rect x="0" y="480" width="40" height="40" fill="#e6f7fb"/><rect x="0" y="480" width="40" height="40" fill="#fa7717"/><rect x="40" y="480" width="40" height="40" fill="#f9faf6"/><g transform="translate(40,480) scale(2) rotate(0)"><path fill-rule="evenodd" clip-rule="evenodd" d="M10 20C15.5228 20 20 15.5228 20 10C20 4.47715 15.5228 0 10 0C4.47715 0 0 4.47715 0 10C0 15.5228 4.47715 20 10 20ZM10 17C13.866 17 17 13.866 17 10C17 6.13401 13.866 3 10 3C6.13401 3 3 6.13401 3 10C3 13.866 6.13401 17 10 17Z" fill="#b5e1de"/></g><rect x="0" y="520" width="40" height="40" fill="#c9eff6"/><g transform="translate(0,520) scale(2) rotate(0)"><path d="M5 0H10L5 5L0 10V5L5 0Z" fill="#95dfee"/><path d="M20 15V20H15L20 15Z" fill="#95dfee"/><path d="M20 5V10L15 15L10 20H5L20 5Z" fill="#95dfee"/><path d="M15 0H20L5 15.0002L0 20.0002V15.0002L15 0Z" fill="#95dfee"/></g><rect x="40" y="520" width="40" height="40" fill="#fde9d9"/><g transform="translate(40,520) scale(2) rotate(0)"><path fill-rule="evenodd" clip-rule="evenodd" d="M10 20C15.5228 20 20 15.5228 20 10C20 4.47715 15.5228 0 10 0C4.47715 0 0 4.47715 0 10C0 15.5228 4.47715 20 10 20ZM10 17C13.866 17 17 13.866 17 10C17 6.13401 13.866 3 10 3C6.13401 3 3 6.13401 3 10C3 13.866 6.13401 17 10 17Z" fill="#e8ebd9"/></g><rect x="80" y="480" width="80" height="80" fill="#91deed"/><g transform="translate(80,480) scale(4) rotate(0)"><rect width="20" height="2" fill="#f6a566"/><rect y="4" width="20" height="2" fill="#f6a566"/><rect y="8" width="20" height="2" fill="#f6a566"/><rect y="12" width="20" height="2" fill="#f6a566"/><rect y="16" width="20" height="2" fill="#f6a566"/></g><rect x="160" y="480" width="80" height="80" fill="#f6f7f0"/><g transform="translate(160,480) scale(4) rotate(0)"><path d="M10 5L5 0L0 5L5 10L0 15L5 20L10 15L15 20L20 15L15 10L20 5L15 0L10 5Z" fill="#b4e8f3"/></g><rect x="240" y="480" width="80" height="80" fill="#c7e8e6"/><rect x="240" y="480" width="80" height="80" fill="#d0ecea"/><rect x="320" y="480" width="80" height="80" fill="#ffffff"/><rect x="320" y="480" width="40" height="40" fill="#c6e8e6"/><g transform="translate(320,480) scale(2) rotate(0)"><path d="M5 0H10L5 5L0 10V5L5 0Z" fill="#fa7617"/><path d="M20 15V20H15L20 15Z" fill="#fa7617"/><path d="M20 5V10L15 15L10 20H5L20 5Z" fill="#fa7617"/><path d="M15 0H20L5 15.0002L0 20.0002V15.0002L15 0Z" fill="#fa7617"/></g><rect x="360" y="480" width="40" height="40" fill="#ffffff"/><path d="M 360 520 A 40 40 0 0 1  400 480 L 360 520 A 40 40 0 0 0 400 480" fill="#ecefe0"/><rect x="320" y="520" width="40" height="40" fill="#d1eceb"/><g transform="translate(320,520) scale(2) rotate(0)"><path fill-rule="evenodd" clip-rule="evenodd" d="M10 20C15.5228 20 20 15.5228 20 10C20 4.47715 15.5228 0 10 0C4.47715 0 0 4.47715 0 10C0 15.5228 4.47715 20 10 20ZM10 17C13.866 17 17 13.866 17 10C17 6.13401 13.866 3 10 3C6.13401 3 3 6.13401 3 10C3 13.866 6.13401 17 10 17Z" fill="#f8ba89"/></g><rect x="360" y="520" width="40" height="40" fill="#fbd5b7"/><g transform="translate(360,520) scale(2) rotate(0)"><path d="M5 0H10L5 5L0 10V5L5 0Z" fill="#93dfee"/><path d="M20 15V20H15L20 15Z" fill="#93dfee"/><path d="M20 5V10L15 15L10 20H5L20 5Z" fill="#93dfee"/><path d="M15 0H20L5 15.0002L0 20.0002V15.0002L15 0Z" fill="#93dfee"/></g><rect x="400" y="480" width="80" height="80" fill="#ffffff"/><rect x="400" y="480" width="40" height="40" fill="#d6f3f8"/><g transform="translate(400,480) scale(2) rotate(0)"><path d="M5 0H10L5 5L0 10V5L5 0Z" fill="#fdcfad"/><path d="M20 15V20H15L20 15Z" fill="#fdcfad"/><path d="M20 5V10L15 15L10 20H5L20 5Z" fill="#fdcfad"/><path d="M15 0H20L5 15.0002L0 20.0002V15.0002L15 0Z" fill="#fdcfad"/></g><rect x="440" y="480" width="40" height="40" fill="#fb7f25"/><polygon points="440,480 480,480 480,520" fill="#fbd7bb"/><rect x="400" y="520" width="40" height="40" fill="#fffefd"/><g transform="translate(400,520) scale(2) rotate(0)"><path d="M10 0H20L0 20V10L10 0Z" fill="#f8b885"/><path d="M20 10V20H10L20 10Z" fill="#f8b885"/></g><rect x="440" y="520" width="40" height="40" fill="#c0ecf5"/><g transform="translate(440,520) scale(2) rotate(0)"><path d="M10 0H20L0 20V10L10 0Z" fill="#fce5d3"/><path d="M20 10V20H10L20 10Z" fill="#fce5d3"/></g><rect x="480" y="480" width="80" height="80" fill="#e8f6f5"/><rect x="480" y="480" width="80" height="80" fill="#def5fa"/><rect x="0" y="560" width="80" height="80" fill="#9ae1ef"/><g transform="translate(0,560) scale(4) rotate(0)"><path d="M5 0H10L5 5L0 10V5L5 0Z" fill="#facda9"/><path d="M20 15V20H15L20 15Z" fill="#facda9"/><path d="M20 5V10L15 15L10 20H5L20 5Z" fill="#facda9"/><path d="M15 0H20L5 15.0002L0 20.0002V15.0002L15 0Z" fill="#facda9"/></g><rect x="80" y="560" width="80" height="80" fill="#e9ebda"/><g transform="translate(80,560) scale(4) rotate(0)"><path d="M5 0H10L5 5L0 10V5L5 0Z" fill="#f7f8f2"/><path d="M20 15V20H15L20 15Z" fill="#f7f8f2"/><path d="M20 5V10L15 15L10 20H5L20 5Z" fill="#f7f8f2"/><path d="M15 0H20L5 15.0002L0 20.0002V15.0002L15 0Z" fill="#f7f8f2"/></g><rect x="160" y="560" width="80" height="80" fill="#9fe2f0"/><circle cx="200" cy="600" r="40" fill="#fbfbf8"/><rect x="240" y="560" width="80" height="80" fill="#eff1e4"/><path d="M 240 640 A 80 80 0 0 0 320 560 L 240 560" fill="#f1f2e7"/><rect x="320" y="560" width="80" height="80" fill="#f5964b"/><rect x="320" y="560" width="80" height="80" fill="#f1f3e9"/><rect x="400" y="560" width="80" height="80" fill="#fcb078"/><path d="M 400 560 A 80 80 0 0 1  480 640 L 400 560 A 80 80 0 0 0 480 640" fill="#fdc59d"/><rect x="480" y="560" width="80" height="80" fill="#ffffff"/><rect x="480" y="560" width="40" height="40" fill="#b4e0de"/><g transform="translate(480,560) scale(2) rotate(0)"><rect width="2" height="20" fill="#f6a261"/><rect x="4" width="2" height="20" fill="#f6a261"/><rect x="8" width="2" height="20" fill="#f6a261"/><rect x="12" width="2" height="20" fill="#f6a261"/><rect x="16" width="2" height="20" fill="#f6a261"/></g><rect x="520" y="560" width="40" height="40" fill="#fed3b4"/><g transform="translate(520,560) scale(2) rotate(0)"><rect width="20" height="2" fill="#ceebe9"/><rect y="4" width="20" height="2" fill="#ceebe9"/><rect y="8" width="20" height="2" fill="#ceebe9"/><rect y="12" width="20" height="2" fill="#ceebe9"/><rect y="16" width="20" height="2" fill="#ceebe9"/></g><rect x="480" y="600" width="40" height="40" fill="#f8f9f3"/><g transform="translate(480,600) scale(2) rotate(0)"><path d="M10 5L5 0L0 5L5 10L0 15L5 20L10 15L15 20L20 15L15 10L20 5L15 0L10 5Z" fill="#e9ecdc"/></g><rect x="520" y="600" width="40" height="40" fill="#ebedde"/><path d="M 520 600 A 40 40 0 0 1  560 640 L 520 600 A 40 40 0 0 0 560 640" fill="#fedfc8"/><rect x="0" y="640" width="80" height="80" fill="#feffff"/><g transform="translate(0,640) scale(4) rotate(0)"><path d="M10 5L5 0L0 5L5 10L0 15L5 20L10 15L15 20L20 15L15 10L20 5L15 0L10 5Z" fill="#e0e4cc"/></g><rect x="80" y="640" width="80" height="80" fill="#fffcfa"/><g transform="translate(80,640) scale(4) rotate(0)"><path fill-rule="evenodd" clip-rule="evenodd" d="M10 20C15.5228 20 20 15.5228 20 10C20 4.47715 15.5228 0 10 0C4.47715 0 0 4.47715 0 10C0 15.5228 4.47715 20 10 20ZM10 17C13.866 17 17 13.866 17 10C17 6.13401 13.866 3 10 3C6.13401 3 3 6.13401 3 10C3 13.866 6.13401 17 10 17Z" fill="#abddda"/></g><rect x="160" y="640" width="80" height="80" fill="#ffffff"/><rect x="160" y="640" width="40" height="40" fill="#f9c49a"/><rect x="160" y="640" width="40" height="40" fill="#fef4ec"/><rect x="200" y="640" width="40" height="40" fill="#a7e4f1"/><path d="M 200 640 A 40 40 0 0 1  240 680 L 200 640 A 40 40 0 0 0 240 680" fill="#9ce1ef"/><rect x="160" y="680" width="40" height="40" fill="#fdba8a"/><g transform="translate(160,680) scale(2) rotate(0)"><path d="M5 0H10L5 5L0 10V5L5 0Z" fill="#eff1e4"/><path d="M20 15V20H15L20 15Z" fill="#eff1e4"/><path d="M20 5V10L15 15L10 20H5L20 5Z" fill="#eff1e4"/><path d="M15 0H20L5 15.0002L0 20.0002V15.0002L15 0Z" fill="#eff1e4"/></g><rect x="200" y="680" width="40" height="40" fill="#c5e7e5"/><path d="M 200 720 A 40 40 0 0 0 240 680 L 200 680" fill="#e6e9d6"/><rect x="240" y="640" width="80" height="80" fill="#e6e9d6"/><g transform="translate(240,640) scale(4) rotate(0)"><path d="M13 0H20V7L7 20H0V13L13 0Z" fill="#fce6d4"/></g><rect x="320" y="640" width="80" height="80" fill="#ecefe0"/><g transform="translate(320,640) scale(4) rotate(0)"><rect width="2" height="20" fill="#acddda"/><rect x="4" width="2" height="20" fill="#acddda"/><rect x="8" width="2" height="20" fill="#acddda"/><rect x="12" width="2" height="20" fill="#acddda"/><rect x="16" width="2" height="20" fill="#acddda"/></g><rect x="400" y="640" width="80" height="80" fill="#b6e9f3"/><g transform="translate(400,640) scale(4) rotate(0)"><rect width="2" height="20" fill="#eef0e3"/><rect x="4" width="2" height="20" fill="#eef0e3"/><rect x="8" width="2" height="20" fill="#eef0e3"/><rect x="12" width="2" height="20" fill="#eef0e3"/><rect x="16" width="2" height="20" fill="#eef0e3"/></g><rect x="480" y="640" width="80" height="80" fill="#fbfcf8"/><rect x="480" y="640" width="80" height="80" fill="#fb7a1e"/></g></svg>