<?xml version="1.0" standalone="no"?><svg xmlns:xlink="http://www.w3.org/1999/xlink" xmlns="http://www.w3.org/2000/svg" viewBox="0 0 1000 1285.7142857142858" preserveAspectRatio="xMaxYMax slice"><g transform="scale(1.7857142857142858)"><rect x="0" y="0" width="560" height="720" fill="#ffffff"/><rect x="0" y="0" width="80" height="80" fill="#ffffff"/><rect x="0" y="0" width="40" height="40" fill="#fdf9ef"/><rect x="0" y="0" width="40" height="40" fill="#ce775b"/><rect x="40" y="0" width="40" height="40" fill="#bbb4ac"/><g transform="translate(40,0) scale(2) rotate(0)"><rect width="2" height="20" fill="#f9ebcc"/><rect x="4" width="2" height="20" fill="#f9ebcc"/><rect x="8" width="2" height="20" fill="#f9ebcc"/><rect x="12" width="2" height="20" fill="#f9ebcc"/><rect x="16" width="2" height="20" fill="#f9ebcc"/></g><rect x="0" y="40" width="40" height="40" fill="#e7f2ee"/><g transform="translate(0,40) scale(2) rotate(0)"><path d="M13 0H20V7L7 20H0V13L13 0Z" fill="#dc9e89"/></g><rect x="40" y="40" width="40" height="40" fill="#faf9f9"/><g transform="translate(40,40) scale(2) rotate(0)"><rect width="2" height="20" fill="#94c6b1"/><rect x="4" width="2" height="20" fill="#94c6b1"/><rect x="8" width="2" height="20" fill="#94c6b1"/><rect x="12" width="2" height="20" fill="#94c6b1"/><rect x="16" width="2" height="20" fill="#94c6b1"/></g><rect x="80" y="0" width="80" height="80" fill="#e8b135"/><path d="M 80 80 A 80 80 0 0 0 160 0 L 80 0" fill="#81bca3"/><rect x="160" y="0" width="80" height="80" fill="#fdfef3"/><g transform="translate(160,0) scale(4) rotate(0)"><path d="M5 0H10L5 5L0 10V5L5 0Z" fill="#fdf7eb"/><path d="M20 15V20H15L20 15Z" fill="#fdf7eb"/><path d="M20 5V10L15 15L10 20H5L20 5Z" fill="#fdf7eb"/><path d="M15 0H20L5 15.0002L0 20.0002V15.0002L15 0Z" fill="#fdf7eb"/></g><rect x="240" y="0" width="80" height="80" fill="#e7ae2c"/><polygon points="320,0 320,80 240,80" fill="#bbb4ac"/><rect x="320" y="0" width="80" height="80" fill="#f7f8c1"/><rect x="320" y="0" width="80" height="80" fill="#c25431"/><rect x="400" y="0" width="80" height="80" fill="#ffffff"/><rect x="400" y="0" width="40" height="40" fill="#d9d5d0"/><g transform="translate(400,0) scale(2) rotate(0)"><path fill-rule="evenodd" clip-rule="evenodd" d="M10 20C15.5228 20 20 15.5228 20 10C20 4.47715 15.5228 0 10 0C4.47715 0 0 4.47715 0 10C0 15.5228 4.47715 20 10 20ZM10 17C13.866 17 17 13.866 17 10C17 6.13401 13.866 3 10 3C6.13401 3 3 6.13401 3 10C3 13.866 6.13401 17 10 17Z" fill="#95c7b2"/></g><rect x="440" y="0" width="40" height="40" fill="#f8f9ce"/><circle cx="460" cy="20" r="20" fill="#9dcbb8"/><rect x="400" y="40" width="40" height="40" fill="#fbfce4"/><g transform="translate(400,40) scale(2) rotate(0)"><path d="M10 5L5 0L0 5L5 10L0 15L5 20L10 15L15 20L20 15L15 10L20 5L15 0L10 5Z" fill="#edebe9"/></g><rect x="440" y="40" width="40" height="40" fill="#a6d0bf"/><g transform="translate(440,40) scale(2) rotate(0)"><path d="M5 0H10L5 5L0 10V5L5 0Z" fill="#887d6e"/><path d="M20 15V20H15L20 15Z" fill="#887d6e"/><path d="M20 5V10L15 15L10 20H5L20 5Z" fill="#887d6e"/><path d="M15 0H20L5 15.0002L0 20.0002V15.0002L15 0Z" fill="#887d6e"/></g><rect x="480" y="0" width="80" height="80" fill="#ffffff"/><rect x="480" y="0" width="40" height="40" fill="#e9b744"/><circle cx="500" cy="20" r="20" fill="#f9f9d0"/><rect x="520" y="0" width="40" height="40" fill="#b0a89e"/><g transform="translate(520,0) scale(2) rotate(0)"><rect width="20" height="2" fill="#f6f7c0"/><rect y="4" width="20" height="2" fill="#f6f7c0"/><rect y="8" width="20" height="2" fill="#f6f7c0"/><rect y="12" width="20" height="2" fill="#f6f7c0"/><rect y="16" width="20" height="2" fill="#f6f7c0"/></g><rect x="480" y="40" width="40" height="40" fill="#f4dba2"/><g transform="translate(480,40) scale(2) rotate(0)"><path d="M10 5L5 0L0 5L5 10L0 15L5 20L10 15L15 20L20 15L15 10L20 5L15 0L10 5Z" fill="#bbdbcd"/></g><rect x="520" y="40" width="40" height="40" fill="#fdfaf1"/><g transform="translate(520,40) scale(2) rotate(0)"><path fill-rule="evenodd" clip-rule="evenodd" d="M10 20C15.5228 20 20 15.5228 20 10C20 4.47715 15.5228 0 10 0C4.47715 0 0 4.47715 0 10C0 15.5228 4.47715 20 10 20ZM10 17C13.866 17 17 13.866 17 10C17 6.13401 13.866 3 10 3C6.13401 3 3 6.13401 3 10C3 13.866 6.13401 17 10 17Z" fill="#f7e6bd"/></g><rect x="0" y="80" width="80" height="80" fill="#ffffff"/><rect x="0" y="80" width="40" height="40" fill="#c6e1d6"/><polygon points="40,80 40,120 0,120" fill="#c5c0b9"/><rect x="40" y="80" width="40" height="40" fill="#fdfdef"/><g transform="translate(40,80) scale(2) rotate(0)"><rect width="2" height="20" fill="#fbfce4"/><rect x="4" width="2" height="20" fill="#fbfce4"/><rect x="8" width="2" height="20" fill="#fbfce4"/><rect x="12" width="2" height="20" fill="#fbfce4"/><rect x="16" width="2" height="20" fill="#fbfce4"/></g><rect x="0" y="120" width="40" height="40" fill="#f9f9d0"/><g transform="translate(0,120) scale(2) rotate(0)"><rect width="2" height="20" fill="#eef6f2"/><rect x="4" width="2" height="20" fill="#eef6f2"/><rect x="8" width="2" height="20" fill="#eef6f2"/><rect x="12" width="2" height="20" fill="#eef6f2"/><rect x="16" width="2" height="20" fill="#eef6f2"/></g><rect x="40" y="120" width="40" height="40" fill="#d79078"/><g transform="translate(40,120) scale(2) rotate(0)"><path d="M5 0H10L5 5L0 10V5L5 0Z" fill="#b8b1a8"/><path d="M20 15V20H15L20 15Z" fill="#b8b1a8"/><path d="M20 5V10L15 15L10 20H5L20 5Z" fill="#b8b1a8"/><path d="M15 0H20L5 15.0002L0 20.0002V15.0002L15 0Z" fill="#b8b1a8"/></g><rect x="80" y="80" width="80" height="80" fill="#ffffff"/><rect x="80" y="80" width="40" height="40" fill="#f4d99c"/><path d="M 80 120 A 40 40 0 0 1  120 80 L 80 120 A 40 40 0 0 0 120 80" fill="#f9fad6"/><rect x="120" y="80" width="40" height="40" fill="#8dc3ad"/><g transform="translate(120,80) scale(2) rotate(0)"><path fill-rule="evenodd" clip-rule="evenodd" d="M10 20C15.5228 20 20 15.5228 20 10C20 4.47715 15.5228 0 10 0C4.47715 0 0 4.47715 0 10C0 15.5228 4.47715 20 10 20ZM10 17C13.866 17 17 13.866 17 10C17 6.13401 13.866 3 10 3C6.13401 3 3 6.13401 3 10C3 13.866 6.13401 17 10 17Z" fill="#d58a72"/></g><rect x="80" y="120" width="40" height="40" fill="#c6e1d6"/><circle cx="100" cy="140" r="20" fill="#f3ded7"/><rect x="120" y="120" width="40" height="40" fill="#736553"/><circle cx="140" cy="140" r="20" fill="#f9f9d0"/><rect x="160" y="80" width="80" height="80" fill="#fefefa"/><g transform="translate(160,80) scale(4) rotate(0)"><path d="M10 0H20L0 20V10L10 0Z" fill="#fafbdd"/><path d="M20 10V20H10L20 10Z" fill="#fafbdd"/></g><rect x="240" y="80" width="80" height="80" fill="#ffffff"/><rect x="240" y="80" width="40" height="40" fill="#f6f7bf"/><circle cx="260" cy="100" r="20" fill="#f2d48e"/><rect x="280" y="80" width="40" height="40" fill="#716352"/><polygon points="320,80 320,120 280,120" fill="#f9fad6"/><rect x="240" y="120" width="40" height="40" fill="#b7d9cb"/><circle cx="260" cy="140" r="20" fill="#cbc6bf"/><rect x="280" y="120" width="40" height="40" fill="#b2d6c7"/><path d="M 280 160 A 40 40 0 0 1  320 120 L 280 160 A 40 40 0 0 0 320 120" fill="#efcb77"/><rect x="320" y="80" width="80" height="80" fill="#85bea6"/><rect x="320" y="80" width="80" height="80" fill="#f7e8e4"/><rect x="400" y="80" width="80" height="80" fill="#ffffff"/><rect x="400" y="80" width="40" height="40" fill="#e8beb1"/><g transform="translate(400,80) scale(2) rotate(0)"><path d="M5 0H10L5 5L0 10V5L5 0Z" fill="#fefffb"/><path d="M20 15V20H15L20 15Z" fill="#fefffb"/><path d="M20 5V10L15 15L10 20H5L20 5Z" fill="#fefffb"/><path d="M15 0H20L5 15.0002L0 20.0002V15.0002L15 0Z" fill="#fefffb"/></g><rect x="440" y="80" width="40" height="40" fill="#e0a997"/><g transform="translate(440,80) scale(2) rotate(0)"><path d="M5 0H10L5 5L0 10V5L5 0Z" fill="#dddad6"/><path d="M20 15V20H15L20 15Z" fill="#dddad6"/><path d="M20 5V10L15 15L10 20H5L20 5Z" fill="#dddad6"/><path d="M15 0H20L5 15.0002L0 20.0002V15.0002L15 0Z" fill="#dddad6"/></g><rect x="400" y="120" width="40" height="40" fill="#d9ebe3"/><g transform="translate(400,120) scale(2) rotate(0)"><path d="M10 0H20L0 20V10L10 0Z" fill="#7d7060"/><path d="M20 10V20H10L20 10Z" fill="#7d7060"/></g><rect x="440" y="120" width="40" height="40" fill="#eaba4a"/><path d="M 440 160 A 40 40 0 0 1  480 120 L 440 160 A 40 40 0 0 0 480 120" fill="#e7ae2b"/><rect x="480" y="80" width="80" height="80" fill="#988d81"/><g transform="translate(480,80) scale(4) rotate(0)"><path d="M10 0H20L0 20V10L10 0Z" fill="#746655"/><path d="M20 10V20H10L20 10Z" fill="#746655"/></g><rect x="0" y="160" width="80" height="80" fill="#8fc4ae"/><g transform="translate(0,160) scale(4) rotate(0)"><path d="M10 0H20L0 20V10L10 0Z" fill="#d9d5d0"/><path d="M20 10V20H10L20 10Z" fill="#d9d5d0"/></g><rect x="80" y="160" width="80" height="80" fill="#f8f8c9"/><rect x="80" y="160" width="80" height="80" fill="#d28166"/><rect x="160" y="160" width="80" height="80" fill="#ffffff"/><rect x="160" y="160" width="40" height="40" fill="#9bcab6"/><g transform="translate(160,160) scale(2) rotate(0)"><path d="M10 0H20L0 20V10L10 0Z" fill="#fcfce6"/><path d="M20 10V20H10L20 10Z" fill="#fcfce6"/></g><rect x="200" y="160" width="40" height="40" fill="#fffffd"/><g transform="translate(200,160) scale(2) rotate(0)"><path d="M10 0H20L0 20V10L10 0Z" fill="#f8f9cd"/><path d="M20 10V20H10L20 10Z" fill="#f8f9cd"/></g><rect x="160" y="200" width="40" height="40" fill="#fefef4"/><g transform="translate(160,200) scale(2) rotate(0)"><path d="M10 5L5 0L0 5L5 10L0 15L5 20L10 15L15 20L20 15L15 10L20 5L15 0L10 5Z" fill="#f1efee"/></g><rect x="200" y="200" width="40" height="40" fill="#c5e0d5"/><path d="M 200 200 A 40 40 0 0 1  240 240 L 200 200 A 40 40 0 0 0 240 240" fill="#fefef6"/><rect x="240" y="160" width="80" height="80" fill="#ffffff"/><rect x="240" y="160" width="40" height="40" fill="#c25532"/><g transform="translate(240,160) scale(2) rotate(0)"><path d="M10 0H20L0 20V10L10 0Z" fill="#f6e0b0"/><path d="M20 10V20H10L20 10Z" fill="#f6e0b0"/></g><rect x="280" y="160" width="40" height="40" fill="#b0a99f"/><g transform="translate(280,160) scale(2) rotate(0)"><rect width="20" height="2" fill="#afd5c5"/><rect y="4" width="20" height="2" fill="#afd5c5"/><rect y="8" width="20" height="2" fill="#afd5c5"/><rect y="12" width="20" height="2" fill="#afd5c5"/><rect y="16" width="20" height="2" fill="#afd5c5"/></g><rect x="240" y="200" width="40" height="40" fill="#f1d9d1"/><g transform="translate(240,200) scale(2) rotate(0)"><path fill-rule="evenodd" clip-rule="evenodd" d="M10 20C15.5228 20 20 15.5228 20 10C20 4.47715 15.5228 0 10 0C4.47715 0 0 4.47715 0 10C0 15.5228 4.47715 20 10 20ZM10 17C13.866 17 17 13.866 17 10C17 6.13401 13.866 3 10 3C6.13401 3 3 6.13401 3 10C3 13.866 6.13401 17 10 17Z" fill="#fafbdc"/></g><rect x="280" y="200" width="40" height="40" fill="#c1bbb4"/><path d="M 280 240 A 40 40 0 0 1  320 200 L 280 240 A 40 40 0 0 0 320 200" fill="#fcf4e2"/><rect x="320" y="160" width="80" height="80" fill="#e7ae2c"/><g transform="translate(320,160) scale(4) rotate(0)"><path d="M10 5L5 0L0 5L5 10L0 15L5 20L10 15L15 20L20 15L15 10L20 5L15 0L10 5Z" fill="#fafcfb"/></g><rect x="400" y="160" width="80" height="80" fill="#f7e9e5"/><g transform="translate(400,160) scale(4) rotate(0)"><path d="M13 0H20V7L7 20H0V13L13 0Z" fill="#6b5d4a"/></g><rect x="480" y="160" width="80" height="80" fill="#ffffff"/><rect x="480" y="160" width="40" height="40" fill="#fdfdee"/><g transform="translate(480,160) scale(2) rotate(0)"><path d="M10 5L5 0L0 5L5 10L0 15L5 20L10 15L15 20L20 15L15 10L20 5L15 0L10 5Z" fill="#8b8071"/></g><rect x="520" y="160" width="40" height="40" fill="#a1988d"/><g transform="translate(520,160) scale(2) rotate(0)"><path fill-rule="evenodd" clip-rule="evenodd" d="M10 20C15.5228 20 20 15.5228 20 10C20 4.47715 15.5228 0 10 0C4.47715 0 0 4.47715 0 10C0 15.5228 4.47715 20 10 20ZM10 17C13.866 17 17 13.866 17 10C17 6.13401 13.866 3 10 3C6.13401 3 3 6.13401 3 10C3 13.866 6.13401 17 10 17Z" fill="#f3d694"/></g><rect x="480" y="200" width="40" height="40" fill="#8d8274"/><g transform="translate(480,200) scale(2) rotate(0)"><path d="M10 0H20L0 20V10L10 0Z" fill="#edcdc3"/><path d="M20 10V20H10L20 10Z" fill="#edcdc3"/></g><rect x="520" y="200" width="40" height="40" fill="#fcf3e1"/><g transform="translate(520,200) scale(2) rotate(0)"><path d="M13 0H20V7L7 20H0V13L13 0Z" fill="#f6e2b4"/></g><rect x="0" y="240" width="80" height="80" fill="#f5e4de"/><g transform="translate(0,240) scale(4) rotate(0)"><rect width="2" height="20" fill="#dc9d89"/><rect x="4" width="2" height="20" fill="#dc9d89"/><rect x="8" width="2" height="20" fill="#dc9d89"/><rect x="12" width="2" height="20" fill="#dc9d89"/><rect x="16" width="2" height="20" fill="#dc9d89"/></g><rect x="80" y="240" width="80" height="80" fill="#fafbda"/><g transform="translate(80,240) scale(4) rotate(0)"><rect width="20" height="2" fill="#e0a896"/><rect y="4" width="20" height="2" fill="#e0a896"/><rect y="8" width="20" height="2" fill="#e0a896"/><rect y="12" width="20" height="2" fill="#e0a896"/><rect y="16" width="20" height="2" fill="#e0a896"/></g><rect x="160" y="240" width="80" height="80" fill="#eaba4c"/><path d="M 160 240 A 80 80 0 0 1  240 320 L 160 240 A 80 80 0 0 0 240 320" fill="#ebbc50"/><rect x="240" y="240" width="80" height="80" fill="#fefefe"/><g transform="translate(240,240) scale(4) rotate(0)"><path d="M10 5L5 0L0 5L5 10L0 15L5 20L10 15L15 20L20 15L15 10L20 5L15 0L10 5Z" fill="#b3aba2"/></g><rect x="320" y="240" width="80" height="80" fill="#fefef6"/><path d="M 320 320 A 80 80 0 0 1  400 240 L 320 320 A 80 80 0 0 0 400 240" fill="#f7e4ba"/><rect x="400" y="240" width="80" height="80" fill="#fcf4e2"/><g transform="translate(400,240) scale(4) rotate(0)"><path d="M5 0H10L5 5L0 10V5L5 0Z" fill="#daebe4"/><path d="M20 15V20H15L20 15Z" fill="#daebe4"/><path d="M20 5V10L15 15L10 20H5L20 5Z" fill="#daebe4"/><path d="M15 0H20L5 15.0002L0 20.0002V15.0002L15 0Z" fill="#daebe4"/></g><rect x="480" y="240" width="80" height="80" fill="#d8d5d0"/><g transform="translate(480,240) scale(4) rotate(0)"><path d="M10 5L5 0L0 5L5 10L0 15L5 20L10 15L15 20L20 15L15 10L20 5L15 0L10 5Z" fill="#f1cf82"/></g><rect x="0" y="320" width="80" height="80" fill="#ce7659"/><path d="M 0 400 A 80 80 0 0 1  80 320 L 80 400" fill="#f3d693"/><rect x="80" y="320" width="80" height="80" fill="#ffffff"/><rect x="80" y="320" width="40" height="40" fill="#fafbda"/><path d="M 80 360 A 40 40 0 0 1  120 320 L 80 360 A 40 40 0 0 0 120 320" fill="#f7e8e3"/><rect x="120" y="320" width="40" height="40" fill="#edc465"/><g transform="translate(120,320) scale(2) rotate(0)"><rect width="2" height="20" fill="#fbf2de"/><rect x="4" width="2" height="20" fill="#fbf2de"/><rect x="8" width="2" height="20" fill="#fbf2de"/><rect x="12" width="2" height="20" fill="#fbf2de"/><rect x="16" width="2" height="20" fill="#fbf2de"/></g><rect x="80" y="360" width="40" height="40" fill="#f1d085"/><g transform="translate(80,360) scale(2) rotate(0)"><rect width="2" height="20" fill="#b9dacc"/><rect x="4" width="2" height="20" fill="#b9dacc"/><rect x="8" width="2" height="20" fill="#b9dacc"/><rect x="12" width="2" height="20" fill="#b9dacc"/><rect x="16" width="2" height="20" fill="#b9dacc"/></g><rect x="120" y="360" width="40" height="40" fill="#847869"/><path d="M 120 360 A 40 40 0 0 0 160 400 L 160 360" fill="#908578"/><rect x="160" y="320" width="80" height="80" fill="#d8d4cf"/><g transform="translate(160,320) scale(4) rotate(0)"><path d="M10 5L5 0L0 5L5 10L0 15L5 20L10 15L15 20L20 15L15 10L20 5L15 0L10 5Z" fill="#d07d62"/></g><rect x="240" y="320" width="80" height="80" fill="#9a9083"/><g transform="translate(240,320) scale(4) rotate(0)"><path d="M10 0H20L0 20V10L10 0Z" fill="#b6d9ca"/><path d="M20 10V20H10L20 10Z" fill="#b6d9ca"/></g><rect x="320" y="320" width="80" height="80" fill="#ffffff"/><rect x="320" y="320" width="40" height="40" fill="#d79079"/><circle cx="340" cy="340" r="20" fill="#f6e6e1"/><rect x="360" y="320" width="40" height="40" fill="#a1988c"/><rect x="360" y="320" width="40" height="40" fill="#f7e9e4"/><rect x="320" y="360" width="40" height="40" fill="#92c5b0"/><g transform="translate(320,360) scale(2) rotate(0)"><path d="M10 0H20L0 20V10L10 0Z" fill="#afd5c5"/><path d="M20 10V20H10L20 10Z" fill="#afd5c5"/></g><rect x="360" y="360" width="40" height="40" fill="#d1e7de"/><rect x="360" y="360" width="40" height="40" fill="#fdfdee"/><rect x="400" y="320" width="80" height="80" fill="#fefefa"/><g transform="translate(400,320) scale(4) rotate(0)"><path d="M5 0H10L5 5L0 10V5L5 0Z" fill="#eecfc5"/><path d="M20 15V20H15L20 15Z" fill="#eecfc5"/><path d="M20 5V10L15 15L10 20H5L20 5Z" fill="#eecfc5"/><path d="M15 0H20L5 15.0002L0 20.0002V15.0002L15 0Z" fill="#eecfc5"/></g><rect x="480" y="320" width="80" height="80" fill="#ffffff"/><rect x="480" y="320" width="40" height="40" fill="#f7f8c5"/><g transform="translate(480,320) scale(2) rotate(0)"><path d="M13 0H20V7L7 20H0V13L13 0Z" fill="#bdb7af"/></g><rect x="520" y="320" width="40" height="40" fill="#fcfce7"/><g transform="translate(520,320) scale(2) rotate(0)"><rect width="20" height="2" fill="#655644"/><rect y="4" width="20" height="2" fill="#655644"/><rect y="8" width="20" height="2" fill="#655644"/><rect y="12" width="20" height="2" fill="#655644"/><rect y="16" width="20" height="2" fill="#655644"/></g><rect x="480" y="360" width="40" height="40" fill="#f8f9ce"/><g transform="translate(480,360) scale(2) rotate(0)"><path d="M13 0H20V7L7 20H0V13L13 0Z" fill="#f7e7e3"/></g><rect x="520" y="360" width="40" height="40" fill="#ecf5f1"/><g transform="translate(520,360) scale(2) rotate(0)"><path d="M5 0H10L5 5L0 10V5L5 0Z" fill="#fbfce3"/><path d="M20 15V20H15L20 15Z" fill="#fbfce3"/><path d="M20 5V10L15 15L10 20H5L20 5Z" fill="#fbfce3"/><path d="M15 0H20L5 15.0002L0 20.0002V15.0002L15 0Z" fill="#fbfce3"/></g><rect x="0" y="400" width="80" height="80" fill="#ffffff"/><rect x="0" y="400" width="40" height="40" fill="#ebbb4f"/><g transform="translate(0,400) scale(2) rotate(0)"><path d="M10 0H20L0 20V10L10 0Z" fill="#d2e8df"/><path d="M20 10V20H10L20 10Z" fill="#d2e8df"/></g><rect x="40" y="400" width="40" height="40" fill="#f7e4b9"/><path d="M 40 440 A 40 40 0 0 1  80 400 L 80 440" fill="#dda18d"/><rect x="0" y="440" width="40" height="40" fill="#ffffff"/><rect x="0" y="440" width="40" height="40" fill="#b2aaa1"/><rect x="40" y="440" width="40" height="40" fill="#fffffe"/><g transform="translate(40,440) scale(2) rotate(0)"><path d="M13 0H20V7L7 20H0V13L13 0Z" fill="#d28066"/></g><rect x="80" y="400" width="80" height="80" fill="#f6f7c0"/><g transform="translate(80,400) scale(4) rotate(0)"><path fill-rule="evenodd" clip-rule="evenodd" d="M10 20C15.5228 20 20 15.5228 20 10C20 4.47715 15.5228 0 10 0C4.47715 0 0 4.47715 0 10C0 15.5228 4.47715 20 10 20ZM10 17C13.866 17 17 13.866 17 10C17 6.13401 13.866 3 10 3C6.13401 3 3 6.13401 3 10C3 13.866 6.13401 17 10 17Z" fill="#e4e2de"/></g><rect x="160" y="400" width="80" height="80" fill="#dfeee8"/><path d="M 160 400 A 80 80 0 0 1  240 480 L 160 400 A 80 80 0 0 0 240 480" fill="#ce775b"/><rect x="240" y="400" width="80" height="80" fill="#a9a197"/><g transform="translate(240,400) scale(4) rotate(0)"><rect width="2" height="20" fill="#c6603f"/><rect x="4" width="2" height="20" fill="#c6603f"/><rect x="8" width="2" height="20" fill="#c6603f"/><rect x="12" width="2" height="20" fill="#c6603f"/><rect x="16" width="2" height="20" fill="#c6603f"/></g><rect x="320" y="400" width="80" height="80" fill="#d8927b"/><g transform="translate(320,400) scale(4) rotate(0)"><rect width="2" height="20" fill="#fefefa"/><rect x="4" width="2" height="20" fill="#fefefa"/><rect x="8" width="2" height="20" fill="#fefefa"/><rect x="12" width="2" height="20" fill="#fefefa"/><rect x="16" width="2" height="20" fill="#fefefa"/></g><rect x="400" y="400" width="80" height="80" fill="#ffffff"/><rect x="400" y="400" width="40" height="40" fill="#c4beb7"/><g transform="translate(400,400) scale(2) rotate(0)"><rect width="20" height="2" fill="#c9e3d8"/><rect y="4" width="20" height="2" fill="#c9e3d8"/><rect y="8" width="20" height="2" fill="#c9e3d8"/><rect y="12" width="20" height="2" fill="#c9e3d8"/><rect y="16" width="20" height="2" fill="#c9e3d8"/></g><rect x="440" y="400" width="40" height="40" fill="#c1532f"/><polygon points="440,400 480,400 480,440" fill="#fbf4f2"/><rect x="400" y="440" width="40" height="40" fill="#b6afa6"/><polygon points="400,440 440,440 400,480" fill="#eec86f"/><rect x="440" y="440" width="40" height="40" fill="#fbfbe0"/><path d="M 440 440 A 40 40 0 0 0 480 480 L 480 440" fill="#867a6b"/><rect x="480" y="400" width="80" height="80" fill="#83bda5"/><g transform="translate(480,400) scale(4) rotate(0)"><rect width="2" height="20" fill="#7b6f5e"/><rect x="4" width="2" height="20" fill="#7b6f5e"/><rect x="8" width="2" height="20" fill="#7b6f5e"/><rect x="12" width="2" height="20" fill="#7b6f5e"/><rect x="16" width="2" height="20" fill="#7b6f5e"/></g><rect x="0" y="480" width="80" height="80" fill="#bab4ab"/><g transform="translate(0,480) scale(4) rotate(0)"><path d="M13 0H20V7L7 20H0V13L13 0Z" fill="#8cc2ac"/></g><rect x="80" y="480" width="80" height="80" fill="#f8e7c1"/><polygon points="80,480 160,560 80,560" fill="#f3ded8"/><rect x="160" y="480" width="80" height="80" fill="#d4876e"/><g transform="translate(160,480) scale(4) rotate(0)"><path d="M13 0H20V7L7 20H0V13L13 0Z" fill="#e0a895"/></g><rect x="240" y="480" width="80" height="80" fill="#fcfefd"/><g transform="translate(240,480) scale(4) rotate(0)"><path d="M10 5L5 0L0 5L5 10L0 15L5 20L10 15L15 20L20 15L15 10L20 5L15 0L10 5Z" fill="#eae8e5"/></g><rect x="320" y="480" width="80" height="80" fill="#fcfdfd"/><g transform="translate(320,480) scale(4) rotate(0)"><path d="M10 0H20L0 20V10L10 0Z" fill="#fcfce8"/><path d="M20 10V20H10L20 10Z" fill="#fcfce8"/></g><rect x="400" y="480" width="80" height="80" fill="#f9f9d1"/><path d="M 400 560 A 80 80 0 0 1  480 480 L 480 560" fill="#b2d6c7"/><rect x="480" y="480" width="80" height="80" fill="#968c7f"/><g transform="translate(480,480) scale(4) rotate(0)"><path fill-rule="evenodd" clip-rule="evenodd" d="M10 20C15.5228 20 20 15.5228 20 10C20 4.47715 15.5228 0 10 0C4.47715 0 0 4.47715 0 10C0 15.5228 4.47715 20 10 20ZM10 17C13.866 17 17 13.866 17 10C17 6.13401 13.866 3 10 3C6.13401 3 3 6.13401 3 10C3 13.866 6.13401 17 10 17Z" fill="#dda18d"/></g><rect x="0" y="560" width="80" height="80" fill="#d8937d"/><path d="M 0 560 A 80 80 0 0 1  80 640 L 0 560 A 80 80 0 0 0 80 640" fill="#fafaf9"/><rect x="80" y="560" width="80" height="80" fill="#e8e6e3"/><g transform="translate(80,560) scale(4) rotate(0)"><path d="M5 0H10L5 5L0 10V5L5 0Z" fill="#fbfce4"/><path d="M20 15V20H15L20 15Z" fill="#fbfce4"/><path d="M20 5V10L15 15L10 20H5L20 5Z" fill="#fbfce4"/><path d="M15 0H20L5 15.0002L0 20.0002V15.0002L15 0Z" fill="#fbfce4"/></g><rect x="160" y="560" width="80" height="80" fill="#fefdfd"/><g transform="translate(160,560) scale(4) rotate(0)"><path d="M13 0H20V7L7 20H0V13L13 0Z" fill="#d28166"/></g><rect x="240" y="560" width="80" height="80" fill="#ffffff"/><rect x="240" y="560" width="40" height="40" fill="#dc9d88"/><polygon points="280,560 280,600 240,600" fill="#fdfdef"/><rect x="280" y="560" width="40" height="40" fill="#e1ab9a"/><g transform="translate(280,560) scale(2) rotate(0)"><rect width="2" height="20" fill="#cce4da"/><rect x="4" width="2" height="20" fill="#cce4da"/><rect x="8" width="2" height="20" fill="#cce4da"/><rect x="12" width="2" height="20" fill="#cce4da"/><rect x="16" width="2" height="20" fill="#cce4da"/></g><rect x="240" y="600" width="40" height="40" fill="#f8f9cc"/><g transform="translate(240,600) scale(2) rotate(0)"><path d="M5 0H10L5 5L0 10V5L5 0Z" fill="#d4e8e0"/><path d="M20 15V20H15L20 15Z" fill="#d4e8e0"/><path d="M20 5V10L15 15L10 20H5L20 5Z" fill="#d4e8e0"/><path d="M15 0H20L5 15.0002L0 20.0002V15.0002L15 0Z" fill="#d4e8e0"/></g><rect x="280" y="600" width="40" height="40" fill="#f2f8f6"/><g transform="translate(280,600) scale(2) rotate(0)"><rect width="20" height="2" fill="#fbfce3"/><rect y="4" width="20" height="2" fill="#fbfce3"/><rect y="8" width="20" height="2" fill="#fbfce3"/><rect y="12" width="20" height="2" fill="#fbfce3"/><rect y="16" width="20" height="2" fill="#fbfce3"/></g><rect x="320" y="560" width="80" height="80" fill="#e3b1a1"/><g transform="translate(320,560) scale(4) rotate(0)"><path d="M13 0H20V7L7 20H0V13L13 0Z" fill="#f3d798"/></g><rect x="400" y="560" width="80" height="80" fill="#d07b60"/><g transform="translate(400,560) scale(4) rotate(0)"><path fill-rule="evenodd" clip-rule="evenodd" d="M10 20C15.5228 20 20 15.5228 20 10C20 4.47715 15.5228 0 10 0C4.47715 0 0 4.47715 0 10C0 15.5228 4.47715 20 10 20ZM10 17C13.866 17 17 13.866 17 10C17 6.13401 13.866 3 10 3C6.13401 3 3 6.13401 3 10C3 13.866 6.13401 17 10 17Z" fill="#e5b7a8"/></g><rect x="480" y="560" width="80" height="80" fill="#e5b6a7"/><g transform="translate(480,560) scale(4) rotate(0)"><path d="M10 5L5 0L0 5L5 10L0 15L5 20L10 15L15 20L20 15L15 10L20 5L15 0L10 5Z" fill="#e5b7a9"/></g><rect x="0" y="640" width="80" height="80" fill="#887d6e"/><rect x="0" y="640" width="80" height="80" fill="#ca6c4d"/><rect x="80" y="640" width="80" height="80" fill="#716352"/><g transform="translate(80,640) scale(4) rotate(0)"><path d="M10 5L5 0L0 5L5 10L0 15L5 20L10 15L15 20L20 15L15 10L20 5L15 0L10 5Z" fill="#ca6d4e"/></g><rect x="160" y="640" width="80" height="80" fill="#fefdfa"/><path d="M 160 640 A 80 80 0 0 1 240 720 L 160 720" fill="#e4f1ec"/><rect x="240" y="640" width="80" height="80" fill="#f8f9ca"/><g transform="translate(240,640) scale(4) rotate(0)"><path d="M5 0H10L5 5L0 10V5L5 0Z" fill="#e8f3ef"/><path d="M20 15V20H15L20 15Z" fill="#e8f3ef"/><path d="M20 5V10L15 15L10 20H5L20 5Z" fill="#e8f3ef"/><path d="M15 0H20L5 15.0002L0 20.0002V15.0002L15 0Z" fill="#e8f3ef"/></g><rect x="320" y="640" width="80" height="80" fill="#fefefd"/><g transform="translate(320,640) scale(4) rotate(0)"><path d="M13 0H20V7L7 20H0V13L13 0Z" fill="#8cc2ab"/></g><rect x="400" y="640" width="80" height="80" fill="#ffffff"/><rect x="400" y="640" width="40" height="40" fill="#c4beb7"/><g transform="translate(400,640) scale(2) rotate(0)"><path d="M10 5L5 0L0 5L5 10L0 15L5 20L10 15L15 20L20 15L15 10L20 5L15 0L10 5Z" fill="#ecbf57"/></g><rect x="440" y="640" width="40" height="40" fill="#fbfbdf"/><rect x="440" y="640" width="40" height="40" fill="#d0cbc5"/><rect x="400" y="680" width="40" height="40" fill="#b5d8c9"/><polygon points="440,680 440,720 400,720" fill="#c25431"/><rect x="440" y="680" width="40" height="40" fill="#fefdf9"/><g transform="translate(440,680) scale(2) rotate(0)"><path d="M5 0H10L5 5L0 10V5L5 0Z" fill="#f5dda6"/><path d="M20 15V20H15L20 15Z" fill="#f5dda6"/><path d="M20 5V10L15 15L10 20H5L20 5Z" fill="#f5dda6"/><path d="M15 0H20L5 15.0002L0 20.0002V15.0002L15 0Z" fill="#f5dda6"/></g><rect x="480" y="640" width="80" height="80" fill="#7a6d5c"/><polygon points="480,640 560,640 480,720" fill="#fdfefe"/></g></svg>