<?xml version="1.0" standalone="no"?><svg xmlns:xlink="http://www.w3.org/1999/xlink" xmlns="http://www.w3.org/2000/svg" viewBox="0 0 1000 1285.7142857142858" preserveAspectRatio="xMaxYMax slice"><g transform="scale(1.7857142857142858)"><rect x="0" y="0" width="560" height="720" fill="#ffffff"/><rect x="0" y="0" width="80" height="80" fill="#c0b8ad"/><circle cx="40" cy="40" r="40" fill="#7f705a"/><rect x="80" y="0" width="80" height="80" fill="#ffffff"/><rect x="80" y="0" width="40" height="40" fill="#f4f1e9"/><circle cx="100" cy="20" r="20" fill="#faf9f8"/><rect x="120" y="0" width="40" height="40" fill="#d9e1dd"/><g transform="translate(120,0) scale(2) rotate(0)"><path fill-rule="evenodd" clip-rule="evenodd" d="M10 20C15.5228 20 20 15.5228 20 10C20 4.47715 15.5228 0 10 0C4.47715 0 0 4.47715 0 10C0 15.5228 4.47715 20 10 20ZM10 17C13.866 17 17 13.866 17 10C17 6.13401 13.866 3 10 3C6.13401 3 3 6.13401 3 10C3 13.866 6.13401 17 10 17Z" fill="#8c7f6b"/></g><rect x="80" y="40" width="40" height="40" fill="#f5f2eb"/><circle cx="100" cy="60" r="20" fill="#dedad4"/><rect x="120" y="40" width="40" height="40" fill="#fdfdfd"/><path d="M 120 80 A 40 40 0 0 0 160 40 L 120 40" fill="#bab5a6"/><rect x="160" y="0" width="80" height="80" fill="#b5af9f"/><path d="M 160 80 A 80 80 0 0 1  240 0 L 160 80 A 80 80 0 0 0 240 0" fill="#b9b1a5"/><rect x="240" y="0" width="80" height="80" fill="#b5af9f"/><g transform="translate(240,0) scale(4) rotate(0)"><path d="M13 0H20V7L7 20H0V13L13 0Z" fill="#c7c1b7"/></g><rect x="320" y="0" width="80" height="80" fill="#fafaf9"/><circle cx="360" cy="40" r="40" fill="#f6f8f7"/><rect x="400" y="0" width="80" height="80" fill="#a29b88"/><g transform="translate(400,0) scale(4) rotate(0)"><path d="M10 0L20 10L10 20L0 10L10 0Z" fill="#e0e7e3"/></g><rect x="480" y="0" width="80" height="80" fill="#efebdf"/><path d="M 480 80 A 80 80 0 0 1  560 0 L 480 80 A 80 80 0 0 0 560 0" fill="#e1e7e3"/><rect x="0" y="80" width="80" height="80" fill="#f8fafa"/><path d="M 0 160 A 80 80 0 0 1  80 80 L 0 160 A 80 80 0 0 0 80 80" fill="#f3f6f4"/><rect x="80" y="80" width="80" height="80" fill="#ffffff"/><rect x="80" y="80" width="40" height="40" fill="#dee5e1"/><path d="M 80 120 A 40 40 0 0 1  120 80 L 120 120" fill="#efeeea"/><rect x="120" y="80" width="40" height="40" fill="#9a937d"/><circle cx="140" cy="100" r="20" fill="#b8cacd"/><rect x="80" y="120" width="40" height="40" fill="#a69b8c"/><g transform="translate(80,120) scale(2) rotate(0)"><path d="M13 0H20V7L7 20H0V13L13 0Z" fill="#e6decc"/></g><rect x="120" y="120" width="40" height="40" fill="#e1dfd9"/><g transform="translate(120,120) scale(2) rotate(0)"><path d="M5 0H10L5 5L0 10V5L5 0Z" fill="#b1a89b"/><path d="M20 15V20H15L20 15Z" fill="#b1a89b"/><path d="M20 5V10L15 15L10 20H5L20 5Z" fill="#b1a89b"/><path d="M15 0H20L5 15.0002L0 20.0002V15.0002L15 0Z" fill="#b1a89b"/></g><rect x="160" y="80" width="80" height="80" fill="#ffffff"/><rect x="160" y="80" width="40" height="40" fill="#948775"/><g transform="translate(160,80) scale(2) rotate(0)"><path d="M5 0H10L5 5L0 10V5L5 0Z" fill="#eae3d4"/><path d="M20 15V20H15L20 15Z" fill="#eae3d4"/><path d="M20 5V10L15 15L10 20H5L20 5Z" fill="#eae3d4"/><path d="M15 0H20L5 15.0002L0 20.0002V15.0002L15 0Z" fill="#eae3d4"/></g><rect x="200" y="80" width="40" height="40" fill="#a09985"/><path d="M 200 80 A 40 40 0 0 1  240 120 L 200 80 A 40 40 0 0 0 240 120" fill="#b4ae9e"/><rect x="160" y="120" width="40" height="40" fill="#ede7da"/><g transform="translate(160,120) scale(2) rotate(0)"><path d="M10 0L20 10L10 20L0 10L10 0Z" fill="#e9edeb"/></g><rect x="200" y="120" width="40" height="40" fill="#f0ebe0"/><g transform="translate(200,120) scale(2) rotate(0)"><path fill-rule="evenodd" clip-rule="evenodd" d="M10 20C15.5228 20 20 15.5228 20 10C20 4.47715 15.5228 0 10 0C4.47715 0 0 4.47715 0 10C0 15.5228 4.47715 20 10 20ZM10 17C13.866 17 17 13.866 17 10C17 6.13401 13.866 3 10 3C6.13401 3 3 6.13401 3 10C3 13.866 6.13401 17 10 17Z" fill="#ebe5d7"/></g><rect x="240" y="80" width="80" height="80" fill="#f6f5f3"/><g transform="translate(240,80) scale(4) rotate(0)"><path d="M5 0H10L5 5L0 10V5L5 0Z" fill="#f4f0e8"/><path d="M20 15V20H15L20 15Z" fill="#f4f0e8"/><path d="M20 5V10L15 15L10 20H5L20 5Z" fill="#f4f0e8"/><path d="M15 0H20L5 15.0002L0 20.0002V15.0002L15 0Z" fill="#f4f0e8"/></g><rect x="320" y="80" width="80" height="80" fill="#e4dcc8"/><g transform="translate(320,80) scale(4) rotate(0)"><path d="M13 0H20V7L7 20H0V13L13 0Z" fill="#b2c5c9"/></g><rect x="400" y="80" width="80" height="80" fill="#ffffff"/><rect x="400" y="80" width="40" height="40" fill="#f0ece1"/><g transform="translate(400,80) scale(2) rotate(0)"><path d="M13 0H20V7L7 20H0V13L13 0Z" fill="#ffffff"/></g><rect x="440" y="80" width="40" height="40" fill="#edf1ef"/><g transform="translate(440,80) scale(2) rotate(0)"><path fill-rule="evenodd" clip-rule="evenodd" d="M10 20C15.5228 20 20 15.5228 20 10C20 4.47715 15.5228 0 10 0C4.47715 0 0 4.47715 0 10C0 15.5228 4.47715 20 10 20ZM10 17C13.866 17 17 13.866 17 10C17 6.13401 13.866 3 10 3C6.13401 3 3 6.13401 3 10C3 13.866 6.13401 17 10 17Z" fill="#d1dcde"/></g><rect x="400" y="120" width="40" height="40" fill="#c5c0b4"/><g transform="translate(400,120) scale(2) rotate(0)"><path d="M13 0H20V7L7 20H0V13L13 0Z" fill="#f0ece1"/></g><rect x="440" y="120" width="40" height="40" fill="#e9eeeb"/><g transform="translate(440,120) scale(2) rotate(0)"><path d="M10 0H20V10L10 20H0V10L10 0Z" fill="#dfd5be"/></g><rect x="480" y="80" width="80" height="80" fill="#ffffff"/><rect x="480" y="80" width="40" height="40" fill="#b4ab9e"/><g transform="translate(480,80) scale(2) rotate(0)"><path d="M10 0H20V10L10 20H0V10L10 0Z" fill="#f7f8f7"/></g><rect x="520" y="80" width="40" height="40" fill="#fdfdfd"/><g transform="translate(520,80) scale(2) rotate(0)"><path d="M10 0H20V10L10 20H0V10L10 0Z" fill="#e1e8ea"/></g><rect x="480" y="120" width="40" height="40" fill="#beb9ab"/><path d="M 480 120 A 40 40 0 0 1 520 160 L 480 160" fill="#ecf0ee"/><rect x="520" y="120" width="40" height="40" fill="#908370"/><circle cx="540" cy="140" r="20" fill="#d7e0db"/><rect x="0" y="160" width="80" height="80" fill="#ffffff"/><rect x="0" y="160" width="40" height="40" fill="#dacfb3"/><g transform="translate(0,160) scale(2) rotate(0)"><path d="M10 0L20 10L10 20L0 10L10 0Z" fill="#a7bcc1"/></g><rect x="40" y="160" width="40" height="40" fill="#e4eae6"/><g transform="translate(40,160) scale(2) rotate(0)"><path d="M10 0H20V10L10 20H0V10L10 0Z" fill="#c9d6d9"/></g><rect x="0" y="200" width="40" height="40" fill="#988c7a"/><rect x="0" y="200" width="40" height="40" fill="#f4f3f1"/><rect x="40" y="200" width="40" height="40" fill="#e8e1d0"/><path d="M 40 200 A 40 40 0 0 0 80 240 L 80 200" fill="#bdcdd0"/><rect x="80" y="160" width="80" height="80" fill="#f7f7f5"/><rect x="80" y="160" width="80" height="80" fill="#e0ded7"/><rect x="160" y="160" width="80" height="80" fill="#e8edea"/><circle cx="200" cy="200" r="40" fill="#f7f8f7"/><rect x="240" y="160" width="80" height="80" fill="#ffffff"/><rect x="240" y="160" width="40" height="40" fill="#e7e4e0"/><path d="M 240 160 A 40 40 0 0 1 280 200 L 240 200" fill="#9d9180"/><rect x="280" y="160" width="40" height="40" fill="#867762"/><rect x="280" y="160" width="40" height="40" fill="#e1e8e4"/><rect x="240" y="200" width="40" height="40" fill="#acc1c5"/><circle cx="260" cy="220" r="20" fill="#fbfaf8"/><rect x="280" y="200" width="40" height="40" fill="#c9c3b9"/><g transform="translate(280,200) scale(2) rotate(0)"><path d="M13 0H20V7L7 20H0V13L13 0Z" fill="#f1f4f3"/></g><rect x="320" y="160" width="80" height="80" fill="#f9fbfa"/><rect x="320" y="160" width="80" height="80" fill="#cec8c0"/><rect x="400" y="160" width="80" height="80" fill="#ffffff"/><rect x="400" y="160" width="40" height="40" fill="#988b79"/><g transform="translate(400,160) scale(2) rotate(0)"><path fill-rule="evenodd" clip-rule="evenodd" d="M10 20C15.5228 20 20 15.5228 20 10C20 4.47715 15.5228 0 10 0C4.47715 0 0 4.47715 0 10C0 15.5228 4.47715 20 10 20ZM10 17C13.866 17 17 13.866 17 10C17 6.13401 13.866 3 10 3C6.13401 3 3 6.13401 3 10C3 13.866 6.13401 17 10 17Z" fill="#f8f8f6"/></g><rect x="440" y="160" width="40" height="40" fill="#d2ccc4"/><g transform="translate(440,160) scale(2) rotate(0)"><path d="M13 0H20V7L7 20H0V13L13 0Z" fill="#aabfc3"/></g><rect x="400" y="200" width="40" height="40" fill="#dee5e1"/><g transform="translate(400,200) scale(2) rotate(0)"><path d="M10 0L20 10L10 20L0 10L10 0Z" fill="#ffffff"/></g><rect x="440" y="200" width="40" height="40" fill="#e9e6e3"/><path d="M 440 200 A 40 40 0 0 0 480 240 L 480 200" fill="#ebeae5"/><rect x="480" y="160" width="80" height="80" fill="#dddad3"/><g transform="translate(480,160) scale(4) rotate(0)"><path d="M10 0H20V10L10 20H0V10L10 0Z" fill="#ece6d8"/></g><rect x="0" y="240" width="80" height="80" fill="#ffffff"/><rect x="0" y="240" width="40" height="40" fill="#7c6c56"/><path d="M 0 240 A 40 40 0 0 1 40 280 L 0 280" fill="#f2efe6"/><rect x="40" y="240" width="40" height="40" fill="#cad7da"/><g transform="translate(40,240) scale(2) rotate(0)"><path fill-rule="evenodd" clip-rule="evenodd" d="M10 20C15.5228 20 20 15.5228 20 10C20 4.47715 15.5228 0 10 0C4.47715 0 0 4.47715 0 10C0 15.5228 4.47715 20 10 20ZM10 17C13.866 17 17 13.866 17 10C17 6.13401 13.866 3 10 3C6.13401 3 3 6.13401 3 10C3 13.866 6.13401 17 10 17Z" fill="#f4f3f1"/></g><rect x="0" y="280" width="40" height="40" fill="#eef1ef"/><g transform="translate(0,280) scale(2) rotate(0)"><path fill-rule="evenodd" clip-rule="evenodd" d="M10 20C15.5228 20 20 15.5228 20 10C20 4.47715 15.5228 0 10 0C4.47715 0 0 4.47715 0 10C0 15.5228 4.47715 20 10 20ZM10 17C13.866 17 17 13.866 17 10C17 6.13401 13.866 3 10 3C6.13401 3 3 6.13401 3 10C3 13.866 6.13401 17 10 17Z" fill="#80705a"/></g><rect x="40" y="280" width="40" height="40" fill="#c7d5d8"/><g transform="translate(40,280) scale(2) rotate(0)"><path fill-rule="evenodd" clip-rule="evenodd" d="M10 20C15.5228 20 20 15.5228 20 10C20 4.47715 15.5228 0 10 0C4.47715 0 0 4.47715 0 10C0 15.5228 4.47715 20 10 20ZM10 17C13.866 17 17 13.866 17 10C17 6.13401 13.866 3 10 3C6.13401 3 3 6.13401 3 10C3 13.866 6.13401 17 10 17Z" fill="#edf0ee"/></g><rect x="80" y="240" width="80" height="80" fill="#f1f4f3"/><path d="M 80 320 A 80 80 0 0 1  160 240 L 160 320" fill="#c1bcaf"/><rect x="160" y="240" width="80" height="80" fill="#b5c7ca"/><g transform="translate(160,240) scale(4) rotate(0)"><path fill-rule="evenodd" clip-rule="evenodd" d="M10 20C15.5228 20 20 15.5228 20 10C20 4.47715 15.5228 0 10 0C4.47715 0 0 4.47715 0 10C0 15.5228 4.47715 20 10 20ZM10 17C13.866 17 17 13.866 17 10C17 6.13401 13.866 3 10 3C6.13401 3 3 6.13401 3 10C3 13.866 6.13401 17 10 17Z" fill="#b6b0a1"/></g><rect x="240" y="240" width="80" height="80" fill="#c7c3b7"/><g transform="translate(240,240) scale(4) rotate(0)"><path d="M5 0H10L5 5L0 10V5L5 0Z" fill="#eae4d4"/><path d="M20 15V20H15L20 15Z" fill="#eae4d4"/><path d="M20 5V10L15 15L10 20H5L20 5Z" fill="#eae4d4"/><path d="M15 0H20L5 15.0002L0 20.0002V15.0002L15 0Z" fill="#eae4d4"/></g><rect x="320" y="240" width="80" height="80" fill="#ffffff"/><rect x="320" y="240" width="40" height="40" fill="#f2f1ee"/><circle cx="340" cy="260" r="20" fill="#b7aea2"/><rect x="360" y="240" width="40" height="40" fill="#867863"/><g transform="translate(360,240) scale(2) rotate(0)"><path d="M10 0H20V10L10 20H0V10L10 0Z" fill="#f3efe6"/></g><rect x="320" y="280" width="40" height="40" fill="#f8f9f8"/><path d="M 320 320 A 40 40 0 0 1  360 280 L 320 320 A 40 40 0 0 0 360 280" fill="#b2a99b"/><rect x="360" y="280" width="40" height="40" fill="#ece6d8"/><g transform="translate(360,280) scale(2) rotate(0)"><path d="M13 0H20V7L7 20H0V13L13 0Z" fill="#b6b0a0"/></g><rect x="400" y="240" width="80" height="80" fill="#ffffff"/><rect x="400" y="240" width="40" height="40" fill="#f9f9f8"/><g transform="translate(400,240) scale(2) rotate(0)"><path d="M5 0H10L5 5L0 10V5L5 0Z" fill="#a09884"/><path d="M20 15V20H15L20 15Z" fill="#a09884"/><path d="M20 5V10L15 15L10 20H5L20 5Z" fill="#a09884"/><path d="M15 0H20L5 15.0002L0 20.0002V15.0002L15 0Z" fill="#a09884"/></g><rect x="440" y="240" width="40" height="40" fill="#9eb5ba"/><g transform="translate(440,240) scale(2) rotate(0)"><path d="M10 0L20 10L10 20L0 10L10 0Z" fill="#ddd3b9"/></g><rect x="400" y="280" width="40" height="40" fill="#eeeade"/><circle cx="420" cy="300" r="20" fill="#dce3df"/><rect x="440" y="280" width="40" height="40" fill="#c6bfb6"/><circle cx="460" cy="300" r="20" fill="#eaeff0"/><rect x="480" y="240" width="80" height="80" fill="#faf8f4"/><rect x="480" y="240" width="80" height="80" fill="#a79c8d"/><rect x="0" y="320" width="80" height="80" fill="#dfd5bd"/><circle cx="40" cy="360" r="40" fill="#dfe6e2"/><rect x="80" y="320" width="80" height="80" fill="#ffffff"/><rect x="80" y="320" width="40" height="40" fill="#a39888"/><circle cx="100" cy="340" r="20" fill="#f9f8f3"/><rect x="120" y="320" width="40" height="40" fill="#fcfcfd"/><circle cx="140" cy="340" r="20" fill="#f2f1ee"/><rect x="80" y="360" width="40" height="40" fill="#e5ddca"/><g transform="translate(80,360) scale(2) rotate(0)"><path d="M13 0H20V7L7 20H0V13L13 0Z" fill="#d5dfe1"/></g><rect x="120" y="360" width="40" height="40" fill="#b0a799"/><g transform="translate(120,360) scale(2) rotate(0)"><path d="M5 0H10L5 5L0 10V5L5 0Z" fill="#f7f9f8"/><path d="M20 15V20H15L20 15Z" fill="#f7f9f8"/><path d="M20 5V10L15 15L10 20H5L20 5Z" fill="#f7f9f8"/><path d="M15 0H20L5 15.0002L0 20.0002V15.0002L15 0Z" fill="#f7f9f8"/></g><rect x="160" y="320" width="80" height="80" fill="#ffffff"/><rect x="160" y="320" width="40" height="40" fill="#dbd0b6"/><g transform="translate(160,320) scale(2) rotate(0)"><path d="M5 0H10L5 5L0 10V5L5 0Z" fill="#edf1ef"/><path d="M20 15V20H15L20 15Z" fill="#edf1ef"/><path d="M20 5V10L15 15L10 20H5L20 5Z" fill="#edf1ef"/><path d="M15 0H20L5 15.0002L0 20.0002V15.0002L15 0Z" fill="#edf1ef"/></g><rect x="200" y="320" width="40" height="40" fill="#fefefe"/><circle cx="220" cy="340" r="20" fill="#e9eeef"/><rect x="160" y="360" width="40" height="40" fill="#d8e2e4"/><g transform="translate(160,360) scale(2) rotate(0)"><path d="M13 0H20V7L7 20H0V13L13 0Z" fill="#e9edeb"/></g><rect x="200" y="360" width="40" height="40" fill="#f3f2f0"/><g transform="translate(200,360) scale(2) rotate(0)"><path d="M10 0H20V10L10 20H0V10L10 0Z" fill="#efeade"/></g><rect x="240" y="320" width="80" height="80" fill="#f0efec"/><g transform="translate(240,320) scale(4) rotate(0)"><path d="M5 0H10L5 5L0 10V5L5 0Z" fill="#fffefe"/><path d="M20 15V20H15L20 15Z" fill="#fffefe"/><path d="M20 5V10L15 15L10 20H5L20 5Z" fill="#fffefe"/><path d="M15 0H20L5 15.0002L0 20.0002V15.0002L15 0Z" fill="#fffefe"/></g><rect x="320" y="320" width="80" height="80" fill="#bfcfd2"/><g transform="translate(320,320) scale(4) rotate(0)"><path fill-rule="evenodd" clip-rule="evenodd" d="M10 20C15.5228 20 20 15.5228 20 10C20 4.47715 15.5228 0 10 0C4.47715 0 0 4.47715 0 10C0 15.5228 4.47715 20 10 20ZM10 17C13.866 17 17 13.866 17 10C17 6.13401 13.866 3 10 3C6.13401 3 3 6.13401 3 10C3 13.866 6.13401 17 10 17Z" fill="#cdc9be"/></g><rect x="400" y="320" width="80" height="80" fill="#fdfdfd"/><rect x="400" y="320" width="80" height="80" fill="#cbd7da"/><rect x="480" y="320" width="80" height="80" fill="#ffffff"/><rect x="480" y="320" width="40" height="40" fill="#b0c4c8"/><g transform="translate(480,320) scale(2) rotate(0)"><path d="M10 0H20V10L10 20H0V10L10 0Z" fill="#ece7d9"/></g><rect x="520" y="320" width="40" height="40" fill="#e7e4e0"/><g transform="translate(520,320) scale(2) rotate(0)"><path d="M5 0H10L5 5L0 10V5L5 0Z" fill="#e1e7e4"/><path d="M20 15V20H15L20 15Z" fill="#e1e7e4"/><path d="M20 5V10L15 15L10 20H5L20 5Z" fill="#e1e7e4"/><path d="M15 0H20L5 15.0002L0 20.0002V15.0002L15 0Z" fill="#e1e7e4"/></g><rect x="480" y="360" width="40" height="40" fill="#cbc4bb"/><g transform="translate(480,360) scale(2) rotate(0)"><path d="M10 0H20V10L10 20H0V10L10 0Z" fill="#c1bcaf"/></g><rect x="520" y="360" width="40" height="40" fill="#f9f7f2"/><g transform="translate(520,360) scale(2) rotate(0)"><path d="M10 0L20 10L10 20L0 10L10 0Z" fill="#b6ada1"/></g><rect x="0" y="400" width="80" height="80" fill="#ffffff"/><rect x="0" y="400" width="40" height="40" fill="#eae4d4"/><g transform="translate(0,400) scale(2) rotate(0)"><path fill-rule="evenodd" clip-rule="evenodd" d="M10 20C15.5228 20 20 15.5228 20 10C20 4.47715 15.5228 0 10 0C4.47715 0 0 4.47715 0 10C0 15.5228 4.47715 20 10 20ZM10 17C13.866 17 17 13.866 17 10C17 6.13401 13.866 3 10 3C6.13401 3 3 6.13401 3 10C3 13.866 6.13401 17 10 17Z" fill="#d6e0e2"/></g><rect x="40" y="400" width="40" height="40" fill="#877864"/><rect x="40" y="400" width="40" height="40" fill="#b7afa2"/><rect x="0" y="440" width="40" height="40" fill="#b0aa99"/><g transform="translate(0,440) scale(2) rotate(0)"><path d="M13 0H20V7L7 20H0V13L13 0Z" fill="#e1d8c1"/></g><rect x="40" y="440" width="40" height="40" fill="#f7f9f8"/><rect x="40" y="440" width="40" height="40" fill="#e7e0cf"/><rect x="80" y="400" width="80" height="80" fill="#a19585"/><circle cx="120" cy="440" r="40" fill="#f1f4f2"/><rect x="160" y="400" width="80" height="80" fill="#a7bdc1"/><g transform="translate(160,400) scale(4) rotate(0)"><path d="M10 0L20 10L10 20L0 10L10 0Z" fill="#f2f1ee"/></g><rect x="240" y="400" width="80" height="80" fill="#fcfbf9"/><path d="M 240 400 A 80 80 0 0 1  320 480 L 240 400 A 80 80 0 0 0 320 480" fill="#8c7e6b"/><rect x="320" y="400" width="80" height="80" fill="#bbb6a8"/><g transform="translate(320,400) scale(4) rotate(0)"><path fill-rule="evenodd" clip-rule="evenodd" d="M10 20C15.5228 20 20 15.5228 20 10C20 4.47715 15.5228 0 10 0C4.47715 0 0 4.47715 0 10C0 15.5228 4.47715 20 10 20ZM10 17C13.866 17 17 13.866 17 10C17 6.13401 13.866 3 10 3C6.13401 3 3 6.13401 3 10C3 13.866 6.13401 17 10 17Z" fill="#b4ae9e"/></g><rect x="400" y="400" width="80" height="80" fill="#e3e9e5"/><g transform="translate(400,400) scale(4) rotate(0)"><path d="M10 0H20V10L10 20H0V10L10 0Z" fill="#cfdadd"/></g><rect x="480" y="400" width="80" height="80" fill="#ffffff"/><rect x="480" y="400" width="40" height="40" fill="#fdfdfd"/><rect x="480" y="400" width="40" height="40" fill="#c0bcae"/><rect x="520" y="400" width="40" height="40" fill="#e7e0ce"/><path d="M 520 400 A 40 40 0 0 1  560 440 L 520 400 A 40 40 0 0 0 560 440" fill="#e9e7e3"/><rect x="480" y="440" width="40" height="40" fill="#a19a86"/><g transform="translate(480,440) scale(2) rotate(0)"><path d="M10 0H20V10L10 20H0V10L10 0Z" fill="#edf1ef"/></g><rect x="520" y="440" width="40" height="40" fill="#ddd9d3"/><g transform="translate(520,440) scale(2) rotate(0)"><path d="M10 0L20 10L10 20L0 10L10 0Z" fill="#afc3c7"/></g><rect x="0" y="480" width="80" height="80" fill="#ffffff"/><rect x="0" y="480" width="40" height="40" fill="#a9a290"/><g transform="translate(0,480) scale(2) rotate(0)"><path d="M13 0H20V7L7 20H0V13L13 0Z" fill="#9d9681"/></g><rect x="40" y="480" width="40" height="40" fill="#f4f1e8"/><path d="M 40 480 A 40 40 0 0 1  80 520 L 40 480 A 40 40 0 0 0 80 520" fill="#eeede9"/><rect x="0" y="520" width="40" height="40" fill="#c1b9af"/><g transform="translate(0,520) scale(2) rotate(0)"><path d="M10 0H20V10L10 20H0V10L10 0Z" fill="#bfb7ac"/></g><rect x="40" y="520" width="40" height="40" fill="#ecebe7"/><rect x="40" y="520" width="40" height="40" fill="#a49989"/><rect x="80" y="480" width="80" height="80" fill="#f1f4f2"/><g transform="translate(80,480) scale(4) rotate(0)"><path d="M10 0H20V10L10 20H0V10L10 0Z" fill="#e2dac4"/></g><rect x="160" y="480" width="80" height="80" fill="#ffffff"/><rect x="160" y="480" width="40" height="40" fill="#d0cac2"/><path d="M 160 480 A 40 40 0 0 1  200 520 L 160 480 A 40 40 0 0 0 200 520" fill="#f6f8f7"/><rect x="200" y="480" width="40" height="40" fill="#a19a86"/><path d="M 200 520 A 40 40 0 0 1  240 480 L 200 520 A 40 40 0 0 0 240 480" fill="#a3babe"/><rect x="160" y="520" width="40" height="40" fill="#e3e9e5"/><g transform="translate(160,520) scale(2) rotate(0)"><path fill-rule="evenodd" clip-rule="evenodd" d="M10 20C15.5228 20 20 15.5228 20 10C20 4.47715 15.5228 0 10 0C4.47715 0 0 4.47715 0 10C0 15.5228 4.47715 20 10 20ZM10 17C13.866 17 17 13.866 17 10C17 6.13401 13.866 3 10 3C6.13401 3 3 6.13401 3 10C3 13.866 6.13401 17 10 17Z" fill="#f1efed"/></g><rect x="200" y="520" width="40" height="40" fill="#d3dee0"/><g transform="translate(200,520) scale(2) rotate(0)"><path d="M5 0H10L5 5L0 10V5L5 0Z" fill="#fdfefe"/><path d="M20 15V20H15L20 15Z" fill="#fdfefe"/><path d="M20 5V10L15 15L10 20H5L20 5Z" fill="#fdfefe"/><path d="M15 0H20L5 15.0002L0 20.0002V15.0002L15 0Z" fill="#fdfefe"/></g><rect x="240" y="480" width="80" height="80" fill="#ffffff"/><rect x="240" y="480" width="40" height="40" fill="#f4f1e8"/><g transform="translate(240,480) scale(2) rotate(0)"><path d="M5 0H10L5 5L0 10V5L5 0Z" fill="#f0ece1"/><path d="M20 15V20H15L20 15Z" fill="#f0ece1"/><path d="M20 5V10L15 15L10 20H5L20 5Z" fill="#f0ece1"/><path d="M15 0H20L5 15.0002L0 20.0002V15.0002L15 0Z" fill="#f0ece1"/></g><rect x="280" y="480" width="40" height="40" fill="#bfb7ac"/><path d="M 280 520 A 40 40 0 0 0 320 480 L 280 480" fill="#f7f9f9"/><rect x="240" y="520" width="40" height="40" fill="#e9e7e3"/><g transform="translate(240,520) scale(2) rotate(0)"><path d="M5 0H10L5 5L0 10V5L5 0Z" fill="#9e9281"/><path d="M20 15V20H15L20 15Z" fill="#9e9281"/><path d="M20 5V10L15 15L10 20H5L20 5Z" fill="#9e9281"/><path d="M15 0H20L5 15.0002L0 20.0002V15.0002L15 0Z" fill="#9e9281"/></g><rect x="280" y="520" width="40" height="40" fill="#efebdf"/><path d="M 280 520 A 40 40 0 0 1  320 560 L 280 520 A 40 40 0 0 0 320 560" fill="#ccd8db"/><rect x="320" y="480" width="80" height="80" fill="#ffffff"/><rect x="320" y="480" width="40" height="40" fill="#b8c9cd"/><path d="M 320 520 A 40 40 0 0 1  360 480 L 360 520" fill="#eceae7"/><rect x="360" y="480" width="40" height="40" fill="#978a79"/><g transform="translate(360,480) scale(2) rotate(0)"><path d="M5 0H10L5 5L0 10V5L5 0Z" fill="#dfd6bf"/><path d="M20 15V20H15L20 15Z" fill="#dfd6bf"/><path d="M20 5V10L15 15L10 20H5L20 5Z" fill="#dfd6bf"/><path d="M15 0H20L5 15.0002L0 20.0002V15.0002L15 0Z" fill="#dfd6bf"/></g><rect x="320" y="520" width="40" height="40" fill="#f9f7f3"/><circle cx="340" cy="540" r="20" fill="#edece8"/><rect x="360" y="520" width="40" height="40" fill="#dce5e6"/><g transform="translate(360,520) scale(2) rotate(0)"><path d="M10 0H20V10L10 20H0V10L10 0Z" fill="#a29787"/></g><rect x="400" y="480" width="80" height="80" fill="#ffffff"/><rect x="400" y="480" width="40" height="40" fill="#e5eae7"/><g transform="translate(400,480) scale(2) rotate(0)"><path d="M10 0L20 10L10 20L0 10L10 0Z" fill="#faf8f4"/></g><rect x="440" y="480" width="40" height="40" fill="#fcfcfa"/><path d="M 440 480 A 40 40 0 0 1  480 520 L 440 480 A 40 40 0 0 0 480 520" fill="#dfe6e2"/><rect x="400" y="520" width="40" height="40" fill="#c4bdb3"/><path d="M 400 560 A 40 40 0 0 1  440 520 L 400 560 A 40 40 0 0 0 440 520" fill="#efebdf"/><rect x="440" y="520" width="40" height="40" fill="#d9ceb3"/><circle cx="460" cy="540" r="20" fill="#f8faf9"/><rect x="480" y="480" width="80" height="80" fill="#f2eee5"/><g transform="translate(480,480) scale(4) rotate(0)"><path d="M10 0L20 10L10 20L0 10L10 0Z" fill="#a19a86"/></g><rect x="0" y="560" width="80" height="80" fill="#ffffff"/><rect x="0" y="560" width="40" height="40" fill="#cdc9bf"/><path d="M 0 600 A 40 40 0 0 0 40 560 L 0 560" fill="#acc0c4"/><rect x="40" y="560" width="40" height="40" fill="#d8d5cc"/><path d="M 40 600 A 40 40 0 0 1  80 560 L 80 600" fill="#eef2f0"/><rect x="0" y="600" width="40" height="40" fill="#fbfcfb"/><path d="M 0 600 A 40 40 0 0 1  40 640 L 0 600 A 40 40 0 0 0 40 640" fill="#e5decb"/><rect x="40" y="600" width="40" height="40" fill="#ccc8bd"/><g transform="translate(40,600) scale(2) rotate(0)"><path d="M10 0H20V10L10 20H0V10L10 0Z" fill="#aea496"/></g><rect x="80" y="560" width="80" height="80" fill="#d8e1dc"/><path d="M 80 640 A 80 80 0 0 1  160 560 L 80 640 A 80 80 0 0 0 160 560" fill="#ffffff"/><rect x="160" y="560" width="80" height="80" fill="#e4e9e6"/><path d="M 160 640 A 80 80 0 0 1  240 560 L 160 640 A 80 80 0 0 0 240 560" fill="#f8f6f1"/><rect x="240" y="560" width="80" height="80" fill="#ded4bc"/><g transform="translate(240,560) scale(4) rotate(0)"><path d="M10 0L20 10L10 20L0 10L10 0Z" fill="#b2a99b"/></g><rect x="320" y="560" width="80" height="80" fill="#ede8db"/><g transform="translate(320,560) scale(4) rotate(0)"><path d="M5 0H10L5 5L0 10V5L5 0Z" fill="#e8edea"/><path d="M20 15V20H15L20 15Z" fill="#e8edea"/><path d="M20 5V10L15 15L10 20H5L20 5Z" fill="#e8edea"/><path d="M15 0H20L5 15.0002L0 20.0002V15.0002L15 0Z" fill="#e8edea"/></g><rect x="400" y="560" width="80" height="80" fill="#ffffff"/><rect x="400" y="560" width="40" height="40" fill="#dae3e5"/><g transform="translate(400,560) scale(2) rotate(0)"><path fill-rule="evenodd" clip-rule="evenodd" d="M10 20C15.5228 20 20 15.5228 20 10C20 4.47715 15.5228 0 10 0C4.47715 0 0 4.47715 0 10C0 15.5228 4.47715 20 10 20ZM10 17C13.866 17 17 13.866 17 10C17 6.13401 13.866 3 10 3C6.13401 3 3 6.13401 3 10C3 13.866 6.13401 17 10 17Z" fill="#d8e2e3"/></g><rect x="440" y="560" width="40" height="40" fill="#cdc9bf"/><g transform="translate(440,560) scale(2) rotate(0)"><path d="M5 0H10L5 5L0 10V5L5 0Z" fill="#ece7d9"/><path d="M20 15V20H15L20 15Z" fill="#ece7d9"/><path d="M20 5V10L15 15L10 20H5L20 5Z" fill="#ece7d9"/><path d="M15 0H20L5 15.0002L0 20.0002V15.0002L15 0Z" fill="#ece7d9"/></g><rect x="400" y="600" width="40" height="40" fill="#ebe5d7"/><g transform="translate(400,600) scale(2) rotate(0)"><path d="M10 0H20V10L10 20H0V10L10 0Z" fill="#e8e1d0"/></g><rect x="440" y="600" width="40" height="40" fill="#d1cbc3"/><circle cx="460" cy="620" r="20" fill="#e6e3df"/><rect x="480" y="560" width="80" height="80" fill="#ebe6d7"/><circle cx="520" cy="600" r="40" fill="#e8e2d1"/><rect x="0" y="640" width="80" height="80" fill="#aba593"/><g transform="translate(0,640) scale(4) rotate(0)"><path d="M10 0H20V10L10 20H0V10L10 0Z" fill="#dcd2b9"/></g><rect x="80" y="640" width="80" height="80" fill="#ffffff"/><rect x="80" y="640" width="40" height="40" fill="#c8c1b7"/><g transform="translate(80,640) scale(2) rotate(0)"><path fill-rule="evenodd" clip-rule="evenodd" d="M10 20C15.5228 20 20 15.5228 20 10C20 4.47715 15.5228 0 10 0C4.47715 0 0 4.47715 0 10C0 15.5228 4.47715 20 10 20ZM10 17C13.866 17 17 13.866 17 10C17 6.13401 13.866 3 10 3C6.13401 3 3 6.13401 3 10C3 13.866 6.13401 17 10 17Z" fill="#f3f5f4"/></g><rect x="120" y="640" width="40" height="40" fill="#b8b2a3"/><g transform="translate(120,640) scale(2) rotate(0)"><path d="M10 0H20V10L10 20H0V10L10 0Z" fill="#fdfdfd"/></g><rect x="80" y="680" width="40" height="40" fill="#a49989"/><path d="M 80 720 A 40 40 0 0 1  120 680 L 80 720 A 40 40 0 0 0 120 680" fill="#f6f8f8"/><rect x="120" y="680" width="40" height="40" fill="#99927c"/><rect x="120" y="680" width="40" height="40" fill="#d5ded9"/><rect x="160" y="640" width="80" height="80" fill="#9fb7bb"/><g transform="translate(160,640) scale(4) rotate(0)"><path d="M10 0L20 10L10 20L0 10L10 0Z" fill="#988c7a"/></g><rect x="240" y="640" width="80" height="80" fill="#f4f3f1"/><g transform="translate(240,640) scale(4) rotate(0)"><path d="M10 0H20V10L10 20H0V10L10 0Z" fill="#d5ded9"/></g><rect x="320" y="640" width="80" height="80" fill="#cbd8db"/><g transform="translate(320,640) scale(4) rotate(0)"><path d="M13 0H20V7L7 20H0V13L13 0Z" fill="#b0aa99"/></g><rect x="400" y="640" width="80" height="80" fill="#ffffff"/><rect x="400" y="640" width="40" height="40" fill="#f4f3f1"/><g transform="translate(400,640) scale(2) rotate(0)"><path fill-rule="evenodd" clip-rule="evenodd" d="M10 20C15.5228 20 20 15.5228 20 10C20 4.47715 15.5228 0 10 0C4.47715 0 0 4.47715 0 10C0 15.5228 4.47715 20 10 20ZM10 17C13.866 17 17 13.866 17 10C17 6.13401 13.866 3 10 3C6.13401 3 3 6.13401 3 10C3 13.866 6.13401 17 10 17Z" fill="#e6e4df"/></g><rect x="440" y="640" width="40" height="40" fill="#e4eaec"/><g transform="translate(440,640) scale(2) rotate(0)"><path d="M10 0L20 10L10 20L0 10L10 0Z" fill="#ecf0ed"/></g><rect x="400" y="680" width="40" height="40" fill="#c6c2b6"/><path d="M 400 720 A 40 40 0 0 1  440 680 L 400 720 A 40 40 0 0 0 440 680" fill="#c6bfb6"/><rect x="440" y="680" width="40" height="40" fill="#ded5bd"/><rect x="440" y="680" width="40" height="40" fill="#e3e0db"/><rect x="480" y="640" width="80" height="80" fill="#ffffff"/><rect x="480" y="640" width="40" height="40" fill="#9c957f"/><circle cx="500" cy="660" r="20" fill="#b3aa9d"/><rect x="520" y="640" width="40" height="40" fill="#948875"/><path d="M 520 640 A 40 40 0 0 1  560 680 L 520 640 A 40 40 0 0 0 560 680" fill="#efeadf"/><rect x="480" y="680" width="40" height="40" fill="#eaeff0"/><g transform="translate(480,680) scale(2) rotate(0)"><path d="M13 0H20V7L7 20H0V13L13 0Z" fill="#c2bdb0"/></g><rect x="520" y="680" width="40" height="40" fill="#f1efed"/><g transform="translate(520,680) scale(2) rotate(0)"><path d="M5 0H10L5 5L0 10V5L5 0Z" fill="#d4dee0"/><path d="M20 15V20H15L20 15Z" fill="#d4dee0"/><path d="M20 5V10L15 15L10 20H5L20 5Z" fill="#d4dee0"/><path d="M15 0H20L5 15.0002L0 20.0002V15.0002L15 0Z" fill="#d4dee0"/></g></g></svg>