<?xml version="1.0" standalone="no"?><svg xmlns:xlink="http://www.w3.org/1999/xlink" xmlns="http://www.w3.org/2000/svg" viewBox="0 0 1000 1285.7142857142858" preserveAspectRatio="xMaxYMax slice"><g transform="scale(1.7857142857142858)"><rect x="0" y="0" width="560" height="720" fill="#ffffff"/><rect x="0" y="0" width="80" height="80" fill="#f9efec"/><rect x="0" y="0" width="80" height="80" fill="#a39a8f"/><rect x="80" y="0" width="80" height="80" fill="#fbfbe0"/><g transform="translate(80,0) scale(4) rotate(0)"><path d="M13 0H20V7L7 20H0V13L13 0Z" fill="#beb8b0"/></g><rect x="160" y="0" width="80" height="80" fill="#e9b53e"/><path d="M 160 80 A 80 80 0 0 1  240 0 L 160 80 A 80 80 0 0 0 240 0" fill="#fefef5"/><rect x="240" y="0" width="80" height="80" fill="#ffffff"/><rect x="240" y="0" width="40" height="40" fill="#847868"/><path d="M 240 0 A 40 40 0 0 1  280 40 L 240 0 A 40 40 0 0 0 280 40" fill="#fcf7e9"/><rect x="280" y="0" width="40" height="40" fill="#eecfc5"/><path d="M 280 40 A 40 40 0 0 1  320 0 L 320 40" fill="#e2f0ea"/><rect x="240" y="40" width="40" height="40" fill="#c6e1d6"/><g transform="translate(240,40) scale(2) rotate(0)"><path d="M5 0H10L5 5L0 10V5L5 0Z" fill="#e0a896"/><path d="M20 15V20H15L20 15Z" fill="#e0a896"/><path d="M20 5V10L15 15L10 20H5L20 5Z" fill="#e0a896"/><path d="M15 0H20L5 15.0002L0 20.0002V15.0002L15 0Z" fill="#e0a896"/></g><rect x="280" y="40" width="40" height="40" fill="#f9f9d1"/><g transform="translate(280,40) scale(2) rotate(0)"><path d="M10 0H20L0 20V10L10 0Z" fill="#ebf5f1"/><path d="M20 10V20H10L20 10Z" fill="#ebf5f1"/></g><rect x="320" y="0" width="80" height="80" fill="#ffffff"/><rect x="320" y="0" width="40" height="40" fill="#cc7154"/><g transform="translate(320,0) scale(2) rotate(0)"><path d="M5 0H10L5 5L0 10V5L5 0Z" fill="#f3f2f0"/><path d="M20 15V20H15L20 15Z" fill="#f3f2f0"/><path d="M20 5V10L15 15L10 20H5L20 5Z" fill="#f3f2f0"/><path d="M15 0H20L5 15.0002L0 20.0002V15.0002L15 0Z" fill="#f3f2f0"/></g><rect x="360" y="0" width="40" height="40" fill="#a7d0bf"/><rect x="360" y="0" width="40" height="40" fill="#95c7b2"/><rect x="320" y="40" width="40" height="40" fill="#a0cdba"/><g transform="translate(320,40) scale(2) rotate(0)"><path fill-rule="evenodd" clip-rule="evenodd" d="M10 20C15.5228 20 20 15.5228 20 10C20 4.47715 15.5228 0 10 0C4.47715 0 0 4.47715 0 10C0 15.5228 4.47715 20 10 20ZM10 17C13.866 17 17 13.866 17 10C17 6.13401 13.866 3 10 3C6.13401 3 3 6.13401 3 10C3 13.866 6.13401 17 10 17Z" fill="#9f968a"/></g><rect x="360" y="40" width="40" height="40" fill="#817465"/><g transform="translate(360,40) scale(2) rotate(0)"><path d="M10 0L20 10L10 20L0 10L10 0Z" fill="#cce4da"/></g><rect x="400" y="0" width="80" height="80" fill="#ffffff"/><rect x="400" y="0" width="40" height="40" fill="#fefcf7"/><g transform="translate(400,0) scale(2) rotate(0)"><path d="M13 0H20V7L7 20H0V13L13 0Z" fill="#fcfcea"/></g><rect x="440" y="0" width="40" height="40" fill="#edc464"/><rect x="440" y="0" width="40" height="40" fill="#f7f8c2"/><rect x="400" y="40" width="40" height="40" fill="#f1f0ee"/><path d="M 400 40 A 40 40 0 0 1  440 80 L 400 40 A 40 40 0 0 0 440 80" fill="#edc364"/><rect x="440" y="40" width="40" height="40" fill="#f8f9ce"/><g transform="translate(440,40) scale(2) rotate(0)"><path d="M10 0H20L0 20V10L10 0Z" fill="#f1d28a"/><path d="M20 10V20H10L20 10Z" fill="#f1d28a"/></g><rect x="480" y="0" width="80" height="80" fill="#ffffff"/><rect x="480" y="0" width="40" height="40" fill="#c2dfd3"/><g transform="translate(480,0) scale(2) rotate(0)"><path fill-rule="evenodd" clip-rule="evenodd" d="M10 20C15.5228 20 20 15.5228 20 10C20 4.47715 15.5228 0 10 0C4.47715 0 0 4.47715 0 10C0 15.5228 4.47715 20 10 20ZM10 17C13.866 17 17 13.866 17 10C17 6.13401 13.866 3 10 3C6.13401 3 3 6.13401 3 10C3 13.866 6.13401 17 10 17Z" fill="#f9eccd"/></g><rect x="520" y="0" width="40" height="40" fill="#cac5bf"/><path d="M 520 40 A 40 40 0 0 0 560 0 L 520 0" fill="#847869"/><rect x="480" y="40" width="40" height="40" fill="#d68d76"/><g transform="translate(480,40) scale(2) rotate(0)"><path d="M10 0H20L0 20V10L10 0Z" fill="#fafcfb"/><path d="M20 10V20H10L20 10Z" fill="#fafcfb"/></g><rect x="520" y="40" width="40" height="40" fill="#fbfce5"/><rect x="520" y="40" width="40" height="40" fill="#9d9387"/><rect x="0" y="80" width="80" height="80" fill="#f7e3b7"/><path d="M 0 160 A 80 80 0 0 1  80 80 L 0 160 A 80 80 0 0 0 80 80" fill="#ebbc50"/><rect x="80" y="80" width="80" height="80" fill="#ffffff"/><rect x="80" y="80" width="40" height="40" fill="#f8f9cd"/><path d="M 80 80 A 40 40 0 0 1  120 120 L 80 80 A 40 40 0 0 0 120 120" fill="#92887a"/><rect x="120" y="80" width="40" height="40" fill="#f8f9cd"/><g transform="translate(120,80) scale(2) rotate(0)"><path d="M10 0H20L0 20V10L10 0Z" fill="#a6d0be"/><path d="M20 10V20H10L20 10Z" fill="#a6d0be"/></g><rect x="80" y="120" width="40" height="40" fill="#faf0ed"/><g transform="translate(80,120) scale(2) rotate(0)"><path d="M10 0H20L0 20V10L10 0Z" fill="#dfeee8"/><path d="M20 10V20H10L20 10Z" fill="#dfeee8"/></g><rect x="120" y="120" width="40" height="40" fill="#cbe3d9"/><g transform="translate(120,120) scale(2) rotate(0)"><path fill-rule="evenodd" clip-rule="evenodd" d="M10 20C15.5228 20 20 15.5228 20 10C20 4.47715 15.5228 0 10 0C4.47715 0 0 4.47715 0 10C0 15.5228 4.47715 20 10 20ZM10 17C13.866 17 17 13.866 17 10C17 6.13401 13.866 3 10 3C6.13401 3 3 6.13401 3 10C3 13.866 6.13401 17 10 17Z" fill="#c0502c"/></g><rect x="160" y="80" width="80" height="80" fill="#ffffff"/><rect x="160" y="80" width="40" height="40" fill="#c96949"/><g transform="translate(160,80) scale(2) rotate(0)"><path d="M10 0H20V10L10 20H0V10L10 0Z" fill="#fffffe"/></g><rect x="200" y="80" width="40" height="40" fill="#c35836"/><circle cx="220" cy="100" r="20" fill="#6f614f"/><rect x="160" y="120" width="40" height="40" fill="#b1a9a0"/><g transform="translate(160,120) scale(2) rotate(0)"><path d="M10 0L20 10L10 20L0 10L10 0Z" fill="#e9f3ef"/></g><rect x="200" y="120" width="40" height="40" fill="#ddede7"/><g transform="translate(200,120) scale(2) rotate(0)"><path d="M13 0H20V7L7 20H0V13L13 0Z" fill="#cd7558"/></g><rect x="240" y="80" width="80" height="80" fill="#f2f1f0"/><path d="M 240 80 A 80 80 0 0 1  320 160 L 240 80 A 80 80 0 0 0 320 160" fill="#a79f94"/><rect x="320" y="80" width="80" height="80" fill="#ffffff"/><rect x="320" y="80" width="40" height="40" fill="#eccabf"/><g transform="translate(320,80) scale(2) rotate(0)"><path d="M13 0H20V7L7 20H0V13L13 0Z" fill="#988e81"/></g><rect x="360" y="80" width="40" height="40" fill="#b2d6c7"/><g transform="translate(360,80) scale(2) rotate(0)"><path d="M5 0H10L5 5L0 10V5L5 0Z" fill="#d79079"/><path d="M20 15V20H15L20 15Z" fill="#d79079"/><path d="M20 5V10L15 15L10 20H5L20 5Z" fill="#d79079"/><path d="M15 0H20L5 15.0002L0 20.0002V15.0002L15 0Z" fill="#d79079"/></g><rect x="320" y="120" width="40" height="40" fill="#fafbdb"/><g transform="translate(320,120) scale(2) rotate(0)"><path d="M10 0H20V10L10 20H0V10L10 0Z" fill="#f7e4b9"/></g><rect x="360" y="120" width="40" height="40" fill="#dda18d"/><rect x="360" y="120" width="40" height="40" fill="#cbe3d9"/><rect x="400" y="80" width="80" height="80" fill="#ffffff"/><rect x="400" y="80" width="40" height="40" fill="#fbfce3"/><path d="M 400 80 A 40 40 0 0 1  440 120 L 400 80 A 40 40 0 0 0 440 120" fill="#e1efe9"/><rect x="440" y="80" width="40" height="40" fill="#f2dad2"/><path d="M 440 120 A 40 40 0 0 1  480 80 L 440 120 A 40 40 0 0 0 480 80" fill="#8cc2ac"/><rect x="400" y="120" width="40" height="40" fill="#cb6f51"/><path d="M 400 120 A 40 40 0 0 0 440 160 L 440 120" fill="#eaba4b"/><rect x="440" y="120" width="40" height="40" fill="#db9c88"/><g transform="translate(440,120) scale(2) rotate(0)"><path d="M5 0H10L5 5L0 10V5L5 0Z" fill="#f9fad5"/><path d="M20 15V20H15L20 15Z" fill="#f9fad5"/><path d="M20 5V10L15 15L10 20H5L20 5Z" fill="#f9fad5"/><path d="M15 0H20L5 15.0002L0 20.0002V15.0002L15 0Z" fill="#f9fad5"/></g><rect x="480" y="80" width="80" height="80" fill="#f9fad2"/><path d="M 480 160 A 80 80 0 0 1  560 80 L 480 160 A 80 80 0 0 0 560 80" fill="#f1d084"/><rect x="0" y="160" width="80" height="80" fill="#ffffff"/><rect x="0" y="160" width="40" height="40" fill="#dfa694"/><path d="M 0 200 A 40 40 0 0 1  40 160 L 0 200 A 40 40 0 0 0 40 160" fill="#fffffc"/><rect x="40" y="160" width="40" height="40" fill="#edebe9"/><rect x="40" y="160" width="40" height="40" fill="#fafada"/><rect x="0" y="200" width="40" height="40" fill="#e3e1dd"/><path d="M 0 200 A 40 40 0 0 1  40 240 L 0 200 A 40 40 0 0 0 40 240" fill="#ebe9e7"/><rect x="40" y="200" width="40" height="40" fill="#6e604e"/><g transform="translate(40,200) scale(2) rotate(0)"><path d="M10 0H20L0 20V10L10 0Z" fill="#fffffc"/><path d="M20 10V20H10L20 10Z" fill="#fffffc"/></g><rect x="80" y="160" width="80" height="80" fill="#ffffff"/><rect x="80" y="160" width="40" height="40" fill="#a69d92"/><g transform="translate(80,160) scale(2) rotate(0)"><path d="M5 0H10L5 5L0 10V5L5 0Z" fill="#847869"/><path d="M20 15V20H15L20 15Z" fill="#847869"/><path d="M20 5V10L15 15L10 20H5L20 5Z" fill="#847869"/><path d="M15 0H20L5 15.0002L0 20.0002V15.0002L15 0Z" fill="#847869"/></g><rect x="120" y="160" width="40" height="40" fill="#d99680"/><g transform="translate(120,160) scale(2) rotate(0)"><path d="M5 0H10L5 5L0 10V5L5 0Z" fill="#f4dba2"/><path d="M20 15V20H15L20 15Z" fill="#f4dba2"/><path d="M20 5V10L15 15L10 20H5L20 5Z" fill="#f4dba2"/><path d="M15 0H20L5 15.0002L0 20.0002V15.0002L15 0Z" fill="#f4dba2"/></g><rect x="80" y="200" width="40" height="40" fill="#e5b6a7"/><g transform="translate(80,200) scale(2) rotate(0)"><path d="M5 0H10L5 5L0 10V5L5 0Z" fill="#d68e76"/><path d="M20 15V20H15L20 15Z" fill="#d68e76"/><path d="M20 5V10L15 15L10 20H5L20 5Z" fill="#d68e76"/><path d="M15 0H20L5 15.0002L0 20.0002V15.0002L15 0Z" fill="#d68e76"/></g><rect x="120" y="200" width="40" height="40" fill="#faeed2"/><g transform="translate(120,200) scale(2) rotate(0)"><path d="M10 0H20V10L10 20H0V10L10 0Z" fill="#e9f4ef"/></g><rect x="160" y="160" width="80" height="80" fill="#ffffff"/><rect x="160" y="160" width="40" height="40" fill="#9d9387"/><g transform="translate(160,160) scale(2) rotate(0)"><path d="M13 0H20V7L7 20H0V13L13 0Z" fill="#c2dfd3"/></g><rect x="200" y="160" width="40" height="40" fill="#ecc05a"/><g transform="translate(200,160) scale(2) rotate(0)"><path fill-rule="evenodd" clip-rule="evenodd" d="M10 20C15.5228 20 20 15.5228 20 10C20 4.47715 15.5228 0 10 0C4.47715 0 0 4.47715 0 10C0 15.5228 4.47715 20 10 20ZM10 17C13.866 17 17 13.866 17 10C17 6.13401 13.866 3 10 3C6.13401 3 3 6.13401 3 10C3 13.866 6.13401 17 10 17Z" fill="#867a6b"/></g><rect x="160" y="200" width="40" height="40" fill="#f7f8c5"/><g transform="translate(160,200) scale(2) rotate(0)"><path d="M10 0L20 10L10 20L0 10L10 0Z" fill="#e7bbad"/></g><rect x="200" y="200" width="40" height="40" fill="#f9ebcb"/><g transform="translate(200,200) scale(2) rotate(0)"><path d="M10 0L20 10L10 20L0 10L10 0Z" fill="#f7f8c3"/></g><rect x="240" y="160" width="80" height="80" fill="#b9dacd"/><path d="M 240 240 A 80 80 0 0 1  320 160 L 240 240 A 80 80 0 0 0 320 160" fill="#c8c2bb"/><rect x="320" y="160" width="80" height="80" fill="#fdfdf1"/><path d="M 320 240 A 80 80 0 0 1  400 160 L 320 240 A 80 80 0 0 0 400 160" fill="#aaa197"/><rect x="400" y="160" width="80" height="80" fill="#ffffff"/><rect x="400" y="160" width="40" height="40" fill="#877b6c"/><g transform="translate(400,160) scale(2) rotate(0)"><path d="M10 0L20 10L10 20L0 10L10 0Z" fill="#fcfdfd"/></g><rect x="440" y="160" width="40" height="40" fill="#f7f8c4"/><g transform="translate(440,160) scale(2) rotate(0)"><path d="M13 0H20V7L7 20H0V13L13 0Z" fill="#84bea6"/></g><rect x="400" y="200" width="40" height="40" fill="#faedd0"/><g transform="translate(400,200) scale(2) rotate(0)"><path d="M13 0H20V7L7 20H0V13L13 0Z" fill="#f6dfad"/></g><rect x="440" y="200" width="40" height="40" fill="#eaba4d"/><g transform="translate(440,200) scale(2) rotate(0)"><path d="M10 0H20V10L10 20H0V10L10 0Z" fill="#e3b1a0"/></g><rect x="480" y="160" width="80" height="80" fill="#ffffff"/><rect x="480" y="160" width="40" height="40" fill="#c76342"/><g transform="translate(480,160) scale(2) rotate(0)"><path d="M13 0H20V7L7 20H0V13L13 0Z" fill="#d3856c"/></g><rect x="520" y="160" width="40" height="40" fill="#f5dea9"/><g transform="translate(520,160) scale(2) rotate(0)"><path d="M10 0H20V10L10 20H0V10L10 0Z" fill="#f8f9cb"/></g><rect x="480" y="200" width="40" height="40" fill="#fdf9f0"/><g transform="translate(480,200) scale(2) rotate(0)"><path d="M10 0L20 10L10 20L0 10L10 0Z" fill="#fbfce2"/></g><rect x="520" y="200" width="40" height="40" fill="#c15430"/><g transform="translate(520,200) scale(2) rotate(0)"><path d="M10 0L20 10L10 20L0 10L10 0Z" fill="#c3dfd4"/></g><rect x="0" y="240" width="80" height="80" fill="#cc7052"/><rect x="0" y="240" width="80" height="80" fill="#d5e9e0"/><rect x="80" y="240" width="80" height="80" fill="#867a6b"/><g transform="translate(80,240) scale(4) rotate(0)"><path d="M13 0H20V7L7 20H0V13L13 0Z" fill="#f4e1da"/></g><rect x="160" y="240" width="80" height="80" fill="#cb6e50"/><path d="M 160 320 A 80 80 0 0 1  240 240 L 160 320 A 80 80 0 0 0 240 240" fill="#fcf4e2"/><rect x="240" y="240" width="80" height="80" fill="#efedeb"/><g transform="translate(240,240) scale(4) rotate(0)"><path d="M5 0H10L5 5L0 10V5L5 0Z" fill="#fdf8ec"/><path d="M20 15V20H15L20 15Z" fill="#fdf8ec"/><path d="M20 5V10L15 15L10 20H5L20 5Z" fill="#fdf8ec"/><path d="M15 0H20L5 15.0002L0 20.0002V15.0002L15 0Z" fill="#fdf8ec"/></g><rect x="320" y="240" width="80" height="80" fill="#94c7b2"/><path d="M 320 320 A 80 80 0 0 1  400 240 L 320 320 A 80 80 0 0 0 400 240" fill="#d9d5d0"/><rect x="400" y="240" width="80" height="80" fill="#ffffff"/><rect x="400" y="240" width="40" height="40" fill="#beddd0"/><g transform="translate(400,240) scale(2) rotate(0)"><path d="M10 0H20V10L10 20H0V10L10 0Z" fill="#e2f0ea"/></g><rect x="440" y="240" width="40" height="40" fill="#dfa593"/><path d="M 440 280 A 40 40 0 0 1  480 240 L 440 280 A 40 40 0 0 0 480 240" fill="#f7f8c2"/><rect x="400" y="280" width="40" height="40" fill="#b4ada4"/><rect x="400" y="280" width="40" height="40" fill="#fbfbde"/><rect x="440" y="280" width="40" height="40" fill="#fefef5"/><g transform="translate(440,280) scale(2) rotate(0)"><path d="M10 0H20V10L10 20H0V10L10 0Z" fill="#fafcfb"/></g><rect x="480" y="240" width="80" height="80" fill="#a3cebc"/><path d="M 480 320 A 80 80 0 0 1  560 240 L 480 320 A 80 80 0 0 0 560 240" fill="#fffffd"/><rect x="0" y="320" width="80" height="80" fill="#c9c3bd"/><g transform="translate(0,320) scale(4) rotate(0)"><path d="M10 0H20V10L10 20H0V10L10 0Z" fill="#e8e6e3"/></g><rect x="80" y="320" width="80" height="80" fill="#ffffff"/><rect x="80" y="320" width="40" height="40" fill="#83bda5"/><circle cx="100" cy="340" r="20" fill="#fafbde"/><rect x="120" y="320" width="40" height="40" fill="#fcf4e3"/><g transform="translate(120,320) scale(2) rotate(0)"><path fill-rule="evenodd" clip-rule="evenodd" d="M10 20C15.5228 20 20 15.5228 20 10C20 4.47715 15.5228 0 10 0C4.47715 0 0 4.47715 0 10C0 15.5228 4.47715 20 10 20ZM10 17C13.866 17 17 13.866 17 10C17 6.13401 13.866 3 10 3C6.13401 3 3 6.13401 3 10C3 13.866 6.13401 17 10 17Z" fill="#e6ad29"/></g><rect x="80" y="360" width="40" height="40" fill="#d18065"/><g transform="translate(80,360) scale(2) rotate(0)"><path fill-rule="evenodd" clip-rule="evenodd" d="M10 20C15.5228 20 20 15.5228 20 10C20 4.47715 15.5228 0 10 0C4.47715 0 0 4.47715 0 10C0 15.5228 4.47715 20 10 20ZM10 17C13.866 17 17 13.866 17 10C17 6.13401 13.866 3 10 3C6.13401 3 3 6.13401 3 10C3 13.866 6.13401 17 10 17Z" fill="#fdf8ee"/></g><rect x="120" y="360" width="40" height="40" fill="#f9eccd"/><path d="M 120 400 A 40 40 0 0 1  160 360 L 120 400 A 40 40 0 0 0 160 360" fill="#847869"/><rect x="160" y="320" width="80" height="80" fill="#ffffff"/><rect x="160" y="320" width="40" height="40" fill="#d99681"/><g transform="translate(160,320) scale(2) rotate(0)"><path d="M13 0H20V7L7 20H0V13L13 0Z" fill="#fefefa"/></g><rect x="200" y="320" width="40" height="40" fill="#e8b134"/><circle cx="220" cy="340" r="20" fill="#fcfce6"/><rect x="160" y="360" width="40" height="40" fill="#f9f9d1"/><circle cx="180" cy="380" r="20" fill="#eae8e5"/><rect x="200" y="360" width="40" height="40" fill="#88c0a8"/><g transform="translate(200,360) scale(2) rotate(0)"><path d="M10 0L20 10L10 20L0 10L10 0Z" fill="#ebbe56"/></g><rect x="240" y="320" width="80" height="80" fill="#e6b9aa"/><g transform="translate(240,320) scale(4) rotate(0)"><path d="M5 0H10L5 5L0 10V5L5 0Z" fill="#ffffff"/><path d="M20 15V20H15L20 15Z" fill="#ffffff"/><path d="M20 5V10L15 15L10 20H5L20 5Z" fill="#ffffff"/><path d="M15 0H20L5 15.0002L0 20.0002V15.0002L15 0Z" fill="#ffffff"/></g><rect x="320" y="320" width="80" height="80" fill="#f4da9e"/><g transform="translate(320,320) scale(4) rotate(0)"><path d="M10 0H20L0 20V10L10 0Z" fill="#cd7457"/><path d="M20 10V20H10L20 10Z" fill="#cd7457"/></g><rect x="400" y="320" width="80" height="80" fill="#ffffff"/><rect x="400" y="320" width="40" height="40" fill="#f8f9cb"/><path d="M 400 360 A 40 40 0 0 1  440 320 L 400 360 A 40 40 0 0 0 440 320" fill="#8e8375"/><rect x="440" y="320" width="40" height="40" fill="#e7f2ed"/><g transform="translate(440,320) scale(2) rotate(0)"><path d="M10 0H20V10L10 20H0V10L10 0Z" fill="#f6f7bf"/></g><rect x="400" y="360" width="40" height="40" fill="#c55d3c"/><rect x="400" y="360" width="40" height="40" fill="#c6e1d5"/><rect x="440" y="360" width="40" height="40" fill="#d8d5d0"/><rect x="440" y="360" width="40" height="40" fill="#f7f8c5"/><rect x="480" y="320" width="80" height="80" fill="#ffffff"/><rect x="480" y="320" width="40" height="40" fill="#f7e5bd"/><g transform="translate(480,320) scale(2) rotate(0)"><path fill-rule="evenodd" clip-rule="evenodd" d="M10 20C15.5228 20 20 15.5228 20 10C20 4.47715 15.5228 0 10 0C4.47715 0 0 4.47715 0 10C0 15.5228 4.47715 20 10 20ZM10 17C13.866 17 17 13.866 17 10C17 6.13401 13.866 3 10 3C6.13401 3 3 6.13401 3 10C3 13.866 6.13401 17 10 17Z" fill="#f7e5ba"/></g><rect x="520" y="320" width="40" height="40" fill="#e8b134"/><path d="M 520 360 A 40 40 0 0 1  560 320 L 520 360 A 40 40 0 0 0 560 320" fill="#f6f7c0"/><rect x="480" y="360" width="40" height="40" fill="#f9eccf"/><g transform="translate(480,360) scale(2) rotate(0)"><path d="M10 0L20 10L10 20L0 10L10 0Z" fill="#fafad9"/></g><rect x="520" y="360" width="40" height="40" fill="#cf785c"/><rect x="520" y="360" width="40" height="40" fill="#fdfef3"/><rect x="0" y="400" width="80" height="80" fill="#c76342"/><g transform="translate(0,400) scale(4) rotate(0)"><path d="M10 0H20V10L10 20H0V10L10 0Z" fill="#e8f3ee"/></g><rect x="80" y="400" width="80" height="80" fill="#fbfce5"/><circle cx="120" cy="440" r="40" fill="#b9b2aa"/><rect x="160" y="400" width="80" height="80" fill="#deeee7"/><g transform="translate(160,400) scale(4) rotate(0)"><path d="M5 0H10L5 5L0 10V5L5 0Z" fill="#e2efea"/><path d="M20 15V20H15L20 15Z" fill="#e2efea"/><path d="M20 5V10L15 15L10 20H5L20 5Z" fill="#e2efea"/><path d="M15 0H20L5 15.0002L0 20.0002V15.0002L15 0Z" fill="#e2efea"/></g><rect x="240" y="400" width="80" height="80" fill="#ffffff"/><rect x="240" y="400" width="40" height="40" fill="#95c7b2"/><path d="M 240 400 A 40 40 0 0 1  280 440 L 240 400 A 40 40 0 0 0 280 440" fill="#f4dba1"/><rect x="280" y="400" width="40" height="40" fill="#eac5ba"/><g transform="translate(280,400) scale(2) rotate(0)"><path d="M10 0L20 10L10 20L0 10L10 0Z" fill="#db9b87"/></g><rect x="240" y="440" width="40" height="40" fill="#fefefa"/><g transform="translate(240,440) scale(2) rotate(0)"><path d="M10 0H20V10L10 20H0V10L10 0Z" fill="#8bc2ab"/></g><rect x="280" y="440" width="40" height="40" fill="#b0a99f"/><path d="M 280 480 A 40 40 0 0 1  320 440 L 320 480" fill="#f0d4cc"/><rect x="320" y="400" width="80" height="80" fill="#ffffff"/><rect x="320" y="400" width="40" height="40" fill="#f1f8f5"/><path d="M 320 400 A 40 40 0 0 1  360 440 L 320 400 A 40 40 0 0 0 360 440" fill="#f5dfad"/><rect x="360" y="400" width="40" height="40" fill="#e6ad2b"/><g transform="translate(360,400) scale(2) rotate(0)"><path d="M13 0H20V7L7 20H0V13L13 0Z" fill="#fbfbde"/></g><rect x="320" y="440" width="40" height="40" fill="#cae3d8"/><g transform="translate(320,440) scale(2) rotate(0)"><path fill-rule="evenodd" clip-rule="evenodd" d="M10 20C15.5228 20 20 15.5228 20 10C20 4.47715 15.5228 0 10 0C4.47715 0 0 4.47715 0 10C0 15.5228 4.47715 20 10 20ZM10 17C13.866 17 17 13.866 17 10C17 6.13401 13.866 3 10 3C6.13401 3 3 6.13401 3 10C3 13.866 6.13401 17 10 17Z" fill="#fcf6e7"/></g><rect x="360" y="440" width="40" height="40" fill="#f7e6bd"/><path d="M 360 440 A 40 40 0 0 1 400 480 L 360 480" fill="#e7bdaf"/><rect x="400" y="400" width="80" height="80" fill="#85796a"/><circle cx="440" cy="440" r="40" fill="#ecc15d"/><rect x="480" y="400" width="80" height="80" fill="#cb6f51"/><g transform="translate(480,400) scale(4) rotate(0)"><path d="M10 0H20L0 20V10L10 0Z" fill="#ddede6"/><path d="M20 10V20H10L20 10Z" fill="#ddede6"/></g><rect x="0" y="480" width="80" height="80" fill="#ffffff"/><rect x="0" y="480" width="40" height="40" fill="#fbfbe2"/><g transform="translate(0,480) scale(2) rotate(0)"><path d="M5 0H10L5 5L0 10V5L5 0Z" fill="#f7e8e3"/><path d="M20 15V20H15L20 15Z" fill="#f7e8e3"/><path d="M20 5V10L15 15L10 20H5L20 5Z" fill="#f7e8e3"/><path d="M15 0H20L5 15.0002L0 20.0002V15.0002L15 0Z" fill="#f7e8e3"/></g><rect x="40" y="480" width="40" height="40" fill="#e8f3ee"/><g transform="translate(40,480) scale(2) rotate(0)"><path d="M10 0H20V10L10 20H0V10L10 0Z" fill="#f4e0d9"/></g><rect x="0" y="520" width="40" height="40" fill="#d17f64"/><g transform="translate(0,520) scale(2) rotate(0)"><path d="M13 0H20V7L7 20H0V13L13 0Z" fill="#bbb5ac"/></g><rect x="40" y="520" width="40" height="40" fill="#edc261"/><circle cx="60" cy="540" r="20" fill="#d0e6dd"/><rect x="80" y="480" width="80" height="80" fill="#ffffff"/><rect x="80" y="480" width="40" height="40" fill="#f8e9c5"/><g transform="translate(80,480) scale(2) rotate(0)"><path d="M10 0H20V10L10 20H0V10L10 0Z" fill="#a9d2c1"/></g><rect x="120" y="480" width="40" height="40" fill="#b5d8ca"/><circle cx="140" cy="500" r="20" fill="#f9ebcb"/><rect x="80" y="520" width="40" height="40" fill="#ebbc50"/><rect x="80" y="520" width="40" height="40" fill="#f5f4f2"/><rect x="120" y="520" width="40" height="40" fill="#db9c87"/><path d="M 120 520 A 40 40 0 0 1  160 560 L 120 520 A 40 40 0 0 0 160 560" fill="#f1d8d0"/><rect x="160" y="480" width="80" height="80" fill="#ffffff"/><rect x="160" y="480" width="40" height="40" fill="#b7d9cb"/><circle cx="180" cy="500" r="20" fill="#beb8b0"/><rect x="200" y="480" width="40" height="40" fill="#b8dacc"/><g transform="translate(200,480) scale(2) rotate(0)"><path d="M5 0H10L5 5L0 10V5L5 0Z" fill="#f7f8c6"/><path d="M20 15V20H15L20 15Z" fill="#f7f8c6"/><path d="M20 5V10L15 15L10 20H5L20 5Z" fill="#f7f8c6"/><path d="M15 0H20L5 15.0002L0 20.0002V15.0002L15 0Z" fill="#f7f8c6"/></g><rect x="160" y="520" width="40" height="40" fill="#fcf7f6"/><g transform="translate(160,520) scale(2) rotate(0)"><path fill-rule="evenodd" clip-rule="evenodd" d="M10 20C15.5228 20 20 15.5228 20 10C20 4.47715 15.5228 0 10 0C4.47715 0 0 4.47715 0 10C0 15.5228 4.47715 20 10 20ZM10 17C13.866 17 17 13.866 17 10C17 6.13401 13.866 3 10 3C6.13401 3 3 6.13401 3 10C3 13.866 6.13401 17 10 17Z" fill="#eec870"/></g><rect x="200" y="520" width="40" height="40" fill="#6c5e4c"/><g transform="translate(200,520) scale(2) rotate(0)"><path d="M10 0H20L0 20V10L10 0Z" fill="#a5d0be"/><path d="M20 10V20H10L20 10Z" fill="#a5d0be"/></g><rect x="240" y="480" width="80" height="80" fill="#ffffff"/><rect x="240" y="480" width="40" height="40" fill="#f6e5df"/><path d="M 240 520 A 40 40 0 0 0 280 480 L 240 480" fill="#ecbe57"/><rect x="280" y="480" width="40" height="40" fill="#f8f9ca"/><path d="M 280 480 A 40 40 0 0 1  320 520 L 280 480 A 40 40 0 0 0 320 520" fill="#fcf4e1"/><rect x="240" y="520" width="40" height="40" fill="#beb8b0"/><rect x="240" y="520" width="40" height="40" fill="#fafcfc"/><rect x="280" y="520" width="40" height="40" fill="#756857"/><g transform="translate(280,520) scale(2) rotate(0)"><path d="M10 0H20V10L10 20H0V10L10 0Z" fill="#ffffff"/></g><rect x="320" y="480" width="80" height="80" fill="#beddd0"/><g transform="translate(320,480) scale(4) rotate(0)"><path d="M13 0H20V7L7 20H0V13L13 0Z" fill="#c6c1ba"/></g><rect x="400" y="480" width="80" height="80" fill="#f8fbfa"/><g transform="translate(400,480) scale(4) rotate(0)"><path fill-rule="evenodd" clip-rule="evenodd" d="M10 20C15.5228 20 20 15.5228 20 10C20 4.47715 15.5228 0 10 0C4.47715 0 0 4.47715 0 10C0 15.5228 4.47715 20 10 20ZM10 17C13.866 17 17 13.866 17 10C17 6.13401 13.866 3 10 3C6.13401 3 3 6.13401 3 10C3 13.866 6.13401 17 10 17Z" fill="#f7f6f5"/></g><rect x="480" y="480" width="80" height="80" fill="#dc9c88"/><g transform="translate(480,480) scale(4) rotate(0)"><path d="M10 0L20 10L10 20L0 10L10 0Z" fill="#d3856b"/></g><rect x="0" y="560" width="80" height="80" fill="#bf4e29"/><g transform="translate(0,560) scale(4) rotate(0)"><path d="M10 0L20 10L10 20L0 10L10 0Z" fill="#807464"/></g><rect x="80" y="560" width="80" height="80" fill="#ffffff"/><rect x="80" y="560" width="40" height="40" fill="#eec66a"/><path d="M 80 600 A 40 40 0 0 1  120 560 L 80 600 A 40 40 0 0 0 120 560" fill="#fdfdef"/><rect x="120" y="560" width="40" height="40" fill="#c3dfd4"/><path d="M 120 560 A 40 40 0 0 1  160 600 L 120 560 A 40 40 0 0 0 160 600" fill="#d5d1cb"/><rect x="80" y="600" width="40" height="40" fill="#f5dca5"/><circle cx="100" cy="620" r="20" fill="#f8f9ce"/><rect x="120" y="600" width="40" height="40" fill="#edc362"/><g transform="translate(120,600) scale(2) rotate(0)"><path d="M10 0H20V10L10 20H0V10L10 0Z" fill="#d58b73"/></g><rect x="160" y="560" width="80" height="80" fill="#d5e9e1"/><g transform="translate(160,560) scale(4) rotate(0)"><path fill-rule="evenodd" clip-rule="evenodd" d="M10 20C15.5228 20 20 15.5228 20 10C20 4.47715 15.5228 0 10 0C4.47715 0 0 4.47715 0 10C0 15.5228 4.47715 20 10 20ZM10 17C13.866 17 17 13.866 17 10C17 6.13401 13.866 3 10 3C6.13401 3 3 6.13401 3 10C3 13.866 6.13401 17 10 17Z" fill="#fbfbe0"/></g><rect x="240" y="560" width="80" height="80" fill="#ffffff"/><rect x="240" y="560" width="40" height="40" fill="#f7f8c8"/><g transform="translate(240,560) scale(2) rotate(0)"><path d="M13 0H20V7L7 20H0V13L13 0Z" fill="#fcfefd"/></g><rect x="280" y="560" width="40" height="40" fill="#db9c87"/><g transform="translate(280,560) scale(2) rotate(0)"><path d="M10 0H20L0 20V10L10 0Z" fill="#f5dfad"/><path d="M20 10V20H10L20 10Z" fill="#f5dfad"/></g><rect x="240" y="600" width="40" height="40" fill="#89c1aa"/><g transform="translate(240,600) scale(2) rotate(0)"><path d="M13 0H20V7L7 20H0V13L13 0Z" fill="#e9f4ef"/></g><rect x="280" y="600" width="40" height="40" fill="#cbc6bf"/><g transform="translate(280,600) scale(2) rotate(0)"><path d="M5 0H10L5 5L0 10V5L5 0Z" fill="#f9f9d0"/><path d="M20 15V20H15L20 15Z" fill="#f9f9d0"/><path d="M20 5V10L15 15L10 20H5L20 5Z" fill="#f9f9d0"/><path d="M15 0H20L5 15.0002L0 20.0002V15.0002L15 0Z" fill="#f9f9d0"/></g><rect x="320" y="560" width="80" height="80" fill="#ffffff"/><rect x="320" y="560" width="40" height="40" fill="#dfa592"/><g transform="translate(320,560) scale(2) rotate(0)"><path fill-rule="evenodd" clip-rule="evenodd" d="M10 20C15.5228 20 20 15.5228 20 10C20 4.47715 15.5228 0 10 0C4.47715 0 0 4.47715 0 10C0 15.5228 4.47715 20 10 20ZM10 17C13.866 17 17 13.866 17 10C17 6.13401 13.866 3 10 3C6.13401 3 3 6.13401 3 10C3 13.866 6.13401 17 10 17Z" fill="#fefef7"/></g><rect x="360" y="560" width="40" height="40" fill="#f9f9d1"/><g transform="translate(360,560) scale(2) rotate(0)"><path d="M10 0H20L0 20V10L10 0Z" fill="#c0ded1"/><path d="M20 10V20H10L20 10Z" fill="#c0ded1"/></g><rect x="320" y="600" width="40" height="40" fill="#fdfdf3"/><g transform="translate(320,600) scale(2) rotate(0)"><path d="M10 0H20V10L10 20H0V10L10 0Z" fill="#efca74"/></g><rect x="360" y="600" width="40" height="40" fill="#dbece5"/><path d="M 360 640 A 40 40 0 0 1  400 600 L 400 640" fill="#f9fad6"/><rect x="400" y="560" width="80" height="80" fill="#ffffff"/><rect x="400" y="560" width="40" height="40" fill="#6f6150"/><g transform="translate(400,560) scale(2) rotate(0)"><path d="M5 0H10L5 5L0 10V5L5 0Z" fill="#fbfce5"/><path d="M20 15V20H15L20 15Z" fill="#fbfce5"/><path d="M20 5V10L15 15L10 20H5L20 5Z" fill="#fbfce5"/><path d="M15 0H20L5 15.0002L0 20.0002V15.0002L15 0Z" fill="#fbfce5"/></g><rect x="440" y="560" width="40" height="40" fill="#fbf5f3"/><g transform="translate(440,560) scale(2) rotate(0)"><path d="M10 0H20L0 20V10L10 0Z" fill="#cb6e50"/><path d="M20 10V20H10L20 10Z" fill="#cb6e50"/></g><rect x="400" y="600" width="40" height="40" fill="#c1ded2"/><circle cx="420" cy="620" r="20" fill="#cac5be"/><rect x="440" y="600" width="40" height="40" fill="#fdfdef"/><rect x="440" y="600" width="40" height="40" fill="#bf4e29"/><rect x="480" y="560" width="80" height="80" fill="#ddede6"/><rect x="480" y="560" width="80" height="80" fill="#c9c4bd"/><rect x="0" y="640" width="80" height="80" fill="#ffffff"/><rect x="0" y="640" width="40" height="40" fill="#c76444"/><path d="M 0 680 A 40 40 0 0 1  40 640 L 0 680 A 40 40 0 0 0 40 640" fill="#d2cec8"/><rect x="40" y="640" width="40" height="40" fill="#f9fad4"/><rect x="40" y="640" width="40" height="40" fill="#c2dfd3"/><rect x="0" y="680" width="40" height="40" fill="#e7bcae"/><g transform="translate(0,680) scale(2) rotate(0)"><path d="M10 0H20V10L10 20H0V10L10 0Z" fill="#fffffb"/></g><rect x="40" y="680" width="40" height="40" fill="#e1deda"/><g transform="translate(40,680) scale(2) rotate(0)"><path d="M10 0L20 10L10 20L0 10L10 0Z" fill="#c4bfb8"/></g><rect x="80" y="640" width="80" height="80" fill="#eaba4c"/><g transform="translate(80,640) scale(4) rotate(0)"><path d="M10 0H20V10L10 20H0V10L10 0Z" fill="#ce765a"/></g><rect x="160" y="640" width="80" height="80" fill="#fcfce8"/><circle cx="200" cy="680" r="40" fill="#80bca3"/><rect x="240" y="640" width="80" height="80" fill="#ffffff"/><rect x="240" y="640" width="40" height="40" fill="#c66140"/><g transform="translate(240,640) scale(2) rotate(0)"><path d="M5 0H10L5 5L0 10V5L5 0Z" fill="#badbcd"/><path d="M20 15V20H15L20 15Z" fill="#badbcd"/><path d="M20 5V10L15 15L10 20H5L20 5Z" fill="#badbcd"/><path d="M15 0H20L5 15.0002L0 20.0002V15.0002L15 0Z" fill="#badbcd"/></g><rect x="280" y="640" width="40" height="40" fill="#e7ae2d"/><rect x="280" y="640" width="40" height="40" fill="#fffffe"/><rect x="240" y="680" width="40" height="40" fill="#a39a8f"/><g transform="translate(240,680) scale(2) rotate(0)"><path fill-rule="evenodd" clip-rule="evenodd" d="M10 20C15.5228 20 20 15.5228 20 10C20 4.47715 15.5228 0 10 0C4.47715 0 0 4.47715 0 10C0 15.5228 4.47715 20 10 20ZM10 17C13.866 17 17 13.866 17 10C17 6.13401 13.866 3 10 3C6.13401 3 3 6.13401 3 10C3 13.866 6.13401 17 10 17Z" fill="#cd7558"/></g><rect x="280" y="680" width="40" height="40" fill="#b6d8ca"/><g transform="translate(280,680) scale(2) rotate(0)"><path fill-rule="evenodd" clip-rule="evenodd" d="M10 20C15.5228 20 20 15.5228 20 10C20 4.47715 15.5228 0 10 0C4.47715 0 0 4.47715 0 10C0 15.5228 4.47715 20 10 20ZM10 17C13.866 17 17 13.866 17 10C17 6.13401 13.866 3 10 3C6.13401 3 3 6.13401 3 10C3 13.866 6.13401 17 10 17Z" fill="#ce775b"/></g><rect x="320" y="640" width="80" height="80" fill="#ffffff"/><rect x="320" y="640" width="40" height="40" fill="#dfdcd8"/><path d="M 320 640 A 40 40 0 0 1  360 680 L 320 640 A 40 40 0 0 0 360 680" fill="#faedd1"/><rect x="360" y="640" width="40" height="40" fill="#92c5b0"/><g transform="translate(360,640) scale(2) rotate(0)"><path d="M10 0H20L0 20V10L10 0Z" fill="#f7fbf9"/><path d="M20 10V20H10L20 10Z" fill="#f7fbf9"/></g><rect x="320" y="680" width="40" height="40" fill="#afd5c5"/><g transform="translate(320,680) scale(2) rotate(0)"><path d="M10 0L20 10L10 20L0 10L10 0Z" fill="#c6e1d6"/></g><rect x="360" y="680" width="40" height="40" fill="#c0512c"/><circle cx="380" cy="700" r="20" fill="#c2dfd3"/><rect x="400" y="640" width="80" height="80" fill="#da9882"/><rect x="400" y="640" width="80" height="80" fill="#f4dca4"/><rect x="480" y="640" width="80" height="80" fill="#ffffff"/><rect x="480" y="640" width="40" height="40" fill="#8b8072"/><path d="M 480 640 A 40 40 0 0 1  520 680 L 480 640 A 40 40 0 0 0 520 680" fill="#f9efeb"/><rect x="520" y="640" width="40" height="40" fill="#d3856b"/><g transform="translate(520,640) scale(2) rotate(0)"><path fill-rule="evenodd" clip-rule="evenodd" d="M10 20C15.5228 20 20 15.5228 20 10C20 4.47715 15.5228 0 10 0C4.47715 0 0 4.47715 0 10C0 15.5228 4.47715 20 10 20ZM10 17C13.866 17 17 13.866 17 10C17 6.13401 13.866 3 10 3C6.13401 3 3 6.13401 3 10C3 13.866 6.13401 17 10 17Z" fill="#f9fad3"/></g><rect x="480" y="680" width="40" height="40" fill="#ebbb4f"/><circle cx="500" cy="700" r="20" fill="#f7f8c6"/><rect x="520" y="680" width="40" height="40" fill="#d99681"/><rect x="520" y="680" width="40" height="40" fill="#d28268"/></g></svg>