<?xml version="1.0" standalone="no"?><svg xmlns:xlink="http://www.w3.org/1999/xlink" xmlns="http://www.w3.org/2000/svg" viewBox="0 0 1000 1285.725632438014" preserveAspectRatio="xMaxYMax slice"><g transform="scale(1.6547305436782676)"><rect x="0" y="0" width="604.3333333333333" height="777" fill="#ffffff"/><rect x="0" y="0" width="86.33333333333333" height="86.33333333333333" fill="#ffffff"/><rect x="0" y="0" width="43.17" height="43.17" fill="#f3d2c9"/><rect x="0" y="0" width="43.17" height="43.17" fill="#c9bab0"/><rect x="43.17" y="0" width="43.17" height="43.17" fill="#f2edde"/><g transform="translate(43.17,0) scale(2.1585) rotate(0)"><path fill-rule="evenodd" clip-rule="evenodd" d="M10 20C15.5228 20 20 15.5228 20 10C20 4.47715 15.5228 0 10 0C4.47715 0 0 4.47715 0 10C0 15.5228 4.47715 20 10 20ZM10 17C13.866 17 17 13.866 17 10C17 6.13401 13.866 3 10 3C6.13401 3 3 6.13401 3 10C3 13.866 6.13401 17 10 17Z" fill="#f6f4f2"/></g><rect x="0" y="43.17" width="43.17" height="43.17" fill="#fbf1ee"/><g transform="translate(0,43.17) scale(2.1585) rotate(0)"><path d="M5 0H10L5 5L0 10V5L5 0Z" fill="#fbf2e7"/><path d="M20 15V20H15L20 15Z" fill="#fbf2e7"/><path d="M20 5V10L15 15L10 20H5L20 5Z" fill="#fbf2e7"/><path d="M15 0H20L5 15.0002L0 20.0002V15.0002L15 0Z" fill="#fbf2e7"/></g><rect x="43.17" y="43.17" width="43.17" height="43.17" fill="#f2d8b7"/><rect x="43.17" y="43.17" width="43.17" height="43.17" fill="#f1cdc3"/><rect x="86.33333333333333" y="0" width="86.33333333333333" height="86.33333333333333" fill="#ffffff"/><rect x="86.33" y="0" width="43.17" height="43.17" fill="#f1ecdb"/><g transform="translate(86.33,0) scale(2.1585) rotate(0)"><path d="M13 0H20V7L7 20H0V13L13 0Z" fill="#e5deda"/></g><rect x="129.5" y="0" width="43.17" height="43.17" fill="#fefdfb"/><g transform="translate(129.5,0) scale(2.1585) rotate(0)"><path d="M10 0H20L0 20V10L10 0Z" fill="#ecb8ab"/><path d="M20 10V20H10L20 10Z" fill="#ecb8ab"/></g><rect x="86.33" y="43.17" width="43.17" height="43.17" fill="#fcf6ee"/><g transform="translate(86.33,43.17) scale(2.1585) rotate(0)"><path d="M10 0H20V10L10 20H0V10L10 0Z" fill="#977967"/></g><rect x="129.5" y="43.17" width="43.17" height="43.17" fill="#f1ecdb"/><g transform="translate(129.5,43.17) scale(2.1585) rotate(0)"><path d="M10 0L20 10L10 20L0 10L10 0Z" fill="#e5f1ef"/></g><rect x="172.67" y="0" width="86.33" height="86.33" fill="#f1cbc1"/><path d="M 172.67 0 A 86.33 86.33 0 0 1  259 86.33 L 172.67 0 A 86.33 86.33 0 0 0 259 86.33" fill="#f5e2c8"/><rect x="259" y="0" width="86.33333333333333" height="86.33333333333333" fill="#ffffff"/><rect x="259" y="0" width="43.17" height="43.17" fill="#f2eede"/><g transform="translate(259,0) scale(2.1585) rotate(0)"><path d="M10 0L20 10L10 20L0 10L10 0Z" fill="#fbfaf6"/></g><rect x="302.17" y="0" width="43.17" height="43.17" fill="#f2eddd"/><circle cx="323.755" cy="21.585" r="21.585" fill="#c8e2de"/><rect x="259" y="43.17" width="43.17" height="43.17" fill="#faf8f2"/><rect x="259" y="43.17" width="43.17" height="43.17" fill="#f7fbfa"/><rect x="302.17" y="43.17" width="43.17" height="43.17" fill="#dfd6d1"/><rect x="302.17" y="43.17" width="43.17" height="43.17" fill="#deeeeb"/><rect x="345.33" y="0" width="86.33" height="86.33" fill="#a68b7c"/><path d="M 345.33 0 A 86.33 86.33 0 0 0 431.65999999999997 86.33 L 431.65999999999997 0" fill="#f2d7b6"/><rect x="431.66666666666663" y="0" width="86.33333333333333" height="86.33333333333333" fill="#ffffff"/><rect x="431.67" y="0" width="43.17" height="43.17" fill="#f4f0e3"/><circle cx="453.255" cy="21.585" r="21.585" fill="#f1d4b0"/><rect x="474.83" y="0" width="43.17" height="43.17" fill="#fbf9f4"/><path d="M 474.83 43.17 A 43.17 43.17 0 0 1  518 0 L 474.83 43.17 A 43.17 43.17 0 0 0 518 0" fill="#f6ddd7"/><rect x="431.67" y="43.17" width="43.17" height="43.17" fill="#f1ecdb"/><g transform="translate(431.67,43.17) scale(2.1585) rotate(0)"><path d="M13 0H20V7L7 20H0V13L13 0Z" fill="#e49e8c"/></g><rect x="474.83" y="43.17" width="43.17" height="43.17" fill="#fcf6ef"/><g transform="translate(474.83,43.17) scale(2.1585) rotate(0)"><path d="M5 0H10L5 5L0 10V5L5 0Z" fill="#c6e1dd"/><path d="M20 15V20H15L20 15Z" fill="#c6e1dd"/><path d="M20 5V10L15 15L10 20H5L20 5Z" fill="#c6e1dd"/><path d="M15 0H20L5 15.0002L0 20.0002V15.0002L15 0Z" fill="#c6e1dd"/></g><rect x="518" y="0" width="86.33333333333333" height="86.33333333333333" fill="#ffffff"/><rect x="518" y="0" width="43.17" height="43.17" fill="#faede9"/><g transform="translate(518,0) scale(2.1585) rotate(0)"><path d="M5 0H10L5 5L0 10V5L5 0Z" fill="#e3f0ee"/><path d="M20 15V20H15L20 15Z" fill="#e3f0ee"/><path d="M20 5V10L15 15L10 20H5L20 5Z" fill="#e3f0ee"/><path d="M15 0H20L5 15.0002L0 20.0002V15.0002L15 0Z" fill="#e3f0ee"/></g><rect x="561.17" y="0" width="43.17" height="43.17" fill="#fafcfc"/><circle cx="582.755" cy="21.585" r="21.585" fill="#f3efe0"/><rect x="518" y="43.17" width="43.17" height="43.17" fill="#b8a397"/><g transform="translate(518,43.17) scale(2.1585) rotate(0)"><path d="M10 0L20 10L10 20L0 10L10 0Z" fill="#fbf2f0"/></g><rect x="561.17" y="43.17" width="43.17" height="43.17" fill="#ede7d1"/><path d="M 561.17 86.34 A 43.17 43.17 0 0 0 604.3399999999999 43.17 L 561.17 43.17" fill="#fbf3ea"/><rect x="0" y="86.33333333333333" width="86.33333333333333" height="86.33333333333333" fill="#ffffff"/><rect x="0" y="86.33" width="43.17" height="43.17" fill="#f3d9b9"/><g transform="translate(0,86.33) scale(2.1585) rotate(0)"><path d="M10 0H20L0 20V10L10 0Z" fill="#79513a"/><path d="M20 10V20H10L20 10Z" fill="#79513a"/></g><rect x="43.17" y="86.33" width="43.17" height="43.17" fill="#f9f7f0"/><g transform="translate(43.17,86.33) scale(2.1585) rotate(0)"><path d="M10 0H20L0 20V10L10 0Z" fill="#eee7d2"/><path d="M20 10V20H10L20 10Z" fill="#eee7d2"/></g><rect x="0" y="129.5" width="43.17" height="43.17" fill="#f1ebda"/><path d="M 0 172.67000000000002 A 43.17 43.17 0 0 1  43.17 129.5 L 0 172.67000000000002 A 43.17 43.17 0 0 0 43.17 129.5" fill="#fefcf9"/><rect x="43.17" y="129.5" width="43.17" height="43.17" fill="#f6f3f1"/><path d="M 43.17 129.5 A 43.17 43.17 0 0 1  86.34 172.67000000000002 L 43.17 129.5 A 43.17 43.17 0 0 0 86.34 172.67000000000002" fill="#f6e2c9"/><rect x="86.33" y="86.33" width="86.33" height="86.33" fill="#eef6f5"/><rect x="86.33" y="86.33" width="86.33" height="86.33" fill="#7e5842"/><rect x="172.67" y="86.33" width="86.33" height="86.33" fill="#f4ddc0"/><path d="M 172.67 172.66 A 86.33 86.33 0 0 1  259 86.33 L 259 172.66" fill="#eee8d4"/><rect x="259" y="86.33333333333333" width="86.33333333333333" height="86.33333333333333" fill="#ffffff"/><rect x="259" y="86.33" width="43.17" height="43.17" fill="#bfaca1"/><g transform="translate(259,86.33) scale(2.1585) rotate(0)"><path d="M13 0H20V7L7 20H0V13L13 0Z" fill="#fcf3f0"/></g><rect x="302.17" y="86.33" width="43.17" height="43.17" fill="#f3eedf"/><g transform="translate(302.17,86.33) scale(2.1585) rotate(0)"><path d="M10 0H20L0 20V10L10 0Z" fill="#e7e0dc"/><path d="M20 10V20H10L20 10Z" fill="#e7e0dc"/></g><rect x="259" y="129.5" width="43.17" height="43.17" fill="#faf8f3"/><g transform="translate(259,129.5) scale(2.1585) rotate(0)"><path d="M10 0L20 10L10 20L0 10L10 0Z" fill="#ede7d1"/></g><rect x="302.17" y="129.5" width="43.17" height="43.17" fill="#7f5a44"/><g transform="translate(302.17,129.5) scale(2.1585) rotate(0)"><path d="M10 0H20V10L10 20H0V10L10 0Z" fill="#fefbf8"/></g><rect x="345.33" y="86.33" width="86.33" height="86.33" fill="#f8ead7"/><g transform="translate(345.33,86.33) scale(4.3165) rotate(0)"><path d="M10 0L20 10L10 20L0 10L10 0Z" fill="#e1efed"/></g><rect x="431.67" y="86.33" width="86.33" height="86.33" fill="#ebb6a9"/><g transform="translate(431.67,86.33) scale(4.3165) rotate(0)"><path d="M13 0H20V7L7 20H0V13L13 0Z" fill="#f6e3cb"/></g><rect x="518" y="86.33" width="86.33" height="86.33" fill="#91705e"/><g transform="translate(518,86.33) scale(4.3165) rotate(0)"><path d="M13 0H20V7L7 20H0V13L13 0Z" fill="#fffefe"/></g><rect x="0" y="172.66666666666666" width="86.33333333333333" height="86.33333333333333" fill="#ffffff"/><rect x="0" y="172.67" width="43.17" height="43.17" fill="#f4f0e2"/><path d="M 0 172.67 A 43.17 43.17 0 0 1  43.17 215.83999999999997 L 0 172.67 A 43.17 43.17 0 0 0 43.17 215.83999999999997" fill="#f6ded8"/><rect x="43.17" y="172.67" width="43.17" height="43.17" fill="#dbece9"/><g transform="translate(43.17,172.67) scale(2.1585) rotate(0)"><path d="M5 0H10L5 5L0 10V5L5 0Z" fill="#fdf6f4"/><path d="M20 15V20H15L20 15Z" fill="#fdf6f4"/><path d="M20 5V10L15 15L10 20H5L20 5Z" fill="#fdf6f4"/><path d="M15 0H20L5 15.0002L0 20.0002V15.0002L15 0Z" fill="#fdf6f4"/></g><rect x="0" y="215.83" width="43.17" height="43.17" fill="#edbcaf"/><g transform="translate(0,215.83) scale(2.1585) rotate(0)"><path fill-rule="evenodd" clip-rule="evenodd" d="M10 20C15.5228 20 20 15.5228 20 10C20 4.47715 15.5228 0 10 0C4.47715 0 0 4.47715 0 10C0 15.5228 4.47715 20 10 20ZM10 17C13.866 17 17 13.866 17 10C17 6.13401 13.866 3 10 3C6.13401 3 3 6.13401 3 10C3 13.866 6.13401 17 10 17Z" fill="#f5e1c6"/></g><rect x="43.17" y="215.83" width="43.17" height="43.17" fill="#e9ae9f"/><g transform="translate(43.17,215.83) scale(2.1585) rotate(0)"><path d="M10 0H20V10L10 20H0V10L10 0Z" fill="#9a7d6c"/></g><rect x="86.33333333333333" y="172.66666666666666" width="86.33333333333333" height="86.33333333333333" fill="#ffffff"/><rect x="86.33" y="172.67" width="43.17" height="43.17" fill="#f4f1ef"/><circle cx="107.91499999999999" cy="194.255" r="21.585" fill="#f2f8f7"/><rect x="129.5" y="172.67" width="43.17" height="43.17" fill="#f2d8b6"/><path d="M 129.5 215.83999999999997 A 43.17 43.17 0 0 1  172.67000000000002 172.67 L 129.5 215.83999999999997 A 43.17 43.17 0 0 0 172.67000000000002 172.67" fill="#f3efe1"/><rect x="86.33" y="215.83" width="43.17" height="43.17" fill="#fcf6ee"/><g transform="translate(86.33,215.83) scale(2.1585) rotate(0)"><path d="M10 0H20L0 20V10L10 0Z" fill="#e6dfdb"/><path d="M20 10V20H10L20 10Z" fill="#e6dfdb"/></g><rect x="129.5" y="215.83" width="43.17" height="43.17" fill="#f9f7ef"/><g transform="translate(129.5,215.83) scale(2.1585) rotate(0)"><path d="M10 0H20L0 20V10L10 0Z" fill="#ece6e3"/><path d="M20 10V20H10L20 10Z" fill="#ece6e3"/></g><rect x="172.67" y="172.67" width="86.33" height="86.33" fill="#f6e5ce"/><g transform="translate(172.67,172.67) scale(4.3165) rotate(0)"><path d="M10 0H20V10L10 20H0V10L10 0Z" fill="#f6e4cc"/></g><rect x="259" y="172.66666666666666" width="86.33333333333333" height="86.33333333333333" fill="#ffffff"/><rect x="259" y="172.67" width="43.17" height="43.17" fill="#f9f7ef"/><g transform="translate(259,172.67) scale(2.1585) rotate(0)"><path d="M10 0L20 10L10 20L0 10L10 0Z" fill="#a18575"/></g><rect x="302.17" y="172.67" width="43.17" height="43.17" fill="#fefaf9"/><g transform="translate(302.17,172.67) scale(2.1585) rotate(0)"><path d="M10 0L20 10L10 20L0 10L10 0Z" fill="#fefdfc"/></g><rect x="259" y="215.83" width="43.17" height="43.17" fill="#e6a392"/><g transform="translate(259,215.83) scale(2.1585) rotate(0)"><path d="M5 0H10L5 5L0 10V5L5 0Z" fill="#af988a"/><path d="M20 15V20H15L20 15Z" fill="#af988a"/><path d="M20 5V10L15 15L10 20H5L20 5Z" fill="#af988a"/><path d="M15 0H20L5 15.0002L0 20.0002V15.0002L15 0Z" fill="#af988a"/></g><rect x="302.17" y="215.83" width="43.17" height="43.17" fill="#e0efed"/><path d="M 302.17 215.83 A 43.17 43.17 0 0 1  345.34000000000003 259 L 302.17 215.83 A 43.17 43.17 0 0 0 345.34000000000003 259" fill="#84604b"/><rect x="345.3333333333333" y="172.66666666666666" width="86.33333333333333" height="86.33333333333333" fill="#ffffff"/><rect x="345.33" y="172.67" width="43.17" height="43.17" fill="#f3dabb"/><path d="M 345.33 215.83999999999997 A 43.17 43.17 0 0 1  388.5 172.67 L 345.33 215.83999999999997 A 43.17 43.17 0 0 0 388.5 172.67" fill="#efe9d5"/><rect x="388.5" y="172.67" width="43.17" height="43.17" fill="#fcf6ef"/><g transform="translate(388.5,172.67) scale(2.1585) rotate(0)"><path fill-rule="evenodd" clip-rule="evenodd" d="M10 20C15.5228 20 20 15.5228 20 10C20 4.47715 15.5228 0 10 0C4.47715 0 0 4.47715 0 10C0 15.5228 4.47715 20 10 20ZM10 17C13.866 17 17 13.866 17 10C17 6.13401 13.866 3 10 3C6.13401 3 3 6.13401 3 10C3 13.866 6.13401 17 10 17Z" fill="#fdfaf5"/></g><rect x="345.33" y="215.83" width="43.17" height="43.17" fill="#78513a"/><g transform="translate(345.33,215.83) scale(2.1585) rotate(0)"><path d="M5 0H10L5 5L0 10V5L5 0Z" fill="#a68b7c"/><path d="M20 15V20H15L20 15Z" fill="#a68b7c"/><path d="M20 5V10L15 15L10 20H5L20 5Z" fill="#a68b7c"/><path d="M15 0H20L5 15.0002L0 20.0002V15.0002L15 0Z" fill="#a68b7c"/></g><rect x="388.5" y="215.83" width="43.17" height="43.17" fill="#faebe8"/><g transform="translate(388.5,215.83) scale(2.1585) rotate(0)"><path d="M13 0H20V7L7 20H0V13L13 0Z" fill="#f2edde"/></g><rect x="431.66666666666663" y="172.66666666666666" width="86.33333333333333" height="86.33333333333333" fill="#ffffff"/><rect x="431.67" y="172.67" width="43.17" height="43.17" fill="#f9e9e5"/><path d="M 431.67 215.83999999999997 A 43.17 43.17 0 0 1  474.84000000000003 172.67 L 431.67 215.83999999999997 A 43.17 43.17 0 0 0 474.84000000000003 172.67" fill="#faf8f1"/><rect x="474.83" y="172.67" width="43.17" height="43.17" fill="#c8e2de"/><g transform="translate(474.83,172.67) scale(2.1585) rotate(0)"><path d="M5 0H10L5 5L0 10V5L5 0Z" fill="#ede6cf"/><path d="M20 15V20H15L20 15Z" fill="#ede6cf"/><path d="M20 5V10L15 15L10 20H5L20 5Z" fill="#ede6cf"/><path d="M15 0H20L5 15.0002L0 20.0002V15.0002L15 0Z" fill="#ede6cf"/></g><rect x="431.67" y="215.83" width="43.17" height="43.17" fill="#eee7d2"/><g transform="translate(431.67,215.83) scale(2.1585) rotate(0)"><path fill-rule="evenodd" clip-rule="evenodd" d="M10 20C15.5228 20 20 15.5228 20 10C20 4.47715 15.5228 0 10 0C4.47715 0 0 4.47715 0 10C0 15.5228 4.47715 20 10 20ZM10 17C13.866 17 17 13.866 17 10C17 6.13401 13.866 3 10 3C6.13401 3 3 6.13401 3 10C3 13.866 6.13401 17 10 17Z" fill="#f0c9bf"/></g><rect x="474.83" y="215.83" width="43.17" height="43.17" fill="#ddedea"/><path d="M 474.83 215.83 A 43.17 43.17 0 0 1  518 259 L 474.83 215.83 A 43.17 43.17 0 0 0 518 259" fill="#b6a094"/><rect x="518" y="172.67" width="86.33" height="86.33" fill="#7b543d"/><g transform="translate(518,172.67) scale(4.3165) rotate(0)"><path d="M10 0H20V10L10 20H0V10L10 0Z" fill="#f2eeec"/></g><rect x="0" y="259" width="86.33333333333333" height="86.33333333333333" fill="#ffffff"/><rect x="0" y="259" width="43.17" height="43.17" fill="#e5a291"/><rect x="0" y="259" width="43.17" height="43.17" fill="#cec0b7"/><rect x="43.17" y="259" width="43.17" height="43.17" fill="#eec1b6"/><path d="M 43.17 259 A 43.17 43.17 0 0 1  86.34 302.17 L 43.17 259 A 43.17 43.17 0 0 0 86.34 302.17" fill="#faf9f3"/><rect x="0" y="302.17" width="43.17" height="43.17" fill="#fefaf9"/><circle cx="21.585" cy="323.755" r="21.585" fill="#dcecea"/><rect x="43.17" y="302.17" width="43.17" height="43.17" fill="#ece6e3"/><g transform="translate(43.17,302.17) scale(2.1585) rotate(0)"><path d="M13 0H20V7L7 20H0V13L13 0Z" fill="#f4dcbe"/></g><rect x="86.33" y="259" width="86.33" height="86.33" fill="#fffefe"/><circle cx="129.495" cy="302.165" r="43.165" fill="#f1ecda"/><rect x="172.67" y="259" width="86.33" height="86.33" fill="#d4e8e5"/><path d="M 172.67 259 A 86.33 86.33 0 0 1 259 345.33 L 172.67 345.33" fill="#fefdfc"/><rect x="259" y="259" width="86.33333333333333" height="86.33333333333333" fill="#ffffff"/><rect x="259" y="259" width="43.17" height="43.17" fill="#f1ecdb"/><g transform="translate(259,259) scale(2.1585) rotate(0)"><path d="M5 0H10L5 5L0 10V5L5 0Z" fill="#fbf9f4"/><path d="M20 15V20H15L20 15Z" fill="#fbf9f4"/><path d="M20 5V10L15 15L10 20H5L20 5Z" fill="#fbf9f4"/><path d="M15 0H20L5 15.0002L0 20.0002V15.0002L15 0Z" fill="#fbf9f4"/></g><rect x="302.17" y="259" width="43.17" height="43.17" fill="#a48979"/><g transform="translate(302.17,259) scale(2.1585) rotate(0)"><path d="M13 0H20V7L7 20H0V13L13 0Z" fill="#9c7f6e"/></g><rect x="259" y="302.17" width="43.17" height="43.17" fill="#eee8d3"/><circle cx="280.585" cy="323.755" r="21.585" fill="#e8ab9b"/><rect x="302.17" y="302.17" width="43.17" height="43.17" fill="#fefbf7"/><g transform="translate(302.17,302.17) scale(2.1585) rotate(0)"><path d="M10 0H20V10L10 20H0V10L10 0Z" fill="#f2d7b5"/></g><rect x="345.3333333333333" y="259" width="86.33333333333333" height="86.33333333333333" fill="#ffffff"/><rect x="345.33" y="259" width="43.17" height="43.17" fill="#daebe9"/><g transform="translate(345.33,259) scale(2.1585) rotate(0)"><path d="M5 0H10L5 5L0 10V5L5 0Z" fill="#dcedea"/><path d="M20 15V20H15L20 15Z" fill="#dcedea"/><path d="M20 5V10L15 15L10 20H5L20 5Z" fill="#dcedea"/><path d="M15 0H20L5 15.0002L0 20.0002V15.0002L15 0Z" fill="#dcedea"/></g><rect x="388.5" y="259" width="43.17" height="43.17" fill="#daebe9"/><g transform="translate(388.5,259) scale(2.1585) rotate(0)"><path d="M10 0H20V10L10 20H0V10L10 0Z" fill="#e6f1f0"/></g><rect x="345.33" y="302.17" width="43.17" height="43.17" fill="#fffffe"/><rect x="345.33" y="302.17" width="43.17" height="43.17" fill="#fffefe"/><rect x="388.5" y="302.17" width="43.17" height="43.17" fill="#faefe0"/><circle cx="410.085" cy="323.755" r="21.585" fill="#f2f8f7"/><rect x="431.66666666666663" y="259" width="86.33333333333333" height="86.33333333333333" fill="#ffffff"/><rect x="431.67" y="259" width="43.17" height="43.17" fill="#e3dad5"/><g transform="translate(431.67,259) scale(2.1585) rotate(0)"><path d="M13 0H20V7L7 20H0V13L13 0Z" fill="#f6e4cc"/></g><rect x="474.83" y="259" width="43.17" height="43.17" fill="#faefe0"/><g transform="translate(474.83,259) scale(2.1585) rotate(0)"><path d="M10 0H20L0 20V10L10 0Z" fill="#fbf4eb"/><path d="M20 10V20H10L20 10Z" fill="#fbf4eb"/></g><rect x="431.67" y="302.17" width="43.17" height="43.17" fill="#d5e9e6"/><circle cx="453.255" cy="323.755" r="21.585" fill="#f0ead7"/><rect x="474.83" y="302.17" width="43.17" height="43.17" fill="#fefbf8"/><g transform="translate(474.83,302.17) scale(2.1585) rotate(0)"><path d="M10 0L20 10L10 20L0 10L10 0Z" fill="#977867"/></g><rect x="518" y="259" width="86.33333333333333" height="86.33333333333333" fill="#ffffff"/><rect x="518" y="259" width="43.17" height="43.17" fill="#cfe5e2"/><g transform="translate(518,259) scale(2.1585) rotate(0)"><path d="M10 0H20V10L10 20H0V10L10 0Z" fill="#e49c8a"/></g><rect x="561.17" y="259" width="43.17" height="43.17" fill="#fbf4ea"/><rect x="561.17" y="259" width="43.17" height="43.17" fill="#b9a499"/><rect x="518" y="302.17" width="43.17" height="43.17" fill="#f5e2c8"/><g transform="translate(518,302.17) scale(2.1585) rotate(0)"><path d="M10 0H20V10L10 20H0V10L10 0Z" fill="#f4dec1"/></g><rect x="561.17" y="302.17" width="43.17" height="43.17" fill="#c7e1dd"/><g transform="translate(561.17,302.17) scale(2.1585) rotate(0)"><path d="M10 0H20L0 20V10L10 0Z" fill="#eab4a6"/><path d="M20 10V20H10L20 10Z" fill="#eab4a6"/></g><rect x="0" y="345.33" width="86.33" height="86.33" fill="#f5e0c6"/><g transform="translate(0,345.33) scale(4.3165) rotate(0)"><path d="M10 0L20 10L10 20L0 10L10 0Z" fill="#ede6d1"/></g><rect x="86.33333333333333" y="345.3333333333333" width="86.33333333333333" height="86.33333333333333" fill="#ffffff"/><rect x="86.33" y="345.33" width="43.17" height="43.17" fill="#ecb8ab"/><g transform="translate(86.33,345.33) scale(2.1585) rotate(0)"><path d="M5 0H10L5 5L0 10V5L5 0Z" fill="#f8f6ed"/><path d="M20 15V20H15L20 15Z" fill="#f8f6ed"/><path d="M20 5V10L15 15L10 20H5L20 5Z" fill="#f8f6ed"/><path d="M15 0H20L5 15.0002L0 20.0002V15.0002L15 0Z" fill="#f8f6ed"/></g><rect x="129.5" y="345.33" width="43.17" height="43.17" fill="#f9ebda"/><g transform="translate(129.5,345.33) scale(2.1585) rotate(0)"><path d="M10 0L20 10L10 20L0 10L10 0Z" fill="#c1afa4"/></g><rect x="86.33" y="388.5" width="43.17" height="43.17" fill="#886551"/><circle cx="107.91499999999999" cy="410.085" r="21.585" fill="#906f5c"/><rect x="129.5" y="388.5" width="43.17" height="43.17" fill="#78513a"/><g transform="translate(129.5,388.5) scale(2.1585) rotate(0)"><path d="M5 0H10L5 5L0 10V5L5 0Z" fill="#e39b88"/><path d="M20 15V20H15L20 15Z" fill="#e39b88"/><path d="M20 5V10L15 15L10 20H5L20 5Z" fill="#e39b88"/><path d="M15 0H20L5 15.0002L0 20.0002V15.0002L15 0Z" fill="#e39b88"/></g><rect x="172.66666666666666" y="345.3333333333333" width="86.33333333333333" height="86.33333333333333" fill="#ffffff"/><rect x="172.67" y="345.33" width="43.17" height="43.17" fill="#eee8d4"/><path d="M 172.67 345.33 A 43.17 43.17 0 0 1  215.83999999999997 388.5 L 172.67 345.33 A 43.17 43.17 0 0 0 215.83999999999997 388.5" fill="#fdf8f1"/><rect x="215.83" y="345.33" width="43.17" height="43.17" fill="#987a69"/><g transform="translate(215.83,345.33) scale(2.1585) rotate(0)"><path d="M13 0H20V7L7 20H0V13L13 0Z" fill="#f6dcd6"/></g><rect x="172.67" y="388.5" width="43.17" height="43.17" fill="#fefbf7"/><rect x="172.67" y="388.5" width="43.17" height="43.17" fill="#f3efe0"/><rect x="215.83" y="388.5" width="43.17" height="43.17" fill="#fefefd"/><circle cx="237.41500000000002" cy="410.085" r="21.585" fill="#edbcb0"/><rect x="259" y="345.3333333333333" width="86.33333333333333" height="86.33333333333333" fill="#ffffff"/><rect x="259" y="345.33" width="43.17" height="43.17" fill="#f2d8b6"/><path d="M 259 345.33 A 43.17 43.17 0 0 1  302.17 388.5 L 259 345.33 A 43.17 43.17 0 0 0 302.17 388.5" fill="#f9f7ef"/><rect x="302.17" y="345.33" width="43.17" height="43.17" fill="#af988a"/><rect x="302.17" y="345.33" width="43.17" height="43.17" fill="#997c6a"/><rect x="259" y="388.5" width="43.17" height="43.17" fill="#dbd1cb"/><path d="M 259 431.67 A 43.17 43.17 0 0 0 302.17 388.5 L 259 388.5" fill="#f5e1c7"/><rect x="302.17" y="388.5" width="43.17" height="43.17" fill="#eff6f5"/><g transform="translate(302.17,388.5) scale(2.1585) rotate(0)"><path d="M10 0H20V10L10 20H0V10L10 0Z" fill="#fbf3e9"/></g><rect x="345.3333333333333" y="345.3333333333333" width="86.33333333333333" height="86.33333333333333" fill="#ffffff"/><rect x="345.33" y="345.33" width="43.17" height="43.17" fill="#efe9d6"/><g transform="translate(345.33,345.33) scale(2.1585) rotate(0)"><path d="M10 0L20 10L10 20L0 10L10 0Z" fill="#f5f1e5"/></g><rect x="388.5" y="345.33" width="43.17" height="43.17" fill="#e29581"/><path d="M 388.5 345.33 A 43.17 43.17 0 0 1  431.67 388.5 L 388.5 345.33 A 43.17 43.17 0 0 0 431.67 388.5" fill="#f9ecdc"/><rect x="345.33" y="388.5" width="43.17" height="43.17" fill="#f4f0e3"/><g transform="translate(345.33,388.5) scale(2.1585) rotate(0)"><path d="M13 0H20V7L7 20H0V13L13 0Z" fill="#e49c8a"/></g><rect x="388.5" y="388.5" width="43.17" height="43.17" fill="#e29480"/><path d="M 388.5 388.5 A 43.17 43.17 0 0 1  431.67 431.67 L 388.5 388.5 A 43.17 43.17 0 0 0 431.67 431.67" fill="#cce4e0"/><rect x="431.67" y="345.33" width="86.33" height="86.33" fill="#f5e1c7"/><rect x="431.67" y="345.33" width="86.33" height="86.33" fill="#fbf3e8"/><rect x="518" y="345.33" width="86.33" height="86.33" fill="#c7b6ac"/><path d="M 518 431.65999999999997 A 86.33 86.33 0 0 1  604.33 345.33 L 604.33 431.65999999999997" fill="#f3d9b8"/><rect x="0" y="431.67" width="86.33" height="86.33" fill="#f0cac0"/><rect x="0" y="431.67" width="86.33" height="86.33" fill="#d9ebe8"/><rect x="86.33333333333333" y="431.66666666666663" width="86.33333333333333" height="86.33333333333333" fill="#ffffff"/><rect x="86.33" y="431.67" width="43.17" height="43.17" fill="#cbbcb3"/><circle cx="107.91499999999999" cy="453.255" r="21.585" fill="#b59f92"/><rect x="129.5" y="431.67" width="43.17" height="43.17" fill="#fcfbfb"/><path d="M 129.5 431.67 A 43.17 43.17 0 0 1  172.67000000000002 474.84000000000003 L 129.5 431.67 A 43.17 43.17 0 0 0 172.67000000000002 474.84000000000003" fill="#e7f2f1"/><rect x="86.33" y="474.83" width="43.17" height="43.17" fill="#faf8f2"/><circle cx="107.91499999999999" cy="496.41499999999996" r="21.585" fill="#b39c90"/><rect x="129.5" y="474.83" width="43.17" height="43.17" fill="#f7f4eb"/><rect x="129.5" y="474.83" width="43.17" height="43.17" fill="#f0f7f6"/><rect x="172.66666666666666" y="431.66666666666663" width="86.33333333333333" height="86.33333333333333" fill="#ffffff"/><rect x="172.67" y="431.67" width="43.17" height="43.17" fill="#e3f0ee"/><circle cx="194.255" cy="453.255" r="21.585" fill="#f9edde"/><rect x="215.83" y="431.67" width="43.17" height="43.17" fill="#e8aa9a"/><g transform="translate(215.83,431.67) scale(2.1585) rotate(0)"><path d="M10 0H20V10L10 20H0V10L10 0Z" fill="#a08474"/></g><rect x="172.67" y="474.83" width="43.17" height="43.17" fill="#f2f8f7"/><g transform="translate(172.67,474.83) scale(2.1585) rotate(0)"><path d="M13 0H20V7L7 20H0V13L13 0Z" fill="#f6e4cd"/></g><rect x="215.83" y="474.83" width="43.17" height="43.17" fill="#eab3a5"/><rect x="215.83" y="474.83" width="43.17" height="43.17" fill="#e7a797"/><rect x="259" y="431.67" width="86.33" height="86.33" fill="#fbf9f5"/><g transform="translate(259,431.67) scale(4.3165) rotate(0)"><path fill-rule="evenodd" clip-rule="evenodd" d="M10 20C15.5228 20 20 15.5228 20 10C20 4.47715 15.5228 0 10 0C4.47715 0 0 4.47715 0 10C0 15.5228 4.47715 20 10 20ZM10 17C13.866 17 17 13.866 17 10C17 6.13401 13.866 3 10 3C6.13401 3 3 6.13401 3 10C3 13.866 6.13401 17 10 17Z" fill="#efc6bc"/></g><rect x="345.3333333333333" y="431.66666666666663" width="86.33333333333333" height="86.33333333333333" fill="#ffffff"/><rect x="345.33" y="431.67" width="43.17" height="43.17" fill="#baa69a"/><path d="M 345.33 431.67 A 43.17 43.17 0 0 1  388.5 474.84000000000003 L 345.33 431.67 A 43.17 43.17 0 0 0 388.5 474.84000000000003" fill="#efe9d6"/><rect x="388.5" y="431.67" width="43.17" height="43.17" fill="#8f6d5a"/><rect x="388.5" y="431.67" width="43.17" height="43.17" fill="#e5ded9"/><rect x="345.33" y="474.83" width="43.17" height="43.17" fill="#faf1e5"/><g transform="translate(345.33,474.83) scale(2.1585) rotate(0)"><path d="M10 0H20V10L10 20H0V10L10 0Z" fill="#fbf3e8"/></g><rect x="388.5" y="474.83" width="43.17" height="43.17" fill="#9b7e6d"/><g transform="translate(388.5,474.83) scale(2.1585) rotate(0)"><path d="M10 0L20 10L10 20L0 10L10 0Z" fill="#f0ebd9"/></g><rect x="431.67" y="431.67" width="86.33" height="86.33" fill="#f3efe1"/><g transform="translate(431.67,431.67) scale(4.3165) rotate(0)"><path d="M5 0H10L5 5L0 10V5L5 0Z" fill="#d9eae8"/><path d="M20 15V20H15L20 15Z" fill="#d9eae8"/><path d="M20 5V10L15 15L10 20H5L20 5Z" fill="#d9eae8"/><path d="M15 0H20L5 15.0002L0 20.0002V15.0002L15 0Z" fill="#d9eae8"/></g><rect x="518" y="431.67" width="86.33" height="86.33" fill="#ede8e5"/><g transform="translate(518,431.67) scale(4.3165) rotate(0)"><path d="M10 0H20V10L10 20H0V10L10 0Z" fill="#f2eddc"/></g><rect x="0" y="518" width="86.33333333333333" height="86.33333333333333" fill="#ffffff"/><rect x="0" y="518" width="43.17" height="43.17" fill="#f4ddbf"/><g transform="translate(0,518) scale(2.1585) rotate(0)"><path d="M13 0H20V7L7 20H0V13L13 0Z" fill="#ffffff"/></g><rect x="43.17" y="518" width="43.17" height="43.17" fill="#a88e7f"/><circle cx="64.755" cy="539.585" r="21.585" fill="#c8b8af"/><rect x="0" y="561.17" width="43.17" height="43.17" fill="#f1d5b1"/><g transform="translate(0,561.17) scale(2.1585) rotate(0)"><path d="M10 0H20V10L10 20H0V10L10 0Z" fill="#f2eede"/></g><rect x="43.17" y="561.17" width="43.17" height="43.17" fill="#f0f7f6"/><path d="M 43.17 604.3399999999999 A 43.17 43.17 0 0 1  86.34 561.17 L 86.34 604.3399999999999" fill="#f3d9b8"/><rect x="86.33333333333333" y="518" width="86.33333333333333" height="86.33333333333333" fill="#ffffff"/><rect x="86.33" y="518" width="43.17" height="43.17" fill="#d3e8e5"/><rect x="86.33" y="518" width="43.17" height="43.17" fill="#e1efed"/><rect x="129.5" y="518" width="43.17" height="43.17" fill="#fcf7f0"/><g transform="translate(129.5,518) scale(2.1585) rotate(0)"><path d="M5 0H10L5 5L0 10V5L5 0Z" fill="#cebfb7"/><path d="M20 15V20H15L20 15Z" fill="#cebfb7"/><path d="M20 5V10L15 15L10 20H5L20 5Z" fill="#cebfb7"/><path d="M15 0H20L5 15.0002L0 20.0002V15.0002L15 0Z" fill="#cebfb7"/></g><rect x="86.33" y="561.17" width="43.17" height="43.17" fill="#fdfaf5"/><g transform="translate(86.33,561.17) scale(2.1585) rotate(0)"><path d="M10 0H20V10L10 20H0V10L10 0Z" fill="#9b7d6c"/></g><rect x="129.5" y="561.17" width="43.17" height="43.17" fill="#f3efe1"/><g transform="translate(129.5,561.17) scale(2.1585) rotate(0)"><path d="M5 0H10L5 5L0 10V5L5 0Z" fill="#86634e"/><path d="M20 15V20H15L20 15Z" fill="#86634e"/><path d="M20 5V10L15 15L10 20H5L20 5Z" fill="#86634e"/><path d="M15 0H20L5 15.0002L0 20.0002V15.0002L15 0Z" fill="#86634e"/></g><rect x="172.67" y="518" width="86.33" height="86.33" fill="#fcf7f0"/><g transform="translate(172.67,518) scale(4.3165) rotate(0)"><path d="M5 0H10L5 5L0 10V5L5 0Z" fill="#fefefd"/><path d="M20 15V20H15L20 15Z" fill="#fefefd"/><path d="M20 5V10L15 15L10 20H5L20 5Z" fill="#fefefd"/><path d="M15 0H20L5 15.0002L0 20.0002V15.0002L15 0Z" fill="#fefefd"/></g><rect x="259" y="518" width="86.33" height="86.33" fill="#fefefd"/><g transform="translate(259,518) scale(4.3165) rotate(0)"><path d="M5 0H10L5 5L0 10V5L5 0Z" fill="#e08e7a"/><path d="M20 15V20H15L20 15Z" fill="#e08e7a"/><path d="M20 5V10L15 15L10 20H5L20 5Z" fill="#e08e7a"/><path d="M15 0H20L5 15.0002L0 20.0002V15.0002L15 0Z" fill="#e08e7a"/></g><rect x="345.33" y="518" width="86.33" height="86.33" fill="#edbcb0"/><g transform="translate(345.33,518) scale(4.3165) rotate(0)"><path d="M5 0H10L5 5L0 10V5L5 0Z" fill="#faf8f2"/><path d="M20 15V20H15L20 15Z" fill="#faf8f2"/><path d="M20 5V10L15 15L10 20H5L20 5Z" fill="#faf8f2"/><path d="M15 0H20L5 15.0002L0 20.0002V15.0002L15 0Z" fill="#faf8f2"/></g><rect x="431.66666666666663" y="518" width="86.33333333333333" height="86.33333333333333" fill="#ffffff"/><rect x="431.67" y="518" width="43.17" height="43.17" fill="#fdf8f2"/><circle cx="453.255" cy="539.585" r="21.585" fill="#f9e9e5"/><rect x="474.83" y="518" width="43.17" height="43.17" fill="#fefbf7"/><g transform="translate(474.83,518) scale(2.1585) rotate(0)"><path d="M10 0L20 10L10 20L0 10L10 0Z" fill="#cee5e2"/></g><rect x="431.67" y="561.17" width="43.17" height="43.17" fill="#f5dad4"/><g transform="translate(431.67,561.17) scale(2.1585) rotate(0)"><path d="M10 0H20L0 20V10L10 0Z" fill="#ede6cf"/><path d="M20 10V20H10L20 10Z" fill="#ede6cf"/></g><rect x="474.83" y="561.17" width="43.17" height="43.17" fill="#e0eeec"/><g transform="translate(474.83,561.17) scale(2.1585) rotate(0)"><path d="M10 0H20L0 20V10L10 0Z" fill="#c6e0dc"/><path d="M20 10V20H10L20 10Z" fill="#c6e0dc"/></g><rect x="518" y="518" width="86.33" height="86.33" fill="#a18676"/><g transform="translate(518,518) scale(4.3165) rotate(0)"><path d="M13 0H20V7L7 20H0V13L13 0Z" fill="#d6e9e6"/></g><rect x="0" y="604.33" width="86.33" height="86.33" fill="#f8e5e0"/><circle cx="43.165" cy="647.495" r="43.165" fill="#977967"/><rect x="86.33" y="604.33" width="86.33" height="86.33" fill="#ecb9ac"/><g transform="translate(86.33,604.33) scale(4.3165) rotate(0)"><path d="M10 0L20 10L10 20L0 10L10 0Z" fill="#f2eddd"/></g><rect x="172.67" y="604.33" width="86.33" height="86.33" fill="#fbf3e9"/><g transform="translate(172.67,604.33) scale(4.3165) rotate(0)"><path fill-rule="evenodd" clip-rule="evenodd" d="M10 20C15.5228 20 20 15.5228 20 10C20 4.47715 15.5228 0 10 0C4.47715 0 0 4.47715 0 10C0 15.5228 4.47715 20 10 20ZM10 17C13.866 17 17 13.866 17 10C17 6.13401 13.866 3 10 3C6.13401 3 3 6.13401 3 10C3 13.866 6.13401 17 10 17Z" fill="#d7ccc5"/></g><rect x="259" y="604.33" width="86.33" height="86.33" fill="#fefbf8"/><g transform="translate(259,604.33) scale(4.3165) rotate(0)"><path d="M5 0H10L5 5L0 10V5L5 0Z" fill="#fbf2ef"/><path d="M20 15V20H15L20 15Z" fill="#fbf2ef"/><path d="M20 5V10L15 15L10 20H5L20 5Z" fill="#fbf2ef"/><path d="M15 0H20L5 15.0002L0 20.0002V15.0002L15 0Z" fill="#fbf2ef"/></g><rect x="345.33" y="604.33" width="86.33" height="86.33" fill="#f1ebda"/><g transform="translate(345.33,604.33) scale(4.3165) rotate(0)"><path d="M5 0H10L5 5L0 10V5L5 0Z" fill="#f3d9b8"/><path d="M20 15V20H15L20 15Z" fill="#f3d9b8"/><path d="M20 5V10L15 15L10 20H5L20 5Z" fill="#f3d9b8"/><path d="M15 0H20L5 15.0002L0 20.0002V15.0002L15 0Z" fill="#f3d9b8"/></g><rect x="431.66666666666663" y="604.3333333333333" width="86.33333333333333" height="86.33333333333333" fill="#ffffff"/><rect x="431.67" y="604.33" width="43.17" height="43.17" fill="#f4f9f8"/><rect x="431.67" y="604.33" width="43.17" height="43.17" fill="#fefefd"/><rect x="474.83" y="604.33" width="43.17" height="43.17" fill="#eab3a5"/><g transform="translate(474.83,604.33) scale(2.1585) rotate(0)"><path d="M13 0H20V7L7 20H0V13L13 0Z" fill="#f9eedf"/></g><rect x="431.67" y="647.5" width="43.17" height="43.17" fill="#79523b"/><rect x="431.67" y="647.5" width="43.17" height="43.17" fill="#7b543e"/><rect x="474.83" y="647.5" width="43.17" height="43.17" fill="#d0e6e2"/><g transform="translate(474.83,647.5) scale(2.1585) rotate(0)"><path d="M10 0H20V10L10 20H0V10L10 0Z" fill="#d3e7e4"/></g><rect x="518" y="604.33" width="86.33" height="86.33" fill="#efead7"/><g transform="translate(518,604.33) scale(4.3165) rotate(0)"><path d="M10 0L20 10L10 20L0 10L10 0Z" fill="#e29683"/></g><rect x="0" y="690.6666666666666" width="86.33333333333333" height="86.33333333333333" fill="#ffffff"/><rect x="0" y="690.67" width="43.17" height="43.17" fill="#e6f2f0"/><g transform="translate(0,690.67) scale(2.1585) rotate(0)"><path fill-rule="evenodd" clip-rule="evenodd" d="M10 20C15.5228 20 20 15.5228 20 10C20 4.47715 15.5228 0 10 0C4.47715 0 0 4.47715 0 10C0 15.5228 4.47715 20 10 20ZM10 17C13.866 17 17 13.866 17 10C17 6.13401 13.866 3 10 3C6.13401 3 3 6.13401 3 10C3 13.866 6.13401 17 10 17Z" fill="#f4f0e3"/></g><rect x="43.17" y="690.67" width="43.17" height="43.17" fill="#f7e5cf"/><path d="M 43.17 733.8399999999999 A 43.17 43.17 0 0 1  86.34 690.67 L 43.17 733.8399999999999 A 43.17 43.17 0 0 0 86.34 690.67" fill="#ac9385"/><rect x="0" y="733.83" width="43.17" height="43.17" fill="#7c5640"/><g transform="translate(0,733.83) scale(2.1585) rotate(0)"><path d="M10 0H20L0 20V10L10 0Z" fill="#ebb8aa"/><path d="M20 10V20H10L20 10Z" fill="#ebb8aa"/></g><rect x="43.17" y="733.83" width="43.17" height="43.17" fill="#d1e7e4"/><path d="M 43.17 777 A 43.17 43.17 0 0 1  86.34 733.83 L 86.34 777" fill="#fcf5ed"/><rect x="86.33333333333333" y="690.6666666666666" width="86.33333333333333" height="86.33333333333333" fill="#ffffff"/><rect x="86.33" y="690.67" width="43.17" height="43.17" fill="#fefefd"/><g transform="translate(86.33,690.67) scale(2.1585) rotate(0)"><path d="M13 0H20V7L7 20H0V13L13 0Z" fill="#8b6955"/></g><rect x="129.5" y="690.67" width="43.17" height="43.17" fill="#f6fafa"/><g transform="translate(129.5,690.67) scale(2.1585) rotate(0)"><path d="M13 0H20V7L7 20H0V13L13 0Z" fill="#8a6854"/></g><rect x="86.33" y="733.83" width="43.17" height="43.17" fill="#ebf4f3"/><g transform="translate(86.33,733.83) scale(2.1585) rotate(0)"><path d="M10 0H20L0 20V10L10 0Z" fill="#f8e9d6"/><path d="M20 10V20H10L20 10Z" fill="#f8e9d6"/></g><rect x="129.5" y="733.83" width="43.17" height="43.17" fill="#e4f0ef"/><g transform="translate(129.5,733.83) scale(2.1585) rotate(0)"><path d="M10 0H20L0 20V10L10 0Z" fill="#f4dfc3"/><path d="M20 10V20H10L20 10Z" fill="#f4dfc3"/></g><rect x="172.66666666666666" y="690.6666666666666" width="86.33333333333333" height="86.33333333333333" fill="#ffffff"/><rect x="172.67" y="690.67" width="43.17" height="43.17" fill="#a99081"/><g transform="translate(172.67,690.67) scale(2.1585) rotate(0)"><path d="M10 0H20L0 20V10L10 0Z" fill="#fbf9f4"/><path d="M20 10V20H10L20 10Z" fill="#fbf9f4"/></g><rect x="215.83" y="690.67" width="43.17" height="43.17" fill="#deedeb"/><g transform="translate(215.83,690.67) scale(2.1585) rotate(0)"><path d="M13 0H20V7L7 20H0V13L13 0Z" fill="#faf8f2"/></g><rect x="172.67" y="733.83" width="43.17" height="43.17" fill="#f0ead7"/><circle cx="194.255" cy="755.4150000000001" r="21.585" fill="#ddedeb"/><rect x="215.83" y="733.83" width="43.17" height="43.17" fill="#eee8d4"/><circle cx="237.41500000000002" cy="755.4150000000001" r="21.585" fill="#ac9486"/><rect x="259" y="690.6666666666666" width="86.33333333333333" height="86.33333333333333" fill="#ffffff"/><rect x="259" y="690.67" width="43.17" height="43.17" fill="#dbd1cb"/><path d="M 259 733.8399999999999 A 43.17 43.17 0 0 1  302.17 690.67 L 259 733.8399999999999 A 43.17 43.17 0 0 0 302.17 690.67" fill="#e49e8c"/><rect x="302.17" y="690.67" width="43.17" height="43.17" fill="#f6e3ca"/><circle cx="323.755" cy="712.255" r="21.585" fill="#c4b2a8"/><rect x="259" y="733.83" width="43.17" height="43.17" fill="#e9afa0"/><path d="M 259 733.83 A 43.17 43.17 0 0 0 302.17 777 L 302.17 733.83" fill="#f3eedf"/><rect x="302.17" y="733.83" width="43.17" height="43.17" fill="#e9b0a2"/><g transform="translate(302.17,733.83) scale(2.1585) rotate(0)"><path d="M10 0L20 10L10 20L0 10L10 0Z" fill="#fbf4ea"/></g><rect x="345.33" y="690.67" width="86.33" height="86.33" fill="#a18575"/><g transform="translate(345.33,690.67) scale(4.3165) rotate(0)"><path d="M10 0L20 10L10 20L0 10L10 0Z" fill="#c4b2a8"/></g><rect x="431.67" y="690.67" width="86.33" height="86.33" fill="#f2efed"/><g transform="translate(431.67,690.67) scale(4.3165) rotate(0)"><path d="M5 0H10L5 5L0 10V5L5 0Z" fill="#cfe6e2"/><path d="M20 15V20H15L20 15Z" fill="#cfe6e2"/><path d="M20 5V10L15 15L10 20H5L20 5Z" fill="#cfe6e2"/><path d="M15 0H20L5 15.0002L0 20.0002V15.0002L15 0Z" fill="#cfe6e2"/></g><rect x="518" y="690.67" width="86.33" height="86.33" fill="#e5a190"/><g transform="translate(518,690.67) scale(4.3165) rotate(0)"><path d="M10 0H20V10L10 20H0V10L10 0Z" fill="#fffffe"/></g></g></svg>