<svg width="2847" height="4351" viewBox="0 0 2847 4351" fill="none" xmlns="http://www.w3.org/2000/svg">
<path d="M1251.67 89.3223H1591.46C1592.02 89.3223 1592.46 89.77 1592.46 90.3223V217.496H2739.2C2739.75 217.496 2740.2 217.943 2740.2 218.496V573.827C2740.2 574.379 2739.75 574.827 2739.2 574.827H2582.89C2582.89 3217.02 2740.09 3217.91 2740.2 4234.5C2740.2 4235.05 2739.75 4235.53 2739.2 4235.53H113.645C113.092 4235.53 112.645 4235.06 112.645 4234.5C112.759 3202.37 285.484 3191.8 285.484 574.827H113.645C113.092 574.827 112.645 574.379 112.645 573.827V218.496C112.645 217.943 113.092 217.496 113.645 217.496H1250.67V90.3223C1250.67 89.77 1251.12 89.3223 1251.67 89.3223Z" fill="#D2AC83"/>
<path d="M1250.67 217.496V90.3223C1250.67 89.77 1251.12 89.3223 1251.67 89.3223H1591.46C1592.02 89.3223 1592.46 89.77 1592.46 90.3223V217.496M1250.67 217.496H113.645C113.092 217.496 112.645 217.943 112.645 218.496V573.827C112.645 574.379 113.092 574.827 113.645 574.827H285.484M1250.67 217.496V574.827M565.135 574.827H285.484M675.83 574.827H737.975M848.67 574.827H1250.67M1250.67 574.827V773.855C1250.67 774.407 1251.12 774.855 1251.67 774.855H1591.46C1592.02 774.855 1592.46 774.407 1592.46 773.855V574.827M1592.46 574.827V217.496M1592.46 574.827H2582.89M1592.46 217.496H2739.2C2739.75 217.496 2740.2 217.943 2740.2 218.496V573.827C2740.2 574.379 2739.75 574.827 2739.2 574.827H2582.89M2085.5 1771V1215C2085.5 1214.45 2085.05 1214 2084.5 1214H765C764.448 1214 764 1214.45 764 1215V3828C764 3828.55 764.448 3829 765 3829H2084.5C2085.05 3829 2085.5 3828.55 2085.5 3828V1960M285.484 574.827C285.484 3191.8 112.759 3202.37 112.645 4234.5C112.645 4235.06 113.092 4235.53 113.645 4235.53H2739.2C2739.75 4235.53 2740.2 4235.05 2740.2 4234.5C2740.09 3217.91 2582.89 3217.02 2582.89 574.827" stroke="black" stroke-width="20"/>
<g clip-path="url(#clip0_888_12676)">
<rect width="1300" height="2600" transform="translate(773 1219)" fill="#D2AC83"/>
<path d="M2073 1219H773V3819H2073V1219Z" fill="white"/>
<path d="M935.5 1219H773V1381.5H935.5V1219Z" fill="white"/>
<path d="M854.246 1219H773V1300.25H854.246V1219Z" fill="#F4F5EC"/>
<path d="M773 1300.25C794.548 1300.25 815.213 1291.69 830.45 1276.45C845.686 1261.21 854.246 1240.55 854.246 1219H773" fill="#FB8734"/>
<path d="M935.492 1219H854.246V1300.25H935.492V1219Z" fill="#F6F7F0"/>
<path d="M935.492 1219H854.246V1227.12H935.492V1219Z" fill="#E7F8FB"/>
<path d="M935.492 1235.25H854.246V1243.37H935.492V1235.25Z" fill="#E7F8FB"/>
<path d="M935.492 1251.5H854.246V1259.62H935.492V1251.5Z" fill="#E7F8FB"/>
<path d="M935.492 1267.75H854.246V1275.87H935.492V1267.75Z" fill="#E7F8FB"/>
<path d="M935.492 1284H854.246V1292.12H935.492V1284Z" fill="#E7F8FB"/>
<path d="M854.246 1300.25H773V1381.49H854.246V1300.25Z" fill="#FEF8F2"/>
<path d="M773 1300.25H854.246V1381.49L773 1300.25Z" fill="#FAC8A0"/>
<path d="M935.492 1300.25H854.246V1381.49H935.492V1300.25Z" fill="#FEE5D2"/>
<path d="M854.246 1300.25C875.794 1300.25 896.459 1308.81 911.696 1324.04C926.932 1339.28 935.492 1359.94 935.492 1381.49H854.246" fill="#FED5B7"/>
<path d="M1098 1219H935.5V1381.5H1098V1219Z" fill="white"/>
<path d="M1016.74 1219H935.492V1300.25H1016.74V1219Z" fill="#FDBF93"/>
<path d="M935.492 1219C935.492 1240.55 944.052 1261.21 959.289 1276.45C974.525 1291.69 995.19 1300.25 1016.74 1300.25V1219" fill="#FDBF92"/>
<path d="M1097.98 1219H1016.74V1300.25H1097.98V1219Z" fill="#F49244"/>
<path d="M1024.86 1219H1016.74V1300.25H1024.86V1219Z" fill="#E4E7D2"/>
<path d="M1041.11 1219H1032.99V1300.25H1041.11V1219Z" fill="#E4E7D2"/>
<path d="M1057.36 1219H1049.24V1300.25H1057.36V1219Z" fill="#E4E7D2"/>
<path d="M1073.61 1219H1065.49V1300.25H1073.61V1219Z" fill="#E4E7D2"/>
<path d="M1089.86 1219H1081.73V1300.25H1089.86V1219Z" fill="#E4E7D2"/>
<path d="M1016.74 1300.25H935.492V1381.49H1016.74V1300.25Z" fill="#A9DCD9"/>
<path d="M935.492 1300.25H1016.74V1381.49L935.492 1300.25Z" fill="#F9FCFC"/>
<path d="M1097.98 1300.25H1016.74V1381.49H1097.98V1300.25Z" fill="#F9C59C"/>
<path d="M1016.74 1300.25C1016.74 1321.79 1025.3 1342.46 1040.53 1357.7C1055.77 1372.93 1076.44 1381.49 1097.98 1381.49V1300.25" fill="#FEF8F2"/>
<path d="M1260.51 1219H1098.02V1381.49H1260.51V1219Z" fill="#FDB480"/>
<path d="M1098.02 1381.49C1098.02 1338.4 1115.14 1297.07 1145.61 1266.59C1176.08 1236.12 1217.41 1219 1260.51 1219V1381.49" fill="#FB9042"/>
<path d="M1423 1219H1260.51V1381.49H1423V1219Z" fill="#F2F4EA"/>
<path d="M1276.76 1219H1260.51V1381.49H1276.76V1219Z" fill="#F6FBFB"/>
<path d="M1309.26 1219H1293.01V1381.49H1309.26V1219Z" fill="#F6FBFB"/>
<path d="M1341.75 1219H1325.5V1381.49H1341.75V1219Z" fill="#F6FBFB"/>
<path d="M1374.25 1219H1358V1381.49H1374.25V1219Z" fill="#F6FBFB"/>
<path d="M1406.75 1219H1390.5V1381.49H1406.75V1219Z" fill="#F6FBFB"/>
<path d="M1585.49 1219H1423V1381.49H1585.49V1219Z" fill="#F7B17A"/>
<path d="M1585.49 1219H1423V1235.25H1585.49V1219Z" fill="#75D6E9"/>
<path d="M1585.49 1251.5H1423V1267.75H1585.49V1251.5Z" fill="#75D6E9"/>
<path d="M1585.49 1284H1423V1300.25H1585.49V1284Z" fill="#75D6E9"/>
<path d="M1585.49 1316.5H1423V1332.75H1585.49V1316.5Z" fill="#75D6E9"/>
<path d="M1585.49 1348.99H1423V1365.24H1585.49V1348.99Z" fill="#75D6E9"/>
<path d="M1747.98 1219H1585.49V1381.49H1747.98V1219Z" fill="#84DAEB"/>
<path d="M1585.49 1381.49C1628.59 1381.49 1669.92 1364.37 1700.39 1333.9C1730.86 1303.43 1747.98 1262.1 1747.98 1219H1585.49" fill="#FBD2B3"/>
<path d="M1910.51 1219H1748.02V1381.49H1910.51V1219Z" fill="#EEF0E3"/>
<path d="M1748.02 1219L1910.51 1381.49H1748.02V1219Z" fill="#E3E7D1"/>
<path d="M2073 1219H1910.5V1381.5H2073V1219Z" fill="white"/>
<path d="M1991.75 1219H1910.51V1300.25H1991.75V1219Z" fill="#F5FBFB"/>
<path d="M1918.63 1219H1910.51V1300.25H1918.63V1219Z" fill="#F3F4EB"/>
<path d="M1934.88 1219H1926.76V1300.25H1934.88V1219Z" fill="#F3F4EB"/>
<path d="M1951.13 1219H1943.01V1300.25H1951.13V1219Z" fill="#F3F4EB"/>
<path d="M1967.38 1219H1959.26V1300.25H1967.38V1219Z" fill="#F3F4EB"/>
<path d="M1983.63 1219H1975.5V1300.25H1983.63V1219Z" fill="#F3F4EB"/>
<path d="M2073 1219H1991.75V1300.25H2073V1219Z" fill="#F6A362"/>
<path d="M2073 1219H1991.75V1300.25H2073V1219Z" fill="#E2E6CF"/>
<path d="M1991.75 1300.25H1910.51V1381.49H1991.75V1300.25Z" fill="#E7F5F4"/>
<path d="M1991.75 1300.25H1910.51V1308.37H1991.75V1300.25Z" fill="#FDC195"/>
<path d="M1991.75 1316.5H1910.51V1324.62H1991.75V1316.5Z" fill="#FDC195"/>
<path d="M1991.75 1332.74H1910.51V1340.87H1991.75V1332.74Z" fill="#FDC195"/>
<path d="M1991.75 1348.99H1910.51V1357.12H1991.75V1348.99Z" fill="#FDC195"/>
<path d="M1991.75 1365.24H1910.51V1373.37H1991.75V1365.24Z" fill="#FDC195"/>
<path d="M2073 1300.25H1991.75V1381.49H2073V1300.25Z" fill="#D0ECEA"/>
<path d="M1991.75 1300.25C2013.3 1300.25 2033.97 1308.81 2049.2 1324.04C2064.44 1339.28 2073 1359.94 2073 1381.49L1991.75 1300.25C1991.75 1321.79 2000.31 1342.46 2015.55 1357.7C2030.79 1372.93 2051.45 1381.49 2073 1381.49" fill="#FCA15F"/>
<path d="M935.492 1381.49H773V1543.98H935.492V1381.49Z" fill="#E3E6D0"/>
<path d="M773 1381.49L935.492 1543.98H773V1381.49Z" fill="#B8E2DF"/>
<path d="M1098 1381.5H935.5V1544H1098V1381.5Z" fill="white"/>
<path d="M1016.74 1381.49H935.492V1462.74H1016.74V1381.49Z" fill="#FA7718"/>
<path d="M943.617 1381.49H935.492V1462.74H943.617V1381.49Z" fill="#FEF6EF"/>
<path d="M959.867 1381.49H951.742V1462.74H959.867V1381.49Z" fill="#FEF6EF"/>
<path d="M976.115 1381.49H967.99V1462.74H976.115V1381.49Z" fill="#FEF6EF"/>
<path d="M992.365 1381.49H984.24V1462.74H992.365V1381.49Z" fill="#FEF6EF"/>
<path d="M1008.61 1381.49H1000.49V1462.74H1008.61V1381.49Z" fill="#FEF6EF"/>
<path d="M1097.98 1381.49H1016.74V1462.74H1097.98V1381.49Z" fill="#F7F8F2"/>
<path d="M1097.98 1381.49H1016.74V1462.74H1097.98V1381.49Z" fill="#FEFEFE"/>
<path d="M1016.74 1462.74H935.492V1543.98H1016.74V1462.74Z" fill="#DFF2F1"/>
<path d="M1016.74 1462.74H935.492V1470.86H1016.74V1462.74Z" fill="#C6EEF6"/>
<path d="M1016.74 1478.99H935.492V1487.11H1016.74V1478.99Z" fill="#C6EEF6"/>
<path d="M1016.74 1495.24H935.492V1503.36H1016.74V1495.24Z" fill="#C6EEF6"/>
<path d="M1016.74 1511.49H935.492V1519.61H1016.74V1511.49Z" fill="#C6EEF6"/>
<path d="M1016.74 1527.73H935.492V1535.86H1016.74V1527.73Z" fill="#C6EEF6"/>
<path d="M1097.98 1462.74H1016.74V1543.98H1097.98V1462.74Z" fill="#FB8F40"/>
<path d="M1016.74 1462.74H1097.98L1016.74 1543.98V1462.74Z" fill="#FDC69E"/>
<path d="M1260.51 1381.49H1098.02V1543.98H1260.51V1381.49Z" fill="#FACCA8"/>
<path d="M1114.26 1381.49H1098.02V1543.98H1114.26V1381.49Z" fill="#76D6E9"/>
<path d="M1146.76 1381.49H1130.51V1543.98H1146.76V1381.49Z" fill="#76D6E9"/>
<path d="M1179.26 1381.49H1163.01V1543.98H1179.26V1381.49Z" fill="#76D6E9"/>
<path d="M1211.76 1381.49H1195.51V1543.98H1211.76V1381.49Z" fill="#76D6E9"/>
<path d="M1244.26 1381.49H1228.01V1543.98H1244.26V1381.49Z" fill="#76D6E9"/>
<path d="M1423 1381.49H1260.51V1543.98H1423V1381.49Z" fill="#FEF8F3"/>
<path d="M1276.76 1381.49H1260.51V1543.98H1276.76V1381.49Z" fill="#87DBEC"/>
<path d="M1309.26 1381.49H1293.01V1543.98H1309.26V1381.49Z" fill="#87DBEC"/>
<path d="M1341.75 1381.49H1325.5V1543.98H1341.75V1381.49Z" fill="#87DBEC"/>
<path d="M1374.25 1381.49H1358V1543.98H1374.25V1381.49Z" fill="#87DBEC"/>
<path d="M1406.75 1381.49H1390.5V1543.98H1406.75V1381.49Z" fill="#87DBEC"/>
<path d="M1585.49 1381.49H1423V1543.98H1585.49V1381.49Z" fill="#A0E3F0"/>
<path d="M1585.49 1381.49H1423V1397.74H1585.49V1381.49Z" fill="#FB8834"/>
<path d="M1585.49 1413.99H1423V1430.24H1585.49V1413.99Z" fill="#FB8834"/>
<path d="M1585.49 1446.49H1423V1462.74H1585.49V1446.49Z" fill="#FB8834"/>
<path d="M1585.49 1478.99H1423V1495.24H1585.49V1478.99Z" fill="#FB8834"/>
<path d="M1585.49 1511.49H1423V1527.74H1585.49V1511.49Z" fill="#FB8834"/>
<path d="M1747.98 1381.49H1585.49V1543.98H1747.98V1381.49Z" fill="#D4F2F8"/>
<path d="M1747.98 1381.49H1585.49V1397.74H1747.98V1381.49Z" fill="#B1DFDC"/>
<path d="M1747.98 1413.99H1585.49V1430.24H1747.98V1413.99Z" fill="#B1DFDC"/>
<path d="M1747.98 1446.49H1585.49V1462.74H1747.98V1446.49Z" fill="#B1DFDC"/>
<path d="M1747.98 1478.99H1585.49V1495.24H1747.98V1478.99Z" fill="#B1DFDC"/>
<path d="M1747.98 1511.49H1585.49V1527.74H1747.98V1511.49Z" fill="#B1DFDC"/>
<path d="M1910.51 1381.49H1748.02V1543.98H1910.51V1381.49Z" fill="#FCA769"/>
<path d="M1764.26 1381.49H1748.02V1543.98H1764.26V1381.49Z" fill="#E6E9D6"/>
<path d="M1796.76 1381.49H1780.51V1543.98H1796.76V1381.49Z" fill="#E6E9D6"/>
<path d="M1829.26 1381.49H1813.01V1543.98H1829.26V1381.49Z" fill="#E6E9D6"/>
<path d="M1861.76 1381.49H1845.51V1543.98H1861.76V1381.49Z" fill="#E6E9D6"/>
<path d="M1894.26 1381.49H1878.01V1543.98H1894.26V1381.49Z" fill="#E6E9D6"/>
<path d="M2073 1381.49H1910.51V1543.98H2073V1381.49Z" fill="#FEFEFD"/>
<path d="M2073 1381.49H1910.51V1397.74H2073V1381.49Z" fill="#EEF8F8"/>
<path d="M2073 1413.99H1910.51V1430.24H2073V1413.99Z" fill="#EEF8F8"/>
<path d="M2073 1446.49H1910.51V1462.74H2073V1446.49Z" fill="#EEF8F8"/>
<path d="M2073 1478.99H1910.51V1495.24H2073V1478.99Z" fill="#EEF8F8"/>
<path d="M2073 1511.49H1910.51V1527.74H2073V1511.49Z" fill="#EEF8F8"/>
<path d="M935.492 1544.02H773V1706.51H935.492V1544.02Z" fill="#F8F9F3"/>
<path d="M789.249 1544.02H773V1706.51H789.249V1544.02Z" fill="#E6E9D6"/>
<path d="M821.747 1544.02H805.498V1706.51H821.747V1544.02Z" fill="#E6E9D6"/>
<path d="M854.245 1544.02H837.996V1706.51H854.245V1544.02Z" fill="#E6E9D6"/>
<path d="M886.745 1544.02H870.496V1706.51H886.745V1544.02Z" fill="#E6E9D6"/>
<path d="M919.243 1544.02H902.994V1706.51H919.243V1544.02Z" fill="#E6E9D6"/>
<path d="M1098 1544H935.5V1706.5H1098V1544Z" fill="white"/>
<path d="M1016.74 1544.02H935.492V1625.26H1016.74V1544.02Z" fill="#B1DFDC"/>
<path d="M1016.74 1544.02H935.492V1625.26H1016.74V1544.02Z" fill="#E4F4F3"/>
<path d="M1097.98 1544.02H1016.74V1625.26H1097.98V1544.02Z" fill="#FDEDE0"/>
<path d="M1024.86 1544.02H1016.74V1625.26H1024.86V1544.02Z" fill="#EFFAFC"/>
<path d="M1041.11 1544.02H1032.99V1625.26H1041.11V1544.02Z" fill="#EFFAFC"/>
<path d="M1057.36 1544.02H1049.24V1625.26H1057.36V1544.02Z" fill="#EFFAFC"/>
<path d="M1073.61 1544.02H1065.49V1625.26H1073.61V1544.02Z" fill="#EFFAFC"/>
<path d="M1089.86 1544.02H1081.73V1625.26H1089.86V1544.02Z" fill="#EFFAFC"/>
<path d="M1016.74 1625.26H935.492V1706.51H1016.74V1625.26Z" fill="#6DD3E8"/>
<path d="M935.492 1625.26H1016.74V1706.51L935.492 1625.26Z" fill="#FB9144"/>
<path d="M1097.98 1625.26H1016.74V1706.51H1097.98V1625.26Z" fill="#C8E9E7"/>
<path d="M1016.74 1625.26L1097.98 1706.51H1016.74V1625.26Z" fill="#E1E5CE"/>
<path d="M1260.51 1544.02H1098.02V1706.51H1260.51V1544.02Z" fill="#88DBEC"/>
<path d="M1114.26 1544.02H1098.02V1706.51H1114.26V1544.02Z" fill="#F49244"/>
<path d="M1146.76 1544.02H1130.51V1706.51H1146.76V1544.02Z" fill="#F49244"/>
<path d="M1179.26 1544.02H1163.01V1706.51H1179.26V1544.02Z" fill="#F49244"/>
<path d="M1211.76 1544.02H1195.51V1706.51H1211.76V1544.02Z" fill="#F49244"/>
<path d="M1244.26 1544.02H1228.01V1706.51H1244.26V1544.02Z" fill="#F49244"/>
<path d="M1423 1544.02H1260.51V1706.51H1423V1544.02Z" fill="#F9FDFE"/>
<path d="M1260.51 1706.51C1260.51 1663.41 1277.63 1622.08 1308.1 1591.61C1338.57 1561.14 1379.9 1544.02 1423 1544.02L1260.51 1706.51C1303.6 1706.51 1344.93 1689.39 1375.41 1658.91C1405.88 1628.44 1423 1587.11 1423 1544.02" fill="#C3E7E5"/>
<path d="M1585.49 1544.02H1423V1706.51H1585.49V1544.02Z" fill="#B0DFDC"/>
<path d="M1585.49 1544.02H1423V1560.26H1585.49V1544.02Z" fill="#F8B683"/>
<path d="M1585.49 1576.51H1423V1592.76H1585.49V1576.51Z" fill="#F8B683"/>
<path d="M1585.49 1609.01H1423V1625.26H1585.49V1609.01Z" fill="#F8B683"/>
<path d="M1585.49 1641.51H1423V1657.76H1585.49V1641.51Z" fill="#F8B683"/>
<path d="M1585.49 1674.01H1423V1690.26H1585.49V1674.01Z" fill="#F8B683"/>
<path d="M1747.98 1544.02H1585.49V1706.51H1747.98V1544.02Z" fill="#F7FDFE"/>
<path d="M1747.98 1544.02H1585.49V1560.26H1747.98V1544.02Z" fill="#FB9347"/>
<path d="M1747.98 1576.51H1585.49V1592.76H1747.98V1576.51Z" fill="#FB9347"/>
<path d="M1747.98 1609.01H1585.49V1625.26H1747.98V1609.01Z" fill="#FB9347"/>
<path d="M1747.98 1641.51H1585.49V1657.76H1747.98V1641.51Z" fill="#FB9347"/>
<path d="M1747.98 1674.01H1585.49V1690.26H1747.98V1674.01Z" fill="#FB9347"/>
<path d="M1910.51 1544.02H1748.02V1706.51H1910.51V1544.02Z" fill="#F48C3A"/>
<path d="M1748.02 1544.02H1910.51V1706.51L1748.02 1544.02Z" fill="#EDF8F7"/>
<path d="M2073 1544.02H1910.51V1706.51H2073V1544.02Z" fill="#CCEAE8"/>
<path d="M1910.51 1544.02C1953.6 1544.02 1994.93 1561.14 2025.41 1591.61C2055.88 1622.08 2073 1663.41 2073 1706.51H1910.51" fill="#FEDDC6"/>
<path d="M935.492 1706.51H773V1869H935.492V1706.51Z" fill="#FEE5D3"/>
<path d="M789.249 1706.51H773V1869H789.249V1706.51Z" fill="#BDEBF4"/>
<path d="M821.747 1706.51H805.498V1869H821.747V1706.51Z" fill="#BDEBF4"/>
<path d="M854.245 1706.51H837.996V1869H854.245V1706.51Z" fill="#BDEBF4"/>
<path d="M886.745 1706.51H870.496V1869H886.745V1706.51Z" fill="#BDEBF4"/>
<path d="M919.243 1706.51H902.994V1869H919.243V1706.51Z" fill="#BDEBF4"/>
<path d="M1097.98 1706.51H935.492V1869H1097.98V1706.51Z" fill="#FDEDE0"/>
<path d="M935.492 1706.51H1097.98V1869L935.492 1706.51Z" fill="#FEDEC7"/>
<path d="M1260.51 1706.51H1098.02V1869H1260.51V1706.51Z" fill="#FB842D"/>
<path d="M1114.26 1706.51H1098.02V1869H1114.26V1706.51Z" fill="#FACAA5"/>
<path d="M1146.76 1706.51H1130.51V1869H1146.76V1706.51Z" fill="#FACAA5"/>
<path d="M1179.26 1706.51H1163.01V1869H1179.26V1706.51Z" fill="#FACAA5"/>
<path d="M1211.76 1706.51H1195.51V1869H1211.76V1706.51Z" fill="#FACAA5"/>
<path d="M1244.26 1706.51H1228.01V1869H1244.26V1706.51Z" fill="#FACAA5"/>
<path d="M1423 1706.51H1260.51V1869H1423V1706.51Z" fill="#F7B077"/>
<path d="M1423 1706.51H1260.51V1722.76H1423V1706.51Z" fill="#FEE5D3"/>
<path d="M1423 1739.01H1260.51V1755.26H1423V1739.01Z" fill="#FEE5D3"/>
<path d="M1423 1771.5H1260.51V1787.75H1423V1771.5Z" fill="#FEE5D3"/>
<path d="M1423 1804H1260.51V1820.25H1423V1804Z" fill="#FEE5D3"/>
<path d="M1423 1836.5H1260.51V1852.75H1423V1836.5Z" fill="#FEE5D3"/>
<path d="M1585.5 1706.5H1423V1869H1585.5V1706.5Z" fill="white"/>
<path d="M1504.25 1706.51H1423V1787.75H1504.25V1706.51Z" fill="#F8BA89"/>
<path d="M1504.25 1706.51H1423V1787.75H1504.25V1706.51Z" fill="#C0E5E3"/>
<path d="M1585.49 1706.51H1504.25V1787.75H1585.49V1706.51Z" fill="#FEE8D8"/>
<path d="M1504.25 1787.75C1525.79 1787.75 1546.46 1779.19 1561.7 1763.96C1576.93 1748.72 1585.49 1728.06 1585.49 1706.51H1504.25" fill="#F6A362"/>
<path d="M1504.25 1787.75H1423V1869H1504.25V1787.75Z" fill="#FEEADB"/>
<path d="M1423 1787.75C1444.55 1787.75 1465.21 1796.31 1480.45 1811.55C1495.69 1826.79 1504.25 1847.45 1504.25 1869H1423" fill="#FEDFC8"/>
<path d="M1585.49 1787.75H1504.25V1869H1585.49V1787.75Z" fill="#F59A52"/>
<path d="M1585.49 1787.75V1869H1504.25L1585.49 1787.75Z" fill="#73D5E9"/>
<path d="M1747.98 1706.51H1585.49V1869H1747.98V1706.51Z" fill="#9CE1EF"/>
<path d="M1601.74 1706.51H1585.49V1869H1601.74V1706.51Z" fill="#BFECF5"/>
<path d="M1634.24 1706.51H1617.99V1869H1634.24V1706.51Z" fill="#BFECF5"/>
<path d="M1666.74 1706.51H1650.49V1869H1666.74V1706.51Z" fill="#BFECF5"/>
<path d="M1699.24 1706.51H1682.99V1869H1699.24V1706.51Z" fill="#BFECF5"/>
<path d="M1731.74 1706.51H1715.49V1869H1731.74V1706.51Z" fill="#BFECF5"/>
<path d="M1910.51 1706.51H1748.02V1869H1910.51V1706.51Z" fill="#F6F7F0"/>
<path d="M1764.26 1706.51H1748.02V1869H1764.26V1706.51Z" fill="#91DEED"/>
<path d="M1796.76 1706.51H1780.51V1869H1796.76V1706.51Z" fill="#91DEED"/>
<path d="M1829.26 1706.51H1813.01V1869H1829.26V1706.51Z" fill="#91DEED"/>
<path d="M1861.76 1706.51H1845.51V1869H1861.76V1706.51Z" fill="#91DEED"/>
<path d="M1894.26 1706.51H1878.01V1869H1894.26V1706.51Z" fill="#91DEED"/>
<path d="M2073 1706.5H1910.5V1869H2073V1706.5Z" fill="white"/>
<path d="M1991.75 1706.51H1910.51V1787.75H1991.75V1706.51Z" fill="#DFF2F1"/>
<path d="M1991.75 1706.51H1910.51V1787.75H1991.75V1706.51Z" fill="#F6A768"/>
<path d="M2073 1706.51H1991.75V1787.75H2073V1706.51Z" fill="#F48E3E"/>
<path d="M1991.75 1706.51C1991.75 1728.06 2000.31 1748.72 2015.55 1763.96C2030.79 1779.19 2051.45 1787.75 2073 1787.75V1706.51" fill="#F7FCFB"/>
<path d="M1991.75 1787.75H1910.51V1869H1991.75V1787.75Z" fill="#F2FBFD"/>
<path d="M1918.63 1787.75H1910.51V1869H1918.63V1787.75Z" fill="#CBEFF7"/>
<path d="M1934.88 1787.75H1926.76V1869H1934.88V1787.75Z" fill="#CBEFF7"/>
<path d="M1951.13 1787.75H1943.01V1869H1951.13V1787.75Z" fill="#CBEFF7"/>
<path d="M1967.38 1787.75H1959.26V1869H1967.38V1787.75Z" fill="#CBEFF7"/>
<path d="M1983.63 1787.75H1975.5V1869H1983.63V1787.75Z" fill="#CBEFF7"/>
<path d="M2073 1787.75H1991.75V1869H2073V1787.75Z" fill="#9EE2F0"/>
<path d="M1999.88 1787.75H1991.75V1869H1999.88V1787.75Z" fill="#C1E5E3"/>
<path d="M2016.13 1787.75H2008V1869H2016.13V1787.75Z" fill="#C1E5E3"/>
<path d="M2032.38 1787.75H2024.25V1869H2032.38V1787.75Z" fill="#C1E5E3"/>
<path d="M2048.63 1787.75H2040.5V1869H2048.63V1787.75Z" fill="#C1E5E3"/>
<path d="M2064.87 1787.75H2056.75V1869H2064.87V1787.75Z" fill="#C1E5E3"/>
<path d="M935.5 1869H773V2031.5H935.5V1869Z" fill="white"/>
<path d="M854.246 1869H773V1950.25H854.246V1869Z" fill="#BDE4E2"/>
<path d="M773 1869C773 1890.55 781.56 1911.21 796.796 1926.45C812.033 1941.69 832.698 1950.25 854.246 1950.25V1869" fill="#90DEED"/>
<path d="M935.492 1869H854.246V1950.25H935.492V1869Z" fill="#E1E4CD"/>
<path d="M854.246 1869C854.246 1890.55 862.806 1911.21 878.042 1926.45C893.279 1941.69 913.944 1950.25 935.492 1950.25V1869" fill="#90DEED"/>
<path d="M854.246 1950.25H773V2031.49H854.246V1950.25Z" fill="#F38731"/>
<path d="M854.246 1950.25H773V2031.49H854.246V1950.25Z" fill="#BBE3E1"/>
<path d="M935.492 1950.25H854.246V2031.49H935.492V1950.25Z" fill="#90DEED"/>
<path d="M854.246 2031.49C875.794 2031.49 896.459 2022.93 911.696 2007.7C926.932 1992.46 935.492 1971.79 935.492 1950.25H854.246" fill="#EEFAFC"/>
<path d="M1097.98 1869H935.492V2031.49H1097.98V1869Z" fill="#E3E7D1"/>
<path d="M1097.98 1869V2031.49H935.492L1097.98 1869Z" fill="#EAECDC"/>
<path d="M1260.51 1869H1098.02V2031.49H1260.51V1869Z" fill="#FC9952"/>
<path d="M1260.51 1869H1098.02V2031.49H1260.51V1869Z" fill="#FDFDFC"/>
<path d="M1423 1869H1260.5V2031.5H1423V1869Z" fill="white"/>
<path d="M1341.75 1869H1260.51V1950.25H1341.75V1869Z" fill="#CCF0F7"/>
<path d="M1341.75 1869H1260.51V1950.25H1341.75V1869Z" fill="#F9C59C"/>
<path d="M1423 1869H1341.75V1950.25H1423V1869Z" fill="#74D5E9"/>
<path d="M1341.75 1869H1423L1341.75 1950.25V1869Z" fill="#B5E1DE"/>
<path d="M1341.75 1950.25H1260.51V2031.49H1341.75V1950.25Z" fill="#F6A464"/>
<path d="M1341.75 1950.25H1260.51V2031.49H1341.75V1950.25Z" fill="#F7FCFB"/>
<path d="M1423 1950.25H1341.75V2031.49H1423V1950.25Z" fill="#DEF1F0"/>
<path d="M1423 1950.25H1341.75V2031.49H1423V1950.25Z" fill="#E1F3F2"/>
<path d="M1585.49 1869H1423V2031.49H1585.49V1869Z" fill="#E2E6D0"/>
<path d="M1423 1869H1585.49L1423 2031.49V1869Z" fill="#EFFAFC"/>
<path d="M1747.98 1869H1585.49V2031.49H1747.98V1869Z" fill="#DFF5FA"/>
<path d="M1747.98 1869H1585.49V2031.49H1747.98V1869Z" fill="#F0F9F8"/>
<path d="M1910.51 1869H1748.02V2031.49H1910.51V1869Z" fill="#72D5E8"/>
<path d="M1748.02 1869L1910.51 2031.49H1748.02V1869Z" fill="#76D6E9"/>
<path d="M2073 1869H1910.51V2031.49H2073V1869Z" fill="#FFF6EF"/>
<path d="M2073 1869H1910.51V1885.25H2073V1869Z" fill="#FB9348"/>
<path d="M2073 1901.5H1910.51V1917.75H2073V1901.5Z" fill="#FB9348"/>
<path d="M2073 1934H1910.51V1950.25H2073V1934Z" fill="#FB9348"/>
<path d="M2073 1966.5H1910.51V1982.75H2073V1966.5Z" fill="#FB9348"/>
<path d="M2073 1998.99H1910.51V2015.24H2073V1998.99Z" fill="#FB9348"/>
<path d="M935.492 2031.49H773V2193.98H935.492V2031.49Z" fill="white"/>
<path d="M935.492 2031.49H773V2047.74H935.492V2031.49Z" fill="#FCAC72"/>
<path d="M935.492 2063.99H773V2080.24H935.492V2063.99Z" fill="#FCAC72"/>
<path d="M935.492 2096.49H773V2112.74H935.492V2096.49Z" fill="#FCAC72"/>
<path d="M935.492 2128.99H773V2145.24H935.492V2128.99Z" fill="#FCAC72"/>
<path d="M935.492 2161.49H773V2177.74H935.492V2161.49Z" fill="#FCAC72"/>
<path d="M1097.98 2031.49H935.492V2193.98H1097.98V2031.49Z" fill="#7DD8EA"/>
<path d="M935.492 2031.49C978.588 2031.49 1019.92 2048.61 1050.39 2079.08C1080.86 2109.56 1097.98 2150.89 1097.98 2193.98L935.492 2031.49C935.492 2074.59 952.612 2115.92 983.085 2146.39C1013.56 2176.86 1054.89 2193.98 1097.98 2193.98" fill="#FCAF76"/>
<path d="M1260.51 2031.49H1098.02V2193.98H1260.51V2031.49Z" fill="#ECEFE0"/>
<path d="M1260.51 2031.49H1098.02V2047.74H1260.51V2031.49Z" fill="#DBF4F9"/>
<path d="M1260.51 2063.99H1098.02V2080.24H1260.51V2063.99Z" fill="#DBF4F9"/>
<path d="M1260.51 2096.49H1098.02V2112.74H1260.51V2096.49Z" fill="#DBF4F9"/>
<path d="M1260.51 2128.99H1098.02V2145.24H1260.51V2128.99Z" fill="#DBF4F9"/>
<path d="M1260.51 2161.49H1098.02V2177.74H1260.51V2161.49Z" fill="#DBF4F9"/>
<path d="M1423 2031.5H1260.5V2194H1423V2031.5Z" fill="white"/>
<path d="M1341.75 2031.49H1260.51V2112.74H1341.75V2031.49Z" fill="#FFF6F0"/>
<path d="M1260.51 2112.74C1260.51 2091.19 1269.07 2070.53 1284.3 2055.29C1299.54 2040.05 1320.21 2031.49 1341.75 2031.49V2112.74" fill="#E8EBD9"/>
<path d="M1423 2031.49H1341.75V2112.74H1423V2031.49Z" fill="#C7E8E6"/>
<path d="M1423 2031.49H1341.75V2112.74H1423V2031.49Z" fill="#F7F8F3"/>
<path d="M1341.75 2112.74H1260.51V2193.98H1341.75V2112.74Z" fill="#C5E7E5"/>
<path d="M1341.75 2112.74H1260.51V2193.98H1341.75V2112.74Z" fill="#FFFAF7"/>
<path d="M1423 2112.74H1341.75V2193.98H1423V2112.74Z" fill="#C4EDF6"/>
<path d="M1423 2112.74H1341.75V2193.98H1423V2112.74Z" fill="#F6A05D"/>
<path d="M1585.5 2031.5H1423V2194H1585.5V2031.5Z" fill="white"/>
<path d="M1504.25 2031.49H1423V2112.74H1504.25V2031.49Z" fill="#B2E8F3"/>
<path d="M1504.25 2031.49V2112.74H1423L1504.25 2031.49Z" fill="#FBD4B5"/>
<path d="M1585.49 2031.49H1504.25V2112.74H1585.49V2031.49Z" fill="#D0ECEA"/>
<path d="M1512.37 2031.49H1504.25V2112.74H1512.37V2031.49Z" fill="#FFF7F2"/>
<path d="M1528.62 2031.49H1520.5V2112.74H1528.62V2031.49Z" fill="#FFF7F2"/>
<path d="M1544.87 2031.49H1536.74V2112.74H1544.87V2031.49Z" fill="#FFF7F2"/>
<path d="M1561.12 2031.49H1552.99V2112.74H1561.12V2031.49Z" fill="#FFF7F2"/>
<path d="M1577.37 2031.49H1569.24V2112.74H1577.37V2031.49Z" fill="#FFF7F2"/>
<path d="M1504.25 2112.74H1423V2193.98H1504.25V2112.74Z" fill="#EAEDDC"/>
<path d="M1423 2112.74C1444.55 2112.74 1465.21 2121.3 1480.45 2136.53C1495.69 2151.77 1504.25 2172.44 1504.25 2193.98L1423 2112.74C1423 2123.41 1425.1 2133.97 1429.18 2143.83C1433.27 2153.69 1439.25 2162.64 1446.8 2170.19C1454.34 2177.73 1463.3 2183.72 1473.15 2187.8C1483.01 2191.88 1493.58 2193.98 1504.25 2193.98" fill="#FA700C"/>
<path d="M1585.49 2112.74H1504.25V2193.98H1585.49V2112.74Z" fill="#E1E5CD"/>
<path d="M1504.25 2112.74H1585.49V2193.98L1504.25 2112.74Z" fill="#FEE9DA"/>
<path d="M1747.98 2031.49H1585.49V2193.98H1747.98V2031.49Z" fill="#FA6A01"/>
<path d="M1747.98 2031.49V2193.98H1585.49L1747.98 2031.49Z" fill="#E8EBD9"/>
<path d="M1910.51 2031.49H1748.02V2193.98H1910.51V2031.49Z" fill="#C4EDF6"/>
<path d="M1748.02 2031.49C1791.11 2031.49 1832.44 2048.61 1862.91 2079.08C1893.39 2109.56 1910.51 2150.89 1910.51 2193.98H1748.02" fill="#FACBA6"/>
<path d="M2073 2031.49H1910.51V2193.98H2073V2031.49Z" fill="#FBD7BB"/>
<path d="M1910.51 2193.98C1910.51 2150.89 1927.63 2109.56 1958.1 2079.08C1988.57 2048.61 2029.9 2031.49 2073 2031.49L1910.51 2193.98C1953.6 2193.98 1994.93 2176.86 2025.41 2146.39C2055.88 2115.92 2073 2074.59 2073 2031.49" fill="#FB822B"/>
<path d="M935.492 2194.02H773V2356.51H935.492V2194.02Z" fill="#A4E4F0"/>
<path d="M935.492 2194.02V2356.51H773L935.492 2194.02Z" fill="#FAC8A1"/>
<path d="M1097.98 2194.02H935.492V2356.51H1097.98V2194.02Z" fill="#EBEDDD"/>
<path d="M935.492 2194.02H1097.98L935.492 2356.51V2194.02Z" fill="#F5974C"/>
<path d="M1260.51 2194.02H1098.02V2356.51H1260.51V2194.02Z" fill="#EAEDDC"/>
<path d="M1114.26 2194.02H1098.02V2356.51H1114.26V2194.02Z" fill="#F8B580"/>
<path d="M1146.76 2194.02H1130.51V2356.51H1146.76V2194.02Z" fill="#F8B580"/>
<path d="M1179.26 2194.02H1163.01V2356.51H1179.26V2194.02Z" fill="#F8B580"/>
<path d="M1211.76 2194.02H1195.51V2356.51H1211.76V2194.02Z" fill="#F8B580"/>
<path d="M1244.26 2194.02H1228.01V2356.51H1244.26V2194.02Z" fill="#F8B580"/>
<path d="M1423 2194.02H1260.51V2356.51H1423V2194.02Z" fill="#E1E4CD"/>
<path d="M1423 2194.02H1260.51V2210.26H1423V2194.02Z" fill="#F8BD8E"/>
<path d="M1423 2226.51H1260.51V2242.76H1423V2226.51Z" fill="#F8BD8E"/>
<path d="M1423 2259.01H1260.51V2275.26H1423V2259.01Z" fill="#F8BD8E"/>
<path d="M1423 2291.51H1260.51V2307.76H1423V2291.51Z" fill="#F8BD8E"/>
<path d="M1423 2324.01H1260.51V2340.26H1423V2324.01Z" fill="#F8BD8E"/>
<path d="M1585.5 2194H1423V2356.5H1585.5V2194Z" fill="white"/>
<path d="M1504.25 2194.02H1423V2275.26H1504.25V2194.02Z" fill="#D6EEED"/>
<path d="M1431.12 2194.02H1423V2275.26H1431.12V2194.02Z" fill="#E8EBDA"/>
<path d="M1447.37 2194.02H1439.25V2275.26H1447.37V2194.02Z" fill="#E8EBDA"/>
<path d="M1463.62 2194.02H1455.5V2275.26H1463.62V2194.02Z" fill="#E8EBDA"/>
<path d="M1479.87 2194.02H1471.75V2275.26H1479.87V2194.02Z" fill="#E8EBDA"/>
<path d="M1496.12 2194.02H1488V2275.26H1496.12V2194.02Z" fill="#E8EBDA"/>
<path d="M1585.49 2194.02H1504.25V2275.26H1585.49V2194.02Z" fill="#F7B27A"/>
<path d="M1504.25 2275.26C1504.25 2253.71 1512.81 2233.05 1528.04 2217.81C1543.28 2202.58 1563.94 2194.02 1585.49 2194.02V2275.26" fill="#F7B17A"/>
<path d="M1504.25 2275.26H1423V2356.51H1504.25V2275.26Z" fill="#FDBF92"/>
<path d="M1504.25 2275.26H1423V2356.51H1504.25V2275.26Z" fill="#FDF0E5"/>
<path d="M1585.49 2275.26H1504.25V2356.51H1585.49V2275.26Z" fill="#FFF0E6"/>
<path d="M1585.49 2275.26H1504.25V2356.51H1585.49V2275.26Z" fill="#FDC8A1"/>
<path d="M1747.98 2194.02H1585.49V2356.51H1747.98V2194.02Z" fill="#CFEBEA"/>
<path d="M1585.49 2194.02C1628.59 2194.02 1669.92 2211.14 1700.39 2241.61C1730.86 2272.08 1747.98 2313.41 1747.98 2356.51H1585.49" fill="#FCDFC8"/>
<path d="M1910.51 2194.02H1748.02V2356.51H1910.51V2194.02Z" fill="#BEE4E2"/>
<path d="M1910.51 2194.02H1748.02V2210.26H1910.51V2194.02Z" fill="#FA7717"/>
<path d="M1910.51 2226.51H1748.02V2242.76H1910.51V2226.51Z" fill="#FA7717"/>
<path d="M1910.51 2259.01H1748.02V2275.26H1910.51V2259.01Z" fill="#FA7717"/>
<path d="M1910.51 2291.51H1748.02V2307.76H1910.51V2291.51Z" fill="#FA7717"/>
<path d="M1910.51 2324.01H1748.02V2340.26H1910.51V2324.01Z" fill="#FA7717"/>
<path d="M2073 2194.02H1910.51V2356.51H2073V2194.02Z" fill="#FCAD74"/>
<path d="M2073 2194.02H1910.51V2210.26H2073V2194.02Z" fill="#6BD3E7"/>
<path d="M2073 2226.51H1910.51V2242.76H2073V2226.51Z" fill="#6BD3E7"/>
<path d="M2073 2259.01H1910.51V2275.26H2073V2259.01Z" fill="#6BD3E7"/>
<path d="M2073 2291.51H1910.51V2307.76H2073V2291.51Z" fill="#6BD3E7"/>
<path d="M2073 2324.01H1910.51V2340.26H2073V2324.01Z" fill="#6BD3E7"/>
<path d="M935.5 2356.5H773V2519H935.5V2356.5Z" fill="white"/>
<path d="M854.246 2356.51H773V2437.75H854.246V2356.51Z" fill="#F7A96D"/>
<path d="M781.125 2356.51H773V2437.75H781.125V2356.51Z" fill="#FCFCFA"/>
<path d="M797.375 2356.51H789.25V2437.75H797.375V2356.51Z" fill="#FCFCFA"/>
<path d="M813.623 2356.51H805.498V2437.75H813.623V2356.51Z" fill="#FCFCFA"/>
<path d="M829.873 2356.51H821.748V2437.75H829.873V2356.51Z" fill="#FCFCFA"/>
<path d="M846.121 2356.51H837.996V2437.75H846.121V2356.51Z" fill="#FCFCFA"/>
<path d="M935.492 2356.51H854.246V2437.75H935.492V2356.51Z" fill="#EBEEDF"/>
<path d="M854.246 2437.75C854.246 2416.21 862.806 2395.54 878.042 2380.3C893.279 2365.07 913.944 2356.51 935.492 2356.51V2437.75" fill="#FDFEFE"/>
<path d="M854.246 2437.75H773V2519H854.246V2437.75Z" fill="#FCDDC5"/>
<path d="M854.246 2437.75H773V2445.88H854.246V2437.75Z" fill="#9CE1EF"/>
<path d="M854.246 2454H773V2462.13H854.246V2454Z" fill="#9CE1EF"/>
<path d="M854.246 2470.25H773V2478.38H854.246V2470.25Z" fill="#9CE1EF"/>
<path d="M854.246 2486.5H773V2494.63H854.246V2486.5Z" fill="#9CE1EF"/>
<path d="M854.246 2502.75H773V2510.87H854.246V2502.75Z" fill="#9CE1EF"/>
<path d="M935.492 2437.75H854.246V2519H935.492V2437.75Z" fill="#FEDAC0"/>
<path d="M935.492 2437.75H854.246V2519H935.492V2437.75Z" fill="#F1F3E8"/>
<path d="M1097.98 2356.51H935.492V2519H1097.98V2356.51Z" fill="#F9FAF5"/>
<path d="M935.492 2356.51C978.588 2356.51 1019.92 2373.63 1050.39 2404.1C1080.86 2434.57 1097.98 2475.9 1097.98 2519H935.492" fill="#FC9850"/>
<path d="M1260.51 2356.51H1098.02V2519H1260.51V2356.51Z" fill="#EFF1E4"/>
<path d="M1098.02 2519C1098.02 2475.9 1115.14 2434.57 1145.61 2404.1C1176.08 2373.63 1217.41 2356.51 1260.51 2356.51L1098.02 2519C1141.11 2519 1182.44 2501.88 1212.91 2471.41C1243.39 2440.93 1260.51 2399.6 1260.51 2356.51" fill="#EBF9FC"/>
<path d="M1423 2356.51H1260.51V2519H1423V2356.51Z" fill="#E3E7D1"/>
<path d="M1423 2356.51V2519H1260.51L1423 2356.51Z" fill="#AFE7F2"/>
<path d="M1585.49 2356.51H1423V2519H1585.49V2356.51Z" fill="#FCFCFA"/>
<path d="M1439.25 2356.51H1423V2519H1439.25V2356.51Z" fill="#F5F6EE"/>
<path d="M1471.75 2356.51H1455.5V2519H1471.75V2356.51Z" fill="#F5F6EE"/>
<path d="M1504.25 2356.51H1488V2519H1504.25V2356.51Z" fill="#F5F6EE"/>
<path d="M1536.75 2356.51H1520.5V2519H1536.75V2356.51Z" fill="#F5F6EE"/>
<path d="M1569.24 2356.51H1552.99V2519H1569.24V2356.51Z" fill="#F5F6EE"/>
<path d="M1747.98 2356.51H1585.49V2519H1747.98V2356.51Z" fill="#CCEAE8"/>
<path d="M1601.74 2356.51H1585.49V2519H1601.74V2356.51Z" fill="#7DD8EA"/>
<path d="M1634.24 2356.51H1617.99V2519H1634.24V2356.51Z" fill="#7DD8EA"/>
<path d="M1666.74 2356.51H1650.49V2519H1666.74V2356.51Z" fill="#7DD8EA"/>
<path d="M1699.24 2356.51H1682.99V2519H1699.24V2356.51Z" fill="#7DD8EA"/>
<path d="M1731.74 2356.51H1715.49V2519H1731.74V2356.51Z" fill="#7DD8EA"/>
<path d="M1910.51 2356.51H1748.02V2519H1910.51V2356.51Z" fill="#FB7B1E"/>
<path d="M1748.02 2356.51C1791.11 2356.51 1832.44 2373.63 1862.91 2404.1C1893.39 2434.57 1910.51 2475.9 1910.51 2519L1748.02 2356.51C1748.02 2399.6 1765.14 2440.93 1795.61 2471.41C1826.08 2501.88 1867.41 2519 1910.51 2519" fill="#C8E8E7"/>
<path d="M2073 2356.51H1910.51V2519H2073V2356.51Z" fill="#F8F9F3"/>
<path d="M2073 2356.51H1910.51V2519H2073V2356.51Z" fill="#AEDEDB"/>
<path d="M935.492 2519H773V2681.49H935.492V2519Z" fill="#E6E9D6"/>
<path d="M773 2681.49C816.096 2681.49 857.426 2664.37 887.899 2633.9C918.372 2603.43 935.492 2562.1 935.492 2519H773" fill="#EDF8F7"/>
<path d="M1097.98 2519H935.492V2681.49H1097.98V2519Z" fill="#FDBC8C"/>
<path d="M1097.98 2519H935.492V2681.49H1097.98V2519Z" fill="#FCDCC3"/>
<path d="M1260.5 2519H1098V2681.5H1260.5V2519Z" fill="white"/>
<path d="M1179.26 2519H1098.02V2600.25H1179.26V2519Z" fill="#B3E8F3"/>
<path d="M1106.14 2519H1098.02V2600.25H1106.14V2519Z" fill="#FACAA5"/>
<path d="M1122.39 2519H1114.27V2600.25H1122.39V2519Z" fill="#FACAA5"/>
<path d="M1138.64 2519H1130.51V2600.25H1138.64V2519Z" fill="#FACAA5"/>
<path d="M1154.89 2519H1146.76V2600.25H1154.89V2519Z" fill="#FACAA5"/>
<path d="M1171.14 2519H1163.01V2600.25H1171.14V2519Z" fill="#FACAA5"/>
<path d="M1260.51 2519H1179.26V2600.25H1260.51V2519Z" fill="#D6F3F8"/>
<path d="M1260.51 2519H1179.26V2600.25H1260.51V2519Z" fill="#ECEEE0"/>
<path d="M1179.26 2600.25H1098.02V2681.49H1179.26V2600.25Z" fill="#FB9449"/>
<path d="M1098.02 2600.25L1179.26 2681.49H1098.02V2600.25Z" fill="#FACDA9"/>
<path d="M1260.51 2600.25H1179.26V2681.49H1260.51V2600.25Z" fill="#F2F3E9"/>
<path d="M1260.51 2600.25H1179.26V2681.49H1260.51V2600.25Z" fill="#E8EBD9"/>
<path d="M1423 2519H1260.51V2681.49H1423V2519Z" fill="#FAC9A2"/>
<path d="M1276.76 2519H1260.51V2681.49H1276.76V2519Z" fill="#FEFFFE"/>
<path d="M1309.26 2519H1293.01V2681.49H1309.26V2519Z" fill="#FEFFFE"/>
<path d="M1341.75 2519H1325.5V2681.49H1341.75V2519Z" fill="#FEFFFE"/>
<path d="M1374.25 2519H1358V2681.49H1374.25V2519Z" fill="#FEFFFE"/>
<path d="M1406.75 2519H1390.5V2681.49H1406.75V2519Z" fill="#FEFFFE"/>
<path d="M1585.49 2519H1423V2681.49H1585.49V2519Z" fill="#F48B39"/>
<path d="M1585.49 2519H1423V2681.49H1585.49V2519Z" fill="#FB8D3D"/>
<path d="M1748 2519H1585.5V2681.5H1748V2519Z" fill="white"/>
<path d="M1666.74 2519H1585.49V2600.25H1666.74V2519Z" fill="#D5F2F8"/>
<path d="M1666.74 2519H1585.49V2527.12H1666.74V2519Z" fill="#FAFDFD"/>
<path d="M1666.74 2535.25H1585.49V2543.37H1666.74V2535.25Z" fill="#FAFDFD"/>
<path d="M1666.74 2551.5H1585.49V2559.62H1666.74V2551.5Z" fill="#FAFDFD"/>
<path d="M1666.74 2567.75H1585.49V2575.87H1666.74V2567.75Z" fill="#FAFDFD"/>
<path d="M1666.74 2584H1585.49V2592.12H1666.74V2584Z" fill="#FAFDFD"/>
<path d="M1747.98 2519H1666.74V2600.25H1747.98V2519Z" fill="#F38733"/>
<path d="M1747.98 2519H1666.74V2600.25H1747.98V2519Z" fill="#FCA76A"/>
<path d="M1666.74 2600.25H1585.49V2681.49H1666.74V2600.25Z" fill="#F7B27A"/>
<path d="M1593.62 2600.25H1585.49V2681.49H1593.62V2600.25Z" fill="#E7EAD7"/>
<path d="M1609.87 2600.25H1601.74V2681.49H1609.87V2600.25Z" fill="#E7EAD7"/>
<path d="M1626.11 2600.25H1617.99V2681.49H1626.11V2600.25Z" fill="#E7EAD7"/>
<path d="M1642.36 2600.25H1634.24V2681.49H1642.36V2600.25Z" fill="#E7EAD7"/>
<path d="M1658.61 2600.25H1650.49V2681.49H1658.61V2600.25Z" fill="#E7EAD7"/>
<path d="M1747.98 2600.25H1666.74V2681.49H1747.98V2600.25Z" fill="#EAF7F6"/>
<path d="M1666.74 2600.25C1666.74 2621.79 1675.3 2642.46 1690.53 2657.7C1705.77 2672.93 1726.44 2681.49 1747.98 2681.49V2600.25" fill="#B2DFDD"/>
<path d="M1910.51 2519H1748.02V2681.49H1910.51V2519Z" fill="#F48C3B"/>
<path d="M1910.51 2519H1748.02V2681.49H1910.51V2519Z" fill="#71D4E8"/>
<path d="M2073 2519H1910.51V2681.49H2073V2519Z" fill="#91DEED"/>
<path d="M2073 2519H1910.51V2681.49H2073V2519Z" fill="#F2F3E9"/>
<path d="M935.492 2681.49H773V2843.98H935.492V2681.49Z" fill="#ECEFE0"/>
<path d="M773 2681.49H935.492V2843.98L773 2681.49Z" fill="#FC9952"/>
<path d="M1097.98 2681.49H935.492V2843.98H1097.98V2681.49Z" fill="#EBEEDF"/>
<path d="M935.492 2681.49C978.588 2681.49 1019.92 2698.61 1050.39 2729.08C1080.86 2759.56 1097.98 2800.89 1097.98 2843.98H935.492" fill="#E1E5CE"/>
<path d="M1260.5 2681.5H1098V2844H1260.5V2681.5Z" fill="white"/>
<path d="M1179.26 2681.49H1098.02V2762.74H1179.26V2681.49Z" fill="#F5F7EF"/>
<path d="M1098.02 2762.74C1119.56 2762.74 1140.23 2754.18 1155.47 2738.94C1170.7 2723.71 1179.26 2703.04 1179.26 2681.49H1098.02" fill="#B7E9F3"/>
<path d="M1260.51 2681.49H1179.26V2762.74H1260.51V2681.49Z" fill="#DEF1F0"/>
<path d="M1187.39 2681.49H1179.26V2762.74H1187.39V2681.49Z" fill="#FEEFE3"/>
<path d="M1203.64 2681.49H1195.51V2762.74H1203.64V2681.49Z" fill="#FEEFE3"/>
<path d="M1219.88 2681.49H1211.76V2762.74H1219.88V2681.49Z" fill="#FEEFE3"/>
<path d="M1236.13 2681.49H1228.01V2762.74H1236.13V2681.49Z" fill="#FEEFE3"/>
<path d="M1252.38 2681.49H1244.26V2762.74H1252.38V2681.49Z" fill="#FEEFE3"/>
<path d="M1179.26 2762.74H1098.02V2843.98H1179.26V2762.74Z" fill="#FDC49B"/>
<path d="M1179.26 2762.74V2843.98H1098.02L1179.26 2762.74Z" fill="#FAD0AF"/>
<path d="M1260.51 2762.74H1179.26V2843.98H1260.51V2762.74Z" fill="#9CE1EF"/>
<path d="M1260.51 2762.74H1179.26V2843.98H1260.51V2762.74Z" fill="#EEF8F8"/>
<path d="M1423 2681.49H1260.51V2843.98H1423V2681.49Z" fill="#FEE4D1"/>
<path d="M1423 2681.49H1260.51V2843.98H1423V2681.49Z" fill="#7BD7EA"/>
<path d="M1585.49 2681.49H1423V2843.98H1585.49V2681.49Z" fill="#EEF0E3"/>
<path d="M1439.25 2681.49H1423V2843.98H1439.25V2681.49Z" fill="#98E0EF"/>
<path d="M1471.75 2681.49H1455.5V2843.98H1471.75V2681.49Z" fill="#98E0EF"/>
<path d="M1504.25 2681.49H1488V2843.98H1504.25V2681.49Z" fill="#98E0EF"/>
<path d="M1536.75 2681.49H1520.5V2843.98H1536.75V2681.49Z" fill="#98E0EF"/>
<path d="M1569.24 2681.49H1552.99V2843.98H1569.24V2681.49Z" fill="#98E0EF"/>
<path d="M1747.98 2681.49H1585.49V2843.98H1747.98V2681.49Z" fill="#FDFDFC"/>
<path d="M1585.49 2681.49L1747.98 2843.98H1585.49V2681.49Z" fill="#FDC094"/>
<path d="M1910.51 2681.49H1748.02V2843.98H1910.51V2681.49Z" fill="#9BE1EF"/>
<path d="M1910.51 2681.49H1748.02V2843.98H1910.51V2681.49Z" fill="#FED3B4"/>
<path d="M2073 2681.49H1910.51V2843.98H2073V2681.49Z" fill="#F9C69D"/>
<path d="M1910.51 2681.49L2073 2843.98H1910.51V2681.49Z" fill="#FB832C"/>
<path d="M935.492 2844.02H773V3006.51H935.492V2844.02Z" fill="#FFF4ED"/>
<path d="M935.492 2844.02H773V3006.51H935.492V2844.02Z" fill="#F9C69E"/>
<path d="M1097.98 2844.02H935.492V3006.51H1097.98V2844.02Z" fill="#E1E5CE"/>
<path d="M951.741 2844.02H935.492V3006.51H951.741V2844.02Z" fill="#E0F6FA"/>
<path d="M984.239 2844.02H967.99V3006.51H984.239V2844.02Z" fill="#E0F6FA"/>
<path d="M1016.74 2844.02H1000.49V3006.51H1016.74V2844.02Z" fill="#E0F6FA"/>
<path d="M1049.24 2844.02H1032.99V3006.51H1049.24V2844.02Z" fill="#E0F6FA"/>
<path d="M1081.74 2844.02H1065.49V3006.51H1081.74V2844.02Z" fill="#E0F6FA"/>
<path d="M1260.51 2844.02H1098.02V3006.51H1260.51V2844.02Z" fill="#DAF4F9"/>
<path d="M1260.51 2844.02H1098.02V2860.26H1260.51V2844.02Z" fill="#97E0EE"/>
<path d="M1260.51 2876.51H1098.02V2892.76H1260.51V2876.51Z" fill="#97E0EE"/>
<path d="M1260.51 2909.01H1098.02V2925.26H1260.51V2909.01Z" fill="#97E0EE"/>
<path d="M1260.51 2941.51H1098.02V2957.76H1260.51V2941.51Z" fill="#97E0EE"/>
<path d="M1260.51 2974.01H1098.02V2990.26H1260.51V2974.01Z" fill="#97E0EE"/>
<path d="M1423 2844.02H1260.51V3006.51H1423V2844.02Z" fill="#E2E5CF"/>
<path d="M1260.51 2844.02H1423V3006.51L1260.51 2844.02Z" fill="#BBE3E1"/>
<path d="M1585.49 2844.02H1423V3006.51H1585.49V2844.02Z" fill="#D9EFEE"/>
<path d="M1439.25 2844.02H1423V3006.51H1439.25V2844.02Z" fill="white"/>
<path d="M1471.75 2844.02H1455.5V3006.51H1471.75V2844.02Z" fill="white"/>
<path d="M1504.25 2844.02H1488V3006.51H1504.25V2844.02Z" fill="white"/>
<path d="M1536.75 2844.02H1520.5V3006.51H1536.75V2844.02Z" fill="white"/>
<path d="M1569.24 2844.02H1552.99V3006.51H1569.24V2844.02Z" fill="white"/>
<path d="M1747.98 2844.02H1585.49V3006.51H1747.98V2844.02Z" fill="#FCA769"/>
<path d="M1747.98 2844.02H1585.49V3006.51H1747.98V2844.02Z" fill="#FDCEAC"/>
<path d="M1910.5 2844H1748V3006.5H1910.5V2844Z" fill="white"/>
<path d="M1829.26 2844.02H1748.02V2925.26H1829.26V2844.02Z" fill="#FB8A38"/>
<path d="M1829.26 2844.02H1748.02V2852.14H1829.26V2844.02Z" fill="#FAFBF7"/>
<path d="M1829.26 2860.27H1748.02V2868.39H1829.26V2860.27Z" fill="#FAFBF7"/>
<path d="M1829.26 2876.51H1748.02V2884.64H1829.26V2876.51Z" fill="#FAFBF7"/>
<path d="M1829.26 2892.76H1748.02V2900.89H1829.26V2892.76Z" fill="#FAFBF7"/>
<path d="M1829.26 2909.01H1748.02V2917.14H1829.26V2909.01Z" fill="#FAFBF7"/>
<path d="M1910.51 2844.02H1829.26V2925.26H1910.51V2844.02Z" fill="#A0E3F0"/>
<path d="M1829.26 2844.02C1850.81 2844.02 1871.47 2852.58 1886.71 2867.81C1901.95 2883.05 1910.51 2903.71 1910.51 2925.26L1829.26 2844.02C1829.26 2865.56 1837.82 2886.23 1853.06 2901.47C1868.29 2916.7 1888.96 2925.26 1910.51 2925.26" fill="#CDEAE9"/>
<path d="M1829.26 2925.26H1748.02V3006.51H1829.26V2925.26Z" fill="#FEFFFF"/>
<path d="M1829.26 2925.26H1748.02V3006.51H1829.26V2925.26Z" fill="#FDFEFE"/>
<path d="M1910.51 2925.26H1829.26V3006.51H1910.51V2925.26Z" fill="#F7AE74"/>
<path d="M1837.39 2925.26H1829.26V3006.51H1837.39V2925.26Z" fill="#FACEAB"/>
<path d="M1853.64 2925.26H1845.51V3006.51H1853.64V2925.26Z" fill="#FACEAB"/>
<path d="M1869.88 2925.26H1861.76V3006.51H1869.88V2925.26Z" fill="#FACEAB"/>
<path d="M1886.13 2925.26H1878.01V3006.51H1886.13V2925.26Z" fill="#FACEAB"/>
<path d="M1902.38 2925.26H1894.26V3006.51H1902.38V2925.26Z" fill="#FACEAB"/>
<path d="M2073 2844.02H1910.51V3006.51H2073V2844.02Z" fill="#E6E9D5"/>
<path d="M2073 2844.02H1910.51V2860.26H2073V2844.02Z" fill="#F9FAF6"/>
<path d="M2073 2876.51H1910.51V2892.76H2073V2876.51Z" fill="#F9FAF6"/>
<path d="M2073 2909.01H1910.51V2925.26H2073V2909.01Z" fill="#F9FAF6"/>
<path d="M2073 2941.51H1910.51V2957.76H2073V2941.51Z" fill="#F9FAF6"/>
<path d="M2073 2974.01H1910.51V2990.26H2073V2974.01Z" fill="#F9FAF6"/>
<path d="M935.492 3006.51H773V3169H935.492V3006.51Z" fill="#D8F3F9"/>
<path d="M935.492 3006.51H773V3169H935.492V3006.51Z" fill="#85DAEC"/>
<path d="M1097.98 3006.51H935.492V3169H1097.98V3006.51Z" fill="#FCFDFB"/>
<path d="M1097.98 3006.51H935.492V3169H1097.98V3006.51Z" fill="#FCA15F"/>
<path d="M1260.51 3006.51H1098.02V3169H1260.51V3006.51Z" fill="#C5E7E5"/>
<path d="M1260.51 3006.51V3169H1098.02L1260.51 3006.51Z" fill="#FBD6B8"/>
<path d="M1423 3006.51H1260.51V3169H1423V3006.51Z" fill="#D6EEED"/>
<path d="M1423 3006.51V3169H1260.51L1423 3006.51Z" fill="#77D6E9"/>
<path d="M1585.5 3006.5H1423V3169H1585.5V3006.5Z" fill="white"/>
<path d="M1504.25 3006.51H1423V3087.75H1504.25V3006.51Z" fill="#EDF0E2"/>
<path d="M1431.12 3006.51H1423V3087.75H1431.12V3006.51Z" fill="#F0F2E7"/>
<path d="M1447.37 3006.51H1439.25V3087.75H1447.37V3006.51Z" fill="#F0F2E7"/>
<path d="M1463.62 3006.51H1455.5V3087.75H1463.62V3006.51Z" fill="#F0F2E7"/>
<path d="M1479.87 3006.51H1471.75V3087.75H1479.87V3006.51Z" fill="#F0F2E7"/>
<path d="M1496.12 3006.51H1488V3087.75H1496.12V3006.51Z" fill="#F0F2E7"/>
<path d="M1585.49 3006.51H1504.25V3087.75H1585.49V3006.51Z" fill="#C1E6E4"/>
<path d="M1504.25 3006.51L1585.49 3087.75H1504.25V3006.51Z" fill="#F4F6ED"/>
<path d="M1504.25 3087.75H1423V3169H1504.25V3087.75Z" fill="#E1E5CE"/>
<path d="M1504.25 3087.75H1423V3169H1504.25V3087.75Z" fill="#94DFEE"/>
<path d="M1585.49 3087.75H1504.25V3169H1585.49V3087.75Z" fill="#F7FCFB"/>
<path d="M1585.49 3087.75H1504.25V3095.88H1585.49V3087.75Z" fill="#FEE1CC"/>
<path d="M1585.49 3104H1504.25V3112.13H1585.49V3104Z" fill="#FEE1CC"/>
<path d="M1585.49 3120.25H1504.25V3128.38H1585.49V3120.25Z" fill="#FEE1CC"/>
<path d="M1585.49 3136.5H1504.25V3144.63H1585.49V3136.5Z" fill="#FEE1CC"/>
<path d="M1585.49 3152.75H1504.25V3160.87H1585.49V3152.75Z" fill="#FEE1CC"/>
<path d="M1748 3006.5H1585.5V3169H1748V3006.5Z" fill="white"/>
<path d="M1666.74 3006.51H1585.49V3087.75H1666.74V3006.51Z" fill="#EAECDC"/>
<path d="M1585.49 3006.51C1607.04 3006.51 1627.71 3015.07 1642.94 3030.3C1658.18 3045.54 1666.74 3066.21 1666.74 3087.75L1585.49 3006.51C1585.49 3028.06 1594.05 3048.72 1609.29 3063.96C1624.53 3079.19 1645.19 3087.75 1666.74 3087.75" fill="#ECEFE0"/>
<path d="M1747.98 3006.51H1666.74V3087.75H1747.98V3006.51Z" fill="#71D4E8"/>
<path d="M1674.86 3006.51H1666.74V3087.75H1674.86V3006.51Z" fill="#9AE1EF"/>
<path d="M1691.11 3006.51H1682.99V3087.75H1691.11V3006.51Z" fill="#9AE1EF"/>
<path d="M1707.36 3006.51H1699.24V3087.75H1707.36V3006.51Z" fill="#9AE1EF"/>
<path d="M1723.61 3006.51H1715.49V3087.75H1723.61V3006.51Z" fill="#9AE1EF"/>
<path d="M1739.86 3006.51H1731.73V3087.75H1739.86V3006.51Z" fill="#9AE1EF"/>
<path d="M1666.74 3087.75H1585.49V3169H1666.74V3087.75Z" fill="#A6E4F1"/>
<path d="M1585.49 3087.75H1666.74V3169L1585.49 3087.75Z" fill="#FAC8A1"/>
<path d="M1747.98 3087.75H1666.74V3169H1747.98V3087.75Z" fill="#A7DBD8"/>
<path d="M1666.74 3087.75H1747.98L1666.74 3169V3087.75Z" fill="#FBDABF"/>
<path d="M1910.51 3006.51H1748.02V3169H1910.51V3006.51Z" fill="#CCEAE8"/>
<path d="M1910.51 3006.51H1748.02V3169H1910.51V3006.51Z" fill="#F4FAFA"/>
<path d="M2073 3006.5H1910.5V3169H2073V3006.5Z" fill="white"/>
<path d="M1991.75 3006.51H1910.51V3087.75H1991.75V3006.51Z" fill="#FEE3D0"/>
<path d="M1991.75 3006.51H1910.51V3014.63H1991.75V3006.51Z" fill="#FEDFC8"/>
<path d="M1991.75 3022.76H1910.51V3030.88H1991.75V3022.76Z" fill="#FEDFC8"/>
<path d="M1991.75 3039.01H1910.51V3047.13H1991.75V3039.01Z" fill="#FEDFC8"/>
<path d="M1991.75 3055.26H1910.51V3063.38H1991.75V3055.26Z" fill="#FEDFC8"/>
<path d="M1991.75 3071.5H1910.51V3079.63H1991.75V3071.5Z" fill="#FEDFC8"/>
<path d="M2073 3006.51H1991.75V3087.75H2073V3006.51Z" fill="#C9E9E7"/>
<path d="M2073 3006.51H1991.75V3014.63H2073V3006.51Z" fill="#C3EDF5"/>
<path d="M2073 3022.76H1991.75V3030.88H2073V3022.76Z" fill="#C3EDF5"/>
<path d="M2073 3039.01H1991.75V3047.13H2073V3039.01Z" fill="#C3EDF5"/>
<path d="M2073 3055.26H1991.75V3063.38H2073V3055.26Z" fill="#C3EDF5"/>
<path d="M2073 3071.5H1991.75V3079.63H2073V3071.5Z" fill="#C3EDF5"/>
<path d="M1991.75 3087.75H1910.51V3169H1991.75V3087.75Z" fill="#FDC8A1"/>
<path d="M1991.75 3087.75H1910.51V3095.88H1991.75V3087.75Z" fill="#CFEBEA"/>
<path d="M1991.75 3104H1910.51V3112.13H1991.75V3104Z" fill="#CFEBEA"/>
<path d="M1991.75 3120.25H1910.51V3128.38H1991.75V3120.25Z" fill="#CFEBEA"/>
<path d="M1991.75 3136.5H1910.51V3144.63H1991.75V3136.5Z" fill="#CFEBEA"/>
<path d="M1991.75 3152.75H1910.51V3160.87H1991.75V3152.75Z" fill="#CFEBEA"/>
<path d="M2073 3087.75H1991.75V3169H2073V3087.75Z" fill="#F8B682"/>
<path d="M1991.75 3087.75H2073L1991.75 3169V3087.75Z" fill="#B6E1DF"/>
<path d="M935.492 3169H773V3331.49H935.492V3169Z" fill="#FBD5B7"/>
<path d="M935.492 3169H773V3331.49H935.492V3169Z" fill="#FC984F"/>
<path d="M1097.98 3169H935.492V3331.49H1097.98V3169Z" fill="#F4FAFA"/>
<path d="M935.492 3169L1097.98 3331.49H935.492V3169Z" fill="#CBEAE8"/>
<path d="M1260.51 3169H1098.02V3331.49H1260.51V3169Z" fill="#AFDEDC"/>
<path d="M1260.51 3169H1098.02V3185.25H1260.51V3169Z" fill="#F8F9F4"/>
<path d="M1260.51 3201.5H1098.02V3217.75H1260.51V3201.5Z" fill="#F8F9F4"/>
<path d="M1260.51 3234H1098.02V3250.25H1260.51V3234Z" fill="#F8F9F4"/>
<path d="M1260.51 3266.5H1098.02V3282.75H1260.51V3266.5Z" fill="#F8F9F4"/>
<path d="M1260.51 3298.99H1098.02V3315.24H1260.51V3298.99Z" fill="#F8F9F4"/>
<path d="M1423 3169H1260.51V3331.49H1423V3169Z" fill="#FC9F5B"/>
<path d="M1423 3169H1260.51V3331.49H1423V3169Z" fill="#F6A15D"/>
<path d="M1585.5 3169H1423V3331.5H1585.5V3169Z" fill="white"/>
<path d="M1504.25 3169H1423V3250.25H1504.25V3169Z" fill="#F48E3E"/>
<path d="M1423 3169H1504.25V3250.25L1423 3169Z" fill="#F49549"/>
<path d="M1585.49 3169H1504.25V3250.25H1585.49V3169Z" fill="#B2DFDD"/>
<path d="M1585.49 3169H1504.25V3250.25H1585.49V3169Z" fill="#FCFEFE"/>
<path d="M1504.25 3250.25H1423V3331.49H1504.25V3250.25Z" fill="#FBD7BA"/>
<path d="M1431.12 3250.25H1423V3331.49H1431.12V3250.25Z" fill="#FB8530"/>
<path d="M1447.37 3250.25H1439.25V3331.49H1447.37V3250.25Z" fill="#FB8530"/>
<path d="M1463.62 3250.25H1455.5V3331.49H1463.62V3250.25Z" fill="#FB8530"/>
<path d="M1479.87 3250.25H1471.75V3331.49H1479.87V3250.25Z" fill="#FB8530"/>
<path d="M1496.12 3250.25H1488V3331.49H1496.12V3250.25Z" fill="#FB8530"/>
<path d="M1585.49 3250.25H1504.25V3331.49H1585.49V3250.25Z" fill="#E5E8D3"/>
<path d="M1585.49 3250.25H1504.25V3331.49H1585.49V3250.25Z" fill="#B2DFDD"/>
<path d="M1747.98 3169H1585.49V3331.49H1747.98V3169Z" fill="#FB7E24"/>
<path d="M1747.98 3169H1585.49V3185.25H1747.98V3169Z" fill="#F9FDFE"/>
<path d="M1747.98 3201.5H1585.49V3217.75H1747.98V3201.5Z" fill="#F9FDFE"/>
<path d="M1747.98 3234H1585.49V3250.25H1747.98V3234Z" fill="#F9FDFE"/>
<path d="M1747.98 3266.5H1585.49V3282.75H1747.98V3266.5Z" fill="#F9FDFE"/>
<path d="M1747.98 3298.99H1585.49V3315.24H1747.98V3298.99Z" fill="#F9FDFE"/>
<path d="M1910.51 3169H1748.02V3331.49H1910.51V3169Z" fill="#BBE3E1"/>
<path d="M1748.02 3331.49C1748.02 3288.4 1765.14 3247.07 1795.61 3216.59C1826.08 3186.12 1867.41 3169 1910.51 3169V3331.49" fill="#EEF0E3"/>
<path d="M2073 3169H1910.5V3331.5H2073V3169Z" fill="white"/>
<path d="M1991.75 3169H1910.51V3250.25H1991.75V3169Z" fill="#85DAEB"/>
<path d="M1910.51 3250.25C1910.51 3228.7 1919.07 3208.03 1934.3 3192.8C1949.54 3177.56 1970.21 3169 1991.75 3169L1910.51 3250.25C1932.06 3250.25 1952.72 3241.69 1967.96 3226.45C1983.19 3211.21 1991.75 3190.55 1991.75 3169" fill="#CBEAE8"/>
<path d="M2073 3169H1991.75V3250.25H2073V3169Z" fill="#FB8835"/>
<path d="M1991.75 3169H2073V3250.25L1991.75 3169Z" fill="#D5EEEC"/>
<path d="M1991.75 3250.25H1910.51V3331.49H1991.75V3250.25Z" fill="#FCA86C"/>
<path d="M1910.51 3250.25H1991.75V3331.49L1910.51 3250.25Z" fill="#FAFBF7"/>
<path d="M2073 3250.25H1991.75V3331.49H2073V3250.25Z" fill="#D3F2F8"/>
<path d="M1991.75 3250.25H2073L1991.75 3331.49V3250.25Z" fill="#FDB887"/>
<path d="M935.5 3331.5H773V3494H935.5V3331.5Z" fill="white"/>
<path d="M854.246 3331.49H773V3412.74H854.246V3331.49Z" fill="#A9DCD9"/>
<path d="M773 3331.49H854.246V3412.74L773 3331.49Z" fill="#E2E6CF"/>
<path d="M935.492 3331.49H854.246V3412.74H935.492V3331.49Z" fill="#FDB784"/>
<path d="M862.371 3331.49H854.246V3412.74H862.371V3331.49Z" fill="#EBEDDD"/>
<path d="M878.621 3331.49H870.496V3412.74H878.621V3331.49Z" fill="#EBEDDD"/>
<path d="M894.869 3331.49H886.744V3412.74H894.869V3331.49Z" fill="#EBEDDD"/>
<path d="M911.119 3331.49H902.994V3412.74H911.119V3331.49Z" fill="#EBEDDD"/>
<path d="M927.367 3331.49H919.242V3412.74H927.367V3331.49Z" fill="#EBEDDD"/>
<path d="M854.246 3412.74H773V3493.98H854.246V3412.74Z" fill="#F2F3E9"/>
<path d="M854.246 3412.74H773V3493.98H854.246V3412.74Z" fill="#BFECF5"/>
<path d="M935.492 3412.74H854.246V3493.98H935.492V3412.74Z" fill="#E8F6F5"/>
<path d="M935.492 3412.74H854.246V3493.98H935.492V3412.74Z" fill="#FCFCF9"/>
<path d="M1097.98 3331.49H935.492V3493.98H1097.98V3331.49Z" fill="#6AD2E7"/>
<path d="M1097.98 3331.49H935.492V3347.74H1097.98V3331.49Z" fill="#FED4B6"/>
<path d="M1097.98 3363.99H935.492V3380.24H1097.98V3363.99Z" fill="#FED4B6"/>
<path d="M1097.98 3396.49H935.492V3412.74H1097.98V3396.49Z" fill="#FED4B6"/>
<path d="M1097.98 3428.99H935.492V3445.24H1097.98V3428.99Z" fill="#FED4B6"/>
<path d="M1097.98 3461.49H935.492V3477.74H1097.98V3461.49Z" fill="#FED4B6"/>
<path d="M1260.51 3331.49H1098.02V3493.98H1260.51V3331.49Z" fill="#E4E7D3"/>
<path d="M1260.51 3331.49V3493.98H1098.02L1260.51 3331.49Z" fill="#FC9D58"/>
<path d="M1423 3331.49H1260.51V3493.98H1423V3331.49Z" fill="#FBD2B2"/>
<path d="M1260.51 3331.49C1260.51 3374.59 1277.63 3415.92 1308.1 3446.39C1338.57 3476.86 1379.9 3493.98 1423 3493.98V3331.49" fill="#7ED8EA"/>
<path d="M1585.5 3331.5H1423V3494H1585.5V3331.5Z" fill="white"/>
<path d="M1504.25 3331.49H1423V3412.74H1504.25V3331.49Z" fill="#C8E9E7"/>
<path d="M1504.25 3331.49H1423V3412.74H1504.25V3331.49Z" fill="#B8EAF4"/>
<path d="M1585.49 3331.49H1504.25V3412.74H1585.49V3331.49Z" fill="#FFF1E7"/>
<path d="M1585.49 3331.49H1504.25V3412.74H1585.49V3331.49Z" fill="#FCAD74"/>
<path d="M1504.25 3412.74H1423V3493.98H1504.25V3412.74Z" fill="#EAECDC"/>
<path d="M1431.12 3412.74H1423V3493.98H1431.12V3412.74Z" fill="#ECEEE0"/>
<path d="M1447.37 3412.74H1439.25V3493.98H1447.37V3412.74Z" fill="#ECEEE0"/>
<path d="M1463.62 3412.74H1455.5V3493.98H1463.62V3412.74Z" fill="#ECEEE0"/>
<path d="M1479.87 3412.74H1471.75V3493.98H1479.87V3412.74Z" fill="#ECEEE0"/>
<path d="M1496.12 3412.74H1488V3493.98H1496.12V3412.74Z" fill="#ECEEE0"/>
<path d="M1585.49 3412.74H1504.25V3493.98H1585.49V3412.74Z" fill="#EDFAFC"/>
<path d="M1585.49 3412.74H1504.25V3493.98H1585.49V3412.74Z" fill="#B9E2E0"/>
<path d="M1747.98 3331.49H1585.49V3493.98H1747.98V3331.49Z" fill="#FACBA6"/>
<path d="M1585.49 3493.98C1585.49 3450.89 1602.61 3409.56 1633.08 3379.08C1663.56 3348.61 1704.89 3331.49 1747.98 3331.49V3493.98" fill="#D6F3F8"/>
<path d="M1910.51 3331.49H1748.02V3493.98H1910.51V3331.49Z" fill="#F4F6EE"/>
<path d="M1748.02 3493.98C1748.02 3450.89 1765.14 3409.56 1795.61 3379.08C1826.08 3348.61 1867.41 3331.49 1910.51 3331.49L1748.02 3493.98C1791.11 3493.98 1832.44 3476.86 1862.91 3446.39C1893.39 3415.92 1910.51 3374.59 1910.51 3331.49" fill="#F4FBFA"/>
<path d="M2073 3331.49H1910.51V3493.98H2073V3331.49Z" fill="#EBEEDF"/>
<path d="M2073 3331.49V3493.98H1910.51L2073 3331.49Z" fill="#FACCA7"/>
<path d="M935.492 3494.02H773V3656.51H935.492V3494.02Z" fill="#EFF1E5"/>
<path d="M773 3494.02H935.492L773 3656.51V3494.02Z" fill="#E1F6FA"/>
<path d="M1097.98 3494.02H935.492V3656.51H1097.98V3494.02Z" fill="#FB7F26"/>
<path d="M951.741 3494.02H935.492V3656.51H951.741V3494.02Z" fill="#F8B988"/>
<path d="M984.239 3494.02H967.99V3656.51H984.239V3494.02Z" fill="#F8B988"/>
<path d="M1016.74 3494.02H1000.49V3656.51H1016.74V3494.02Z" fill="#F8B988"/>
<path d="M1049.24 3494.02H1032.99V3656.51H1049.24V3494.02Z" fill="#F8B988"/>
<path d="M1081.74 3494.02H1065.49V3656.51H1081.74V3494.02Z" fill="#F8B988"/>
<path d="M1260.51 3494.02H1098.02V3656.51H1260.51V3494.02Z" fill="#70D4E8"/>
<path d="M1098.02 3656.51C1098.02 3613.41 1115.14 3572.08 1145.61 3541.61C1176.08 3511.14 1217.41 3494.02 1260.51 3494.02L1098.02 3656.51C1141.11 3656.51 1182.44 3639.39 1212.91 3608.91C1243.39 3578.44 1260.51 3537.11 1260.51 3494.02" fill="#FB8E3E"/>
<path d="M1423 3494H1260.5V3656.5H1423V3494Z" fill="white"/>
<path d="M1341.75 3494.02H1260.51V3575.26H1341.75V3494.02Z" fill="#F1F3E9"/>
<path d="M1341.75 3494.02V3575.26H1260.51L1341.75 3494.02Z" fill="#FFFBF7"/>
<path d="M1423 3494.02H1341.75V3575.26H1423V3494.02Z" fill="#B3E0DD"/>
<path d="M1341.75 3575.26C1341.75 3553.71 1350.31 3533.05 1365.55 3517.81C1380.79 3502.58 1401.45 3494.02 1423 3494.02V3575.26" fill="#DEF5FA"/>
<path d="M1341.75 3575.26H1260.51V3656.51H1341.75V3575.26Z" fill="#BEE4E2"/>
<path d="M1341.75 3575.26H1260.51V3656.51H1341.75V3575.26Z" fill="#C0E5E3"/>
<path d="M1423 3575.26H1341.75V3656.51H1423V3575.26Z" fill="#FCA769"/>
<path d="M1423 3575.26H1341.75V3656.51H1423V3575.26Z" fill="#EFFAFC"/>
<path d="M1585.49 3494.02H1423V3656.51H1585.49V3494.02Z" fill="#73D5E9"/>
<path d="M1423 3494.02L1585.49 3656.51H1423V3494.02Z" fill="#EFF8F8"/>
<path d="M1748 3494H1585.5V3656.5H1748V3494Z" fill="white"/>
<path d="M1666.74 3494.02H1585.49V3575.26H1666.74V3494.02Z" fill="#FEF2E9"/>
<path d="M1585.49 3494.02H1666.74L1585.49 3575.26V3494.02Z" fill="#F6A15E"/>
<path d="M1747.98 3494.02H1666.74V3575.26H1747.98V3494.02Z" fill="#F5F6EE"/>
<path d="M1747.98 3494.02H1666.74V3575.26H1747.98V3494.02Z" fill="#C6E8E6"/>
<path d="M1666.74 3575.26H1585.49V3656.51H1666.74V3575.26Z" fill="#FACFAD"/>
<path d="M1585.49 3575.26C1607.04 3575.26 1627.71 3583.82 1642.94 3599.06C1658.18 3614.29 1666.74 3634.96 1666.74 3656.51H1585.49" fill="#FDEADC"/>
<path d="M1747.98 3575.26H1666.74V3656.51H1747.98V3575.26Z" fill="#FDEDE0"/>
<path d="M1747.98 3575.26H1666.74V3583.39H1747.98V3575.26Z" fill="#8CDDED"/>
<path d="M1747.98 3591.51H1666.74V3599.64H1747.98V3591.51Z" fill="#8CDDED"/>
<path d="M1747.98 3607.76H1666.74V3615.88H1747.98V3607.76Z" fill="#8CDDED"/>
<path d="M1747.98 3624.01H1666.74V3632.13H1747.98V3624.01Z" fill="#8CDDED"/>
<path d="M1747.98 3640.26H1666.74V3648.38H1747.98V3640.26Z" fill="#8CDDED"/>
<path d="M1910.51 3494.02H1748.02V3656.51H1910.51V3494.02Z" fill="#FBFBF8"/>
<path d="M1910.51 3494.02H1748.02V3656.51H1910.51V3494.02Z" fill="#E8EBD9"/>
<path d="M2073 3494H1910.5V3656.5H2073V3494Z" fill="white"/>
<path d="M1991.75 3494.02H1910.51V3575.26H1991.75V3494.02Z" fill="#FEF0E5"/>
<path d="M1991.75 3494.02V3575.26H1910.51L1991.75 3494.02Z" fill="#F5FCFD"/>
<path d="M2073 3494.02H1991.75V3575.26H2073V3494.02Z" fill="#F5F6EF"/>
<path d="M2073 3494.02V3575.26H1991.75L2073 3494.02Z" fill="#E3F4F3"/>
<path d="M1991.75 3575.26H1910.51V3656.51H1991.75V3575.26Z" fill="#FCE4D1"/>
<path d="M1910.51 3575.26C1910.51 3596.81 1919.07 3617.47 1934.3 3632.71C1949.54 3647.95 1970.21 3656.51 1991.75 3656.51V3575.26" fill="#C3E7E4"/>
<path d="M2073 3575.26H1991.75V3656.51H2073V3575.26Z" fill="#9BE1EF"/>
<path d="M1999.88 3575.26H1991.75V3656.51H1999.88V3575.26Z" fill="#7DD8EA"/>
<path d="M2016.13 3575.26H2008V3656.51H2016.13V3575.26Z" fill="#7DD8EA"/>
<path d="M2032.38 3575.26H2024.25V3656.51H2032.38V3575.26Z" fill="#7DD8EA"/>
<path d="M2048.63 3575.26H2040.5V3656.51H2048.63V3575.26Z" fill="#7DD8EA"/>
<path d="M2064.87 3575.26H2056.75V3656.51H2064.87V3575.26Z" fill="#7DD8EA"/>
<path d="M935.492 3656.51H773V3819H935.492V3656.51Z" fill="#EDEFE1"/>
<path d="M935.492 3656.51H773V3819H935.492V3656.51Z" fill="#FEF1E6"/>
<path d="M1097.98 3656.51H935.492V3819H1097.98V3656.51Z" fill="#F9C7A0"/>
<path d="M951.741 3656.51H935.492V3819H951.741V3656.51Z" fill="#78D7E9"/>
<path d="M984.239 3656.51H967.99V3819H984.239V3656.51Z" fill="#78D7E9"/>
<path d="M1016.74 3656.51H1000.49V3819H1016.74V3656.51Z" fill="#78D7E9"/>
<path d="M1049.24 3656.51H1032.99V3819H1049.24V3656.51Z" fill="#78D7E9"/>
<path d="M1081.74 3656.51H1065.49V3819H1081.74V3656.51Z" fill="#78D7E9"/>
<path d="M1260.51 3656.51H1098.02V3819H1260.51V3656.51Z" fill="#B6E1DF"/>
<path d="M1098.02 3656.51H1260.51L1098.02 3819V3656.51Z" fill="#FCFCFA"/>
<path d="M1423 3656.51H1260.51V3819H1423V3656.51Z" fill="#6DD3E8"/>
<path d="M1423 3656.51H1260.51V3819H1423V3656.51Z" fill="#FAFDFD"/>
<path d="M1585.49 3656.51H1423V3819H1585.49V3656.51Z" fill="#C9EFF6"/>
<path d="M1585.49 3656.51H1423V3819H1585.49V3656.51Z" fill="#E2E5CF"/>
<path d="M1747.98 3656.51H1585.49V3819H1747.98V3656.51Z" fill="#FDEBDD"/>
<path d="M1747.98 3656.51H1585.49V3819H1747.98V3656.51Z" fill="#A7DBD8"/>
<path d="M1910.5 3656.5H1748V3819H1910.5V3656.5Z" fill="white"/>
<path d="M1829.26 3656.51H1748.02V3737.75H1829.26V3656.51Z" fill="#B1E7F2"/>
<path d="M1829.26 3656.51H1748.02V3664.63H1829.26V3656.51Z" fill="#FA6B03"/>
<path d="M1829.26 3672.76H1748.02V3680.88H1829.26V3672.76Z" fill="#FA6B03"/>
<path d="M1829.26 3689.01H1748.02V3697.13H1829.26V3689.01Z" fill="#FA6B03"/>
<path d="M1829.26 3705.26H1748.02V3713.38H1829.26V3705.26Z" fill="#FA6B03"/>
<path d="M1829.26 3721.5H1748.02V3729.63H1829.26V3721.5Z" fill="#FA6B03"/>
<path d="M1910.51 3656.51H1829.26V3737.75H1910.51V3656.51Z" fill="#FCDFC9"/>
<path d="M1837.39 3656.51H1829.26V3737.75H1837.39V3656.51Z" fill="#E8F6F5"/>
<path d="M1853.64 3656.51H1845.51V3737.75H1853.64V3656.51Z" fill="#E8F6F5"/>
<path d="M1869.88 3656.51H1861.76V3737.75H1869.88V3656.51Z" fill="#E8F6F5"/>
<path d="M1886.13 3656.51H1878.01V3737.75H1886.13V3656.51Z" fill="#E8F6F5"/>
<path d="M1902.38 3656.51H1894.26V3737.75H1902.38V3656.51Z" fill="#E8F6F5"/>
<path d="M1829.26 3737.75H1748.02V3819H1829.26V3737.75Z" fill="#FED8BD"/>
<path d="M1748.02 3819C1769.56 3819 1790.23 3810.44 1805.47 3795.2C1820.7 3779.97 1829.26 3759.3 1829.26 3737.75H1748.02" fill="#BEE4E2"/>
<path d="M1910.51 3737.75H1829.26V3819H1910.51V3737.75Z" fill="#FCAD73"/>
<path d="M1910.51 3737.75H1829.26V3819H1910.51V3737.75Z" fill="#BAE3E0"/>
<path d="M2073 3656.51H1910.51V3819H2073V3656.51Z" fill="#B0DFDC"/>
<path d="M1926.76 3656.51H1910.51V3819H1926.76V3656.51Z" fill="#CCEAE8"/>
<path d="M1959.26 3656.51H1943.01V3819H1959.26V3656.51Z" fill="#CCEAE8"/>
<path d="M1991.75 3656.51H1975.5V3819H1991.75V3656.51Z" fill="#CCEAE8"/>
<path d="M2024.25 3656.51H2008V3819H2024.25V3656.51Z" fill="#CCEAE8"/>
<path d="M2056.75 3656.51H2040.5V3819H2056.75V3656.51Z" fill="#CCEAE8"/>
</g>
<defs>
<clipPath id="clip0_888_12676">
<rect width="1300" height="2600" fill="white" transform="translate(773 1219)"/>
</clipPath>
</defs>
</svg>
