<?xml version="1.0" standalone="no"?><svg xmlns:xlink="http://www.w3.org/1999/xlink" xmlns="http://www.w3.org/2000/svg" viewBox="0 0 1000 1285.7142857142858" preserveAspectRatio="xMaxYMax slice"><g transform="scale(1.7857142857142858)"><rect x="0" y="0" width="560" height="720" fill="#ffffff"/><rect x="0" y="0" width="80" height="80" fill="#fbf8f1"/><rect x="0" y="0" width="80" height="80" fill="#f18ea8"/><rect x="80" y="0" width="80" height="80" fill="#ffffff"/><rect x="80" y="0" width="40" height="40" fill="#f8e9ea"/><g transform="translate(80,0) scale(2) rotate(0)"><rect width="2" height="20" fill="#f3edeb"/><rect x="4" width="2" height="20" fill="#f3edeb"/><rect x="8" width="2" height="20" fill="#f3edeb"/><rect x="12" width="2" height="20" fill="#f3edeb"/><rect x="16" width="2" height="20" fill="#f3edeb"/></g><rect x="120" y="0" width="40" height="40" fill="#c9a99f"/><path d="M 120 0 A 40 40 0 0 1 160 40 L 120 40" fill="#f192ab"/><rect x="80" y="40" width="40" height="40" fill="#fef6f8"/><path d="M 80 80 A 40 40 0 0 1  120 40 L 80 80 A 40 40 0 0 0 120 40" fill="#fefefc"/><rect x="120" y="40" width="40" height="40" fill="#ddc8c2"/><rect x="120" y="40" width="40" height="40" fill="#f7e6e8"/><rect x="160" y="0" width="80" height="80" fill="#ebdedb"/><g transform="translate(160,0) scale(4) rotate(0)"><rect width="20" height="2" fill="#d6ece4"/><rect y="4" width="20" height="2" fill="#d6ece4"/><rect y="8" width="20" height="2" fill="#d6ece4"/><rect y="12" width="20" height="2" fill="#d6ece4"/><rect y="16" width="20" height="2" fill="#d6ece4"/></g><rect x="240" y="0" width="80" height="80" fill="#fbf7ee"/><g transform="translate(240,0) scale(4) rotate(0)"><path d="M10 0H20V10L10 20H0V10L10 0Z" fill="#d9eee6"/></g><rect x="320" y="0" width="80" height="80" fill="#cbaca3"/><g transform="translate(320,0) scale(4) rotate(0)"><rect width="20" height="2" fill="#e1cfc9"/><rect y="4" width="20" height="2" fill="#e1cfc9"/><rect y="8" width="20" height="2" fill="#e1cfc9"/><rect y="12" width="20" height="2" fill="#e1cfc9"/><rect y="16" width="20" height="2" fill="#e1cfc9"/></g><rect x="400" y="0" width="80" height="80" fill="#d4ebe2"/><g transform="translate(400,0) scale(4) rotate(0)"><path d="M5 0H10L5 5L0 10V5L5 0Z" fill="#ceb1a9"/><path d="M20 15V20H15L20 15Z" fill="#ceb1a9"/><path d="M20 5V10L15 15L10 20H5L20 5Z" fill="#ceb1a9"/><path d="M15 0H20L5 15.0002L0 20.0002V15.0002L15 0Z" fill="#ceb1a9"/></g><rect x="480" y="0" width="80" height="80" fill="#ffffff"/><rect x="480" y="0" width="40" height="40" fill="#cbaca2"/><g transform="translate(480,0) scale(2) rotate(0)"><rect width="20" height="2" fill="#fce7ed"/><rect y="4" width="20" height="2" fill="#fce7ed"/><rect y="8" width="20" height="2" fill="#fce7ed"/><rect y="12" width="20" height="2" fill="#fce7ed"/><rect y="16" width="20" height="2" fill="#fce7ed"/></g><rect x="520" y="0" width="40" height="40" fill="#fefdfa"/><g transform="translate(520,0) scale(2) rotate(0)"><path d="M13 0H20V7L7 20H0V13L13 0Z" fill="#fcf6f6"/></g><rect x="480" y="40" width="40" height="40" fill="#ea547b"/><path d="M 480 40 A 40 40 0 0 0 520 80 L 520 40" fill="#dff0e9"/><rect x="520" y="40" width="40" height="40" fill="#f9ced9"/><g transform="translate(520,40) scale(2) rotate(0)"><path d="M10 0L20 10L10 20L0 10L10 0Z" fill="#faf7f6"/></g><rect x="0" y="80" width="80" height="80" fill="#dbc6c0"/><g transform="translate(0,80) scale(4) rotate(0)"><path d="M13 0H20V7L7 20H0V13L13 0Z" fill="#fffefe"/></g><rect x="80" y="80" width="80" height="80" fill="#fbf7ee"/><rect x="80" y="80" width="80" height="80" fill="#e2f2ec"/><rect x="160" y="80" width="80" height="80" fill="#fbf8f0"/><path d="M 160 80 A 80 80 0 0 1  240 160 L 160 80 A 80 80 0 0 0 240 160" fill="#dcc7c1"/><rect x="240" y="80" width="80" height="80" fill="#f7efdf"/><g transform="translate(240,80) scale(4) rotate(0)"><path fill-rule="evenodd" clip-rule="evenodd" d="M10 20C15.5228 20 20 15.5228 20 10C20 4.47715 15.5228 0 10 0C4.47715 0 0 4.47715 0 10C0 15.5228 4.47715 20 10 20ZM10 17C13.866 17 17 13.866 17 10C17 6.13401 13.866 3 10 3C6.13401 3 3 6.13401 3 10C3 13.866 6.13401 17 10 17Z" fill="#d0b4ac"/></g><rect x="320" y="80" width="80" height="80" fill="#ddf0e9"/><g transform="translate(320,80) scale(4) rotate(0)"><rect width="2" height="20" fill="#e1a3a9"/><rect x="4" width="2" height="20" fill="#e1a3a9"/><rect x="8" width="2" height="20" fill="#e1a3a9"/><rect x="12" width="2" height="20" fill="#e1a3a9"/><rect x="16" width="2" height="20" fill="#e1a3a9"/></g><rect x="400" y="80" width="80" height="80" fill="#fefdfd"/><g transform="translate(400,80) scale(4) rotate(0)"><path d="M5 0H10L5 5L0 10V5L5 0Z" fill="#f4ebd6"/><path d="M20 15V20H15L20 15Z" fill="#f4ebd6"/><path d="M20 5V10L15 15L10 20H5L20 5Z" fill="#f4ebd6"/><path d="M15 0H20L5 15.0002L0 20.0002V15.0002L15 0Z" fill="#f4ebd6"/></g><rect x="480" y="80" width="80" height="80" fill="#fcfaf5"/><g transform="translate(480,80) scale(4) rotate(0)"><path d="M13 0H20V7L7 20H0V13L13 0Z" fill="#f9d0db"/></g><rect x="0" y="160" width="80" height="80" fill="#f6eddb"/><g transform="translate(0,160) scale(4) rotate(0)"><path fill-rule="evenodd" clip-rule="evenodd" d="M10 20C15.5228 20 20 15.5228 20 10C20 4.47715 15.5228 0 10 0C4.47715 0 0 4.47715 0 10C0 15.5228 4.47715 20 10 20ZM10 17C13.866 17 17 13.866 17 10C17 6.13401 13.866 3 10 3C6.13401 3 3 6.13401 3 10C3 13.866 6.13401 17 10 17Z" fill="#f7bfce"/></g><rect x="80" y="160" width="80" height="80" fill="#f7bbcb"/><g transform="translate(80,160) scale(4) rotate(0)"><rect width="20" height="2" fill="#f9d1db"/><rect y="4" width="20" height="2" fill="#f9d1db"/><rect y="8" width="20" height="2" fill="#f9d1db"/><rect y="12" width="20" height="2" fill="#f9d1db"/><rect y="16" width="20" height="2" fill="#f9d1db"/></g><rect x="160" y="160" width="80" height="80" fill="#ffffff"/><rect x="160" y="160" width="40" height="40" fill="#eabfc3"/><circle cx="180" cy="180" r="20" fill="#def0e9"/><rect x="200" y="160" width="40" height="40" fill="#fdfaf6"/><g transform="translate(200,160) scale(2) rotate(0)"><path d="M10 0L20 10L10 20L0 10L10 0Z" fill="#ffffff"/></g><rect x="160" y="200" width="40" height="40" fill="#f6f1f0"/><g transform="translate(160,200) scale(2) rotate(0)"><path d="M10 0L20 10L10 20L0 10L10 0Z" fill="#faf6ed"/></g><rect x="200" y="200" width="40" height="40" fill="#fefcfa"/><path d="M 200 240 A 40 40 0 0 1  240 200 L 200 240 A 40 40 0 0 0 240 200" fill="#fce5eb"/><rect x="240" y="160" width="80" height="80" fill="#cfe9df"/><g transform="translate(240,160) scale(4) rotate(0)"><path d="M13 0H20V7L7 20H0V13L13 0Z" fill="#db9198"/></g><rect x="320" y="160" width="80" height="80" fill="#f8f1e4"/><g transform="translate(320,160) scale(4) rotate(0)"><path d="M10 0L20 10L10 20L0 10L10 0Z" fill="#f4ead5"/></g><rect x="400" y="160" width="80" height="80" fill="#fdfefe"/><path d="M 400 240 A 80 80 0 0 1  480 160 L 400 240 A 80 80 0 0 0 480 160" fill="#eaf5f1"/><rect x="480" y="160" width="80" height="80" fill="#e3a9af"/><g transform="translate(480,160) scale(4) rotate(0)"><path d="M10 0H20V10L10 20H0V10L10 0Z" fill="#cbaca3"/></g><rect x="0" y="240" width="80" height="80" fill="#ffffff"/><rect x="0" y="240" width="40" height="40" fill="#fefdfd"/><circle cx="20" cy="260" r="20" fill="#f4ebd6"/><rect x="40" y="240" width="40" height="40" fill="#d3ebe2"/><circle cx="60" cy="260" r="20" fill="#f7f1e2"/><rect x="0" y="280" width="40" height="40" fill="#f0d2d5"/><g transform="translate(0,280) scale(2) rotate(0)"><path fill-rule="evenodd" clip-rule="evenodd" d="M10 20C15.5228 20 20 15.5228 20 10C20 4.47715 15.5228 0 10 0C4.47715 0 0 4.47715 0 10C0 15.5228 4.47715 20 10 20ZM10 17C13.866 17 17 13.866 17 10C17 6.13401 13.866 3 10 3C6.13401 3 3 6.13401 3 10C3 13.866 6.13401 17 10 17Z" fill="#dcefe8"/></g><rect x="40" y="280" width="40" height="40" fill="#d7c0b9"/><g transform="translate(40,280) scale(2) rotate(0)"><path fill-rule="evenodd" clip-rule="evenodd" d="M10 20C15.5228 20 20 15.5228 20 10C20 4.47715 15.5228 0 10 0C4.47715 0 0 4.47715 0 10C0 15.5228 4.47715 20 10 20ZM10 17C13.866 17 17 13.866 17 10C17 6.13401 13.866 3 10 3C6.13401 3 3 6.13401 3 10C3 13.866 6.13401 17 10 17Z" fill="#f5b1c3"/></g><rect x="80" y="240" width="80" height="80" fill="#d1b6ae"/><g transform="translate(80,240) scale(4) rotate(0)"><path d="M5 0H10L5 5L0 10V5L5 0Z" fill="#faf5ea"/><path d="M20 15V20H15L20 15Z" fill="#faf5ea"/><path d="M20 5V10L15 15L10 20H5L20 5Z" fill="#faf5ea"/><path d="M15 0H20L5 15.0002L0 20.0002V15.0002L15 0Z" fill="#faf5ea"/></g><rect x="160" y="240" width="80" height="80" fill="#ec668a"/><g transform="translate(160,240) scale(4) rotate(0)"><path d="M10 0L20 10L10 20L0 10L10 0Z" fill="#fbdee6"/></g><rect x="240" y="240" width="80" height="80" fill="#def0e9"/><path d="M 240 320 A 80 80 0 0 1  320 240 L 240 320 A 80 80 0 0 0 320 240" fill="#fdfbf6"/><rect x="320" y="240" width="80" height="80" fill="#eb5e83"/><g transform="translate(320,240) scale(4) rotate(0)"><path d="M5 0H10L5 5L0 10V5L5 0Z" fill="#def0e9"/><path d="M20 15V20H15L20 15Z" fill="#def0e9"/><path d="M20 5V10L15 15L10 20H5L20 5Z" fill="#def0e9"/><path d="M15 0H20L5 15.0002L0 20.0002V15.0002L15 0Z" fill="#def0e9"/></g><rect x="400" y="240" width="80" height="80" fill="#f8f2e5"/><circle cx="440" cy="280" r="40" fill="#eabdc2"/><rect x="480" y="240" width="80" height="80" fill="#fdfbf8"/><g transform="translate(480,240) scale(4) rotate(0)"><path d="M10 0L20 10L10 20L0 10L10 0Z" fill="#e2a5ab"/></g><rect x="0" y="320" width="80" height="80" fill="#f7efe0"/><g transform="translate(0,320) scale(4) rotate(0)"><path d="M13 0H20V7L7 20H0V13L13 0Z" fill="#fffcfc"/></g><rect x="80" y="320" width="80" height="80" fill="#ffffff"/><rect x="80" y="320" width="40" height="40" fill="#fbf8f1"/><g transform="translate(80,320) scale(2) rotate(0)"><path d="M5 0H10L5 5L0 10V5L5 0Z" fill="#f8f2e5"/><path d="M20 15V20H15L20 15Z" fill="#f8f2e5"/><path d="M20 5V10L15 15L10 20H5L20 5Z" fill="#f8f2e5"/><path d="M15 0H20L5 15.0002L0 20.0002V15.0002L15 0Z" fill="#f8f2e5"/></g><rect x="120" y="320" width="40" height="40" fill="#e2f2ec"/><g transform="translate(120,320) scale(2) rotate(0)"><path fill-rule="evenodd" clip-rule="evenodd" d="M10 20C15.5228 20 20 15.5228 20 10C20 4.47715 15.5228 0 10 0C4.47715 0 0 4.47715 0 10C0 15.5228 4.47715 20 10 20ZM10 17C13.866 17 17 13.866 17 10C17 6.13401 13.866 3 10 3C6.13401 3 3 6.13401 3 10C3 13.866 6.13401 17 10 17Z" fill="#e7b4b9"/></g><rect x="80" y="360" width="40" height="40" fill="#e5afb4"/><g transform="translate(80,360) scale(2) rotate(0)"><path fill-rule="evenodd" clip-rule="evenodd" d="M10 20C15.5228 20 20 15.5228 20 10C20 4.47715 15.5228 0 10 0C4.47715 0 0 4.47715 0 10C0 15.5228 4.47715 20 10 20ZM10 17C13.866 17 17 13.866 17 10C17 6.13401 13.866 3 10 3C6.13401 3 3 6.13401 3 10C3 13.866 6.13401 17 10 17Z" fill="#e9f5f0"/></g><rect x="120" y="360" width="40" height="40" fill="#ddefe8"/><g transform="translate(120,360) scale(2) rotate(0)"><rect width="20" height="2" fill="#e4acb1"/><rect y="4" width="20" height="2" fill="#e4acb1"/><rect y="8" width="20" height="2" fill="#e4acb1"/><rect y="12" width="20" height="2" fill="#e4acb1"/><rect y="16" width="20" height="2" fill="#e4acb1"/></g><rect x="160" y="320" width="80" height="80" fill="#f6fbf9"/><g transform="translate(160,320) scale(4) rotate(0)"><path d="M10 0H20V10L10 20H0V10L10 0Z" fill="#fceaee"/></g><rect x="240" y="320" width="80" height="80" fill="#fcf5f6"/><g transform="translate(240,320) scale(4) rotate(0)"><rect width="2" height="20" fill="#f8fcfa"/><rect x="4" width="2" height="20" fill="#f8fcfa"/><rect x="8" width="2" height="20" fill="#f8fcfa"/><rect x="12" width="2" height="20" fill="#f8fcfa"/><rect x="16" width="2" height="20" fill="#f8fcfa"/></g><rect x="320" y="320" width="80" height="80" fill="#ffffff"/><rect x="320" y="320" width="40" height="40" fill="#ef7f9c"/><path d="M 320 320 A 40 40 0 0 1 360 360 L 320 360" fill="#def0e9"/><rect x="360" y="320" width="40" height="40" fill="#f4ead5"/><g transform="translate(360,320) scale(2) rotate(0)"><path d="M10 0H20V10L10 20H0V10L10 0Z" fill="#e9f5f0"/></g><rect x="320" y="360" width="40" height="40" fill="#e5f3ee"/><path d="M 320 400 A 40 40 0 0 0 360 360 L 320 360" fill="#eee5e2"/><rect x="360" y="360" width="40" height="40" fill="#f5ecd9"/><g transform="translate(360,360) scale(2) rotate(0)"><rect width="20" height="2" fill="#f3dbdd"/><rect y="4" width="20" height="2" fill="#f3dbdd"/><rect y="8" width="20" height="2" fill="#f3dbdd"/><rect y="12" width="20" height="2" fill="#f3dbdd"/><rect y="16" width="20" height="2" fill="#f3dbdd"/></g><rect x="400" y="320" width="80" height="80" fill="#ef819e"/><path d="M 400 320 A 80 80 0 0 1  480 400 L 400 320 A 80 80 0 0 0 480 400" fill="#f6eddb"/><rect x="480" y="320" width="80" height="80" fill="#f18ba6"/><g transform="translate(480,320) scale(4) rotate(0)"><path d="M10 0L20 10L10 20L0 10L10 0Z" fill="#f5abbe"/></g><rect x="0" y="400" width="80" height="80" fill="#e3f2ec"/><rect x="0" y="400" width="80" height="80" fill="#f8f2e5"/><rect x="80" y="400" width="80" height="80" fill="#f4aabe"/><g transform="translate(80,400) scale(4) rotate(0)"><path fill-rule="evenodd" clip-rule="evenodd" d="M10 20C15.5228 20 20 15.5228 20 10C20 4.47715 15.5228 0 10 0C4.47715 0 0 4.47715 0 10C0 15.5228 4.47715 20 10 20ZM10 17C13.866 17 17 13.866 17 10C17 6.13401 13.866 3 10 3C6.13401 3 3 6.13401 3 10C3 13.866 6.13401 17 10 17Z" fill="#fbfdfc"/></g><rect x="160" y="400" width="80" height="80" fill="#fdeef2"/><g transform="translate(160,400) scale(4) rotate(0)"><rect width="2" height="20" fill="#caaaa1"/><rect x="4" width="2" height="20" fill="#caaaa1"/><rect x="8" width="2" height="20" fill="#caaaa1"/><rect x="12" width="2" height="20" fill="#caaaa1"/><rect x="16" width="2" height="20" fill="#caaaa1"/></g><rect x="240" y="400" width="80" height="80" fill="#f6efde"/><g transform="translate(240,400) scale(4) rotate(0)"><path d="M10 0L20 10L10 20L0 10L10 0Z" fill="#e5b0b5"/></g><rect x="320" y="400" width="80" height="80" fill="#d3ebe2"/><path d="M 320 400 A 80 80 0 0 1  400 480 L 320 400 A 80 80 0 0 0 400 480" fill="#f5ecd9"/><rect x="400" y="400" width="80" height="80" fill="#dbeee7"/><g transform="translate(400,400) scale(4) rotate(0)"><path d="M13 0H20V7L7 20H0V13L13 0Z" fill="#c9a9a0"/></g><rect x="480" y="400" width="80" height="80" fill="#f0e7e5"/><rect x="480" y="400" width="80" height="80" fill="#ee7696"/><rect x="0" y="480" width="80" height="80" fill="#e7d9d5"/><path d="M 0 560 A 80 80 0 0 1  80 480 L 0 560 A 80 80 0 0 0 80 480" fill="#f2d7da"/><rect x="80" y="480" width="80" height="80" fill="#f299b0"/><g transform="translate(80,480) scale(4) rotate(0)"><rect width="2" height="20" fill="#ef809e"/><rect x="4" width="2" height="20" fill="#ef809e"/><rect x="8" width="2" height="20" fill="#ef809e"/><rect x="12" width="2" height="20" fill="#ef809e"/><rect x="16" width="2" height="20" fill="#ef809e"/></g><rect x="160" y="480" width="80" height="80" fill="#f3faf7"/><g transform="translate(160,480) scale(4) rotate(0)"><rect width="20" height="2" fill="#f3dbdd"/><rect y="4" width="20" height="2" fill="#f3dbdd"/><rect y="8" width="20" height="2" fill="#f3dbdd"/><rect y="12" width="20" height="2" fill="#f3dbdd"/><rect y="16" width="20" height="2" fill="#f3dbdd"/></g><rect x="240" y="480" width="80" height="80" fill="#d0eae0"/><circle cx="280" cy="520" r="40" fill="#eee3e0"/><rect x="320" y="480" width="80" height="80" fill="#d7868d"/><path d="M 320 560 A 80 80 0 0 1  400 480 L 320 560 A 80 80 0 0 0 400 480" fill="#e1a4aa"/><rect x="400" y="480" width="80" height="80" fill="#ffffff"/><rect x="400" y="480" width="40" height="40" fill="#f8f1e3"/><circle cx="420" cy="500" r="20" fill="#d4bbb4"/><rect x="440" y="480" width="40" height="40" fill="#faf5eb"/><rect x="440" y="480" width="40" height="40" fill="#fdfcf9"/><rect x="400" y="520" width="40" height="40" fill="#f6f1ef"/><g transform="translate(400,520) scale(2) rotate(0)"><rect width="2" height="20" fill="#fffffe"/><rect x="4" width="2" height="20" fill="#fffffe"/><rect x="8" width="2" height="20" fill="#fffffe"/><rect x="12" width="2" height="20" fill="#fffffe"/><rect x="16" width="2" height="20" fill="#fffffe"/></g><rect x="440" y="520" width="40" height="40" fill="#ebf6f2"/><g transform="translate(440,520) scale(2) rotate(0)"><path d="M10 0H20V10L10 20H0V10L10 0Z" fill="#d6bdb6"/></g><rect x="480" y="480" width="80" height="80" fill="#ffffff"/><rect x="480" y="480" width="40" height="40" fill="#e4abb0"/><g transform="translate(480,480) scale(2) rotate(0)"><path fill-rule="evenodd" clip-rule="evenodd" d="M10 20C15.5228 20 20 15.5228 20 10C20 4.47715 15.5228 0 10 0C4.47715 0 0 4.47715 0 10C0 15.5228 4.47715 20 10 20ZM10 17C13.866 17 17 13.866 17 10C17 6.13401 13.866 3 10 3C6.13401 3 3 6.13401 3 10C3 13.866 6.13401 17 10 17Z" fill="#fbf2f3"/></g><rect x="520" y="480" width="40" height="40" fill="#f9fcfb"/><path d="M 520 480 A 40 40 0 0 1  560 520 L 520 480 A 40 40 0 0 0 560 520" fill="#dac5be"/><rect x="480" y="520" width="40" height="40" fill="#c7e5da"/><g transform="translate(480,520) scale(2) rotate(0)"><path d="M10 0H20V10L10 20H0V10L10 0Z" fill="#d8868d"/></g><rect x="520" y="520" width="40" height="40" fill="#e2a7ad"/><g transform="translate(520,520) scale(2) rotate(0)"><rect width="2" height="20" fill="#d2b8b0"/><rect x="4" width="2" height="20" fill="#d2b8b0"/><rect x="8" width="2" height="20" fill="#d2b8b0"/><rect x="12" width="2" height="20" fill="#d2b8b0"/><rect x="16" width="2" height="20" fill="#d2b8b0"/></g><rect x="0" y="560" width="80" height="80" fill="#f6eedd"/><g transform="translate(0,560) scale(4) rotate(0)"><path d="M10 0H20V10L10 20H0V10L10 0Z" fill="#cbaba2"/></g><rect x="80" y="560" width="80" height="80" fill="#ffffff"/><rect x="80" y="560" width="40" height="40" fill="#cfb3aa"/><rect x="80" y="560" width="40" height="40" fill="#ea577e"/><rect x="120" y="560" width="40" height="40" fill="#fbf8f2"/><g transform="translate(120,560) scale(2) rotate(0)"><rect width="20" height="2" fill="#f8f2e5"/><rect y="4" width="20" height="2" fill="#f8f2e5"/><rect y="8" width="20" height="2" fill="#f8f2e5"/><rect y="12" width="20" height="2" fill="#f8f2e5"/><rect y="16" width="20" height="2" fill="#f8f2e5"/></g><rect x="80" y="600" width="40" height="40" fill="#e1a4a9"/><g transform="translate(80,600) scale(2) rotate(0)"><path d="M13 0H20V7L7 20H0V13L13 0Z" fill="#ed7091"/></g><rect x="120" y="600" width="40" height="40" fill="#f8fcfa"/><g transform="translate(120,600) scale(2) rotate(0)"><path d="M13 0H20V7L7 20H0V13L13 0Z" fill="#d0e9df"/></g><rect x="160" y="560" width="80" height="80" fill="#ebf6f1"/><g transform="translate(160,560) scale(4) rotate(0)"><rect width="2" height="20" fill="#fdeef2"/><rect x="4" width="2" height="20" fill="#fdeef2"/><rect x="8" width="2" height="20" fill="#fdeef2"/><rect x="12" width="2" height="20" fill="#fdeef2"/><rect x="16" width="2" height="20" fill="#fdeef2"/></g><rect x="240" y="560" width="80" height="80" fill="#ffffff"/><rect x="240" y="560" width="40" height="40" fill="#f1f9f6"/><path d="M 240 560 A 40 40 0 0 0 280 600 L 280 560" fill="#d9eee6"/><rect x="280" y="560" width="40" height="40" fill="#f8c8d4"/><g transform="translate(280,560) scale(2) rotate(0)"><path d="M10 0L20 10L10 20L0 10L10 0Z" fill="#ebf6f2"/></g><rect x="240" y="600" width="40" height="40" fill="#fdfbfb"/><g transform="translate(240,600) scale(2) rotate(0)"><rect width="2" height="20" fill="#fbe0e7"/><rect x="4" width="2" height="20" fill="#fbe0e7"/><rect x="8" width="2" height="20" fill="#fbe0e7"/><rect x="12" width="2" height="20" fill="#fbe0e7"/><rect x="16" width="2" height="20" fill="#fbe0e7"/></g><rect x="280" y="600" width="40" height="40" fill="#eabec2"/><g transform="translate(280,600) scale(2) rotate(0)"><path fill-rule="evenodd" clip-rule="evenodd" d="M10 20C15.5228 20 20 15.5228 20 10C20 4.47715 15.5228 0 10 0C4.47715 0 0 4.47715 0 10C0 15.5228 4.47715 20 10 20ZM10 17C13.866 17 17 13.866 17 10C17 6.13401 13.866 3 10 3C6.13401 3 3 6.13401 3 10C3 13.866 6.13401 17 10 17Z" fill="#ee7897"/></g><rect x="320" y="560" width="80" height="80" fill="#f4faf8"/><g transform="translate(320,560) scale(4) rotate(0)"><path fill-rule="evenodd" clip-rule="evenodd" d="M10 20C15.5228 20 20 15.5228 20 10C20 4.47715 15.5228 0 10 0C4.47715 0 0 4.47715 0 10C0 15.5228 4.47715 20 10 20ZM10 17C13.866 17 17 13.866 17 10C17 6.13401 13.866 3 10 3C6.13401 3 3 6.13401 3 10C3 13.866 6.13401 17 10 17Z" fill="#e9bbc0"/></g><rect x="400" y="560" width="80" height="80" fill="#ffffff"/><rect x="400" y="560" width="40" height="40" fill="#f4a4b9"/><g transform="translate(400,560) scale(2) rotate(0)"><path d="M5 0H10L5 5L0 10V5L5 0Z" fill="#f4a3b8"/><path d="M20 15V20H15L20 15Z" fill="#f4a3b8"/><path d="M20 5V10L15 15L10 20H5L20 5Z" fill="#f4a3b8"/><path d="M15 0H20L5 15.0002L0 20.0002V15.0002L15 0Z" fill="#f4a3b8"/></g><rect x="440" y="560" width="40" height="40" fill="#edc7ca"/><rect x="440" y="560" width="40" height="40" fill="#ffffff"/><rect x="400" y="600" width="40" height="40" fill="#fdfcf8"/><g transform="translate(400,600) scale(2) rotate(0)"><path fill-rule="evenodd" clip-rule="evenodd" d="M10 20C15.5228 20 20 15.5228 20 10C20 4.47715 15.5228 0 10 0C4.47715 0 0 4.47715 0 10C0 15.5228 4.47715 20 10 20ZM10 17C13.866 17 17 13.866 17 10C17 6.13401 13.866 3 10 3C6.13401 3 3 6.13401 3 10C3 13.866 6.13401 17 10 17Z" fill="#f8c3d1"/></g><rect x="440" y="600" width="40" height="40" fill="#e0a1a7"/><g transform="translate(440,600) scale(2) rotate(0)"><path d="M13 0H20V7L7 20H0V13L13 0Z" fill="#efe5e2"/></g><rect x="480" y="560" width="80" height="80" fill="#f0f8f5"/><g transform="translate(480,560) scale(4) rotate(0)"><path d="M10 0H20V10L10 20H0V10L10 0Z" fill="#f190a9"/></g><rect x="0" y="640" width="80" height="80" fill="#d7848c"/><g transform="translate(0,640) scale(4) rotate(0)"><path d="M13 0H20V7L7 20H0V13L13 0Z" fill="#f9eeef"/></g><rect x="80" y="640" width="80" height="80" fill="#fadae3"/><g transform="translate(80,640) scale(4) rotate(0)"><path d="M10 0H20V10L10 20H0V10L10 0Z" fill="#d5bcb5"/></g><rect x="160" y="640" width="80" height="80" fill="#fcfefd"/><circle cx="200" cy="680" r="40" fill="#dc939a"/><rect x="240" y="640" width="80" height="80" fill="#ffffff"/><rect x="240" y="640" width="40" height="40" fill="#f39db4"/><circle cx="260" cy="660" r="20" fill="#d8ede5"/><rect x="280" y="640" width="40" height="40" fill="#f9eeef"/><g transform="translate(280,640) scale(2) rotate(0)"><path d="M13 0H20V7L7 20H0V13L13 0Z" fill="#f1d5d7"/></g><rect x="240" y="680" width="40" height="40" fill="#f4ead6"/><path d="M 240 720 A 40 40 0 0 1  280 680 L 240 720 A 40 40 0 0 0 280 680" fill="#f39bb2"/><rect x="280" y="680" width="40" height="40" fill="#fdfcf9"/><rect x="280" y="680" width="40" height="40" fill="#f4dee0"/><rect x="320" y="640" width="80" height="80" fill="#f7f0e0"/><g transform="translate(320,640) scale(4) rotate(0)"><path d="M10 0H20V10L10 20H0V10L10 0Z" fill="#f6f1ef"/></g><rect x="400" y="640" width="80" height="80" fill="#f6f1ef"/><circle cx="440" cy="680" r="40" fill="#faf5ec"/><rect x="480" y="640" width="80" height="80" fill="#e95078"/><path d="M 480 720 A 80 80 0 0 1  560 640 L 480 720 A 80 80 0 0 0 560 640" fill="#f8f4f3"/></g></svg>