<?xml version="1.0" standalone="no"?><svg xmlns:xlink="http://www.w3.org/1999/xlink" xmlns="http://www.w3.org/2000/svg" viewBox="0 0 1000 666.6666666666666" preserveAspectRatio="xMaxYMax slice"><g transform="scale(0.970402717127608)"><rect x="0" y="0" width="1030.5" height="687" fill="#ffffff"/><rect x="0" y="0" width="68.7" height="68.7" fill="#ffffff"/><rect x="0" y="0" width="34.35" height="34.35" fill="#fff9f5"/><polygon points="0,0 34.35,34.35 0,34.35" fill="#faf8e5"/><rect x="34.35" y="0" width="34.35" height="34.35" fill="#ffeee2"/><g transform="translate(34.35,0) scale(1.7175) rotate(0)"><path d="M13 0H20V7L7 20H0V13L13 0Z" fill="#f5c7ca"/></g><rect x="0" y="34.35" width="34.35" height="34.35" fill="#fbeaeb"/><rect x="0" y="34.35" width="34.35" height="34.35" fill="#f8f4d9"/><rect x="34.35" y="34.35" width="34.35" height="34.35" fill="#fff2e9"/><path d="M 34.35 34.35 A 34.35 34.35 0 0 1 68.7 68.7 L 34.35 68.7" fill="#f9f7e2"/><rect x="68.7" y="0" width="68.7" height="68.7" fill="#fdfcf3"/><path d="M 68.7 68.7 A 68.7 68.7 0 0 1  137.4 0 L 68.7 68.7 A 68.7 68.7 0 0 0 137.4 0" fill="#fefdf9"/><rect x="137.4" y="0" width="68.7" height="68.7" fill="#ffffff"/><rect x="137.4" y="0" width="34.35" height="34.35" fill="#7d6d7d"/><rect x="137.4" y="0" width="34.35" height="34.35" fill="#fff2e9"/><rect x="171.75" y="0" width="34.35" height="34.35" fill="#988b98"/><path d="M 171.75 0 A 34.35 34.35 0 0 1 206.1 34.35 L 171.75 34.35" fill="#bfb7bf"/><rect x="137.4" y="34.35" width="34.35" height="34.35" fill="#f8d8da"/><g transform="translate(137.4,34.35) scale(1.7175) rotate(0)"><path d="M10 0L20 10L10 20L0 10L10 0Z" fill="#ffdac0"/></g><rect x="171.75" y="34.35" width="34.35" height="34.35" fill="#fcfbf1"/><g transform="translate(171.75,34.35) scale(1.7175) rotate(0)"><path d="M13 0H20V7L7 20H0V13L13 0Z" fill="#f9f9f9"/></g><rect x="206.1" y="0" width="68.7" height="68.7" fill="#fbb3b3"/><rect x="206.1" y="0" width="68.7" height="68.7" fill="#fff8f2"/><rect x="274.8" y="0" width="68.7" height="68.7" fill="#ffffff"/><rect x="274.8" y="0" width="34.35" height="34.35" fill="#fddcdc"/><g transform="translate(274.8,0) scale(1.7175) rotate(0)"><path d="M13 0H20V7L7 20H0V13L13 0Z" fill="#ffdbc0"/></g><rect x="309.15" y="0" width="34.35" height="34.35" fill="#fbf9eb"/><g transform="translate(309.15,0) scale(1.7175) rotate(0)"><path d="M10 0L20 10L10 20L0 10L10 0Z" fill="#fcc2c2"/></g><rect x="274.8" y="34.35" width="34.35" height="34.35" fill="#978a97"/><g transform="translate(274.8,34.35) scale(1.7175) rotate(0)"><path d="M10 0L20 10L10 20L0 10L10 0Z" fill="#ffe7d5"/></g><rect x="309.15" y="34.35" width="34.35" height="34.35" fill="#fbf9eb"/><rect x="309.15" y="34.35" width="34.35" height="34.35" fill="#f5cacd"/><rect x="343.5" y="0" width="68.7" height="68.7" fill="#ffffff"/><rect x="343.5" y="0" width="34.35" height="34.35" fill="#fff6f0"/><g transform="translate(343.5,0) scale(1.7175) rotate(0)"><path d="M13 0H20V7L7 20H0V13L13 0Z" fill="#fbf8e8"/></g><rect x="377.85" y="0" width="34.35" height="34.35" fill="#fcedee"/><path d="M 377.85 34.35 A 34.35 34.35 0 0 0 412.20000000000005 0 L 377.85 0" fill="#fef1f1"/><rect x="343.5" y="34.35" width="34.35" height="34.35" fill="#fffffd"/><g transform="translate(343.5,34.35) scale(1.7175) rotate(0)"><path d="M10 0L20 10L10 20L0 10L10 0Z" fill="#fcfbf0"/></g><rect x="377.85" y="34.35" width="34.35" height="34.35" fill="#d5d0d5"/><rect x="377.85" y="34.35" width="34.35" height="34.35" fill="#fef2f2"/><rect x="412.2" y="0" width="68.7" height="68.7" fill="#f8f4d8"/><path d="M 412.2 68.7 A 68.7 68.7 0 0 1  480.9 0 L 480.9 68.7" fill="#faf7e4"/><rect x="480.9" y="0" width="68.7" height="68.7" fill="#d9d5d9"/><path d="M 480.9 0 A 68.7 68.7 0 0 0 549.6 68.7 L 549.6 0" fill="#6c5a6c"/><rect x="549.6" y="0" width="68.7" height="68.7" fill="#ffe9d8"/><polygon points="618.3000000000001,0 618.3000000000001,68.7 549.6,68.7" fill="#f8d7d9"/><rect x="618.3000000000001" y="0" width="68.7" height="68.7" fill="#ffffff"/><rect x="618.3" y="0" width="34.35" height="34.35" fill="#f9e0e2"/><polygon points="618.3,0 652.65,0 618.3,34.35" fill="#f9f8f9"/><rect x="652.65" y="0" width="34.35" height="34.35" fill="#887a88"/><polygon points="652.65,0 687,34.35 652.65,34.35" fill="#fff1e7"/><rect x="618.3" y="34.35" width="34.35" height="34.35" fill="#a69ba6"/><path d="M 618.3 68.7 A 34.35 34.35 0 0 1  652.65 34.35 L 618.3 68.7 A 34.35 34.35 0 0 0 652.65 34.35" fill="#c8c1c8"/><rect x="652.65" y="34.35" width="34.35" height="34.35" fill="#fae4e6"/><path d="M 652.65 34.35 A 34.35 34.35 0 0 0 687 68.7 L 687 34.35" fill="#ffe9da"/><rect x="687" y="0" width="68.7" height="68.7" fill="#ffffff"/><rect x="687" y="0" width="34.35" height="34.35" fill="#faa0a0"/><path d="M 687 0 A 34.35 34.35 0 0 1  721.35 34.35 L 687 0 A 34.35 34.35 0 0 0 721.35 34.35" fill="#817281"/><rect x="721.35" y="0" width="34.35" height="34.35" fill="#f9f7e2"/><g transform="translate(721.35,0) scale(1.7175) rotate(0)"><path d="M13 0H20V7L7 20H0V13L13 0Z" fill="#ffecde"/></g><rect x="687" y="34.35" width="34.35" height="34.35" fill="#fef4f4"/><path d="M 687 34.35 A 34.35 34.35 0 0 1  721.35 68.7 L 687 34.35 A 34.35 34.35 0 0 0 721.35 68.7" fill="#ffdfc8"/><rect x="721.35" y="34.35" width="34.35" height="34.35" fill="#fff2e9"/><path d="M 721.35 68.7 A 34.35 34.35 0 0 1  755.7 34.35 L 721.35 68.7 A 34.35 34.35 0 0 0 755.7 34.35" fill="#fbb6b6"/><rect x="755.7" y="0" width="68.7" height="68.7" fill="#f7f3d6"/><g transform="translate(755.7,0) scale(3.435) rotate(0)"><path d="M13 0H20V7L7 20H0V13L13 0Z" fill="#fffdfb"/></g><rect x="824.4" y="0" width="68.7" height="68.7" fill="#eb9096"/><polygon points="824.4,0 893.1,0 824.4,68.7" fill="#fdcece"/><rect x="893.1" y="0" width="68.7" height="68.7" fill="#fffefd"/><g transform="translate(893.1,0) scale(3.435) rotate(0)"><path d="M10 0L20 10L10 20L0 10L10 0Z" fill="#f9dfe1"/></g><rect x="961.8000000000001" y="0" width="68.7" height="68.7" fill="#ffffff"/><rect x="961.8" y="0" width="34.35" height="34.35" fill="#ffe2cd"/><path d="M 961.8 0 A 34.35 34.35 0 0 0 996.15 34.35 L 996.15 0" fill="#c7c0c7"/><rect x="996.15" y="0" width="34.35" height="34.35" fill="#b2a8b2"/><path d="M 996.15 0 A 34.35 34.35 0 0 1  1030.5 34.35 L 996.15 0 A 34.35 34.35 0 0 0 1030.5 34.35" fill="#fdf2f3"/><rect x="961.8" y="34.35" width="34.35" height="34.35" fill="#fff4ed"/><rect x="961.8" y="34.35" width="34.35" height="34.35" fill="#645164"/><rect x="996.15" y="34.35" width="34.35" height="34.35" fill="#857685"/><polygon points="996.15,34.35 1030.5,34.35 996.15,68.7" fill="#fdfbf2"/><rect x="0" y="68.7" width="68.7" height="68.7" fill="#ffffff"/><rect x="0" y="68.7" width="34.35" height="34.35" fill="#ffdbc1"/><g transform="translate(0,68.7) scale(1.7175) rotate(0)"><path d="M13 0H20V7L7 20H0V13L13 0Z" fill="#fceced"/></g><rect x="34.35" y="68.7" width="34.35" height="34.35" fill="#aaa0aa"/><polygon points="34.35,68.7 68.7,68.7 34.35,103.05000000000001" fill="#928592"/><rect x="0" y="103.05" width="34.35" height="34.35" fill="#fcc1c1"/><g transform="translate(0,103.05) scale(1.7175) rotate(0)"><path d="M13 0H20V7L7 20H0V13L13 0Z" fill="#fff9f5"/></g><rect x="34.35" y="103.05" width="34.35" height="34.35" fill="#fae2e4"/><path d="M 34.35 137.4 A 34.35 34.35 0 0 1  68.7 103.05 L 34.35 137.4 A 34.35 34.35 0 0 0 68.7 103.05" fill="#f6d0d2"/><rect x="68.7" y="68.7" width="68.7" height="68.7" fill="#ffffff"/><rect x="68.7" y="68.7" width="34.35" height="34.35" fill="#fbb3b3"/><path d="M 68.7 68.7 A 34.35 34.35 0 0 1  103.05000000000001 103.05000000000001 L 68.7 68.7 A 34.35 34.35 0 0 0 103.05000000000001 103.05000000000001" fill="#978a97"/><rect x="103.05" y="68.7" width="34.35" height="34.35" fill="#f0adb1"/><path d="M 103.05 103.05000000000001 A 34.35 34.35 0 0 1  137.4 68.7 L 103.05 103.05000000000001 A 34.35 34.35 0 0 0 137.4 68.7" fill="#9b8f9b"/><rect x="68.7" y="103.05" width="34.35" height="34.35" fill="#fefdf7"/><g transform="translate(68.7,103.05) scale(1.7175) rotate(0)"><path d="M10 0L20 10L10 20L0 10L10 0Z" fill="#fcfbf1"/></g><rect x="103.05" y="103.05" width="34.35" height="34.35" fill="#fdfcf5"/><g transform="translate(103.05,103.05) scale(1.7175) rotate(0)"><path d="M10 0L20 10L10 20L0 10L10 0Z" fill="#fbf9e8"/></g><rect x="137.4" y="68.7" width="68.7" height="68.7" fill="#eea2a7"/><path d="M 137.4 137.4 A 68.7 68.7 0 0 1  206.10000000000002 68.7 L 137.4 137.4 A 68.7 68.7 0 0 0 206.10000000000002 68.7" fill="#fee6e6"/><rect x="206.10000000000002" y="68.7" width="68.7" height="68.7" fill="#ffffff"/><rect x="206.1" y="68.7" width="34.35" height="34.35" fill="#fff6ef"/><polygon points="206.1,68.7 240.45,103.05000000000001 206.1,103.05000000000001" fill="#ec959b"/><rect x="240.45" y="68.7" width="34.35" height="34.35" fill="#fae1e2"/><rect x="240.45" y="68.7" width="34.35" height="34.35" fill="#fffeff"/><rect x="206.1" y="103.05" width="34.35" height="34.35" fill="#f8f4d9"/><path d="M 206.1 137.4 A 34.35 34.35 0 0 1  240.45 103.05 L 206.1 137.4 A 34.35 34.35 0 0 0 240.45 103.05" fill="#fbfaec"/><rect x="240.45" y="103.05" width="34.35" height="34.35" fill="#e9878e"/><polygon points="274.8,103.05 274.8,137.4 240.45,137.4" fill="#fdd7d7"/><rect x="274.8" y="68.7" width="68.7" height="68.7" fill="#ffffff"/><rect x="274.8" y="68.7" width="34.35" height="34.35" fill="#efa8ad"/><g transform="translate(274.8,68.7) scale(1.7175) rotate(0)"><path d="M10 0L20 10L10 20L0 10L10 0Z" fill="#fcbfbf"/></g><rect x="309.15" y="68.7" width="34.35" height="34.35" fill="#fa9e9e"/><polygon points="309.15,68.7 343.5,68.7 343.5,103.05000000000001" fill="#fa9f9f"/><rect x="274.8" y="103.05" width="34.35" height="34.35" fill="#fffafa"/><path d="M 274.8 137.4 A 34.35 34.35 0 0 1  309.15000000000003 103.05 L 274.8 137.4 A 34.35 34.35 0 0 0 309.15000000000003 103.05" fill="#948794"/><rect x="309.15" y="103.05" width="34.35" height="34.35" fill="#ed9da3"/><polygon points="309.15,103.05 343.5,137.4 309.15,137.4" fill="#ffe8d7"/><rect x="343.5" y="68.7" width="68.7" height="68.7" fill="#ffffff"/><rect x="343.5" y="68.7" width="34.35" height="34.35" fill="#ffe0c9"/><path d="M 343.5 103.05000000000001 A 34.35 34.35 0 0 1  377.85 68.7 L 343.5 103.05000000000001 A 34.35 34.35 0 0 0 377.85 68.7" fill="#eb9096"/><rect x="377.85" y="68.7" width="34.35" height="34.35" fill="#c8c1c8"/><rect x="377.85" y="68.7" width="34.35" height="34.35" fill="#f5f3f5"/><rect x="343.5" y="103.05" width="34.35" height="34.35" fill="#fffdfc"/><g transform="translate(343.5,103.05) scale(1.7175) rotate(0)"><path d="M10 0L20 10L10 20L0 10L10 0Z" fill="#ffe9d9"/></g><rect x="377.85" y="103.05" width="34.35" height="34.35" fill="#e9868c"/><g transform="translate(377.85,103.05) scale(1.7175) rotate(0)"><path d="M13 0H20V7L7 20H0V13L13 0Z" fill="#fbf9ea"/></g><rect x="412.2" y="68.7" width="68.7" height="68.7" fill="#d0cbd0"/><g transform="translate(412.2,68.7) scale(3.435) rotate(0)"><path d="M10 0L20 10L10 20L0 10L10 0Z" fill="#f9f6e0"/></g><rect x="480.90000000000003" y="68.7" width="68.7" height="68.7" fill="#ffffff"/><rect x="480.9" y="68.7" width="34.35" height="34.35" fill="#fcfbf0"/><rect x="480.9" y="68.7" width="34.35" height="34.35" fill="#fa9e9e"/><rect x="515.25" y="68.7" width="34.35" height="34.35" fill="#fff9f4"/><rect x="515.25" y="68.7" width="34.35" height="34.35" fill="#fffbf7"/><rect x="480.9" y="103.05" width="34.35" height="34.35" fill="#ffecdf"/><polygon points="515.25,103.05 515.25,137.4 480.9,137.4" fill="#fff7f2"/><rect x="515.25" y="103.05" width="34.35" height="34.35" fill="#ffffff"/><rect x="515.25" y="103.05" width="34.35" height="34.35" fill="#fff5ed"/><rect x="549.6" y="68.7" width="68.7" height="68.7" fill="#ffffff"/><rect x="549.6" y="68.7" width="34.35" height="34.35" fill="#fffffd"/><g transform="translate(549.6,68.7) scale(1.7175) rotate(0)"><path d="M13 0H20V7L7 20H0V13L13 0Z" fill="#f0acb1"/></g><rect x="583.95" y="68.7" width="34.35" height="34.35" fill="#908290"/><g transform="translate(583.95,68.7) scale(1.7175) rotate(0)"><path d="M10 0L20 10L10 20L0 10L10 0Z" fill="#f7f3d5"/></g><rect x="549.6" y="103.05" width="34.35" height="34.35" fill="#fdd4d4"/><rect x="549.6" y="103.05" width="34.35" height="34.35" fill="#efa8ad"/><rect x="583.95" y="103.05" width="34.35" height="34.35" fill="#fbf9eb"/><path d="M 583.95 137.4 A 34.35 34.35 0 0 1  618.3000000000001 103.05 L 583.95 137.4 A 34.35 34.35 0 0 0 618.3000000000001 103.05" fill="#fffffe"/><rect x="618.3000000000001" y="68.7" width="68.7" height="68.7" fill="#ffffff"/><rect x="618.3" y="68.7" width="34.35" height="34.35" fill="#fffdfe"/><path d="M 618.3 103.05000000000001 A 34.35 34.35 0 0 1  652.65 68.7 L 618.3 103.05000000000001 A 34.35 34.35 0 0 0 652.65 68.7" fill="#f8f5dd"/><rect x="652.65" y="68.7" width="34.35" height="34.35" fill="#ffe5d1"/><rect x="652.65" y="68.7" width="34.35" height="34.35" fill="#fff3eb"/><rect x="618.3" y="103.05" width="34.35" height="34.35" fill="#faf7e3"/><polygon points="618.3,103.05 652.65,103.05 652.65,137.4" fill="#fff6f0"/><rect x="652.65" y="103.05" width="34.35" height="34.35" fill="#ffe1cc"/><rect x="652.65" y="103.05" width="34.35" height="34.35" fill="#705f70"/><rect x="687" y="68.7" width="68.7" height="68.7" fill="#847584"/><path d="M 687 137.4 A 68.7 68.7 0 0 0 755.7 68.7 L 687 68.7" fill="#faf7e5"/><rect x="755.7" y="68.7" width="68.7" height="68.7" fill="#fae4e5"/><path d="M 755.7 68.7 A 68.7 68.7 0 0 1  824.4000000000001 137.4 L 755.7 68.7 A 68.7 68.7 0 0 0 824.4000000000001 137.4" fill="#edeaed"/><rect x="824.4" y="68.7" width="68.7" height="68.7" fill="#fff9f4"/><path d="M 824.4 68.7 A 68.7 68.7 0 0 0 893.1 137.4 L 893.1 68.7" fill="#fdf2f3"/><rect x="893.1" y="68.7" width="68.7" height="68.7" fill="#ffffff"/><rect x="893.1" y="68.7" width="34.35" height="34.35" fill="#fff0e6"/><path d="M 893.1 103.05000000000001 A 34.35 34.35 0 0 1  927.45 68.7 L 927.45 103.05000000000001" fill="#f7f3d6"/><rect x="927.45" y="68.7" width="34.35" height="34.35" fill="#cbc4cb"/><rect x="927.45" y="68.7" width="34.35" height="34.35" fill="#f9f7e1"/><rect x="893.1" y="103.05" width="34.35" height="34.35" fill="#dedade"/><polygon points="893.1,103.05 927.45,103.05 893.1,137.4" fill="#f1b1b5"/><rect x="927.45" y="103.05" width="34.35" height="34.35" fill="#fbfbfb"/><path d="M 927.45 103.05 A 34.35 34.35 0 0 1  961.8000000000001 137.4 L 927.45 103.05 A 34.35 34.35 0 0 0 961.8000000000001 137.4" fill="#ffdcc2"/><rect x="961.8" y="68.7" width="68.7" height="68.7" fill="#f7f3d7"/><path d="M 961.8 68.7 A 68.7 68.7 0 0 0 1030.5 137.4 L 1030.5 68.7" fill="#fde1e1"/><rect x="0" y="137.4" width="68.7" height="68.7" fill="#ffffff"/><rect x="0" y="137.4" width="34.35" height="34.35" fill="#faf7e2"/><polygon points="0,137.4 34.35,137.4 34.35,171.75" fill="#b2a9b2"/><rect x="34.35" y="137.4" width="34.35" height="34.35" fill="#ffdfc8"/><path d="M 34.35 137.4 A 34.35 34.35 0 0 1 68.7 171.75 L 34.35 171.75" fill="#ffefe3"/><rect x="0" y="171.75" width="34.35" height="34.35" fill="#fff7f1"/><polygon points="0,171.75 34.35,206.1 0,206.1" fill="#beb6be"/><rect x="34.35" y="171.75" width="34.35" height="34.35" fill="#faf8e7"/><path d="M 34.35 206.1 A 34.35 34.35 0 0 1  68.7 171.75 L 34.35 206.1 A 34.35 34.35 0 0 0 68.7 171.75" fill="#fefdf8"/><rect x="68.7" y="137.4" width="68.7" height="68.7" fill="#ffffff"/><rect x="68.7" y="137.4" width="34.35" height="34.35" fill="#776677"/><g transform="translate(68.7,137.4) scale(1.7175) rotate(0)"><path d="M13 0H20V7L7 20H0V13L13 0Z" fill="#efa7ac"/></g><rect x="103.05" y="137.4" width="34.35" height="34.35" fill="#938693"/><g transform="translate(103.05,137.4) scale(1.7175) rotate(0)"><path d="M10 0L20 10L10 20L0 10L10 0Z" fill="#f9f6e0"/></g><rect x="68.7" y="171.75" width="34.35" height="34.35" fill="#efa4a9"/><g transform="translate(68.7,171.75) scale(1.7175) rotate(0)"><path d="M10 0L20 10L10 20L0 10L10 0Z" fill="#fae5e6"/></g><rect x="103.05" y="171.75" width="34.35" height="34.35" fill="#7b6b7b"/><polygon points="137.4,171.75 137.4,206.1 103.05,206.1" fill="#ed9ea3"/><rect x="137.4" y="137.4" width="68.7" height="68.7" fill="#ffffff"/><rect x="137.4" y="137.4" width="34.35" height="34.35" fill="#ffeadb"/><rect x="137.4" y="137.4" width="34.35" height="34.35" fill="#ffeadb"/><rect x="171.75" y="137.4" width="34.35" height="34.35" fill="#bbb3bb"/><path d="M 171.75 137.4 A 34.35 34.35 0 0 1 206.1 171.75 L 171.75 171.75" fill="#f8f4da"/><rect x="137.4" y="171.75" width="34.35" height="34.35" fill="#ea8990"/><path d="M 137.4 206.1 A 34.35 34.35 0 0 1  171.75 171.75 L 137.4 206.1 A 34.35 34.35 0 0 0 171.75 171.75" fill="#c4bdc4"/><rect x="171.75" y="171.75" width="34.35" height="34.35" fill="#ffeadc"/><g transform="translate(171.75,171.75) scale(1.7175) rotate(0)"><path d="M13 0H20V7L7 20H0V13L13 0Z" fill="#fdd6d6"/></g><rect x="206.1" y="137.4" width="68.7" height="68.7" fill="#f8f4da"/><path d="M 206.1 206.10000000000002 A 68.7 68.7 0 0 1  274.8 137.4 L 206.1 206.10000000000002 A 68.7 68.7 0 0 0 274.8 137.4" fill="#ee9ea4"/><rect x="274.8" y="137.4" width="68.7" height="68.7" fill="#ffffff"/><rect x="274.8" y="137.4" width="34.35" height="34.35" fill="#f9f6de"/><g transform="translate(274.8,137.4) scale(1.7175) rotate(0)"><path d="M10 0L20 10L10 20L0 10L10 0Z" fill="#fbf8e8"/></g><rect x="309.15" y="137.4" width="34.35" height="34.35" fill="#fdfcf6"/><g transform="translate(309.15,137.4) scale(1.7175) rotate(0)"><path d="M13 0H20V7L7 20H0V13L13 0Z" fill="#f2b8bc"/></g><rect x="274.8" y="171.75" width="34.35" height="34.35" fill="#f0acb1"/><rect x="274.8" y="171.75" width="34.35" height="34.35" fill="#f1b2b7"/><rect x="309.15" y="171.75" width="34.35" height="34.35" fill="#ffe3cf"/><rect x="309.15" y="171.75" width="34.35" height="34.35" fill="#a89ea8"/><rect x="343.5" y="137.4" width="68.7" height="68.7" fill="#ffffff"/><rect x="343.5" y="137.4" width="34.35" height="34.35" fill="#fdf5f5"/><g transform="translate(343.5,137.4) scale(1.7175) rotate(0)"><path d="M10 0L20 10L10 20L0 10L10 0Z" fill="#fffbf8"/></g><rect x="377.85" y="137.4" width="34.35" height="34.35" fill="#fee9e9"/><path d="M 377.85 171.75 A 34.35 34.35 0 0 1  412.20000000000005 137.4 L 377.85 171.75 A 34.35 34.35 0 0 0 412.20000000000005 137.4" fill="#7d6d7d"/><rect x="343.5" y="171.75" width="34.35" height="34.35" fill="#bfb7bf"/><path d="M 343.5 206.1 A 34.35 34.35 0 0 1  377.85 171.75 L 377.85 206.1" fill="#efa6ab"/><rect x="377.85" y="171.75" width="34.35" height="34.35" fill="#fddddd"/><path d="M 377.85 171.75 A 34.35 34.35 0 0 1  412.20000000000005 206.1 L 377.85 171.75 A 34.35 34.35 0 0 0 412.20000000000005 206.1" fill="#fefefb"/><rect x="412.20000000000005" y="137.4" width="68.7" height="68.7" fill="#ffffff"/><rect x="412.2" y="137.4" width="34.35" height="34.35" fill="#ffe7d6"/><rect x="412.2" y="137.4" width="34.35" height="34.35" fill="#faf7e3"/><rect x="446.55" y="137.4" width="34.35" height="34.35" fill="#fbb0b0"/><g transform="translate(446.55,137.4) scale(1.7175) rotate(0)"><path d="M10 0L20 10L10 20L0 10L10 0Z" fill="#ea8b92"/></g><rect x="412.2" y="171.75" width="34.35" height="34.35" fill="#8a7c8a"/><path d="M 412.2 171.75 A 34.35 34.35 0 0 0 446.55 206.1 L 446.55 171.75" fill="#f4c5c8"/><rect x="446.55" y="171.75" width="34.35" height="34.35" fill="#645164"/><g transform="translate(446.55,171.75) scale(1.7175) rotate(0)"><path d="M13 0H20V7L7 20H0V13L13 0Z" fill="#fffefe"/></g><rect x="480.90000000000003" y="137.4" width="68.7" height="68.7" fill="#ffffff"/><rect x="480.9" y="137.4" width="34.35" height="34.35" fill="#f7f4d8"/><path d="M 480.9 137.4 A 34.35 34.35 0 0 1  515.25 171.75 L 480.9 137.4 A 34.35 34.35 0 0 0 515.25 171.75" fill="#f6cdd0"/><rect x="515.25" y="137.4" width="34.35" height="34.35" fill="#f9f6df"/><rect x="515.25" y="137.4" width="34.35" height="34.35" fill="#776677"/><rect x="480.9" y="171.75" width="34.35" height="34.35" fill="#d9d4d9"/><g transform="translate(480.9,171.75) scale(1.7175) rotate(0)"><path d="M13 0H20V7L7 20H0V13L13 0Z" fill="#d9d4d9"/></g><rect x="515.25" y="171.75" width="34.35" height="34.35" fill="#fdd1d1"/><g transform="translate(515.25,171.75) scale(1.7175) rotate(0)"><path d="M10 0L20 10L10 20L0 10L10 0Z" fill="#9f939f"/></g><rect x="549.6" y="137.4" width="68.7" height="68.7" fill="#fcc7c7"/><polygon points="549.6,137.4 618.3000000000001,137.4 549.6,206.10000000000002" fill="#f6cdcf"/><rect x="618.3" y="137.4" width="68.7" height="68.7" fill="#dad5da"/><g transform="translate(618.3,137.4) scale(3.435) rotate(0)"><path d="M10 0L20 10L10 20L0 10L10 0Z" fill="#bfb7bf"/></g><rect x="687" y="137.4" width="68.7" height="68.7" fill="#fcc7c7"/><g transform="translate(687,137.4) scale(3.435) rotate(0)"><path d="M10 0L20 10L10 20L0 10L10 0Z" fill="#877887"/></g><rect x="755.7" y="137.4" width="68.7" height="68.7" fill="#fff5ee"/><path d="M 755.7 137.4 A 68.7 68.7 0 0 0 824.4000000000001 206.10000000000002 L 824.4000000000001 137.4" fill="#968a96"/><rect x="824.4" y="137.4" width="68.7" height="68.7" fill="#f0acb1"/><path d="M 824.4 137.4 A 68.7 68.7 0 0 1  893.1 206.10000000000002 L 824.4 137.4 A 68.7 68.7 0 0 0 893.1 206.10000000000002" fill="#d6d1d6"/><rect x="893.1" y="137.4" width="68.7" height="68.7" fill="#fff4eb"/><g transform="translate(893.1,137.4) scale(3.435) rotate(0)"><path d="M13 0H20V7L7 20H0V13L13 0Z" fill="#ffdfc7"/></g><rect x="961.8" y="137.4" width="68.7" height="68.7" fill="#fcfaed"/><g transform="translate(961.8,137.4) scale(3.435) rotate(0)"><path d="M10 0L20 10L10 20L0 10L10 0Z" fill="#fff0e6"/></g><rect x="0" y="206.1" width="68.7" height="68.7" fill="#fdd4d4"/><path d="M 0 206.1 A 68.7 68.7 0 0 1  68.7 274.8 L 0 206.1 A 68.7 68.7 0 0 0 68.7 274.8" fill="#f7f3d6"/><rect x="68.7" y="206.1" width="68.7" height="68.7" fill="#b7aeb7"/><path d="M 68.7 206.1 A 68.7 68.7 0 0 0 137.4 274.8 L 137.4 206.1" fill="#fff3eb"/><rect x="137.4" y="206.10000000000002" width="68.7" height="68.7" fill="#ffffff"/><rect x="137.4" y="206.1" width="34.35" height="34.35" fill="#fffafa"/><path d="M 137.4 206.1 A 34.35 34.35 0 0 1  171.75 240.45 L 137.4 206.1 A 34.35 34.35 0 0 0 171.75 240.45" fill="#cbc5cb"/><rect x="171.75" y="206.1" width="34.35" height="34.35" fill="#dad6da"/><g transform="translate(171.75,206.1) scale(1.7175) rotate(0)"><path d="M13 0H20V7L7 20H0V13L13 0Z" fill="#fdfcf6"/></g><rect x="137.4" y="240.45" width="34.35" height="34.35" fill="#f8f5da"/><polygon points="137.4,240.45 171.75,274.8 137.4,274.8" fill="#ffe1cb"/><rect x="171.75" y="240.45" width="34.35" height="34.35" fill="#817181"/><path d="M 171.75 274.8 A 34.35 34.35 0 0 0 206.1 240.45 L 171.75 240.45" fill="#fae2e4"/><rect x="206.10000000000002" y="206.10000000000002" width="68.7" height="68.7" fill="#ffffff"/><rect x="206.1" y="206.1" width="34.35" height="34.35" fill="#fcfaed"/><path d="M 206.1 206.1 A 34.35 34.35 0 0 1  240.45 240.45 L 206.1 206.1 A 34.35 34.35 0 0 0 240.45 240.45" fill="#fcc2c2"/><rect x="240.45" y="206.1" width="34.35" height="34.35" fill="#fcc1c1"/><path d="M 240.45 206.1 A 34.35 34.35 0 0 1 274.8 240.45 L 240.45 240.45" fill="#f8d7d9"/><rect x="206.1" y="240.45" width="34.35" height="34.35" fill="#fefefa"/><path d="M 206.1 274.8 A 34.35 34.35 0 0 1  240.45 240.45 L 206.1 274.8 A 34.35 34.35 0 0 0 240.45 240.45" fill="#fa9d9d"/><rect x="240.45" y="240.45" width="34.35" height="34.35" fill="#fdd6d6"/><path d="M 240.45 274.8 A 34.35 34.35 0 0 1  274.8 240.45 L 240.45 274.8 A 34.35 34.35 0 0 0 274.8 240.45" fill="#f4c1c4"/><rect x="274.8" y="206.10000000000002" width="68.7" height="68.7" fill="#ffffff"/><rect x="274.8" y="206.1" width="34.35" height="34.35" fill="#fbb8b8"/><polygon points="274.8,206.1 309.15000000000003,206.1 309.15000000000003,240.45" fill="#e9e6e9"/><rect x="309.15" y="206.1" width="34.35" height="34.35" fill="#f9f5dd"/><rect x="309.15" y="206.1" width="34.35" height="34.35" fill="#fcedee"/><rect x="274.8" y="240.45" width="34.35" height="34.35" fill="#fdfcf3"/><rect x="274.8" y="240.45" width="34.35" height="34.35" fill="#ea8d93"/><rect x="309.15" y="240.45" width="34.35" height="34.35" fill="#fffffe"/><path d="M 309.15 274.8 A 34.35 34.35 0 0 1  343.5 240.45 L 309.15 274.8 A 34.35 34.35 0 0 0 343.5 240.45" fill="#fba9a9"/><rect x="343.5" y="206.1" width="68.7" height="68.7" fill="#fba7a7"/><path d="M 343.5 206.1 A 68.7 68.7 0 0 0 412.2 274.8 L 412.2 206.1" fill="#ed9ea4"/><rect x="412.2" y="206.1" width="68.7" height="68.7" fill="#f4c5c8"/><path d="M 412.2 274.8 A 68.7 68.7 0 0 1  480.9 206.1 L 412.2 274.8 A 68.7 68.7 0 0 0 480.9 206.1" fill="#ffdcc2"/><rect x="480.9" y="206.1" width="68.7" height="68.7" fill="#fba5a5"/><rect x="480.9" y="206.1" width="68.7" height="68.7" fill="#cfc9cf"/><rect x="549.6" y="206.1" width="68.7" height="68.7" fill="#fffdfd"/><g transform="translate(549.6,206.1) scale(3.435) rotate(0)"><path d="M13 0H20V7L7 20H0V13L13 0Z" fill="#fddede"/></g><rect x="618.3000000000001" y="206.10000000000002" width="68.7" height="68.7" fill="#ffffff"/><rect x="618.3" y="206.1" width="34.35" height="34.35" fill="#fdfcf5"/><path d="M 618.3 206.1 A 34.35 34.35 0 0 1  652.65 240.45 L 618.3 206.1 A 34.35 34.35 0 0 0 652.65 240.45" fill="#f7f4d7"/><rect x="652.65" y="206.1" width="34.35" height="34.35" fill="#d8d4d8"/><g transform="translate(652.65,206.1) scale(1.7175) rotate(0)"><path d="M13 0H20V7L7 20H0V13L13 0Z" fill="#fcbebe"/></g><rect x="618.3" y="240.45" width="34.35" height="34.35" fill="#6f5e6f"/><path d="M 618.3 240.45 A 34.35 34.35 0 0 1  652.65 274.8 L 618.3 240.45 A 34.35 34.35 0 0 0 652.65 274.8" fill="#ffecde"/><rect x="652.65" y="240.45" width="34.35" height="34.35" fill="#fbe7e8"/><polygon points="687,240.45 687,274.8 652.65,274.8" fill="#fcbcbc"/><rect x="687" y="206.1" width="68.7" height="68.7" fill="#fae3e4"/><path d="M 687 206.1 A 68.7 68.7 0 0 1  755.7 274.8 L 687 206.1 A 68.7 68.7 0 0 0 755.7 274.8" fill="#fbfaec"/><rect x="755.7" y="206.10000000000002" width="68.7" height="68.7" fill="#ffffff"/><rect x="755.7" y="206.1" width="34.35" height="34.35" fill="#645164"/><path d="M 755.7 240.45 A 34.35 34.35 0 0 1  790.0500000000001 206.1 L 755.7 240.45 A 34.35 34.35 0 0 0 790.0500000000001 206.1" fill="#b4aab4"/><rect x="790.05" y="206.1" width="34.35" height="34.35" fill="#fba8a8"/><path d="M 790.05 206.1 A 34.35 34.35 0 0 0 824.4 240.45 L 824.4 206.1" fill="#ffddc4"/><rect x="755.7" y="240.45" width="34.35" height="34.35" fill="#f1b3b7"/><path d="M 755.7 274.8 A 34.35 34.35 0 0 1  790.0500000000001 240.45 L 755.7 274.8 A 34.35 34.35 0 0 0 790.0500000000001 240.45" fill="#fff5ed"/><rect x="790.05" y="240.45" width="34.35" height="34.35" fill="#ffeadb"/><path d="M 790.05 240.45 A 34.35 34.35 0 0 1  824.4 274.8 L 790.05 240.45 A 34.35 34.35 0 0 0 824.4 274.8" fill="#f0adb2"/><rect x="824.4" y="206.1" width="68.7" height="68.7" fill="#ec969c"/><rect x="824.4" y="206.1" width="68.7" height="68.7" fill="#f3bcc0"/><rect x="893.1" y="206.10000000000002" width="68.7" height="68.7" fill="#ffffff"/><rect x="893.1" y="206.1" width="34.35" height="34.35" fill="#f9f6df"/><g transform="translate(893.1,206.1) scale(1.7175) rotate(0)"><path d="M13 0H20V7L7 20H0V13L13 0Z" fill="#fff8f3"/></g><rect x="927.45" y="206.1" width="34.35" height="34.35" fill="#fffdfd"/><path d="M 927.45 206.1 A 34.35 34.35 0 0 1  961.8000000000001 240.45 L 927.45 206.1 A 34.35 34.35 0 0 0 961.8000000000001 240.45" fill="#ffecde"/><rect x="893.1" y="240.45" width="34.35" height="34.35" fill="#f0abb0"/><path d="M 893.1 274.8 A 34.35 34.35 0 0 1  927.45 240.45 L 893.1 274.8 A 34.35 34.35 0 0 0 927.45 240.45" fill="#a499a4"/><rect x="927.45" y="240.45" width="34.35" height="34.35" fill="#ffe7d5"/><g transform="translate(927.45,240.45) scale(1.7175) rotate(0)"><path d="M13 0H20V7L7 20H0V13L13 0Z" fill="#f8d7d9"/></g><rect x="961.8000000000001" y="206.10000000000002" width="68.7" height="68.7" fill="#ffffff"/><rect x="961.8" y="206.1" width="34.35" height="34.35" fill="#f0eff0"/><path d="M 961.8 240.45 A 34.35 34.35 0 0 1  996.15 206.1 L 961.8 240.45 A 34.35 34.35 0 0 0 996.15 206.1" fill="#fbabab"/><rect x="996.15" y="206.1" width="34.35" height="34.35" fill="#fefefc"/><rect x="996.15" y="206.1" width="34.35" height="34.35" fill="#fbb8b8"/><rect x="961.8" y="240.45" width="34.35" height="34.35" fill="#b5abb5"/><g transform="translate(961.8,240.45) scale(1.7175) rotate(0)"><path d="M10 0L20 10L10 20L0 10L10 0Z" fill="#fffdfd"/></g><rect x="996.15" y="240.45" width="34.35" height="34.35" fill="#fefdfa"/><rect x="996.15" y="240.45" width="34.35" height="34.35" fill="#8c7e8c"/><rect x="0" y="274.8" width="68.7" height="68.7" fill="#fee2e2"/><g transform="translate(0,274.8) scale(3.435) rotate(0)"><path d="M13 0H20V7L7 20H0V13L13 0Z" fill="#786778"/></g><rect x="68.7" y="274.8" width="68.7" height="68.7" fill="#ffffff"/><rect x="68.7" y="274.8" width="34.35" height="34.35" fill="#fef8f9"/><path d="M 68.7 274.8 A 34.35 34.35 0 0 0 103.05000000000001 309.15000000000003 L 103.05000000000001 274.8" fill="#fffcfa"/><rect x="103.05" y="274.8" width="34.35" height="34.35" fill="#f1b1b5"/><polygon points="137.4,274.8 137.4,309.15000000000003 103.05,309.15000000000003" fill="#f8f4d9"/><rect x="68.7" y="309.15" width="34.35" height="34.35" fill="#fcc4c4"/><rect x="68.7" y="309.15" width="34.35" height="34.35" fill="#fa9f9f"/><rect x="103.05" y="309.15" width="34.35" height="34.35" fill="#ffdbc0"/><path d="M 103.05 309.15 A 34.35 34.35 0 0 1  137.4 343.5 L 103.05 309.15 A 34.35 34.35 0 0 0 137.4 343.5" fill="#e88288"/><rect x="137.4" y="274.8" width="68.7" height="68.7" fill="#f9f6e1"/><g transform="translate(137.4,274.8) scale(3.435) rotate(0)"><path d="M13 0H20V7L7 20H0V13L13 0Z" fill="#f1b4b9"/></g><rect x="206.10000000000002" y="274.8" width="68.7" height="68.7" fill="#ffffff"/><rect x="206.1" y="274.8" width="34.35" height="34.35" fill="#ffdcc2"/><polygon points="206.1,274.8 240.45,309.15000000000003 206.1,309.15000000000003" fill="#fbe9ea"/><rect x="240.45" y="274.8" width="34.35" height="34.35" fill="#fcbbbb"/><polygon points="240.45,274.8 274.8,274.8 240.45,309.15000000000003" fill="#ffe3cf"/><rect x="206.1" y="309.15" width="34.35" height="34.35" fill="#fcbfbf"/><rect x="206.1" y="309.15" width="34.35" height="34.35" fill="#ffe0ca"/><rect x="240.45" y="309.15" width="34.35" height="34.35" fill="#bcb4bc"/><polygon points="240.45,309.15 274.8,309.15 274.8,343.5" fill="#f9dddf"/><rect x="274.8" y="274.8" width="68.7" height="68.7" fill="#ffffff"/><rect x="274.8" y="274.8" width="34.35" height="34.35" fill="#c6bfc6"/><path d="M 274.8 274.8 A 34.35 34.35 0 0 1  309.15000000000003 309.15000000000003 L 274.8 274.8 A 34.35 34.35 0 0 0 309.15000000000003 309.15000000000003" fill="#f1b3b7"/><rect x="309.15" y="274.8" width="34.35" height="34.35" fill="#fff9f9"/><rect x="309.15" y="274.8" width="34.35" height="34.35" fill="#ffede1"/><rect x="274.8" y="309.15" width="34.35" height="34.35" fill="#fbadad"/><polygon points="274.8,309.15 309.15000000000003,343.5 274.8,343.5" fill="#fee5e5"/><rect x="309.15" y="309.15" width="34.35" height="34.35" fill="#d1cbd1"/><path d="M 309.15 343.5 A 34.35 34.35 0 0 1  343.5 309.15 L 343.5 343.5" fill="#ffe5d2"/><rect x="343.5" y="274.8" width="68.7" height="68.7" fill="#fef0f0"/><rect x="343.5" y="274.8" width="68.7" height="68.7" fill="#fcfaef"/><rect x="412.2" y="274.8" width="68.7" height="68.7" fill="#fffffe"/><polygon points="412.2,274.8 480.9,274.8 412.2,343.5" fill="#f8d6d8"/><rect x="480.90000000000003" y="274.8" width="68.7" height="68.7" fill="#ffffff"/><rect x="480.9" y="274.8" width="34.35" height="34.35" fill="#f1b0b4"/><polygon points="480.9,274.8 515.25,274.8 515.25,309.15000000000003" fill="#fcc8c8"/><rect x="515.25" y="274.8" width="34.35" height="34.35" fill="#fef4f4"/><g transform="translate(515.25,274.8) scale(1.7175) rotate(0)"><path d="M13 0H20V7L7 20H0V13L13 0Z" fill="#ebe8eb"/></g><rect x="480.9" y="309.15" width="34.35" height="34.35" fill="#ffdac0"/><g transform="translate(480.9,309.15) scale(1.7175) rotate(0)"><path d="M13 0H20V7L7 20H0V13L13 0Z" fill="#f8f4d8"/></g><rect x="515.25" y="309.15" width="34.35" height="34.35" fill="#b4abb4"/><rect x="515.25" y="309.15" width="34.35" height="34.35" fill="#fcbbbb"/><rect x="549.6" y="274.8" width="68.7" height="68.7" fill="#ffffff"/><rect x="549.6" y="274.8" width="34.35" height="34.35" fill="#eb9096"/><g transform="translate(549.6,274.8) scale(1.7175) rotate(0)"><path d="M13 0H20V7L7 20H0V13L13 0Z" fill="#fbe7e9"/></g><rect x="583.95" y="274.8" width="34.35" height="34.35" fill="#776677"/><g transform="translate(583.95,274.8) scale(1.7175) rotate(0)"><path d="M13 0H20V7L7 20H0V13L13 0Z" fill="#f9f5de"/></g><rect x="549.6" y="309.15" width="34.35" height="34.35" fill="#fbb1b1"/><g transform="translate(549.6,309.15) scale(1.7175) rotate(0)"><path d="M13 0H20V7L7 20H0V13L13 0Z" fill="#c4bdc4"/></g><rect x="583.95" y="309.15" width="34.35" height="34.35" fill="#fffbfb"/><path d="M 583.95 309.15 A 34.35 34.35 0 0 1 618.3000000000001 343.5 L 583.95 343.5" fill="#fee4e4"/><rect x="618.3" y="274.8" width="68.7" height="68.7" fill="#f0adb2"/><path d="M 618.3 343.5 A 68.7 68.7 0 0 1  687 274.8 L 618.3 343.5 A 68.7 68.7 0 0 0 687 274.8" fill="#a89da8"/><rect x="687" y="274.8" width="68.7" height="68.7" fill="#fcbcbc"/><g transform="translate(687,274.8) scale(3.435) rotate(0)"><path d="M13 0H20V7L7 20H0V13L13 0Z" fill="#fff4eb"/></g><rect x="755.7" y="274.8" width="68.7" height="68.7" fill="#f2b5b9"/><path d="M 755.7 274.8 A 68.7 68.7 0 0 1  824.4000000000001 343.5 L 755.7 274.8 A 68.7 68.7 0 0 0 824.4000000000001 343.5" fill="#c3bbc3"/><rect x="824.4000000000001" y="274.8" width="68.7" height="68.7" fill="#ffffff"/><rect x="824.4" y="274.8" width="34.35" height="34.35" fill="#ffe2cd"/><path d="M 824.4 274.8 A 34.35 34.35 0 0 0 858.75 309.15000000000003 L 858.75 274.8" fill="#fff6ef"/><rect x="858.75" y="274.8" width="34.35" height="34.35" fill="#f7f4d7"/><path d="M 858.75 309.15000000000003 A 34.35 34.35 0 0 1  893.1 274.8 L 858.75 309.15000000000003 A 34.35 34.35 0 0 0 893.1 274.8" fill="#fddada"/><rect x="824.4" y="309.15" width="34.35" height="34.35" fill="#ea8990"/><path d="M 824.4 309.15 A 34.35 34.35 0 0 1 858.75 343.5 L 824.4 343.5" fill="#f8f4d9"/><rect x="858.75" y="309.15" width="34.35" height="34.35" fill="#feefef"/><path d="M 858.75 343.5 A 34.35 34.35 0 0 1  893.1 309.15 L 893.1 343.5" fill="#726172"/><rect x="893.1" y="274.8" width="68.7" height="68.7" fill="#ffffff"/><rect x="893.1" y="274.8" width="34.35" height="34.35" fill="#fff7f1"/><rect x="893.1" y="274.8" width="34.35" height="34.35" fill="#fbadad"/><rect x="927.45" y="274.8" width="34.35" height="34.35" fill="#fefefb"/><path d="M 927.45 274.8 A 34.35 34.35 0 0 1 961.8000000000001 309.15000000000003 L 927.45 309.15000000000003" fill="#6d5b6d"/><rect x="893.1" y="309.15" width="34.35" height="34.35" fill="#ffdabf"/><rect x="893.1" y="309.15" width="34.35" height="34.35" fill="#faa3a3"/><rect x="927.45" y="309.15" width="34.35" height="34.35" fill="#b2a8b2"/><rect x="927.45" y="309.15" width="34.35" height="34.35" fill="#f4c4c7"/><rect x="961.8" y="274.8" width="68.7" height="68.7" fill="#fefefc"/><path d="M 961.8 274.8 A 68.7 68.7 0 0 1  1030.5 343.5 L 961.8 274.8 A 68.7 68.7 0 0 0 1030.5 343.5" fill="#ffede0"/><rect x="0" y="343.5" width="68.7" height="68.7" fill="#ffffff"/><rect x="0" y="343.5" width="34.35" height="34.35" fill="#968a96"/><path d="M 0 377.85 A 34.35 34.35 0 0 0 34.35 343.5 L 0 343.5" fill="#f4c1c4"/><rect x="34.35" y="343.5" width="34.35" height="34.35" fill="#feecec"/><g transform="translate(34.35,343.5) scale(1.7175) rotate(0)"><path d="M10 0L20 10L10 20L0 10L10 0Z" fill="#ffe3ce"/></g><rect x="0" y="377.85" width="34.35" height="34.35" fill="#fff9f5"/><g transform="translate(0,377.85) scale(1.7175) rotate(0)"><path d="M13 0H20V7L7 20H0V13L13 0Z" fill="#faf8e6"/></g><rect x="34.35" y="377.85" width="34.35" height="34.35" fill="#ffe3cf"/><path d="M 34.35 377.85 A 34.35 34.35 0 0 1  68.7 412.20000000000005 L 34.35 377.85 A 34.35 34.35 0 0 0 68.7 412.20000000000005" fill="#ea8b91"/><rect x="68.7" y="343.5" width="68.7" height="68.7" fill="#7c6b7c"/><g transform="translate(68.7,343.5) scale(3.435) rotate(0)"><path d="M10 0L20 10L10 20L0 10L10 0Z" fill="#fcbebe"/></g><rect x="137.4" y="343.5" width="68.7" height="68.7" fill="#fff7f2"/><polygon points="206.10000000000002,343.5 206.10000000000002,412.2 137.4,412.2" fill="#f9f8f9"/><rect x="206.1" y="343.5" width="68.7" height="68.7" fill="#ffefe3"/><g transform="translate(206.1,343.5) scale(3.435) rotate(0)"><path d="M10 0L20 10L10 20L0 10L10 0Z" fill="#ed9aa0"/></g><rect x="274.8" y="343.5" width="68.7" height="68.7" fill="#c6bfc6"/><path d="M 274.8 343.5 A 68.7 68.7 0 0 0 343.5 412.2 L 343.5 343.5" fill="#bab2ba"/><rect x="343.5" y="343.5" width="68.7" height="68.7" fill="#fefdf9"/><rect x="343.5" y="343.5" width="68.7" height="68.7" fill="#fde1e1"/><rect x="412.20000000000005" y="343.5" width="68.7" height="68.7" fill="#ffffff"/><rect x="412.2" y="343.5" width="34.35" height="34.35" fill="#ffebdd"/><polygon points="412.2,343.5 446.55,343.5 446.55,377.85" fill="#fdd9d9"/><rect x="446.55" y="343.5" width="34.35" height="34.35" fill="#ffeee1"/><path d="M 446.55 377.85 A 34.35 34.35 0 0 1  480.90000000000003 343.5 L 446.55 377.85 A 34.35 34.35 0 0 0 480.90000000000003 343.5" fill="#fefafb"/><rect x="412.2" y="377.85" width="34.35" height="34.35" fill="#fff6ef"/><path d="M 412.2 412.20000000000005 A 34.35 34.35 0 0 1  446.55 377.85 L 446.55 412.20000000000005" fill="#6c5a6c"/><rect x="446.55" y="377.85" width="34.35" height="34.35" fill="#f7d3d6"/><polygon points="446.55,377.85 480.90000000000003,412.20000000000005 446.55,412.20000000000005" fill="#f8f5dc"/><rect x="480.90000000000003" y="343.5" width="68.7" height="68.7" fill="#ffffff"/><rect x="480.9" y="343.5" width="34.35" height="34.35" fill="#ea8a90"/><g transform="translate(480.9,343.5) scale(1.7175) rotate(0)"><path d="M10 0L20 10L10 20L0 10L10 0Z" fill="#ffe7d6"/></g><rect x="515.25" y="343.5" width="34.35" height="34.35" fill="#f0adb2"/><path d="M 515.25 343.5 A 34.35 34.35 0 0 0 549.6 377.85 L 549.6 343.5" fill="#ffdfc7"/><rect x="480.9" y="377.85" width="34.35" height="34.35" fill="#f0abb0"/><path d="M 480.9 377.85 A 34.35 34.35 0 0 1  515.25 412.20000000000005 L 480.9 377.85 A 34.35 34.35 0 0 0 515.25 412.20000000000005" fill="#fbabab"/><rect x="515.25" y="377.85" width="34.35" height="34.35" fill="#fae5e6"/><g transform="translate(515.25,377.85) scale(1.7175) rotate(0)"><path d="M13 0H20V7L7 20H0V13L13 0Z" fill="#857685"/></g><rect x="549.6" y="343.5" width="68.7" height="68.7" fill="#ffffff"/><rect x="549.6" y="343.5" width="34.35" height="34.35" fill="#fcc5c5"/><path d="M 549.6 343.5 A 34.35 34.35 0 0 1  583.95 377.85 L 549.6 343.5 A 34.35 34.35 0 0 0 583.95 377.85" fill="#ffeddf"/><rect x="583.95" y="343.5" width="34.35" height="34.35" fill="#fffdfb"/><g transform="translate(583.95,343.5) scale(1.7175) rotate(0)"><path d="M13 0H20V7L7 20H0V13L13 0Z" fill="#ffe3cf"/></g><rect x="549.6" y="377.85" width="34.35" height="34.35" fill="#ffebdd"/><rect x="549.6" y="377.85" width="34.35" height="34.35" fill="#a297a2"/><rect x="583.95" y="377.85" width="34.35" height="34.35" fill="#fff8f3"/><path d="M 583.95 412.20000000000005 A 34.35 34.35 0 0 1  618.3000000000001 377.85 L 618.3000000000001 412.20000000000005" fill="#ffdec6"/><rect x="618.3000000000001" y="343.5" width="68.7" height="68.7" fill="#ffffff"/><rect x="618.3" y="343.5" width="34.35" height="34.35" fill="#ffe3cf"/><g transform="translate(618.3,343.5) scale(1.7175) rotate(0)"><path d="M10 0L20 10L10 20L0 10L10 0Z" fill="#faf7e4"/></g><rect x="652.65" y="343.5" width="34.35" height="34.35" fill="#fcc3c3"/><g transform="translate(652.65,343.5) scale(1.7175) rotate(0)"><path d="M13 0H20V7L7 20H0V13L13 0Z" fill="#fdd3d3"/></g><rect x="618.3" y="377.85" width="34.35" height="34.35" fill="#8d7f8d"/><g transform="translate(618.3,377.85) scale(1.7175) rotate(0)"><path d="M13 0H20V7L7 20H0V13L13 0Z" fill="#edeaed"/></g><rect x="652.65" y="377.85" width="34.35" height="34.35" fill="#d7d3d7"/><rect x="652.65" y="377.85" width="34.35" height="34.35" fill="#fffefd"/><rect x="687" y="343.5" width="68.7" height="68.7" fill="#ffe6d4"/><path d="M 687 412.2 A 68.7 68.7 0 0 1  755.7 343.5 L 687 412.2 A 68.7 68.7 0 0 0 755.7 343.5" fill="#fefdf7"/><rect x="755.7" y="343.5" width="68.7" height="68.7" fill="#ffffff"/><rect x="755.7" y="343.5" width="34.35" height="34.35" fill="#ffe6d3"/><g transform="translate(755.7,343.5) scale(1.7175) rotate(0)"><path d="M13 0H20V7L7 20H0V13L13 0Z" fill="#ffe2cc"/></g><rect x="790.05" y="343.5" width="34.35" height="34.35" fill="#f8f5db"/><path d="M 790.05 377.85 A 34.35 34.35 0 0 1  824.4 343.5 L 790.05 377.85 A 34.35 34.35 0 0 0 824.4 343.5" fill="#fccbcb"/><rect x="755.7" y="377.85" width="34.35" height="34.35" fill="#fbf9ea"/><polygon points="755.7,377.85 790.0500000000001,377.85 790.0500000000001,412.20000000000005" fill="#e8e5e8"/><rect x="790.05" y="377.85" width="34.35" height="34.35" fill="#f8f4d8"/><path d="M 790.05 377.85 A 34.35 34.35 0 0 1  824.4 412.20000000000005 L 790.05 377.85 A 34.35 34.35 0 0 0 824.4 412.20000000000005" fill="#faf7e3"/><rect x="824.4" y="343.5" width="68.7" height="68.7" fill="#f8f4d9"/><polygon points="824.4,343.5 893.1,343.5 824.4,412.2" fill="#eea3a8"/><rect x="893.1" y="343.5" width="68.7" height="68.7" fill="#ffffff"/><rect x="893.1" y="343.5" width="34.35" height="34.35" fill="#fff5f5"/><rect x="893.1" y="343.5" width="34.35" height="34.35" fill="#fff6f0"/><rect x="927.45" y="343.5" width="34.35" height="34.35" fill="#7e6e7e"/><g transform="translate(927.45,343.5) scale(1.7175) rotate(0)"><path d="M10 0L20 10L10 20L0 10L10 0Z" fill="#f8dadc"/></g><rect x="893.1" y="377.85" width="34.35" height="34.35" fill="#fff0e6"/><path d="M 893.1 377.85 A 34.35 34.35 0 0 0 927.45 412.20000000000005 L 927.45 377.85" fill="#ea898f"/><rect x="927.45" y="377.85" width="34.35" height="34.35" fill="#f8f7f8"/><g transform="translate(927.45,377.85) scale(1.7175) rotate(0)"><path d="M13 0H20V7L7 20H0V13L13 0Z" fill="#e9838a"/></g><rect x="961.8" y="343.5" width="68.7" height="68.7" fill="#887988"/><path d="M 961.8 412.2 A 68.7 68.7 0 0 1  1030.5 343.5 L 961.8 412.2 A 68.7 68.7 0 0 0 1030.5 343.5" fill="#fdfbf2"/><rect x="0" y="412.20000000000005" width="68.7" height="68.7" fill="#ffffff"/><rect x="0" y="412.2" width="34.35" height="34.35" fill="#fbb4b4"/><rect x="0" y="412.2" width="34.35" height="34.35" fill="#fcb9b9"/><rect x="34.35" y="412.2" width="34.35" height="34.35" fill="#928492"/><path d="M 34.35 446.55 A 34.35 34.35 0 0 1  68.7 412.2 L 68.7 446.55" fill="#ffecde"/><rect x="0" y="446.55" width="34.35" height="34.35" fill="#fccaca"/><path d="M 0 446.55 A 34.35 34.35 0 0 0 34.35 480.90000000000003 L 34.35 446.55" fill="#f0abaf"/><rect x="34.35" y="446.55" width="34.35" height="34.35" fill="#f7d0d3"/><rect x="34.35" y="446.55" width="34.35" height="34.35" fill="#f8f8f8"/><rect x="68.7" y="412.2" width="68.7" height="68.7" fill="#fee2e2"/><path d="M 68.7 480.9 A 68.7 68.7 0 0 1  137.4 412.2 L 137.4 480.9" fill="#ffdabf"/><rect x="137.4" y="412.20000000000005" width="68.7" height="68.7" fill="#ffffff"/><rect x="137.4" y="412.2" width="34.35" height="34.35" fill="#fdcfcf"/><rect x="137.4" y="412.2" width="34.35" height="34.35" fill="#ffdfc8"/><rect x="171.75" y="412.2" width="34.35" height="34.35" fill="#fbe8e9"/><path d="M 171.75 412.2 A 34.35 34.35 0 0 1  206.1 446.55 L 171.75 412.2 A 34.35 34.35 0 0 0 206.1 446.55" fill="#ffdfc8"/><rect x="137.4" y="446.55" width="34.35" height="34.35" fill="#fa9e9e"/><polygon points="137.4,446.55 171.75,446.55 171.75,480.90000000000003" fill="#faf8e5"/><rect x="171.75" y="446.55" width="34.35" height="34.35" fill="#feecec"/><path d="M 171.75 480.90000000000003 A 34.35 34.35 0 0 1  206.1 446.55 L 171.75 480.90000000000003 A 34.35 34.35 0 0 0 206.1 446.55" fill="#fdcfcf"/><rect x="206.10000000000002" y="412.20000000000005" width="68.7" height="68.7" fill="#ffffff"/><rect x="206.1" y="412.2" width="34.35" height="34.35" fill="#f2f1f2"/><g transform="translate(206.1,412.2) scale(1.7175) rotate(0)"><path d="M10 0L20 10L10 20L0 10L10 0Z" fill="#fba6a6"/></g><rect x="240.45" y="412.2" width="34.35" height="34.35" fill="#fffffe"/><path d="M 240.45 412.2 A 34.35 34.35 0 0 1 274.8 446.55 L 240.45 446.55" fill="#fefefc"/><rect x="206.1" y="446.55" width="34.35" height="34.35" fill="#f5f3f5"/><g transform="translate(206.1,446.55) scale(1.7175) rotate(0)"><path d="M10 0L20 10L10 20L0 10L10 0Z" fill="#fffaf6"/></g><rect x="240.45" y="446.55" width="34.35" height="34.35" fill="#fffffe"/><path d="M 240.45 480.90000000000003 A 34.35 34.35 0 0 1  274.8 446.55 L 274.8 480.90000000000003" fill="#fae2e3"/><rect x="274.8" y="412.20000000000005" width="68.7" height="68.7" fill="#ffffff"/><rect x="274.8" y="412.2" width="34.35" height="34.35" fill="#f8f4d9"/><path d="M 274.8 412.2 A 34.35 34.35 0 0 1  309.15000000000003 446.55 L 274.8 412.2 A 34.35 34.35 0 0 0 309.15000000000003 446.55" fill="#ec969c"/><rect x="309.15" y="412.2" width="34.35" height="34.35" fill="#fefdf8"/><path d="M 309.15 412.2 A 34.35 34.35 0 0 1  343.5 446.55 L 309.15 412.2 A 34.35 34.35 0 0 0 343.5 446.55" fill="#8a7c8a"/><rect x="274.8" y="446.55" width="34.35" height="34.35" fill="#e1dee1"/><g transform="translate(274.8,446.55) scale(1.7175) rotate(0)"><path d="M10 0L20 10L10 20L0 10L10 0Z" fill="#f7f3d6"/></g><rect x="309.15" y="446.55" width="34.35" height="34.35" fill="#fefbfb"/><polygon points="309.15,446.55 343.5,446.55 343.5,480.90000000000003" fill="#f9f7e2"/><rect x="343.5" y="412.2" width="68.7" height="68.7" fill="#fcfbf2"/><polygon points="343.5,412.2 412.2,412.2 343.5,480.9" fill="#e88188"/><rect x="412.2" y="412.2" width="68.7" height="68.7" fill="#fcc3c3"/><g transform="translate(412.2,412.2) scale(3.435) rotate(0)"><path d="M13 0H20V7L7 20H0V13L13 0Z" fill="#fffbf8"/></g><rect x="480.9" y="412.2" width="68.7" height="68.7" fill="#fde0e0"/><path d="M 480.9 480.9 A 68.7 68.7 0 0 1  549.6 412.2 L 480.9 480.9 A 68.7 68.7 0 0 0 549.6 412.2" fill="#fefdf7"/><rect x="549.6" y="412.2" width="68.7" height="68.7" fill="#fffefd"/><rect x="549.6" y="412.2" width="68.7" height="68.7" fill="#eb9298"/><rect x="618.3000000000001" y="412.20000000000005" width="68.7" height="68.7" fill="#ffffff"/><rect x="618.3" y="412.2" width="34.35" height="34.35" fill="#fffcfc"/><path d="M 618.3 446.55 A 34.35 34.35 0 0 1  652.65 412.2 L 618.3 446.55 A 34.35 34.35 0 0 0 652.65 412.2" fill="#fdd3d3"/><rect x="652.65" y="412.2" width="34.35" height="34.35" fill="#fff8f3"/><g transform="translate(652.65,412.2) scale(1.7175) rotate(0)"><path d="M13 0H20V7L7 20H0V13L13 0Z" fill="#fa9e9e"/></g><rect x="618.3" y="446.55" width="34.35" height="34.35" fill="#ed9ca2"/><path d="M 618.3 446.55 A 34.35 34.35 0 0 1  652.65 480.90000000000003 L 618.3 446.55 A 34.35 34.35 0 0 0 652.65 480.90000000000003" fill="#b7aeb7"/><rect x="652.65" y="446.55" width="34.35" height="34.35" fill="#cec8ce"/><path d="M 652.65 446.55 A 34.35 34.35 0 0 1  687 480.90000000000003 L 652.65 446.55 A 34.35 34.35 0 0 0 687 480.90000000000003" fill="#c8c1c8"/><rect x="687" y="412.20000000000005" width="68.7" height="68.7" fill="#ffffff"/><rect x="687" y="412.2" width="34.35" height="34.35" fill="#fdfbf3"/><polygon points="687,412.2 721.35,412.2 687,446.55" fill="#e3dfe3"/><rect x="721.35" y="412.2" width="34.35" height="34.35" fill="#928592"/><path d="M 721.35 446.55 A 34.35 34.35 0 0 1  755.7 412.2 L 721.35 446.55 A 34.35 34.35 0 0 0 755.7 412.2" fill="#d1cbd1"/><rect x="687" y="446.55" width="34.35" height="34.35" fill="#faa0a0"/><g transform="translate(687,446.55) scale(1.7175) rotate(0)"><path d="M10 0L20 10L10 20L0 10L10 0Z" fill="#efa8ad"/></g><rect x="721.35" y="446.55" width="34.35" height="34.35" fill="#ffffff"/><path d="M 721.35 480.90000000000003 A 34.35 34.35 0 0 1  755.7 446.55 L 755.7 480.90000000000003" fill="#c3bbc3"/><rect x="755.7" y="412.2" width="68.7" height="68.7" fill="#eb9298"/><polygon points="755.7,412.2 824.4000000000001,412.2 824.4000000000001,480.9" fill="#f9f6e0"/><rect x="824.4" y="412.2" width="68.7" height="68.7" fill="#fff6f0"/><rect x="824.4" y="412.2" width="68.7" height="68.7" fill="#fdfdf6"/><rect x="893.1" y="412.20000000000005" width="68.7" height="68.7" fill="#ffffff"/><rect x="893.1" y="412.2" width="34.35" height="34.35" fill="#ffefe4"/><polygon points="893.1,412.2 927.45,412.2 893.1,446.55" fill="#fff5ed"/><rect x="927.45" y="412.2" width="34.35" height="34.35" fill="#e8e5e8"/><g transform="translate(927.45,412.2) scale(1.7175) rotate(0)"><path d="M10 0L20 10L10 20L0 10L10 0Z" fill="#fff3ea"/></g><rect x="893.1" y="446.55" width="34.35" height="34.35" fill="#fff7f7"/><polygon points="893.1,446.55 927.45,446.55 893.1,480.90000000000003" fill="#fbb3b3"/><rect x="927.45" y="446.55" width="34.35" height="34.35" fill="#fee4e4"/><polygon points="927.45,446.55 961.8000000000001,446.55 927.45,480.90000000000003" fill="#ffdfc8"/><rect x="961.8" y="412.2" width="68.7" height="68.7" fill="#ec989d"/><rect x="961.8" y="412.2" width="68.7" height="68.7" fill="#fefdfa"/><rect x="0" y="480.9" width="68.7" height="68.7" fill="#fff4ec"/><g transform="translate(0,480.9) scale(3.435) rotate(0)"><path d="M10 0L20 10L10 20L0 10L10 0Z" fill="#ffddc5"/></g><rect x="68.7" y="480.90000000000003" width="68.7" height="68.7" fill="#ffffff"/><rect x="68.7" y="480.9" width="34.35" height="34.35" fill="#d9d4d9"/><path d="M 68.7 515.25 A 34.35 34.35 0 0 1  103.05000000000001 480.9 L 68.7 515.25 A 34.35 34.35 0 0 0 103.05000000000001 480.9" fill="#d1cbd1"/><rect x="103.05" y="480.9" width="34.35" height="34.35" fill="#fdfbf2"/><polygon points="137.4,480.9 137.4,515.25 103.05,515.25" fill="#ffdbc1"/><rect x="68.7" y="515.25" width="34.35" height="34.35" fill="#ffddc4"/><path d="M 68.7 515.25 A 34.35 34.35 0 0 1  103.05000000000001 549.6 L 68.7 515.25 A 34.35 34.35 0 0 0 103.05000000000001 549.6" fill="#897a89"/><rect x="103.05" y="515.25" width="34.35" height="34.35" fill="#705f70"/><path d="M 103.05 515.25 A 34.35 34.35 0 0 1  137.4 549.6 L 103.05 515.25 A 34.35 34.35 0 0 0 137.4 549.6" fill="#f9dcde"/><rect x="137.4" y="480.9" width="68.7" height="68.7" fill="#eb9298"/><polygon points="137.4,480.9 206.10000000000002,480.9 137.4,549.6" fill="#faa4a4"/><rect x="206.1" y="480.9" width="68.7" height="68.7" fill="#fff3e9"/><path d="M 206.1 480.9 A 68.7 68.7 0 0 0 274.8 549.6 L 274.8 480.9" fill="#e1dde1"/><rect x="274.8" y="480.90000000000003" width="68.7" height="68.7" fill="#ffffff"/><rect x="274.8" y="480.9" width="34.35" height="34.35" fill="#fbafaf"/><polygon points="274.8,480.9 309.15000000000003,515.25 274.8,515.25" fill="#fcfcfc"/><rect x="309.15" y="480.9" width="34.35" height="34.35" fill="#afa6af"/><rect x="309.15" y="480.9" width="34.35" height="34.35" fill="#fee4e4"/><rect x="274.8" y="515.25" width="34.35" height="34.35" fill="#685668"/><path d="M 274.8 549.6 A 34.35 34.35 0 0 1  309.15000000000003 515.25 L 274.8 549.6 A 34.35 34.35 0 0 0 309.15000000000003 515.25" fill="#fdfcf6"/><rect x="309.15" y="515.25" width="34.35" height="34.35" fill="#f7d3d6"/><g transform="translate(309.15,515.25) scale(1.7175) rotate(0)"><path d="M13 0H20V7L7 20H0V13L13 0Z" fill="#f8f4d8"/></g><rect x="343.5" y="480.90000000000003" width="68.7" height="68.7" fill="#ffffff"/><rect x="343.5" y="480.9" width="34.35" height="34.35" fill="#faf7e2"/><polygon points="343.5,480.9 377.85,480.9 377.85,515.25" fill="#695769"/><rect x="377.85" y="480.9" width="34.35" height="34.35" fill="#ec949a"/><g transform="translate(377.85,480.9) scale(1.7175) rotate(0)"><path d="M13 0H20V7L7 20H0V13L13 0Z" fill="#bbb3bb"/></g><rect x="343.5" y="515.25" width="34.35" height="34.35" fill="#827382"/><g transform="translate(343.5,515.25) scale(1.7175) rotate(0)"><path d="M10 0L20 10L10 20L0 10L10 0Z" fill="#fefdf9"/></g><rect x="377.85" y="515.25" width="34.35" height="34.35" fill="#fbabab"/><g transform="translate(377.85,515.25) scale(1.7175) rotate(0)"><path d="M13 0H20V7L7 20H0V13L13 0Z" fill="#f9f6de"/></g><rect x="412.2" y="480.9" width="68.7" height="68.7" fill="#dad6da"/><rect x="412.2" y="480.9" width="68.7" height="68.7" fill="#ffe3cf"/><rect x="480.90000000000003" y="480.90000000000003" width="68.7" height="68.7" fill="#ffffff"/><rect x="480.9" y="480.9" width="34.35" height="34.35" fill="#faf7e4"/><g transform="translate(480.9,480.9) scale(1.7175) rotate(0)"><path d="M10 0L20 10L10 20L0 10L10 0Z" fill="#fcfbf1"/></g><rect x="515.25" y="480.9" width="34.35" height="34.35" fill="#fbf9eb"/><g transform="translate(515.25,480.9) scale(1.7175) rotate(0)"><path d="M10 0L20 10L10 20L0 10L10 0Z" fill="#6e5c6e"/></g><rect x="480.9" y="515.25" width="34.35" height="34.35" fill="#fcbbbb"/><polygon points="480.9,515.25 515.25,515.25 480.9,549.6" fill="#fdd7d7"/><rect x="515.25" y="515.25" width="34.35" height="34.35" fill="#665466"/><g transform="translate(515.25,515.25) scale(1.7175) rotate(0)"><path d="M13 0H20V7L7 20H0V13L13 0Z" fill="#fbf9e9"/></g><rect x="549.6" y="480.9" width="68.7" height="68.7" fill="#fcf1f1"/><path d="M 549.6 549.6 A 68.7 68.7 0 0 1  618.3000000000001 480.9 L 549.6 549.6 A 68.7 68.7 0 0 0 618.3000000000001 480.9" fill="#faa1a1"/><rect x="618.3000000000001" y="480.90000000000003" width="68.7" height="68.7" fill="#ffffff"/><rect x="618.3" y="480.9" width="34.35" height="34.35" fill="#f2f1f2"/><path d="M 618.3 480.9 A 34.35 34.35 0 0 0 652.65 515.25 L 652.65 480.9" fill="#fff7f2"/><rect x="652.65" y="480.9" width="34.35" height="34.35" fill="#c9c2c9"/><rect x="652.65" y="480.9" width="34.35" height="34.35" fill="#ffe9d9"/><rect x="618.3" y="515.25" width="34.35" height="34.35" fill="#fffefe"/><path d="M 618.3 549.6 A 34.35 34.35 0 0 1  652.65 515.25 L 618.3 549.6 A 34.35 34.35 0 0 0 652.65 515.25" fill="#8f818f"/><rect x="652.65" y="515.25" width="34.35" height="34.35" fill="#ffe2cd"/><rect x="652.65" y="515.25" width="34.35" height="34.35" fill="#f8f4d9"/><rect x="687" y="480.9" width="68.7" height="68.7" fill="#c1bac1"/><path d="M 687 549.6 A 68.7 68.7 0 0 1  755.7 480.9 L 687 549.6 A 68.7 68.7 0 0 0 755.7 480.9" fill="#fdd0d0"/><rect x="755.7" y="480.90000000000003" width="68.7" height="68.7" fill="#ffffff"/><rect x="755.7" y="480.9" width="34.35" height="34.35" fill="#f3babe"/><polygon points="755.7,480.9 790.0500000000001,515.25 755.7,515.25" fill="#f9dfe0"/><rect x="790.05" y="480.9" width="34.35" height="34.35" fill="#faa5a5"/><path d="M 790.05 515.25 A 34.35 34.35 0 0 1  824.4 480.9 L 790.05 515.25 A 34.35 34.35 0 0 0 824.4 480.9" fill="#fbaeae"/><rect x="755.7" y="515.25" width="34.35" height="34.35" fill="#fffbfb"/><g transform="translate(755.7,515.25) scale(1.7175) rotate(0)"><path d="M13 0H20V7L7 20H0V13L13 0Z" fill="#716071"/></g><rect x="790.05" y="515.25" width="34.35" height="34.35" fill="#f9dddf"/><g transform="translate(790.05,515.25) scale(1.7175) rotate(0)"><path d="M13 0H20V7L7 20H0V13L13 0Z" fill="#fefefc"/></g><rect x="824.4000000000001" y="480.90000000000003" width="68.7" height="68.7" fill="#ffffff"/><rect x="824.4" y="480.9" width="34.35" height="34.35" fill="#fffefe"/><rect x="824.4" y="480.9" width="34.35" height="34.35" fill="#e9868d"/><rect x="858.75" y="480.9" width="34.35" height="34.35" fill="#fcfaee"/><path d="M 858.75 515.25 A 34.35 34.35 0 0 0 893.1 480.9 L 858.75 480.9" fill="#ffecdf"/><rect x="824.4" y="515.25" width="34.35" height="34.35" fill="#dedade"/><g transform="translate(824.4,515.25) scale(1.7175) rotate(0)"><path d="M10 0L20 10L10 20L0 10L10 0Z" fill="#ffdbc0"/></g><rect x="858.75" y="515.25" width="34.35" height="34.35" fill="#eea3a8"/><path d="M 858.75 549.6 A 34.35 34.35 0 0 1  893.1 515.25 L 858.75 549.6 A 34.35 34.35 0 0 0 893.1 515.25" fill="#f9e0e2"/><rect x="893.1" y="480.90000000000003" width="68.7" height="68.7" fill="#ffffff"/><rect x="893.1" y="480.9" width="34.35" height="34.35" fill="#ffefe4"/><g transform="translate(893.1,480.9) scale(1.7175) rotate(0)"><path d="M13 0H20V7L7 20H0V13L13 0Z" fill="#aa9faa"/></g><rect x="927.45" y="480.9" width="34.35" height="34.35" fill="#ffdbc1"/><rect x="927.45" y="480.9" width="34.35" height="34.35" fill="#fbf8e7"/><rect x="893.1" y="515.25" width="34.35" height="34.35" fill="#ffdbc1"/><path d="M 893.1 515.25 A 34.35 34.35 0 0 1 927.45 549.6 L 893.1 549.6" fill="#ffddc4"/><rect x="927.45" y="515.25" width="34.35" height="34.35" fill="#f9f6e1"/><g transform="translate(927.45,515.25) scale(1.7175) rotate(0)"><path d="M10 0L20 10L10 20L0 10L10 0Z" fill="#eea3a8"/></g><rect x="961.8000000000001" y="480.90000000000003" width="68.7" height="68.7" fill="#ffffff"/><rect x="961.8" y="480.9" width="34.35" height="34.35" fill="#d9d5d9"/><path d="M 961.8 480.9 A 34.35 34.35 0 0 1  996.15 515.25 L 961.8 480.9 A 34.35 34.35 0 0 0 996.15 515.25" fill="#fff1e7"/><rect x="996.15" y="480.9" width="34.35" height="34.35" fill="#ed9ca1"/><g transform="translate(996.15,480.9) scale(1.7175) rotate(0)"><path d="M13 0H20V7L7 20H0V13L13 0Z" fill="#ffe4d0"/></g><rect x="961.8" y="515.25" width="34.35" height="34.35" fill="#fbebec"/><g transform="translate(961.8,515.25) scale(1.7175) rotate(0)"><path d="M10 0L20 10L10 20L0 10L10 0Z" fill="#faf8e6"/></g><rect x="996.15" y="515.25" width="34.35" height="34.35" fill="#ffebdc"/><path d="M 996.15 549.6 A 34.35 34.35 0 0 1  1030.5 515.25 L 996.15 549.6 A 34.35 34.35 0 0 0 1030.5 515.25" fill="#d3ced3"/><rect x="0" y="549.6" width="68.7" height="68.7" fill="#fffdfd"/><rect x="0" y="549.6" width="68.7" height="68.7" fill="#ffe7d6"/><rect x="68.7" y="549.6" width="68.7" height="68.7" fill="#ffe7d5"/><g transform="translate(68.7,549.6) scale(3.435) rotate(0)"><path d="M13 0H20V7L7 20H0V13L13 0Z" fill="#faf8e5"/></g><rect x="137.4" y="549.6" width="68.7" height="68.7" fill="#ffffff"/><rect x="137.4" y="549.6" width="34.35" height="34.35" fill="#736273"/><g transform="translate(137.4,549.6) scale(1.7175) rotate(0)"><path d="M13 0H20V7L7 20H0V13L13 0Z" fill="#a095a0"/></g><rect x="171.75" y="549.6" width="34.35" height="34.35" fill="#fff2e9"/><path d="M 171.75 583.95 A 34.35 34.35 0 0 1  206.1 549.6 L 171.75 583.95 A 34.35 34.35 0 0 0 206.1 549.6" fill="#feefef"/><rect x="137.4" y="583.95" width="34.35" height="34.35" fill="#ec949a"/><g transform="translate(137.4,583.95) scale(1.7175) rotate(0)"><path d="M10 0L20 10L10 20L0 10L10 0Z" fill="#f8f4da"/></g><rect x="171.75" y="583.95" width="34.35" height="34.35" fill="#ffe4d0"/><g transform="translate(171.75,583.95) scale(1.7175) rotate(0)"><path d="M13 0H20V7L7 20H0V13L13 0Z" fill="#fceced"/></g><rect x="206.1" y="549.6" width="68.7" height="68.7" fill="#fffaf6"/><rect x="206.1" y="549.6" width="68.7" height="68.7" fill="#ffddc4"/><rect x="274.8" y="549.6" width="68.7" height="68.7" fill="#ffffff"/><rect x="274.8" y="549.6" width="34.35" height="34.35" fill="#fff8f8"/><g transform="translate(274.8,549.6) scale(1.7175) rotate(0)"><path d="M13 0H20V7L7 20H0V13L13 0Z" fill="#a599a5"/></g><rect x="309.15" y="549.6" width="34.35" height="34.35" fill="#847584"/><g transform="translate(309.15,549.6) scale(1.7175) rotate(0)"><path d="M10 0L20 10L10 20L0 10L10 0Z" fill="#786778"/></g><rect x="274.8" y="583.95" width="34.35" height="34.35" fill="#fbf9ec"/><polygon points="274.8,583.95 309.15000000000003,583.95 274.8,618.3000000000001" fill="#fcfcfc"/><rect x="309.15" y="583.95" width="34.35" height="34.35" fill="#f5cacd"/><rect x="309.15" y="583.95" width="34.35" height="34.35" fill="#fbebec"/><rect x="343.5" y="549.6" width="68.7" height="68.7" fill="#cdc7cd"/><path d="M 343.5 549.6 A 68.7 68.7 0 0 1  412.2 618.3000000000001 L 343.5 549.6 A 68.7 68.7 0 0 0 412.2 618.3000000000001" fill="#f8f5da"/><rect x="412.2" y="549.6" width="68.7" height="68.7" fill="#eea0a5"/><path d="M 412.2 549.6 A 68.7 68.7 0 0 1  480.9 618.3000000000001 L 412.2 549.6 A 68.7 68.7 0 0 0 480.9 618.3000000000001" fill="#fff9f9"/><rect x="480.90000000000003" y="549.6" width="68.7" height="68.7" fill="#ffffff"/><rect x="480.9" y="549.6" width="34.35" height="34.35" fill="#fcfaef"/><g transform="translate(480.9,549.6) scale(1.7175) rotate(0)"><path d="M10 0L20 10L10 20L0 10L10 0Z" fill="#fdfcf6"/></g><rect x="515.25" y="549.6" width="34.35" height="34.35" fill="#fffffd"/><g transform="translate(515.25,549.6) scale(1.7175) rotate(0)"><path d="M10 0L20 10L10 20L0 10L10 0Z" fill="#fcc5c5"/></g><rect x="480.9" y="583.95" width="34.35" height="34.35" fill="#ed9ea4"/><rect x="480.9" y="583.95" width="34.35" height="34.35" fill="#fff9f9"/><rect x="515.25" y="583.95" width="34.35" height="34.35" fill="#e9e6e9"/><g transform="translate(515.25,583.95) scale(1.7175) rotate(0)"><path d="M13 0H20V7L7 20H0V13L13 0Z" fill="#ffddc3"/></g><rect x="549.6" y="549.6" width="68.7" height="68.7" fill="#ffffff"/><rect x="549.6" y="549.6" width="34.35" height="34.35" fill="#ffe3ce"/><path d="M 549.6 549.6 A 34.35 34.35 0 0 1  583.95 583.95 L 549.6 549.6 A 34.35 34.35 0 0 0 583.95 583.95" fill="#9f949f"/><rect x="583.95" y="549.6" width="34.35" height="34.35" fill="#fcc2c2"/><rect x="583.95" y="549.6" width="34.35" height="34.35" fill="#eea0a5"/><rect x="549.6" y="583.95" width="34.35" height="34.35" fill="#b0a6b0"/><polygon points="583.95,583.95 583.95,618.3000000000001 549.6,618.3000000000001" fill="#fffafa"/><rect x="583.95" y="583.95" width="34.35" height="34.35" fill="#fffdfb"/><g transform="translate(583.95,583.95) scale(1.7175) rotate(0)"><path d="M10 0L20 10L10 20L0 10L10 0Z" fill="#fef2f2"/></g><rect x="618.3000000000001" y="549.6" width="68.7" height="68.7" fill="#ffffff"/><rect x="618.3" y="549.6" width="34.35" height="34.35" fill="#fa9d9d"/><rect x="618.3" y="549.6" width="34.35" height="34.35" fill="#ea8d93"/><rect x="652.65" y="549.6" width="34.35" height="34.35" fill="#fcfbf0"/><path d="M 652.65 583.95 A 34.35 34.35 0 0 0 687 549.6 L 652.65 549.6" fill="#ea8c93"/><rect x="618.3" y="583.95" width="34.35" height="34.35" fill="#fcfaed"/><g transform="translate(618.3,583.95) scale(1.7175) rotate(0)"><path d="M10 0L20 10L10 20L0 10L10 0Z" fill="#faf8e7"/></g><rect x="652.65" y="583.95" width="34.35" height="34.35" fill="#f9e1e2"/><g transform="translate(652.65,583.95) scale(1.7175) rotate(0)"><path d="M13 0H20V7L7 20H0V13L13 0Z" fill="#fff9f4"/></g><rect x="687" y="549.6" width="68.7" height="68.7" fill="#fcc4c4"/><path d="M 687 549.6 A 68.7 68.7 0 0 1 755.7 618.3000000000001 L 687 618.3000000000001" fill="#ffebdc"/><rect x="755.7" y="549.6" width="68.7" height="68.7" fill="#ffffff"/><rect x="755.7" y="549.6" width="34.35" height="34.35" fill="#e7e4e7"/><g transform="translate(755.7,549.6) scale(1.7175) rotate(0)"><path d="M10 0L20 10L10 20L0 10L10 0Z" fill="#ea8a90"/></g><rect x="790.05" y="549.6" width="34.35" height="34.35" fill="#f8f5db"/><path d="M 790.05 583.95 A 34.35 34.35 0 0 1  824.4 549.6 L 790.05 583.95 A 34.35 34.35 0 0 0 824.4 549.6" fill="#ffeadb"/><rect x="755.7" y="583.95" width="34.35" height="34.35" fill="#d0cad0"/><path d="M 755.7 583.95 A 34.35 34.35 0 0 1  790.0500000000001 618.3000000000001 L 755.7 583.95 A 34.35 34.35 0 0 0 790.0500000000001 618.3000000000001" fill="#fcc8c8"/><rect x="790.05" y="583.95" width="34.35" height="34.35" fill="#fffefe"/><polygon points="790.05,583.95 824.4,583.95 824.4,618.3000000000001" fill="#f9f6df"/><rect x="824.4" y="549.6" width="68.7" height="68.7" fill="#fff8f8"/><path d="M 824.4 549.6 A 68.7 68.7 0 0 1  893.1 618.3000000000001 L 824.4 549.6 A 68.7 68.7 0 0 0 893.1 618.3000000000001" fill="#ffe4d0"/><rect x="893.1" y="549.6" width="68.7" height="68.7" fill="#ffffff"/><rect x="893.1" y="549.6" width="34.35" height="34.35" fill="#fcc6c6"/><g transform="translate(893.1,549.6) scale(1.7175) rotate(0)"><path d="M13 0H20V7L7 20H0V13L13 0Z" fill="#9f939f"/></g><rect x="927.45" y="549.6" width="34.35" height="34.35" fill="#f2b5b9"/><g transform="translate(927.45,549.6) scale(1.7175) rotate(0)"><path d="M10 0L20 10L10 20L0 10L10 0Z" fill="#f7d3d5"/></g><rect x="893.1" y="583.95" width="34.35" height="34.35" fill="#f5c5c8"/><path d="M 893.1 618.3000000000001 A 34.35 34.35 0 0 0 927.45 583.95 L 893.1 583.95" fill="#fcfaed"/><rect x="927.45" y="583.95" width="34.35" height="34.35" fill="#ffe6d4"/><path d="M 927.45 618.3000000000001 A 34.35 34.35 0 0 1  961.8000000000001 583.95 L 961.8000000000001 618.3000000000001" fill="#fffefe"/><rect x="961.8" y="549.6" width="68.7" height="68.7" fill="#ed9ba1"/><rect x="961.8" y="549.6" width="68.7" height="68.7" fill="#ea8b91"/><rect x="0" y="618.3" width="68.7" height="68.7" fill="#fbf9eb"/><path d="M 0 687 A 68.7 68.7 0 0 1  68.7 618.3 L 0 687 A 68.7 68.7 0 0 0 68.7 618.3" fill="#fdfcf5"/><rect x="68.7" y="618.3000000000001" width="68.7" height="68.7" fill="#ffffff"/><rect x="68.7" y="618.3" width="34.35" height="34.35" fill="#fffdfb"/><path d="M 68.7 652.65 A 34.35 34.35 0 0 1  103.05000000000001 618.3 L 68.7 652.65 A 34.35 34.35 0 0 0 103.05000000000001 618.3" fill="#ffdabf"/><rect x="103.05" y="618.3" width="34.35" height="34.35" fill="#fff3eb"/><path d="M 103.05 652.65 A 34.35 34.35 0 0 0 137.4 618.3 L 103.05 618.3" fill="#f3bdc0"/><rect x="68.7" y="652.65" width="34.35" height="34.35" fill="#ffe5d3"/><path d="M 68.7 652.65 A 34.35 34.35 0 0 0 103.05000000000001 687 L 103.05000000000001 652.65" fill="#f8f4d9"/><rect x="103.05" y="652.65" width="34.35" height="34.35" fill="#fef0f0"/><path d="M 103.05 687 A 34.35 34.35 0 0 1  137.4 652.65 L 137.4 687" fill="#fbb0b0"/><rect x="137.4" y="618.3000000000001" width="68.7" height="68.7" fill="#ffffff"/><rect x="137.4" y="618.3" width="34.35" height="34.35" fill="#f8f5db"/><polygon points="137.4,618.3 171.75,618.3 137.4,652.65" fill="#f8f4d9"/><rect x="171.75" y="618.3" width="34.35" height="34.35" fill="#f6ced1"/><polygon points="171.75,618.3 206.1,652.65 171.75,652.65" fill="#fcfaee"/><rect x="137.4" y="652.65" width="34.35" height="34.35" fill="#fbf8e8"/><polygon points="171.75,652.65 171.75,687 137.4,687" fill="#feeded"/><rect x="171.75" y="652.65" width="34.35" height="34.35" fill="#fbf9ea"/><path d="M 171.75 687 A 34.35 34.35 0 0 1  206.1 652.65 L 171.75 687 A 34.35 34.35 0 0 0 206.1 652.65" fill="#6f5d6f"/><rect x="206.1" y="618.3" width="68.7" height="68.7" fill="#feecec"/><polygon points="206.1,618.3 274.8,687 206.1,687" fill="#fffefe"/><rect x="274.8" y="618.3" width="68.7" height="68.7" fill="#fdf5f5"/><g transform="translate(274.8,618.3) scale(3.435) rotate(0)"><path d="M10 0L20 10L10 20L0 10L10 0Z" fill="#f4c4c7"/></g><rect x="343.5" y="618.3" width="68.7" height="68.7" fill="#c4bcc4"/><rect x="343.5" y="618.3" width="68.7" height="68.7" fill="#faf7e3"/><rect x="412.20000000000005" y="618.3000000000001" width="68.7" height="68.7" fill="#ffffff"/><rect x="412.2" y="618.3" width="34.35" height="34.35" fill="#998c99"/><g transform="translate(412.2,618.3) scale(1.7175) rotate(0)"><path d="M13 0H20V7L7 20H0V13L13 0Z" fill="#efa9ad"/></g><rect x="446.55" y="618.3" width="34.35" height="34.35" fill="#7f707f"/><polygon points="446.55,618.3 480.90000000000003,618.3 446.55,652.65" fill="#fae2e3"/><rect x="412.2" y="652.65" width="34.35" height="34.35" fill="#908390"/><polygon points="446.55,652.65 446.55,687 412.2,687" fill="#786878"/><rect x="446.55" y="652.65" width="34.35" height="34.35" fill="#fdfcf5"/><path d="M 446.55 652.65 A 34.35 34.35 0 0 1  480.90000000000003 687 L 446.55 652.65 A 34.35 34.35 0 0 0 480.90000000000003 687" fill="#a094a0"/><rect x="480.9" y="618.3" width="68.7" height="68.7" fill="#fffaf6"/><g transform="translate(480.9,618.3) scale(3.435) rotate(0)"><path d="M13 0H20V7L7 20H0V13L13 0Z" fill="#ffe1cc"/></g><rect x="549.6" y="618.3000000000001" width="68.7" height="68.7" fill="#ffffff"/><rect x="549.6" y="618.3" width="34.35" height="34.35" fill="#a398a3"/><polygon points="583.95,618.3 583.95,652.65 549.6,652.65" fill="#beb6be"/><rect x="583.95" y="618.3" width="34.35" height="34.35" fill="#eea3a8"/><rect x="583.95" y="618.3" width="34.35" height="34.35" fill="#f1b3b7"/><rect x="549.6" y="652.65" width="34.35" height="34.35" fill="#fee4e4"/><g transform="translate(549.6,652.65) scale(1.7175) rotate(0)"><path d="M10 0L20 10L10 20L0 10L10 0Z" fill="#fff7f2"/></g><rect x="583.95" y="652.65" width="34.35" height="34.35" fill="#ffeee2"/><g transform="translate(583.95,652.65) scale(1.7175) rotate(0)"><path d="M13 0H20V7L7 20H0V13L13 0Z" fill="#fff6f6"/></g><rect x="618.3" y="618.3" width="68.7" height="68.7" fill="#fcfbf2"/><g transform="translate(618.3,618.3) scale(3.435) rotate(0)"><path d="M10 0L20 10L10 20L0 10L10 0Z" fill="#fffcfa"/></g><rect x="687" y="618.3" width="68.7" height="68.7" fill="#fcfbf0"/><path d="M 687 687 A 68.7 68.7 0 0 1  755.7 618.3 L 687 687 A 68.7 68.7 0 0 0 755.7 618.3" fill="#fdd7d7"/><rect x="755.7" y="618.3" width="68.7" height="68.7" fill="#e0dce0"/><polygon points="755.7,618.3 824.4000000000001,618.3 755.7,687" fill="#ffffff"/><rect x="824.4" y="618.3" width="68.7" height="68.7" fill="#f9dee0"/><polygon points="824.4,618.3 893.1,687 824.4,687" fill="#f7f3d6"/><rect x="893.1" y="618.3000000000001" width="68.7" height="68.7" fill="#ffffff"/><rect x="893.1" y="618.3" width="34.35" height="34.35" fill="#fffbf9"/><polygon points="893.1,618.3 927.45,618.3 893.1,652.65" fill="#665466"/><rect x="927.45" y="618.3" width="34.35" height="34.35" fill="#e9888f"/><path d="M 927.45 652.65 A 34.35 34.35 0 0 1  961.8000000000001 618.3 L 927.45 652.65 A 34.35 34.35 0 0 0 961.8000000000001 618.3" fill="#ea8a90"/><rect x="893.1" y="652.65" width="34.35" height="34.35" fill="#d9d5d9"/><path d="M 893.1 652.65 A 34.35 34.35 0 0 1  927.45 687 L 893.1 652.65 A 34.35 34.35 0 0 0 927.45 687" fill="#ea8d94"/><rect x="927.45" y="652.65" width="34.35" height="34.35" fill="#fbb0b0"/><path d="M 927.45 652.65 A 34.35 34.35 0 0 1  961.8000000000001 687 L 927.45 652.65 A 34.35 34.35 0 0 0 961.8000000000001 687" fill="#feecec"/><rect x="961.8000000000001" y="618.3000000000001" width="68.7" height="68.7" fill="#ffffff"/><rect x="961.8" y="618.3" width="34.35" height="34.35" fill="#fba7a7"/><g transform="translate(961.8,618.3) scale(1.7175) rotate(0)"><path d="M13 0H20V7L7 20H0V13L13 0Z" fill="#f3bfc2"/></g><rect x="996.15" y="618.3" width="34.35" height="34.35" fill="#f9dcde"/><rect x="996.15" y="618.3" width="34.35" height="34.35" fill="#fff8f3"/><rect x="961.8" y="652.65" width="34.35" height="34.35" fill="#fcbaba"/><g transform="translate(961.8,652.65) scale(1.7175) rotate(0)"><path d="M13 0H20V7L7 20H0V13L13 0Z" fill="#c6bfc6"/></g><rect x="996.15" y="652.65" width="34.35" height="34.35" fill="#fdfdf7"/><path d="M 996.15 652.65 A 34.35 34.35 0 0 1  1030.5 687 L 996.15 652.65 A 34.35 34.35 0 0 0 1030.5 687" fill="#ffe9da"/></g></svg>