<svg width="2847" height="4351" viewBox="0 0 2847 4351" fill="none" xmlns="http://www.w3.org/2000/svg">
<path d="M1251.67 89.3223H1591.46C1592.02 89.3223 1592.46 89.77 1592.46 90.3223V217.496H2739.2C2739.75 217.496 2740.2 217.943 2740.2 218.496V573.827C2740.2 574.379 2739.75 574.827 2739.2 574.827H2582.89C2582.89 3217.02 2740.09 3217.91 2740.2 4234.5C2740.2 4235.05 2739.75 4235.53 2739.2 4235.53H113.645C113.092 4235.53 112.645 4235.06 112.645 4234.5C112.759 3202.37 285.484 3191.8 285.484 574.827H113.645C113.092 574.827 112.645 574.379 112.645 573.827V218.496C112.645 217.943 113.092 217.496 113.645 217.496H1250.67V90.3223C1250.67 89.77 1251.12 89.3223 1251.67 89.3223Z" fill="#D2AC83"/>
<path d="M1250.67 217.496V90.3223C1250.67 89.77 1251.12 89.3223 1251.67 89.3223H1591.46C1592.02 89.3223 1592.46 89.77 1592.46 90.3223V217.496M1250.67 217.496H113.645C113.092 217.496 112.645 217.943 112.645 218.496V573.827C112.645 574.379 113.092 574.827 113.645 574.827H285.484M1250.67 217.496V574.827M565.135 574.827H285.484M675.83 574.827H737.975M848.67 574.827H1250.67M1250.67 574.827V773.855C1250.67 774.407 1251.12 774.855 1251.67 774.855H1591.46C1592.02 774.855 1592.46 774.407 1592.46 773.855V574.827M1592.46 574.827V217.496M1592.46 574.827H2582.89M1592.46 217.496H2739.2C2739.75 217.496 2740.2 217.943 2740.2 218.496V573.827C2740.2 574.379 2739.75 574.827 2739.2 574.827H2582.89M2182.5 1546.5V895C2182.5 894.448 2182.05 894 2181.5 894H665C664.448 894 664 894.448 664 895V3913C664 3913.55 664.448 3914 665 3914H2182C2182.55 3914 2183 3913.55 2183 3913V1976M285.484 574.827C285.484 3191.8 112.759 3202.37 112.645 4234.5C112.645 4235.06 113.092 4235.53 113.645 4235.53H2739.2C2739.75 4235.53 2740.2 4235.05 2740.2 4234.5C2740.09 3217.91 2582.89 3217.02 2582.89 574.827" stroke="black" stroke-width="20"/>
<g clip-path="url(#clip0_888_12681)">
<rect width="1500" height="3000" transform="translate(673 904)" fill="#D2AC83"/>
<path d="M2173 904H673V3904H2173V904Z" fill="white"/>
<path d="M887.286 904H673V1118.29H887.286V904Z" fill="white"/>
<path d="M780.154 904H673V1011.15H780.154V904Z" fill="#C9C5BA"/>
<path d="M673 904C701.419 904 728.674 915.289 748.77 935.385C768.865 955.48 780.154 982.735 780.154 1011.15H673" fill="#F4F1E9"/>
<path d="M887.309 904H780.154V1011.15H887.309V904Z" fill="#9A8E7C"/>
<path d="M780.154 904C780.154 932.419 791.444 959.674 811.539 979.77C831.634 999.865 858.89 1011.15 887.309 1011.15V904" fill="#B1A89A"/>
<path d="M780.154 1011.15H673V1118.31H780.154V1011.15Z" fill="#CD7457"/>
<path d="M673 1118.31C673 1089.89 684.289 1062.63 704.385 1042.54C724.48 1022.44 751.735 1011.15 780.154 1011.15L673 1118.31C701.419 1118.31 728.674 1107.02 748.77 1086.92C768.865 1066.83 780.154 1039.57 780.154 1011.15" fill="#BF4E29"/>
<path d="M887.309 1011.15H780.154V1118.31H887.309V1011.15Z" fill="#B8B3A4"/>
<path d="M887.309 1011.15H780.154V1118.31H887.309V1011.15Z" fill="#D0CDC2"/>
<path d="M1101.54 904H887.269V1118.27H1101.54V904Z" fill="#E0DDD7"/>
<path d="M887.269 904C944.096 904 998.596 926.575 1038.78 966.758C1078.96 1006.94 1101.54 1061.44 1101.54 1118.27L887.269 904C887.269 960.828 909.843 1015.33 950.026 1055.51C990.209 1095.69 1044.71 1118.27 1101.54 1118.27" fill="#DC9E8A"/>
<path d="M1315.85 904H1101.58V1118.27H1315.85V904Z" fill="#B0AA99"/>
<path d="M1101.58 904C1158.4 904 1212.9 926.575 1253.09 966.758C1293.27 1006.94 1315.85 1061.44 1315.85 1118.27H1101.58" fill="#BCB4A8"/>
<path d="M1530.11 904H1315.85V1118.27H1530.11V904Z" fill="#F4F0E8"/>
<path d="M1530.11 904H1315.85V1118.27H1530.11V904Z" fill="#EBE5D6"/>
<path d="M1744.42 904H1530.15V1118.27H1744.42V904Z" fill="#BCB4A9"/>
<path d="M1530.15 1118.27C1530.15 1061.44 1552.73 1006.94 1592.91 966.758C1633.1 926.575 1687.6 904 1744.42 904L1530.15 1118.27C1586.98 1118.27 1641.48 1095.69 1681.66 1055.51C1721.85 1015.33 1744.42 960.828 1744.42 904" fill="#E8E1D0"/>
<path d="M1958.71 904H1744.43V1118.29H1958.71V904Z" fill="white"/>
<path d="M1851.58 904H1744.42V1011.15H1851.58V904Z" fill="#F8F8F6"/>
<path d="M1744.42 904H1851.58L1744.42 1011.15V904Z" fill="#E4B4A4"/>
<path d="M1958.73 904H1851.58V1011.15H1958.73V904Z" fill="#F4F3F1"/>
<path d="M1851.58 904L1958.73 1011.15H1851.58V904Z" fill="#CCC6BD"/>
<path d="M1851.58 1011.15H1744.42V1118.31H1851.58V1011.15Z" fill="#D07C61"/>
<path d="M1798 1011.15L1851.58 1064.73L1798 1118.31L1744.42 1064.73L1798 1011.15Z" fill="#8D806C"/>
<path d="M1958.73 1011.15H1851.58V1118.31H1958.73V1011.15Z" fill="#DC9E8A"/>
<path d="M1878.37 1011.15H1905.15L1878.37 1037.94L1851.58 1064.73V1037.94L1878.37 1011.15Z" fill="#E7E0CF"/>
<path d="M1958.73 1091.52V1118.31H1931.94L1958.73 1091.52Z" fill="#E7E0CF"/>
<path d="M1958.73 1037.94V1064.73L1931.94 1091.52L1905.15 1118.31H1878.37L1958.73 1037.94Z" fill="#E7E0CF"/>
<path d="M1931.94 1011.15H1958.73L1878.37 1091.52L1851.58 1118.31V1091.52L1931.94 1011.15Z" fill="#E7E0CF"/>
<path d="M2173 904H1958.73V1118.27H2173V904Z" fill="#ECCABF"/>
<path d="M1958.73 1118.27C1958.73 1061.44 1981.31 1006.94 2021.49 966.758C2061.67 926.575 2116.17 904 2173 904V1118.27" fill="#AFA998"/>
<path d="M887.286 1118.29H673V1332.57H887.286V1118.29Z" fill="white"/>
<path d="M780.154 1118.27H673V1225.42H780.154V1118.27Z" fill="#E8E1D0"/>
<path d="M780.154 1118.27H673V1225.42H780.154V1118.27Z" fill="#C5C1B4"/>
<path d="M887.309 1118.27H780.154V1225.42H887.309V1118.27Z" fill="white"/>
<path d="M780.154 1118.27C808.573 1118.27 835.829 1129.56 855.924 1149.65C876.019 1169.75 887.309 1197 887.309 1225.42H780.154" fill="#ECEBE7"/>
<path d="M780.154 1225.42H673V1332.58H780.154V1225.42Z" fill="#8C7E6A"/>
<path d="M780.154 1225.42H673V1332.58H780.154V1225.42Z" fill="#FAF8F4"/>
<path d="M887.309 1225.42H780.154V1332.58H887.309V1225.42Z" fill="#B8AFA3"/>
<path d="M887.309 1225.42H780.154V1332.58H887.309V1225.42Z" fill="#F1EDE2"/>
<path d="M1101.57 1118.29H887.286V1332.57H1101.57V1118.29Z" fill="white"/>
<path d="M994.423 1118.27H887.269V1225.42H994.423V1118.27Z" fill="#978F78"/>
<path d="M887.269 1118.27C915.688 1118.27 942.943 1129.56 963.038 1149.65C983.133 1169.75 994.423 1197 994.423 1225.42L887.269 1118.27C887.269 1146.69 898.558 1173.94 918.653 1194.04C938.749 1214.13 966.004 1225.42 994.423 1225.42" fill="#FBFBFA"/>
<path d="M1101.58 1118.27H994.423V1225.42H1101.58V1118.27Z" fill="#FDFCFB"/>
<path d="M994.423 1225.42C994.423 1197 1005.71 1169.75 1025.81 1149.65C1045.9 1129.56 1073.16 1118.27 1101.58 1118.27L994.423 1225.42C1022.84 1225.42 1050.1 1214.13 1070.19 1194.04C1090.29 1173.94 1101.58 1146.69 1101.58 1118.27" fill="#C1522E"/>
<path d="M994.423 1225.42H887.269V1332.58H994.423V1225.42Z" fill="#D68C74"/>
<path d="M887.269 1332.58C915.688 1332.58 942.943 1321.29 963.038 1301.19C983.133 1281.1 994.423 1253.84 994.423 1225.42H887.269" fill="#9C9580"/>
<path d="M1101.58 1225.42H994.423V1332.58H1101.58V1225.42Z" fill="#B8B3A4"/>
<path d="M1048 1225.42L1101.58 1279L1048 1332.58L994.423 1279L1048 1225.42Z" fill="#D68E76"/>
<path d="M1315.86 1118.29H1101.57V1332.57H1315.86V1118.29Z" fill="white"/>
<path d="M1208.73 1118.27H1101.58V1225.42H1208.73V1118.27Z" fill="#BEB6AB"/>
<path d="M1155.15 1118.27L1208.73 1171.84L1155.15 1225.42L1101.58 1171.84L1155.15 1118.27Z" fill="#C76443"/>
<path d="M1315.89 1118.27H1208.73V1225.42H1315.89V1118.27Z" fill="#C7C3B7"/>
<path d="M1208.73 1225.42C1208.73 1197 1220.02 1169.75 1240.12 1149.65C1260.21 1129.56 1287.47 1118.27 1315.89 1118.27L1208.73 1225.42C1237.15 1225.42 1264.41 1214.13 1284.5 1194.04C1304.6 1173.94 1315.89 1146.69 1315.89 1118.27" fill="#C6BFB5"/>
<path d="M1208.73 1225.42H1101.58V1332.58H1208.73V1225.42Z" fill="#BDB5AA"/>
<path d="M1208.73 1225.42H1101.58V1332.58H1208.73V1225.42Z" fill="#F1EDE2"/>
<path d="M1315.89 1225.42H1208.73V1332.58H1315.89V1225.42Z" fill="#EEE9DC"/>
<path d="M1208.73 1225.42H1315.89V1332.58L1208.73 1225.42Z" fill="#EBC7BB"/>
<path d="M1530.11 1118.27H1315.85V1332.54H1530.11V1118.27Z" fill="#ACA294"/>
<path d="M1369.41 1118.27H1422.98L1369.41 1171.83L1315.85 1225.4V1171.83L1369.41 1118.27Z" fill="#FCF8F6"/>
<path d="M1530.11 1278.97V1332.54H1476.55L1530.11 1278.97Z" fill="#FCF8F6"/>
<path d="M1530.11 1171.83V1225.4L1476.55 1278.97L1422.98 1332.54H1369.41L1530.11 1171.83Z" fill="#FCF8F6"/>
<path d="M1476.55 1118.27H1530.11L1369.41 1278.97L1315.85 1332.54V1278.97L1476.55 1118.27Z" fill="#FCF8F6"/>
<path d="M1744.42 1118.27H1530.15V1332.54H1744.42V1118.27Z" fill="#EFEEEB"/>
<path d="M1530.15 1118.27H1744.42V1332.54L1530.15 1118.27Z" fill="#CD7355"/>
<path d="M1958.69 1118.27H1744.42V1332.54H1958.69V1118.27Z" fill="#F3F0E7"/>
<path d="M1797.99 1118.27H1851.56L1797.99 1171.83L1744.42 1225.4V1171.83L1797.99 1118.27Z" fill="#C55C3B"/>
<path d="M1958.69 1278.97V1332.54H1905.12L1958.69 1278.97Z" fill="#C55C3B"/>
<path d="M1958.69 1171.83V1225.4L1905.12 1278.97L1851.56 1332.54H1797.99L1958.69 1171.83Z" fill="#C55C3B"/>
<path d="M1905.12 1118.27H1958.69L1797.99 1278.97L1744.42 1332.54V1278.97L1905.12 1118.27Z" fill="#C55C3B"/>
<path d="M2173 1118.27H1958.73V1332.54H2173V1118.27Z" fill="#B3A99C"/>
<path d="M1958.73 1332.54C2015.56 1332.54 2070.06 1309.96 2110.24 1269.78C2150.43 1229.6 2173 1175.1 2173 1118.27H1958.73" fill="#AFA997"/>
<path d="M887.286 1332.57H673V1546.86H887.286V1332.57Z" fill="white"/>
<path d="M780.154 1332.58H673V1439.73H780.154V1332.58Z" fill="#CECABF"/>
<path d="M699.789 1332.58H726.577L699.789 1359.37L673 1386.16V1359.37L699.789 1332.58Z" fill="#CDCABF"/>
<path d="M780.155 1412.94V1439.73H753.366L780.155 1412.94Z" fill="#CDCABF"/>
<path d="M780.155 1359.37V1386.16L753.366 1412.94L726.578 1439.73H699.789L780.155 1359.37Z" fill="#CDCABF"/>
<path d="M753.366 1332.58H780.154L699.789 1412.94L673 1439.73V1412.94L753.366 1332.58Z" fill="#CDCABF"/>
<path d="M887.309 1332.58H780.154V1439.73H887.309V1332.58Z" fill="#C7C2B6"/>
<path d="M780.154 1332.58C808.573 1332.58 835.829 1343.87 855.924 1363.96C876.019 1384.06 887.309 1411.31 887.309 1439.73L780.154 1332.58C780.154 1346.65 782.926 1360.58 788.311 1373.58C793.696 1386.58 801.589 1398.4 811.539 1408.35C821.489 1418.3 833.302 1426.19 846.302 1431.58C859.303 1436.96 873.237 1439.73 887.309 1439.73" fill="#F6F4ED"/>
<path d="M780.154 1439.73H673V1546.89H780.154V1439.73Z" fill="#867762"/>
<path d="M726.577 1439.73L780.154 1493.31L726.577 1546.89L673 1493.31L726.577 1439.73Z" fill="#F5F2EA"/>
<path d="M887.309 1439.73H780.154V1546.89H887.309V1439.73Z" fill="#E3DFDA"/>
<path d="M833.731 1439.73L887.309 1493.31L833.731 1546.89L780.154 1493.31L833.731 1439.73Z" fill="#DACFB4"/>
<path d="M1101.57 1332.57H887.286V1546.86H1101.57V1332.57Z" fill="white"/>
<path d="M994.423 1332.58H887.269V1439.73H994.423V1332.58Z" fill="#BEB9AB"/>
<path d="M940.846 1332.58L994.423 1386.16L940.846 1439.73L887.269 1386.16L940.846 1332.58Z" fill="#B8AFA3"/>
<path d="M1101.58 1332.58H994.423V1439.73H1101.58V1332.58Z" fill="#D3CFC6"/>
<path d="M1021.21 1332.58H1048L1021.21 1359.37L994.423 1386.16V1359.37L1021.21 1332.58Z" fill="#EEECE9"/>
<path d="M1101.58 1412.94V1439.73H1074.79L1101.58 1412.94Z" fill="#EEECE9"/>
<path d="M1101.58 1359.37V1386.16L1074.79 1412.94L1048 1439.73H1021.21L1101.58 1359.37Z" fill="#EEECE9"/>
<path d="M1074.79 1332.58H1101.58L1021.21 1412.94L994.423 1439.73V1412.94L1074.79 1332.58Z" fill="#EEECE9"/>
<path d="M994.423 1439.73H887.269V1546.89H994.423V1439.73Z" fill="#C04F2B"/>
<path d="M914.057 1439.73H940.846L914.057 1466.52L887.269 1493.31V1466.52L914.057 1439.73Z" fill="#DFDCD6"/>
<path d="M994.423 1520.1V1546.89H967.635L994.423 1520.1Z" fill="#DFDCD6"/>
<path d="M994.423 1466.52V1493.31L967.635 1520.1L940.846 1546.89H914.058L994.423 1466.52Z" fill="#DFDCD6"/>
<path d="M967.634 1439.73H994.423L914.057 1520.1L887.269 1546.89V1520.1L967.634 1439.73Z" fill="#DFDCD6"/>
<path d="M1101.58 1439.73H994.423V1546.89H1101.58V1439.73Z" fill="#E8E1D0"/>
<path d="M1048 1439.73L1101.58 1493.31L1048 1546.89L994.423 1493.31L1048 1439.73Z" fill="#DB9B87"/>
<path d="M1315.85 1332.58H1101.58V1546.85H1315.85V1332.58Z" fill="#BAB2A6"/>
<path d="M1155.14 1332.58H1208.71L1155.14 1386.15L1101.58 1439.71V1386.15L1155.14 1332.58Z" fill="#BF4E29"/>
<path d="M1315.85 1493.28V1546.85H1262.28L1315.85 1493.28Z" fill="#BF4E29"/>
<path d="M1315.85 1386.14V1439.71L1262.28 1493.28L1208.71 1546.85H1155.14L1315.85 1386.14Z" fill="#BF4E29"/>
<path d="M1262.28 1332.58H1315.85L1155.14 1493.28L1101.58 1546.85V1493.28L1262.28 1332.58Z" fill="#BF4E29"/>
<path d="M1530.11 1332.58H1315.85V1546.85H1530.11V1332.58Z" fill="#968E77"/>
<path d="M1369.41 1332.58H1422.98L1369.41 1386.15L1315.85 1439.71V1386.15L1369.41 1332.58Z" fill="#F3DFD8"/>
<path d="M1530.11 1493.28V1546.85H1476.55L1530.11 1493.28Z" fill="#F3DFD8"/>
<path d="M1530.11 1386.14V1439.71L1476.55 1493.28L1422.98 1546.85H1369.41L1530.11 1386.14Z" fill="#F3DFD8"/>
<path d="M1476.55 1332.58H1530.11L1369.41 1493.28L1315.85 1546.85V1493.28L1476.55 1332.58Z" fill="#F3DFD8"/>
<path d="M1744.42 1332.58H1530.15V1546.85H1744.42V1332.58Z" fill="#A39888"/>
<path d="M1530.15 1332.58C1530.15 1389.41 1552.73 1443.91 1592.91 1484.09C1633.1 1524.27 1687.6 1546.85 1744.42 1546.85V1332.58" fill="#EFEEEA"/>
<path d="M1958.69 1332.58H1744.42V1546.85H1958.69V1332.58Z" fill="#AEA896"/>
<path d="M1744.42 1332.58H1958.69L1744.42 1546.85V1332.58Z" fill="#E8E6E2"/>
<path d="M2173 1332.58H1958.73V1546.85H2173V1332.58Z" fill="#C0BCAE"/>
<path d="M1958.73 1546.85C1958.73 1518.71 1964.27 1490.85 1975.04 1464.85C1985.81 1438.85 2001.59 1415.23 2021.49 1395.34C2061.67 1355.15 2116.17 1332.58 2173 1332.58L1958.73 1546.85C2015.56 1546.85 2070.06 1524.27 2110.24 1484.09C2150.43 1443.91 2173 1389.41 2173 1332.58" fill="#887964"/>
<path d="M887.268 1546.85H673V1761.11H887.268V1546.85Z" fill="#BAB2A6"/>
<path d="M887.268 1546.85H673V1761.11H887.268V1546.85Z" fill="#958D77"/>
<path d="M1101.57 1546.86H887.286V1761.14H1101.57V1546.86Z" fill="white"/>
<path d="M994.423 1546.85H887.269V1654H994.423V1546.85Z" fill="#CDC9BE"/>
<path d="M914.057 1546.85H940.846L914.057 1573.63L887.269 1600.42V1573.63L914.057 1546.85Z" fill="#BFBAAD"/>
<path d="M994.423 1627.21V1654H967.635L994.423 1627.21Z" fill="#BFBAAD"/>
<path d="M994.423 1573.63V1600.42L967.635 1627.21L940.846 1654H914.058L994.423 1573.63Z" fill="#BFBAAD"/>
<path d="M967.634 1546.85H994.423L914.057 1627.21L887.269 1654V1627.21L967.634 1546.85Z" fill="#BFBAAD"/>
<path d="M1101.58 1546.85H994.423V1654H1101.58V1546.85Z" fill="#E3B0A0"/>
<path d="M994.423 1546.85H1101.58V1654L994.423 1546.85Z" fill="#ECCABF"/>
<path d="M994.423 1654H887.269V1761.15H994.423V1654Z" fill="#A09585"/>
<path d="M914.057 1654H940.846L914.057 1680.79L887.269 1707.58V1680.79L914.057 1654Z" fill="#ABA193"/>
<path d="M994.423 1734.37V1761.15H967.635L994.423 1734.37Z" fill="#ABA193"/>
<path d="M994.423 1680.79V1707.58L967.635 1734.37L940.846 1761.15H914.058L994.423 1680.79Z" fill="#ABA193"/>
<path d="M967.634 1654H994.423L914.057 1734.37L887.269 1761.16V1734.37L967.634 1654Z" fill="#ABA193"/>
<path d="M1101.58 1654H994.423V1761.15H1101.58V1654Z" fill="#EDE8DB"/>
<path d="M1101.58 1654H994.423V1761.15H1101.58V1654Z" fill="#DBD1B6"/>
<path d="M1315.85 1546.85H1101.58V1761.11H1315.85V1546.85Z" fill="#DBD1B7"/>
<path d="M1315.85 1546.85H1101.58V1761.11H1315.85V1546.85Z" fill="#D07C61"/>
<path d="M1530.14 1546.86H1315.86V1761.14H1530.14V1546.86Z" fill="white"/>
<path d="M1423 1546.85H1315.85V1654H1423V1546.85Z" fill="#C3BFB2"/>
<path d="M1315.85 1654C1315.85 1639.93 1318.62 1625.99 1324 1612.99C1329.39 1599.99 1337.28 1588.18 1347.23 1578.23C1357.18 1568.28 1368.99 1560.39 1381.99 1555C1394.99 1549.62 1408.93 1546.85 1423 1546.85V1654" fill="#E4B4A5"/>
<path d="M1530.15 1546.85H1423V1654H1530.15V1546.85Z" fill="#FDFCFB"/>
<path d="M1423 1546.85H1530.15V1654L1423 1546.85Z" fill="#DBD1B7"/>
<path d="M1423 1654H1315.85V1761.15H1423V1654Z" fill="#EBC8BD"/>
<path d="M1423 1654H1315.85V1761.15H1423V1654Z" fill="#F0EBE0"/>
<path d="M1530.15 1654H1423V1761.15H1530.15V1654Z" fill="#A09585"/>
<path d="M1476.58 1654L1530.15 1707.58L1476.58 1761.15L1423 1707.58L1476.58 1654Z" fill="#F6F5F3"/>
<path d="M1744.42 1546.85H1530.15V1761.11H1744.42V1546.85Z" fill="#DA9781"/>
<path d="M1637.29 1546.85L1744.42 1653.98L1637.29 1761.11L1530.15 1653.98L1637.29 1546.85Z" fill="#FEFBFA"/>
<path d="M1958.69 1546.85H1744.42V1761.11H1958.69V1546.85Z" fill="#B8B3A4"/>
<path d="M1744.42 1546.85C1801.25 1546.85 1855.75 1569.42 1895.93 1609.6C1936.12 1649.79 1958.69 1704.29 1958.69 1761.11L1744.42 1546.85C1744.42 1603.67 1767 1658.17 1807.18 1698.36C1847.36 1738.54 1901.86 1761.11 1958.69 1761.11" fill="#DFD6BF"/>
<path d="M2173 1546.85H1958.73V1761.11H2173V1546.85Z" fill="#E9E2D2"/>
<path d="M2012.3 1546.85H2065.87L2012.3 1600.41L1958.73 1653.98V1600.41L2012.3 1546.85Z" fill="white"/>
<path d="M2173 1707.55V1761.11H2119.43L2173 1707.55Z" fill="white"/>
<path d="M2173 1600.41V1653.98L2119.43 1707.55L2065.87 1761.11H2012.3L2173 1600.41Z" fill="white"/>
<path d="M2119.43 1546.85H2173L2012.3 1707.55L1958.73 1761.12V1707.55L2119.43 1546.85Z" fill="white"/>
<path d="M887.268 1761.15H673V1975.42H887.268V1761.15Z" fill="#CEC8C0"/>
<path d="M780.134 1761.15L887.268 1868.29L780.134 1975.42L673 1868.29L780.134 1761.15Z" fill="#CA6A4B"/>
<path d="M1101.54 1761.15H887.269V1975.42H1101.54V1761.15Z" fill="#E4E2DC"/>
<path d="M887.269 1975.42C887.269 1918.6 909.843 1864.1 950.026 1823.91C990.209 1783.73 1044.71 1761.15 1101.54 1761.15V1975.42" fill="#F6F4ED"/>
<path d="M1315.85 1761.15H1101.58V1975.42H1315.85V1761.15Z" fill="#928572"/>
<path d="M1155.14 1761.15H1208.71L1155.14 1814.72L1101.58 1868.29V1814.72L1155.14 1761.15Z" fill="#D7D4CC"/>
<path d="M1315.85 1921.86V1975.42H1262.28L1315.85 1921.86Z" fill="#D7D4CC"/>
<path d="M1315.85 1814.72V1868.29L1262.28 1921.85L1208.71 1975.42H1155.14L1315.85 1814.72Z" fill="#D7D4CC"/>
<path d="M1262.28 1761.15H1315.85L1155.14 1921.86L1101.58 1975.42V1921.86L1262.28 1761.15Z" fill="#D7D4CC"/>
<path d="M1530.11 1761.15H1315.85V1975.42H1530.11V1761.15Z" fill="#EFD4CB"/>
<path d="M1315.85 1975.42C1315.85 1918.6 1338.42 1864.1 1378.6 1823.91C1418.79 1783.73 1473.29 1761.15 1530.11 1761.15L1315.85 1975.42C1343.98 1975.42 1371.85 1969.88 1397.84 1959.11C1423.84 1948.34 1447.46 1932.56 1467.36 1912.66C1487.25 1892.77 1503.04 1869.15 1513.8 1843.15C1524.57 1817.16 1530.11 1789.29 1530.11 1761.15" fill="#E3DBC7"/>
<path d="M1744.42 1761.15H1530.15V1975.42H1744.42V1761.15Z" fill="#CBC5BC"/>
<path d="M1744.42 1761.15V1975.42H1530.15L1744.42 1761.15Z" fill="#DCD9D2"/>
<path d="M1958.69 1761.15H1744.42V1975.42H1958.69V1761.15Z" fill="#B6B1A1"/>
<path d="M1744.42 1761.15C1801.25 1761.15 1855.75 1783.73 1895.93 1823.91C1936.12 1864.1 1958.69 1918.6 1958.69 1975.42L1744.42 1761.15C1744.42 1817.98 1767 1872.48 1807.18 1912.66C1847.36 1952.85 1901.86 1975.42 1958.69 1975.42" fill="#E3DAC5"/>
<path d="M2173 1761.15H1958.73V1975.42H2173V1761.15Z" fill="#A8A28F"/>
<path d="M2012.3 1761.15H2065.87L2012.3 1814.72L1958.73 1868.29V1814.72L2012.3 1761.15Z" fill="#D6D3CB"/>
<path d="M2173 1921.86V1975.42H2119.43L2173 1921.86Z" fill="#D6D3CB"/>
<path d="M2173 1814.72V1868.29L2119.43 1921.85L2065.87 1975.42H2012.3L2173 1814.72Z" fill="#D6D3CB"/>
<path d="M2119.43 1761.15H2173L2012.3 1921.86L1958.73 1975.42V1921.86L2119.43 1761.15Z" fill="#D6D3CB"/>
<path d="M887.268 1975.42H673V2189.69H887.268V1975.42Z" fill="#99917B"/>
<path d="M673 1975.42H887.268V2189.69L673 1975.42Z" fill="#F3EFE6"/>
<path d="M1101.54 1975.42H887.269V2189.69H1101.54V1975.42Z" fill="#F2DCD5"/>
<path d="M994.403 1975.42L1101.54 2082.56L994.403 2189.69L887.269 2082.56L994.403 1975.42Z" fill="#83745E"/>
<path d="M1315.85 1975.42H1101.58V2189.69H1315.85V1975.42Z" fill="#FFFFFE"/>
<path d="M1208.71 1975.42L1315.85 2082.56L1208.71 2189.69L1101.58 2082.56L1208.71 1975.42Z" fill="#DFD5BD"/>
<path d="M1530.11 1975.42H1315.85V2189.69H1530.11V1975.42Z" fill="#F5F3F2"/>
<path d="M1530.11 1975.42H1315.85V2189.69H1530.11V1975.42Z" fill="#F7F4EE"/>
<path d="M1744.42 1975.42H1530.15V2189.69H1744.42V1975.42Z" fill="#DFD6BF"/>
<path d="M1530.15 1975.42L1744.42 2189.69H1530.15V1975.42Z" fill="#C55E3D"/>
<path d="M1958.69 1975.42H1744.42V2189.69H1958.69V1975.42Z" fill="#ABA192"/>
<path d="M1958.69 1975.42H1744.42V2189.69H1958.69V1975.42Z" fill="#F8F6F0"/>
<path d="M2173 1975.43H1958.71V2189.72H2173V1975.43Z" fill="white"/>
<path d="M2065.89 1975.42H1958.73V2082.58H2065.89V1975.42Z" fill="#EFEEEB"/>
<path d="M1985.52 1975.42H2012.31L1985.52 2002.21L1958.73 2029V2002.21L1985.52 1975.42Z" fill="#A29786"/>
<path d="M2065.89 2055.79V2082.58H2039.1L2065.89 2055.79Z" fill="#A29786"/>
<path d="M2065.89 2002.21V2029L2039.1 2055.79L2012.31 2082.58H1985.52L2065.89 2002.21Z" fill="#A29786"/>
<path d="M2039.1 1975.42H2065.89L1985.52 2055.79L1958.73 2082.58V2055.79L2039.1 1975.42Z" fill="#A29786"/>
<path d="M2173 1975.42H2065.85V2082.58H2173V1975.42Z" fill="#B3A99C"/>
<path d="M2119.42 1975.42L2173 2029L2119.42 2082.58L2065.85 2029L2119.42 1975.42Z" fill="#D8947D"/>
<path d="M2065.89 2082.58H1958.73V2189.73H2065.89V2082.58Z" fill="#E2D9C4"/>
<path d="M1958.73 2082.58H2065.89V2189.73L1958.73 2082.58Z" fill="#E7E5DF"/>
<path d="M2173 2082.58H2065.85V2189.73H2173V2082.58Z" fill="#E6BAAC"/>
<path d="M2092.63 2082.58H2119.42L2092.63 2109.36L2065.85 2136.15V2109.36L2092.63 2082.58Z" fill="#DCD2B8"/>
<path d="M2173 2162.94V2189.73H2146.21L2173 2162.94Z" fill="#DCD2B8"/>
<path d="M2173 2109.37V2136.15L2146.21 2162.94L2119.42 2189.73H2092.63L2173 2109.37Z" fill="#DCD2B8"/>
<path d="M2146.21 2082.58H2173L2092.63 2162.94L2065.85 2189.73V2162.94L2146.21 2082.58Z" fill="#DCD2B8"/>
<path d="M887.268 2189.73H673V2404H887.268V2189.73Z" fill="#FEFEFD"/>
<path d="M673 2189.73H887.268V2404L673 2189.73Z" fill="#CA6B4C"/>
<path d="M1101.57 2189.71H887.286V2404H1101.57V2189.71Z" fill="white"/>
<path d="M994.423 2189.73H887.269V2296.89H994.423V2189.73Z" fill="#C5BEB3"/>
<path d="M914.057 2189.73H940.846L914.057 2216.52L887.269 2243.31V2216.52L914.057 2189.73Z" fill="#E0DED7"/>
<path d="M994.423 2270.1V2296.89H967.635L994.423 2270.1Z" fill="#E0DED7"/>
<path d="M994.423 2216.52V2243.31L967.635 2270.1L940.846 2296.89H914.058L994.423 2216.52Z" fill="#E0DED7"/>
<path d="M967.634 2189.73H994.423L914.057 2270.1L887.269 2296.89V2270.1L967.634 2189.73Z" fill="#E0DED7"/>
<path d="M1101.58 2189.73H994.423V2296.89H1101.58V2189.73Z" fill="#C25633"/>
<path d="M1101.58 2189.73H994.423V2296.89H1101.58V2189.73Z" fill="#E3B1A0"/>
<path d="M994.423 2296.85H887.269V2404H994.423V2296.85Z" fill="#E1AD9C"/>
<path d="M887.269 2296.85C901.34 2296.85 915.274 2299.62 928.275 2305C941.275 2310.39 953.088 2318.28 963.038 2328.23C972.988 2338.18 980.881 2349.99 986.266 2362.99C991.651 2375.99 994.423 2389.93 994.423 2404L887.269 2296.85C887.269 2325.26 898.558 2352.52 918.653 2372.62C938.749 2392.71 966.004 2404 994.423 2404" fill="#DB9A85"/>
<path d="M1101.58 2296.85H994.423V2404H1101.58V2296.85Z" fill="#E1D9C3"/>
<path d="M994.423 2296.85C1008.49 2296.85 1022.43 2299.62 1035.43 2305C1048.43 2310.39 1060.24 2318.28 1070.19 2328.23C1080.14 2338.18 1088.04 2349.99 1093.42 2362.99C1098.81 2375.99 1101.58 2389.93 1101.58 2404L994.423 2296.85C994.423 2325.26 1005.71 2352.52 1025.81 2372.62C1045.9 2392.71 1073.16 2404 1101.58 2404" fill="#8F826E"/>
<path d="M1315.85 2189.73H1101.58V2404H1315.85V2189.73Z" fill="#A49D89"/>
<path d="M1315.85 2189.73H1101.58V2404H1315.85V2189.73Z" fill="#A19A85"/>
<path d="M1530.11 2189.73H1315.85V2404H1530.11V2189.73Z" fill="#C1BDAF"/>
<path d="M1315.85 2189.73C1343.98 2189.73 1371.85 2195.27 1397.84 2206.04C1423.84 2216.81 1447.46 2232.59 1467.36 2252.49C1487.25 2272.39 1503.04 2296.01 1513.8 2322C1524.57 2348 1530.11 2375.86 1530.11 2404H1315.85" fill="#E6B9AA"/>
<path d="M1744.42 2189.73H1530.15V2404H1744.42V2189.73Z" fill="#887965"/>
<path d="M1530.15 2189.73C1530.15 2246.56 1552.73 2301.06 1592.91 2341.24C1633.1 2381.43 1687.6 2404 1744.42 2404V2189.73" fill="#F8ECE8"/>
<path d="M1958.69 2189.73H1744.42V2404H1958.69V2189.73Z" fill="#99927C"/>
<path d="M1851.56 2189.73L1958.69 2296.87L1851.56 2404L1744.42 2296.87L1851.56 2189.73Z" fill="#F2F1EF"/>
<path d="M2173 2189.73H1958.73V2404H2173V2189.73Z" fill="#CE7559"/>
<path d="M2065.87 2189.73L2173 2296.87L2065.87 2404L1958.73 2296.87L2065.87 2189.73Z" fill="#E5B8A9"/>
<path d="M887.268 2404H673V2618.27H887.268V2404Z" fill="#FCFBF9"/>
<path d="M726.567 2404H780.134L726.567 2457.57L673 2511.13V2457.57L726.567 2404Z" fill="#F8F7F5"/>
<path d="M887.268 2564.7V2618.27H833.701L887.268 2564.7Z" fill="#F8F7F5"/>
<path d="M887.269 2457.57V2511.13L833.702 2564.7L780.135 2618.27H726.567L887.269 2457.57Z" fill="#F8F7F5"/>
<path d="M833.701 2404H887.268L726.567 2564.7L673 2618.27V2564.7L833.701 2404Z" fill="#F8F7F5"/>
<path d="M1101.54 2404H887.269V2618.27H1101.54V2404Z" fill="#EBE5D7"/>
<path d="M887.269 2404C887.269 2460.83 909.843 2515.33 950.026 2555.51C990.209 2595.69 1044.71 2618.27 1101.54 2618.27V2404" fill="#C4C0B3"/>
<path d="M1315.85 2404H1101.58V2618.27H1315.85V2404Z" fill="#F1D7CF"/>
<path d="M1315.85 2404H1101.58V2618.27H1315.85V2404Z" fill="#D07D63"/>
<path d="M1530.11 2404H1315.85V2618.27H1530.11V2404Z" fill="#9D9180"/>
<path d="M1315.85 2404L1530.11 2618.27H1315.85V2404Z" fill="#F7E8E3"/>
<path d="M1744.43 2404H1530.14V2618.29H1744.43V2404Z" fill="white"/>
<path d="M1637.31 2404H1530.15V2511.15H1637.31V2404Z" fill="#CFCCC2"/>
<path d="M1637.31 2404V2511.15H1530.15L1637.31 2404Z" fill="#847560"/>
<path d="M1744.42 2404H1637.27V2511.15H1744.42V2404Z" fill="#F8F6F1"/>
<path d="M1744.42 2404V2511.15H1637.27L1744.42 2404Z" fill="#FAFAF9"/>
<path d="M1637.31 2511.15H1530.15V2618.31H1637.31V2511.15Z" fill="#F2F1EE"/>
<path d="M1530.15 2511.15L1637.31 2618.31H1530.15V2511.15Z" fill="#F9F7F3"/>
<path d="M1744.42 2511.15H1637.27V2618.31H1744.42V2511.15Z" fill="#D3CDC6"/>
<path d="M1637.27 2511.15L1744.42 2618.31H1637.27V2511.15Z" fill="#E3E0DB"/>
<path d="M1958.71 2404H1744.43V2618.29H1958.71V2404Z" fill="white"/>
<path d="M1851.58 2404H1744.42V2511.15H1851.58V2404Z" fill="#CDC9BF"/>
<path d="M1851.58 2404H1744.42V2511.15H1851.58V2404Z" fill="#D2CFC5"/>
<path d="M1958.73 2404H1851.58V2511.15H1958.73V2404Z" fill="#A59A8B"/>
<path d="M1878.37 2404H1905.15L1878.37 2430.79L1851.58 2457.58V2430.79L1878.37 2404Z" fill="#EDEBE8"/>
<path d="M1958.73 2484.37V2511.15H1931.94L1958.73 2484.37Z" fill="#EDEBE8"/>
<path d="M1958.73 2430.79V2457.58L1931.94 2484.37L1905.15 2511.15H1878.37L1958.73 2430.79Z" fill="#EDEBE8"/>
<path d="M1931.94 2404H1958.73L1878.37 2484.37L1851.58 2511.16V2484.37L1931.94 2404Z" fill="#EDEBE8"/>
<path d="M1851.58 2511.15H1744.42V2618.31H1851.58V2511.15Z" fill="#FDFCFB"/>
<path d="M1798 2511.15L1851.58 2564.73L1798 2618.31L1744.42 2564.73L1798 2511.15Z" fill="#B3AE9D"/>
<path d="M1958.73 2511.15H1851.58V2618.31H1958.73V2511.15Z" fill="#D4CFC7"/>
<path d="M1878.37 2511.15H1905.15L1878.37 2537.94L1851.58 2564.73V2537.94L1878.37 2511.15Z" fill="#7C6C55"/>
<path d="M1958.73 2591.52V2618.31H1931.94L1958.73 2591.52Z" fill="#7C6C55"/>
<path d="M1958.73 2537.94V2564.73L1931.94 2591.52L1905.15 2618.31H1878.37L1958.73 2537.94Z" fill="#7C6C55"/>
<path d="M1931.94 2511.15H1958.73L1878.37 2591.52L1851.58 2618.31V2591.52L1931.94 2511.15Z" fill="#7C6C55"/>
<path d="M2173 2404H1958.73V2618.27H2173V2404Z" fill="#B3AD9D"/>
<path d="M2065.87 2404L2173 2511.13L2065.87 2618.27L1958.73 2511.13L2065.87 2404Z" fill="#EEEDE9"/>
<path d="M887.268 2618.27H673V2832.54H887.268V2618.27Z" fill="#9B8F7D"/>
<path d="M780.134 2618.27L887.268 2725.4L780.134 2832.54L673 2725.4L780.134 2618.27Z" fill="#E3DBC7"/>
<path d="M1101.54 2618.27H887.269V2832.54H1101.54V2618.27Z" fill="#F2EEE4"/>
<path d="M887.269 2618.27L1101.54 2832.54H887.269V2618.27Z" fill="#F5F4F3"/>
<path d="M1315.86 2618.29H1101.57V2832.57H1315.86V2618.29Z" fill="white"/>
<path d="M1208.73 2618.27H1101.58V2725.42H1208.73V2618.27Z" fill="#A79C8D"/>
<path d="M1128.37 2618.27H1155.15L1128.37 2645.06L1101.58 2671.84V2645.06L1128.37 2618.27Z" fill="#B7B1A2"/>
<path d="M1208.73 2698.63V2725.42H1181.94L1208.73 2698.63Z" fill="#B7B1A2"/>
<path d="M1208.73 2645.06V2671.85L1181.94 2698.63L1155.15 2725.42H1128.37L1208.73 2645.06Z" fill="#B7B1A2"/>
<path d="M1181.94 2618.27H1208.73L1128.37 2698.63L1101.58 2725.42V2698.63L1181.94 2618.27Z" fill="#B7B1A2"/>
<path d="M1315.89 2618.27H1208.73V2725.42H1315.89V2618.27Z" fill="#DDA28E"/>
<path d="M1208.73 2725.42C1208.73 2697 1220.02 2669.75 1240.12 2649.65C1260.21 2629.56 1287.47 2618.27 1315.89 2618.27L1208.73 2725.42C1237.15 2725.42 1264.41 2714.13 1284.5 2694.04C1304.6 2673.94 1315.89 2646.69 1315.89 2618.27" fill="#E9E7E3"/>
<path d="M1208.73 2725.42H1101.58V2832.58H1208.73V2725.42Z" fill="#E8E5E1"/>
<path d="M1101.58 2832.58C1101.58 2818.5 1104.35 2804.57 1109.73 2791.57C1115.12 2778.57 1123.01 2766.76 1132.96 2756.81C1142.91 2746.86 1154.72 2738.96 1167.73 2733.58C1180.73 2728.19 1194.66 2725.42 1208.73 2725.42L1101.58 2832.58C1115.65 2832.58 1129.58 2829.8 1142.58 2824.42C1155.58 2819.03 1167.4 2811.14 1177.35 2801.19C1187.3 2791.24 1195.19 2779.43 1200.57 2766.43C1205.96 2753.43 1208.73 2739.49 1208.73 2725.42" fill="#9E9382"/>
<path d="M1315.89 2725.42H1208.73V2832.58H1315.89V2725.42Z" fill="#9E9382"/>
<path d="M1315.89 2725.42H1208.73V2832.58H1315.89V2725.42Z" fill="#ECCBC0"/>
<path d="M1530.14 2618.29H1315.86V2832.57H1530.14V2618.29Z" fill="white"/>
<path d="M1423 2618.27H1315.85V2725.42H1423V2618.27Z" fill="#EAC4B8"/>
<path d="M1315.85 2725.42C1315.85 2711.35 1318.62 2697.42 1324 2684.42C1329.39 2671.42 1337.28 2659.6 1347.23 2649.65C1357.18 2639.7 1368.99 2631.81 1381.99 2626.42C1394.99 2621.04 1408.93 2618.27 1423 2618.27V2725.42" fill="#ACA694"/>
<path d="M1530.15 2618.27H1423V2725.42H1530.15V2618.27Z" fill="#DDDAD3"/>
<path d="M1449.79 2618.27H1476.58L1449.79 2645.06L1423 2671.84V2645.06L1449.79 2618.27Z" fill="#C2BBB0"/>
<path d="M1530.15 2698.63V2725.42H1503.37L1530.15 2698.63Z" fill="#C2BBB0"/>
<path d="M1530.15 2645.06V2671.85L1503.37 2698.63L1476.58 2725.42H1449.79L1530.15 2645.06Z" fill="#C2BBB0"/>
<path d="M1503.37 2618.27H1530.15L1449.79 2698.63L1423 2725.42V2698.63L1503.37 2618.27Z" fill="#C2BBB0"/>
<path d="M1423 2725.42H1315.85V2832.58H1423V2725.42Z" fill="#D2CDC5"/>
<path d="M1315.85 2832.58C1315.85 2818.5 1318.62 2804.57 1324 2791.57C1329.39 2778.57 1337.28 2766.76 1347.23 2756.81C1357.18 2746.86 1368.99 2738.96 1381.99 2733.58C1394.99 2728.19 1408.93 2725.42 1423 2725.42L1315.85 2832.58C1344.26 2832.58 1371.52 2821.29 1391.62 2801.19C1411.71 2781.1 1423 2753.84 1423 2725.42" fill="#F8ECE8"/>
<path d="M1530.15 2725.42H1423V2832.58H1530.15V2725.42Z" fill="#DBD1B6"/>
<path d="M1423 2725.42H1530.15V2832.58L1423 2725.42Z" fill="#A39888"/>
<path d="M1744.42 2618.27H1530.15V2832.54H1744.42V2618.27Z" fill="#C76444"/>
<path d="M1530.15 2618.27H1744.42V2832.54L1530.15 2618.27Z" fill="#80715B"/>
<path d="M1958.69 2618.27H1744.42V2832.54H1958.69V2618.27Z" fill="#C0B8AD"/>
<path d="M1851.56 2618.27L1958.69 2725.4L1851.56 2832.54L1744.42 2725.4L1851.56 2618.27Z" fill="#D2CDC5"/>
<path d="M2173 2618.27H1958.73V2832.54H2173V2618.27Z" fill="#ACA694"/>
<path d="M2065.87 2618.27L2173 2725.4L2065.87 2832.54L1958.73 2725.4L2065.87 2618.27Z" fill="#A39C88"/>
<path d="M887.268 2832.58H673V3046.85H887.268V2832.58Z" fill="#E6E4DE"/>
<path d="M673 3046.85C673 2990.02 695.575 2935.52 735.758 2895.34C775.941 2855.15 830.441 2832.58 887.268 2832.58L673 3046.85C729.828 3046.85 784.328 3024.27 824.511 2984.09C864.694 2943.91 887.268 2889.41 887.268 2832.58" fill="#FEFEFD"/>
<path d="M1101.54 2832.58H887.269V3046.85H1101.54V2832.58Z" fill="#FBFAFA"/>
<path d="M887.269 2832.58H1101.54V3046.85L887.269 2832.58Z" fill="#FAF9F6"/>
<path d="M1315.85 2832.58H1101.58V3046.85H1315.85V2832.58Z" fill="#F1D9D1"/>
<path d="M1101.58 2832.58H1315.85V3046.85L1101.58 2832.58Z" fill="#CCC8BD"/>
<path d="M1530.11 2832.58H1315.85V3046.85H1530.11V2832.58Z" fill="#FBFAF9"/>
<path d="M1315.85 2832.58C1343.98 2832.58 1371.85 2838.12 1397.84 2848.89C1423.84 2859.66 1447.46 2875.44 1467.36 2895.34C1487.25 2915.23 1503.04 2938.85 1513.8 2964.85C1524.57 2990.85 1530.11 3018.71 1530.11 3046.85L1315.85 2832.58C1315.85 2889.41 1338.42 2943.91 1378.6 2984.09C1418.79 3024.27 1473.29 3046.85 1530.11 3046.85" fill="#E2DFDA"/>
<path d="M1744.42 2832.58H1530.15V3046.85H1744.42V2832.58Z" fill="#ABA193"/>
<path d="M1530.15 2832.58L1744.42 3046.85H1530.15V2832.58Z" fill="#8D7F6B"/>
<path d="M1958.71 2832.57H1744.43V3046.86H1958.71V2832.57Z" fill="white"/>
<path d="M1851.58 2832.58H1744.42V2939.73H1851.58V2832.58Z" fill="#C2BBB0"/>
<path d="M1798 2832.58L1851.58 2886.16L1798 2939.73L1744.42 2886.16L1798 2832.58Z" fill="#F6F4EE"/>
<path d="M1958.73 2832.58H1851.58V2939.73H1958.73V2832.58Z" fill="#FBFAF7"/>
<path d="M1851.58 2939.73C1851.58 2911.31 1862.87 2884.06 1882.96 2863.96C1903.06 2843.87 1930.31 2832.58 1958.73 2832.58L1851.58 2939.73C1880 2939.73 1907.25 2928.44 1927.35 2908.35C1947.44 2888.25 1958.73 2861 1958.73 2832.58" fill="#F0EEEB"/>
<path d="M1851.58 2939.73H1744.42V3046.89H1851.58V2939.73Z" fill="#C0502B"/>
<path d="M1798 2939.73L1851.58 2993.31L1798 3046.89L1744.42 2993.31L1798 2939.73Z" fill="#E8BFB2"/>
<path d="M1958.73 2939.73H1851.58V3046.89H1958.73V2939.73Z" fill="#FCFBF9"/>
<path d="M1958.73 2939.73H1851.58V3046.89H1958.73V2939.73Z" fill="#EBE9E5"/>
<path d="M2173 2832.58H1958.73V3046.85H2173V2832.58Z" fill="#E4B3A3"/>
<path d="M1958.73 2832.58C2015.56 2832.58 2070.06 2855.15 2110.24 2895.34C2150.43 2935.52 2173 2990.02 2173 3046.85L1958.73 2832.58C1958.73 2889.41 1981.31 2943.91 2021.49 2984.09C2061.67 3024.27 2116.17 3046.85 2173 3046.85" fill="#B3AD9D"/>
<path d="M887.268 3046.85H673V3261.11H887.268V3046.85Z" fill="#DED4BC"/>
<path d="M673 3261.11C673 3204.29 695.575 3149.79 735.758 3109.6C775.941 3069.42 830.441 3046.85 887.268 3046.85L673 3261.11C729.828 3261.11 784.328 3238.54 824.511 3198.36C864.694 3158.17 887.268 3103.67 887.268 3046.85" fill="#E7E0CE"/>
<path d="M1101.54 3046.85H887.269V3261.11H1101.54V3046.85Z" fill="#E2E0DA"/>
<path d="M940.836 3046.85H994.403L940.836 3100.41L887.269 3153.98V3100.41L940.836 3046.85Z" fill="#E2D9C3"/>
<path d="M1101.54 3207.55V3261.11H1047.97L1101.54 3207.55Z" fill="#E2D9C3"/>
<path d="M1101.54 3100.41V3153.98L1047.97 3207.55L994.403 3261.11H940.836L1101.54 3100.41Z" fill="#E2D9C3"/>
<path d="M1047.97 3046.85H1101.54L940.836 3207.55L887.269 3261.12V3207.55L1047.97 3046.85Z" fill="#E2D9C3"/>
<path d="M1315.85 3046.85H1101.58V3261.11H1315.85V3046.85Z" fill="#F0EEEB"/>
<path d="M1101.58 3261.11C1158.4 3261.11 1212.9 3238.54 1253.09 3198.36C1293.27 3158.17 1315.85 3103.67 1315.85 3046.85H1101.58" fill="#E1DED8"/>
<path d="M1530.11 3046.85H1315.85V3261.11H1530.11V3046.85Z" fill="#DA9882"/>
<path d="M1315.85 3261.11C1343.98 3261.11 1371.85 3255.57 1397.84 3244.8C1423.84 3234.04 1447.46 3218.25 1467.36 3198.36C1487.25 3178.46 1503.04 3154.84 1513.8 3128.84C1524.57 3102.85 1530.11 3074.98 1530.11 3046.85H1315.85" fill="#7C6C56"/>
<path d="M1744.42 3046.85H1530.15V3261.11H1744.42V3046.85Z" fill="#F9EDE9"/>
<path d="M1744.42 3046.85H1530.15V3261.11H1744.42V3046.85Z" fill="#ADA695"/>
<path d="M1958.69 3046.85H1744.42V3261.11H1958.69V3046.85Z" fill="#F1F0ED"/>
<path d="M1958.69 3046.85V3261.11H1744.42L1958.69 3046.85Z" fill="#E0D7C0"/>
<path d="M2173 3046.85H1958.73V3261.11H2173V3046.85Z" fill="#9D9681"/>
<path d="M1958.73 3261.11C1958.73 3204.29 1981.31 3149.79 2021.49 3109.6C2061.67 3069.42 2116.17 3046.85 2173 3046.85V3261.11" fill="#CD7458"/>
<path d="M887.286 3261.14H673V3475.43H887.286V3261.14Z" fill="white"/>
<path d="M780.154 3261.15H673V3368.31H780.154V3261.15Z" fill="#857661"/>
<path d="M699.789 3261.15H726.577L699.789 3287.94L673 3314.73V3287.94L699.789 3261.15Z" fill="#D8D5CD"/>
<path d="M780.155 3341.52V3368.31H753.366L780.155 3341.52Z" fill="#D8D5CD"/>
<path d="M780.155 3287.94V3314.73L753.366 3341.52L726.578 3368.31H699.789L780.155 3287.94Z" fill="#D8D5CD"/>
<path d="M753.366 3261.15H780.154L699.789 3341.52L673 3368.31V3341.52L753.366 3261.15Z" fill="#D8D5CD"/>
<path d="M887.309 3261.15H780.154V3368.31H887.309V3261.15Z" fill="#81725C"/>
<path d="M780.154 3261.15H887.309V3368.31L780.154 3261.15Z" fill="#FEFEFD"/>
<path d="M780.154 3368.27H673V3475.42H780.154V3368.27Z" fill="#D58C74"/>
<path d="M673 3475.42C673 3447 684.289 3419.75 704.385 3399.65C724.48 3379.56 751.735 3368.27 780.154 3368.27L673 3475.42C701.419 3475.42 728.674 3464.13 748.77 3444.04C768.865 3423.94 780.154 3396.69 780.154 3368.27" fill="#FDFCFA"/>
<path d="M887.309 3368.27H780.154V3475.42H887.309V3368.27Z" fill="#FBFAFA"/>
<path d="M833.731 3368.27L887.309 3421.85L833.731 3475.42L780.154 3421.85L833.731 3368.27Z" fill="#E2DAC4"/>
<path d="M1101.57 3261.14H887.286V3475.43H1101.57V3261.14Z" fill="white"/>
<path d="M994.423 3261.15H887.269V3368.31H994.423V3261.15Z" fill="#E3DFDB"/>
<path d="M887.269 3261.15C887.269 3289.57 898.558 3316.83 918.653 3336.92C938.749 3357.02 966.004 3368.31 994.423 3368.31V3261.15" fill="#978F79"/>
<path d="M1101.58 3261.15H994.423V3368.31H1101.58V3261.15Z" fill="#AEA597"/>
<path d="M1021.21 3261.15H1048L1021.21 3287.94L994.423 3314.73V3287.94L1021.21 3261.15Z" fill="#EFEDEB"/>
<path d="M1101.58 3341.52V3368.31H1074.79L1101.58 3341.52Z" fill="#EFEDEB"/>
<path d="M1101.58 3287.94V3314.73L1074.79 3341.52L1048 3368.31H1021.21L1101.58 3287.94Z" fill="#EFEDEB"/>
<path d="M1074.79 3261.15H1101.58L1021.21 3341.52L994.423 3368.31V3341.52L1074.79 3261.15Z" fill="#EFEDEB"/>
<path d="M994.423 3368.27H887.269V3475.42H994.423V3368.27Z" fill="#E9E2D2"/>
<path d="M940.846 3368.27L994.423 3421.85L940.846 3475.42L887.269 3421.85L940.846 3368.27Z" fill="#E6E3DF"/>
<path d="M1101.58 3368.27H994.423V3475.42H1101.58V3368.27Z" fill="#A79D8E"/>
<path d="M1048 3368.27L1101.58 3421.85L1048 3475.42L994.423 3421.85L1048 3368.27Z" fill="#C7C1B7"/>
<path d="M1315.86 3261.14H1101.57V3475.43H1315.86V3261.14Z" fill="white"/>
<path d="M1208.73 3261.15H1101.58V3368.31H1208.73V3261.15Z" fill="#D9947E"/>
<path d="M1101.58 3368.31C1101.58 3339.89 1112.87 3312.63 1132.96 3292.54C1153.06 3272.44 1180.31 3261.15 1208.73 3261.15L1101.58 3368.31C1115.65 3368.31 1129.58 3365.54 1142.58 3360.15C1155.58 3354.77 1167.4 3346.87 1177.35 3336.92C1187.3 3326.97 1195.19 3315.16 1200.57 3302.16C1205.96 3289.16 1208.73 3275.23 1208.73 3261.15" fill="#E6DFCC"/>
<path d="M1315.89 3261.15H1208.73V3368.31H1315.89V3261.15Z" fill="#FAF9F5"/>
<path d="M1315.89 3261.15H1208.73V3368.31H1315.89V3261.15Z" fill="#D6D3CA"/>
<path d="M1208.73 3368.27H1101.58V3475.42H1208.73V3368.27Z" fill="#EBE5D6"/>
<path d="M1101.58 3368.27H1208.73L1101.58 3475.42V3368.27Z" fill="#F4F1E9"/>
<path d="M1315.89 3368.27H1208.73V3475.42H1315.89V3368.27Z" fill="#BEB9AB"/>
<path d="M1262.31 3368.27L1315.89 3421.85L1262.31 3475.42L1208.73 3421.85L1262.31 3368.27Z" fill="#FBFAF7"/>
<path d="M1530.14 3261.14H1315.86V3475.43H1530.14V3261.14Z" fill="white"/>
<path d="M1423 3261.15H1315.85V3368.31H1423V3261.15Z" fill="#F4DFD8"/>
<path d="M1369.42 3261.15L1423 3314.73L1369.42 3368.31L1315.85 3314.73L1369.42 3261.15Z" fill="#F1ECE2"/>
<path d="M1530.15 3261.15H1423V3368.31H1530.15V3261.15Z" fill="#E0D7C0"/>
<path d="M1530.15 3261.15H1423V3368.31H1530.15V3261.15Z" fill="#F9EFEC"/>
<path d="M1423 3368.27H1315.85V3475.42H1423V3368.27Z" fill="#C9C3BA"/>
<path d="M1369.42 3368.27L1423 3421.85L1369.42 3475.42L1315.85 3421.85L1369.42 3368.27Z" fill="#DC9D89"/>
<path d="M1530.15 3368.27H1423V3475.42H1530.15V3368.27Z" fill="#F3F2EF"/>
<path d="M1423 3475.42C1451.42 3475.42 1478.67 3464.13 1498.77 3444.04C1518.86 3423.94 1530.15 3396.69 1530.15 3368.27H1423" fill="#D0CCC2"/>
<path d="M1744.43 3261.14H1530.14V3475.43H1744.43V3261.14Z" fill="white"/>
<path d="M1637.31 3261.15H1530.15V3368.31H1637.31V3261.15Z" fill="#FEFEFE"/>
<path d="M1583.73 3261.15L1637.31 3314.73L1583.73 3368.31L1530.15 3314.73L1583.73 3261.15Z" fill="#EEE9DD"/>
<path d="M1744.42 3261.15H1637.27V3368.31H1744.42V3261.15Z" fill="#B9B4A4"/>
<path d="M1637.27 3261.15C1665.69 3261.15 1692.94 3272.44 1713.04 3292.54C1733.13 3312.63 1744.42 3339.89 1744.42 3368.31L1637.27 3261.15C1637.27 3289.57 1648.56 3316.83 1668.65 3336.92C1688.75 3357.02 1716 3368.31 1744.42 3368.31" fill="#DB9A85"/>
<path d="M1637.31 3368.27H1530.15V3475.42H1637.31V3368.27Z" fill="#82735D"/>
<path d="M1530.15 3475.42C1530.15 3447 1541.44 3419.75 1561.54 3399.65C1581.63 3379.56 1608.89 3368.27 1637.31 3368.27L1530.15 3475.42C1544.23 3475.42 1558.16 3472.65 1571.16 3467.27C1584.16 3461.88 1595.97 3453.99 1605.92 3444.04C1615.87 3434.09 1623.77 3422.28 1629.15 3409.28C1634.54 3396.28 1637.31 3382.34 1637.31 3368.27" fill="#A59E8B"/>
<path d="M1744.42 3368.27H1637.27V3475.42H1744.42V3368.27Z" fill="#EEEADD"/>
<path d="M1637.27 3368.27L1744.42 3475.42H1637.27V3368.27Z" fill="#A39C88"/>
<path d="M1958.69 3261.15H1744.42V3475.42H1958.69V3261.15Z" fill="#8D7F6B"/>
<path d="M1958.69 3261.15H1744.42V3475.42H1958.69V3261.15Z" fill="#C96849"/>
<path d="M2173 3261.15H1958.73V3475.42H2173V3261.15Z" fill="#CDC7BF"/>
<path d="M1958.73 3475.42C1958.73 3447.28 1964.27 3419.42 1975.04 3393.43C1985.81 3367.43 2001.59 3343.81 2021.49 3323.91C2041.39 3304.02 2065.01 3288.23 2091 3277.46C2117 3266.7 2144.86 3261.15 2173 3261.15L1958.73 3475.42C2015.56 3475.42 2070.06 3452.85 2110.24 3412.67C2150.43 3372.48 2173 3317.98 2173 3261.15" fill="#DCD9D2"/>
<path d="M887.286 3475.43H673V3689.71H887.286V3475.43Z" fill="white"/>
<path d="M780.154 3475.42H673V3582.58H780.154V3475.42Z" fill="#E1DFD8"/>
<path d="M699.789 3475.42H726.577L699.789 3502.21L673 3529V3502.21L699.789 3475.42Z" fill="#8C7E6A"/>
<path d="M780.155 3555.79V3582.58H753.366L780.155 3555.79Z" fill="#8C7E6A"/>
<path d="M780.155 3502.21V3529L753.366 3555.79L726.578 3582.58H699.789L780.155 3502.21Z" fill="#8C7E6A"/>
<path d="M753.366 3475.42H780.154L699.789 3555.79L673 3582.58V3555.79L753.366 3475.42Z" fill="#8C7E6A"/>
<path d="M887.309 3475.42H780.154V3582.58H887.309V3475.42Z" fill="#F2D9D2"/>
<path d="M806.943 3475.42H833.731L806.943 3502.21L780.154 3529V3502.21L806.943 3475.42Z" fill="#83745E"/>
<path d="M887.309 3555.79V3582.58H860.521L887.309 3555.79Z" fill="#83745E"/>
<path d="M887.309 3502.21V3529L860.521 3555.79L833.732 3582.58H806.943L887.309 3502.21Z" fill="#83745E"/>
<path d="M860.52 3475.42H887.309L806.943 3555.79L780.154 3582.58V3555.79L860.52 3475.42Z" fill="#83745E"/>
<path d="M780.154 3582.58H673V3689.73H780.154V3582.58Z" fill="#9F9483"/>
<path d="M726.577 3582.58L780.154 3636.16L726.577 3689.73L673 3636.16L726.577 3582.58Z" fill="#F0EBE0"/>
<path d="M887.309 3582.58H780.154V3689.73H887.309V3582.58Z" fill="#D4D1C8"/>
<path d="M780.154 3582.58C780.154 3611 791.444 3638.25 811.539 3658.35C831.634 3678.44 858.89 3689.73 887.309 3689.73V3582.58" fill="#F7F4EE"/>
<path d="M1101.54 3475.42H887.269V3689.69H1101.54V3475.42Z" fill="#B8AFA3"/>
<path d="M994.403 3475.42L1101.54 3582.56L994.403 3689.69L887.269 3582.56L994.403 3475.42Z" fill="#F8F6F0"/>
<path d="M1315.85 3475.42H1101.58V3689.69H1315.85V3475.42Z" fill="#DBD0B5"/>
<path d="M1155.14 3475.42H1208.71L1155.14 3528.99L1101.58 3582.56V3528.99L1155.14 3475.42Z" fill="#8B7D69"/>
<path d="M1315.85 3636.12V3689.69H1262.28L1315.85 3636.12Z" fill="#8B7D69"/>
<path d="M1315.85 3528.99V3582.56L1262.28 3636.12L1208.71 3689.69H1155.14L1315.85 3528.99Z" fill="#8B7D69"/>
<path d="M1262.28 3475.42H1315.85L1155.14 3636.13L1101.58 3689.69V3636.13L1262.28 3475.42Z" fill="#8B7D69"/>
<path d="M1530.11 3475.42H1315.85V3689.69H1530.11V3475.42Z" fill="#C1BAAF"/>
<path d="M1530.11 3475.42H1315.85V3689.69H1530.11V3475.42Z" fill="#AEA496"/>
<path d="M1744.43 3475.43H1530.14V3689.71H1744.43V3475.43Z" fill="white"/>
<path d="M1637.31 3475.42H1530.15V3582.58H1637.31V3475.42Z" fill="#9A8E7D"/>
<path d="M1637.31 3475.42V3582.58H1530.15L1637.31 3475.42Z" fill="#E1DFD9"/>
<path d="M1744.42 3475.42H1637.27V3582.58H1744.42V3475.42Z" fill="#D0CCC2"/>
<path d="M1637.27 3475.42C1637.27 3503.84 1648.56 3531.1 1668.65 3551.19C1688.75 3571.29 1716 3582.58 1744.42 3582.58V3475.42" fill="#DEDAD4"/>
<path d="M1637.31 3582.58H1530.15V3689.73H1637.31V3582.58Z" fill="#F0EEEB"/>
<path d="M1530.15 3582.58H1637.31L1530.15 3689.73V3582.58Z" fill="#DC9E8A"/>
<path d="M1744.42 3582.58H1637.27V3689.73H1744.42V3582.58Z" fill="#F4F1E9"/>
<path d="M1744.42 3582.58V3689.73H1637.27L1744.42 3582.58Z" fill="#F8EAE6"/>
<path d="M1958.69 3475.42H1744.42V3689.69H1958.69V3475.42Z" fill="#E5E3DD"/>
<path d="M1958.69 3475.42H1744.42V3689.69H1958.69V3475.42Z" fill="#D79079"/>
<path d="M2173 3475.42H1958.73V3689.69H2173V3475.42Z" fill="#9D9180"/>
<path d="M1958.73 3689.69C1958.73 3632.86 1981.31 3578.36 2021.49 3538.18C2061.67 3498 2116.17 3475.42 2173 3475.42L1958.73 3689.69C2015.56 3689.69 2070.06 3667.12 2110.24 3626.93C2150.43 3586.75 2173 3532.25 2173 3475.42" fill="#C76343"/>
<path d="M887.268 3689.73H673V3904H887.268V3689.73Z" fill="#8F826F"/>
<path d="M887.268 3689.73H673V3904H887.268V3689.73Z" fill="#F2DAD2"/>
<path d="M1101.54 3689.73H887.269V3904H1101.54V3689.73Z" fill="#F9F8F4"/>
<path d="M994.403 3689.73L1101.54 3796.86L994.403 3904L887.269 3796.86L994.403 3689.73Z" fill="#E1DFD8"/>
<path d="M1315.85 3689.73H1101.58V3904H1315.85V3689.73Z" fill="#DBD1B7"/>
<path d="M1208.71 3689.73L1315.85 3796.86L1208.71 3904L1101.58 3796.86L1208.71 3689.73Z" fill="#D58C74"/>
<path d="M1530.11 3689.73H1315.85V3904H1530.11V3689.73Z" fill="#AFA597"/>
<path d="M1315.85 3689.73C1315.85 3746.56 1338.42 3801.06 1378.6 3841.24C1418.79 3881.42 1473.29 3904 1530.11 3904V3689.73" fill="#EDE8DB"/>
<path d="M1744.43 3689.71H1530.14V3904H1744.43V3689.71Z" fill="white"/>
<path d="M1637.31 3689.73H1530.15V3796.89H1637.31V3689.73Z" fill="#D6D3CA"/>
<path d="M1530.15 3796.89C1530.15 3768.47 1541.44 3741.21 1561.54 3721.12C1581.63 3701.02 1608.89 3689.73 1637.31 3689.73V3796.89" fill="#867863"/>
<path d="M1744.42 3689.73H1637.27V3796.89H1744.42V3689.73Z" fill="#EEE9DC"/>
<path d="M1744.42 3689.73H1637.27V3796.89H1744.42V3689.73Z" fill="#F3F1EF"/>
<path d="M1637.31 3796.85H1530.15V3904H1637.31V3796.85Z" fill="#FDFDFB"/>
<path d="M1637.31 3796.85H1530.15V3904H1637.31V3796.85Z" fill="#C2BAB0"/>
<path d="M1744.42 3796.85H1637.27V3904H1744.42V3796.85Z" fill="#C35734"/>
<path d="M1637.27 3904C1637.27 3875.58 1648.56 3848.33 1668.65 3828.23C1688.75 3808.14 1716 3796.85 1744.42 3796.85L1637.27 3904C1665.69 3904 1692.94 3892.71 1713.04 3872.62C1733.13 3852.52 1744.42 3825.26 1744.42 3796.85" fill="#D0CCC2"/>
<path d="M1958.69 3689.73H1744.42V3904H1958.69V3689.73Z" fill="#E5DDCA"/>
<path d="M1797.99 3689.73H1851.56L1797.99 3743.3L1744.42 3796.86V3743.3L1797.99 3689.73Z" fill="#FEFEFD"/>
<path d="M1958.69 3850.43V3904H1905.12L1958.69 3850.43Z" fill="#FEFEFD"/>
<path d="M1958.69 3743.3V3796.86L1905.12 3850.43L1851.56 3904H1797.99L1958.69 3743.3Z" fill="#FEFEFD"/>
<path d="M1905.12 3689.73H1958.69L1797.99 3850.43L1744.42 3904V3850.43L1905.12 3689.73Z" fill="#FEFEFD"/>
<path d="M2173 3689.71H1958.71V3904H2173V3689.71Z" fill="white"/>
<path d="M2065.89 3689.73H1958.73V3796.89H2065.89V3689.73Z" fill="#958D77"/>
<path d="M2012.31 3689.73L2065.89 3743.31L2012.31 3796.88L1958.73 3743.31L2012.31 3689.73Z" fill="#CECAC0"/>
<path d="M2173 3689.73H2065.85V3796.89H2173V3689.73Z" fill="#8E816D"/>
<path d="M2173 3689.73H2065.85V3796.89H2173V3689.73Z" fill="#F4F3F1"/>
<path d="M2065.89 3796.85H1958.73V3904H2065.89V3796.85Z" fill="#ACA694"/>
<path d="M1958.73 3796.85H2065.89L1958.73 3904V3796.85Z" fill="#E0D7C1"/>
<path d="M2173 3796.85H2065.85V3904H2173V3796.85Z" fill="#F9F8F7"/>
<path d="M2065.85 3796.85C2094.26 3796.85 2121.52 3808.14 2141.62 3828.23C2161.71 3848.33 2173 3875.58 2173 3904L2065.85 3796.85C2065.85 3810.92 2068.62 3824.85 2074 3837.85C2079.39 3850.85 2087.28 3862.67 2097.23 3872.62C2107.18 3882.57 2118.99 3890.46 2131.99 3895.84C2144.99 3901.23 2158.93 3904 2173 3904" fill="#B0AA99"/>
</g>
<defs>
<clipPath id="clip0_888_12681">
<rect width="1500" height="3000" fill="white" transform="translate(673 904)"/>
</clipPath>
</defs>
</svg>
