<svg width="2847" height="4351" viewBox="0 0 2847 4351" fill="none" xmlns="http://www.w3.org/2000/svg">
<path d="M1251.67 89.3223H1591.46C1592.02 89.3223 1592.46 89.77 1592.46 90.3223V217.496H2739.2C2739.75 217.496 2740.2 217.943 2740.2 218.496V573.827C2740.2 574.379 2739.75 574.827 2739.2 574.827H2582.89C2582.89 3217.02 2740.09 3217.91 2740.2 4234.5C2740.2 4235.05 2739.75 4235.53 2739.2 4235.53H113.645C113.092 4235.53 112.645 4235.06 112.645 4234.5C112.759 3202.37 285.484 3191.8 285.484 574.827H113.645C113.092 574.827 112.645 574.379 112.645 573.827V218.496C112.645 217.943 113.092 217.496 113.645 217.496H1250.67V90.3223C1250.67 89.77 1251.12 89.3223 1251.67 89.3223Z" fill="#D2AC83"/>
<path d="M1250.67 217.496V90.3223C1250.67 89.77 1251.12 89.3223 1251.67 89.3223H1591.46C1592.02 89.3223 1592.46 89.77 1592.46 90.3223V217.496M1250.67 217.496H113.645C113.092 217.496 112.645 217.943 112.645 218.496V573.827C112.645 574.379 113.092 574.827 113.645 574.827H285.484M1250.67 217.496V574.827M565.135 574.827H285.484M675.83 574.827H737.975M848.67 574.827H1250.67M1250.67 574.827V773.855C1250.67 774.407 1251.12 774.855 1251.67 774.855H1591.46C1592.02 774.855 1592.46 774.407 1592.46 773.855V574.827M1592.46 574.827V217.496M1592.46 574.827H2582.89M1592.46 217.496H2739.2C2739.75 217.496 2740.2 217.943 2740.2 218.496V573.827C2740.2 574.379 2739.75 574.827 2739.2 574.827H2582.89M2182 1569V917.5C2182 916.948 2181.55 916.5 2181 916.5H664C663.448 916.5 663 916.948 663 917.5V3935C663 3935.55 663.448 3936 664 3936H2181.5C2182.05 3936 2182.5 3935.55 2182.5 3935V1998M285.484 574.827C285.484 3191.8 112.759 3202.37 112.645 4234.5C112.645 4235.06 113.092 4235.53 113.645 4235.53H2739.2C2739.75 4235.53 2740.2 4235.05 2740.2 4234.5C2740.09 3217.91 2582.89 3217.02 2582.89 574.827" stroke="black" stroke-width="20"/>
<g clip-path="url(#clip0_888_12680)">
<rect width="1500" height="3000" transform="translate(673 926)" fill="#D2AC83"/>
<path d="M2173 926H673V3926H2173V926Z" fill="white"/>
<path d="M887.268 926H673V1140.27H887.268V926Z" fill="#CECEB2"/>
<path d="M887.268 926H673V1140.27H887.268V926Z" fill="#FBE0CC"/>
<path d="M1101.54 926H887.269V1140.27H1101.54V926Z" fill="#D7E5DF"/>
<path d="M887.269 1140.27C887.269 1083.44 909.843 1028.94 950.026 988.758C990.209 948.575 1044.71 926 1101.54 926V1140.27" fill="#ECECE2"/>
<path d="M1315.85 926H1101.58V1140.27H1315.85V926Z" fill="#9DC0B0"/>
<path d="M1315.85 926V1140.27H1101.58L1315.85 926Z" fill="#D9D9C4"/>
<path d="M1530.11 926H1315.85V1140.27H1530.11V926Z" fill="#FE5D7A"/>
<path d="M1530.11 926H1315.85V1140.27H1530.11V926Z" fill="#FEFAF7"/>
<path d="M1744.42 926H1530.15V1140.27H1744.42V926Z" fill="#FEE1E0"/>
<path d="M1530.15 926C1586.98 926 1641.48 948.575 1681.66 988.758C1721.85 1028.94 1744.42 1083.44 1744.42 1140.27L1530.15 926C1530.15 982.828 1552.73 1037.33 1592.91 1077.51C1633.1 1117.69 1687.6 1140.27 1744.42 1140.27" fill="#FC9E9B"/>
<path d="M1958.71 926H1744.43V1140.29H1958.71V926Z" fill="white"/>
<path d="M1851.58 926H1744.42V1033.15H1851.58V926Z" fill="#86B19D"/>
<path d="M1744.42 1033.15C1744.42 1019.08 1747.19 1005.15 1752.58 992.148C1757.96 979.148 1765.86 967.335 1775.81 957.385C1785.76 947.435 1797.57 939.542 1810.57 934.157C1823.57 928.772 1837.51 926 1851.58 926L1744.42 1033.15C1758.49 1033.15 1772.43 1030.38 1785.43 1025C1798.43 1019.61 1810.24 1011.72 1820.19 1001.77C1830.14 991.819 1838.04 980.007 1843.42 967.006C1848.81 954.006 1851.58 940.072 1851.58 926" fill="#EFF5F2"/>
<path d="M1958.73 926H1851.58V1033.15H1958.73V926Z" fill="#FBDAC3"/>
<path d="M1878.37 926H1905.15L1878.37 952.789L1851.58 979.577V952.789L1878.37 926Z" fill="#E3E3D4"/>
<path d="M1958.73 1006.37V1033.15H1931.94L1958.73 1006.37Z" fill="#E3E3D4"/>
<path d="M1958.73 952.789V979.578L1931.94 1006.37L1905.15 1033.15H1878.37L1958.73 952.789Z" fill="#E3E3D4"/>
<path d="M1931.94 926H1958.73L1878.37 1006.37L1851.58 1033.16V1006.37L1931.94 926Z" fill="#E3E3D4"/>
<path d="M1851.58 1033.15H1744.42V1140.31H1851.58V1033.15Z" fill="#FFFEFD"/>
<path d="M1744.42 1140.31C1744.42 1126.24 1747.19 1112.3 1752.58 1099.3C1757.96 1086.3 1765.86 1074.49 1775.81 1064.54C1785.76 1054.59 1797.57 1046.7 1810.57 1041.31C1823.57 1035.93 1837.51 1033.15 1851.58 1033.15L1744.42 1140.31C1758.49 1140.31 1772.43 1137.54 1785.43 1132.15C1798.43 1126.77 1810.24 1118.87 1820.19 1108.92C1830.14 1098.97 1838.04 1087.16 1843.42 1074.16C1848.81 1061.16 1851.58 1047.23 1851.58 1033.15" fill="#FFD8DF"/>
<path d="M1958.73 1033.15H1851.58V1140.31H1958.73V1033.15Z" fill="#92B9A7"/>
<path d="M1851.58 1033.15C1880 1033.15 1907.25 1044.44 1927.35 1064.54C1947.44 1084.63 1958.73 1111.89 1958.73 1140.31L1851.58 1033.15C1851.58 1061.57 1862.87 1088.83 1882.96 1108.92C1903.06 1129.02 1930.31 1140.31 1958.73 1140.31" fill="#D2D2B9"/>
<path d="M2173 926H1958.73V1140.27H2173V926Z" fill="#D7D7C0"/>
<path d="M2173 926H1958.73V1140.27H2173V926Z" fill="#FEDAD9"/>
<path d="M887.268 1140.27H673V1354.54H887.268V1140.27Z" fill="#FFFEFD"/>
<path d="M887.268 1140.27H673V1354.54H887.268V1140.27Z" fill="#FFEEF1"/>
<path d="M1101.54 1140.27H887.269V1354.54H1101.54V1140.27Z" fill="#FDF0E6"/>
<path d="M940.836 1140.27H994.403L940.836 1193.83L887.269 1247.4V1193.83L940.836 1140.27Z" fill="#FCABA9"/>
<path d="M1101.54 1300.97V1354.54H1047.97L1101.54 1300.97Z" fill="#FCABA9"/>
<path d="M1101.54 1193.83V1247.4L1047.97 1300.97L994.403 1354.54H940.836L1101.54 1193.83Z" fill="#FCABA9"/>
<path d="M1047.97 1140.27H1101.54L940.836 1300.97L887.269 1354.54V1300.97L1047.97 1140.27Z" fill="#FCABA9"/>
<path d="M1315.85 1140.27H1101.58V1354.54H1315.85V1140.27Z" fill="#FFF3F2"/>
<path d="M1101.58 1140.27L1315.85 1354.54H1101.58V1140.27Z" fill="#BBD3C8"/>
<path d="M1530.11 1140.27H1315.85V1354.54H1530.11V1140.27Z" fill="#FCA09D"/>
<path d="M1530.11 1140.27H1315.85V1354.54H1530.11V1140.27Z" fill="#FCADAA"/>
<path d="M1744.42 1140.27H1530.15V1354.54H1744.42V1140.27Z" fill="#FDF0E6"/>
<path d="M1530.15 1140.27H1744.42L1530.15 1354.54V1140.27Z" fill="#FDC1BF"/>
<path d="M1958.71 1140.29H1744.43V1354.57H1958.71V1140.29Z" fill="white"/>
<path d="M1851.58 1140.27H1744.42V1247.42H1851.58V1140.27Z" fill="#FDC2C0"/>
<path d="M1851.58 1140.27H1744.42V1247.42H1851.58V1140.27Z" fill="#FFABBA"/>
<path d="M1958.73 1140.27H1851.58V1247.42H1958.73V1140.27Z" fill="#FE5473"/>
<path d="M1851.58 1247.42C1880 1247.42 1907.25 1236.13 1927.35 1216.04C1947.44 1195.94 1958.73 1168.69 1958.73 1140.27H1851.58" fill="#FFC3CE"/>
<path d="M1851.58 1247.42H1744.42V1354.58H1851.58V1247.42Z" fill="#FBFBF9"/>
<path d="M1744.42 1354.58C1744.42 1340.5 1747.19 1326.57 1752.58 1313.57C1757.96 1300.57 1765.86 1288.76 1775.81 1278.81C1785.76 1268.86 1797.57 1260.96 1810.57 1255.58C1823.57 1250.19 1837.51 1247.42 1851.58 1247.42V1354.58" fill="#FFCBD5"/>
<path d="M1958.73 1247.42H1851.58V1354.58H1958.73V1247.42Z" fill="#FED1D0"/>
<path d="M1851.58 1247.42C1880 1247.42 1907.25 1258.71 1927.35 1278.81C1947.44 1298.9 1958.73 1326.16 1958.73 1354.58L1851.58 1247.42C1851.58 1275.84 1862.87 1303.1 1882.96 1323.19C1903.06 1343.29 1930.31 1354.58 1958.73 1354.58" fill="#FE7A92"/>
<path d="M2173 1140.27H1958.73V1354.54H2173V1140.27Z" fill="#FEFEFD"/>
<path d="M1958.73 1354.54C1958.73 1297.71 1981.31 1243.21 2021.49 1203.03C2061.67 1162.84 2116.17 1140.27 2173 1140.27L1958.73 1354.54C2015.56 1354.54 2070.06 1331.96 2110.24 1291.78C2150.43 1251.6 2173 1197.1 2173 1140.27" fill="#FFA7B7"/>
<path d="M887.286 1354.57H673V1568.86H887.286V1354.57Z" fill="white"/>
<path d="M780.154 1354.58H673V1461.73H780.154V1354.58Z" fill="#FAD7BE"/>
<path d="M780.154 1354.58H673V1461.73H780.154V1354.58Z" fill="#FCA6A3"/>
<path d="M887.309 1354.58H780.154V1461.73H887.309V1354.58Z" fill="#F3F3EC"/>
<path d="M806.943 1354.58H833.731L806.943 1381.37L780.154 1408.16V1381.37L806.943 1354.58Z" fill="#91B8A7"/>
<path d="M887.309 1434.94V1461.73H860.521L887.309 1434.94Z" fill="#91B8A7"/>
<path d="M887.309 1381.37V1408.16L860.521 1434.94L833.732 1461.73H806.943L887.309 1381.37Z" fill="#91B8A7"/>
<path d="M860.52 1354.58H887.309L806.943 1434.94L780.154 1461.73V1434.94L860.52 1354.58Z" fill="#91B8A7"/>
<path d="M780.154 1461.73H673V1568.89H780.154V1461.73Z" fill="#CEDFD7"/>
<path d="M780.154 1461.73H673V1568.89H780.154V1461.73Z" fill="#DEEAE5"/>
<path d="M887.309 1461.73H780.154V1568.89H887.309V1461.73Z" fill="#DFDFCD"/>
<path d="M887.309 1461.73H780.154V1568.89H887.309V1461.73Z" fill="#FCE4D3"/>
<path d="M1101.54 1354.58H887.269V1568.85H1101.54V1354.58Z" fill="#98BCAC"/>
<path d="M940.836 1354.58H994.403L940.836 1408.15L887.269 1461.71V1408.15L940.836 1354.58Z" fill="#FE7D95"/>
<path d="M1101.54 1515.28V1568.85H1047.97L1101.54 1515.28Z" fill="#FE7D95"/>
<path d="M1101.54 1408.14V1461.71L1047.97 1515.28L994.403 1568.85H940.836L1101.54 1408.14Z" fill="#FE7D95"/>
<path d="M1047.97 1354.58H1101.54L940.836 1515.28L887.269 1568.85V1515.28L1047.97 1354.58Z" fill="#FE7D95"/>
<path d="M1315.85 1354.58H1101.58V1568.85H1315.85V1354.58Z" fill="#FDBEBC"/>
<path d="M1315.85 1354.58V1568.85H1101.58L1315.85 1354.58Z" fill="#D6D6BF"/>
<path d="M1530.11 1354.58H1315.85V1568.85H1530.11V1354.58Z" fill="#FCE8D9"/>
<path d="M1422.98 1354.58L1530.11 1461.71L1422.98 1568.85L1315.85 1461.71L1422.98 1354.58Z" fill="#CFCFB3"/>
<path d="M1744.43 1354.57H1530.14V1568.86H1744.43V1354.57Z" fill="white"/>
<path d="M1637.31 1354.58H1530.15V1461.73H1637.31V1354.58Z" fill="#FAD8C0"/>
<path d="M1530.15 1354.58C1544.23 1354.58 1558.16 1357.35 1571.16 1362.73C1584.16 1368.12 1595.97 1376.01 1605.92 1385.96C1615.87 1395.91 1623.77 1407.73 1629.15 1420.73C1634.54 1433.73 1637.31 1447.66 1637.31 1461.73L1530.15 1354.58C1530.15 1368.65 1532.93 1382.58 1538.31 1395.58C1543.7 1408.58 1551.59 1420.4 1561.54 1430.35C1581.63 1450.44 1608.89 1461.73 1637.31 1461.73" fill="#FE4365"/>
<path d="M1744.42 1354.58H1637.27V1461.73H1744.42V1354.58Z" fill="#FFC6D0"/>
<path d="M1690.85 1354.58L1744.42 1408.16L1690.85 1461.73L1637.27 1408.16L1690.85 1354.58Z" fill="#E9F1EE"/>
<path d="M1637.31 1461.73H1530.15V1568.89H1637.31V1461.73Z" fill="#E6EFEB"/>
<path d="M1637.31 1461.73H1530.15V1568.89H1637.31V1461.73Z" fill="#B6D0C4"/>
<path d="M1744.42 1461.73H1637.27V1568.89H1744.42V1461.73Z" fill="#D8D8C3"/>
<path d="M1690.85 1461.73L1744.42 1515.31L1690.85 1568.89L1637.27 1515.31L1690.85 1461.73Z" fill="#CECEB3"/>
<path d="M1958.69 1354.58H1744.42V1568.85H1958.69V1354.58Z" fill="#FAD3B6"/>
<path d="M1797.99 1354.58H1851.56L1797.99 1408.15L1744.42 1461.71V1408.15L1797.99 1354.58Z" fill="#FDEEE3"/>
<path d="M1958.69 1515.28V1568.85H1905.12L1958.69 1515.28Z" fill="#FDEEE3"/>
<path d="M1958.69 1408.14V1461.71L1905.12 1515.28L1851.56 1568.85H1797.99L1958.69 1408.14Z" fill="#FDEEE3"/>
<path d="M1905.12 1354.58H1958.69L1797.99 1515.28L1744.42 1568.85V1515.28L1905.12 1354.58Z" fill="#FDEEE3"/>
<path d="M2173 1354.58H1958.73V1568.85H2173V1354.58Z" fill="#FBDECA"/>
<path d="M2173 1354.58H1958.73V1568.85H2173V1354.58Z" fill="#E0E0CF"/>
<path d="M887.286 1568.86H673V1783.14H887.286V1568.86Z" fill="white"/>
<path d="M780.154 1568.85H673V1676H780.154V1568.85Z" fill="#D8D8C2"/>
<path d="M780.154 1568.85V1676H673L780.154 1568.85Z" fill="#F7F7F3"/>
<path d="M887.309 1568.85H780.154V1676H887.309V1568.85Z" fill="#FE4C6C"/>
<path d="M833.731 1568.85L887.309 1622.42L833.731 1676L780.154 1622.42L833.731 1568.85Z" fill="#FBFDFC"/>
<path d="M780.154 1676H673V1783.15H780.154V1676Z" fill="#FED9D8"/>
<path d="M780.154 1676H673V1783.15H780.154V1676Z" fill="#8CB5A2"/>
<path d="M887.309 1676H780.154V1783.15H887.309V1676Z" fill="#F5F5EF"/>
<path d="M780.154 1783.15C808.573 1783.15 835.829 1771.86 855.924 1751.77C876.019 1731.67 887.309 1704.42 887.309 1676H780.154" fill="#CDCDB1"/>
<path d="M1101.54 1568.85H887.269V1783.11H1101.54V1568.85Z" fill="#D5D5BE"/>
<path d="M887.269 1568.85H1101.54V1783.11L887.269 1568.85Z" fill="#DCDCC9"/>
<path d="M1315.85 1568.85H1101.58V1783.11H1315.85V1568.85Z" fill="#FE627F"/>
<path d="M1155.14 1568.85H1208.71L1155.14 1622.41L1101.58 1675.98V1622.41L1155.14 1568.85Z" fill="#D7D7C0"/>
<path d="M1315.85 1729.55V1783.11H1262.28L1315.85 1729.55Z" fill="#D7D7C0"/>
<path d="M1315.85 1622.41V1675.98L1262.28 1729.55L1208.71 1783.11H1155.14L1315.85 1622.41Z" fill="#D7D7C0"/>
<path d="M1262.28 1568.85H1315.85L1155.14 1729.55L1101.58 1783.12V1729.55L1262.28 1568.85Z" fill="#D7D7C0"/>
<path d="M1530.11 1568.85H1315.85V1783.11H1530.11V1568.85Z" fill="#FFFEFD"/>
<path d="M1530.11 1568.85H1315.85V1783.11H1530.11V1568.85Z" fill="#FFF3F2"/>
<path d="M1744.43 1568.86H1530.14V1783.14H1744.43V1568.86Z" fill="white"/>
<path d="M1637.31 1568.85H1530.15V1676H1637.31V1568.85Z" fill="#FFF9FA"/>
<path d="M1530.15 1568.85L1637.31 1676H1530.15V1568.85Z" fill="#FDC1C0"/>
<path d="M1744.42 1568.85H1637.27V1676H1744.42V1568.85Z" fill="#F2F2EB"/>
<path d="M1744.42 1568.85H1637.27V1676H1744.42V1568.85Z" fill="#FEE1E0"/>
<path d="M1637.31 1676H1530.15V1783.15H1637.31V1676Z" fill="#FE6782"/>
<path d="M1637.31 1676V1783.15H1530.15L1637.31 1676Z" fill="#FCE8DA"/>
<path d="M1744.42 1676H1637.27V1783.15H1744.42V1676Z" fill="#F8FAF9"/>
<path d="M1690.85 1676L1744.42 1729.58L1690.85 1783.15L1637.27 1729.58L1690.85 1676Z" fill="#CDDFD7"/>
<path d="M1958.71 1568.86H1744.43V1783.14H1958.71V1568.86Z" fill="white"/>
<path d="M1851.58 1568.85H1744.42V1676H1851.58V1568.85Z" fill="#DBDBC7"/>
<path d="M1744.42 1568.85C1758.49 1568.85 1772.43 1571.62 1785.43 1577C1798.43 1582.39 1810.24 1590.28 1820.19 1600.23C1830.14 1610.18 1838.04 1621.99 1843.42 1634.99C1848.81 1647.99 1851.58 1661.93 1851.58 1676L1744.42 1568.85C1744.42 1582.92 1747.19 1596.85 1752.58 1609.85C1757.96 1622.85 1765.86 1634.67 1775.81 1644.62C1785.76 1654.57 1797.57 1662.46 1810.57 1667.84C1823.57 1673.23 1837.51 1676 1851.58 1676" fill="#C9DCD3"/>
<path d="M1958.73 1568.85H1851.58V1676H1958.73V1568.85Z" fill="#FCA29F"/>
<path d="M1851.58 1676C1880 1676 1907.25 1664.71 1927.35 1644.62C1947.44 1624.52 1958.73 1597.26 1958.73 1568.85H1851.58" fill="#F9F9F5"/>
<path d="M1851.58 1676H1744.42V1783.15H1851.58V1676Z" fill="#D9D9C4"/>
<path d="M1744.42 1676H1851.58V1783.15L1744.42 1676Z" fill="#D0D0B6"/>
<path d="M1958.73 1676H1851.58V1783.15H1958.73V1676Z" fill="#FBFDFC"/>
<path d="M1851.58 1676H1958.73L1851.58 1783.15V1676Z" fill="#FCE8D9"/>
<path d="M2173 1568.86H1958.71V1783.14H2173V1568.86Z" fill="white"/>
<path d="M2065.89 1568.85H1958.73V1676H2065.89V1568.85Z" fill="#C6DAD1"/>
<path d="M2012.31 1568.85L2065.89 1622.42L2012.31 1676L1958.73 1622.42L2012.31 1568.85Z" fill="#FE6480"/>
<path d="M2173 1568.85H2065.85V1676H2173V1568.85Z" fill="#CACAAC"/>
<path d="M2065.85 1568.85L2173 1676H2065.85V1568.85Z" fill="#FDC2C0"/>
<path d="M2065.89 1676H1958.73V1783.15H2065.89V1676Z" fill="#FFB5C2"/>
<path d="M1958.73 1676C1987.15 1676 2014.41 1687.29 2034.5 1707.38C2054.6 1727.48 2065.89 1754.74 2065.89 1783.15L1958.73 1676C1958.73 1704.42 1970.02 1731.67 1990.12 1751.77C2010.21 1771.86 2037.47 1783.15 2065.89 1783.15" fill="#FFF2F2"/>
<path d="M2173 1676H2065.85V1783.15H2173V1676Z" fill="#FDEBDF"/>
<path d="M2173 1676H2065.85V1783.15H2173V1676Z" fill="#FFF5F7"/>
<path d="M887.268 1783.15H673V1997.42H887.268V1783.15Z" fill="#A0C2B2"/>
<path d="M673 1997.42C673 1940.6 695.575 1886.1 735.758 1845.91C775.941 1805.73 830.441 1783.15 887.268 1783.15L673 1997.42C729.828 1997.42 784.328 1974.85 824.511 1934.66C864.694 1894.48 887.268 1839.98 887.268 1783.15" fill="#FDECE1"/>
<path d="M1101.57 1783.14H887.286V1997.43H1101.57V1783.14Z" fill="white"/>
<path d="M994.423 1783.15H887.269V1890.31H994.423V1783.15Z" fill="#EAEADF"/>
<path d="M887.269 1783.15H994.423L887.269 1890.31V1783.15Z" fill="#97BCAB"/>
<path d="M1101.58 1783.15H994.423V1890.31H1101.58V1783.15Z" fill="#FEF8F4"/>
<path d="M1021.21 1783.15H1048L1021.21 1809.94L994.423 1836.73V1809.94L1021.21 1783.15Z" fill="#B1CCC0"/>
<path d="M1101.58 1863.52V1890.31H1074.79L1101.58 1863.52Z" fill="#B1CCC0"/>
<path d="M1101.58 1809.94V1836.73L1074.79 1863.52L1048 1890.31H1021.21L1101.58 1809.94Z" fill="#B1CCC0"/>
<path d="M1074.79 1783.15H1101.58L1021.21 1863.52L994.423 1890.31V1863.52L1074.79 1783.15Z" fill="#B1CCC0"/>
<path d="M994.423 1890.27H887.269V1997.42H994.423V1890.27Z" fill="#D7D7C0"/>
<path d="M940.846 1890.27L994.423 1943.84L940.846 1997.42L887.269 1943.84L940.846 1890.27Z" fill="#FCE7D8"/>
<path d="M1101.58 1890.27H994.423V1997.42H1101.58V1890.27Z" fill="#8AB4A1"/>
<path d="M1101.58 1890.27H994.423V1997.42H1101.58V1890.27Z" fill="#E8E8DB"/>
<path d="M1315.85 1783.15H1101.58V1997.42H1315.85V1783.15Z" fill="#FFFEFD"/>
<path d="M1101.58 1783.15H1315.85V1997.42L1101.58 1783.15Z" fill="#FCACA9"/>
<path d="M1530.14 1783.14H1315.86V1997.43H1530.14V1783.14Z" fill="white"/>
<path d="M1423 1783.15H1315.85V1890.31H1423V1783.15Z" fill="#FFA1B2"/>
<path d="M1315.85 1783.15C1344.26 1783.15 1371.52 1794.44 1391.62 1814.54C1411.71 1834.63 1423 1861.89 1423 1890.31L1315.85 1783.15C1315.85 1797.23 1318.62 1811.16 1324 1824.16C1329.39 1837.16 1337.28 1848.97 1347.23 1858.92C1357.18 1868.87 1368.99 1876.77 1381.99 1882.15C1394.99 1887.54 1408.93 1890.31 1423 1890.31" fill="#FEE9E8"/>
<path d="M1530.15 1783.15H1423V1890.31H1530.15V1783.15Z" fill="#CCDED6"/>
<path d="M1449.79 1783.15H1476.58L1449.79 1809.94L1423 1836.73V1809.94L1449.79 1783.15Z" fill="#E7F0EC"/>
<path d="M1530.15 1863.52V1890.31H1503.37L1530.15 1863.52Z" fill="#E7F0EC"/>
<path d="M1530.15 1809.94V1836.73L1503.37 1863.52L1476.58 1890.31H1449.79L1530.15 1809.94Z" fill="#E7F0EC"/>
<path d="M1503.37 1783.15H1530.15L1449.79 1863.52L1423 1890.31V1863.52L1503.37 1783.15Z" fill="#E7F0EC"/>
<path d="M1423 1890.27H1315.85V1997.42H1423V1890.27Z" fill="#FAD7BD"/>
<path d="M1315.85 1997.42C1344.26 1997.42 1371.52 1986.13 1391.62 1966.04C1411.71 1945.94 1423 1918.69 1423 1890.27H1315.85" fill="#FFBFCB"/>
<path d="M1530.15 1890.27H1423V1997.42H1530.15V1890.27Z" fill="#8DB5A3"/>
<path d="M1423 1890.27C1451.42 1890.27 1478.67 1901.56 1498.77 1921.65C1518.86 1941.75 1530.15 1969 1530.15 1997.42H1423" fill="#FE6783"/>
<path d="M1744.42 1783.15H1530.15V1997.42H1744.42V1783.15Z" fill="#FED1D0"/>
<path d="M1583.72 1783.15H1637.29L1583.72 1836.72L1530.15 1890.29V1836.72L1583.72 1783.15Z" fill="#FEEAE9"/>
<path d="M1744.42 1943.86V1997.42H1690.86L1744.42 1943.86Z" fill="#FEEAE9"/>
<path d="M1744.42 1836.72V1890.29L1690.86 1943.85L1637.29 1997.42H1583.72L1744.42 1836.72Z" fill="#FEEAE9"/>
<path d="M1690.86 1783.15H1744.42L1583.72 1943.86L1530.15 1997.42V1943.86L1690.86 1783.15Z" fill="#FEEAE9"/>
<path d="M1958.69 1783.15H1744.42V1997.42H1958.69V1783.15Z" fill="#C8C8AA"/>
<path d="M1958.69 1783.15H1744.42V1997.42H1958.69V1783.15Z" fill="#DEDECC"/>
<path d="M2173 1783.15H1958.73V1997.42H2173V1783.15Z" fill="#FDEBDE"/>
<path d="M1958.73 1783.15H2173V1997.42L1958.73 1783.15Z" fill="#FFFDFD"/>
<path d="M887.268 1997.42H673V2211.69H887.268V1997.42Z" fill="#FAFAF7"/>
<path d="M673 2211.69C673 2154.86 695.575 2100.36 735.758 2060.18C775.941 2020 830.441 1997.42 887.268 1997.42V2211.69" fill="#FCA5A2"/>
<path d="M1101.54 1997.42H887.269V2211.69H1101.54V1997.42Z" fill="#FED1D0"/>
<path d="M887.269 1997.42C944.096 1997.42 998.596 2020 1038.78 2060.18C1078.96 2100.36 1101.54 2154.86 1101.54 2211.69L887.269 1997.42C887.269 2054.25 909.843 2108.75 950.026 2148.93C990.209 2189.12 1044.71 2211.69 1101.54 2211.69" fill="#D5E4DE"/>
<path d="M1315.86 1997.43H1101.57V2211.72H1315.86V1997.43Z" fill="white"/>
<path d="M1208.73 1997.42H1101.58V2104.58H1208.73V1997.42Z" fill="#C1D7CD"/>
<path d="M1128.37 1997.42H1155.15L1128.37 2024.21L1101.58 2051V2024.21L1128.37 1997.42Z" fill="#87B29E"/>
<path d="M1208.73 2077.79V2104.58H1181.94L1208.73 2077.79Z" fill="#87B29E"/>
<path d="M1208.73 2024.21V2051L1181.94 2077.79L1155.15 2104.58H1128.37L1208.73 2024.21Z" fill="#87B29E"/>
<path d="M1181.94 1997.42H1208.73L1128.37 2077.79L1101.58 2104.58V2077.79L1181.94 1997.42Z" fill="#87B29E"/>
<path d="M1315.89 1997.42H1208.73V2104.58H1315.89V1997.42Z" fill="#FBDFCB"/>
<path d="M1262.31 1997.42L1315.89 2051L1262.31 2104.58L1208.73 2051L1262.31 1997.42Z" fill="#FE8EA2"/>
<path d="M1208.73 2104.58H1101.58V2211.73H1208.73V2104.58Z" fill="#DDDDC9"/>
<path d="M1101.58 2104.58C1115.65 2104.58 1129.58 2107.35 1142.58 2112.73C1155.58 2118.12 1167.4 2126.01 1177.35 2135.96C1187.3 2145.91 1195.19 2157.72 1200.57 2170.72C1205.96 2183.72 1208.73 2197.66 1208.73 2211.73L1101.58 2104.58C1101.58 2133 1112.87 2160.25 1132.96 2180.35C1153.06 2200.44 1180.31 2211.73 1208.73 2211.73" fill="#FCFCFA"/>
<path d="M1315.89 2104.58H1208.73V2211.73H1315.89V2104.58Z" fill="#E3EDE8"/>
<path d="M1208.73 2211.73C1208.73 2183.31 1220.02 2156.06 1240.12 2135.96C1260.21 2115.87 1287.47 2104.58 1315.89 2104.58L1208.73 2211.73C1237.15 2211.73 1264.41 2200.44 1284.5 2180.35C1304.6 2160.25 1315.89 2133 1315.89 2104.58" fill="#C6DAD1"/>
<path d="M1530.11 1997.42H1315.85V2211.69H1530.11V1997.42Z" fill="#DBE8E2"/>
<path d="M1315.85 1997.42H1530.11L1315.85 2211.69V1997.42Z" fill="#FFBDC9"/>
<path d="M1744.42 1997.42H1530.15V2211.69H1744.42V1997.42Z" fill="#FFA5B5"/>
<path d="M1583.72 1997.42H1637.29L1583.72 2050.99L1530.15 2104.56V2050.99L1583.72 1997.42Z" fill="#FCE4D2"/>
<path d="M1744.42 2158.12V2211.69H1690.86L1744.42 2158.12Z" fill="#FCE4D2"/>
<path d="M1744.42 2050.99V2104.56L1690.86 2158.12L1637.29 2211.69H1583.72L1744.42 2050.99Z" fill="#FCE4D2"/>
<path d="M1690.86 1997.42H1744.42L1583.72 2158.13L1530.15 2211.69V2158.13L1690.86 1997.42Z" fill="#FCE4D2"/>
<path d="M1958.71 1997.43H1744.43V2211.72H1958.71V1997.43Z" fill="white"/>
<path d="M1851.58 1997.42H1744.42V2104.58H1851.58V1997.42Z" fill="#FBFBF9"/>
<path d="M1771.21 1997.42H1798L1771.21 2024.21L1744.42 2051V2024.21L1771.21 1997.42Z" fill="#FFFBF8"/>
<path d="M1851.58 2077.79V2104.58H1824.79L1851.58 2077.79Z" fill="#FFFBF8"/>
<path d="M1851.58 2024.21V2051L1824.79 2077.79L1798 2104.58H1771.21L1851.58 2024.21Z" fill="#FFFBF8"/>
<path d="M1824.79 1997.42H1851.58L1771.21 2077.79L1744.42 2104.58V2077.79L1824.79 1997.42Z" fill="#FFFBF8"/>
<path d="M1958.73 1997.42H1851.58V2104.58H1958.73V1997.42Z" fill="#F9CEAF"/>
<path d="M1958.73 1997.42H1851.58V2104.58H1958.73V1997.42Z" fill="#FCA3A1"/>
<path d="M1851.58 2104.58H1744.42V2211.73H1851.58V2104.58Z" fill="#BED5CB"/>
<path d="M1771.21 2104.58H1798L1771.21 2131.36L1744.42 2158.15V2131.36L1771.21 2104.58Z" fill="#FBE0CD"/>
<path d="M1851.58 2184.94V2211.73H1824.79L1851.58 2184.94Z" fill="#FBE0CD"/>
<path d="M1851.58 2131.37V2158.15L1824.79 2184.94L1798 2211.73H1771.21L1851.58 2131.37Z" fill="#FBE0CD"/>
<path d="M1824.79 2104.58H1851.58L1771.21 2184.94L1744.42 2211.73V2184.94L1824.79 2104.58Z" fill="#FBE0CD"/>
<path d="M1958.73 2104.58H1851.58V2211.73H1958.73V2104.58Z" fill="#BED5CA"/>
<path d="M1958.73 2104.58H1851.58V2211.73H1958.73V2104.58Z" fill="#C1D7CD"/>
<path d="M2173 1997.43H1958.71V2211.72H2173V1997.43Z" fill="white"/>
<path d="M2065.89 1997.42H1958.73V2104.58H2065.89V1997.42Z" fill="#FFC5CF"/>
<path d="M2065.89 1997.42V2104.58H1958.73L2065.89 1997.42Z" fill="#FEDFDE"/>
<path d="M2173 1997.42H2065.85V2104.58H2173V1997.42Z" fill="#CFCFB4"/>
<path d="M2092.63 1997.42H2119.42L2092.63 2024.21L2065.85 2051V2024.21L2092.63 1997.42Z" fill="#ADCABD"/>
<path d="M2173 2077.79V2104.58H2146.21L2173 2077.79Z" fill="#ADCABD"/>
<path d="M2173 2024.21V2051L2146.21 2077.79L2119.42 2104.58H2092.63L2173 2024.21Z" fill="#ADCABD"/>
<path d="M2146.21 1997.42H2173L2092.63 2077.79L2065.85 2104.58V2077.79L2146.21 1997.42Z" fill="#ADCABD"/>
<path d="M2065.89 2104.58H1958.73V2211.73H2065.89V2104.58Z" fill="#FDB9B7"/>
<path d="M1985.52 2104.58H2012.31L1985.52 2131.36L1958.73 2158.15V2131.36L1985.52 2104.58Z" fill="#FFF3F3"/>
<path d="M2065.89 2184.94V2211.73H2039.1L2065.89 2184.94Z" fill="#FFF3F3"/>
<path d="M2065.89 2131.37V2158.15L2039.1 2184.94L2012.31 2211.73H1985.52L2065.89 2131.37Z" fill="#FFF3F3"/>
<path d="M2039.1 2104.58H2065.89L1985.52 2184.94L1958.73 2211.73V2184.94L2039.1 2104.58Z" fill="#FFF3F3"/>
<path d="M2173 2104.58H2065.85V2211.73H2173V2104.58Z" fill="#FDECDF"/>
<path d="M2173 2104.58H2065.85V2211.73H2173V2104.58Z" fill="#EBF2EF"/>
<path d="M887.268 2211.73H673V2426H887.268V2211.73Z" fill="#FE637F"/>
<path d="M887.268 2211.73H673V2426H887.268V2211.73Z" fill="#FBDFCA"/>
<path d="M1101.54 2211.73H887.269V2426H1101.54V2211.73Z" fill="#B5CFC3"/>
<path d="M887.269 2211.73H1101.54L887.269 2426V2211.73Z" fill="#FCA8A5"/>
<path d="M1315.85 2211.73H1101.58V2426H1315.85V2211.73Z" fill="#FFE6EA"/>
<path d="M1315.85 2211.73H1101.58V2426H1315.85V2211.73Z" fill="#FDEBDF"/>
<path d="M1530.11 2211.73H1315.85V2426H1530.11V2211.73Z" fill="#FFADBC"/>
<path d="M1422.98 2211.73L1530.11 2318.87L1422.98 2426L1315.85 2318.87L1422.98 2211.73Z" fill="#FFFCFB"/>
<path d="M1744.42 2211.73H1530.15V2426H1744.42V2211.73Z" fill="#FE879C"/>
<path d="M1530.15 2211.73H1744.42L1530.15 2426V2211.73Z" fill="#FED7D6"/>
<path d="M1958.69 2211.73H1744.42V2426H1958.69V2211.73Z" fill="#C4D9CF"/>
<path d="M1744.42 2211.73C1801.25 2211.73 1855.75 2234.31 1895.93 2274.49C1936.12 2314.67 1958.69 2369.17 1958.69 2426L1744.42 2211.73C1744.42 2268.56 1767 2323.06 1807.18 2363.24C1847.36 2403.43 1901.86 2426 1958.69 2426" fill="#CBDED5"/>
<path d="M2173 2211.73H1958.73V2426H2173V2211.73Z" fill="#FFB5C3"/>
<path d="M1958.73 2211.73C2015.56 2211.73 2070.06 2234.31 2110.24 2274.49C2150.43 2314.67 2173 2369.17 2173 2426L1958.73 2211.73C1958.73 2268.56 1981.31 2323.06 2021.49 2363.24C2061.67 2403.43 2116.17 2426 2173 2426" fill="#FAFAF7"/>
<path d="M887.286 2426H673V2640.29H887.286V2426Z" fill="white"/>
<path d="M780.154 2426H673V2533.15H780.154V2426Z" fill="#E9E9DC"/>
<path d="M673 2426C701.419 2426 728.674 2437.29 748.77 2457.38C768.865 2477.48 780.154 2504.74 780.154 2533.15H673" fill="#FFCED7"/>
<path d="M887.309 2426H780.154V2533.15H887.309V2426Z" fill="#A9C7BA"/>
<path d="M806.943 2426H833.731L806.943 2452.79L780.154 2479.58V2452.79L806.943 2426Z" fill="#FFE9ED"/>
<path d="M887.309 2506.37V2533.15H860.521L887.309 2506.37Z" fill="#FFE9ED"/>
<path d="M887.309 2452.79V2479.58L860.521 2506.37L833.732 2533.15H806.943L887.309 2452.79Z" fill="#FFE9ED"/>
<path d="M860.52 2426H887.309L806.943 2506.37L780.154 2533.16V2506.37L860.52 2426Z" fill="#FFE9ED"/>
<path d="M780.154 2533.15H673V2640.31H780.154V2533.15Z" fill="#FEEAE9"/>
<path d="M673 2640.31C673 2611.89 684.289 2584.63 704.385 2564.54C724.48 2544.44 751.735 2533.15 780.154 2533.15V2640.31" fill="#D4D4BB"/>
<path d="M887.309 2533.15H780.154V2640.31H887.309V2533.15Z" fill="#FDECDF"/>
<path d="M806.943 2533.15H833.731L806.943 2559.94L780.154 2586.73V2559.94L806.943 2533.15Z" fill="#FAD7BE"/>
<path d="M887.309 2613.52V2640.31H860.521L887.309 2613.52Z" fill="#FAD7BE"/>
<path d="M887.309 2559.94V2586.73L860.521 2613.52L833.732 2640.31H806.943L887.309 2559.94Z" fill="#FAD7BE"/>
<path d="M860.52 2533.15H887.309L806.943 2613.52L780.154 2640.31V2613.52L860.52 2533.15Z" fill="#FAD7BE"/>
<path d="M1101.54 2426H887.269V2640.27H1101.54V2426Z" fill="#B6D0C4"/>
<path d="M940.836 2426H994.403L940.836 2479.57L887.269 2533.13V2479.57L940.836 2426Z" fill="#E5E5D7"/>
<path d="M1101.54 2586.7V2640.27H1047.97L1101.54 2586.7Z" fill="#E5E5D7"/>
<path d="M1101.54 2479.57V2533.13L1047.97 2586.7L994.403 2640.27H940.836L1101.54 2479.57Z" fill="#E5E5D7"/>
<path d="M1047.97 2426H1101.54L940.836 2586.7L887.269 2640.27V2586.7L1047.97 2426Z" fill="#E5E5D7"/>
<path d="M1315.86 2426H1101.57V2640.29H1315.86V2426Z" fill="white"/>
<path d="M1208.73 2426H1101.58V2533.15H1208.73V2426Z" fill="#FE9DAE"/>
<path d="M1101.58 2426H1208.73L1101.58 2533.15V2426Z" fill="#FCE7D7"/>
<path d="M1315.89 2426H1208.73V2533.15H1315.89V2426Z" fill="#FECFCD"/>
<path d="M1208.73 2426C1237.15 2426 1264.41 2437.29 1284.5 2457.38C1304.6 2477.48 1315.89 2504.74 1315.89 2533.15H1208.73" fill="#FFC7D1"/>
<path d="M1208.73 2533.15H1101.58V2640.31H1208.73V2533.15Z" fill="#FE496A"/>
<path d="M1101.58 2533.15L1208.73 2640.31H1101.58V2533.15Z" fill="#FEF7F1"/>
<path d="M1315.89 2533.15H1208.73V2640.31H1315.89V2533.15Z" fill="#FCE2D0"/>
<path d="M1235.52 2533.15H1262.31L1235.52 2559.94L1208.73 2586.73V2559.94L1235.52 2533.15Z" fill="#8BB4A2"/>
<path d="M1315.89 2613.52V2640.31H1289.1L1315.89 2613.52Z" fill="#8BB4A2"/>
<path d="M1315.89 2559.94V2586.73L1289.1 2613.52L1262.31 2640.31H1235.52L1315.89 2559.94Z" fill="#8BB4A2"/>
<path d="M1289.1 2533.15H1315.89L1235.52 2613.52L1208.73 2640.31V2613.52L1289.1 2533.15Z" fill="#8BB4A2"/>
<path d="M1530.14 2426H1315.86V2640.29H1530.14V2426Z" fill="white"/>
<path d="M1423 2426H1315.85V2533.15H1423V2426Z" fill="#FFF6F6"/>
<path d="M1423 2426H1315.85V2533.15H1423V2426Z" fill="#F8F8F4"/>
<path d="M1530.15 2426H1423V2533.15H1530.15V2426Z" fill="#FEDFDE"/>
<path d="M1423 2426C1451.42 2426 1478.67 2437.29 1498.77 2457.38C1518.86 2477.48 1530.15 2504.74 1530.15 2533.15L1423 2426C1423 2454.42 1434.29 2481.67 1454.38 2501.77C1474.48 2521.86 1501.74 2533.15 1530.15 2533.15" fill="#FFFDFD"/>
<path d="M1423 2533.15H1315.85V2640.31H1423V2533.15Z" fill="#F6F6F1"/>
<path d="M1315.85 2533.15C1344.26 2533.15 1371.52 2544.44 1391.62 2564.54C1411.71 2584.63 1423 2611.89 1423 2640.31L1315.85 2533.15C1315.85 2547.23 1318.62 2561.16 1324 2574.16C1329.39 2587.16 1337.28 2598.97 1347.23 2608.92C1357.18 2618.87 1368.99 2626.77 1381.99 2632.15C1394.99 2637.54 1408.93 2640.31 1423 2640.31" fill="#F8F8F4"/>
<path d="M1530.15 2533.15H1423V2640.31H1530.15V2533.15Z" fill="#FFD5DD"/>
<path d="M1423 2640.31C1423 2611.89 1434.29 2584.63 1454.38 2564.54C1474.48 2544.44 1501.74 2533.15 1530.15 2533.15L1423 2640.31C1451.42 2640.31 1478.67 2629.02 1498.77 2608.92C1518.86 2588.83 1530.15 2561.57 1530.15 2533.15" fill="#A3C4B5"/>
<path d="M1744.42 2426H1530.15V2640.27H1744.42V2426Z" fill="#F9D0B3"/>
<path d="M1530.15 2640.27C1530.15 2583.44 1552.73 2528.94 1592.91 2488.76C1633.1 2448.57 1687.6 2426 1744.42 2426L1530.15 2640.27C1586.98 2640.27 1641.48 2617.69 1681.66 2577.51C1721.85 2537.33 1744.42 2482.83 1744.42 2426" fill="#F5F5EF"/>
<path d="M1958.69 2426H1744.42V2640.27H1958.69V2426Z" fill="#FAD9C0"/>
<path d="M1851.56 2426L1958.69 2533.13L1851.56 2640.27L1744.42 2533.13L1851.56 2426Z" fill="#FFFAFA"/>
<path d="M2173 2426H1958.73V2640.27H2173V2426Z" fill="#FAD4B8"/>
<path d="M1958.73 2426C2015.56 2426 2070.06 2448.57 2110.24 2488.76C2150.43 2528.94 2173 2583.44 2173 2640.27L1958.73 2426C1958.73 2482.83 1981.31 2537.33 2021.49 2577.51C2061.67 2617.69 2116.17 2640.27 2173 2640.27" fill="#FFF0EF"/>
<path d="M887.286 2640.29H673V2854.57H887.286V2640.29Z" fill="white"/>
<path d="M780.154 2640.27H673V2747.42H780.154V2640.27Z" fill="#FEF7F1"/>
<path d="M673 2747.42C673 2719 684.289 2691.75 704.385 2671.65C724.48 2651.56 751.735 2640.27 780.154 2640.27L673 2747.42C701.419 2747.42 728.674 2736.13 748.77 2716.04C768.865 2695.94 780.154 2668.69 780.154 2640.27" fill="#E3E3D4"/>
<path d="M887.309 2640.27H780.154V2747.42H887.309V2640.27Z" fill="#A6C6B8"/>
<path d="M833.731 2640.27L887.309 2693.84L833.731 2747.42L780.154 2693.84L833.731 2640.27Z" fill="#FE6E88"/>
<path d="M780.154 2747.42H673V2854.58H780.154V2747.42Z" fill="#B8D1C6"/>
<path d="M673 2854.58C673 2840.5 675.772 2826.57 681.157 2813.57C686.542 2800.57 694.435 2788.76 704.385 2778.81C714.335 2768.86 726.148 2760.96 739.148 2755.58C752.149 2750.19 766.083 2747.42 780.154 2747.42L673 2854.58C687.072 2854.58 701.006 2851.8 714.006 2846.42C727.007 2841.03 738.819 2833.14 748.77 2823.19C758.72 2813.24 766.613 2801.43 771.998 2788.43C777.383 2775.43 780.154 2761.49 780.154 2747.42" fill="#FCAAA7"/>
<path d="M887.309 2747.42H780.154V2854.58H887.309V2747.42Z" fill="#FE6E88"/>
<path d="M780.154 2747.42C780.154 2761.49 782.926 2775.43 788.311 2788.43C793.696 2801.43 801.589 2813.24 811.539 2823.19C821.489 2833.14 833.302 2841.03 846.302 2846.42C859.303 2851.8 873.237 2854.58 887.309 2854.58V2747.42" fill="#FEE0DF"/>
<path d="M1101.54 2640.27H887.269V2854.54H1101.54V2640.27Z" fill="#FAD7BE"/>
<path d="M994.403 2640.27L1101.54 2747.4L994.403 2854.54L887.269 2747.4L994.403 2640.27Z" fill="#FAD7BD"/>
<path d="M1315.85 2640.27H1101.58V2854.54H1315.85V2640.27Z" fill="#FBDFCA"/>
<path d="M1101.58 2854.54C1101.58 2797.71 1124.15 2743.21 1164.33 2703.03C1204.52 2662.84 1259.02 2640.27 1315.85 2640.27L1101.58 2854.54C1158.4 2854.54 1212.9 2831.96 1253.09 2791.78C1293.27 2751.6 1315.85 2697.1 1315.85 2640.27" fill="#FFFBFA"/>
<path d="M1530.11 2640.27H1315.85V2854.54H1530.11V2640.27Z" fill="#8DB5A3"/>
<path d="M1315.85 2640.27H1530.11L1315.85 2854.54V2640.27Z" fill="#D6D6BF"/>
<path d="M1744.42 2640.27H1530.15V2854.54H1744.42V2640.27Z" fill="#A6C5B7"/>
<path d="M1530.15 2854.54C1586.98 2854.54 1641.48 2831.96 1681.66 2791.78C1721.85 2751.6 1744.42 2697.1 1744.42 2640.27H1530.15" fill="#FEE8E7"/>
<path d="M1958.69 2640.27H1744.42V2854.54H1958.69V2640.27Z" fill="#FFEDF0"/>
<path d="M1744.42 2640.27H1958.69L1744.42 2854.54V2640.27Z" fill="#FE6480"/>
<path d="M2173 2640.29H1958.71V2854.57H2173V2640.29Z" fill="white"/>
<path d="M2065.89 2640.27H1958.73V2747.42H2065.89V2640.27Z" fill="#FAD2B5"/>
<path d="M1958.73 2640.27C1987.15 2640.27 2014.41 2651.56 2034.5 2671.65C2054.6 2691.75 2065.89 2719 2065.89 2747.42L1958.73 2640.27C1958.73 2668.69 1970.02 2695.94 1990.12 2716.04C2010.21 2736.13 2037.47 2747.42 2065.89 2747.42" fill="#FFFCFC"/>
<path d="M2173 2640.27H2065.85V2747.42H2173V2640.27Z" fill="#FCE4D3"/>
<path d="M2065.85 2747.42C2065.85 2733.35 2068.62 2719.42 2074 2706.42C2079.39 2693.42 2087.28 2681.6 2097.23 2671.65C2107.18 2661.7 2118.99 2653.81 2131.99 2648.42C2144.99 2643.04 2158.93 2640.27 2173 2640.27L2065.85 2747.42C2094.26 2747.42 2121.52 2736.13 2141.62 2716.04C2161.71 2695.94 2173 2668.69 2173 2640.27" fill="#FCE2CF"/>
<path d="M2065.89 2747.42H1958.73V2854.58H2065.89V2747.42Z" fill="#F9CEAF"/>
<path d="M1958.73 2747.42H2065.89V2854.58L1958.73 2747.42Z" fill="#FDC0BE"/>
<path d="M2173 2747.42H2065.85V2854.58H2173V2747.42Z" fill="#D3E3DC"/>
<path d="M2065.85 2747.42H2173L2065.85 2854.58V2747.42Z" fill="#CFE0D8"/>
<path d="M887.286 2854.57H673V3068.86H887.286V2854.57Z" fill="white"/>
<path d="M780.154 2854.58H673V2961.73H780.154V2854.58Z" fill="#EBEBDF"/>
<path d="M673 2854.58H780.154V2961.73L673 2854.58Z" fill="#F8F8F3"/>
<path d="M887.309 2854.58H780.154V2961.73H887.309V2854.58Z" fill="#FBDEC9"/>
<path d="M780.154 2854.58H887.309L780.154 2961.73V2854.58Z" fill="#F9D0B2"/>
<path d="M780.154 2961.73H673V3068.89H780.154V2961.73Z" fill="#E7E7D9"/>
<path d="M726.577 2961.73L780.154 3015.31L726.577 3068.89L673 3015.31L726.577 2961.73Z" fill="#FCE8D9"/>
<path d="M887.309 2961.73H780.154V3068.89H887.309V2961.73Z" fill="#DDDDCA"/>
<path d="M887.309 2961.73V3068.89H780.154L887.309 2961.73Z" fill="#FDFDFC"/>
<path d="M1101.54 2854.58H887.269V3068.85H1101.54V2854.58Z" fill="#D9E7E0"/>
<path d="M887.269 3068.85C887.269 3012.02 909.843 2957.52 950.026 2917.34C990.209 2877.15 1044.71 2854.58 1101.54 2854.58V3068.85" fill="#FBDDC8"/>
<path d="M1315.85 2854.58H1101.58V3068.85H1315.85V2854.58Z" fill="#FEE1E0"/>
<path d="M1208.71 2854.58L1315.85 2961.71L1208.71 3068.85L1101.58 2961.71L1208.71 2854.58Z" fill="#F2F2EA"/>
<path d="M1530.11 2854.58H1315.85V3068.85H1530.11V2854.58Z" fill="#FFFBF9"/>
<path d="M1422.98 2854.58L1530.11 2961.71L1422.98 3068.85L1315.85 2961.71L1422.98 2854.58Z" fill="#CDCDB1"/>
<path d="M1744.43 2854.57H1530.14V3068.86H1744.43V2854.57Z" fill="white"/>
<path d="M1637.31 2854.58H1530.15V2961.73H1637.31V2854.58Z" fill="#FE9DAF"/>
<path d="M1637.31 2854.58V2961.73H1530.15L1637.31 2854.58Z" fill="#96BBAA"/>
<path d="M1744.42 2854.58H1637.27V2961.73H1744.42V2854.58Z" fill="#FDBEBC"/>
<path d="M1637.27 2961.73C1637.27 2933.31 1648.56 2906.06 1668.65 2885.96C1688.75 2865.87 1716 2854.58 1744.42 2854.58L1637.27 2961.73C1665.69 2961.73 1692.94 2950.44 1713.04 2930.35C1733.13 2910.25 1744.42 2883 1744.42 2854.58" fill="#FAD3B7"/>
<path d="M1637.31 2961.73H1530.15V3068.89H1637.31V2961.73Z" fill="#FEE4E3"/>
<path d="M1637.31 2961.73H1530.15V3068.89H1637.31V2961.73Z" fill="#FDF0E6"/>
<path d="M1744.42 2961.73H1637.27V3068.89H1744.42V2961.73Z" fill="#FCE9DA"/>
<path d="M1744.42 2961.73H1637.27V3068.89H1744.42V2961.73Z" fill="#FEFBF8"/>
<path d="M1958.69 2854.58H1744.42V3068.85H1958.69V2854.58Z" fill="#FFA2B3"/>
<path d="M1744.42 2854.58L1958.69 3068.85H1744.42V2854.58Z" fill="#E6E6D8"/>
<path d="M2173 2854.58H1958.73V3068.85H2173V2854.58Z" fill="#D6E4DE"/>
<path d="M1958.73 2854.58H2173V3068.85L1958.73 2854.58Z" fill="#F9CFB0"/>
<path d="M887.268 3068.85H673V3283.11H887.268V3068.85Z" fill="#FEE2E1"/>
<path d="M780.134 3068.85L887.268 3175.98L780.134 3283.11L673 3175.98L780.134 3068.85Z" fill="#EFEFE6"/>
<path d="M1101.57 3068.86H887.286V3283.14H1101.57V3068.86Z" fill="white"/>
<path d="M994.423 3068.85H887.269V3176H994.423V3068.85Z" fill="#FE5473"/>
<path d="M994.423 3068.85H887.269V3176H994.423V3068.85Z" fill="#C1D7CD"/>
<path d="M1101.58 3068.85H994.423V3176H1101.58V3068.85Z" fill="#BAD2C7"/>
<path d="M1048 3068.85L1101.58 3122.42L1048 3176L994.423 3122.42L1048 3068.85Z" fill="#FDC4C2"/>
<path d="M994.423 3176H887.269V3283.15H994.423V3176Z" fill="#FE8A9F"/>
<path d="M994.423 3176H887.269V3283.15H994.423V3176Z" fill="#FEF6F0"/>
<path d="M1101.58 3176H994.423V3283.15H1101.58V3176Z" fill="#E3E3D3"/>
<path d="M1101.58 3176H994.423V3283.15H1101.58V3176Z" fill="#FDEADD"/>
<path d="M1315.86 3068.86H1101.57V3283.14H1315.86V3068.86Z" fill="white"/>
<path d="M1208.73 3068.85H1101.58V3176H1208.73V3068.85Z" fill="#FE9CAE"/>
<path d="M1155.15 3068.85L1208.73 3122.42L1155.15 3176L1101.58 3122.42L1155.15 3068.85Z" fill="#FFEEF1"/>
<path d="M1315.89 3068.85H1208.73V3176H1315.89V3068.85Z" fill="#FFBFCB"/>
<path d="M1208.73 3176C1208.73 3161.93 1211.5 3147.99 1216.89 3134.99C1222.27 3121.99 1230.17 3110.18 1240.12 3100.23C1250.07 3090.28 1261.88 3082.39 1274.88 3077C1287.88 3071.62 1301.81 3068.85 1315.89 3068.85V3176" fill="#9DC0B0"/>
<path d="M1208.73 3176H1101.58V3283.15H1208.73V3176Z" fill="#F9F9F5"/>
<path d="M1208.73 3176H1101.58V3283.15H1208.73V3176Z" fill="#FE4668"/>
<path d="M1315.89 3176H1208.73V3283.15H1315.89V3176Z" fill="#FDEFE5"/>
<path d="M1208.73 3176L1315.89 3283.15H1208.73V3176Z" fill="#FECECD"/>
<path d="M1530.11 3068.85H1315.85V3283.11H1530.11V3068.85Z" fill="#FE98AA"/>
<path d="M1422.98 3068.85L1530.11 3175.98L1422.98 3283.11L1315.85 3175.98L1422.98 3068.85Z" fill="#FFC9D3"/>
<path d="M1744.42 3068.85H1530.15V3283.11H1744.42V3068.85Z" fill="#FE708A"/>
<path d="M1530.15 3068.85H1744.42V3283.11L1530.15 3068.85Z" fill="#FE6883"/>
<path d="M1958.69 3068.85H1744.42V3283.11H1958.69V3068.85Z" fill="#EFEFE6"/>
<path d="M1744.42 3283.11C1744.42 3226.29 1767 3171.79 1807.18 3131.6C1847.36 3091.42 1901.86 3068.85 1958.69 3068.85V3283.11" fill="#CDCDB0"/>
<path d="M2173 3068.85H1958.73V3283.11H2173V3068.85Z" fill="#DBE8E2"/>
<path d="M2173 3068.85H1958.73V3283.11H2173V3068.85Z" fill="#FAD7BD"/>
<path d="M887.268 3283.15H673V3497.42H887.268V3283.15Z" fill="#E3E3D4"/>
<path d="M780.134 3283.15L887.268 3390.29L780.134 3497.42L673 3390.29L780.134 3283.15Z" fill="#FAD8BF"/>
<path d="M1101.54 3283.15H887.269V3497.42H1101.54V3283.15Z" fill="#F4F4ED"/>
<path d="M940.836 3283.15H994.403L940.836 3336.72L887.269 3390.29V3336.72L940.836 3283.15Z" fill="#FED3D2"/>
<path d="M1101.54 3443.86V3497.42H1047.97L1101.54 3443.86Z" fill="#FED3D2"/>
<path d="M1101.54 3336.72V3390.29L1047.97 3443.85L994.403 3497.42H940.836L1101.54 3336.72Z" fill="#FED3D2"/>
<path d="M1047.97 3283.15H1101.54L940.836 3443.86L887.269 3497.42V3443.86L1047.97 3283.15Z" fill="#FED3D2"/>
<path d="M1315.85 3283.15H1101.58V3497.42H1315.85V3283.15Z" fill="#D6D6BF"/>
<path d="M1155.14 3283.15H1208.71L1155.14 3336.72L1101.58 3390.29V3336.72L1155.14 3283.15Z" fill="#EAF1EE"/>
<path d="M1315.85 3443.86V3497.42H1262.28L1315.85 3443.86Z" fill="#EAF1EE"/>
<path d="M1315.85 3336.72V3390.29L1262.28 3443.85L1208.71 3497.42H1155.14L1315.85 3336.72Z" fill="#EAF1EE"/>
<path d="M1262.28 3283.15H1315.85L1155.14 3443.86L1101.58 3497.42V3443.86L1262.28 3283.15Z" fill="#EAF1EE"/>
<path d="M1530.14 3283.14H1315.86V3497.43H1530.14V3283.14Z" fill="white"/>
<path d="M1423 3283.15H1315.85V3390.31H1423V3283.15Z" fill="#FCE7D8"/>
<path d="M1315.85 3283.15H1423V3390.31L1315.85 3283.15Z" fill="#FDBDBB"/>
<path d="M1530.15 3283.15H1423V3390.31H1530.15V3283.15Z" fill="#E4E4D4"/>
<path d="M1530.15 3283.15H1423V3390.31H1530.15V3283.15Z" fill="#CDCDB0"/>
<path d="M1423 3390.27H1315.85V3497.42H1423V3390.27Z" fill="#FEF5EF"/>
<path d="M1342.63 3390.27H1369.42L1342.63 3417.06L1315.85 3443.85V3417.06L1342.63 3390.27Z" fill="#FFA2B3"/>
<path d="M1423 3470.63V3497.42H1396.21L1423 3470.63Z" fill="#FFA2B3"/>
<path d="M1423 3417.06V3443.85L1396.21 3470.64L1369.42 3497.42H1342.63L1423 3417.06Z" fill="#FFA2B3"/>
<path d="M1396.21 3390.27H1423L1342.63 3470.64L1315.85 3497.42V3470.64L1396.21 3390.27Z" fill="#FFA2B3"/>
<path d="M1530.15 3390.27H1423V3497.42H1530.15V3390.27Z" fill="#FBDBC4"/>
<path d="M1476.58 3390.27L1530.15 3443.85L1476.58 3497.42L1423 3443.85L1476.58 3390.27Z" fill="#FDEFE6"/>
<path d="M1744.42 3283.15H1530.15V3497.42H1744.42V3283.15Z" fill="#FFFEFE"/>
<path d="M1744.42 3283.15H1530.15V3497.42H1744.42V3283.15Z" fill="#86B19E"/>
<path d="M1958.69 3283.15H1744.42V3497.42H1958.69V3283.15Z" fill="#FE99AB"/>
<path d="M1851.56 3283.15L1958.69 3390.29L1851.56 3497.42L1744.42 3390.29L1851.56 3283.15Z" fill="#A7C6B8"/>
<path d="M2173 3283.15H1958.73V3497.42H2173V3283.15Z" fill="#D8E6E0"/>
<path d="M1958.73 3497.42C1958.73 3469.28 1964.27 3441.42 1975.04 3415.43C1985.81 3389.43 2001.59 3365.81 2021.49 3345.91C2041.39 3326.02 2065.01 3310.23 2091 3299.46C2117 3288.7 2144.86 3283.15 2173 3283.15L1958.73 3497.42C2015.56 3497.42 2070.06 3474.85 2110.24 3434.67C2150.43 3394.48 2173 3339.98 2173 3283.15" fill="#FED9D8"/>
<path d="M887.268 3497.42H673V3711.69H887.268V3497.42Z" fill="#B6D0C4"/>
<path d="M673 3497.42C729.828 3497.42 784.328 3520 824.511 3560.18C864.694 3600.36 887.268 3654.86 887.268 3711.69L673 3497.42C673 3554.25 695.575 3608.75 735.758 3648.93C775.941 3689.12 830.441 3711.69 887.268 3711.69" fill="#EBEBDF"/>
<path d="M1101.54 3497.42H887.269V3711.69H1101.54V3497.42Z" fill="#FAD3B7"/>
<path d="M887.269 3711.69C887.269 3654.86 909.843 3600.36 950.026 3560.18C990.209 3520 1044.71 3497.42 1101.54 3497.42L887.269 3711.69C944.096 3711.69 998.596 3689.12 1038.78 3648.93C1078.96 3608.75 1101.54 3554.25 1101.54 3497.42" fill="#FCE8DA"/>
<path d="M1315.86 3497.43H1101.57V3711.71H1315.86V3497.43Z" fill="white"/>
<path d="M1208.73 3497.42H1101.58V3604.58H1208.73V3497.42Z" fill="#98BDAC"/>
<path d="M1128.37 3497.42H1155.15L1128.37 3524.21L1101.58 3551V3524.21L1128.37 3497.42Z" fill="#FED1D0"/>
<path d="M1208.73 3577.79V3604.58H1181.94L1208.73 3577.79Z" fill="#FED1D0"/>
<path d="M1208.73 3524.21V3551L1181.94 3577.79L1155.15 3604.58H1128.37L1208.73 3524.21Z" fill="#FED1D0"/>
<path d="M1181.94 3497.42H1208.73L1128.37 3577.79L1101.58 3604.58V3577.79L1181.94 3497.42Z" fill="#FED1D0"/>
<path d="M1315.89 3497.42H1208.73V3604.58H1315.89V3497.42Z" fill="#C9C9AB"/>
<path d="M1315.89 3497.42H1208.73V3604.58H1315.89V3497.42Z" fill="#FCA5A3"/>
<path d="M1208.73 3604.58H1101.58V3711.73H1208.73V3604.58Z" fill="#FBDCC5"/>
<path d="M1101.58 3604.58H1208.73L1101.58 3711.73V3604.58Z" fill="#FFF6F8"/>
<path d="M1315.89 3604.58H1208.73V3711.73H1315.89V3604.58Z" fill="#CDDFD7"/>
<path d="M1208.73 3604.58C1237.15 3604.58 1264.41 3615.87 1284.5 3635.96C1304.6 3656.06 1315.89 3683.31 1315.89 3711.73L1208.73 3604.58C1208.73 3633 1220.02 3660.25 1240.12 3680.35C1260.21 3700.44 1287.47 3711.73 1315.89 3711.73" fill="#F7F7F3"/>
<path d="M1530.14 3497.43H1315.86V3711.71H1530.14V3497.43Z" fill="white"/>
<path d="M1423 3497.42H1315.85V3604.58H1423V3497.42Z" fill="#FE7C94"/>
<path d="M1423 3497.42H1315.85V3604.58H1423V3497.42Z" fill="#BAD2C7"/>
<path d="M1530.15 3497.42H1423V3604.58H1530.15V3497.42Z" fill="#FED6D4"/>
<path d="M1530.15 3497.42H1423V3604.58H1530.15V3497.42Z" fill="#D4D4BB"/>
<path d="M1423 3604.58H1315.85V3711.73H1423V3604.58Z" fill="#FCA3A1"/>
<path d="M1342.63 3604.58H1369.42L1342.63 3631.37L1315.85 3658.16V3631.37L1342.63 3604.58Z" fill="#FE9EB0"/>
<path d="M1423 3684.94V3711.73H1396.21L1423 3684.94Z" fill="#FE9EB0"/>
<path d="M1423 3631.37V3658.16L1396.21 3684.94L1369.42 3711.73H1342.63L1423 3631.37Z" fill="#FE9EB0"/>
<path d="M1396.21 3604.58H1423L1342.63 3684.94L1315.85 3711.73V3684.94L1396.21 3604.58Z" fill="#FE9EB0"/>
<path d="M1530.15 3604.58H1423V3711.73H1530.15V3604.58Z" fill="#FFF1F4"/>
<path d="M1476.58 3604.58L1530.15 3658.16L1476.58 3711.73L1423 3658.16L1476.58 3604.58Z" fill="#D2D2B8"/>
<path d="M1744.42 3497.42H1530.15V3711.69H1744.42V3497.42Z" fill="#FFF9F9"/>
<path d="M1583.72 3497.42H1637.29L1583.72 3550.99L1530.15 3604.56V3550.99L1583.72 3497.42Z" fill="#FBE1CD"/>
<path d="M1744.42 3658.12V3711.69H1690.86L1744.42 3658.12Z" fill="#FBE1CD"/>
<path d="M1744.42 3550.99V3604.56L1690.86 3658.12L1637.29 3711.69H1583.72L1744.42 3550.99Z" fill="#FBE1CD"/>
<path d="M1690.86 3497.42H1744.42L1583.72 3658.13L1530.15 3711.69V3658.13L1690.86 3497.42Z" fill="#FBE1CD"/>
<path d="M1958.69 3497.42H1744.42V3711.69H1958.69V3497.42Z" fill="#FE6E88"/>
<path d="M1744.42 3497.42H1958.69L1744.42 3711.69V3497.42Z" fill="#CCCCB0"/>
<path d="M2173 3497.43H1958.71V3711.71H2173V3497.43Z" fill="white"/>
<path d="M2065.89 3497.42H1958.73V3604.58H2065.89V3497.42Z" fill="#FDC0BE"/>
<path d="M1958.73 3497.42H2065.89V3604.58L1958.73 3497.42Z" fill="#D4D4BB"/>
<path d="M2173 3497.42H2065.85V3604.58H2173V3497.42Z" fill="#FFFAFA"/>
<path d="M2065.85 3497.42C2094.26 3497.42 2121.52 3508.71 2141.62 3528.81C2161.71 3548.9 2173 3576.16 2173 3604.58L2065.85 3497.42C2065.85 3511.49 2068.62 3525.43 2074 3538.43C2079.39 3551.43 2087.28 3563.24 2097.23 3573.19C2107.18 3583.14 2118.99 3591.03 2131.99 3596.42C2144.99 3601.8 2158.93 3604.58 2173 3604.58" fill="#9ABEAE"/>
<path d="M2065.89 3604.58H1958.73V3711.73H2065.89V3604.58Z" fill="#EAEADE"/>
<path d="M1958.73 3604.58C1958.73 3633 1970.02 3660.25 1990.12 3680.35C2010.21 3700.44 2037.47 3711.73 2065.89 3711.73V3604.58" fill="#FE879C"/>
<path d="M2173 3604.58H2065.85V3711.73H2173V3604.58Z" fill="#FEE0DF"/>
<path d="M2065.85 3711.73C2065.85 3697.66 2068.62 3683.73 2074 3670.73C2079.39 3657.73 2087.28 3645.91 2097.23 3635.96C2107.18 3626.01 2118.99 3618.12 2131.99 3612.73C2144.99 3607.35 2158.93 3604.58 2173 3604.58V3711.73" fill="#FEEBEB"/>
<path d="M887.286 3711.71H673V3926H887.286V3711.71Z" fill="white"/>
<path d="M780.154 3711.73H673V3818.89H780.154V3711.73Z" fill="#FE8DA1"/>
<path d="M780.154 3711.73V3818.89H673L780.154 3711.73Z" fill="#FCA4A2"/>
<path d="M887.309 3711.73H780.154V3818.89H887.309V3711.73Z" fill="#D7E5DF"/>
<path d="M833.731 3711.73L887.309 3765.31L833.731 3818.88L780.154 3765.31L833.731 3711.73Z" fill="#93B9A8"/>
<path d="M780.154 3818.85H673V3926H780.154V3818.85Z" fill="#FDFDFB"/>
<path d="M726.577 3818.85L780.154 3872.42L726.577 3926L673 3872.42L726.577 3818.85Z" fill="#FCAAA8"/>
<path d="M887.309 3818.85H780.154V3926H887.309V3818.85Z" fill="#FDB8B6"/>
<path d="M780.154 3926C808.573 3926 835.829 3914.71 855.924 3894.62C876.019 3874.52 887.309 3847.26 887.309 3818.85H780.154" fill="#F1F1EA"/>
<path d="M1101.54 3711.73H887.269V3926H1101.54V3711.73Z" fill="#FCA9A6"/>
<path d="M1101.54 3711.73H887.269V3926H1101.54V3711.73Z" fill="#FDC1BF"/>
<path d="M1315.85 3711.73H1101.58V3926H1315.85V3711.73Z" fill="#FEF3EC"/>
<path d="M1101.58 3711.73L1315.85 3926H1101.58V3711.73Z" fill="#FAFAF7"/>
<path d="M1530.11 3711.73H1315.85V3926H1530.11V3711.73Z" fill="#96BBAA"/>
<path d="M1422.98 3711.73L1530.11 3818.86L1422.98 3926L1315.85 3818.86L1422.98 3711.73Z" fill="#FDF2E9"/>
<path d="M1744.42 3711.73H1530.15V3926H1744.42V3711.73Z" fill="#F3F3EC"/>
<path d="M1637.29 3711.73L1744.42 3818.86L1637.29 3926L1530.15 3818.86L1637.29 3711.73Z" fill="#D1D1B7"/>
<path d="M1958.69 3711.73H1744.42V3926H1958.69V3711.73Z" fill="#F9D1B3"/>
<path d="M1744.42 3711.73C1744.42 3768.56 1767 3823.06 1807.18 3863.24C1847.36 3903.42 1901.86 3926 1958.69 3926V3711.73" fill="#FEF9F6"/>
<path d="M2173 3711.71H1958.71V3926H2173V3711.71Z" fill="white"/>
<path d="M2065.89 3711.73H1958.73V3818.89H2065.89V3711.73Z" fill="#FCA09D"/>
<path d="M2065.89 3711.73V3818.89H1958.73L2065.89 3711.73Z" fill="#CBDED5"/>
<path d="M2173 3711.73H2065.85V3818.89H2173V3711.73Z" fill="#FDBFBD"/>
<path d="M2065.85 3818.89C2094.26 3818.89 2121.52 3807.6 2141.62 3787.5C2161.71 3767.4 2173 3740.15 2173 3711.73H2065.85" fill="#E1E1D0"/>
<path d="M2065.89 3818.85H1958.73V3926H2065.89V3818.85Z" fill="#FFA6B6"/>
<path d="M1958.73 3818.85C1987.15 3818.85 2014.41 3830.14 2034.5 3850.23C2054.6 3870.33 2065.89 3897.58 2065.89 3926L1958.73 3818.85C1958.73 3847.26 1970.02 3874.52 1990.12 3894.62C2010.21 3914.71 2037.47 3926 2065.89 3926" fill="#FBDEC9"/>
<path d="M2173 3818.85H2065.85V3926H2173V3818.85Z" fill="#FEDCDB"/>
<path d="M2092.63 3818.85H2119.42L2092.63 3845.63L2065.85 3872.42V3845.63L2092.63 3818.85Z" fill="#B1CDC0"/>
<path d="M2173 3899.21V3926H2146.21L2173 3899.21Z" fill="#B1CDC0"/>
<path d="M2173 3845.63V3872.42L2146.21 3899.21L2119.42 3926H2092.63L2173 3845.63Z" fill="#B1CDC0"/>
<path d="M2146.21 3818.85H2173L2092.63 3899.21L2065.85 3926V3899.21L2146.21 3818.85Z" fill="#B1CDC0"/>
</g>
<defs>
<clipPath id="clip0_888_12680">
<rect width="1500" height="3000" fill="white" transform="translate(673 926)"/>
</clipPath>
</defs>
</svg>
