<svg width="2847" height="4351" viewBox="0 0 2847 4351" fill="none" xmlns="http://www.w3.org/2000/svg">
<path d="M1251.67 89.3223H1591.46C1592.02 89.3223 1592.46 89.77 1592.46 90.3223V217.496H2739.2C2739.75 217.496 2740.2 217.943 2740.2 218.496V573.827C2740.2 574.379 2739.75 574.827 2739.2 574.827H2582.89C2582.89 3217.02 2740.09 3217.91 2740.2 4234.5C2740.2 4235.05 2739.75 4235.53 2739.2 4235.53H113.645C113.092 4235.53 112.645 4235.06 112.645 4234.5C112.759 3202.37 285.484 3191.8 285.484 574.827H113.645C113.092 574.827 112.645 574.379 112.645 573.827V218.496C112.645 217.943 113.092 217.496 113.645 217.496H1250.67V90.3223C1250.67 89.77 1251.12 89.3223 1251.67 89.3223Z" fill="#D2AC83"/>
<path d="M1250.67 217.496V90.3223C1250.67 89.77 1251.12 89.3223 1251.67 89.3223H1591.46C1592.02 89.3223 1592.46 89.77 1592.46 90.3223V217.496M1250.67 217.496H113.645C113.092 217.496 112.645 217.943 112.645 218.496V573.827C112.645 574.379 113.092 574.827 113.645 574.827H285.484M1250.67 217.496V574.827M565.135 574.827H285.484M675.83 574.827H737.975M848.67 574.827H1250.67M1250.67 574.827V773.855C1250.67 774.407 1251.12 774.855 1251.67 774.855H1591.46C1592.02 774.855 1592.46 774.407 1592.46 773.855V574.827M1592.46 574.827V217.496M1592.46 574.827H2582.89M1592.46 217.496H2739.2C2739.75 217.496 2740.2 217.943 2740.2 218.496V573.827C2740.2 574.379 2739.75 574.827 2739.2 574.827H2582.89M2182.5 1689V930C2182.5 929.448 2182.05 929 2181.5 929H664C663.448 929 663 929.448 663 930V3946C663 3946.55 663.448 3947 664 3947H2182C2182.55 3947 2183 3946.55 2183 3946V2064M285.484 574.827C285.484 3191.8 112.759 3202.37 112.645 4234.5C112.645 4235.06 113.092 4235.53 113.645 4235.53H2739.2C2739.75 4235.53 2740.2 4235.05 2740.2 4234.5C2740.09 3217.91 2582.89 3217.02 2582.89 574.827" stroke="black" stroke-width="20"/>
<g clip-path="url(#clip0_888_12676)">
<rect width="1500" height="3000" transform="translate(673 939)" fill="#D2AC83"/>
<path d="M2173 939H673V3939H2173V939Z" fill="white"/>
<path d="M860.5 939H673V1126.5H860.5V939Z" fill="white"/>
<path d="M766.745 939H673V1032.75H766.745V939Z" fill="#F4F5EC"/>
<path d="M673 1032.75C697.863 1032.75 721.707 1022.87 739.288 1005.29C756.869 987.707 766.745 963.863 766.745 939H673" fill="#FB8734"/>
<path d="M860.491 939H766.746V1032.75H860.491V939Z" fill="#F6F7F0"/>
<path d="M860.491 939H766.746V948.375H860.491V939Z" fill="#E7F8FB"/>
<path d="M860.491 957.75H766.746V967.125H860.491V957.75Z" fill="#E7F8FB"/>
<path d="M860.491 976.498H766.746V985.873H860.491V976.498Z" fill="#E7F8FB"/>
<path d="M860.491 995.248H766.746V1004.62H860.491V995.248Z" fill="#E7F8FB"/>
<path d="M860.491 1014H766.746V1023.37H860.491V1014Z" fill="#E7F8FB"/>
<path d="M766.745 1032.75H673V1126.49H766.745V1032.75Z" fill="#FEF8F2"/>
<path d="M673 1032.75H766.745V1126.49L673 1032.75Z" fill="#FAC8A0"/>
<path d="M860.491 1032.75H766.746V1126.49H860.491V1032.75Z" fill="#FEE5D2"/>
<path d="M766.746 1032.75C791.609 1032.75 815.453 1042.62 833.034 1060.2C850.615 1077.78 860.491 1101.63 860.491 1126.49H766.746" fill="#FED5B7"/>
<path d="M1048 939H860.5V1126.5H1048V939Z" fill="white"/>
<path d="M954.236 939H860.49V1032.75H954.236V939Z" fill="#FDBF93"/>
<path d="M860.49 939C860.49 963.863 870.367 987.707 887.948 1005.29C905.528 1022.87 929.373 1032.75 954.236 1032.75V939" fill="#FDBF92"/>
<path d="M1047.98 939H954.236V1032.75H1047.98V939Z" fill="#F49244"/>
<path d="M963.611 939H954.236V1032.75H963.611V939Z" fill="#E4E7D2"/>
<path d="M982.361 939H972.986V1032.75H982.361V939Z" fill="#E4E7D2"/>
<path d="M1001.11 939H991.734V1032.75H1001.11V939Z" fill="#E4E7D2"/>
<path d="M1019.86 939H1010.48V1032.75H1019.86V939Z" fill="#E4E7D2"/>
<path d="M1038.61 939H1029.23V1032.75H1038.61V939Z" fill="#E4E7D2"/>
<path d="M954.236 1032.75H860.49V1126.49H954.236V1032.75Z" fill="#A9DCD9"/>
<path d="M860.49 1032.75H954.236V1126.49L860.49 1032.75Z" fill="#F9FCFC"/>
<path d="M1047.98 1032.75H954.236V1126.49H1047.98V1032.75Z" fill="#F9C59C"/>
<path d="M954.236 1032.75C954.236 1057.61 964.113 1081.45 981.694 1099.03C999.274 1116.61 1023.12 1126.49 1047.98 1126.49V1032.75" fill="#FEF8F2"/>
<path d="M1235.51 939H1048.02V1126.49H1235.51V939Z" fill="#FDB480"/>
<path d="M1048.02 1126.49C1048.02 1076.77 1067.77 1029.08 1102.93 993.915C1138.09 958.753 1185.78 939 1235.51 939V1126.49" fill="#FB9042"/>
<path d="M1423 939H1235.51V1126.49H1423V939Z" fill="#F2F4EA"/>
<path d="M1254.26 939H1235.51V1126.49H1254.26V939Z" fill="#F6FBFB"/>
<path d="M1291.76 939H1273.01V1126.49H1291.76V939Z" fill="#F6FBFB"/>
<path d="M1329.25 939H1310.51V1126.49H1329.25V939Z" fill="#F6FBFB"/>
<path d="M1366.75 939H1348V1126.49H1366.75V939Z" fill="#F6FBFB"/>
<path d="M1404.25 939H1385.5V1126.49H1404.25V939Z" fill="#F6FBFB"/>
<path d="M1610.49 939H1423V1126.49H1610.49V939Z" fill="#F7B17A"/>
<path d="M1610.49 939H1423V957.749H1610.49V939Z" fill="#75D6E9"/>
<path d="M1610.49 976.498H1423V995.247H1610.49V976.498Z" fill="#75D6E9"/>
<path d="M1610.49 1014H1423V1032.75H1610.49V1014Z" fill="#75D6E9"/>
<path d="M1610.49 1051.49H1423V1070.24H1610.49V1051.49Z" fill="#75D6E9"/>
<path d="M1610.49 1088.99H1423V1107.74H1610.49V1088.99Z" fill="#75D6E9"/>
<path d="M1797.98 939H1610.49V1126.49H1797.98V939Z" fill="#84DAEB"/>
<path d="M1610.49 1126.49C1660.22 1126.49 1707.9 1106.74 1743.07 1071.58C1778.23 1036.41 1797.98 988.726 1797.98 939H1610.49" fill="#FBD2B3"/>
<path d="M1985.51 939H1798.02V1126.49H1985.51V939Z" fill="#EEF0E3"/>
<path d="M1798.02 939L1985.51 1126.49H1798.02V939Z" fill="#E3E7D1"/>
<path d="M2173 939H1985.5V1126.5H2173V939Z" fill="white"/>
<path d="M2079.26 939H1985.51V1032.75H2079.26V939Z" fill="#F5FBFB"/>
<path d="M1994.88 939H1985.51V1032.75H1994.88V939Z" fill="#F3F4EB"/>
<path d="M2013.63 939H2004.26V1032.75H2013.63V939Z" fill="#F3F4EB"/>
<path d="M2032.38 939H2023.01V1032.75H2032.38V939Z" fill="#F3F4EB"/>
<path d="M2051.13 939H2041.76V1032.75H2051.13V939Z" fill="#F3F4EB"/>
<path d="M2069.88 939H2060.51V1032.75H2069.88V939Z" fill="#F3F4EB"/>
<path d="M2173 939H2079.25V1032.75H2173V939Z" fill="#F6A362"/>
<path d="M2173 939H2079.25V1032.75H2173V939Z" fill="#E2E6CF"/>
<path d="M2079.26 1032.75H1985.51V1126.49H2079.26V1032.75Z" fill="#E7F5F4"/>
<path d="M2079.26 1032.75H1985.51V1042.12H2079.26V1032.75Z" fill="#FDC195"/>
<path d="M2079.26 1051.5H1985.51V1060.87H2079.26V1051.5Z" fill="#FDC195"/>
<path d="M2079.26 1070.24H1985.51V1079.62H2079.26V1070.24Z" fill="#FDC195"/>
<path d="M2079.26 1088.99H1985.51V1098.37H2079.26V1088.99Z" fill="#FDC195"/>
<path d="M2079.26 1107.74H1985.51V1117.12H2079.26V1107.74Z" fill="#FDC195"/>
<path d="M2173 1032.75H2079.25V1126.49H2173V1032.75Z" fill="#D0ECEA"/>
<path d="M2079.25 1032.75C2104.12 1032.75 2127.96 1042.62 2145.54 1060.2C2163.12 1077.78 2173 1101.63 2173 1126.49L2079.25 1032.75C2079.25 1057.61 2089.13 1081.45 2106.71 1099.03C2124.29 1116.61 2148.14 1126.49 2173 1126.49" fill="#FCA15F"/>
<path d="M860.491 1126.49H673V1313.98H860.491V1126.49Z" fill="#E3E6D0"/>
<path d="M673 1126.49L860.491 1313.98H673V1126.49Z" fill="#B8E2DF"/>
<path d="M1048 1126.5H860.5V1314H1048V1126.5Z" fill="white"/>
<path d="M954.236 1126.49H860.49V1220.24H954.236V1126.49Z" fill="#FA7718"/>
<path d="M869.865 1126.49H860.49V1220.24H869.865V1126.49Z" fill="#FEF6EF"/>
<path d="M888.615 1126.49H879.24V1220.24H888.615V1126.49Z" fill="#FEF6EF"/>
<path d="M907.363 1126.49H897.988V1220.24H907.363V1126.49Z" fill="#FEF6EF"/>
<path d="M926.113 1126.49H916.738V1220.24H926.113V1126.49Z" fill="#FEF6EF"/>
<path d="M944.861 1126.49H935.486V1220.24H944.861V1126.49Z" fill="#FEF6EF"/>
<path d="M1047.98 1126.49H954.236V1220.24H1047.98V1126.49Z" fill="#F7F8F2"/>
<path d="M1047.98 1126.49H954.236V1220.24H1047.98V1126.49Z" fill="#FEFEFE"/>
<path d="M954.236 1220.24H860.49V1313.98H954.236V1220.24Z" fill="#DFF2F1"/>
<path d="M954.236 1220.24H860.49V1229.61H954.236V1220.24Z" fill="#C6EEF6"/>
<path d="M954.236 1238.99H860.49V1248.36H954.236V1238.99Z" fill="#C6EEF6"/>
<path d="M954.236 1257.73H860.49V1267.11H954.236V1257.73Z" fill="#C6EEF6"/>
<path d="M954.236 1276.48H860.49V1285.86H954.236V1276.48Z" fill="#C6EEF6"/>
<path d="M954.236 1295.23H860.49V1304.61H954.236V1295.23Z" fill="#C6EEF6"/>
<path d="M1047.98 1220.24H954.236V1313.98H1047.98V1220.24Z" fill="#FB8F40"/>
<path d="M954.236 1220.24H1047.98L954.236 1313.98V1220.24Z" fill="#FDC69E"/>
<path d="M1235.51 1126.49H1048.02V1313.98H1235.51V1126.49Z" fill="#FACCA8"/>
<path d="M1066.77 1126.49H1048.02V1313.98H1066.77V1126.49Z" fill="#76D6E9"/>
<path d="M1104.26 1126.49H1085.52V1313.98H1104.26V1126.49Z" fill="#76D6E9"/>
<path d="M1141.76 1126.49H1123.01V1313.98H1141.76V1126.49Z" fill="#76D6E9"/>
<path d="M1179.26 1126.49H1160.51V1313.98H1179.26V1126.49Z" fill="#76D6E9"/>
<path d="M1216.76 1126.49H1198.01V1313.98H1216.76V1126.49Z" fill="#76D6E9"/>
<path d="M1423 1126.49H1235.51V1313.98H1423V1126.49Z" fill="#FEF8F3"/>
<path d="M1254.26 1126.49H1235.51V1313.98H1254.26V1126.49Z" fill="#87DBEC"/>
<path d="M1291.76 1126.49H1273.01V1313.98H1291.76V1126.49Z" fill="#87DBEC"/>
<path d="M1329.25 1126.49H1310.51V1313.98H1329.25V1126.49Z" fill="#87DBEC"/>
<path d="M1366.75 1126.49H1348V1313.98H1366.75V1126.49Z" fill="#87DBEC"/>
<path d="M1404.25 1126.49H1385.5V1313.98H1404.25V1126.49Z" fill="#87DBEC"/>
<path d="M1610.49 1126.49H1423V1313.98H1610.49V1126.49Z" fill="#A0E3F0"/>
<path d="M1610.49 1126.49H1423V1145.24H1610.49V1126.49Z" fill="#FB8834"/>
<path d="M1610.49 1163.99H1423V1182.74H1610.49V1163.99Z" fill="#FB8834"/>
<path d="M1610.49 1201.49H1423V1220.24H1610.49V1201.49Z" fill="#FB8834"/>
<path d="M1610.49 1238.98H1423V1257.73H1610.49V1238.98Z" fill="#FB8834"/>
<path d="M1610.49 1276.48H1423V1295.23H1610.49V1276.48Z" fill="#FB8834"/>
<path d="M1797.98 1126.49H1610.49V1313.98H1797.98V1126.49Z" fill="#D4F2F8"/>
<path d="M1797.98 1126.49H1610.49V1145.24H1797.98V1126.49Z" fill="#B1DFDC"/>
<path d="M1797.98 1163.99H1610.49V1182.74H1797.98V1163.99Z" fill="#B1DFDC"/>
<path d="M1797.98 1201.49H1610.49V1220.24H1797.98V1201.49Z" fill="#B1DFDC"/>
<path d="M1797.98 1238.98H1610.49V1257.73H1797.98V1238.98Z" fill="#B1DFDC"/>
<path d="M1797.98 1276.48H1610.49V1295.23H1797.98V1276.48Z" fill="#B1DFDC"/>
<path d="M1985.51 1126.49H1798.02V1313.98H1985.51V1126.49Z" fill="#FCA769"/>
<path d="M1816.77 1126.49H1798.02V1313.98H1816.77V1126.49Z" fill="#E6E9D6"/>
<path d="M1854.27 1126.49H1835.52V1313.98H1854.27V1126.49Z" fill="#E6E9D6"/>
<path d="M1891.76 1126.49H1873.02V1313.98H1891.76V1126.49Z" fill="#E6E9D6"/>
<path d="M1929.26 1126.49H1910.51V1313.98H1929.26V1126.49Z" fill="#E6E9D6"/>
<path d="M1966.76 1126.49H1948.01V1313.98H1966.76V1126.49Z" fill="#E6E9D6"/>
<path d="M2173 1126.49H1985.51V1313.98H2173V1126.49Z" fill="#FEFEFD"/>
<path d="M2173 1126.49H1985.51V1145.24H2173V1126.49Z" fill="#EEF8F8"/>
<path d="M2173 1163.99H1985.51V1182.74H2173V1163.99Z" fill="#EEF8F8"/>
<path d="M2173 1201.49H1985.51V1220.24H2173V1201.49Z" fill="#EEF8F8"/>
<path d="M2173 1238.98H1985.51V1257.73H2173V1238.98Z" fill="#EEF8F8"/>
<path d="M2173 1276.48H1985.51V1295.23H2173V1276.48Z" fill="#EEF8F8"/>
<path d="M860.491 1314.02H673V1501.51H860.491V1314.02Z" fill="#F8F9F3"/>
<path d="M691.749 1314.02H673V1501.51H691.749V1314.02Z" fill="#E6E9D6"/>
<path d="M729.247 1314.02H710.498V1501.51H729.247V1314.02Z" fill="#E6E9D6"/>
<path d="M766.745 1314.02H747.996V1501.51H766.745V1314.02Z" fill="#E6E9D6"/>
<path d="M804.243 1314.02H785.494V1501.51H804.243V1314.02Z" fill="#E6E9D6"/>
<path d="M841.741 1314.02H822.992V1501.51H841.741V1314.02Z" fill="#E6E9D6"/>
<path d="M1048 1314H860.5V1501.5H1048V1314Z" fill="white"/>
<path d="M954.236 1314.02H860.49V1407.76H954.236V1314.02Z" fill="#B1DFDC"/>
<path d="M954.236 1314.02H860.49V1407.76H954.236V1314.02Z" fill="#E4F4F3"/>
<path d="M1047.98 1314.02H954.236V1407.76H1047.98V1314.02Z" fill="#FDEDE0"/>
<path d="M963.611 1314.02H954.236V1407.76H963.611V1314.02Z" fill="#EFFAFC"/>
<path d="M982.361 1314.02H972.986V1407.76H982.361V1314.02Z" fill="#EFFAFC"/>
<path d="M1001.11 1314.02H991.734V1407.76H1001.11V1314.02Z" fill="#EFFAFC"/>
<path d="M1019.86 1314.02H1010.48V1407.76H1019.86V1314.02Z" fill="#EFFAFC"/>
<path d="M1038.61 1314.02H1029.23V1407.76H1038.61V1314.02Z" fill="#EFFAFC"/>
<path d="M954.236 1407.76H860.49V1501.51H954.236V1407.76Z" fill="#6DD3E8"/>
<path d="M860.49 1407.76H954.236V1501.51L860.49 1407.76Z" fill="#FB9144"/>
<path d="M1047.98 1407.76H954.236V1501.51H1047.98V1407.76Z" fill="#C8E9E7"/>
<path d="M954.236 1407.76L1047.98 1501.51H954.236V1407.76Z" fill="#E1E5CE"/>
<path d="M1235.51 1314.02H1048.02V1501.51H1235.51V1314.02Z" fill="#88DBEC"/>
<path d="M1066.77 1314.02H1048.02V1501.51H1066.77V1314.02Z" fill="#F49244"/>
<path d="M1104.26 1314.02H1085.52V1501.51H1104.26V1314.02Z" fill="#F49244"/>
<path d="M1141.76 1314.02H1123.01V1501.51H1141.76V1314.02Z" fill="#F49244"/>
<path d="M1179.26 1314.02H1160.51V1501.51H1179.26V1314.02Z" fill="#F49244"/>
<path d="M1216.76 1314.02H1198.01V1501.51H1216.76V1314.02Z" fill="#F49244"/>
<path d="M1423 1314.02H1235.51V1501.51H1423V1314.02Z" fill="#F9FDFE"/>
<path d="M1235.51 1501.51C1235.51 1451.78 1255.26 1404.09 1290.42 1368.93C1325.59 1333.77 1373.27 1314.02 1423 1314.02L1235.51 1501.51C1285.24 1501.51 1332.92 1481.75 1368.09 1446.59C1403.25 1411.43 1423 1363.74 1423 1314.02" fill="#C3E7E5"/>
<path d="M1610.49 1314.02H1423V1501.51H1610.49V1314.02Z" fill="#B0DFDC"/>
<path d="M1610.49 1314.02H1423V1332.77H1610.49V1314.02Z" fill="#F8B683"/>
<path d="M1610.49 1351.52H1423V1370.26H1610.49V1351.52Z" fill="#F8B683"/>
<path d="M1610.49 1389.01H1423V1407.76H1610.49V1389.01Z" fill="#F8B683"/>
<path d="M1610.49 1426.51H1423V1445.26H1610.49V1426.51Z" fill="#F8B683"/>
<path d="M1610.49 1464.01H1423V1482.76H1610.49V1464.01Z" fill="#F8B683"/>
<path d="M1797.98 1314.02H1610.49V1501.51H1797.98V1314.02Z" fill="#F7FDFE"/>
<path d="M1797.98 1314.02H1610.49V1332.77H1797.98V1314.02Z" fill="#FB9347"/>
<path d="M1797.98 1351.52H1610.49V1370.26H1797.98V1351.52Z" fill="#FB9347"/>
<path d="M1797.98 1389.01H1610.49V1407.76H1797.98V1389.01Z" fill="#FB9347"/>
<path d="M1797.98 1426.51H1610.49V1445.26H1797.98V1426.51Z" fill="#FB9347"/>
<path d="M1797.98 1464.01H1610.49V1482.76H1797.98V1464.01Z" fill="#FB9347"/>
<path d="M1985.51 1314.02H1798.02V1501.51H1985.51V1314.02Z" fill="#F48C3A"/>
<path d="M1798.02 1314.02H1985.51V1501.51L1798.02 1314.02Z" fill="#EDF8F7"/>
<path d="M2173 1314.02H1985.51V1501.51H2173V1314.02Z" fill="#CCEAE8"/>
<path d="M1985.51 1314.02C2035.24 1314.02 2082.92 1333.77 2118.09 1368.93C2153.25 1404.09 2173 1451.78 2173 1501.51H1985.51" fill="#FEDDC6"/>
<path d="M860.491 1501.51H673V1689H860.491V1501.51Z" fill="#FEE5D3"/>
<path d="M691.749 1501.51H673V1689H691.749V1501.51Z" fill="#BDEBF4"/>
<path d="M729.247 1501.51H710.498V1689H729.247V1501.51Z" fill="#BDEBF4"/>
<path d="M766.745 1501.51H747.996V1689H766.745V1501.51Z" fill="#BDEBF4"/>
<path d="M804.243 1501.51H785.494V1689H804.243V1501.51Z" fill="#BDEBF4"/>
<path d="M841.741 1501.51H822.992V1689H841.741V1501.51Z" fill="#BDEBF4"/>
<path d="M1047.98 1501.51H860.49V1689H1047.98V1501.51Z" fill="#FDEDE0"/>
<path d="M860.49 1501.51H1047.98V1689L860.49 1501.51Z" fill="#FEDEC7"/>
<path d="M1235.51 1501.51H1048.02V1689H1235.51V1501.51Z" fill="#FB842D"/>
<path d="M1066.77 1501.51H1048.02V1689H1066.77V1501.51Z" fill="#FACAA5"/>
<path d="M1104.26 1501.51H1085.52V1689H1104.26V1501.51Z" fill="#FACAA5"/>
<path d="M1141.76 1501.51H1123.01V1689H1141.76V1501.51Z" fill="#FACAA5"/>
<path d="M1179.26 1501.51H1160.51V1689H1179.26V1501.51Z" fill="#FACAA5"/>
<path d="M1216.76 1501.51H1198.01V1689H1216.76V1501.51Z" fill="#FACAA5"/>
<path d="M1423 1501.51H1235.51V1689H1423V1501.51Z" fill="#F7B077"/>
<path d="M1423 1501.51H1235.51V1520.26H1423V1501.51Z" fill="#FEE5D3"/>
<path d="M1423 1539.01H1235.51V1557.76H1423V1539.01Z" fill="#FEE5D3"/>
<path d="M1423 1576.51H1235.51V1595.25H1423V1576.51Z" fill="#FEE5D3"/>
<path d="M1423 1614H1235.51V1632.75H1423V1614Z" fill="#FEE5D3"/>
<path d="M1423 1651.5H1235.51V1670.25H1423V1651.5Z" fill="#FEE5D3"/>
<path d="M1610.5 1501.5H1423V1689H1610.5V1501.5Z" fill="white"/>
<path d="M1516.75 1501.51H1423V1595.26H1516.75V1501.51Z" fill="#F8BA89"/>
<path d="M1516.75 1501.51H1423V1595.26H1516.75V1501.51Z" fill="#C0E5E3"/>
<path d="M1610.49 1501.51H1516.75V1595.26H1610.49V1501.51Z" fill="#FEE8D8"/>
<path d="M1516.75 1595.26C1541.61 1595.26 1565.45 1585.38 1583.03 1567.8C1600.61 1550.22 1610.49 1526.37 1610.49 1501.51H1516.75" fill="#F6A362"/>
<path d="M1516.75 1595.25H1423V1689H1516.75V1595.25Z" fill="#FEEADB"/>
<path d="M1423 1595.25C1447.86 1595.25 1471.71 1605.13 1489.29 1622.71C1506.87 1640.29 1516.75 1664.14 1516.75 1689H1423" fill="#FEDFC8"/>
<path d="M1610.49 1595.25H1516.75V1689H1610.49V1595.25Z" fill="#F59A52"/>
<path d="M1610.49 1595.25V1689H1516.75L1610.49 1595.25Z" fill="#73D5E9"/>
<path d="M1797.98 1501.51H1610.49V1689H1797.98V1501.51Z" fill="#9CE1EF"/>
<path d="M1629.24 1501.51H1610.49V1689H1629.24V1501.51Z" fill="#BFECF5"/>
<path d="M1666.74 1501.51H1647.99V1689H1666.74V1501.51Z" fill="#BFECF5"/>
<path d="M1704.24 1501.51H1685.49V1689H1704.24V1501.51Z" fill="#BFECF5"/>
<path d="M1741.73 1501.51H1722.98V1689H1741.73V1501.51Z" fill="#BFECF5"/>
<path d="M1779.23 1501.51H1760.48V1689H1779.23V1501.51Z" fill="#BFECF5"/>
<path d="M1985.51 1501.51H1798.02V1689H1985.51V1501.51Z" fill="#F6F7F0"/>
<path d="M1816.77 1501.51H1798.02V1689H1816.77V1501.51Z" fill="#91DEED"/>
<path d="M1854.27 1501.51H1835.52V1689H1854.27V1501.51Z" fill="#91DEED"/>
<path d="M1891.76 1501.51H1873.02V1689H1891.76V1501.51Z" fill="#91DEED"/>
<path d="M1929.26 1501.51H1910.51V1689H1929.26V1501.51Z" fill="#91DEED"/>
<path d="M1966.76 1501.51H1948.01V1689H1966.76V1501.51Z" fill="#91DEED"/>
<path d="M2173 1501.5H1985.5V1689H2173V1501.5Z" fill="white"/>
<path d="M2079.26 1501.51H1985.51V1595.26H2079.26V1501.51Z" fill="#DFF2F1"/>
<path d="M2079.26 1501.51H1985.51V1595.26H2079.26V1501.51Z" fill="#F6A768"/>
<path d="M2173 1501.51H2079.25V1595.26H2173V1501.51Z" fill="#F48E3E"/>
<path d="M2079.25 1501.51C2079.25 1526.37 2089.13 1550.22 2106.71 1567.8C2124.29 1585.38 2148.14 1595.26 2173 1595.26V1501.51" fill="#F7FCFB"/>
<path d="M2079.26 1595.25H1985.51V1689H2079.26V1595.25Z" fill="#F2FBFD"/>
<path d="M1994.88 1595.25H1985.51V1689H1994.88V1595.25Z" fill="#CBEFF7"/>
<path d="M2013.63 1595.25H2004.26V1689H2013.63V1595.25Z" fill="#CBEFF7"/>
<path d="M2032.38 1595.25H2023.01V1689H2032.38V1595.25Z" fill="#CBEFF7"/>
<path d="M2051.13 1595.25H2041.76V1689H2051.13V1595.25Z" fill="#CBEFF7"/>
<path d="M2069.88 1595.25H2060.51V1689H2069.88V1595.25Z" fill="#CBEFF7"/>
<path d="M2173 1595.25H2079.25V1689H2173V1595.25Z" fill="#9EE2F0"/>
<path d="M2088.63 1595.25H2079.25V1689H2088.63V1595.25Z" fill="#C1E5E3"/>
<path d="M2107.38 1595.25H2098V1689H2107.38V1595.25Z" fill="#C1E5E3"/>
<path d="M2126.13 1595.25H2116.75V1689H2126.13V1595.25Z" fill="#C1E5E3"/>
<path d="M2144.88 1595.25H2135.5V1689H2144.88V1595.25Z" fill="#C1E5E3"/>
<path d="M2163.62 1595.25H2154.25V1689H2163.62V1595.25Z" fill="#C1E5E3"/>
<path d="M860.5 1689H673V1876.5H860.5V1689Z" fill="white"/>
<path d="M766.745 1689H673V1782.75H766.745V1689Z" fill="#BDE4E2"/>
<path d="M673 1689C673 1713.86 682.877 1737.71 700.457 1755.29C718.038 1772.87 741.883 1782.75 766.745 1782.75V1689" fill="#90DEED"/>
<path d="M860.491 1689H766.746V1782.75H860.491V1689Z" fill="#E1E4CD"/>
<path d="M766.746 1689C766.746 1713.86 776.623 1737.71 794.203 1755.29C811.784 1772.87 835.629 1782.75 860.491 1782.75V1689" fill="#90DEED"/>
<path d="M766.745 1782.75H673V1876.49H766.745V1782.75Z" fill="#F38731"/>
<path d="M766.745 1782.75H673V1876.49H766.745V1782.75Z" fill="#BBE3E1"/>
<path d="M860.491 1782.75H766.746V1876.49H860.491V1782.75Z" fill="#90DEED"/>
<path d="M766.746 1876.49C791.609 1876.49 815.453 1866.61 833.034 1849.03C850.615 1831.45 860.491 1807.61 860.491 1782.75H766.746" fill="#EEFAFC"/>
<path d="M1047.98 1689H860.49V1876.49H1047.98V1689Z" fill="#E3E7D1"/>
<path d="M1047.98 1689V1876.49H860.49L1047.98 1689Z" fill="#EAECDC"/>
<path d="M1235.51 1689H1048.02V1876.49H1235.51V1689Z" fill="#FC9952"/>
<path d="M1235.51 1689H1048.02V1876.49H1235.51V1689Z" fill="#FDFDFC"/>
<path d="M1423 1689H1235.5V1876.5H1423V1689Z" fill="white"/>
<path d="M1329.26 1689H1235.51V1782.75H1329.26V1689Z" fill="#CCF0F7"/>
<path d="M1329.26 1689H1235.51V1782.75H1329.26V1689Z" fill="#F9C59C"/>
<path d="M1423 1689H1329.25V1782.75H1423V1689Z" fill="#74D5E9"/>
<path d="M1329.25 1689H1423L1329.25 1782.75V1689Z" fill="#B5E1DE"/>
<path d="M1329.26 1782.75H1235.51V1876.49H1329.26V1782.75Z" fill="#F6A464"/>
<path d="M1329.26 1782.75H1235.51V1876.49H1329.26V1782.75Z" fill="#F7FCFB"/>
<path d="M1423 1782.75H1329.25V1876.49H1423V1782.75Z" fill="#DEF1F0"/>
<path d="M1423 1782.75H1329.25V1876.49H1423V1782.75Z" fill="#E1F3F2"/>
<path d="M1610.49 1689H1423V1876.49H1610.49V1689Z" fill="#E2E6D0"/>
<path d="M1423 1689H1610.49L1423 1876.49V1689Z" fill="#EFFAFC"/>
<path d="M1797.98 1689H1610.49V1876.49H1797.98V1689Z" fill="#DFF5FA"/>
<path d="M1797.98 1689H1610.49V1876.49H1797.98V1689Z" fill="#F0F9F8"/>
<path d="M1985.51 1689H1798.02V1876.49H1985.51V1689Z" fill="#72D5E8"/>
<path d="M1798.02 1689L1985.51 1876.49H1798.02V1689Z" fill="#76D6E9"/>
<path d="M2173 1689H1985.51V1876.49H2173V1689Z" fill="#FFF6EF"/>
<path d="M2173 1689H1985.51V1707.75H2173V1689Z" fill="#FB9348"/>
<path d="M2173 1726.5H1985.51V1745.25H2173V1726.5Z" fill="#FB9348"/>
<path d="M2173 1764H1985.51V1782.75H2173V1764Z" fill="#FB9348"/>
<path d="M2173 1801.49H1985.51V1820.24H2173V1801.49Z" fill="#FB9348"/>
<path d="M2173 1838.99H1985.51V1857.74H2173V1838.99Z" fill="#FB9348"/>
<path d="M860.491 1876.49H673V2063.98H860.491V1876.49Z" fill="white"/>
<path d="M860.491 1876.49H673V1895.24H860.491V1876.49Z" fill="#FCAC72"/>
<path d="M860.491 1913.99H673V1932.74H860.491V1913.99Z" fill="#FCAC72"/>
<path d="M860.491 1951.49H673V1970.24H860.491V1951.49Z" fill="#FCAC72"/>
<path d="M860.491 1988.98H673V2007.73H860.491V1988.98Z" fill="#FCAC72"/>
<path d="M860.491 2026.48H673V2045.23H860.491V2026.48Z" fill="#FCAC72"/>
<path d="M1047.98 1876.49H860.49V2063.98H1047.98V1876.49Z" fill="#7DD8EA"/>
<path d="M860.49 1876.49C910.216 1876.49 957.905 1896.24 993.066 1931.41C1028.23 1966.57 1047.98 2014.26 1047.98 2063.98L860.49 1876.49C860.49 1926.22 880.244 1973.9 915.405 2009.07C950.566 2044.23 998.255 2063.98 1047.98 2063.98" fill="#FCAF76"/>
<path d="M1235.51 1876.49H1048.02V2063.98H1235.51V1876.49Z" fill="#ECEFE0"/>
<path d="M1235.51 1876.49H1048.02V1895.24H1235.51V1876.49Z" fill="#DBF4F9"/>
<path d="M1235.51 1913.99H1048.02V1932.74H1235.51V1913.99Z" fill="#DBF4F9"/>
<path d="M1235.51 1951.49H1048.02V1970.24H1235.51V1951.49Z" fill="#DBF4F9"/>
<path d="M1235.51 1988.98H1048.02V2007.73H1235.51V1988.98Z" fill="#DBF4F9"/>
<path d="M1235.51 2026.48H1048.02V2045.23H1235.51V2026.48Z" fill="#DBF4F9"/>
<path d="M1423 1876.5H1235.5V2064H1423V1876.5Z" fill="white"/>
<path d="M1329.26 1876.49H1235.51V1970.24H1329.26V1876.49Z" fill="#FFF6F0"/>
<path d="M1235.51 1970.24C1235.51 1945.37 1245.39 1921.53 1262.97 1903.95C1280.55 1886.37 1304.39 1876.49 1329.26 1876.49V1970.24" fill="#E8EBD9"/>
<path d="M1423 1876.49H1329.25V1970.24H1423V1876.49Z" fill="#C7E8E6"/>
<path d="M1423 1876.49H1329.25V1970.24H1423V1876.49Z" fill="#F7F8F3"/>
<path d="M1329.26 1970.24H1235.51V2063.98H1329.26V1970.24Z" fill="#C5E7E5"/>
<path d="M1329.26 1970.24H1235.51V2063.98H1329.26V1970.24Z" fill="#FFFAF7"/>
<path d="M1423 1970.24H1329.25V2063.98H1423V1970.24Z" fill="#C4EDF6"/>
<path d="M1423 1970.24H1329.25V2063.98H1423V1970.24Z" fill="#F6A05D"/>
<path d="M1610.5 1876.5H1423V2064H1610.5V1876.5Z" fill="white"/>
<path d="M1516.75 1876.49H1423V1970.24H1516.75V1876.49Z" fill="#B2E8F3"/>
<path d="M1516.75 1876.49V1970.24H1423L1516.75 1876.49Z" fill="#FBD4B5"/>
<path d="M1610.49 1876.49H1516.75V1970.24H1610.49V1876.49Z" fill="#D0ECEA"/>
<path d="M1526.12 1876.49H1516.75V1970.24H1526.12V1876.49Z" fill="#FFF7F2"/>
<path d="M1544.87 1876.49H1535.5V1970.24H1544.87V1876.49Z" fill="#FFF7F2"/>
<path d="M1563.62 1876.49H1554.24V1970.24H1563.62V1876.49Z" fill="#FFF7F2"/>
<path d="M1582.37 1876.49H1572.99V1970.24H1582.37V1876.49Z" fill="#FFF7F2"/>
<path d="M1601.12 1876.49H1591.74V1970.24H1601.12V1876.49Z" fill="#FFF7F2"/>
<path d="M1516.75 1970.24H1423V2063.98H1516.75V1970.24Z" fill="#EAEDDC"/>
<path d="M1423 1970.24C1447.86 1970.24 1471.71 1980.11 1489.29 1997.69C1506.87 2015.27 1516.75 2039.12 1516.75 2063.98L1423 1970.24C1423 1982.55 1425.42 1994.74 1430.14 2006.11C1434.85 2017.48 1441.75 2027.82 1450.46 2036.52C1459.16 2045.23 1469.5 2052.13 1480.87 2056.85C1492.24 2061.56 1504.43 2063.98 1516.75 2063.98" fill="#FA700C"/>
<path d="M1610.49 1970.24H1516.75V2063.98H1610.49V1970.24Z" fill="#E1E5CD"/>
<path d="M1516.75 1970.24H1610.49V2063.98L1516.75 1970.24Z" fill="#FEE9DA"/>
<path d="M1797.98 1876.49H1610.49V2063.98H1797.98V1876.49Z" fill="#FA6A01"/>
<path d="M1797.98 1876.49V2063.98H1610.49L1797.98 1876.49Z" fill="#E8EBD9"/>
<path d="M1985.51 1876.49H1798.02V2063.98H1985.51V1876.49Z" fill="#C4EDF6"/>
<path d="M1798.02 1876.49C1847.75 1876.49 1895.43 1896.24 1930.6 1931.41C1965.76 1966.57 1985.51 2014.26 1985.51 2063.98H1798.02" fill="#FACBA6"/>
<path d="M2173 1876.49H1985.51V2063.98H2173V1876.49Z" fill="#FBD7BB"/>
<path d="M1985.51 2063.98C1985.51 2014.26 2005.26 1966.57 2040.42 1931.41C2075.59 1896.24 2123.27 1876.49 2173 1876.49L1985.51 2063.98C2035.24 2063.98 2082.92 2044.23 2118.09 2009.07C2153.25 1973.9 2173 1926.22 2173 1876.49" fill="#FB822B"/>
<path d="M860.491 2064.02H673V2251.51H860.491V2064.02Z" fill="#A4E4F0"/>
<path d="M860.491 2064.02V2251.51H673L860.491 2064.02Z" fill="#FAC8A1"/>
<path d="M1047.98 2064.02H860.49V2251.51H1047.98V2064.02Z" fill="#EBEDDD"/>
<path d="M860.49 2064.02H1047.98L860.49 2251.51V2064.02Z" fill="#F5974C"/>
<path d="M1235.51 2064.02H1048.02V2251.51H1235.51V2064.02Z" fill="#EAEDDC"/>
<path d="M1066.77 2064.02H1048.02V2251.51H1066.77V2064.02Z" fill="#F8B580"/>
<path d="M1104.26 2064.02H1085.52V2251.51H1104.26V2064.02Z" fill="#F8B580"/>
<path d="M1141.76 2064.02H1123.01V2251.51H1141.76V2064.02Z" fill="#F8B580"/>
<path d="M1179.26 2064.02H1160.51V2251.51H1179.26V2064.02Z" fill="#F8B580"/>
<path d="M1216.76 2064.02H1198.01V2251.51H1216.76V2064.02Z" fill="#F8B580"/>
<path d="M1423 2064.02H1235.51V2251.51H1423V2064.02Z" fill="#E1E4CD"/>
<path d="M1423 2064.02H1235.51V2082.77H1423V2064.02Z" fill="#F8BD8E"/>
<path d="M1423 2101.52H1235.51V2120.27H1423V2101.52Z" fill="#F8BD8E"/>
<path d="M1423 2139.02H1235.51V2157.76H1423V2139.02Z" fill="#F8BD8E"/>
<path d="M1423 2176.51H1235.51V2195.26H1423V2176.51Z" fill="#F8BD8E"/>
<path d="M1423 2214.01H1235.51V2232.76H1423V2214.01Z" fill="#F8BD8E"/>
<path d="M1610.5 2064H1423V2251.5H1610.5V2064Z" fill="white"/>
<path d="M1516.75 2064.02H1423V2157.76H1516.75V2064.02Z" fill="#D6EEED"/>
<path d="M1432.37 2064.02H1423V2157.76H1432.37V2064.02Z" fill="#E8EBDA"/>
<path d="M1451.12 2064.02H1441.75V2157.76H1451.12V2064.02Z" fill="#E8EBDA"/>
<path d="M1469.87 2064.02H1460.5V2157.76H1469.87V2064.02Z" fill="#E8EBDA"/>
<path d="M1488.62 2064.02H1479.25V2157.76H1488.62V2064.02Z" fill="#E8EBDA"/>
<path d="M1507.37 2064.02H1498V2157.76H1507.37V2064.02Z" fill="#E8EBDA"/>
<path d="M1610.49 2064.02H1516.75V2157.76H1610.49V2064.02Z" fill="#F7B27A"/>
<path d="M1516.75 2157.76C1516.75 2132.9 1526.62 2109.06 1544.2 2091.48C1561.78 2073.9 1585.63 2064.02 1610.49 2064.02V2157.76" fill="#F7B17A"/>
<path d="M1516.75 2157.76H1423V2251.51H1516.75V2157.76Z" fill="#FDBF92"/>
<path d="M1516.75 2157.76H1423V2251.51H1516.75V2157.76Z" fill="#FDF0E5"/>
<path d="M1610.49 2157.76H1516.75V2251.51H1610.49V2157.76Z" fill="#FFF0E6"/>
<path d="M1610.49 2157.76H1516.75V2251.51H1610.49V2157.76Z" fill="#FDC8A1"/>
<path d="M1797.98 2064.02H1610.49V2251.51H1797.98V2064.02Z" fill="#CFEBEA"/>
<path d="M1610.49 2064.02C1660.22 2064.02 1707.9 2083.77 1743.07 2118.93C1778.23 2154.1 1797.98 2201.78 1797.98 2251.51H1610.49" fill="#FCDFC8"/>
<path d="M1985.51 2064.02H1798.02V2251.51H1985.51V2064.02Z" fill="#BEE4E2"/>
<path d="M1985.51 2064.02H1798.02V2082.77H1985.51V2064.02Z" fill="#FA7717"/>
<path d="M1985.51 2101.52H1798.02V2120.27H1985.51V2101.52Z" fill="#FA7717"/>
<path d="M1985.51 2139.02H1798.02V2157.76H1985.51V2139.02Z" fill="#FA7717"/>
<path d="M1985.51 2176.51H1798.02V2195.26H1985.51V2176.51Z" fill="#FA7717"/>
<path d="M1985.51 2214.01H1798.02V2232.76H1985.51V2214.01Z" fill="#FA7717"/>
<path d="M2173 2064.02H1985.51V2251.51H2173V2064.02Z" fill="#FCAD74"/>
<path d="M2173 2064.02H1985.51V2082.77H2173V2064.02Z" fill="#6BD3E7"/>
<path d="M2173 2101.52H1985.51V2120.27H2173V2101.52Z" fill="#6BD3E7"/>
<path d="M2173 2139.02H1985.51V2157.76H2173V2139.02Z" fill="#6BD3E7"/>
<path d="M2173 2176.51H1985.51V2195.26H2173V2176.51Z" fill="#6BD3E7"/>
<path d="M2173 2214.01H1985.51V2232.76H2173V2214.01Z" fill="#6BD3E7"/>
<path d="M860.5 2251.5H673V2439H860.5V2251.5Z" fill="white"/>
<path d="M766.745 2251.51H673V2345.26H766.745V2251.51Z" fill="#F7A96D"/>
<path d="M682.375 2251.51H673V2345.26H682.375V2251.51Z" fill="#FCFCFA"/>
<path d="M701.125 2251.51H691.75V2345.26H701.125V2251.51Z" fill="#FCFCFA"/>
<path d="M719.873 2251.51H710.498V2345.26H719.873V2251.51Z" fill="#FCFCFA"/>
<path d="M738.623 2251.51H729.248V2345.26H738.623V2251.51Z" fill="#FCFCFA"/>
<path d="M757.371 2251.51H747.996V2345.26H757.371V2251.51Z" fill="#FCFCFA"/>
<path d="M860.491 2251.51H766.746V2345.26H860.491V2251.51Z" fill="#EBEEDF"/>
<path d="M766.746 2345.26C766.746 2320.39 776.623 2296.55 794.203 2278.97C811.784 2261.39 835.629 2251.51 860.491 2251.51V2345.26" fill="#FDFEFE"/>
<path d="M766.745 2345.25H673V2439H766.745V2345.25Z" fill="#FCDDC5"/>
<path d="M766.745 2345.25H673V2354.63H766.745V2345.25Z" fill="#9CE1EF"/>
<path d="M766.745 2364H673V2373.38H766.745V2364Z" fill="#9CE1EF"/>
<path d="M766.745 2382.75H673V2392.13H766.745V2382.75Z" fill="#9CE1EF"/>
<path d="M766.745 2401.5H673V2410.88H766.745V2401.5Z" fill="#9CE1EF"/>
<path d="M766.745 2420.25H673V2429.62H766.745V2420.25Z" fill="#9CE1EF"/>
<path d="M860.491 2345.25H766.746V2439H860.491V2345.25Z" fill="#FEDAC0"/>
<path d="M860.491 2345.25H766.746V2439H860.491V2345.25Z" fill="#F1F3E8"/>
<path d="M1047.98 2251.51H860.49V2439H1047.98V2251.51Z" fill="#F9FAF5"/>
<path d="M860.49 2251.51C910.216 2251.51 957.905 2271.26 993.066 2306.42C1028.23 2341.59 1047.98 2389.27 1047.98 2439H860.49" fill="#FC9850"/>
<path d="M1235.51 2251.51H1048.02V2439H1235.51V2251.51Z" fill="#EFF1E4"/>
<path d="M1048.02 2439C1048.02 2389.27 1067.77 2341.59 1102.93 2306.42C1138.09 2271.26 1185.78 2251.51 1235.51 2251.51L1048.02 2439C1097.74 2439 1145.43 2419.25 1180.59 2384.09C1215.75 2348.92 1235.51 2301.24 1235.51 2251.51" fill="#EBF9FC"/>
<path d="M1423 2251.51H1235.51V2439H1423V2251.51Z" fill="#E3E7D1"/>
<path d="M1423 2251.51V2439H1235.51L1423 2251.51Z" fill="#AFE7F2"/>
<path d="M1610.49 2251.51H1423V2439H1610.49V2251.51Z" fill="#FCFCFA"/>
<path d="M1441.75 2251.51H1423V2439H1441.75V2251.51Z" fill="#F5F6EE"/>
<path d="M1479.25 2251.51H1460.5V2439H1479.25V2251.51Z" fill="#F5F6EE"/>
<path d="M1516.75 2251.51H1498V2439H1516.75V2251.51Z" fill="#F5F6EE"/>
<path d="M1554.24 2251.51H1535.49V2439H1554.24V2251.51Z" fill="#F5F6EE"/>
<path d="M1591.74 2251.51H1572.99V2439H1591.74V2251.51Z" fill="#F5F6EE"/>
<path d="M1797.98 2251.51H1610.49V2439H1797.98V2251.51Z" fill="#CCEAE8"/>
<path d="M1629.24 2251.51H1610.49V2439H1629.24V2251.51Z" fill="#7DD8EA"/>
<path d="M1666.74 2251.51H1647.99V2439H1666.74V2251.51Z" fill="#7DD8EA"/>
<path d="M1704.24 2251.51H1685.49V2439H1704.24V2251.51Z" fill="#7DD8EA"/>
<path d="M1741.73 2251.51H1722.98V2439H1741.73V2251.51Z" fill="#7DD8EA"/>
<path d="M1779.23 2251.51H1760.48V2439H1779.23V2251.51Z" fill="#7DD8EA"/>
<path d="M1985.51 2251.51H1798.02V2439H1985.51V2251.51Z" fill="#FB7B1E"/>
<path d="M1798.02 2251.51C1847.75 2251.51 1895.43 2271.26 1930.6 2306.42C1965.76 2341.59 1985.51 2389.27 1985.51 2439L1798.02 2251.51C1798.02 2301.24 1817.77 2348.92 1852.93 2384.09C1888.1 2419.25 1935.78 2439 1985.51 2439" fill="#C8E8E7"/>
<path d="M2173 2251.51H1985.51V2439H2173V2251.51Z" fill="#F8F9F3"/>
<path d="M2173 2251.51H1985.51V2439H2173V2251.51Z" fill="#AEDEDB"/>
<path d="M860.491 2439H673V2626.49H860.491V2439Z" fill="#E6E9D6"/>
<path d="M673 2626.49C722.726 2626.49 770.415 2606.74 805.576 2571.58C840.737 2536.41 860.491 2488.73 860.491 2439H673" fill="#EDF8F7"/>
<path d="M1047.98 2439H860.49V2626.49H1047.98V2439Z" fill="#FDBC8C"/>
<path d="M1047.98 2439H860.49V2626.49H1047.98V2439Z" fill="#FCDCC3"/>
<path d="M1235.5 2439H1048V2626.5H1235.5V2439Z" fill="white"/>
<path d="M1141.76 2439H1048.02V2532.75H1141.76V2439Z" fill="#B3E8F3"/>
<path d="M1057.39 2439H1048.02V2532.75H1057.39V2439Z" fill="#FACAA5"/>
<path d="M1076.14 2439H1066.77V2532.75H1076.14V2439Z" fill="#FACAA5"/>
<path d="M1094.89 2439H1085.52V2532.75H1094.89V2439Z" fill="#FACAA5"/>
<path d="M1113.64 2439H1104.27V2532.75H1113.64V2439Z" fill="#FACAA5"/>
<path d="M1132.39 2439H1123.01V2532.75H1132.39V2439Z" fill="#FACAA5"/>
<path d="M1235.51 2439H1141.76V2532.75H1235.51V2439Z" fill="#D6F3F8"/>
<path d="M1235.51 2439H1141.76V2532.75H1235.51V2439Z" fill="#ECEEE0"/>
<path d="M1141.76 2532.75H1048.02V2626.49H1141.76V2532.75Z" fill="#FB9449"/>
<path d="M1048.02 2532.75L1141.76 2626.49H1048.02V2532.75Z" fill="#FACDA9"/>
<path d="M1235.51 2532.75H1141.76V2626.49H1235.51V2532.75Z" fill="#F2F3E9"/>
<path d="M1235.51 2532.75H1141.76V2626.49H1235.51V2532.75Z" fill="#E8EBD9"/>
<path d="M1423 2439H1235.51V2626.49H1423V2439Z" fill="#FAC9A2"/>
<path d="M1254.26 2439H1235.51V2626.49H1254.26V2439Z" fill="#FEFFFE"/>
<path d="M1291.76 2439H1273.01V2626.49H1291.76V2439Z" fill="#FEFFFE"/>
<path d="M1329.25 2439H1310.51V2626.49H1329.25V2439Z" fill="#FEFFFE"/>
<path d="M1366.75 2439H1348V2626.49H1366.75V2439Z" fill="#FEFFFE"/>
<path d="M1404.25 2439H1385.5V2626.49H1404.25V2439Z" fill="#FEFFFE"/>
<path d="M1610.49 2439H1423V2626.49H1610.49V2439Z" fill="#F48B39"/>
<path d="M1610.49 2439H1423V2626.49H1610.49V2439Z" fill="#FB8D3D"/>
<path d="M1798 2439H1610.5V2626.5H1798V2439Z" fill="white"/>
<path d="M1704.24 2439H1610.49V2532.75H1704.24V2439Z" fill="#D5F2F8"/>
<path d="M1704.24 2439H1610.49V2448.37H1704.24V2439Z" fill="#FAFDFD"/>
<path d="M1704.24 2457.75H1610.49V2467.12H1704.24V2457.75Z" fill="#FAFDFD"/>
<path d="M1704.24 2476.5H1610.49V2485.87H1704.24V2476.5Z" fill="#FAFDFD"/>
<path d="M1704.24 2495.25H1610.49V2504.62H1704.24V2495.25Z" fill="#FAFDFD"/>
<path d="M1704.24 2514H1610.49V2523.37H1704.24V2514Z" fill="#FAFDFD"/>
<path d="M1797.98 2439H1704.24V2532.75H1797.98V2439Z" fill="#F38733"/>
<path d="M1797.98 2439H1704.24V2532.75H1797.98V2439Z" fill="#FCA76A"/>
<path d="M1704.24 2532.75H1610.49V2626.49H1704.24V2532.75Z" fill="#F7B27A"/>
<path d="M1619.86 2532.75H1610.49V2626.49H1619.86V2532.75Z" fill="#E7EAD7"/>
<path d="M1638.61 2532.75H1629.24V2626.49H1638.61V2532.75Z" fill="#E7EAD7"/>
<path d="M1657.36 2532.75H1647.99V2626.49H1657.36V2532.75Z" fill="#E7EAD7"/>
<path d="M1676.11 2532.75H1666.74V2626.49H1676.11V2532.75Z" fill="#E7EAD7"/>
<path d="M1694.86 2532.75H1685.49V2626.49H1694.86V2532.75Z" fill="#E7EAD7"/>
<path d="M1797.98 2532.75H1704.24V2626.49H1797.98V2532.75Z" fill="#EAF7F6"/>
<path d="M1704.24 2532.75C1704.24 2557.61 1714.11 2581.45 1731.69 2599.03C1749.27 2616.61 1773.12 2626.49 1797.98 2626.49V2532.75" fill="#B2DFDD"/>
<path d="M1985.51 2439H1798.02V2626.49H1985.51V2439Z" fill="#F48C3B"/>
<path d="M1985.51 2439H1798.02V2626.49H1985.51V2439Z" fill="#71D4E8"/>
<path d="M2173 2439H1985.51V2626.49H2173V2439Z" fill="#91DEED"/>
<path d="M2173 2439H1985.51V2626.49H2173V2439Z" fill="#F2F3E9"/>
<path d="M860.491 2626.49H673V2813.98H860.491V2626.49Z" fill="#ECEFE0"/>
<path d="M673 2626.49H860.491V2813.98L673 2626.49Z" fill="#FC9952"/>
<path d="M1047.98 2626.49H860.49V2813.98H1047.98V2626.49Z" fill="#EBEEDF"/>
<path d="M860.49 2626.49C910.216 2626.49 957.905 2646.24 993.066 2681.41C1028.23 2716.57 1047.98 2764.26 1047.98 2813.98H860.49" fill="#E1E5CE"/>
<path d="M1235.5 2626.5H1048V2814H1235.5V2626.5Z" fill="white"/>
<path d="M1141.76 2626.49H1048.02V2720.24H1141.76V2626.49Z" fill="#F5F7EF"/>
<path d="M1048.02 2720.24C1072.88 2720.24 1096.72 2710.36 1114.31 2692.78C1131.89 2675.2 1141.76 2651.35 1141.76 2626.49H1048.02" fill="#B7E9F3"/>
<path d="M1235.51 2626.49H1141.76V2720.24H1235.51V2626.49Z" fill="#DEF1F0"/>
<path d="M1151.14 2626.49H1141.76V2720.24H1151.14V2626.49Z" fill="#FEEFE3"/>
<path d="M1169.89 2626.49H1160.51V2720.24H1169.89V2626.49Z" fill="#FEEFE3"/>
<path d="M1188.64 2626.49H1179.26V2720.24H1188.64V2626.49Z" fill="#FEEFE3"/>
<path d="M1207.39 2626.49H1198.01V2720.24H1207.39V2626.49Z" fill="#FEEFE3"/>
<path d="M1226.13 2626.49H1216.76V2720.24H1226.13V2626.49Z" fill="#FEEFE3"/>
<path d="M1141.76 2720.24H1048.02V2813.98H1141.76V2720.24Z" fill="#FDC49B"/>
<path d="M1141.76 2720.24V2813.98H1048.02L1141.76 2720.24Z" fill="#FAD0AF"/>
<path d="M1235.51 2720.24H1141.76V2813.98H1235.51V2720.24Z" fill="#9CE1EF"/>
<path d="M1235.51 2720.24H1141.76V2813.98H1235.51V2720.24Z" fill="#EEF8F8"/>
<path d="M1423 2626.49H1235.51V2813.98H1423V2626.49Z" fill="#FEE4D1"/>
<path d="M1423 2626.49H1235.51V2813.98H1423V2626.49Z" fill="#7BD7EA"/>
<path d="M1610.49 2626.49H1423V2813.98H1610.49V2626.49Z" fill="#EEF0E3"/>
<path d="M1441.75 2626.49H1423V2813.98H1441.75V2626.49Z" fill="#98E0EF"/>
<path d="M1479.25 2626.49H1460.5V2813.98H1479.25V2626.49Z" fill="#98E0EF"/>
<path d="M1516.75 2626.49H1498V2813.98H1516.75V2626.49Z" fill="#98E0EF"/>
<path d="M1554.24 2626.49H1535.49V2813.98H1554.24V2626.49Z" fill="#98E0EF"/>
<path d="M1591.74 2626.49H1572.99V2813.98H1591.74V2626.49Z" fill="#98E0EF"/>
<path d="M1797.98 2626.49H1610.49V2813.98H1797.98V2626.49Z" fill="#FDFDFC"/>
<path d="M1610.49 2626.49L1797.98 2813.98H1610.49V2626.49Z" fill="#FDC094"/>
<path d="M1985.51 2626.49H1798.02V2813.98H1985.51V2626.49Z" fill="#9BE1EF"/>
<path d="M1985.51 2626.49H1798.02V2813.98H1985.51V2626.49Z" fill="#FED3B4"/>
<path d="M2173 2626.49H1985.51V2813.98H2173V2626.49Z" fill="#F9C69D"/>
<path d="M1985.51 2626.49L2173 2813.98H1985.51V2626.49Z" fill="#FB832C"/>
<path d="M860.491 2814.02H673V3001.51H860.491V2814.02Z" fill="#FFF4ED"/>
<path d="M860.491 2814.02H673V3001.51H860.491V2814.02Z" fill="#F9C69E"/>
<path d="M1047.98 2814.02H860.49V3001.51H1047.98V2814.02Z" fill="#E1E5CE"/>
<path d="M879.239 2814.02H860.49V3001.51H879.239V2814.02Z" fill="#E0F6FA"/>
<path d="M916.737 2814.02H897.988V3001.51H916.737V2814.02Z" fill="#E0F6FA"/>
<path d="M954.235 2814.02H935.486V3001.51H954.235V2814.02Z" fill="#E0F6FA"/>
<path d="M991.733 2814.02H972.984V3001.51H991.733V2814.02Z" fill="#E0F6FA"/>
<path d="M1029.23 2814.02H1010.48V3001.51H1029.23V2814.02Z" fill="#E0F6FA"/>
<path d="M1235.51 2814.02H1048.02V3001.51H1235.51V2814.02Z" fill="#DAF4F9"/>
<path d="M1235.51 2814.02H1048.02V2832.77H1235.51V2814.02Z" fill="#97E0EE"/>
<path d="M1235.51 2851.52H1048.02V2870.27H1235.51V2851.52Z" fill="#97E0EE"/>
<path d="M1235.51 2889.02H1048.02V2907.76H1235.51V2889.02Z" fill="#97E0EE"/>
<path d="M1235.51 2926.51H1048.02V2945.26H1235.51V2926.51Z" fill="#97E0EE"/>
<path d="M1235.51 2964.01H1048.02V2982.76H1235.51V2964.01Z" fill="#97E0EE"/>
<path d="M1423 2814.02H1235.51V3001.51H1423V2814.02Z" fill="#E2E5CF"/>
<path d="M1235.51 2814.02H1423V3001.51L1235.51 2814.02Z" fill="#BBE3E1"/>
<path d="M1610.49 2814.02H1423V3001.51H1610.49V2814.02Z" fill="#D9EFEE"/>
<path d="M1441.75 2814.02H1423V3001.51H1441.75V2814.02Z" fill="white"/>
<path d="M1479.25 2814.02H1460.5V3001.51H1479.25V2814.02Z" fill="white"/>
<path d="M1516.75 2814.02H1498V3001.51H1516.75V2814.02Z" fill="white"/>
<path d="M1554.24 2814.02H1535.49V3001.51H1554.24V2814.02Z" fill="white"/>
<path d="M1591.74 2814.02H1572.99V3001.51H1591.74V2814.02Z" fill="white"/>
<path d="M1797.98 2814.02H1610.49V3001.51H1797.98V2814.02Z" fill="#FCA769"/>
<path d="M1797.98 2814.02H1610.49V3001.51H1797.98V2814.02Z" fill="#FDCEAC"/>
<path d="M1985.5 2814H1798V3001.5H1985.5V2814Z" fill="white"/>
<path d="M1891.76 2814.02H1798.02V2907.76H1891.76V2814.02Z" fill="#FB8A38"/>
<path d="M1891.76 2814.02H1798.02V2823.39H1891.76V2814.02Z" fill="#FAFBF7"/>
<path d="M1891.76 2832.77H1798.02V2842.14H1891.76V2832.77Z" fill="#FAFBF7"/>
<path d="M1891.76 2851.52H1798.02V2860.89H1891.76V2851.52Z" fill="#FAFBF7"/>
<path d="M1891.76 2870.27H1798.02V2879.64H1891.76V2870.27Z" fill="#FAFBF7"/>
<path d="M1891.76 2889.02H1798.02V2898.39H1891.76V2889.02Z" fill="#FAFBF7"/>
<path d="M1985.51 2814.02H1891.76V2907.76H1985.51V2814.02Z" fill="#A0E3F0"/>
<path d="M1891.76 2814.02C1916.63 2814.02 1940.47 2823.9 1958.05 2841.48C1975.63 2859.06 1985.51 2882.9 1985.51 2907.76L1891.76 2814.02C1891.76 2838.88 1901.64 2862.73 1919.22 2880.31C1936.8 2897.89 1960.65 2907.76 1985.51 2907.76" fill="#CDEAE9"/>
<path d="M1891.76 2907.76H1798.02V3001.51H1891.76V2907.76Z" fill="#FEFFFF"/>
<path d="M1891.76 2907.76H1798.02V3001.51H1891.76V2907.76Z" fill="#FDFEFE"/>
<path d="M1985.51 2907.76H1891.76V3001.51H1985.51V2907.76Z" fill="#F7AE74"/>
<path d="M1901.14 2907.76H1891.76V3001.51H1901.14V2907.76Z" fill="#FACEAB"/>
<path d="M1919.89 2907.76H1910.51V3001.51H1919.89V2907.76Z" fill="#FACEAB"/>
<path d="M1938.64 2907.76H1929.26V3001.51H1938.64V2907.76Z" fill="#FACEAB"/>
<path d="M1957.39 2907.76H1948.01V3001.51H1957.39V2907.76Z" fill="#FACEAB"/>
<path d="M1976.13 2907.76H1966.76V3001.51H1976.13V2907.76Z" fill="#FACEAB"/>
<path d="M2173 2814.02H1985.51V3001.51H2173V2814.02Z" fill="#E6E9D5"/>
<path d="M2173 2814.02H1985.51V2832.77H2173V2814.02Z" fill="#F9FAF6"/>
<path d="M2173 2851.52H1985.51V2870.27H2173V2851.52Z" fill="#F9FAF6"/>
<path d="M2173 2889.02H1985.51V2907.76H2173V2889.02Z" fill="#F9FAF6"/>
<path d="M2173 2926.51H1985.51V2945.26H2173V2926.51Z" fill="#F9FAF6"/>
<path d="M2173 2964.01H1985.51V2982.76H2173V2964.01Z" fill="#F9FAF6"/>
<path d="M860.491 3001.51H673V3189H860.491V3001.51Z" fill="#D8F3F9"/>
<path d="M860.491 3001.51H673V3189H860.491V3001.51Z" fill="#85DAEC"/>
<path d="M1047.98 3001.51H860.49V3189H1047.98V3001.51Z" fill="#FCFDFB"/>
<path d="M1047.98 3001.51H860.49V3189H1047.98V3001.51Z" fill="#FCA15F"/>
<path d="M1235.51 3001.51H1048.02V3189H1235.51V3001.51Z" fill="#C5E7E5"/>
<path d="M1235.51 3001.51V3189H1048.02L1235.51 3001.51Z" fill="#FBD6B8"/>
<path d="M1423 3001.51H1235.51V3189H1423V3001.51Z" fill="#D6EEED"/>
<path d="M1423 3001.51V3189H1235.51L1423 3001.51Z" fill="#77D6E9"/>
<path d="M1610.5 3001.5H1423V3189H1610.5V3001.5Z" fill="white"/>
<path d="M1516.75 3001.51H1423V3095.25H1516.75V3001.51Z" fill="#EDF0E2"/>
<path d="M1432.37 3001.51H1423V3095.26H1432.37V3001.51Z" fill="#F0F2E7"/>
<path d="M1451.12 3001.51H1441.75V3095.26H1451.12V3001.51Z" fill="#F0F2E7"/>
<path d="M1469.87 3001.51H1460.5V3095.26H1469.87V3001.51Z" fill="#F0F2E7"/>
<path d="M1488.62 3001.51H1479.25V3095.26H1488.62V3001.51Z" fill="#F0F2E7"/>
<path d="M1507.37 3001.51H1498V3095.26H1507.37V3001.51Z" fill="#F0F2E7"/>
<path d="M1610.49 3001.51H1516.75V3095.25H1610.49V3001.51Z" fill="#C1E6E4"/>
<path d="M1516.75 3001.51L1610.49 3095.25H1516.75V3001.51Z" fill="#F4F6ED"/>
<path d="M1516.75 3095.25H1423V3189H1516.75V3095.25Z" fill="#E1E5CE"/>
<path d="M1516.75 3095.25H1423V3189H1516.75V3095.25Z" fill="#94DFEE"/>
<path d="M1610.49 3095.25H1516.75V3189H1610.49V3095.25Z" fill="#F7FCFB"/>
<path d="M1610.49 3095.25H1516.75V3104.63H1610.49V3095.25Z" fill="#FEE1CC"/>
<path d="M1610.49 3114H1516.75V3123.38H1610.49V3114Z" fill="#FEE1CC"/>
<path d="M1610.49 3132.75H1516.75V3142.13H1610.49V3132.75Z" fill="#FEE1CC"/>
<path d="M1610.49 3151.5H1516.75V3160.88H1610.49V3151.5Z" fill="#FEE1CC"/>
<path d="M1610.49 3170.25H1516.75V3179.62H1610.49V3170.25Z" fill="#FEE1CC"/>
<path d="M1798 3001.5H1610.5V3189H1798V3001.5Z" fill="white"/>
<path d="M1704.24 3001.51H1610.49V3095.25H1704.24V3001.51Z" fill="#EAECDC"/>
<path d="M1610.49 3001.51C1635.35 3001.51 1659.2 3011.39 1676.78 3028.97C1694.36 3046.55 1704.24 3070.39 1704.24 3095.25L1610.49 3001.51C1610.49 3026.37 1620.37 3050.22 1637.95 3067.8C1655.53 3085.38 1679.37 3095.25 1704.24 3095.25" fill="#ECEFE0"/>
<path d="M1797.98 3001.51H1704.24V3095.25H1797.98V3001.51Z" fill="#71D4E8"/>
<path d="M1713.61 3001.51H1704.24V3095.26H1713.61V3001.51Z" fill="#9AE1EF"/>
<path d="M1732.36 3001.51H1722.99V3095.26H1732.36V3001.51Z" fill="#9AE1EF"/>
<path d="M1751.11 3001.51H1741.73V3095.26H1751.11V3001.51Z" fill="#9AE1EF"/>
<path d="M1769.86 3001.51H1760.48V3095.26H1769.86V3001.51Z" fill="#9AE1EF"/>
<path d="M1788.61 3001.51H1779.23V3095.26H1788.61V3001.51Z" fill="#9AE1EF"/>
<path d="M1704.24 3095.25H1610.49V3189H1704.24V3095.25Z" fill="#A6E4F1"/>
<path d="M1610.49 3095.25H1704.24V3189L1610.49 3095.25Z" fill="#FAC8A1"/>
<path d="M1797.98 3095.25H1704.24V3189H1797.98V3095.25Z" fill="#A7DBD8"/>
<path d="M1704.24 3095.25H1797.98L1704.24 3189V3095.25Z" fill="#FBDABF"/>
<path d="M1985.51 3001.51H1798.02V3189H1985.51V3001.51Z" fill="#CCEAE8"/>
<path d="M1985.51 3001.51H1798.02V3189H1985.51V3001.51Z" fill="#F4FAFA"/>
<path d="M2173 3001.5H1985.5V3189H2173V3001.5Z" fill="white"/>
<path d="M2079.26 3001.51H1985.51V3095.25H2079.26V3001.51Z" fill="#FEE3D0"/>
<path d="M2079.26 3001.51H1985.51V3010.88H2079.26V3001.51Z" fill="#FEDFC8"/>
<path d="M2079.26 3020.26H1985.51V3029.63H2079.26V3020.26Z" fill="#FEDFC8"/>
<path d="M2079.26 3039.01H1985.51V3048.38H2079.26V3039.01Z" fill="#FEDFC8"/>
<path d="M2079.26 3057.76H1985.51V3067.13H2079.26V3057.76Z" fill="#FEDFC8"/>
<path d="M2079.26 3076.51H1985.51V3085.88H2079.26V3076.51Z" fill="#FEDFC8"/>
<path d="M2173 3001.51H2079.25V3095.25H2173V3001.51Z" fill="#C9E9E7"/>
<path d="M2173 3001.51H2079.25V3010.88H2173V3001.51Z" fill="#C3EDF5"/>
<path d="M2173 3020.26H2079.25V3029.63H2173V3020.26Z" fill="#C3EDF5"/>
<path d="M2173 3039.01H2079.25V3048.38H2173V3039.01Z" fill="#C3EDF5"/>
<path d="M2173 3057.76H2079.25V3067.13H2173V3057.76Z" fill="#C3EDF5"/>
<path d="M2173 3076.51H2079.25V3085.88H2173V3076.51Z" fill="#C3EDF5"/>
<path d="M2079.26 3095.25H1985.51V3189H2079.26V3095.25Z" fill="#FDC8A1"/>
<path d="M2079.26 3095.25H1985.51V3104.63H2079.26V3095.25Z" fill="#CFEBEA"/>
<path d="M2079.26 3114H1985.51V3123.38H2079.26V3114Z" fill="#CFEBEA"/>
<path d="M2079.26 3132.75H1985.51V3142.13H2079.26V3132.75Z" fill="#CFEBEA"/>
<path d="M2079.26 3151.5H1985.51V3160.88H2079.26V3151.5Z" fill="#CFEBEA"/>
<path d="M2079.26 3170.25H1985.51V3179.62H2079.26V3170.25Z" fill="#CFEBEA"/>
<path d="M2173 3095.25H2079.25V3189H2173V3095.25Z" fill="#F8B682"/>
<path d="M2079.25 3095.25H2173L2079.25 3189V3095.25Z" fill="#B6E1DF"/>
<path d="M860.491 3189H673V3376.49H860.491V3189Z" fill="#FBD5B7"/>
<path d="M860.491 3189H673V3376.49H860.491V3189Z" fill="#FC984F"/>
<path d="M1047.98 3189H860.49V3376.49H1047.98V3189Z" fill="#F4FAFA"/>
<path d="M860.49 3189L1047.98 3376.49H860.49V3189Z" fill="#CBEAE8"/>
<path d="M1235.51 3189H1048.02V3376.49H1235.51V3189Z" fill="#AFDEDC"/>
<path d="M1235.51 3189H1048.02V3207.75H1235.51V3189Z" fill="#F8F9F4"/>
<path d="M1235.51 3226.5H1048.02V3245.25H1235.51V3226.5Z" fill="#F8F9F4"/>
<path d="M1235.51 3264H1048.02V3282.75H1235.51V3264Z" fill="#F8F9F4"/>
<path d="M1235.51 3301.49H1048.02V3320.24H1235.51V3301.49Z" fill="#F8F9F4"/>
<path d="M1235.51 3338.99H1048.02V3357.74H1235.51V3338.99Z" fill="#F8F9F4"/>
<path d="M1423 3189H1235.51V3376.49H1423V3189Z" fill="#FC9F5B"/>
<path d="M1423 3189H1235.51V3376.49H1423V3189Z" fill="#F6A15D"/>
<path d="M1610.5 3189H1423V3376.5H1610.5V3189Z" fill="white"/>
<path d="M1516.75 3189H1423V3282.75H1516.75V3189Z" fill="#F48E3E"/>
<path d="M1423 3189H1516.75V3282.75L1423 3189Z" fill="#F49549"/>
<path d="M1610.49 3189H1516.75V3282.75H1610.49V3189Z" fill="#B2DFDD"/>
<path d="M1610.49 3189H1516.75V3282.75H1610.49V3189Z" fill="#FCFEFE"/>
<path d="M1516.75 3282.75H1423V3376.49H1516.75V3282.75Z" fill="#FBD7BA"/>
<path d="M1432.37 3282.75H1423V3376.49H1432.37V3282.75Z" fill="#FB8530"/>
<path d="M1451.12 3282.75H1441.75V3376.49H1451.12V3282.75Z" fill="#FB8530"/>
<path d="M1469.87 3282.75H1460.5V3376.49H1469.87V3282.75Z" fill="#FB8530"/>
<path d="M1488.62 3282.75H1479.25V3376.49H1488.62V3282.75Z" fill="#FB8530"/>
<path d="M1507.37 3282.75H1498V3376.49H1507.37V3282.75Z" fill="#FB8530"/>
<path d="M1610.49 3282.75H1516.75V3376.49H1610.49V3282.75Z" fill="#E5E8D3"/>
<path d="M1610.49 3282.75H1516.75V3376.49H1610.49V3282.75Z" fill="#B2DFDD"/>
<path d="M1797.98 3189H1610.49V3376.49H1797.98V3189Z" fill="#FB7E24"/>
<path d="M1797.98 3189H1610.49V3207.75H1797.98V3189Z" fill="#F9FDFE"/>
<path d="M1797.98 3226.5H1610.49V3245.25H1797.98V3226.5Z" fill="#F9FDFE"/>
<path d="M1797.98 3264H1610.49V3282.75H1797.98V3264Z" fill="#F9FDFE"/>
<path d="M1797.98 3301.49H1610.49V3320.24H1797.98V3301.49Z" fill="#F9FDFE"/>
<path d="M1797.98 3338.99H1610.49V3357.74H1797.98V3338.99Z" fill="#F9FDFE"/>
<path d="M1985.51 3189H1798.02V3376.49H1985.51V3189Z" fill="#BBE3E1"/>
<path d="M1798.02 3376.49C1798.02 3326.77 1817.77 3279.08 1852.93 3243.91C1888.1 3208.75 1935.78 3189 1985.51 3189V3376.49" fill="#EEF0E3"/>
<path d="M2173 3189H1985.5V3376.5H2173V3189Z" fill="white"/>
<path d="M2079.26 3189H1985.51V3282.75H2079.26V3189Z" fill="#85DAEB"/>
<path d="M1985.51 3282.75C1985.51 3257.88 1995.39 3234.04 2012.97 3216.46C2030.55 3198.88 2054.39 3189 2079.26 3189L1985.51 3282.75C2010.37 3282.75 2034.22 3272.87 2051.8 3255.29C2069.38 3237.71 2079.26 3213.86 2079.26 3189" fill="#CBEAE8"/>
<path d="M2173 3189H2079.25V3282.75H2173V3189Z" fill="#FB8835"/>
<path d="M2079.25 3189H2173V3282.75L2079.25 3189Z" fill="#D5EEEC"/>
<path d="M2079.26 3282.75H1985.51V3376.49H2079.26V3282.75Z" fill="#FCA86C"/>
<path d="M1985.51 3282.75H2079.26V3376.49L1985.51 3282.75Z" fill="#FAFBF7"/>
<path d="M2173 3282.75H2079.25V3376.49H2173V3282.75Z" fill="#D3F2F8"/>
<path d="M2079.25 3282.75H2173L2079.25 3376.49V3282.75Z" fill="#FDB887"/>
<path d="M860.5 3376.5H673V3564H860.5V3376.5Z" fill="white"/>
<path d="M766.745 3376.49H673V3470.24H766.745V3376.49Z" fill="#A9DCD9"/>
<path d="M673 3376.49H766.745V3470.24L673 3376.49Z" fill="#E2E6CF"/>
<path d="M860.491 3376.49H766.746V3470.24H860.491V3376.49Z" fill="#FDB784"/>
<path d="M776.121 3376.49H766.746V3470.24H776.121V3376.49Z" fill="#EBEDDD"/>
<path d="M794.871 3376.49H785.496V3470.24H794.871V3376.49Z" fill="#EBEDDD"/>
<path d="M813.619 3376.49H804.244V3470.24H813.619V3376.49Z" fill="#EBEDDD"/>
<path d="M832.369 3376.49H822.994V3470.24H832.369V3376.49Z" fill="#EBEDDD"/>
<path d="M851.117 3376.49H841.742V3470.24H851.117V3376.49Z" fill="#EBEDDD"/>
<path d="M766.745 3470.24H673V3563.98H766.745V3470.24Z" fill="#F2F3E9"/>
<path d="M766.745 3470.24H673V3563.98H766.745V3470.24Z" fill="#BFECF5"/>
<path d="M860.491 3470.24H766.746V3563.98H860.491V3470.24Z" fill="#E8F6F5"/>
<path d="M860.491 3470.24H766.746V3563.98H860.491V3470.24Z" fill="#FCFCF9"/>
<path d="M1047.98 3376.49H860.49V3563.98H1047.98V3376.49Z" fill="#6AD2E7"/>
<path d="M1047.98 3376.49H860.49V3395.24H1047.98V3376.49Z" fill="#FED4B6"/>
<path d="M1047.98 3413.99H860.49V3432.74H1047.98V3413.99Z" fill="#FED4B6"/>
<path d="M1047.98 3451.49H860.49V3470.24H1047.98V3451.49Z" fill="#FED4B6"/>
<path d="M1047.98 3488.98H860.49V3507.73H1047.98V3488.98Z" fill="#FED4B6"/>
<path d="M1047.98 3526.48H860.49V3545.23H1047.98V3526.48Z" fill="#FED4B6"/>
<path d="M1235.51 3376.49H1048.02V3563.98H1235.51V3376.49Z" fill="#E4E7D3"/>
<path d="M1235.51 3376.49V3563.98H1048.02L1235.51 3376.49Z" fill="#FC9D58"/>
<path d="M1423 3376.49H1235.51V3563.98H1423V3376.49Z" fill="#FBD2B2"/>
<path d="M1235.51 3376.49C1235.51 3426.22 1255.26 3473.9 1290.42 3509.07C1325.59 3544.23 1373.27 3563.98 1423 3563.98V3376.49" fill="#7ED8EA"/>
<path d="M1610.5 3376.5H1423V3564H1610.5V3376.5Z" fill="white"/>
<path d="M1516.75 3376.49H1423V3470.24H1516.75V3376.49Z" fill="#C8E9E7"/>
<path d="M1516.75 3376.49H1423V3470.24H1516.75V3376.49Z" fill="#B8EAF4"/>
<path d="M1610.49 3376.49H1516.75V3470.24H1610.49V3376.49Z" fill="#FFF1E7"/>
<path d="M1610.49 3376.49H1516.75V3470.24H1610.49V3376.49Z" fill="#FCAD74"/>
<path d="M1516.75 3470.24H1423V3563.98H1516.75V3470.24Z" fill="#EAECDC"/>
<path d="M1432.37 3470.24H1423V3563.98H1432.37V3470.24Z" fill="#ECEEE0"/>
<path d="M1451.12 3470.24H1441.75V3563.98H1451.12V3470.24Z" fill="#ECEEE0"/>
<path d="M1469.87 3470.24H1460.5V3563.98H1469.87V3470.24Z" fill="#ECEEE0"/>
<path d="M1488.62 3470.24H1479.25V3563.98H1488.62V3470.24Z" fill="#ECEEE0"/>
<path d="M1507.37 3470.24H1498V3563.98H1507.37V3470.24Z" fill="#ECEEE0"/>
<path d="M1610.49 3470.24H1516.75V3563.98H1610.49V3470.24Z" fill="#EDFAFC"/>
<path d="M1610.49 3470.24H1516.75V3563.98H1610.49V3470.24Z" fill="#B9E2E0"/>
<path d="M1797.98 3376.49H1610.49V3563.98H1797.98V3376.49Z" fill="#FACBA6"/>
<path d="M1610.49 3563.98C1610.49 3514.26 1630.24 3466.57 1665.41 3431.4C1700.57 3396.24 1748.26 3376.49 1797.98 3376.49V3563.98" fill="#D6F3F8"/>
<path d="M1985.51 3376.49H1798.02V3563.98H1985.51V3376.49Z" fill="#F4F6EE"/>
<path d="M1798.02 3563.98C1798.02 3514.26 1817.77 3466.57 1852.93 3431.4C1888.1 3396.24 1935.78 3376.49 1985.51 3376.49L1798.02 3563.98C1847.75 3563.98 1895.43 3544.23 1930.6 3509.07C1965.76 3473.9 1985.51 3426.22 1985.51 3376.49" fill="#F4FBFA"/>
<path d="M2173 3376.49H1985.51V3563.98H2173V3376.49Z" fill="#EBEEDF"/>
<path d="M2173 3376.49V3563.98H1985.51L2173 3376.49Z" fill="#FACCA7"/>
<path d="M860.491 3564.02H673V3751.51H860.491V3564.02Z" fill="#EFF1E5"/>
<path d="M673 3564.02H860.491L673 3751.51V3564.02Z" fill="#E1F6FA"/>
<path d="M1047.98 3564.02H860.49V3751.51H1047.98V3564.02Z" fill="#FB7F26"/>
<path d="M879.239 3564.02H860.49V3751.51H879.239V3564.02Z" fill="#F8B988"/>
<path d="M916.737 3564.02H897.988V3751.51H916.737V3564.02Z" fill="#F8B988"/>
<path d="M954.235 3564.02H935.486V3751.51H954.235V3564.02Z" fill="#F8B988"/>
<path d="M991.733 3564.02H972.984V3751.51H991.733V3564.02Z" fill="#F8B988"/>
<path d="M1029.23 3564.02H1010.48V3751.51H1029.23V3564.02Z" fill="#F8B988"/>
<path d="M1235.51 3564.02H1048.02V3751.51H1235.51V3564.02Z" fill="#70D4E8"/>
<path d="M1048.02 3751.51C1048.02 3701.78 1067.77 3654.1 1102.93 3618.93C1138.09 3583.77 1185.78 3564.02 1235.51 3564.02L1048.02 3751.51C1097.74 3751.51 1145.43 3731.76 1180.59 3696.6C1215.75 3661.43 1235.51 3613.75 1235.51 3564.02" fill="#FB8E3E"/>
<path d="M1423 3564H1235.5V3751.5H1423V3564Z" fill="white"/>
<path d="M1329.26 3564.02H1235.51V3657.76H1329.26V3564.02Z" fill="#F1F3E9"/>
<path d="M1329.26 3564.02V3657.76H1235.51L1329.26 3564.02Z" fill="#FFFBF7"/>
<path d="M1423 3564.02H1329.25V3657.76H1423V3564.02Z" fill="#B3E0DD"/>
<path d="M1329.25 3657.76C1329.25 3632.9 1339.13 3609.06 1356.71 3591.48C1374.29 3573.9 1398.14 3564.02 1423 3564.02V3657.76" fill="#DEF5FA"/>
<path d="M1329.26 3657.76H1235.51V3751.51H1329.26V3657.76Z" fill="#BEE4E2"/>
<path d="M1329.26 3657.76H1235.51V3751.51H1329.26V3657.76Z" fill="#C0E5E3"/>
<path d="M1423 3657.76H1329.25V3751.51H1423V3657.76Z" fill="#FCA769"/>
<path d="M1423 3657.76H1329.25V3751.51H1423V3657.76Z" fill="#EFFAFC"/>
<path d="M1610.49 3564.02H1423V3751.51H1610.49V3564.02Z" fill="#73D5E9"/>
<path d="M1423 3564.02L1610.49 3751.51H1423V3564.02Z" fill="#EFF8F8"/>
<path d="M1798 3564H1610.5V3751.5H1798V3564Z" fill="white"/>
<path d="M1704.24 3564.02H1610.49V3657.76H1704.24V3564.02Z" fill="#FEF2E9"/>
<path d="M1610.49 3564.02H1704.24L1610.49 3657.76V3564.02Z" fill="#F6A15E"/>
<path d="M1797.98 3564.02H1704.24V3657.76H1797.98V3564.02Z" fill="#F5F6EE"/>
<path d="M1797.98 3564.02H1704.24V3657.76H1797.98V3564.02Z" fill="#C6E8E6"/>
<path d="M1704.24 3657.76H1610.49V3751.51H1704.24V3657.76Z" fill="#FACFAD"/>
<path d="M1610.49 3657.76C1635.35 3657.76 1659.2 3667.64 1676.78 3685.22C1694.36 3702.8 1704.24 3726.65 1704.24 3751.51H1610.49" fill="#FDEADC"/>
<path d="M1797.98 3657.76H1704.24V3751.51H1797.98V3657.76Z" fill="#FDEDE0"/>
<path d="M1797.98 3657.76H1704.24V3667.14H1797.98V3657.76Z" fill="#8CDDED"/>
<path d="M1797.98 3676.51H1704.24V3685.89H1797.98V3676.51Z" fill="#8CDDED"/>
<path d="M1797.98 3695.26H1704.24V3704.64H1797.98V3695.26Z" fill="#8CDDED"/>
<path d="M1797.98 3714.01H1704.24V3723.39H1797.98V3714.01Z" fill="#8CDDED"/>
<path d="M1797.98 3732.76H1704.24V3742.13H1797.98V3732.76Z" fill="#8CDDED"/>
<path d="M1985.51 3564.02H1798.02V3751.51H1985.51V3564.02Z" fill="#FBFBF8"/>
<path d="M1985.51 3564.02H1798.02V3751.51H1985.51V3564.02Z" fill="#E8EBD9"/>
<path d="M2173 3564H1985.5V3751.5H2173V3564Z" fill="white"/>
<path d="M2079.26 3564.02H1985.51V3657.76H2079.26V3564.02Z" fill="#FEF0E5"/>
<path d="M2079.26 3564.02V3657.76H1985.51L2079.26 3564.02Z" fill="#F5FCFD"/>
<path d="M2173 3564.02H2079.25V3657.76H2173V3564.02Z" fill="#F5F6EF"/>
<path d="M2173 3564.02V3657.76H2079.25L2173 3564.02Z" fill="#E3F4F3"/>
<path d="M2079.26 3657.76H1985.51V3751.51H2079.26V3657.76Z" fill="#FCE4D1"/>
<path d="M1985.51 3657.76C1985.51 3682.63 1995.39 3706.47 2012.97 3724.05C2030.55 3741.63 2054.39 3751.51 2079.26 3751.51V3657.76" fill="#C3E7E4"/>
<path d="M2173 3657.76H2079.25V3751.51H2173V3657.76Z" fill="#9BE1EF"/>
<path d="M2088.63 3657.76H2079.25V3751.51H2088.63V3657.76Z" fill="#7DD8EA"/>
<path d="M2107.38 3657.76H2098V3751.51H2107.38V3657.76Z" fill="#7DD8EA"/>
<path d="M2126.13 3657.76H2116.75V3751.51H2126.13V3657.76Z" fill="#7DD8EA"/>
<path d="M2144.88 3657.76H2135.5V3751.51H2144.88V3657.76Z" fill="#7DD8EA"/>
<path d="M2163.62 3657.76H2154.25V3751.51H2163.62V3657.76Z" fill="#7DD8EA"/>
<path d="M860.491 3751.51H673V3939H860.491V3751.51Z" fill="#EDEFE1"/>
<path d="M860.491 3751.51H673V3939H860.491V3751.51Z" fill="#FEF1E6"/>
<path d="M1047.98 3751.51H860.49V3939H1047.98V3751.51Z" fill="#F9C7A0"/>
<path d="M879.239 3751.51H860.49V3939H879.239V3751.51Z" fill="#78D7E9"/>
<path d="M916.737 3751.51H897.988V3939H916.737V3751.51Z" fill="#78D7E9"/>
<path d="M954.235 3751.51H935.486V3939H954.235V3751.51Z" fill="#78D7E9"/>
<path d="M991.733 3751.51H972.984V3939H991.733V3751.51Z" fill="#78D7E9"/>
<path d="M1029.23 3751.51H1010.48V3939H1029.23V3751.51Z" fill="#78D7E9"/>
<path d="M1235.51 3751.51H1048.02V3939H1235.51V3751.51Z" fill="#B6E1DF"/>
<path d="M1048.02 3751.51H1235.51L1048.02 3939V3751.51Z" fill="#FCFCFA"/>
<path d="M1423 3751.51H1235.51V3939H1423V3751.51Z" fill="#6DD3E8"/>
<path d="M1423 3751.51H1235.51V3939H1423V3751.51Z" fill="#FAFDFD"/>
<path d="M1610.49 3751.51H1423V3939H1610.49V3751.51Z" fill="#C9EFF6"/>
<path d="M1610.49 3751.51H1423V3939H1610.49V3751.51Z" fill="#E2E5CF"/>
<path d="M1797.98 3751.51H1610.49V3939H1797.98V3751.51Z" fill="#FDEBDD"/>
<path d="M1797.98 3751.51H1610.49V3939H1797.98V3751.51Z" fill="#A7DBD8"/>
<path d="M1985.5 3751.5H1798V3939H1985.5V3751.5Z" fill="white"/>
<path d="M1891.76 3751.51H1798.02V3845.25H1891.76V3751.51Z" fill="#B1E7F2"/>
<path d="M1891.76 3751.51H1798.02V3760.88H1891.76V3751.51Z" fill="#FA6B03"/>
<path d="M1891.76 3770.26H1798.02V3779.63H1891.76V3770.26Z" fill="#FA6B03"/>
<path d="M1891.76 3789.01H1798.02V3798.38H1891.76V3789.01Z" fill="#FA6B03"/>
<path d="M1891.76 3807.76H1798.02V3817.13H1891.76V3807.76Z" fill="#FA6B03"/>
<path d="M1891.76 3826.51H1798.02V3835.88H1891.76V3826.51Z" fill="#FA6B03"/>
<path d="M1985.51 3751.51H1891.76V3845.25H1985.51V3751.51Z" fill="#FCDFC9"/>
<path d="M1901.14 3751.51H1891.76V3845.26H1901.14V3751.51Z" fill="#E8F6F5"/>
<path d="M1919.89 3751.51H1910.51V3845.26H1919.89V3751.51Z" fill="#E8F6F5"/>
<path d="M1938.64 3751.51H1929.26V3845.26H1938.64V3751.51Z" fill="#E8F6F5"/>
<path d="M1957.39 3751.51H1948.01V3845.26H1957.39V3751.51Z" fill="#E8F6F5"/>
<path d="M1976.13 3751.51H1966.76V3845.26H1976.13V3751.51Z" fill="#E8F6F5"/>
<path d="M1891.76 3845.25H1798.02V3939H1891.76V3845.25Z" fill="#FED8BD"/>
<path d="M1798.02 3939C1822.88 3939 1846.73 3929.12 1864.31 3911.54C1881.89 3893.96 1891.76 3870.12 1891.76 3845.25H1798.02" fill="#BEE4E2"/>
<path d="M1985.51 3845.25H1891.76V3939H1985.51V3845.25Z" fill="#FCAD73"/>
<path d="M1985.51 3845.25H1891.76V3939H1985.51V3845.25Z" fill="#BAE3E0"/>
<path d="M2173 3751.51H1985.51V3939H2173V3751.51Z" fill="#B0DFDC"/>
<path d="M2004.26 3751.51H1985.51V3939H2004.26V3751.51Z" fill="#CCEAE8"/>
<path d="M2041.76 3751.51H2023.01V3939H2041.76V3751.51Z" fill="#CCEAE8"/>
<path d="M2079.25 3751.51H2060.51V3939H2079.25V3751.51Z" fill="#CCEAE8"/>
<path d="M2116.75 3751.51H2098V3939H2116.75V3751.51Z" fill="#CCEAE8"/>
<path d="M2154.25 3751.51H2135.5V3939H2154.25V3751.51Z" fill="#CCEAE8"/>
</g>
<defs>
<clipPath id="clip0_888_12676">
<rect width="1500" height="3000" fill="white" transform="translate(673 939)"/>
</clipPath>
</defs>
</svg>
